<svg width="801" height="170" viewBox="0 0 801 170" fill="none" xmlns="http://www.w3.org/2000/svg">
<path d="M425 85L545 85" stroke="#355FB3" stroke-width="4"/>
<path d="M15 85L135 85" stroke="#355FB3" stroke-width="4"/>
<path d="M425 85L485 15L545 85" stroke="#B33535" stroke-width="4"/>
<path d="M75 15L15 85L75 155" stroke="#B33535" stroke-width="4"/>
<path d="M425 85L485 155L545 85" stroke="#3BB335" stroke-width="4"/>
<path d="M75 155L135 85L75 15" stroke="#3BB335" stroke-width="4"/>
<circle cx="425" cy="85" r="14" fill="white" stroke="black" stroke-width="2"/>
<path d="M426.552 81.1767C426.552 80.0702 425.99 80 425.849 80C425.428 80 425.041 80.4215 425.041 80.7727C425.041 80.9835 425.164 81.1064 425.235 81.1767C425.41 81.3347 425.867 81.8089 425.867 82.7221C425.867 83.4597 424.813 87.5693 422.706 87.5693C421.634 87.5693 421.424 86.6736 421.424 86.0238C421.424 85.1457 421.827 83.9163 422.302 82.6519C422.583 81.9318 422.653 81.7562 422.653 81.405C422.653 80.6674 422.126 80 421.266 80C419.65 80 419 82.5465 419 82.687C419 82.7572 419.07 82.8451 419.193 82.8451C419.351 82.8451 419.369 82.7748 419.439 82.529C419.861 81.0186 420.545 80.3512 421.213 80.3512C421.371 80.3512 421.669 80.3512 421.669 80.9308C421.669 81.3874 421.476 81.8967 421.213 82.5641C420.37 84.812 420.37 85.3564 420.37 85.7779C420.37 86.1643 420.423 86.8843 420.967 87.3761C421.599 87.9205 422.477 87.9205 422.635 87.9205C425.551 87.9205 426.552 82.1777 426.552 81.1767Z" fill="black"/>
<path d="M430.297 83.0734C430.297 82.8158 430.11 82.6285 429.841 82.6285C429.536 82.6285 429.197 82.9095 429.197 83.2607C429.197 83.5183 429.384 83.7057 429.653 83.7057C429.958 83.7057 430.297 83.4246 430.297 83.0734ZM428.588 87.3703L427.956 88.986C427.897 89.1616 427.838 89.3021 427.838 89.5011C427.838 90.0748 428.283 90.4963 428.904 90.4963C430.04 90.4963 430.52 88.8572 430.52 88.705C430.52 88.5879 430.426 88.5528 430.344 88.5528C430.204 88.5528 430.18 88.6347 430.145 88.7518C429.876 89.6885 429.396 90.1685 428.927 90.1685C428.787 90.1685 428.646 90.11 428.646 89.7938C428.646 89.5128 428.728 89.3021 428.88 88.9391C428.998 88.623 429.115 88.3069 429.243 87.9908L429.606 87.0424C429.712 86.7732 429.852 86.4102 429.852 86.2112C429.852 85.6258 429.384 85.216 428.787 85.216C427.651 85.216 427.159 86.8551 427.159 87.0073C427.159 87.1127 427.241 87.1595 427.335 87.1595C427.487 87.1595 427.499 87.0893 427.534 86.9722C427.862 85.8599 428.4 85.5438 428.752 85.5438C428.916 85.5438 429.033 85.6023 429.033 85.9302C429.033 86.0473 429.021 86.2112 428.904 86.5624L428.588 87.3703Z" fill="black"/>
<circle cx="15" cy="85" r="14" fill="white" stroke="black" stroke-width="2"/>
<path d="M16.5517 81.1767C16.5517 80.0702 15.9897 80 15.8492 80C15.4277 80 15.0414 80.4215 15.0414 80.7727C15.0414 80.9835 15.1643 81.1064 15.2345 81.1767C15.4102 81.3347 15.8668 81.8089 15.8668 82.7221C15.8668 83.4597 14.8131 87.5693 12.7056 87.5693C11.6343 87.5693 11.4236 86.6736 11.4236 86.0238C11.4236 85.1457 11.8275 83.9163 12.3017 82.6519C12.5827 81.9318 12.6529 81.7562 12.6529 81.405C12.6529 80.6674 12.1261 80 11.2655 80C9.6498 80 9 82.5465 9 82.687C9 82.7572 9.07025 82.8451 9.19318 82.8451C9.35124 82.8451 9.3688 82.7748 9.43905 82.529C9.86054 81.0186 10.5455 80.3512 11.2128 80.3512C11.3709 80.3512 11.6694 80.3512 11.6694 80.9308C11.6694 81.3874 11.4763 81.8967 11.2128 82.5641C10.3698 84.812 10.3698 85.3564 10.3698 85.7779C10.3698 86.1643 10.4225 86.8843 10.967 87.3761C11.5992 87.9205 12.4773 87.9205 12.6354 87.9205C15.5507 87.9205 16.5517 82.1777 16.5517 81.1767Z" fill="black"/>
<path d="M20.2972 83.0734C20.2972 82.8158 20.1099 82.6285 19.8406 82.6285C19.5362 82.6285 19.1966 82.9095 19.1966 83.2607C19.1966 83.5183 19.3839 83.7057 19.6532 83.7057C19.9577 83.7057 20.2972 83.4246 20.2972 83.0734ZM18.5878 87.3703L17.9556 88.986C17.897 89.1616 17.8385 89.3021 17.8385 89.5011C17.8385 90.0748 18.2834 90.4963 18.9039 90.4963C20.0396 90.4963 20.5196 88.8572 20.5196 88.705C20.5196 88.5879 20.426 88.5528 20.344 88.5528C20.2035 88.5528 20.1801 88.6347 20.145 88.7518C19.8757 89.6885 19.3957 90.1685 18.9273 90.1685C18.7868 90.1685 18.6464 90.11 18.6464 89.7938C18.6464 89.5128 18.7283 89.3021 18.8805 88.9391C18.9976 88.623 19.1147 88.3069 19.2435 87.9908L19.6064 87.0424C19.7118 86.7732 19.8523 86.4102 19.8523 86.2112C19.8523 85.6258 19.3839 85.216 18.7868 85.216C17.6512 85.216 17.1594 86.8551 17.1594 87.0073C17.1594 87.1127 17.2414 87.1595 17.335 87.1595C17.4873 87.1595 17.499 87.0893 17.5341 86.9722C17.8619 85.8599 18.4005 85.5438 18.7517 85.5438C18.9156 85.5438 19.0327 85.6023 19.0327 85.9302C19.0327 86.0473 19.021 86.2112 18.9039 86.5624L18.5878 87.3703Z" fill="black"/>
<circle cx="485" cy="15" r="14" fill="white" stroke="black" stroke-width="2"/>
<path d="M486.552 11.1767C486.552 10.0702 485.99 10 485.849 10C485.428 10 485.041 10.4215 485.041 10.7727C485.041 10.9835 485.164 11.1064 485.235 11.1767C485.41 11.3347 485.867 11.8089 485.867 12.7221C485.867 13.4597 484.813 17.5693 482.706 17.5693C481.634 17.5693 481.424 16.6736 481.424 16.0238C481.424 15.1457 481.827 13.9163 482.302 12.6519C482.583 11.9318 482.653 11.7562 482.653 11.405C482.653 10.6674 482.126 10 481.266 10C479.65 10 479 12.5465 479 12.687C479 12.7572 479.07 12.8451 479.193 12.8451C479.351 12.8451 479.369 12.7748 479.439 12.529C479.861 11.0186 480.545 10.3512 481.213 10.3512C481.371 10.3512 481.669 10.3512 481.669 10.9308C481.669 11.3874 481.476 11.8967 481.213 12.5641C480.37 14.812 480.37 15.3564 480.37 15.7779C480.37 16.1643 480.423 16.8843 480.967 17.3761C481.599 17.9205 482.477 17.9205 482.635 17.9205C485.551 17.9205 486.552 12.1777 486.552 11.1767Z" fill="black"/>
<path d="M489.876 12.6051C489.887 12.5817 489.923 12.4295 489.923 12.4178C489.923 12.3592 489.876 12.2538 489.735 12.2538L488.553 12.3475C488.119 12.3826 488.026 12.3943 488.026 12.6051C488.026 12.769 488.19 12.769 488.33 12.769C488.892 12.769 488.892 12.8393 488.892 12.9446C488.892 12.9797 488.892 13.0032 488.834 13.2139L487.382 19.0211C487.335 19.2084 487.335 19.3841 487.335 19.3958C487.335 20.1217 487.932 20.4963 488.518 20.4963C489.021 20.4963 489.29 20.0983 489.419 19.8407C489.63 19.4543 489.805 18.7635 489.805 18.705C489.805 18.6347 489.77 18.5528 489.618 18.5528C489.513 18.5528 489.478 18.6113 489.478 18.623C489.454 18.6582 489.396 18.8689 489.361 18.9977C489.185 19.6768 488.962 20.1685 488.541 20.1685C488.26 20.1685 488.178 19.8992 488.178 19.6182C488.178 19.3958 488.213 19.267 488.248 19.1148L489.876 12.6051Z" fill="black"/>
<circle cx="75" cy="15" r="14" fill="white" stroke="black" stroke-width="2"/>
<path d="M76.5517 11.1767C76.5517 10.0702 75.9897 10 75.8492 10C75.4277 10 75.0414 10.4215 75.0414 10.7727C75.0414 10.9835 75.1643 11.1064 75.2345 11.1767C75.4102 11.3347 75.8668 11.8089 75.8668 12.7221C75.8668 13.4597 74.8131 17.5693 72.7056 17.5693C71.6343 17.5693 71.4236 16.6736 71.4236 16.0238C71.4236 15.1457 71.8275 13.9163 72.3017 12.6519C72.5827 11.9318 72.6529 11.7562 72.6529 11.405C72.6529 10.6674 72.1261 10 71.2655 10C69.6498 10 69 12.5465 69 12.687C69 12.7572 69.0702 12.8451 69.1932 12.8451C69.3512 12.8451 69.3688 12.7748 69.4391 12.529C69.8605 11.0186 70.5455 10.3512 71.2128 10.3512C71.3709 10.3512 71.6694 10.3512 71.6694 10.9308C71.6694 11.3874 71.4763 11.8967 71.2128 12.5641C70.3698 14.812 70.3698 15.3564 70.3698 15.7779C70.3698 16.1643 70.4225 16.8843 70.967 17.3761C71.5992 17.9205 72.4773 17.9205 72.6354 17.9205C75.5507 17.9205 76.5517 12.1777 76.5517 11.1767Z" fill="black"/>
<path d="M79.8757 12.6051C79.8874 12.5817 79.9225 12.4295 79.9225 12.4178C79.9225 12.3592 79.8757 12.2538 79.7352 12.2538L78.5527 12.3475C78.1195 12.3826 78.0258 12.3943 78.0258 12.6051C78.0258 12.769 78.1897 12.769 78.3302 12.769C78.8922 12.769 78.8922 12.8393 78.8922 12.9446C78.8922 12.9797 78.8922 13.0032 78.8337 13.2139L77.3819 19.0211C77.335 19.2084 77.335 19.3841 77.335 19.3958C77.335 20.1217 77.9321 20.4963 78.5175 20.4963C79.021 20.4963 79.2903 20.0983 79.4191 19.8407C79.6298 19.4543 79.8054 18.7635 79.8054 18.705C79.8054 18.6347 79.7703 18.5528 79.6181 18.5528C79.5127 18.5528 79.4776 18.6113 79.4776 18.623C79.4542 18.6582 79.3956 18.8689 79.3605 18.9977C79.1849 19.6768 78.9624 20.1685 78.541 20.1685C78.26 20.1685 78.178 19.8992 78.178 19.6182C78.178 19.3958 78.2131 19.267 78.2483 19.1148L79.8757 12.6051Z" fill="black"/>
<circle cx="485" cy="155" r="14" fill="white" stroke="black" stroke-width="2"/>
<path d="M486.552 151.177C486.552 150.07 485.99 150 485.849 150C485.428 150 485.041 150.421 485.041 150.773C485.041 150.983 485.164 151.106 485.235 151.177C485.41 151.335 485.867 151.809 485.867 152.722C485.867 153.46 484.813 157.569 482.706 157.569C481.634 157.569 481.424 156.674 481.424 156.024C481.424 155.146 481.827 153.916 482.302 152.652C482.583 151.932 482.653 151.756 482.653 151.405C482.653 150.667 482.126 150 481.266 150C479.65 150 479 152.547 479 152.687C479 152.757 479.07 152.845 479.193 152.845C479.351 152.845 479.369 152.775 479.439 152.529C479.861 151.019 480.545 150.351 481.213 150.351C481.371 150.351 481.669 150.351 481.669 150.931C481.669 151.387 481.476 151.897 481.213 152.564C480.37 154.812 480.37 155.356 480.37 155.778C480.37 156.164 480.423 156.884 480.967 157.376C481.599 157.921 482.477 157.921 482.635 157.921C485.551 157.921 486.552 152.178 486.552 151.177Z" fill="black"/>
<path d="M489.876 152.605C489.887 152.582 489.923 152.429 489.923 152.418C489.923 152.359 489.876 152.254 489.735 152.254L488.553 152.347C488.119 152.383 488.026 152.394 488.026 152.605C488.026 152.769 488.19 152.769 488.33 152.769C488.892 152.769 488.892 152.839 488.892 152.945C488.892 152.98 488.892 153.003 488.834 153.214L487.382 159.021C487.335 159.208 487.335 159.384 487.335 159.396C487.335 160.122 487.932 160.496 488.518 160.496C489.021 160.496 489.29 160.098 489.419 159.841C489.63 159.454 489.805 158.763 489.805 158.705C489.805 158.635 489.77 158.553 489.618 158.553C489.513 158.553 489.478 158.611 489.478 158.623C489.454 158.658 489.396 158.869 489.361 158.998C489.185 159.677 488.962 160.168 488.541 160.168C488.26 160.168 488.178 159.899 488.178 159.618C488.178 159.396 488.213 159.267 488.248 159.115L489.876 152.605Z" fill="black"/>
<path d="M493.403 152.919C493.465 152.787 493.482 152.69 493.482 152.638C493.482 152.365 493.237 152.137 492.947 152.137C492.596 152.137 492.49 152.444 492.455 152.567L491.226 156.326C491.208 156.378 491.182 156.449 491.182 156.484C491.182 156.633 491.533 156.703 491.542 156.703C491.621 156.703 491.656 156.624 491.691 156.554L493.403 152.919Z" fill="black"/>
<circle cx="75" cy="155" r="14" fill="white" stroke="black" stroke-width="2"/>
<path d="M76.5517 151.177C76.5517 150.07 75.9897 150 75.8492 150C75.4277 150 75.0414 150.421 75.0414 150.773C75.0414 150.983 75.1643 151.106 75.2345 151.177C75.4102 151.335 75.8668 151.809 75.8668 152.722C75.8668 153.46 74.8131 157.569 72.7056 157.569C71.6343 157.569 71.4236 156.674 71.4236 156.024C71.4236 155.146 71.8275 153.916 72.3017 152.652C72.5827 151.932 72.6529 151.756 72.6529 151.405C72.6529 150.667 72.1261 150 71.2655 150C69.6498 150 69 152.547 69 152.687C69 152.757 69.0702 152.845 69.1932 152.845C69.3512 152.845 69.3688 152.775 69.4391 152.529C69.8605 151.019 70.5455 150.351 71.2128 150.351C71.3709 150.351 71.6694 150.351 71.6694 150.931C71.6694 151.387 71.4763 151.897 71.2128 152.564C70.3698 154.812 70.3698 155.356 70.3698 155.778C70.3698 156.164 70.4225 156.884 70.967 157.376C71.5992 157.921 72.4773 157.921 72.6354 157.921C75.5507 157.921 76.5517 152.178 76.5517 151.177Z" fill="black"/>
<path d="M79.8757 152.605C79.8874 152.582 79.9225 152.429 79.9225 152.418C79.9225 152.359 79.8757 152.254 79.7352 152.254L78.5527 152.347C78.1195 152.383 78.0258 152.394 78.0258 152.605C78.0258 152.769 78.1897 152.769 78.3302 152.769C78.8922 152.769 78.8922 152.839 78.8922 152.945C78.8922 152.98 78.8922 153.003 78.8337 153.214L77.3819 159.021C77.335 159.208 77.335 159.384 77.335 159.396C77.335 160.122 77.9321 160.496 78.5175 160.496C79.021 160.496 79.2903 160.098 79.4191 159.841C79.6298 159.454 79.8054 158.763 79.8054 158.705C79.8054 158.635 79.7703 158.553 79.6181 158.553C79.5127 158.553 79.4776 158.611 79.4776 158.623C79.4542 158.658 79.3956 158.869 79.3605 158.998C79.1849 159.677 78.9624 160.168 78.541 160.168C78.26 160.168 78.178 159.899 78.178 159.618C78.178 159.396 78.2131 159.267 78.2483 159.115L79.8757 152.605Z" fill="black"/>
<path d="M83.4035 152.919C83.4649 152.787 83.4825 152.69 83.4825 152.638C83.4825 152.365 83.2366 152.137 82.9468 152.137C82.5956 152.137 82.4902 152.444 82.4551 152.567L81.2258 156.326C81.2082 156.378 81.1819 156.449 81.1819 156.484C81.1819 156.633 81.5331 156.703 81.5419 156.703C81.6209 156.703 81.656 156.624 81.6912 156.554L83.4035 152.919Z" fill="black"/>
<circle cx="545" cy="85" r="14" fill="white" stroke="black" stroke-width="2"/>
<path d="M546.552 81.1767C546.552 80.0702 545.99 80 545.849 80C545.428 80 545.041 80.4215 545.041 80.7727C545.041 80.9835 545.164 81.1064 545.235 81.1767C545.41 81.3347 545.867 81.8089 545.867 82.7221C545.867 83.4597 544.813 87.5693 542.706 87.5693C541.634 87.5693 541.424 86.6736 541.424 86.0238C541.424 85.1457 541.827 83.9163 542.302 82.6519C542.583 81.9318 542.653 81.7562 542.653 81.405C542.653 80.6674 542.126 80 541.266 80C539.65 80 539 82.5465 539 82.687C539 82.7572 539.07 82.8451 539.193 82.8451C539.351 82.8451 539.369 82.7748 539.439 82.529C539.861 81.0186 540.545 80.3512 541.213 80.3512C541.371 80.3512 541.669 80.3512 541.669 80.9308C541.669 81.3874 541.476 81.8967 541.213 82.5641C540.37 84.812 540.37 85.3564 540.37 85.7779C540.37 86.1643 540.423 86.8843 540.967 87.3761C541.599 87.9205 542.477 87.9205 542.635 87.9205C545.551 87.9205 546.552 82.1777 546.552 81.1767Z" fill="black"/>
<path d="M551.644 83.0734C551.644 82.851 551.468 82.6285 551.187 82.6285C550.836 82.6285 550.531 82.9563 550.531 83.2607C550.531 83.4832 550.707 83.7057 550.988 83.7057C551.339 83.7057 551.644 83.3778 551.644 83.0734ZM549.197 90.9646C549.021 91.6788 548.447 92.4399 547.733 92.4399C547.546 92.4399 547.37 92.393 547.347 92.3813C547.71 92.2057 547.757 91.8896 547.757 91.7842C547.757 91.5032 547.546 91.351 547.3 91.351C546.96 91.351 546.644 91.6437 546.644 92.0301C546.644 92.475 547.077 92.7677 547.745 92.7677C548.459 92.7677 549.747 92.3228 550.098 90.9178L551.152 86.7263C551.187 86.5858 551.21 86.4922 551.21 86.3165C551.21 85.6726 550.695 85.216 550.016 85.216C548.775 85.216 548.049 86.8551 548.049 87.0073C548.049 87.1127 548.131 87.1595 548.225 87.1595C548.354 87.1595 548.365 87.1244 548.447 86.9488C548.799 86.1409 549.396 85.5438 549.981 85.5438C550.227 85.5438 550.367 85.7077 550.367 86.0941C550.367 86.258 550.332 86.4219 550.297 86.5858L549.197 90.9646Z" fill="black"/>
<circle cx="135" cy="85" r="14" fill="white" stroke="black" stroke-width="2"/>
<path d="M136.552 81.1767C136.552 80.0702 135.99 80 135.849 80C135.428 80 135.041 80.4215 135.041 80.7727C135.041 80.9835 135.164 81.1064 135.235 81.1767C135.41 81.3347 135.867 81.8089 135.867 82.7221C135.867 83.4597 134.813 87.5693 132.706 87.5693C131.634 87.5693 131.424 86.6736 131.424 86.0238C131.424 85.1457 131.827 83.9163 132.302 82.6519C132.583 81.9318 132.653 81.7562 132.653 81.405C132.653 80.6674 132.126 80 131.266 80C129.65 80 129 82.5465 129 82.687C129 82.7572 129.07 82.8451 129.193 82.8451C129.351 82.8451 129.369 82.7748 129.439 82.529C129.861 81.0186 130.545 80.3512 131.213 80.3512C131.371 80.3512 131.669 80.3512 131.669 80.9308C131.669 81.3874 131.476 81.8967 131.213 82.5641C130.37 84.812 130.37 85.3564 130.37 85.7779C130.37 86.1643 130.423 86.8843 130.967 87.3761C131.599 87.9205 132.477 87.9205 132.635 87.9205C135.551 87.9205 136.552 82.1777 136.552 81.1767Z" fill="black"/>
<path d="M141.644 83.0734C141.644 82.851 141.468 82.6285 141.187 82.6285C140.836 82.6285 140.531 82.9563 140.531 83.2607C140.531 83.4832 140.707 83.7057 140.988 83.7057C141.339 83.7057 141.644 83.3778 141.644 83.0734ZM139.197 90.9646C139.021 91.6788 138.447 92.4399 137.733 92.4399C137.546 92.4399 137.37 92.393 137.347 92.3813C137.71 92.2057 137.757 91.8896 137.757 91.7842C137.757 91.5032 137.546 91.351 137.3 91.351C136.96 91.351 136.644 91.6437 136.644 92.0301C136.644 92.475 137.077 92.7677 137.745 92.7677C138.459 92.7677 139.747 92.3228 140.098 90.9178L141.152 86.7263C141.187 86.5858 141.21 86.4922 141.21 86.3165C141.21 85.6726 140.695 85.216 140.016 85.216C138.775 85.216 138.049 86.8551 138.049 87.0073C138.049 87.1127 138.131 87.1595 138.225 87.1595C138.354 87.1595 138.365 87.1244 138.447 86.9488C138.799 86.1409 139.396 85.5438 139.981 85.5438C140.227 85.5438 140.367 85.7077 140.367 86.0941C140.367 86.258 140.332 86.4219 140.297 86.5858L139.197 90.9646Z" fill="black"/>
<path d="M441.162 46V35.3359H444.897C446.191 35.3359 447.173 35.585 447.842 36.083C448.511 36.5762 448.845 37.3013 448.845 38.2583C448.845 38.7808 448.711 39.2422 448.442 39.6426C448.174 40.0381 447.8 40.3286 447.322 40.5142C447.869 40.6509 448.298 40.9268 448.611 41.3418C448.928 41.7568 449.087 42.2646 449.087 42.8652C449.087 43.8906 448.76 44.667 448.105 45.1943C447.451 45.7217 446.519 45.9902 445.308 46H441.162ZM443.359 41.3564V44.2349H445.242C445.759 44.2349 446.162 44.1128 446.45 43.8687C446.743 43.6196 446.89 43.2778 446.89 42.8433C446.89 41.8667 446.384 41.3711 445.374 41.3564H443.359ZM443.359 39.8037H444.985C446.094 39.7842 446.648 39.3423 446.648 38.478C446.648 37.9946 446.506 37.6479 446.223 37.438C445.945 37.2231 445.503 37.1157 444.897 37.1157H443.359V39.8037Z" fill="#B33535"/>
<path d="M31.1621 46V35.3359H34.8975C36.1914 35.3359 37.1729 35.585 37.8418 36.083C38.5107 36.5762 38.8452 37.3013 38.8452 38.2583C38.8452 38.7808 38.7109 39.2422 38.4424 39.6426C38.1738 40.0381 37.8003 40.3286 37.3218 40.5142C37.8687 40.6509 38.2983 40.9268 38.6108 41.3418C38.9282 41.7568 39.0869 42.2646 39.0869 42.8652C39.0869 43.8906 38.7598 44.667 38.1055 45.1943C37.4512 45.7217 36.5186 45.9902 35.3076 46H31.1621ZM33.3594 41.3564V44.2349H35.2417C35.7593 44.2349 36.1621 44.1128 36.4502 43.8687C36.7432 43.6196 36.8896 43.2778 36.8896 42.8433C36.8896 41.8667 36.3843 41.3711 35.3735 41.3564H33.3594ZM33.3594 39.8037H34.9854C36.0938 39.7842 36.6479 39.3423 36.6479 38.478C36.6479 37.9946 36.5063 37.6479 36.2231 37.438C35.9448 37.2231 35.5029 37.1157 34.8975 37.1157H33.3594V39.8037Z" fill="#B33535"/>
<path d="M449.417 130.448C449.333 131.595 448.909 132.499 448.142 133.158C447.38 133.817 446.375 134.146 445.125 134.146C443.757 134.146 442.681 133.688 441.895 132.77C441.113 131.847 440.723 130.582 440.723 128.976V128.324C440.723 127.298 440.903 126.395 441.265 125.614C441.626 124.833 442.141 124.234 442.81 123.819C443.484 123.399 444.265 123.189 445.154 123.189C446.384 123.189 447.375 123.519 448.127 124.178C448.879 124.837 449.314 125.763 449.431 126.954H447.234C447.18 126.266 446.987 125.768 446.655 125.46C446.328 125.147 445.828 124.991 445.154 124.991C444.421 124.991 443.872 125.255 443.506 125.782C443.145 126.305 442.959 127.118 442.949 128.221V129.027C442.949 130.179 443.123 131.021 443.469 131.554C443.821 132.086 444.373 132.352 445.125 132.352C445.803 132.352 446.309 132.198 446.641 131.891C446.978 131.578 447.17 131.097 447.219 130.448H449.417Z" fill="#22661E"/>
<path d="M31.1621 134V123.336H34.8975C36.1914 123.336 37.1729 123.585 37.8418 124.083C38.5107 124.576 38.8452 125.301 38.8452 126.258C38.8452 126.781 38.7109 127.242 38.4424 127.643C38.1738 128.038 37.8003 128.329 37.3218 128.514C37.8687 128.651 38.2983 128.927 38.6108 129.342C38.9282 129.757 39.0869 130.265 39.0869 130.865C39.0869 131.891 38.7598 132.667 38.1055 133.194C37.4512 133.722 36.5186 133.99 35.3076 134H31.1621ZM33.3594 129.356V132.235H35.2417C35.7593 132.235 36.1621 132.113 36.4502 131.869C36.7432 131.62 36.8896 131.278 36.8896 130.843C36.8896 129.867 36.3843 129.371 35.3735 129.356H33.3594ZM33.3594 127.804H34.9854C36.0938 127.784 36.6479 127.342 36.6479 126.478C36.6479 125.995 36.5063 125.648 36.2231 125.438C35.9448 125.223 35.5029 125.116 34.8975 125.116H33.3594V127.804Z" fill="#B33535"/>
<path d="M486.426 76.8027H482.574L481.841 79H479.505L483.475 68.3359H485.511L489.502 79H487.166L486.426 76.8027ZM483.167 75.0229H485.833L484.493 71.0312L483.167 75.0229Z" fill="#355FB3"/>
<path d="M76.4263 76.8027H72.5737L71.8413 79H69.5049L73.4746 68.3359H75.5107L79.5024 79H77.166L76.4263 76.8027ZM73.167 75.0229H75.833L74.4927 71.0312L73.167 75.0229Z" fill="#355FB3"/>
<path d="M521.162 46V35.3359H524.897C526.191 35.3359 527.173 35.585 527.842 36.083C528.511 36.5762 528.845 37.3013 528.845 38.2583C528.845 38.7808 528.711 39.2422 528.442 39.6426C528.174 40.0381 527.8 40.3286 527.322 40.5142C527.869 40.6509 528.298 40.9268 528.611 41.3418C528.928 41.7568 529.087 42.2646 529.087 42.8652C529.087 43.8906 528.76 44.667 528.105 45.1943C527.451 45.7217 526.519 45.9902 525.308 46H521.162ZM523.359 41.3564V44.2349H525.242C525.759 44.2349 526.162 44.1128 526.45 43.8687C526.743 43.6196 526.89 43.2778 526.89 42.8433C526.89 41.8667 526.384 41.3711 525.374 41.3564H523.359ZM523.359 39.8037H524.985C526.094 39.7842 526.648 39.3423 526.648 38.478C526.648 37.9946 526.506 37.6479 526.223 37.438C525.945 37.2231 525.503 37.1157 524.897 37.1157H523.359V39.8037Z" fill="#B33535"/>
<path d="M119.417 42.4478C119.333 43.5952 118.909 44.4985 118.142 45.1577C117.38 45.8169 116.375 46.1465 115.125 46.1465C113.757 46.1465 112.681 45.6875 111.895 44.7695C111.113 43.8467 110.723 42.582 110.723 40.9756V40.3237C110.723 39.2983 110.903 38.395 111.265 37.6138C111.626 36.8325 112.141 36.2344 112.81 35.8193C113.484 35.3994 114.265 35.1895 115.154 35.1895C116.384 35.1895 117.375 35.519 118.127 36.1782C118.879 36.8374 119.314 37.7627 119.431 38.9541H117.234C117.18 38.2656 116.987 37.7676 116.655 37.46C116.328 37.1475 115.828 36.9912 115.154 36.9912C114.421 36.9912 113.872 37.2549 113.506 37.7822C113.145 38.3047 112.959 39.1177 112.949 40.2212V41.0269C112.949 42.1792 113.123 43.0215 113.469 43.5537C113.821 44.0859 114.373 44.3521 115.125 44.3521C115.803 44.3521 116.309 44.1982 116.641 43.8906C116.978 43.5781 117.17 43.0972 117.219 42.4478H119.417Z" fill="#22661E"/>
<path d="M529.417 130.448C529.333 131.595 528.909 132.499 528.142 133.158C527.38 133.817 526.375 134.146 525.125 134.146C523.757 134.146 522.681 133.688 521.895 132.77C521.113 131.847 520.723 130.582 520.723 128.976V128.324C520.723 127.298 520.903 126.395 521.265 125.614C521.626 124.833 522.141 124.234 522.81 123.819C523.484 123.399 524.265 123.189 525.154 123.189C526.384 123.189 527.375 123.519 528.127 124.178C528.879 124.837 529.314 125.763 529.431 126.954H527.234C527.18 126.266 526.987 125.768 526.655 125.46C526.328 125.147 525.828 124.991 525.154 124.991C524.421 124.991 523.872 125.255 523.506 125.782C523.145 126.305 522.959 127.118 522.949 128.221V129.027C522.949 130.179 523.123 131.021 523.469 131.554C523.821 132.086 524.373 132.352 525.125 132.352C525.803 132.352 526.309 132.198 526.641 131.891C526.978 131.578 527.17 131.097 527.219 130.448H529.417Z" fill="#22661E"/>
<path d="M119.417 130.448C119.333 131.595 118.909 132.499 118.142 133.158C117.38 133.817 116.375 134.146 115.125 134.146C113.757 134.146 112.681 133.688 111.895 132.77C111.113 131.847 110.723 130.582 110.723 128.976V128.324C110.723 127.298 110.903 126.395 111.265 125.614C111.626 124.833 112.141 124.234 112.81 123.819C113.484 123.399 114.265 123.189 115.154 123.189C116.384 123.189 117.375 123.519 118.127 124.178C118.879 124.837 119.314 125.763 119.431 126.954H117.234C117.18 126.266 116.987 125.768 116.655 125.46C116.328 125.147 115.828 124.991 115.154 124.991C114.421 124.991 113.872 125.255 113.506 125.782C113.145 126.305 112.959 127.118 112.949 128.221V129.027C112.949 130.179 113.123 131.021 113.469 131.554C113.821 132.086 114.373 132.352 115.125 132.352C115.803 132.352 116.309 132.198 116.641 131.891C116.978 131.578 117.17 131.097 117.219 130.448H119.417Z" fill="#22661E"/>
<line x1="400.25" y1="1.09278e-08" x2="400.25" y2="170" stroke="black" stroke-width="0.5"/>
<path d="M212 50L207 47.1132V52.8868L212 50ZM212 105L207 102.113V107.887L212 105ZM103.443 97.2988L103.109 97.6705L103.443 97.2988ZM104.442 55.0385L104.72 55.4545L104.442 55.0385ZM82.2774 70.416L84.2811 69.0802L83.7264 68.2481L81.7226 69.584L82.2774 70.416ZM85.8841 68.0115L89.8917 65.3398L89.337 64.5077L85.3294 67.1794L85.8841 68.0115ZM91.4947 64.2711L95.5023 61.5994L94.9476 60.7674L90.94 63.4391L91.4947 64.2711ZM97.1053 60.5307L101.113 57.859L100.558 57.027L96.5506 59.6987L97.1053 60.5307ZM102.716 56.7904L104.72 55.4545L104.165 54.6225L102.161 55.9583L102.716 56.7904ZM104.72 55.4545C105.294 55.0718 105.88 54.7102 106.477 54.3701L105.981 53.5013C105.364 53.8529 104.758 54.2267 104.165 54.6225L104.72 55.4545ZM107.934 53.5927C109.169 52.9778 110.443 52.4513 111.748 52.0162L111.431 51.0676C110.083 51.5174 108.765 52.0618 107.488 52.6975L107.934 53.5927ZM113.328 51.5375C114.655 51.1761 116.007 50.9072 117.376 50.7338L117.25 49.7418C115.835 49.921 114.437 50.199 113.066 50.5727L113.328 51.5375ZM119.02 50.5722C119.705 50.5242 120.393 50.5 121.083 50.5V49.5C120.37 49.5 119.658 49.525 118.95 49.5747L119.02 50.5722ZM121.083 50.5H123.581V49.5H121.083V50.5ZM125.579 50.5H130.575V49.5H125.579V50.5ZM132.573 50.5H137.568V49.5H132.573V50.5ZM139.566 50.5H144.562V49.5H139.566V50.5ZM146.56 50.5H151.555V49.5H146.56V50.5ZM153.554 50.5H158.549V49.5H153.554V50.5ZM160.547 50.5H165.543V49.5H160.547V50.5ZM167.541 50.5H172.536V49.5H167.541V50.5ZM174.534 50.5H179.53V49.5H174.534V50.5ZM181.528 50.5H186.523V49.5H181.528V50.5ZM188.521 50.5H193.517V49.5H188.521V50.5ZM195.515 50.5H200.511V49.5H195.515V50.5ZM202.509 50.5H207.504V49.5H202.509V50.5ZM81.6655 78.3716L83.5801 80.0948L84.249 79.3515L82.3345 77.6284L81.6655 78.3716ZM85.1117 81.4732L88.9409 84.9195L89.6098 84.1762L85.7807 80.7299L85.1117 81.4732ZM90.4725 86.298L94.3017 89.7442L94.9706 89.0009L91.1415 85.5547L90.4725 86.298ZM95.8333 91.1227L99.6624 94.5689L100.331 93.8256L96.5023 90.3794L95.8333 91.1227ZM101.194 95.9474L103.109 97.6705L103.778 96.9272L101.863 95.2041L101.194 95.9474ZM103.109 97.6705C103.77 98.2661 104.455 98.8302 105.162 99.3621L105.763 98.5634C105.08 98.0489 104.418 97.5033 103.778 96.9272L103.109 97.6705ZM106.905 100.582C108.398 101.551 109.968 102.385 111.598 103.077L111.989 102.156C110.412 101.487 108.893 100.681 107.45 99.7437L106.905 100.582ZM113.585 103.839C115.259 104.416 116.985 104.846 118.742 105.125L118.899 104.137C117.199 103.868 115.53 103.451 113.911 102.894L113.585 103.839ZM120.855 105.384C121.735 105.461 122.622 105.5 123.512 105.5V104.5C122.651 104.5 121.793 104.462 120.942 104.388L120.855 105.384ZM123.512 105.5H125.943V104.5H123.512V105.5ZM127.888 105.5H132.75V104.5H127.888V105.5ZM134.695 105.5H139.557V104.5H134.695V105.5ZM141.501 105.5H146.363V104.5H141.501V105.5ZM148.308 105.5H153.17V104.5H148.308V105.5ZM155.115 105.5H159.977V104.5H155.115V105.5ZM161.922 105.5H166.784V104.5H161.922V105.5ZM168.728 105.5H173.59V104.5H168.728V105.5ZM175.535 105.5H180.397V104.5H175.535V105.5ZM182.342 105.5H187.204V104.5H182.342V105.5ZM189.149 105.5H194.011V104.5H189.149V105.5ZM195.955 105.5H200.817V104.5H195.955V105.5ZM202.762 105.5H207.624V104.5H202.762V105.5Z" fill="black"/>
<path d="M622 50L617 47.1132V52.8868L622 50ZM622 105L617 102.113V107.887L622 105ZM513.443 97.2988L513.109 97.6705L513.443 97.2988ZM514.442 55.0385L514.72 55.4545L514.442 55.0385ZM492.277 70.416L494.281 69.0802L493.726 68.2481L491.723 69.584L492.277 70.416ZM495.884 68.0115L499.892 65.3398L499.337 64.5077L495.329 67.1794L495.884 68.0115ZM501.495 64.2711L505.502 61.5994L504.948 60.7674L500.94 63.4391L501.495 64.2711ZM507.105 60.5307L511.113 57.859L510.558 57.027L506.551 59.6987L507.105 60.5307ZM512.716 56.7904L514.72 55.4545L514.165 54.6225L512.161 55.9583L512.716 56.7904ZM514.72 55.4545C515.294 55.0718 515.88 54.7102 516.477 54.3701L515.981 53.5013C515.364 53.8529 514.758 54.2267 514.165 54.6225L514.72 55.4545ZM517.934 53.5927C519.169 52.9778 520.443 52.4513 521.748 52.0162L521.431 51.0676C520.083 51.5174 518.765 52.0618 517.488 52.6975L517.934 53.5927ZM523.328 51.5375C524.655 51.1761 526.007 50.9072 527.376 50.7338L527.25 49.7418C525.835 49.921 524.437 50.199 523.066 50.5727L523.328 51.5375ZM529.02 50.5722C529.705 50.5242 530.393 50.5 531.083 50.5V49.5C530.37 49.5 529.658 49.525 528.95 49.5747L529.02 50.5722ZM531.083 50.5H533.581V49.5H531.083V50.5ZM535.579 50.5H540.575V49.5H535.579V50.5ZM542.573 50.5H547.568V49.5H542.573V50.5ZM549.566 50.5H554.562V49.5H549.566V50.5ZM556.56 50.5H561.555V49.5H556.56V50.5ZM563.554 50.5H568.549V49.5H563.554V50.5ZM570.547 50.5H575.543V49.5H570.547V50.5ZM577.541 50.5H582.536V49.5H577.541V50.5ZM584.534 50.5H589.53V49.5H584.534V50.5ZM591.528 50.5H596.523V49.5H591.528V50.5ZM598.521 50.5H603.517V49.5H598.521V50.5ZM605.515 50.5H610.511V49.5H605.515V50.5ZM612.509 50.5H617.504V49.5H612.509V50.5ZM491.666 78.3716L493.58 80.0948L494.249 79.3515L492.334 77.6284L491.666 78.3716ZM495.112 81.4732L498.941 84.9195L499.61 84.1762L495.781 80.7299L495.112 81.4732ZM500.473 86.298L504.302 89.7442L504.971 89.0009L501.141 85.5547L500.473 86.298ZM505.833 91.1227L509.662 94.5689L510.331 93.8256L506.502 90.3794L505.833 91.1227ZM511.194 95.9474L513.109 97.6705L513.778 96.9272L511.863 95.2041L511.194 95.9474ZM513.109 97.6705C513.77 98.2661 514.455 98.8302 515.162 99.3621L515.763 98.5634C515.08 98.0489 514.418 97.5033 513.778 96.9272L513.109 97.6705ZM516.905 100.582C518.398 101.551 519.968 102.385 521.598 103.077L521.989 102.156C520.412 101.487 518.893 100.681 517.45 99.7437L516.905 100.582ZM523.585 103.839C525.259 104.416 526.985 104.846 528.742 105.125L528.899 104.137C527.199 103.868 525.53 103.451 523.911 102.894L523.585 103.839ZM530.855 105.384C531.735 105.461 532.622 105.5 533.512 105.5V104.5C532.651 104.5 531.793 104.462 530.942 104.388L530.855 105.384ZM533.512 105.5H535.943V104.5H533.512V105.5ZM537.888 105.5H542.75V104.5H537.888V105.5ZM544.695 105.5H549.557V104.5H544.695V105.5ZM551.501 105.5H556.363V104.5H551.501V105.5ZM558.308 105.5H563.17V104.5H558.308V105.5ZM565.115 105.5H569.977V104.5H565.115V105.5ZM571.922 105.5H576.784V104.5H571.922V105.5ZM578.728 105.5H583.59V104.5H578.728V105.5ZM585.535 105.5H590.397V104.5H585.535V105.5ZM592.342 105.5H597.204V104.5H592.342V105.5ZM599.149 105.5H604.011V104.5H599.149V105.5ZM605.955 105.5H610.817V104.5H605.955V105.5ZM612.762 105.5H617.624V104.5H612.762V105.5Z" fill="black"/>
<path d="M172.627 47H167.037V46.2207L169.99 42.9395C170.428 42.4434 170.729 42.041 170.893 41.7324C171.061 41.4199 171.145 41.0977 171.145 40.7656C171.145 40.3203 171.01 39.9551 170.74 39.6699C170.471 39.3848 170.111 39.2422 169.662 39.2422C169.123 39.2422 168.703 39.3965 168.402 39.7051C168.105 40.0098 167.957 40.4355 167.957 40.9824H166.873C166.873 40.1973 167.125 39.5625 167.629 39.0781C168.137 38.5938 168.814 38.3516 169.662 38.3516C170.455 38.3516 171.082 38.5605 171.543 38.9785C172.004 39.3926 172.234 39.9453 172.234 40.6367C172.234 41.4766 171.699 42.4766 170.629 43.6367L168.344 46.1152H172.627V47ZM176.143 43.8184H173.283V42.9336H176.143V43.8184ZM183.672 45.8809C183.383 46.2949 182.979 46.6055 182.459 46.8125C181.943 47.0156 181.342 47.1172 180.654 47.1172C179.959 47.1172 179.342 46.9551 178.803 46.6309C178.264 46.3027 177.846 45.8379 177.549 45.2363C177.256 44.6348 177.105 43.9375 177.098 43.1445V42.4004C177.098 41.1152 177.396 40.1191 177.994 39.4121C178.596 38.7051 179.439 38.3516 180.525 38.3516C181.416 38.3516 182.133 38.5801 182.676 39.0371C183.219 39.4902 183.551 40.1348 183.672 40.9707H182.547C182.336 39.8418 181.664 39.2773 180.531 39.2773C179.777 39.2773 179.205 39.543 178.814 40.0742C178.428 40.6016 178.232 41.3672 178.229 42.3711V43.0684C178.229 44.0254 178.447 44.7871 178.885 45.3535C179.322 45.916 179.914 46.1973 180.66 46.1973C181.082 46.1973 181.451 46.1504 181.768 46.0566C182.084 45.9629 182.346 45.8047 182.553 45.582V43.666H180.578V42.752H183.672V45.8809ZM192.109 47H190.979L186.684 40.4258V47H185.553V38.4688H186.684L190.99 45.0723V38.4688H192.109V47ZM200.664 47H199.533L195.238 40.4258V47H194.107V38.4688H195.238L199.545 45.0723V38.4688H200.664V47Z" fill="black"/>
<path d="M582.627 47H577.037V46.2207L579.99 42.9395C580.428 42.4434 580.729 42.041 580.893 41.7324C581.061 41.4199 581.145 41.0977 581.145 40.7656C581.145 40.3203 581.01 39.9551 580.74 39.6699C580.471 39.3848 580.111 39.2422 579.662 39.2422C579.123 39.2422 578.703 39.3965 578.402 39.7051C578.105 40.0098 577.957 40.4355 577.957 40.9824H576.873C576.873 40.1973 577.125 39.5625 577.629 39.0781C578.137 38.5938 578.814 38.3516 579.662 38.3516C580.455 38.3516 581.082 38.5605 581.543 38.9785C582.004 39.3926 582.234 39.9453 582.234 40.6367C582.234 41.4766 581.699 42.4766 580.629 43.6367L578.344 46.1152H582.627V47ZM586.143 43.8184H583.283V42.9336H586.143V43.8184ZM593.672 45.8809C593.383 46.2949 592.979 46.6055 592.459 46.8125C591.943 47.0156 591.342 47.1172 590.654 47.1172C589.959 47.1172 589.342 46.9551 588.803 46.6309C588.264 46.3027 587.846 45.8379 587.549 45.2363C587.256 44.6348 587.105 43.9375 587.098 43.1445V42.4004C587.098 41.1152 587.396 40.1191 587.994 39.4121C588.596 38.7051 589.439 38.3516 590.525 38.3516C591.416 38.3516 592.133 38.5801 592.676 39.0371C593.219 39.4902 593.551 40.1348 593.672 40.9707H592.547C592.336 39.8418 591.664 39.2773 590.531 39.2773C589.777 39.2773 589.205 39.543 588.814 40.0742C588.428 40.6016 588.232 41.3672 588.229 42.3711V43.0684C588.229 44.0254 588.447 44.7871 588.885 45.3535C589.322 45.916 589.914 46.1973 590.66 46.1973C591.082 46.1973 591.451 46.1504 591.768 46.0566C592.084 45.9629 592.346 45.8047 592.553 45.582V43.666H590.578V42.752H593.672V45.8809ZM602.109 47H600.979L596.684 40.4258V47H595.553V38.4688H596.684L600.99 45.0723V38.4688H602.109V47ZM610.664 47H609.533L605.238 40.4258V47H604.107V38.4688H605.238L609.545 45.0723V38.4688H610.664V47Z" fill="black"/>
<path d="M176.717 102H171.127V101.221L174.08 97.9395C174.518 97.4434 174.818 97.041 174.982 96.7324C175.15 96.4199 175.234 96.0977 175.234 95.7656C175.234 95.3203 175.1 94.9551 174.83 94.6699C174.561 94.3848 174.201 94.2422 173.752 94.2422C173.213 94.2422 172.793 94.3965 172.492 94.7051C172.195 95.0098 172.047 95.4355 172.047 95.9824H170.963C170.963 95.1973 171.215 94.5625 171.719 94.0781C172.227 93.5938 172.904 93.3516 173.752 93.3516C174.545 93.3516 175.172 93.5605 175.633 93.9785C176.094 94.3926 176.324 94.9453 176.324 95.6367C176.324 96.4766 175.789 97.4766 174.719 98.6367L172.434 101.115H176.717V102ZM180.232 98.8184H177.373V97.9336H180.232V98.8184ZM183.303 99.3105L183.467 100.436L183.707 99.4219L185.395 93.4688H186.344L187.99 99.4219L188.225 100.453L188.406 99.3047L189.73 93.4688H190.861L188.793 102H187.768L186.01 95.7832L185.875 95.1328L185.74 95.7832L183.918 102H182.893L180.83 93.4688H181.955L183.303 99.3105ZM193.246 101.08H197.289V102H192.115V93.4688H193.246V101.08Z" fill="black"/>
<path d="M586.717 102H581.127V101.221L584.08 97.9395C584.518 97.4434 584.818 97.041 584.982 96.7324C585.15 96.4199 585.234 96.0977 585.234 95.7656C585.234 95.3203 585.1 94.9551 584.83 94.6699C584.561 94.3848 584.201 94.2422 583.752 94.2422C583.213 94.2422 582.793 94.3965 582.492 94.7051C582.195 95.0098 582.047 95.4355 582.047 95.9824H580.963C580.963 95.1973 581.215 94.5625 581.719 94.0781C582.227 93.5938 582.904 93.3516 583.752 93.3516C584.545 93.3516 585.172 93.5605 585.633 93.9785C586.094 94.3926 586.324 94.9453 586.324 95.6367C586.324 96.4766 585.789 97.4766 584.719 98.6367L582.434 101.115H586.717V102ZM590.232 98.8184H587.373V97.9336H590.232V98.8184ZM593.303 99.3105L593.467 100.436L593.707 99.4219L595.395 93.4688H596.344L597.99 99.4219L598.225 100.453L598.406 99.3047L599.73 93.4688H600.861L598.793 102H597.768L596.01 95.7832L595.875 95.1328L595.74 95.7832L593.918 102H592.893L590.83 93.4688H591.955L593.303 99.3105ZM603.246 101.08H607.289V102H602.115V93.4688H603.246V101.08Z" fill="black"/>
<path d="M216.074 54.0073V43.3432H219.355C220.293 43.3432 221.13 43.5556 221.868 43.9804C222.61 44.4003 223.188 45.0009 223.604 45.7822C224.019 46.5585 224.226 47.4423 224.226 48.4335V48.9243C224.226 49.9155 224.021 50.7968 223.611 51.5683C223.206 52.3398 222.632 52.9379 221.89 53.3627C221.147 53.7875 220.31 54.0024 219.377 54.0073H216.074ZM218.271 45.123V52.2421H219.333C220.193 52.2421 220.85 51.9614 221.304 51.3998C221.758 50.8383 221.99 50.0351 222 48.9902V48.4262C222 47.3422 221.775 46.5219 221.326 45.9653C220.876 45.4037 220.22 45.123 219.355 45.123H218.271Z" fill="#355FB3"/>
<path d="M265.426 51.81H261.574L260.841 54.0073H258.505L262.475 43.3432H264.511L268.502 54.0073H266.166L265.426 51.81ZM262.167 50.0302H264.833L263.493 46.0385L262.167 50.0302Z" fill="#355FB3"/>
<path d="M292.162 54.0073V43.3432H295.897C297.191 43.3432 298.173 43.5922 298.842 44.0903C299.511 44.5834 299.845 45.3085 299.845 46.2656C299.845 46.788 299.711 47.2495 299.442 47.6498C299.174 48.0453 298.8 48.3359 298.322 48.5214C298.869 48.6581 299.298 48.934 299.611 49.3491C299.928 49.7641 300.087 50.2719 300.087 50.8725C300.087 51.8979 299.76 52.6743 299.105 53.2016C298.451 53.7289 297.519 53.9975 296.308 54.0073H292.162ZM294.359 49.3637V52.2421H296.242C296.759 52.2421 297.162 52.1201 297.45 51.8759C297.743 51.6269 297.89 51.2851 297.89 50.8505C297.89 49.874 297.384 49.3784 296.374 49.3637H294.359ZM294.359 47.811H295.985C297.094 47.7914 297.648 47.3495 297.648 46.4853C297.648 46.0019 297.506 45.6552 297.223 45.4453C296.945 45.2304 296.503 45.123 295.897 45.123H294.359V47.811Z" fill="#B33535"/>
<path d="M318.162 54.0073V43.3432H321.897C323.191 43.3432 324.173 43.5922 324.842 44.0903C325.511 44.5834 325.845 45.3085 325.845 46.2656C325.845 46.788 325.711 47.2495 325.442 47.6498C325.174 48.0453 324.8 48.3359 324.322 48.5214C324.869 48.6581 325.298 48.934 325.611 49.3491C325.928 49.7641 326.087 50.2719 326.087 50.8725C326.087 51.8979 325.76 52.6743 325.105 53.2016C324.451 53.7289 323.519 53.9975 322.308 54.0073H318.162ZM320.359 49.3637V52.2421H322.242C322.759 52.2421 323.162 52.1201 323.45 51.8759C323.743 51.6269 323.89 51.2851 323.89 50.8505C323.89 49.874 323.384 49.3784 322.374 49.3637H320.359ZM320.359 47.811H321.985C323.094 47.7914 323.648 47.3495 323.648 46.4853C323.648 46.0019 323.506 45.6552 323.223 45.4453C322.945 45.2304 322.503 45.123 321.897 45.123H320.359V47.811Z" fill="#B33535"/>
<path d="M352.417 50.455C352.333 51.6025 351.909 52.5058 351.142 53.165C350.38 53.8242 349.375 54.1537 348.125 54.1537C346.757 54.1537 345.681 53.6948 344.895 52.7768C344.113 51.8539 343.723 50.5893 343.723 48.9828V48.331C343.723 47.3056 343.903 46.4023 344.265 45.621C344.626 44.8398 345.141 44.2416 345.81 43.8266C346.484 43.4067 347.265 43.1967 348.154 43.1967C349.384 43.1967 350.375 43.5263 351.127 44.1855C351.879 44.8447 352.314 45.77 352.431 46.9614H350.234C350.18 46.2729 349.987 45.7748 349.655 45.4672C349.328 45.1547 348.828 44.9985 348.154 44.9985C347.421 44.9985 346.872 45.2621 346.506 45.7895C346.145 46.312 345.959 47.1249 345.949 48.2285V49.0341C345.949 50.1865 346.123 51.0287 346.469 51.561C346.821 52.0932 347.373 52.3593 348.125 52.3593C348.803 52.3593 349.309 52.2055 349.641 51.8979C349.978 51.5854 350.17 51.1044 350.219 50.455H352.417Z" fill="#22661E"/>
<path d="M378.417 50.455C378.333 51.6025 377.909 52.5058 377.142 53.165C376.38 53.8242 375.375 54.1537 374.125 54.1537C372.757 54.1537 371.681 53.6948 370.895 52.7768C370.113 51.8539 369.723 50.5893 369.723 48.9828V48.331C369.723 47.3056 369.903 46.4023 370.265 45.621C370.626 44.8398 371.141 44.2416 371.81 43.8266C372.484 43.4067 373.265 43.1967 374.154 43.1967C375.384 43.1967 376.375 43.5263 377.127 44.1855C377.879 44.8447 378.314 45.77 378.431 46.9614H376.234C376.18 46.2729 375.987 45.7748 375.655 45.4672C375.328 45.1547 374.828 44.9985 374.154 44.9985C373.421 44.9985 372.872 45.2621 372.506 45.7895C372.145 46.312 371.959 47.1249 371.949 48.2285V49.0341C371.949 50.1865 372.123 51.0287 372.469 51.561C372.821 52.0932 373.373 52.3593 374.125 52.3593C374.803 52.3593 375.309 52.2055 375.641 51.8979C375.978 51.5854 376.17 51.1044 376.219 50.455H378.417Z" fill="#22661E"/>
<path d="M229.815 48.4639C229.815 48.3509 229.875 48.2641 229.997 48.2033H238.298C238.428 48.2728 238.493 48.3596 238.493 48.4639C238.493 48.5594 238.432 48.642 238.311 48.7115L234.167 48.7245H230.023C229.884 48.6811 229.815 48.5942 229.815 48.4639ZM229.815 50.9919C229.815 50.8616 229.884 50.7747 230.023 50.7313H238.311C238.432 50.8181 238.493 50.905 238.493 50.9919C238.493 51.1048 238.428 51.1917 238.298 51.2525H229.997C229.875 51.1917 229.815 51.1048 229.815 50.9919Z" fill="black"/>
<path d="M245.241 53.1289C244.65 53.1289 244.172 52.9335 243.807 52.5425C243.442 52.1516 243.256 51.6608 243.247 51.07C243.247 50.2013 243.564 49.3934 244.198 48.6463C244.832 47.8992 245.571 47.4778 246.413 47.3823C246.422 47.3736 247.03 47.3693 248.238 47.3693H250.036C250.045 47.3779 250.058 47.3866 250.075 47.3953C250.092 47.404 250.11 47.4127 250.127 47.4214C250.145 47.4301 250.158 47.4387 250.166 47.4474C250.175 47.4561 250.188 47.4692 250.205 47.4865C250.223 47.5039 250.231 47.5126 250.231 47.5126C250.231 47.5126 250.24 47.53 250.258 47.5647C250.275 47.5995 250.279 47.6168 250.271 47.6168C250.262 47.6168 250.266 47.6386 250.284 47.682C250.301 47.7254 250.305 47.7515 250.297 47.7602C250.297 48.1424 250.014 48.3335 249.45 48.3335C249.389 48.3335 249.315 48.3335 249.228 48.3335C249.141 48.3335 249.08 48.3292 249.046 48.3205H248.264L248.329 48.4508C248.485 48.7809 248.564 49.1501 248.564 49.5585C248.564 50.5141 248.216 51.348 247.521 52.0604C246.826 52.7728 246.066 53.1289 245.241 53.1289ZM247.547 49.363C247.547 48.668 247.178 48.3205 246.439 48.3205C245.362 48.3205 244.663 49.0763 244.341 50.5879C244.333 50.6226 244.328 50.6487 244.328 50.6661C244.259 50.9875 244.224 51.2525 244.224 51.461C244.224 51.8953 244.333 52.1994 244.55 52.3731C244.767 52.5469 245.015 52.6381 245.293 52.6468C245.762 52.6468 246.192 52.4426 246.583 52.0343C246.835 51.7737 247.039 51.4262 247.195 50.9919C247.352 50.5575 247.447 50.21 247.482 49.9494C247.517 49.6888 247.538 49.4933 247.547 49.363Z" fill="black"/>
<path d="M252.629 51.7347C252.629 51.7347 252.629 51.0657 252.629 49.7279C252.629 48.39 252.738 47.126 252.955 45.9359C253.172 44.7457 253.437 43.751 253.75 42.9518C254.063 42.1526 254.44 41.3968 254.884 40.6844C255.327 39.972 255.722 39.4291 256.069 39.0555C256.417 38.682 256.777 38.3301 257.151 38H257.516C257.568 38.0521 257.594 38.0912 257.594 38.1173C257.594 38.152 257.524 38.2433 257.385 38.3909C257.246 38.5386 257.068 38.7471 256.851 39.0164C256.634 39.2857 256.386 39.6202 256.108 40.0198C255.83 40.4194 255.565 40.9276 255.314 41.5444C255.062 42.1612 254.818 42.8432 254.584 43.5903C254.349 44.3374 254.167 45.2409 254.037 46.3007C253.906 47.3606 253.837 48.4986 253.828 49.7149C253.828 50.74 253.863 51.587 253.932 52.2559C254.045 53.4982 254.245 54.6492 254.532 55.7091C254.818 56.7689 255.135 57.6203 255.483 58.2632C255.83 58.906 256.161 59.4533 256.473 59.9051C256.786 60.3568 257.051 60.6956 257.268 60.9215C257.485 61.1474 257.594 61.282 257.594 61.3254C257.594 61.3515 257.568 61.3906 257.516 61.4427H257.151C256.769 61.1213 256.404 60.7695 256.056 60.3872C255.709 60.005 255.318 59.462 254.884 58.7583C254.449 58.0547 254.071 57.3032 253.75 56.504C253.428 55.7048 253.163 54.7101 252.955 53.5199L252.629 51.7347Z" fill="black"/>
<path d="M272.485 49.8973C272.485 49.8973 272.485 49.8409 272.485 49.7279C272.485 49.615 272.545 49.5281 272.667 49.4673H276.563V47.5127L276.576 45.558C276.663 45.4451 276.746 45.3886 276.824 45.3886C276.937 45.3886 277.024 45.4538 277.085 45.5841V49.4673H280.968C281.098 49.5368 281.163 49.6237 281.163 49.7279C281.163 49.8322 281.098 49.919 280.968 49.9885H277.085V53.8718C277.015 53.9934 276.937 54.0542 276.85 54.0542H276.824H276.798C276.694 54.0542 276.615 53.9934 276.563 53.8718V49.9885H272.667C272.545 49.9277 272.485 49.8409 272.485 49.7279V49.8973Z" fill="black"/>
<path d="M286.013 49.7279C286.013 49.1284 286.057 48.5594 286.144 48.0208C286.231 47.4822 286.33 47.0174 286.443 46.6265C286.556 46.2356 286.717 45.8533 286.926 45.4798C287.134 45.1062 287.299 44.8152 287.421 44.6067C287.542 44.3982 287.725 44.1723 287.968 43.9291C288.211 43.6858 288.355 43.5382 288.398 43.486C288.441 43.4339 288.55 43.3427 288.724 43.2124H288.893H288.945C289.067 43.2124 289.128 43.2515 289.128 43.3297C289.128 43.3557 289.054 43.4469 288.906 43.6033C288.759 43.7597 288.58 43.9899 288.372 44.294C288.163 44.598 287.951 44.9716 287.733 45.4146C287.516 45.8577 287.334 46.4571 287.186 47.2129C287.038 47.9687 286.965 48.807 286.965 49.7279C286.965 50.6487 287.038 51.4827 287.186 52.2298C287.334 52.9769 287.512 53.5807 287.72 54.0411C287.929 54.5015 288.142 54.8751 288.359 55.1618C288.576 55.4485 288.759 55.6787 288.906 55.8524C289.054 56.0262 289.128 56.1174 289.128 56.1261C289.128 56.2043 289.063 56.2433 288.932 56.2433H288.893H288.724L288.359 55.9306C287.542 55.1922 286.947 54.2713 286.574 53.168C286.2 52.0648 286.013 50.918 286.013 49.7279Z" fill="black"/>
<path d="M304.272 49.8973C304.272 49.8973 304.272 49.8409 304.272 49.7279C304.272 49.615 304.333 49.5281 304.455 49.4673H308.351V47.5127L308.364 45.558C308.451 45.4451 308.533 45.3886 308.612 45.3886C308.725 45.3886 308.811 45.4538 308.872 45.5841V49.4673H312.756C312.886 49.5368 312.951 49.6237 312.951 49.7279C312.951 49.8322 312.886 49.919 312.756 49.9885H308.872V53.8718C308.803 53.9934 308.725 54.0542 308.638 54.0542H308.612H308.586C308.481 54.0542 308.403 53.9934 308.351 53.8718V49.9885H304.455C304.333 49.9277 304.272 49.8409 304.272 49.7279V49.8973Z" fill="black"/>
<path d="M330.992 49.8973C330.992 49.8973 330.992 49.8409 330.992 49.7279C330.992 49.615 331.053 49.5281 331.175 49.4673H335.071V47.5127L335.084 45.558C335.171 45.4451 335.253 45.3886 335.332 45.3886C335.445 45.3886 335.531 45.4538 335.592 45.5841V49.4673H339.475C339.606 49.5368 339.671 49.6237 339.671 49.7279C339.671 49.8322 339.606 49.919 339.475 49.9885H335.592V53.8718C335.523 53.9934 335.445 54.0542 335.358 54.0542H335.332H335.306C335.201 54.0542 335.123 53.9934 335.071 53.8718V49.9885H331.175C331.053 49.9277 330.992 49.8409 330.992 49.7279V49.8973Z" fill="black"/>
<path d="M357.711 49.8973C357.711 49.8973 357.711 49.8409 357.711 49.7279C357.711 49.615 357.772 49.5281 357.893 49.4673H361.79V47.5127L361.803 45.558C361.89 45.4451 361.972 45.3886 362.05 45.3886C362.163 45.3886 362.25 45.4538 362.311 45.5841V49.4673H366.194C366.324 49.5368 366.39 49.6237 366.39 49.7279C366.39 49.8322 366.324 49.919 366.194 49.9885H362.311V53.8718C362.241 53.9934 362.163 54.0542 362.076 54.0542H362.05H362.024C361.92 54.0542 361.842 53.9934 361.79 53.8718V49.9885H357.893C357.772 49.9277 357.711 49.8409 357.711 49.7279V49.8973Z" fill="black"/>
<path d="M381.588 43.2254L381.64 43.2124C381.683 43.2124 381.727 43.2124 381.77 43.2124H381.926L382.291 43.5251C383.108 44.2635 383.703 45.1844 384.077 46.2877C384.45 47.391 384.637 48.5377 384.637 49.7279C384.637 50.3186 384.593 50.8876 384.507 51.4349C384.42 51.9822 384.32 52.447 384.207 52.8292C384.094 53.2115 383.933 53.5937 383.725 53.976C383.516 54.3582 383.351 54.6492 383.23 54.849C383.108 55.0488 382.93 55.2704 382.695 55.5136C382.461 55.7569 382.322 55.9002 382.278 55.9436C382.235 55.9871 382.135 56.0696 381.979 56.1912C381.953 56.2173 381.935 56.2347 381.926 56.2433H381.77C381.701 56.2433 381.653 56.2433 381.627 56.2433C381.601 56.2433 381.579 56.2303 381.562 56.2043C381.544 56.1782 381.531 56.1391 381.522 56.087C381.531 56.0783 381.579 56.0218 381.666 55.9176C383.012 54.5189 383.686 52.4557 383.686 49.7279C383.686 47.0001 383.012 44.9368 381.666 43.5382C381.579 43.4339 381.531 43.3774 381.522 43.3688C381.522 43.2993 381.544 43.2515 381.588 43.2254Z" fill="black"/>
<path d="M385.336 38.1564C385.336 38.0521 385.406 38 385.545 38H385.61H385.779C386.162 38.3214 386.526 38.6733 386.874 39.0555C387.221 39.4378 387.612 39.9807 388.047 40.6844C388.481 41.3881 388.859 42.1395 389.18 42.9388C389.502 43.738 389.767 44.737 389.975 45.9359C390.184 47.1347 390.292 48.3987 390.301 49.7279C390.31 51.057 390.201 52.3167 389.975 53.5069C389.749 54.697 389.484 55.6961 389.18 56.504C388.876 57.3119 388.498 58.0634 388.047 58.7583C387.595 59.4533 387.2 59.9963 386.861 60.3872C386.522 60.7781 386.162 61.13 385.779 61.4427H385.61C385.497 61.4427 385.423 61.434 385.388 61.4167C385.354 61.3993 385.336 61.3558 385.336 61.2863C385.597 61.0257 385.923 60.6391 386.314 60.1266C387.817 58.1111 388.711 55.4876 388.998 52.2559C389.067 51.587 389.102 50.74 389.102 49.7149C389.102 48.6984 389.067 47.8558 388.998 47.1868C388.668 43.4339 387.504 40.4889 385.506 38.3519C385.401 38.2302 385.345 38.1651 385.336 38.1564Z" fill="black"/>
<path d="M626.074 54.0073V43.3432H629.355C630.293 43.3432 631.13 43.5556 631.868 43.9804C632.61 44.4003 633.188 45.0009 633.604 45.7822C634.019 46.5585 634.226 47.4423 634.226 48.4335V48.9243C634.226 49.9155 634.021 50.7968 633.611 51.5683C633.206 52.3398 632.632 52.9379 631.89 53.3627C631.147 53.7875 630.31 54.0024 629.377 54.0073H626.074ZM628.271 45.123V52.2421H629.333C630.193 52.2421 630.85 51.9614 631.304 51.3998C631.758 50.8383 631.99 50.0351 632 48.9902V48.4262C632 47.3422 631.775 46.5219 631.326 45.9653C630.876 45.4037 630.22 45.123 629.355 45.123H628.271Z" fill="#355FB3"/>
<path d="M675.426 51.81H671.574L670.841 54.0073H668.505L672.475 43.3432H674.511L678.502 54.0073H676.166L675.426 51.81ZM672.167 50.0302H674.833L673.493 46.0385L672.167 50.0302Z" fill="#355FB3"/>
<path d="M702.162 54.0073V43.3432H705.897C707.191 43.3432 708.173 43.5922 708.842 44.0903C709.511 44.5834 709.845 45.3085 709.845 46.2656C709.845 46.788 709.711 47.2495 709.442 47.6498C709.174 48.0453 708.8 48.3359 708.322 48.5214C708.869 48.6581 709.298 48.934 709.611 49.3491C709.928 49.7641 710.087 50.2719 710.087 50.8725C710.087 51.8979 709.76 52.6743 709.105 53.2016C708.451 53.7289 707.519 53.9975 706.308 54.0073H702.162ZM704.359 49.3637V52.2421H706.242C706.759 52.2421 707.162 52.1201 707.45 51.8759C707.743 51.6269 707.89 51.2851 707.89 50.8505C707.89 49.874 707.384 49.3784 706.374 49.3637H704.359ZM704.359 47.811H705.985C707.094 47.7914 707.648 47.3495 707.648 46.4853C707.648 46.0019 707.506 45.6552 707.223 45.4453C706.945 45.2304 706.503 45.123 705.897 45.123H704.359V47.811Z" fill="#B33535"/>
<path d="M736.417 50.455C736.333 51.6025 735.909 52.5058 735.142 53.165C734.38 53.8242 733.375 54.1537 732.125 54.1537C730.757 54.1537 729.681 53.6948 728.895 52.7768C728.113 51.8539 727.723 50.5893 727.723 48.9828V48.331C727.723 47.3056 727.903 46.4023 728.265 45.621C728.626 44.8398 729.141 44.2416 729.81 43.8266C730.484 43.4067 731.265 43.1967 732.154 43.1967C733.384 43.1967 734.375 43.5263 735.127 44.1855C735.879 44.8447 736.314 45.77 736.431 46.9614H734.234C734.18 46.2729 733.987 45.7748 733.655 45.4672C733.328 45.1547 732.828 44.9985 732.154 44.9985C731.421 44.9985 730.872 45.2621 730.506 45.7895C730.145 46.312 729.959 47.1249 729.949 48.2285V49.0341C729.949 50.1865 730.123 51.0287 730.469 51.561C730.821 52.0932 731.373 52.3593 732.125 52.3593C732.803 52.3593 733.309 52.2055 733.641 51.8979C733.978 51.5854 734.17 51.1044 734.219 50.455H736.417Z" fill="#22661E"/>
<path d="M754.162 54.0073V43.3432H757.897C759.191 43.3432 760.173 43.5922 760.842 44.0903C761.511 44.5834 761.845 45.3085 761.845 46.2656C761.845 46.788 761.711 47.2495 761.442 47.6498C761.174 48.0453 760.8 48.3359 760.322 48.5214C760.869 48.6581 761.298 48.934 761.611 49.3491C761.928 49.7641 762.087 50.2719 762.087 50.8725C762.087 51.8979 761.76 52.6743 761.105 53.2016C760.451 53.7289 759.519 53.9975 758.308 54.0073H754.162ZM756.359 49.3637V52.2421H758.242C758.759 52.2421 759.162 52.1201 759.45 51.8759C759.743 51.6269 759.89 51.2851 759.89 50.8505C759.89 49.874 759.384 49.3784 758.374 49.3637H756.359ZM756.359 47.811H757.985C759.094 47.7914 759.648 47.3495 759.648 46.4853C759.648 46.0019 759.506 45.6552 759.223 45.4453C758.945 45.2304 758.503 45.123 757.897 45.123H756.359V47.811Z" fill="#B33535"/>
<path d="M788.417 50.455C788.333 51.6025 787.909 52.5058 787.142 53.165C786.38 53.8242 785.375 54.1537 784.125 54.1537C782.757 54.1537 781.681 53.6948 780.895 52.7768C780.113 51.8539 779.723 50.5893 779.723 48.9828V48.331C779.723 47.3056 779.903 46.4023 780.265 45.621C780.626 44.8398 781.141 44.2416 781.81 43.8266C782.484 43.4067 783.265 43.1967 784.154 43.1967C785.384 43.1967 786.375 43.5263 787.127 44.1855C787.879 44.8447 788.314 45.77 788.431 46.9614H786.234C786.18 46.2729 785.987 45.7748 785.655 45.4672C785.328 45.1547 784.828 44.9985 784.154 44.9985C783.421 44.9985 782.872 45.2621 782.506 45.7895C782.145 46.312 781.959 47.1249 781.949 48.2285V49.0341C781.949 50.1865 782.123 51.0287 782.469 51.561C782.821 52.0932 783.373 52.3593 784.125 52.3593C784.803 52.3593 785.309 52.2055 785.641 51.8979C785.978 51.5854 786.17 51.1044 786.219 50.455H788.417Z" fill="#22661E"/>
<path d="M639.815 48.4639C639.815 48.3509 639.875 48.2641 639.997 48.2033H648.298C648.428 48.2728 648.493 48.3596 648.493 48.4639C648.493 48.5594 648.432 48.642 648.311 48.7115L644.167 48.7245H640.023C639.884 48.6811 639.815 48.5942 639.815 48.4639ZM639.815 50.9919C639.815 50.8616 639.884 50.7747 640.023 50.7313H648.311C648.432 50.8181 648.493 50.905 648.493 50.9919C648.493 51.1048 648.428 51.1917 648.298 51.2525H639.997C639.875 51.1917 639.815 51.1048 639.815 50.9919Z" fill="black"/>
<path d="M655.241 53.1289C654.65 53.1289 654.172 52.9335 653.807 52.5425C653.442 52.1516 653.256 51.6608 653.247 51.07C653.247 50.2013 653.564 49.3934 654.198 48.6463C654.832 47.8992 655.571 47.4778 656.413 47.3823C656.422 47.3736 657.03 47.3693 658.238 47.3693H660.036C660.045 47.3779 660.058 47.3866 660.075 47.3953C660.092 47.404 660.11 47.4127 660.127 47.4214C660.145 47.4301 660.158 47.4387 660.166 47.4474C660.175 47.4561 660.188 47.4692 660.205 47.4865C660.223 47.5039 660.231 47.5126 660.231 47.5126C660.231 47.5126 660.24 47.53 660.258 47.5647C660.275 47.5995 660.279 47.6168 660.271 47.6168C660.262 47.6168 660.266 47.6386 660.284 47.682C660.301 47.7254 660.305 47.7515 660.297 47.7602C660.297 48.1424 660.014 48.3335 659.45 48.3335C659.389 48.3335 659.315 48.3335 659.228 48.3335C659.141 48.3335 659.08 48.3292 659.046 48.3205H658.264L658.329 48.4508C658.485 48.7809 658.564 49.1501 658.564 49.5585C658.564 50.5141 658.216 51.348 657.521 52.0604C656.826 52.7728 656.066 53.1289 655.241 53.1289ZM657.547 49.363C657.547 48.668 657.178 48.3205 656.439 48.3205C655.362 48.3205 654.663 49.0763 654.341 50.5879C654.333 50.6226 654.328 50.6487 654.328 50.6661C654.259 50.9875 654.224 51.2525 654.224 51.461C654.224 51.8953 654.333 52.1994 654.55 52.3731C654.767 52.5469 655.015 52.6381 655.293 52.6468C655.762 52.6468 656.192 52.4426 656.583 52.0343C656.835 51.7737 657.039 51.4262 657.195 50.9919C657.352 50.5575 657.447 50.21 657.482 49.9494C657.517 49.6888 657.538 49.4933 657.547 49.363Z" fill="black"/>
<path d="M662.629 51.7347C662.629 51.7347 662.629 51.0657 662.629 49.7279C662.629 48.39 662.738 47.126 662.955 45.9359C663.172 44.7457 663.437 43.751 663.75 42.9518C664.063 42.1526 664.44 41.3968 664.884 40.6844C665.327 39.972 665.722 39.4291 666.069 39.0555C666.417 38.682 666.777 38.3301 667.151 38H667.516C667.568 38.0521 667.594 38.0912 667.594 38.1173C667.594 38.152 667.524 38.2433 667.385 38.3909C667.246 38.5386 667.068 38.7471 666.851 39.0164C666.634 39.2857 666.386 39.6202 666.108 40.0198C665.83 40.4194 665.565 40.9276 665.314 41.5444C665.062 42.1612 664.818 42.8432 664.584 43.5903C664.349 44.3374 664.167 45.2409 664.037 46.3007C663.906 47.3606 663.837 48.4986 663.828 49.7149C663.828 50.74 663.863 51.587 663.932 52.2559C664.045 53.4982 664.245 54.6492 664.532 55.7091C664.818 56.7689 665.135 57.6203 665.483 58.2632C665.83 58.906 666.161 59.4533 666.473 59.9051C666.786 60.3568 667.051 60.6956 667.268 60.9215C667.485 61.1474 667.594 61.282 667.594 61.3254C667.594 61.3515 667.568 61.3906 667.516 61.4427H667.151C666.769 61.1213 666.404 60.7695 666.056 60.3872C665.709 60.005 665.318 59.462 664.884 58.7583C664.449 58.0547 664.071 57.3032 663.75 56.504C663.428 55.7048 663.163 54.7101 662.955 53.5199L662.629 51.7347Z" fill="black"/>
<path d="M682.485 49.8973C682.485 49.8973 682.485 49.8409 682.485 49.7279C682.485 49.615 682.545 49.5281 682.667 49.4673H686.563V47.5127L686.576 45.558C686.663 45.4451 686.746 45.3886 686.824 45.3886C686.937 45.3886 687.024 45.4538 687.085 45.5841V49.4673H690.968C691.098 49.5368 691.163 49.6237 691.163 49.7279C691.163 49.8322 691.098 49.919 690.968 49.9885H687.085V53.8718C687.015 53.9934 686.937 54.0542 686.85 54.0542H686.824H686.798C686.694 54.0542 686.615 53.9934 686.563 53.8718V49.9885H682.667C682.545 49.9277 682.485 49.8409 682.485 49.7279V49.8973Z" fill="black"/>
<path d="M696.013 49.7279C696.013 49.1284 696.057 48.5594 696.144 48.0208C696.231 47.4822 696.33 47.0174 696.443 46.6265C696.556 46.2356 696.717 45.8533 696.926 45.4798C697.134 45.1062 697.299 44.8152 697.421 44.6067C697.542 44.3982 697.725 44.1723 697.968 43.9291C698.211 43.6858 698.355 43.5382 698.398 43.486C698.441 43.4339 698.55 43.3427 698.724 43.2124H698.893H698.945C699.067 43.2124 699.128 43.2515 699.128 43.3297C699.128 43.3557 699.054 43.4469 698.906 43.6033C698.759 43.7597 698.58 43.9899 698.372 44.294C698.163 44.598 697.951 44.9716 697.733 45.4146C697.516 45.8577 697.334 46.4571 697.186 47.2129C697.038 47.9687 696.965 48.807 696.965 49.7279C696.965 50.6487 697.038 51.4827 697.186 52.2298C697.334 52.9769 697.512 53.5807 697.72 54.0411C697.929 54.5015 698.142 54.8751 698.359 55.1618C698.576 55.4485 698.759 55.6787 698.906 55.8524C699.054 56.0262 699.128 56.1174 699.128 56.1261C699.128 56.2043 699.063 56.2433 698.932 56.2433H698.893H698.724L698.359 55.9306C697.542 55.1922 696.947 54.2713 696.574 53.168C696.2 52.0648 696.013 50.918 696.013 49.7279Z" fill="black"/>
<path d="M714.272 49.8973C714.272 49.8973 714.272 49.8409 714.272 49.7279C714.272 49.615 714.333 49.5281 714.455 49.4673H718.351V47.5127L718.364 45.558C718.451 45.4451 718.533 45.3886 718.612 45.3886C718.725 45.3886 718.811 45.4538 718.872 45.5841V49.4673H722.755C722.886 49.5368 722.951 49.6237 722.951 49.7279C722.951 49.8322 722.886 49.919 722.755 49.9885H718.872V53.8718C718.803 53.9934 718.725 54.0542 718.638 54.0542H718.612H718.586C718.481 54.0542 718.403 53.9934 718.351 53.8718V49.9885H714.455C714.333 49.9277 714.272 49.8409 714.272 49.7279V49.8973Z" fill="black"/>
<path d="M740.992 49.8973C740.992 49.8973 740.992 49.8409 740.992 49.7279C740.992 49.615 741.053 49.5281 741.175 49.4673H745.071V47.5127L745.084 45.558C745.171 45.4451 745.253 45.3886 745.332 45.3886C745.445 45.3886 745.531 45.4538 745.592 45.5841V49.4673H749.475C749.606 49.5368 749.671 49.6237 749.671 49.7279C749.671 49.8322 749.606 49.919 749.475 49.9885H745.592V53.8718C745.523 53.9934 745.445 54.0542 745.358 54.0542H745.332H745.306C745.201 54.0542 745.123 53.9934 745.071 53.8718V49.9885H741.175C741.053 49.9277 740.992 49.8409 740.992 49.7279V49.8973Z" fill="black"/>
<path d="M767.711 49.8973C767.711 49.8973 767.711 49.8409 767.711 49.7279C767.711 49.615 767.772 49.5281 767.893 49.4673H771.79V47.5127L771.803 45.558C771.89 45.4451 771.972 45.3886 772.05 45.3886C772.163 45.3886 772.25 45.4538 772.311 45.5841V49.4673H776.194C776.324 49.5368 776.39 49.6237 776.39 49.7279C776.39 49.8322 776.324 49.919 776.194 49.9885H772.311V53.8718C772.241 53.9934 772.163 54.0542 772.076 54.0542H772.05H772.024C771.92 54.0542 771.842 53.9934 771.79 53.8718V49.9885H767.893C767.772 49.9277 767.711 49.8409 767.711 49.7279V49.8973Z" fill="black"/>
<path d="M791.588 43.2254L791.64 43.2124C791.683 43.2124 791.727 43.2124 791.77 43.2124H791.926L792.291 43.5251C793.108 44.2635 793.703 45.1844 794.077 46.2877C794.45 47.391 794.637 48.5377 794.637 49.7279C794.637 50.3186 794.593 50.8876 794.507 51.4349C794.42 51.9822 794.32 52.447 794.207 52.8292C794.094 53.2115 793.933 53.5937 793.725 53.976C793.516 54.3582 793.351 54.6492 793.23 54.849C793.108 55.0488 792.93 55.2704 792.695 55.5136C792.461 55.7569 792.322 55.9002 792.278 55.9436C792.235 55.9871 792.135 56.0696 791.979 56.1912C791.953 56.2173 791.935 56.2347 791.926 56.2433H791.77C791.701 56.2433 791.653 56.2433 791.627 56.2433C791.601 56.2433 791.579 56.2303 791.562 56.2043C791.544 56.1782 791.531 56.1391 791.522 56.087C791.531 56.0783 791.579 56.0218 791.666 55.9176C793.012 54.5189 793.686 52.4557 793.686 49.7279C793.686 47.0001 793.012 44.9368 791.666 43.5382C791.579 43.4339 791.531 43.3774 791.522 43.3688C791.522 43.2993 791.544 43.2515 791.588 43.2254Z" fill="black"/>
<path d="M795.336 38.1564C795.336 38.0521 795.406 38 795.545 38H795.61H795.779C796.162 38.3214 796.526 38.6733 796.874 39.0555C797.221 39.4378 797.612 39.9807 798.047 40.6844C798.481 41.3881 798.859 42.1395 799.18 42.9388C799.502 43.738 799.767 44.737 799.975 45.9359C800.184 47.1347 800.292 48.3987 800.301 49.7279C800.31 51.057 800.201 52.3167 799.975 53.5069C799.749 54.697 799.484 55.6961 799.18 56.504C798.876 57.3119 798.498 58.0634 798.047 58.7583C797.595 59.4533 797.2 59.9963 796.861 60.3872C796.522 60.7781 796.162 61.13 795.779 61.4427H795.61C795.497 61.4427 795.423 61.434 795.388 61.4167C795.354 61.3993 795.336 61.3558 795.336 61.2863C795.597 61.0257 795.923 60.6391 796.314 60.1266C797.817 58.1111 798.711 55.4876 798.998 52.2559C799.067 51.587 799.102 50.74 799.102 49.7149C799.102 48.6984 799.067 47.8558 798.998 47.1868C798.668 43.4339 797.504 40.4889 795.506 38.3519C795.401 38.2302 795.345 38.1651 795.336 38.1564Z" fill="black"/>
<path d="M223.649 105.378H219.431V108.235H224.382V110H217.233V99.3359H224.367V101.116H219.431V103.657H223.649V105.378Z" fill="black"/>
<path d="M229.743 104.251C229.743 104.138 229.803 104.051 229.925 103.99H238.224C238.355 104.059 238.42 104.146 238.42 104.251C238.42 104.346 238.359 104.429 238.237 104.498L234.094 104.511H229.951C229.812 104.468 229.743 104.381 229.743 104.251ZM229.743 106.778C229.743 106.648 229.812 106.561 229.951 106.518H238.237C238.359 106.604 238.42 106.691 238.42 106.778C238.42 106.891 238.355 106.978 238.224 107.039H229.925C229.803 106.978 229.743 106.891 229.743 106.778Z" fill="black"/>
<path d="M244.554 99.8729C244.562 99.8729 244.875 99.8512 245.492 99.8078C246.108 99.7643 246.426 99.7383 246.443 99.7296C246.547 99.7296 246.599 99.7687 246.599 99.8469C246.599 99.9424 246.443 100.598 246.13 101.814C245.8 103.1 245.635 103.756 245.635 103.782C245.635 103.799 245.666 103.777 245.726 103.716C246.256 103.247 246.821 103.013 247.42 103.013C247.889 103.013 248.267 103.13 248.554 103.365C248.84 103.599 248.988 103.942 248.997 104.394C248.997 104.837 248.832 105.523 248.501 106.452C248.171 107.382 248.006 107.938 248.006 108.12C248.015 108.242 248.037 108.324 248.071 108.368C248.106 108.411 248.171 108.433 248.267 108.433C248.51 108.433 248.736 108.303 248.944 108.042C249.153 107.781 249.322 107.425 249.453 106.974C249.479 106.878 249.505 106.822 249.531 106.804C249.557 106.787 249.626 106.778 249.739 106.778C249.913 106.778 250 106.813 250 106.882C250 106.891 249.982 106.956 249.948 107.078C249.809 107.59 249.587 108.012 249.283 108.342C248.988 108.715 248.636 108.902 248.228 108.902H248.163C247.754 108.902 247.459 108.785 247.277 108.55C247.094 108.316 247.003 108.068 247.003 107.807C247.003 107.668 247.159 107.156 247.472 106.27C247.785 105.384 247.946 104.72 247.954 104.277C247.954 103.764 247.763 103.508 247.381 103.508H247.316C246.595 103.508 245.97 103.934 245.44 104.785L245.348 104.954L244.905 106.713C244.628 107.842 244.467 108.459 244.423 108.563C244.311 108.798 244.119 108.915 243.85 108.915C243.729 108.915 243.624 108.876 243.537 108.798C243.451 108.719 243.403 108.641 243.394 108.563C243.394 108.442 243.711 107.121 244.345 104.602L245.309 100.746C245.309 100.633 245.279 100.563 245.218 100.537C245.157 100.511 244.988 100.49 244.71 100.472H244.436C244.384 100.42 244.358 100.385 244.358 100.368C244.358 100.351 244.367 100.268 244.384 100.12C244.428 99.9554 244.484 99.8729 244.554 99.8729Z" fill="black"/>
<path d="M251.498 105.514C251.498 104.915 251.542 104.346 251.628 103.808C251.715 103.269 251.815 102.804 251.928 102.414C252.041 102.023 252.202 101.64 252.41 101.267C252.619 100.894 252.784 100.603 252.905 100.394C253.027 100.186 253.209 99.9598 253.452 99.7166C253.696 99.4734 253.839 99.3257 253.882 99.2736C253.926 99.2215 254.034 99.1303 254.208 99H254.377H254.43C254.551 99 254.612 99.0391 254.612 99.1172C254.612 99.1433 254.538 99.2345 254.39 99.3908C254.243 99.5472 254.065 99.7774 253.856 100.081C253.648 100.385 253.435 100.759 253.218 101.202C253.001 101.645 252.818 102.244 252.671 103C252.523 103.756 252.449 104.594 252.449 105.514C252.449 106.435 252.523 107.269 252.671 108.016C252.818 108.763 252.996 109.367 253.205 109.827C253.413 110.287 253.626 110.661 253.843 110.947C254.06 111.234 254.243 111.464 254.39 111.638C254.538 111.812 254.612 111.903 254.612 111.912C254.612 111.99 254.547 112.029 254.417 112.029H254.377H254.208L253.843 111.716C253.027 110.978 252.432 110.057 252.058 108.954C251.685 107.851 251.498 106.704 251.498 105.514Z" fill="black"/>
<path d="M267.146 108.316C267.146 108.316 267.146 108.207 267.146 107.99C267.146 107.773 267.215 107.586 267.354 107.43C267.493 107.273 267.68 107.195 267.914 107.195C268.158 107.195 268.375 107.304 268.566 107.521C268.757 107.738 268.857 108.12 268.866 108.667C268.866 108.971 268.826 109.267 268.748 109.553C268.67 109.84 268.579 110.088 268.475 110.296C268.37 110.504 268.257 110.683 268.136 110.83C268.014 110.978 267.91 111.095 267.823 111.182C267.736 111.269 267.68 111.308 267.654 111.299C267.619 111.299 267.563 111.26 267.484 111.182C267.406 111.104 267.367 111.047 267.367 111.013C267.367 110.978 267.415 110.908 267.511 110.804C267.606 110.7 267.715 110.57 267.836 110.413C267.958 110.257 268.071 110.04 268.175 109.762C268.279 109.484 268.349 109.167 268.383 108.811V108.654L268.37 108.667C268.353 108.676 268.331 108.685 268.305 108.693C268.279 108.702 268.253 108.715 268.227 108.733C268.201 108.75 268.162 108.759 268.11 108.759C268.058 108.759 268.006 108.763 267.953 108.772C267.719 108.772 267.528 108.698 267.38 108.55L267.146 108.316Z" fill="black"/>
<path d="M273.148 105.514C273.148 104.915 273.192 104.346 273.278 103.808C273.365 103.269 273.465 102.804 273.578 102.414C273.691 102.023 273.852 101.64 274.06 101.267C274.269 100.894 274.434 100.603 274.555 100.394C274.677 100.186 274.859 99.9598 275.102 99.7166C275.346 99.4734 275.489 99.3257 275.532 99.2736C275.576 99.2215 275.684 99.1303 275.858 99H276.027H276.08C276.201 99 276.262 99.0391 276.262 99.1172C276.262 99.1433 276.188 99.2345 276.04 99.3908C275.893 99.5472 275.715 99.7774 275.506 100.081C275.298 100.385 275.085 100.759 274.868 101.202C274.651 101.645 274.468 102.244 274.321 103C274.173 103.756 274.099 104.594 274.099 105.514C274.099 106.435 274.173 107.269 274.321 108.016C274.468 108.763 274.646 109.367 274.855 109.827C275.063 110.287 275.276 110.661 275.493 110.947C275.71 111.234 275.893 111.464 276.04 111.638C276.188 111.812 276.262 111.903 276.262 111.912C276.262 111.99 276.197 112.029 276.067 112.029H276.027H275.858L275.493 111.716C274.677 110.978 274.082 110.057 273.708 108.954C273.335 107.851 273.148 106.704 273.148 105.514Z" fill="black"/>
<path d="M288.796 108.316C288.796 108.316 288.796 108.207 288.796 107.99C288.796 107.773 288.865 107.586 289.004 107.43C289.143 107.273 289.33 107.195 289.564 107.195C289.808 107.195 290.025 107.304 290.216 107.521C290.407 107.738 290.507 108.12 290.516 108.667C290.516 108.971 290.476 109.267 290.398 109.553C290.32 109.84 290.229 110.088 290.125 110.296C290.02 110.504 289.907 110.683 289.786 110.83C289.664 110.978 289.56 111.095 289.473 111.182C289.386 111.269 289.33 111.308 289.304 111.299C289.269 111.299 289.213 111.26 289.134 111.182C289.056 111.104 289.017 111.047 289.017 111.013C289.017 110.978 289.065 110.908 289.161 110.804C289.256 110.7 289.365 110.57 289.486 110.413C289.608 110.257 289.721 110.04 289.825 109.762C289.929 109.484 289.999 109.167 290.033 108.811V108.654L290.02 108.667C290.003 108.676 289.981 108.685 289.955 108.693C289.929 108.702 289.903 108.715 289.877 108.733C289.851 108.75 289.812 108.759 289.76 108.759C289.708 108.759 289.656 108.763 289.603 108.772C289.369 108.772 289.178 108.698 289.03 108.55L288.796 108.316Z" fill="black"/>
<path d="M305.142 99.013L305.194 99C305.237 99 305.281 99 305.324 99H305.48L305.845 99.3127C306.662 100.051 307.257 100.972 307.63 102.075C308.004 103.178 308.19 104.324 308.19 105.514C308.19 106.105 308.147 106.674 308.06 107.221C307.973 107.768 307.873 108.233 307.76 108.615C307.648 108.997 307.487 109.38 307.278 109.762C307.07 110.144 306.905 110.435 306.783 110.635C306.662 110.834 306.484 111.056 306.249 111.299C306.015 111.542 305.876 111.686 305.832 111.729C305.789 111.773 305.689 111.855 305.533 111.977C305.506 112.003 305.489 112.02 305.48 112.029H305.324C305.255 112.029 305.207 112.029 305.181 112.029C305.155 112.029 305.133 112.016 305.116 111.99C305.098 111.964 305.085 111.925 305.077 111.872C305.085 111.864 305.133 111.807 305.22 111.703C306.566 110.305 307.239 108.242 307.239 105.514C307.239 102.787 306.566 100.724 305.22 99.3257C305.133 99.2215 305.085 99.165 305.077 99.1563C305.077 99.0868 305.098 99.0391 305.142 99.013Z" fill="black"/>
<path d="M310.444 108.316C310.444 108.316 310.444 108.207 310.444 107.99C310.444 107.773 310.514 107.586 310.653 107.43C310.792 107.273 310.979 107.195 311.213 107.195C311.456 107.195 311.673 107.304 311.865 107.521C312.056 107.738 312.156 108.12 312.164 108.667C312.164 108.971 312.125 109.267 312.047 109.553C311.969 109.84 311.878 110.088 311.773 110.296C311.669 110.504 311.556 110.683 311.435 110.83C311.313 110.978 311.209 111.095 311.122 111.182C311.035 111.269 310.979 111.308 310.953 111.299C310.918 111.299 310.861 111.26 310.783 111.182C310.705 111.104 310.666 111.047 310.666 111.013C310.666 110.978 310.714 110.908 310.809 110.804C310.905 110.7 311.013 110.57 311.135 110.413C311.257 110.257 311.369 110.04 311.474 109.762C311.578 109.484 311.647 109.167 311.682 108.811V108.654L311.669 108.667C311.652 108.676 311.63 108.685 311.604 108.693C311.578 108.702 311.552 108.715 311.526 108.733C311.5 108.75 311.461 108.759 311.409 108.759C311.356 108.759 311.304 108.763 311.252 108.772C311.018 108.772 310.827 108.698 310.679 108.55L310.444 108.316Z" fill="black"/>
<path d="M316.447 105.514C316.447 104.915 316.49 104.346 316.577 103.808C316.664 103.269 316.764 102.804 316.877 102.414C316.99 102.023 317.15 101.64 317.359 101.267C317.567 100.894 317.732 100.603 317.854 100.394C317.975 100.186 318.158 99.9598 318.401 99.7166C318.644 99.4734 318.788 99.3257 318.831 99.2736C318.874 99.2215 318.983 99.1303 319.157 99H319.326H319.378C319.5 99 319.561 99.0391 319.561 99.1172C319.561 99.1433 319.487 99.2345 319.339 99.3908C319.192 99.5472 319.013 99.7774 318.805 100.081C318.597 100.385 318.384 100.759 318.167 101.202C317.949 101.645 317.767 102.244 317.619 103C317.472 103.756 317.398 104.594 317.398 105.514C317.398 106.435 317.472 107.269 317.619 108.016C317.767 108.763 317.945 109.367 318.154 109.827C318.362 110.287 318.575 110.661 318.792 110.947C319.009 111.234 319.192 111.464 319.339 111.638C319.487 111.812 319.561 111.903 319.561 111.912C319.561 111.99 319.496 112.029 319.365 112.029H319.326H319.157L318.792 111.716C317.975 110.978 317.381 110.057 317.007 108.954C316.634 107.851 316.447 106.704 316.447 105.514Z" fill="black"/>
<path d="M332.094 108.316C332.094 108.316 332.094 108.207 332.094 107.99C332.094 107.773 332.164 107.586 332.303 107.43C332.442 107.273 332.629 107.195 332.863 107.195C333.106 107.195 333.323 107.304 333.515 107.521C333.706 107.738 333.806 108.12 333.814 108.667C333.814 108.971 333.775 109.267 333.697 109.553C333.619 109.84 333.528 110.088 333.423 110.296C333.319 110.504 333.206 110.683 333.085 110.83C332.963 110.978 332.859 111.095 332.772 111.182C332.685 111.269 332.629 111.308 332.603 111.299C332.568 111.299 332.511 111.26 332.433 111.182C332.355 111.104 332.316 111.047 332.316 111.013C332.316 110.978 332.364 110.908 332.459 110.804C332.555 110.7 332.663 110.57 332.785 110.413C332.907 110.257 333.019 110.04 333.124 109.762C333.228 109.484 333.297 109.167 333.332 108.811V108.654L333.319 108.667C333.302 108.676 333.28 108.685 333.254 108.693C333.228 108.702 333.202 108.715 333.176 108.733C333.15 108.75 333.111 108.759 333.059 108.759C333.006 108.759 332.954 108.763 332.902 108.772C332.668 108.772 332.477 108.698 332.329 108.55L332.094 108.316Z" fill="black"/>
<path d="M348.442 99.013L348.494 99C348.537 99 348.581 99 348.624 99H348.78L349.145 99.3127C349.962 100.051 350.557 100.972 350.93 102.075C351.304 103.178 351.49 104.324 351.49 105.514C351.49 106.105 351.447 106.674 351.36 107.221C351.273 107.768 351.173 108.233 351.06 108.615C350.948 108.997 350.787 109.38 350.578 109.762C350.37 110.144 350.205 110.435 350.083 110.635C349.962 110.834 349.784 111.056 349.549 111.299C349.315 111.542 349.176 111.686 349.132 111.729C349.089 111.773 348.989 111.855 348.833 111.977C348.806 112.003 348.789 112.02 348.78 112.029H348.624C348.555 112.029 348.507 112.029 348.481 112.029C348.455 112.029 348.433 112.016 348.416 111.99C348.398 111.964 348.385 111.925 348.377 111.872C348.385 111.864 348.433 111.807 348.52 111.703C349.866 110.305 350.539 108.242 350.539 105.514C350.539 102.787 349.866 100.724 348.52 99.3257C348.433 99.2215 348.385 99.165 348.377 99.1563C348.377 99.0868 348.398 99.0391 348.442 99.013Z" fill="black"/>
<path d="M353.51 99.013L353.562 99C353.605 99 353.649 99 353.692 99H353.849L354.213 99.3127C355.03 100.051 355.625 100.972 355.998 102.075C356.372 103.178 356.559 104.324 356.559 105.514C356.559 106.105 356.515 106.674 356.428 107.221C356.341 107.768 356.242 108.233 356.129 108.615C356.016 108.997 355.855 109.38 355.647 109.762C355.438 110.144 355.273 110.435 355.152 110.635C355.03 110.834 354.852 111.056 354.617 111.299C354.383 111.542 354.244 111.686 354.2 111.729C354.157 111.773 354.057 111.855 353.901 111.977C353.875 112.003 353.857 112.02 353.849 112.029H353.692C353.623 112.029 353.575 112.029 353.549 112.029C353.523 112.029 353.501 112.016 353.484 111.99C353.466 111.964 353.453 111.925 353.445 111.872C353.453 111.864 353.501 111.807 353.588 111.703C354.934 110.305 355.608 108.242 355.608 105.514C355.608 102.787 354.934 100.724 353.588 99.3257C353.501 99.2215 353.453 99.165 353.445 99.1563C353.445 99.0868 353.466 99.0391 353.51 99.013Z" fill="black"/>
<path d="M262.426 107.803H258.574L257.841 110H255.505L259.475 99.3359H261.511L265.502 110H263.166L262.426 107.803ZM259.167 106.023H261.833L260.493 102.031L259.167 106.023Z" fill="#355FB3"/>
<path d="M278.162 110V99.3359H281.897C283.191 99.3359 284.173 99.585 284.842 100.083C285.511 100.576 285.845 101.301 285.845 102.258C285.845 102.781 285.711 103.242 285.442 103.643C285.174 104.038 284.8 104.329 284.322 104.514C284.869 104.651 285.298 104.927 285.611 105.342C285.928 105.757 286.087 106.265 286.087 106.865C286.087 107.891 285.76 108.667 285.105 109.194C284.451 109.722 283.519 109.99 282.308 110H278.162ZM280.359 105.356V108.235H282.242C282.759 108.235 283.162 108.113 283.45 107.869C283.743 107.62 283.89 107.278 283.89 106.843C283.89 105.867 283.384 105.371 282.374 105.356H280.359ZM280.359 103.804H281.985C283.094 103.784 283.648 103.342 283.648 102.478C283.648 101.995 283.506 101.648 283.223 101.438C282.945 101.223 282.503 101.116 281.897 101.116H280.359V103.804Z" fill="#B33535"/>
<path d="M294.162 110V99.3359H297.897C299.191 99.3359 300.173 99.585 300.842 100.083C301.511 100.576 301.845 101.301 301.845 102.258C301.845 102.781 301.711 103.242 301.442 103.643C301.174 104.038 300.8 104.329 300.322 104.514C300.869 104.651 301.298 104.927 301.611 105.342C301.928 105.757 302.087 106.265 302.087 106.865C302.087 107.891 301.76 108.667 301.105 109.194C300.451 109.722 299.519 109.99 298.308 110H294.162ZM296.359 105.356V108.235H298.242C298.759 108.235 299.162 108.113 299.45 107.869C299.743 107.62 299.89 107.278 299.89 106.843C299.89 105.867 299.384 105.371 298.374 105.356H296.359ZM296.359 103.804H297.985C299.094 103.784 299.648 103.342 299.648 102.478C299.648 101.995 299.506 101.648 299.223 101.438C298.945 101.223 298.503 101.116 297.897 101.116H296.359V103.804Z" fill="#B33535"/>
<path d="M329.417 106.448C329.333 107.595 328.909 108.499 328.142 109.158C327.38 109.817 326.375 110.146 325.125 110.146C323.757 110.146 322.681 109.688 321.895 108.77C321.113 107.847 320.723 106.582 320.723 104.976V104.324C320.723 103.298 320.903 102.395 321.265 101.614C321.626 100.833 322.141 100.234 322.81 99.8193C323.484 99.3994 324.265 99.1895 325.154 99.1895C326.384 99.1895 327.375 99.519 328.127 100.178C328.879 100.837 329.314 101.763 329.431 102.954H327.234C327.18 102.266 326.987 101.768 326.655 101.46C326.328 101.147 325.828 100.991 325.154 100.991C324.421 100.991 323.872 101.255 323.506 101.782C323.145 102.305 322.959 103.118 322.949 104.221V105.027C322.949 106.179 323.123 107.021 323.469 107.554C323.821 108.086 324.373 108.352 325.125 108.352C325.803 108.352 326.309 108.198 326.641 107.891C326.978 107.578 327.17 107.097 327.219 106.448H329.417Z" fill="#22661E"/>
<path d="M345.417 106.448C345.333 107.595 344.909 108.499 344.142 109.158C343.38 109.817 342.375 110.146 341.125 110.146C339.757 110.146 338.681 109.688 337.895 108.77C337.113 107.847 336.723 106.582 336.723 104.976V104.324C336.723 103.298 336.903 102.395 337.265 101.614C337.626 100.833 338.141 100.234 338.81 99.8193C339.484 99.3994 340.265 99.1895 341.154 99.1895C342.384 99.1895 343.375 99.519 344.127 100.178C344.879 100.837 345.314 101.763 345.431 102.954H343.234C343.18 102.266 342.987 101.768 342.655 101.46C342.328 101.147 341.828 100.991 341.154 100.991C340.421 100.991 339.872 101.255 339.506 101.782C339.145 102.305 338.959 103.118 338.949 104.221V105.027C338.949 106.179 339.123 107.021 339.469 107.554C339.821 108.086 340.373 108.352 341.125 108.352C341.803 108.352 342.309 108.198 342.641 107.891C342.978 107.578 343.17 107.097 343.219 106.448H345.417Z" fill="#22661E"/>
<path d="M633.759 105.642H629.541V110H627.343V99.3359H634.287V101.116H629.541V103.87H633.759V105.642Z" fill="black"/>
<path d="M639.743 104.251C639.743 104.138 639.803 104.051 639.925 103.99H648.224C648.355 104.059 648.42 104.146 648.42 104.251C648.42 104.346 648.359 104.429 648.237 104.498L644.094 104.511H639.951C639.812 104.468 639.743 104.381 639.743 104.251ZM639.743 106.778C639.743 106.648 639.812 106.561 639.951 106.518H648.237C648.359 106.604 648.42 106.691 648.42 106.778C648.42 106.891 648.355 106.978 648.224 107.039H639.925C639.803 106.978 639.743 106.891 639.743 106.778Z" fill="black"/>
<path d="M654.554 99.8729C654.562 99.8729 654.875 99.8512 655.492 99.8078C656.109 99.7643 656.426 99.7383 656.443 99.7296C656.547 99.7296 656.599 99.7687 656.599 99.8469C656.599 99.9424 656.443 100.598 656.13 101.814C655.8 103.1 655.635 103.756 655.635 103.782C655.635 103.799 655.666 103.777 655.726 103.716C656.256 103.247 656.821 103.013 657.42 103.013C657.889 103.013 658.267 103.13 658.554 103.365C658.84 103.599 658.988 103.942 658.997 104.394C658.997 104.837 658.832 105.523 658.501 106.452C658.171 107.382 658.006 107.938 658.006 108.12C658.015 108.242 658.037 108.324 658.072 108.368C658.106 108.411 658.171 108.433 658.267 108.433C658.51 108.433 658.736 108.303 658.944 108.042C659.153 107.781 659.322 107.425 659.453 106.974C659.479 106.878 659.505 106.822 659.531 106.804C659.557 106.787 659.626 106.778 659.739 106.778C659.913 106.778 660 106.813 660 106.882C660 106.891 659.982 106.956 659.948 107.078C659.809 107.59 659.587 108.012 659.283 108.342C658.988 108.715 658.636 108.902 658.228 108.902H658.163C657.754 108.902 657.459 108.785 657.277 108.55C657.094 108.316 657.003 108.068 657.003 107.807C657.003 107.668 657.159 107.156 657.472 106.27C657.785 105.384 657.946 104.72 657.954 104.277C657.954 103.764 657.763 103.508 657.381 103.508H657.316C656.595 103.508 655.97 103.934 655.44 104.785L655.348 104.954L654.906 106.713C654.628 107.842 654.467 108.459 654.423 108.563C654.311 108.798 654.119 108.915 653.85 108.915C653.729 108.915 653.624 108.876 653.537 108.798C653.451 108.719 653.403 108.641 653.394 108.563C653.394 108.442 653.711 107.121 654.345 104.602L655.309 100.746C655.309 100.633 655.279 100.563 655.218 100.537C655.157 100.511 654.988 100.49 654.71 100.472H654.436C654.384 100.42 654.358 100.385 654.358 100.368C654.358 100.351 654.367 100.268 654.384 100.12C654.428 99.9554 654.484 99.8729 654.554 99.8729Z" fill="black"/>
<path d="M661.498 105.514C661.498 104.915 661.542 104.346 661.628 103.808C661.715 103.269 661.815 102.804 661.928 102.414C662.041 102.023 662.202 101.64 662.41 101.267C662.619 100.894 662.784 100.603 662.905 100.394C663.027 100.186 663.209 99.9598 663.452 99.7166C663.696 99.4734 663.839 99.3257 663.882 99.2736C663.926 99.2215 664.034 99.1303 664.208 99H664.377H664.43C664.551 99 664.612 99.0391 664.612 99.1172C664.612 99.1433 664.538 99.2345 664.39 99.3908C664.243 99.5472 664.065 99.7774 663.856 100.081C663.648 100.385 663.435 100.759 663.218 101.202C663.001 101.645 662.818 102.244 662.671 103C662.523 103.756 662.449 104.594 662.449 105.514C662.449 106.435 662.523 107.269 662.671 108.016C662.818 108.763 662.996 109.367 663.205 109.827C663.413 110.287 663.626 110.661 663.843 110.947C664.06 111.234 664.243 111.464 664.39 111.638C664.538 111.812 664.612 111.903 664.612 111.912C664.612 111.99 664.547 112.029 664.417 112.029H664.377H664.208L663.843 111.716C663.027 110.978 662.432 110.057 662.058 108.954C661.685 107.851 661.498 106.704 661.498 105.514Z" fill="black"/>
<path d="M677.146 108.316C677.146 108.316 677.146 108.207 677.146 107.99C677.146 107.773 677.215 107.586 677.354 107.43C677.493 107.273 677.68 107.195 677.914 107.195C678.158 107.195 678.375 107.304 678.566 107.521C678.757 107.738 678.857 108.12 678.865 108.667C678.865 108.971 678.826 109.267 678.748 109.553C678.67 109.84 678.579 110.088 678.475 110.296C678.37 110.504 678.257 110.683 678.136 110.83C678.014 110.978 677.91 111.095 677.823 111.182C677.736 111.269 677.68 111.308 677.654 111.299C677.619 111.299 677.563 111.26 677.484 111.182C677.406 111.104 677.367 111.047 677.367 111.013C677.367 110.978 677.415 110.908 677.51 110.804C677.606 110.7 677.715 110.57 677.836 110.413C677.958 110.257 678.071 110.04 678.175 109.762C678.279 109.484 678.349 109.167 678.383 108.811V108.654L678.37 108.667C678.353 108.676 678.331 108.685 678.305 108.693C678.279 108.702 678.253 108.715 678.227 108.733C678.201 108.75 678.162 108.759 678.11 108.759C678.058 108.759 678.006 108.763 677.953 108.772C677.719 108.772 677.528 108.698 677.38 108.55L677.146 108.316Z" fill="black"/>
<path d="M683.148 105.514C683.148 104.915 683.192 104.346 683.278 103.808C683.365 103.269 683.465 102.804 683.578 102.414C683.691 102.023 683.852 101.64 684.06 101.267C684.269 100.894 684.434 100.603 684.555 100.394C684.677 100.186 684.859 99.9598 685.102 99.7166C685.346 99.4734 685.489 99.3257 685.532 99.2736C685.576 99.2215 685.684 99.1303 685.858 99H686.027H686.08C686.201 99 686.262 99.0391 686.262 99.1172C686.262 99.1433 686.188 99.2345 686.04 99.3908C685.893 99.5472 685.715 99.7774 685.506 100.081C685.298 100.385 685.085 100.759 684.868 101.202C684.651 101.645 684.468 102.244 684.321 103C684.173 103.756 684.099 104.594 684.099 105.514C684.099 106.435 684.173 107.269 684.321 108.016C684.468 108.763 684.646 109.367 684.855 109.827C685.063 110.287 685.276 110.661 685.493 110.947C685.71 111.234 685.893 111.464 686.04 111.638C686.188 111.812 686.262 111.903 686.262 111.912C686.262 111.99 686.197 112.029 686.067 112.029H686.027H685.858L685.493 111.716C684.677 110.978 684.082 110.057 683.708 108.954C683.335 107.851 683.148 106.704 683.148 105.514Z" fill="black"/>
<path d="M698.796 108.316C698.796 108.316 698.796 108.207 698.796 107.99C698.796 107.773 698.865 107.586 699.004 107.43C699.143 107.273 699.33 107.195 699.564 107.195C699.808 107.195 700.025 107.304 700.216 107.521C700.407 107.738 700.507 108.12 700.516 108.667C700.516 108.971 700.476 109.267 700.398 109.553C700.32 109.84 700.229 110.088 700.125 110.296C700.02 110.504 699.908 110.683 699.786 110.83C699.664 110.978 699.56 111.095 699.473 111.182C699.386 111.269 699.33 111.308 699.304 111.299C699.269 111.299 699.213 111.26 699.134 111.182C699.056 111.104 699.017 111.047 699.017 111.013C699.017 110.978 699.065 110.908 699.161 110.804C699.256 110.7 699.365 110.57 699.486 110.413C699.608 110.257 699.721 110.04 699.825 109.762C699.929 109.484 699.999 109.167 700.033 108.811V108.654L700.02 108.667C700.003 108.676 699.981 108.685 699.955 108.693C699.929 108.702 699.903 108.715 699.877 108.733C699.851 108.75 699.812 108.759 699.76 108.759C699.708 108.759 699.656 108.763 699.604 108.772C699.369 108.772 699.178 108.698 699.03 108.55L698.796 108.316Z" fill="black"/>
<path d="M715.142 99.013L715.194 99C715.237 99 715.281 99 715.324 99H715.48L715.845 99.3127C716.662 100.051 717.257 100.972 717.63 102.075C718.004 103.178 718.19 104.324 718.19 105.514C718.19 106.105 718.147 106.674 718.06 107.221C717.973 107.768 717.873 108.233 717.76 108.615C717.648 108.997 717.487 109.38 717.278 109.762C717.07 110.144 716.905 110.435 716.783 110.635C716.662 110.834 716.484 111.056 716.249 111.299C716.015 111.542 715.876 111.686 715.832 111.729C715.789 111.773 715.689 111.855 715.533 111.977C715.506 112.003 715.489 112.02 715.48 112.029H715.324C715.255 112.029 715.207 112.029 715.181 112.029C715.155 112.029 715.133 112.016 715.116 111.99C715.098 111.964 715.085 111.925 715.077 111.872C715.085 111.864 715.133 111.807 715.22 111.703C716.566 110.305 717.239 108.242 717.239 105.514C717.239 102.787 716.566 100.724 715.22 99.3257C715.133 99.2215 715.085 99.165 715.077 99.1563C715.077 99.0868 715.098 99.0391 715.142 99.013Z" fill="black"/>
<path d="M720.444 108.316C720.444 108.316 720.444 108.207 720.444 107.99C720.444 107.773 720.514 107.586 720.653 107.43C720.792 107.273 720.979 107.195 721.213 107.195C721.456 107.195 721.673 107.304 721.865 107.521C722.056 107.738 722.156 108.12 722.164 108.667C722.164 108.971 722.125 109.267 722.047 109.553C721.969 109.84 721.878 110.088 721.773 110.296C721.669 110.504 721.556 110.683 721.435 110.83C721.313 110.978 721.209 111.095 721.122 111.182C721.035 111.269 720.979 111.308 720.953 111.299C720.918 111.299 720.861 111.26 720.783 111.182C720.705 111.104 720.666 111.047 720.666 111.013C720.666 110.978 720.714 110.908 720.809 110.804C720.905 110.7 721.013 110.57 721.135 110.413C721.257 110.257 721.369 110.04 721.474 109.762C721.578 109.484 721.647 109.167 721.682 108.811V108.654L721.669 108.667C721.652 108.676 721.63 108.685 721.604 108.693C721.578 108.702 721.552 108.715 721.526 108.733C721.5 108.75 721.461 108.759 721.409 108.759C721.356 108.759 721.304 108.763 721.252 108.772C721.018 108.772 720.827 108.698 720.679 108.55L720.444 108.316Z" fill="black"/>
<path d="M726.447 105.514C726.447 104.915 726.49 104.346 726.577 103.808C726.664 103.269 726.764 102.804 726.877 102.414C726.99 102.023 727.15 101.64 727.359 101.267C727.567 100.894 727.732 100.603 727.854 100.394C727.975 100.186 728.158 99.9598 728.401 99.7166C728.644 99.4734 728.788 99.3257 728.831 99.2736C728.874 99.2215 728.983 99.1303 729.157 99H729.326H729.378C729.5 99 729.561 99.0391 729.561 99.1172C729.561 99.1433 729.487 99.2345 729.339 99.3908C729.192 99.5472 729.013 99.7774 728.805 100.081C728.597 100.385 728.384 100.759 728.167 101.202C727.949 101.645 727.767 102.244 727.619 103C727.472 103.756 727.398 104.594 727.398 105.514C727.398 106.435 727.472 107.269 727.619 108.016C727.767 108.763 727.945 109.367 728.154 109.827C728.362 110.287 728.575 110.661 728.792 110.947C729.009 111.234 729.192 111.464 729.339 111.638C729.487 111.812 729.561 111.903 729.561 111.912C729.561 111.99 729.496 112.029 729.365 112.029H729.326H729.157L728.792 111.716C727.975 110.978 727.381 110.057 727.007 108.954C726.634 107.851 726.447 106.704 726.447 105.514Z" fill="black"/>
<path d="M742.094 108.316C742.094 108.316 742.094 108.207 742.094 107.99C742.094 107.773 742.164 107.586 742.303 107.43C742.442 107.273 742.629 107.195 742.863 107.195C743.106 107.195 743.323 107.304 743.515 107.521C743.706 107.738 743.806 108.12 743.814 108.667C743.814 108.971 743.775 109.267 743.697 109.553C743.619 109.84 743.528 110.088 743.423 110.296C743.319 110.504 743.206 110.683 743.085 110.83C742.963 110.978 742.859 111.095 742.772 111.182C742.685 111.269 742.629 111.308 742.603 111.299C742.568 111.299 742.511 111.26 742.433 111.182C742.355 111.104 742.316 111.047 742.316 111.013C742.316 110.978 742.364 110.908 742.459 110.804C742.555 110.7 742.663 110.57 742.785 110.413C742.907 110.257 743.019 110.04 743.124 109.762C743.228 109.484 743.297 109.167 743.332 108.811V108.654L743.319 108.667C743.302 108.676 743.28 108.685 743.254 108.693C743.228 108.702 743.202 108.715 743.176 108.733C743.15 108.75 743.111 108.759 743.059 108.759C743.006 108.759 742.954 108.763 742.902 108.772C742.668 108.772 742.477 108.698 742.329 108.55L742.094 108.316Z" fill="black"/>
<path d="M758.442 99.013L758.494 99C758.537 99 758.581 99 758.624 99H758.78L759.145 99.3127C759.962 100.051 760.557 100.972 760.93 102.075C761.304 103.178 761.49 104.324 761.49 105.514C761.49 106.105 761.447 106.674 761.36 107.221C761.273 107.768 761.173 108.233 761.06 108.615C760.948 108.997 760.787 109.38 760.578 109.762C760.37 110.144 760.205 110.435 760.083 110.635C759.962 110.834 759.784 111.056 759.549 111.299C759.315 111.542 759.176 111.686 759.132 111.729C759.089 111.773 758.989 111.855 758.833 111.977C758.806 112.003 758.789 112.02 758.78 112.029H758.624C758.555 112.029 758.507 112.029 758.481 112.029C758.455 112.029 758.433 112.016 758.416 111.99C758.398 111.964 758.385 111.925 758.377 111.872C758.385 111.864 758.433 111.807 758.52 111.703C759.866 110.305 760.539 108.242 760.539 105.514C760.539 102.787 759.866 100.724 758.52 99.3257C758.433 99.2215 758.385 99.165 758.377 99.1563C758.377 99.0868 758.398 99.0391 758.442 99.013Z" fill="black"/>
<path d="M763.51 99.013L763.562 99C763.605 99 763.649 99 763.692 99H763.849L764.213 99.3127C765.03 100.051 765.625 100.972 765.998 102.075C766.372 103.178 766.559 104.324 766.559 105.514C766.559 106.105 766.515 106.674 766.428 107.221C766.342 107.768 766.242 108.233 766.129 108.615C766.016 108.997 765.855 109.38 765.647 109.762C765.438 110.144 765.273 110.435 765.152 110.635C765.03 110.834 764.852 111.056 764.617 111.299C764.383 111.542 764.244 111.686 764.2 111.729C764.157 111.773 764.057 111.855 763.901 111.977C763.875 112.003 763.857 112.02 763.849 112.029H763.692C763.623 112.029 763.575 112.029 763.549 112.029C763.523 112.029 763.501 112.016 763.484 111.99C763.466 111.964 763.453 111.925 763.445 111.872C763.453 111.864 763.501 111.807 763.588 111.703C764.934 110.305 765.608 108.242 765.608 105.514C765.608 102.787 764.934 100.724 763.588 99.3257C763.501 99.2215 763.453 99.165 763.445 99.1563C763.445 99.0868 763.466 99.0391 763.51 99.013Z" fill="black"/>
<path d="M672.426 107.803H668.574L667.841 110H665.505L669.475 99.3359H671.511L675.502 110H673.166L672.426 107.803ZM669.167 106.023H671.833L670.493 102.031L669.167 106.023Z" fill="#355FB3"/>
<path d="M688.162 110V99.3359H691.897C693.191 99.3359 694.173 99.585 694.842 100.083C695.511 100.576 695.845 101.301 695.845 102.258C695.845 102.781 695.711 103.242 695.442 103.643C695.174 104.038 694.8 104.329 694.322 104.514C694.869 104.651 695.298 104.927 695.611 105.342C695.928 105.757 696.087 106.265 696.087 106.865C696.087 107.891 695.76 108.667 695.105 109.194C694.451 109.722 693.519 109.99 692.308 110H688.162ZM690.359 105.356V108.235H692.242C692.759 108.235 693.162 108.113 693.45 107.869C693.743 107.62 693.89 107.278 693.89 106.843C693.89 105.867 693.384 105.371 692.374 105.356H690.359ZM690.359 103.804H691.985C693.094 103.784 693.648 103.342 693.648 102.478C693.648 101.995 693.506 101.648 693.223 101.438C692.945 101.223 692.503 101.116 691.897 101.116H690.359V103.804Z" fill="#B33535"/>
<path d="M712.417 106.448C712.333 107.595 711.909 108.499 711.142 109.158C710.38 109.817 709.375 110.146 708.125 110.146C706.757 110.146 705.681 109.688 704.895 108.77C704.113 107.847 703.723 106.582 703.723 104.976V104.324C703.723 103.298 703.903 102.395 704.265 101.614C704.626 100.833 705.141 100.234 705.81 99.8193C706.484 99.3994 707.265 99.1895 708.154 99.1895C709.384 99.1895 710.375 99.519 711.127 100.178C711.879 100.837 712.314 101.763 712.431 102.954H710.234C710.18 102.266 709.987 101.768 709.655 101.46C709.328 101.147 708.828 100.991 708.154 100.991C707.421 100.991 706.872 101.255 706.506 101.782C706.145 102.305 705.959 103.118 705.949 104.221V105.027C705.949 106.179 706.123 107.021 706.469 107.554C706.821 108.086 707.373 108.352 708.125 108.352C708.803 108.352 709.309 108.198 709.641 107.891C709.978 107.578 710.17 107.097 710.219 106.448H712.417Z" fill="#22661E"/>
<path d="M731.162 110V99.3359H734.897C736.191 99.3359 737.173 99.585 737.842 100.083C738.511 100.576 738.845 101.301 738.845 102.258C738.845 102.781 738.711 103.242 738.442 103.643C738.174 104.038 737.8 104.329 737.322 104.514C737.869 104.651 738.298 104.927 738.611 105.342C738.928 105.757 739.087 106.265 739.087 106.865C739.087 107.891 738.76 108.667 738.105 109.194C737.451 109.722 736.519 109.99 735.308 110H731.162ZM733.359 105.356V108.235H735.242C735.759 108.235 736.162 108.113 736.45 107.869C736.743 107.62 736.89 107.278 736.89 106.843C736.89 105.867 736.384 105.371 735.374 105.356H733.359ZM733.359 103.804H734.985C736.094 103.784 736.648 103.342 736.648 102.478C736.648 101.995 736.506 101.648 736.223 101.438C735.945 101.223 735.503 101.116 734.897 101.116H733.359V103.804Z" fill="#B33535"/>
<path d="M755.417 106.448C755.333 107.595 754.909 108.499 754.142 109.158C753.38 109.817 752.375 110.146 751.125 110.146C749.757 110.146 748.681 109.688 747.895 108.77C747.113 107.847 746.723 106.582 746.723 104.976V104.324C746.723 103.298 746.903 102.395 747.265 101.614C747.626 100.833 748.141 100.234 748.81 99.8193C749.484 99.3994 750.265 99.1895 751.154 99.1895C752.384 99.1895 753.375 99.519 754.127 100.178C754.879 100.837 755.314 101.763 755.431 102.954H753.234C753.18 102.266 752.987 101.768 752.655 101.46C752.328 101.147 751.828 100.991 751.154 100.991C750.421 100.991 749.872 101.255 749.506 101.782C749.145 102.305 748.959 103.118 748.949 104.221V105.027C748.949 106.179 749.123 107.021 749.469 107.554C749.821 108.086 750.373 108.352 751.125 108.352C751.803 108.352 752.309 108.198 752.641 107.891C752.978 107.578 753.17 107.097 753.219 106.448H755.417Z" fill="#22661E"/>
</svg>
