<svg width="566" height="160" viewBox="0 0 566 160" fill="none" xmlns="http://www.w3.org/2000/svg">
<path d="M85 80L155 80M85 80L15 35L15 125L85 80ZM155 80L225 35L225 125L155 80Z" stroke="black" stroke-width="2"/>
<circle cx="15" cy="35" r="14" fill="white" stroke="black" stroke-width="2"/>
<path d="M15.5516 31.1766C15.5516 30.0702 14.9896 30 14.8491 30C14.4276 30 14.0413 30.4215 14.0413 30.7727C14.0413 30.9835 14.1642 31.1064 14.2344 31.1766C14.4101 31.3347 14.8667 31.8089 14.8667 32.7221C14.8667 33.4597 13.813 37.5692 11.7055 37.5692C10.6343 37.5692 10.4235 36.6735 10.4235 36.0237C10.4235 35.1456 10.8275 33.9163 11.3016 32.6518C11.5826 31.9318 11.6529 31.7562 11.6529 31.4049C11.6529 30.6674 11.126 30 10.2655 30C8.64979 30 8 32.5465 8 32.687C8 32.7572 8.07025 32.845 8.19318 32.845C8.35124 32.845 8.3688 32.7748 8.43905 32.5289C8.86053 31.0186 9.54543 30.3512 10.2128 30.3512C10.3709 30.3512 10.6694 30.3512 10.6694 30.9308C10.6694 31.3874 10.4762 31.8967 10.2128 32.564C9.36982 34.8119 9.36982 35.3564 9.36982 35.7778C9.36982 36.1642 9.42251 36.8842 9.96693 37.376C10.5991 37.9204 11.4772 37.9204 11.6353 37.9204C14.5506 37.9204 15.5516 32.1777 15.5516 31.1766Z" fill="black"/>
<path d="M19.4844 32.9211C19.4844 32.605 19.4609 32.5933 19.1448 32.5933C18.6648 33.0616 18.0443 33.3426 16.932 33.3426V33.729C17.2482 33.729 17.8804 33.729 18.5594 33.4129V39.419C18.5594 39.8522 18.5243 39.9927 17.4121 39.9927H17.0023V40.3791C17.4823 40.3439 18.4892 40.3439 19.016 40.3439C19.5429 40.3439 20.5615 40.3439 21.0415 40.3791V39.9927H20.6317C19.5195 39.9927 19.4844 39.8522 19.4844 39.419V32.9211Z" fill="black"/>
<circle cx="15" cy="125" r="14" fill="white" stroke="black" stroke-width="2"/>
<path d="M15.5516 121.177C15.5516 120.07 14.9896 120 14.8491 120C14.4276 120 14.0413 120.421 14.0413 120.773C14.0413 120.983 14.1642 121.106 14.2344 121.177C14.4101 121.335 14.8667 121.809 14.8667 122.722C14.8667 123.46 13.813 127.569 11.7055 127.569C10.6343 127.569 10.4235 126.673 10.4235 126.024C10.4235 125.146 10.8275 123.916 11.3016 122.652C11.5826 121.932 11.6529 121.756 11.6529 121.405C11.6529 120.667 11.126 120 10.2655 120C8.64979 120 8 122.546 8 122.687C8 122.757 8.07025 122.845 8.19318 122.845C8.35124 122.845 8.3688 122.775 8.43905 122.529C8.86053 121.019 9.54543 120.351 10.2128 120.351C10.3709 120.351 10.6694 120.351 10.6694 120.931C10.6694 121.387 10.4762 121.897 10.2128 122.564C9.36982 124.812 9.36982 125.356 9.36982 125.778C9.36982 126.164 9.42251 126.884 9.96693 127.376C10.5991 127.92 11.4772 127.92 11.6353 127.92C14.5506 127.92 15.5516 122.178 15.5516 121.177Z" fill="black"/>
<path d="M19.1097 127.991C19.297 127.815 19.7888 127.429 19.9761 127.265C20.702 126.597 21.3927 125.953 21.3927 124.888C21.3927 123.495 20.2219 122.593 18.7585 122.593C17.3535 122.593 16.4286 123.659 16.4286 124.701C16.4286 125.274 16.8852 125.356 17.0491 125.356C17.295 125.356 17.6579 125.181 17.6579 124.736C17.6579 124.127 17.0725 124.127 16.932 124.127C17.2716 123.272 18.056 122.98 18.6297 122.98C19.7185 122.98 20.2805 123.905 20.2805 124.888C20.2805 126.106 19.4258 126.995 18.0443 128.412L16.5691 129.934C16.4286 130.063 16.4286 130.086 16.4286 130.379H21.0532L21.3927 128.283H21.0298C20.9947 128.518 20.901 129.103 20.7605 129.325C20.6903 129.419 19.8005 129.419 19.6131 129.419H17.5291L19.1097 127.991Z" fill="black"/>
<circle cx="85" cy="80" r="14" fill="white" stroke="black" stroke-width="2"/>
<path d="M85.5516 76.1766C85.5516 75.0702 84.9896 75 84.8491 75C84.4276 75 84.0413 75.4215 84.0413 75.7727C84.0413 75.9835 84.1642 76.1064 84.2344 76.1766C84.4101 76.3347 84.8667 76.8089 84.8667 77.7221C84.8667 78.4597 83.813 82.5692 81.7055 82.5692C80.6343 82.5692 80.4235 81.6735 80.4235 81.0237C80.4235 80.1456 80.8275 78.9163 81.3016 77.6518C81.5826 76.9318 81.6529 76.7562 81.6529 76.4049C81.6529 75.6674 81.126 75 80.2655 75C78.6498 75 78 77.5465 78 77.687C78 77.7572 78.0702 77.845 78.1932 77.845C78.3512 77.845 78.3688 77.7748 78.439 77.5289C78.8605 76.0186 79.5454 75.3512 80.2128 75.3512C80.3709 75.3512 80.6694 75.3512 80.6694 75.9308C80.6694 76.3874 80.4762 76.8967 80.2128 77.564C79.3698 79.8119 79.3698 80.3564 79.3698 80.7778C79.3698 81.1642 79.4225 81.8842 79.9669 82.376C80.5991 82.9204 81.4772 82.9204 81.6353 82.9204C84.5506 82.9204 85.5516 77.1777 85.5516 76.1766Z" fill="black"/>
<path d="M88.7701 81.4686C89.695 81.4686 90.2804 82.1477 90.2804 83.377C90.2804 84.8405 89.4491 85.2737 88.8286 85.2737C88.1847 85.2737 87.3066 85.0395 86.8968 84.419C87.3183 84.419 87.611 84.1497 87.611 83.7634C87.611 83.3887 87.3417 83.1194 86.9671 83.1194C86.651 83.1194 86.3232 83.3185 86.3232 83.7868C86.3232 84.899 87.5174 85.6249 88.8521 85.6249C90.4092 85.6249 91.498 84.5478 91.498 83.377C91.498 82.4053 90.7253 81.5155 89.5311 81.2579C90.456 80.9301 91.1468 80.1339 91.1468 79.1973C91.1468 78.2607 90.0931 77.5933 88.8755 77.5933C87.6227 77.5933 86.6744 78.2724 86.6744 79.1622C86.6744 79.5954 86.9671 79.7827 87.2715 79.7827C87.6344 79.7827 87.8686 79.5251 87.8686 79.1856C87.8686 78.7524 87.4939 78.5885 87.2364 78.5768C87.7281 77.9328 88.6296 77.8977 88.8403 77.8977C89.1447 77.8977 90.0346 77.9914 90.0346 79.1973C90.0346 80.0169 89.695 80.5086 89.5311 80.6959C89.1799 81.0589 88.9106 81.0823 88.1964 81.1291C87.974 81.1408 87.8803 81.1525 87.8803 81.3047C87.8803 81.4686 87.9857 81.4686 88.1847 81.4686H88.7701Z" fill="black"/>
<circle cx="155" cy="80" r="14" fill="white" stroke="black" stroke-width="2"/>
<path d="M155.552 76.1766C155.552 75.0702 154.99 75 154.849 75C154.428 75 154.041 75.4215 154.041 75.7727C154.041 75.9835 154.164 76.1064 154.234 76.1766C154.41 76.3347 154.867 76.8089 154.867 77.7221C154.867 78.4597 153.813 82.5692 151.706 82.5692C150.634 82.5692 150.424 81.6735 150.424 81.0237C150.424 80.1456 150.827 78.9163 151.302 77.6518C151.583 76.9318 151.653 76.7562 151.653 76.4049C151.653 75.6674 151.126 75 150.265 75C148.65 75 148 77.5465 148 77.687C148 77.7572 148.07 77.845 148.193 77.845C148.351 77.845 148.369 77.7748 148.439 77.5289C148.861 76.0186 149.545 75.3512 150.213 75.3512C150.371 75.3512 150.669 75.3512 150.669 75.9308C150.669 76.3874 150.476 76.8967 150.213 77.564C149.37 79.8119 149.37 80.3564 149.37 80.7778C149.37 81.1642 149.423 81.8842 149.967 82.376C150.599 82.9204 151.477 82.9204 151.635 82.9204C154.551 82.9204 155.552 77.1777 155.552 76.1766Z" fill="black"/>
<path d="M160.421 77.8041C160.421 77.5699 160.421 77.4763 160.175 77.4763C160.023 77.4763 160.011 77.488 159.894 77.6519L156.159 83.0726V83.459H159.461V84.4307C159.461 84.8639 159.426 84.9927 158.524 84.9927H158.255V85.3791C159.25 85.344 159.274 85.344 159.941 85.344C160.608 85.344 160.632 85.344 161.627 85.3791V84.9927H161.358C160.456 84.9927 160.421 84.8639 160.421 84.4307V83.459H161.662V83.0726H160.421V77.8041ZM159.543 78.7524V83.0726H156.569L159.543 78.7524Z" fill="black"/>
<circle cx="225" cy="35" r="14" fill="white" stroke="black" stroke-width="2"/>
<path d="M225.552 31.1766C225.552 30.0702 224.99 30 224.849 30C224.428 30 224.041 30.4215 224.041 30.7727C224.041 30.9835 224.164 31.1064 224.234 31.1766C224.41 31.3347 224.867 31.8089 224.867 32.7221C224.867 33.4597 223.813 37.5692 221.706 37.5692C220.634 37.5692 220.424 36.6735 220.424 36.0237C220.424 35.1456 220.827 33.9163 221.302 32.6518C221.583 31.9318 221.653 31.7562 221.653 31.4049C221.653 30.6674 221.126 30 220.265 30C218.65 30 218 32.5465 218 32.687C218 32.7572 218.07 32.845 218.193 32.845C218.351 32.845 218.369 32.7748 218.439 32.5289C218.861 31.0186 219.545 30.3512 220.213 30.3512C220.371 30.3512 220.669 30.3512 220.669 30.9308C220.669 31.3874 220.476 31.8967 220.213 32.564C219.37 34.8119 219.37 35.3564 219.37 35.7778C219.37 36.1642 219.423 36.8842 219.967 37.376C220.599 37.9204 221.477 37.9204 221.635 37.9204C224.551 37.9204 225.552 32.1777 225.552 31.1766Z" fill="black"/>
<path d="M227.447 33.7993C227.599 33.8461 228.068 33.9632 228.559 33.9632C230.023 33.9632 230.913 32.9329 230.913 32.7573C230.913 32.6285 230.831 32.5934 230.772 32.5934C230.749 32.5934 230.725 32.5934 230.62 32.6519C230.163 32.8275 229.625 32.968 228.993 32.968C228.302 32.968 227.728 32.7924 227.365 32.6519C227.248 32.5934 227.225 32.5934 227.213 32.5934C227.061 32.5934 227.061 32.7221 227.061 32.9329V36.3633C227.061 36.574 227.061 36.7145 227.248 36.7145C227.342 36.7145 227.377 36.6677 227.435 36.574C227.576 36.3984 228.021 35.8013 229.016 35.8013C229.672 35.8013 229.988 36.3399 230.093 36.5623C230.292 36.9838 230.316 37.5224 230.316 37.979C230.316 38.4122 230.304 39.0444 229.976 39.5595C229.754 39.9108 229.285 40.2737 228.665 40.2737C227.904 40.2737 227.154 39.7937 226.885 39.0327C226.92 39.0444 226.991 39.0444 227.002 39.0444C227.33 39.0444 227.588 38.8337 227.588 38.4707C227.588 38.0375 227.248 37.8853 227.014 37.8853C226.803 37.8853 226.429 38.0024 226.429 38.5058C226.429 39.5595 227.342 40.625 228.688 40.625C230.152 40.625 231.393 39.4893 231.393 38.0375C231.393 36.6794 230.409 35.4735 229.028 35.4735C228.442 35.4735 227.892 35.6608 227.447 36.0589V33.7993Z" fill="black"/>
<circle cx="225" cy="125" r="14" fill="white" stroke="black" stroke-width="2"/>
<path d="M225.552 121.177C225.552 120.07 224.99 120 224.849 120C224.428 120 224.041 120.421 224.041 120.773C224.041 120.983 224.164 121.106 224.234 121.177C224.41 121.335 224.867 121.809 224.867 122.722C224.867 123.46 223.813 127.569 221.706 127.569C220.634 127.569 220.424 126.673 220.424 126.024C220.424 125.146 220.827 123.916 221.302 122.652C221.583 121.932 221.653 121.756 221.653 121.405C221.653 120.667 221.126 120 220.265 120C218.65 120 218 122.546 218 122.687C218 122.757 218.07 122.845 218.193 122.845C218.351 122.845 218.369 122.775 218.439 122.529C218.861 121.019 219.545 120.351 220.213 120.351C220.371 120.351 220.669 120.351 220.669 120.931C220.669 121.387 220.476 121.897 220.213 122.564C219.37 124.812 219.37 125.356 219.37 125.778C219.37 126.164 219.423 126.884 219.967 127.376C220.599 127.92 221.477 127.92 221.635 127.92C224.551 127.92 225.552 122.178 225.552 121.177Z" fill="black"/>
<path d="M227.424 126.504C227.424 125.532 227.506 124.677 227.927 123.963C228.278 123.378 228.876 122.898 229.613 122.898C229.847 122.898 230.386 122.933 230.655 123.343C230.128 123.366 230.081 123.764 230.081 123.893C230.081 124.244 230.351 124.443 230.632 124.443C230.842 124.443 231.182 124.314 231.182 123.869C231.182 123.167 230.655 122.593 229.601 122.593C227.974 122.593 226.323 124.139 226.323 126.668C226.323 129.84 227.798 130.625 228.934 130.625C229.496 130.625 230.105 130.473 230.632 129.969C231.1 129.513 231.498 129.021 231.498 128.002C231.498 126.469 230.339 125.391 229.039 125.391C228.197 125.391 227.693 125.93 227.424 126.504ZM228.934 130.274C228.314 130.274 227.927 129.84 227.752 129.513C227.482 128.986 227.459 128.19 227.459 127.745C227.459 126.586 228.091 125.719 228.993 125.719C229.578 125.719 229.929 126.024 230.152 126.434C230.398 126.867 230.398 127.394 230.398 127.991C230.398 128.588 230.398 129.103 230.163 129.524C229.859 130.063 229.449 130.274 228.934 130.274Z" fill="black"/>
<path d="M410 60L340 15L340 105L410 60Z" stroke="black" stroke-width="2"/>
<path d="M550 105L550 15L480 60L550 105Z" stroke="black" stroke-width="2"/>
<circle cx="340" cy="15" r="14" fill="white" stroke="black" stroke-width="2"/>
<path d="M340.552 11.1766C340.552 10.0702 339.99 10 339.849 10C339.428 10 339.041 10.4215 339.041 10.7727C339.041 10.9835 339.164 11.1064 339.234 11.1766C339.41 11.3347 339.867 11.8089 339.867 12.7221C339.867 13.4597 338.813 17.5692 336.706 17.5692C335.634 17.5692 335.424 16.6735 335.424 16.0237C335.424 15.1456 335.827 13.9163 336.302 12.6518C336.583 11.9318 336.653 11.7562 336.653 11.4049C336.653 10.6674 336.126 10 335.265 10C333.65 10 333 12.5465 333 12.687C333 12.7572 333.07 12.845 333.193 12.845C333.351 12.845 333.369 12.7748 333.439 12.5289C333.861 11.0186 334.545 10.3512 335.213 10.3512C335.371 10.3512 335.669 10.3512 335.669 10.9308C335.669 11.3874 335.476 11.8967 335.213 12.564C334.37 14.8119 334.37 15.3564 334.37 15.7778C334.37 16.1642 334.423 16.8842 334.967 17.376C335.599 17.9204 336.477 17.9204 336.635 17.9204C339.551 17.9204 340.552 12.1777 340.552 11.1766Z" fill="black"/>
<path d="M344.484 12.9211C344.484 12.605 344.461 12.5933 344.145 12.5933C343.665 13.0616 343.044 13.3426 341.932 13.3426V13.729C342.248 13.729 342.88 13.729 343.559 13.4129V19.419C343.559 19.8522 343.524 19.9927 342.412 19.9927H342.002V20.3791C342.482 20.3439 343.489 20.3439 344.016 20.3439C344.543 20.3439 345.561 20.3439 346.041 20.3791V19.9927H345.632C344.519 19.9927 344.484 19.8522 344.484 19.419V12.9211Z" fill="black"/>
<circle cx="340" cy="105" r="14" fill="white" stroke="black" stroke-width="2"/>
<path d="M340.552 101.177C340.552 100.07 339.99 100 339.849 100C339.428 100 339.041 100.421 339.041 100.773C339.041 100.983 339.164 101.106 339.234 101.177C339.41 101.335 339.867 101.809 339.867 102.722C339.867 103.46 338.813 107.569 336.706 107.569C335.634 107.569 335.424 106.673 335.424 106.024C335.424 105.146 335.827 103.916 336.302 102.652C336.583 101.932 336.653 101.756 336.653 101.405C336.653 100.667 336.126 100 335.265 100C333.65 100 333 102.546 333 102.687C333 102.757 333.07 102.845 333.193 102.845C333.351 102.845 333.369 102.775 333.439 102.529C333.861 101.019 334.545 100.351 335.213 100.351C335.371 100.351 335.669 100.351 335.669 100.931C335.669 101.387 335.476 101.897 335.213 102.564C334.37 104.812 334.37 105.356 334.37 105.778C334.37 106.164 334.423 106.884 334.967 107.376C335.599 107.92 336.477 107.92 336.635 107.92C339.551 107.92 340.552 102.178 340.552 101.177Z" fill="black"/>
<path d="M344.11 107.991C344.297 107.815 344.789 107.429 344.976 107.265C345.702 106.597 346.393 105.953 346.393 104.888C346.393 103.495 345.222 102.593 343.758 102.593C342.354 102.593 341.429 103.659 341.429 104.701C341.429 105.274 341.885 105.356 342.049 105.356C342.295 105.356 342.658 105.181 342.658 104.736C342.658 104.127 342.073 104.127 341.932 104.127C342.272 103.272 343.056 102.98 343.63 102.98C344.719 102.98 345.28 103.905 345.28 104.888C345.28 106.106 344.426 106.995 343.044 108.412L341.569 109.934C341.429 110.063 341.429 110.086 341.429 110.379H346.053L346.393 108.283H346.03C345.995 108.518 345.901 109.103 345.761 109.325C345.69 109.419 344.8 109.419 344.613 109.419H342.529L344.11 107.991Z" fill="black"/>
<circle cx="410" cy="60" r="14" fill="white" stroke="black" stroke-width="2"/>
<path d="M410.552 56.1766C410.552 55.0702 409.99 55 409.849 55C409.428 55 409.041 55.4215 409.041 55.7727C409.041 55.9835 409.164 56.1064 409.234 56.1766C409.41 56.3347 409.867 56.8089 409.867 57.7221C409.867 58.4597 408.813 62.5692 406.706 62.5692C405.634 62.5692 405.424 61.6735 405.424 61.0237C405.424 60.1456 405.827 58.9163 406.302 57.6518C406.583 56.9318 406.653 56.7562 406.653 56.4049C406.653 55.6674 406.126 55 405.265 55C403.65 55 403 57.5465 403 57.687C403 57.7572 403.07 57.845 403.193 57.845C403.351 57.845 403.369 57.7748 403.439 57.5289C403.861 56.0186 404.545 55.3512 405.213 55.3512C405.371 55.3512 405.669 55.3512 405.669 55.9308C405.669 56.3874 405.476 56.8967 405.213 57.564C404.37 59.8119 404.37 60.3564 404.37 60.7778C404.37 61.1642 404.423 61.8842 404.967 62.376C405.599 62.9204 406.477 62.9204 406.635 62.9204C409.551 62.9204 410.552 57.1777 410.552 56.1766Z" fill="black"/>
<path d="M413.77 61.4686C414.695 61.4686 415.28 62.1477 415.28 63.377C415.28 64.8405 414.449 65.2737 413.829 65.2737C413.185 65.2737 412.307 65.0395 411.897 64.419C412.318 64.419 412.611 64.1497 412.611 63.7634C412.611 63.3887 412.342 63.1194 411.967 63.1194C411.651 63.1194 411.323 63.3185 411.323 63.7868C411.323 64.899 412.517 65.6249 413.852 65.6249C415.409 65.6249 416.498 64.5478 416.498 63.377C416.498 62.4053 415.725 61.5155 414.531 61.2579C415.456 60.9301 416.147 60.1339 416.147 59.1973C416.147 58.2607 415.093 57.5933 413.876 57.5933C412.623 57.5933 411.674 58.2724 411.674 59.1622C411.674 59.5954 411.967 59.7827 412.272 59.7827C412.634 59.7827 412.869 59.5251 412.869 59.1856C412.869 58.7524 412.494 58.5885 412.236 58.5768C412.728 57.9328 413.63 57.8977 413.84 57.8977C414.145 57.8977 415.035 57.9914 415.035 59.1973C415.035 60.0169 414.695 60.5086 414.531 60.6959C414.18 61.0589 413.911 61.0823 413.196 61.1291C412.974 61.1408 412.88 61.1525 412.88 61.3047C412.88 61.4686 412.986 61.4686 413.185 61.4686H413.77Z" fill="black"/>
<circle cx="480" cy="60" r="14" fill="white" stroke="black" stroke-width="2"/>
<path d="M480.552 56.1766C480.552 55.0702 479.99 55 479.849 55C479.428 55 479.041 55.4215 479.041 55.7727C479.041 55.9835 479.164 56.1064 479.234 56.1766C479.41 56.3347 479.867 56.8089 479.867 57.7221C479.867 58.4597 478.813 62.5692 476.706 62.5692C475.634 62.5692 475.424 61.6735 475.424 61.0237C475.424 60.1456 475.827 58.9163 476.302 57.6518C476.583 56.9318 476.653 56.7562 476.653 56.4049C476.653 55.6674 476.126 55 475.265 55C473.65 55 473 57.5465 473 57.687C473 57.7572 473.07 57.845 473.193 57.845C473.351 57.845 473.369 57.7748 473.439 57.5289C473.861 56.0186 474.545 55.3512 475.213 55.3512C475.371 55.3512 475.669 55.3512 475.669 55.9308C475.669 56.3874 475.476 56.8967 475.213 57.564C474.37 59.8119 474.37 60.3564 474.37 60.7778C474.37 61.1642 474.423 61.8842 474.967 62.376C475.599 62.9204 476.477 62.9204 476.635 62.9204C479.551 62.9204 480.552 57.1777 480.552 56.1766Z" fill="black"/>
<path d="M485.421 57.8041C485.421 57.5699 485.421 57.4763 485.175 57.4763C485.023 57.4763 485.011 57.488 484.894 57.6519L481.159 63.0726V63.459H484.461V64.4307C484.461 64.8639 484.426 64.9927 483.524 64.9927H483.255V65.3791C484.25 65.344 484.274 65.344 484.941 65.344C485.608 65.344 485.632 65.344 486.627 65.3791V64.9927H486.358C485.456 64.9927 485.421 64.8639 485.421 64.4307V63.459H486.662V63.0726H485.421V57.8041ZM484.543 58.7524V63.0726H481.569L484.543 58.7524Z" fill="black"/>
<circle cx="550" cy="15" r="14" fill="white" stroke="black" stroke-width="2"/>
<path d="M550.552 11.1766C550.552 10.0702 549.99 10 549.849 10C549.428 10 549.041 10.4215 549.041 10.7727C549.041 10.9835 549.164 11.1064 549.234 11.1766C549.41 11.3347 549.867 11.8089 549.867 12.7221C549.867 13.4597 548.813 17.5692 546.706 17.5692C545.634 17.5692 545.424 16.6735 545.424 16.0237C545.424 15.1456 545.827 13.9163 546.302 12.6518C546.583 11.9318 546.653 11.7562 546.653 11.4049C546.653 10.6674 546.126 10 545.265 10C543.65 10 543 12.5465 543 12.687C543 12.7572 543.07 12.845 543.193 12.845C543.351 12.845 543.369 12.7748 543.439 12.5289C543.861 11.0186 544.545 10.3512 545.213 10.3512C545.371 10.3512 545.669 10.3512 545.669 10.9308C545.669 11.3874 545.476 11.8967 545.213 12.564C544.37 14.8119 544.37 15.3564 544.37 15.7778C544.37 16.1642 544.423 16.8842 544.967 17.376C545.599 17.9204 546.477 17.9204 546.635 17.9204C549.551 17.9204 550.552 12.1777 550.552 11.1766Z" fill="black"/>
<path d="M552.447 13.7993C552.599 13.8461 553.068 13.9632 553.559 13.9632C555.023 13.9632 555.913 12.9329 555.913 12.7573C555.913 12.6285 555.831 12.5934 555.772 12.5934C555.749 12.5934 555.725 12.5934 555.62 12.6519C555.163 12.8275 554.625 12.968 553.993 12.968C553.302 12.968 552.728 12.7924 552.365 12.6519C552.248 12.5934 552.225 12.5934 552.213 12.5934C552.061 12.5934 552.061 12.7221 552.061 12.9329V16.3633C552.061 16.574 552.061 16.7145 552.248 16.7145C552.342 16.7145 552.377 16.6677 552.435 16.574C552.576 16.3984 553.021 15.8013 554.016 15.8013C554.672 15.8013 554.988 16.3399 555.093 16.5623C555.292 16.9838 555.316 17.5224 555.316 17.979C555.316 18.4122 555.304 19.0444 554.976 19.5595C554.754 19.9108 554.285 20.2737 553.665 20.2737C552.904 20.2737 552.154 19.7937 551.885 19.0327C551.92 19.0444 551.991 19.0444 552.002 19.0444C552.33 19.0444 552.588 18.8337 552.588 18.4707C552.588 18.0375 552.248 17.8853 552.014 17.8853C551.803 17.8853 551.429 18.0024 551.429 18.5058C551.429 19.5595 552.342 20.625 553.688 20.625C555.152 20.625 556.393 19.4893 556.393 18.0375C556.393 16.6794 555.409 15.4735 554.028 15.4735C553.442 15.4735 552.892 15.6608 552.447 16.0589V13.7993Z" fill="black"/>
<circle cx="550" cy="105" r="14" fill="white" stroke="black" stroke-width="2"/>
<path d="M550.552 101.177C550.552 100.07 549.99 100 549.849 100C549.428 100 549.041 100.421 549.041 100.773C549.041 100.983 549.164 101.106 549.234 101.177C549.41 101.335 549.867 101.809 549.867 102.722C549.867 103.46 548.813 107.569 546.706 107.569C545.634 107.569 545.424 106.673 545.424 106.024C545.424 105.146 545.827 103.916 546.302 102.652C546.583 101.932 546.653 101.756 546.653 101.405C546.653 100.667 546.126 100 545.265 100C543.65 100 543 102.546 543 102.687C543 102.757 543.07 102.845 543.193 102.845C543.351 102.845 543.369 102.775 543.439 102.529C543.861 101.019 544.545 100.351 545.213 100.351C545.371 100.351 545.669 100.351 545.669 100.931C545.669 101.387 545.476 101.897 545.213 102.564C544.37 104.812 544.37 105.356 544.37 105.778C544.37 106.164 544.423 106.884 544.967 107.376C545.599 107.92 546.477 107.92 546.635 107.92C549.551 107.92 550.552 102.178 550.552 101.177Z" fill="black"/>
<path d="M552.424 106.504C552.424 105.532 552.506 104.677 552.927 103.963C553.278 103.378 553.876 102.898 554.613 102.898C554.847 102.898 555.386 102.933 555.655 103.343C555.128 103.366 555.081 103.764 555.081 103.893C555.081 104.244 555.351 104.443 555.632 104.443C555.842 104.443 556.182 104.314 556.182 103.869C556.182 103.167 555.655 102.593 554.601 102.593C552.974 102.593 551.323 104.139 551.323 106.668C551.323 109.84 552.798 110.625 553.934 110.625C554.496 110.625 555.105 110.473 555.632 109.969C556.1 109.513 556.498 109.021 556.498 108.002C556.498 106.469 555.339 105.391 554.039 105.391C553.197 105.391 552.693 105.93 552.424 106.504ZM553.934 110.274C553.314 110.274 552.927 109.84 552.752 109.513C552.482 108.986 552.459 108.19 552.459 107.745C552.459 106.586 553.091 105.719 553.993 105.719C554.578 105.719 554.929 106.024 555.152 106.434C555.398 106.867 555.398 107.394 555.398 107.991C555.398 108.588 555.398 109.103 555.163 109.524C554.859 110.063 554.449 110.274 553.934 110.274Z" fill="black"/>
<path d="M410 145L480 145" stroke="black" stroke-width="2"/>
<circle cx="410" cy="145" r="14" fill="white" stroke="black" stroke-width="2"/>
<path d="M410.552 141.177C410.552 140.07 409.99 140 409.849 140C409.428 140 409.041 140.421 409.041 140.773C409.041 140.983 409.164 141.106 409.234 141.177C409.41 141.335 409.867 141.809 409.867 142.722C409.867 143.46 408.813 147.569 406.706 147.569C405.634 147.569 405.424 146.673 405.424 146.024C405.424 145.146 405.827 143.916 406.302 142.652C406.583 141.932 406.653 141.756 406.653 141.405C406.653 140.667 406.126 140 405.265 140C403.65 140 403 142.546 403 142.687C403 142.757 403.07 142.845 403.193 142.845C403.351 142.845 403.369 142.775 403.439 142.529C403.861 141.019 404.545 140.351 405.213 140.351C405.371 140.351 405.669 140.351 405.669 140.931C405.669 141.387 405.476 141.897 405.213 142.564C404.37 144.812 404.37 145.356 404.37 145.778C404.37 146.164 404.423 146.884 404.967 147.376C405.599 147.92 406.477 147.92 406.635 147.92C409.551 147.92 410.552 142.178 410.552 141.177Z" fill="black"/>
<path d="M413.77 146.469C414.695 146.469 415.28 147.148 415.28 148.377C415.28 149.84 414.449 150.274 413.829 150.274C413.185 150.274 412.307 150.04 411.897 149.419C412.318 149.419 412.611 149.15 412.611 148.763C412.611 148.389 412.342 148.119 411.967 148.119C411.651 148.119 411.323 148.318 411.323 148.787C411.323 149.899 412.517 150.625 413.852 150.625C415.409 150.625 416.498 149.548 416.498 148.377C416.498 147.405 415.725 146.515 414.531 146.258C415.456 145.93 416.147 145.134 416.147 144.197C416.147 143.261 415.093 142.593 413.876 142.593C412.623 142.593 411.674 143.272 411.674 144.162C411.674 144.595 411.967 144.783 412.272 144.783C412.634 144.783 412.869 144.525 412.869 144.186C412.869 143.752 412.494 143.588 412.236 143.577C412.728 142.933 413.63 142.898 413.84 142.898C414.145 142.898 415.035 142.991 415.035 144.197C415.035 145.017 414.695 145.509 414.531 145.696C414.18 146.059 413.911 146.082 413.196 146.129C412.974 146.141 412.88 146.153 412.88 146.305C412.88 146.469 412.986 146.469 413.185 146.469H413.77Z" fill="black"/>
<circle cx="480" cy="145" r="14" fill="white" stroke="black" stroke-width="2"/>
<path d="M480.552 141.177C480.552 140.07 479.99 140 479.849 140C479.428 140 479.041 140.421 479.041 140.773C479.041 140.983 479.164 141.106 479.234 141.177C479.41 141.335 479.867 141.809 479.867 142.722C479.867 143.46 478.813 147.569 476.706 147.569C475.634 147.569 475.424 146.673 475.424 146.024C475.424 145.146 475.827 143.916 476.302 142.652C476.583 141.932 476.653 141.756 476.653 141.405C476.653 140.667 476.126 140 475.265 140C473.65 140 473 142.546 473 142.687C473 142.757 473.07 142.845 473.193 142.845C473.351 142.845 473.369 142.775 473.439 142.529C473.861 141.019 474.545 140.351 475.213 140.351C475.371 140.351 475.669 140.351 475.669 140.931C475.669 141.387 475.476 141.897 475.213 142.564C474.37 144.812 474.37 145.356 474.37 145.778C474.37 146.164 474.423 146.884 474.967 147.376C475.599 147.92 476.477 147.92 476.635 147.92C479.551 147.92 480.552 142.178 480.552 141.177Z" fill="black"/>
<path d="M485.421 142.804C485.421 142.57 485.421 142.476 485.175 142.476C485.023 142.476 485.011 142.488 484.894 142.652L481.159 148.073V148.459H484.461V149.431C484.461 149.864 484.426 149.993 483.524 149.993H483.255V150.379C484.25 150.344 484.274 150.344 484.941 150.344C485.608 150.344 485.632 150.344 486.627 150.379V149.993H486.358C485.456 149.993 485.421 149.864 485.421 149.431V148.459H486.662V148.073H485.421V142.804ZM484.543 143.752V148.073H481.569L484.543 143.752Z" fill="black"/>
<path d="M310 80L300 74.2265V85.7735L310 80ZM255 81H301V79H255V81Z" fill="black"/>
<path d="M281.779 60.4214C281.779 60.4039 281.849 60.1756 281.849 60.158C281.849 60 281.709 60 281.656 60C281.498 60 281.481 60.0878 281.41 60.3512L278.513 71.9758C277.055 71.8002 276.511 71.0627 276.511 70.0091C276.511 69.6228 276.511 69.2189 277.336 67.0415C277.565 66.4094 277.652 66.1811 277.652 65.865C277.652 65.0748 277.091 64.4427 276.265 64.4427C274.65 64.4427 274 66.9888 274 67.1293C274 67.1996 274.07 67.2874 274.193 67.2874C274.351 67.2874 274.369 67.2171 274.439 66.9713C274.86 65.4436 275.563 64.7938 276.213 64.7938C276.371 64.7938 276.669 64.8114 276.669 65.3733C276.669 65.4436 276.669 65.8299 276.371 66.6025C275.422 69.096 275.422 69.4823 275.422 69.8862C275.422 71.572 276.827 72.2217 278.408 72.3446C278.267 72.889 278.144 73.4509 278.004 73.9952C277.723 75.0488 277.6 75.5405 277.6 75.6107C277.6 75.7688 277.74 75.7688 277.793 75.7688C277.828 75.7688 277.898 75.7688 277.933 75.6985C278.004 75.6283 278.724 72.6782 278.794 72.3622C279.444 72.3622 280.831 72.3622 282.411 70.7291C282.991 70.0969 283.517 69.2892 283.816 68.5341C283.992 68.0775 284.413 66.5147 284.413 65.6192C284.413 64.5656 283.886 64.4427 283.711 64.4427C283.289 64.4427 282.903 64.8641 282.903 65.2153C282.903 65.426 283.026 65.5489 283.096 65.6192C283.254 65.7772 283.728 66.2513 283.728 67.1644C283.728 67.7966 283.377 69.096 282.253 70.3603C280.778 72.011 279.426 72.011 278.899 72.011L281.779 60.4214Z" fill="black"/>
<path d="M447.165 121.142C446.832 121.142 446.674 121.142 446.428 121.353C446.322 121.44 446.129 121.704 446.129 121.985C446.129 122.336 446.393 122.547 446.726 122.547C447.148 122.547 447.622 122.196 447.622 121.493C447.622 120.65 446.814 120 445.602 120C443.301 120 441 122.512 441 125.006C441 126.534 441.949 127.922 443.74 127.922C446.129 127.922 447.64 126.06 447.64 125.832C447.64 125.726 447.534 125.638 447.464 125.638C447.411 125.638 447.394 125.656 447.236 125.814C446.112 127.307 444.443 127.571 443.775 127.571C442.563 127.571 442.177 126.517 442.177 125.638C442.177 125.024 442.475 123.32 443.108 122.125C443.565 121.3 444.513 120.351 445.62 120.351C445.848 120.351 446.814 120.386 447.165 121.142Z" fill="black"/>
<path d="M450.635 126.47C451.56 126.47 452.145 127.149 452.145 128.379C452.145 129.843 451.314 130.276 450.693 130.276C450.049 130.276 449.171 130.042 448.761 129.421C449.182 129.421 449.475 129.152 449.475 128.765C449.475 128.39 449.206 128.121 448.831 128.121C448.515 128.121 448.187 128.32 448.187 128.789C448.187 129.901 449.382 130.627 450.716 130.627C452.274 130.627 453.363 129.55 453.363 128.379C453.363 127.407 452.59 126.517 451.396 126.259C452.321 125.931 453.012 125.135 453.012 124.198C453.012 123.261 451.958 122.594 450.74 122.594C449.487 122.594 448.538 123.273 448.538 124.163C448.538 124.596 448.831 124.784 449.136 124.784C449.499 124.784 449.733 124.526 449.733 124.186C449.733 123.753 449.358 123.589 449.1 123.578C449.592 122.933 450.494 122.898 450.705 122.898C451.009 122.898 451.899 122.992 451.899 124.198C451.899 125.018 451.56 125.51 451.396 125.697C451.044 126.06 450.775 126.084 450.061 126.13C449.838 126.142 449.745 126.154 449.745 126.306C449.745 126.47 449.85 126.47 450.049 126.47H450.635Z" fill="black"/>
<path d="M520.166 56.1419C519.832 56.1419 519.674 56.1419 519.428 56.3527C519.323 56.4405 519.13 56.704 519.13 56.9851C519.13 57.3365 519.393 57.5473 519.727 57.5473C520.149 57.5473 520.623 57.1959 520.623 56.4932C520.623 55.65 519.815 55 518.603 55C516.301 55 514 57.5121 514 60.0067C514 61.5351 514.949 62.9229 516.741 62.9229C519.13 62.9229 520.64 61.0607 520.64 60.8324C520.64 60.727 520.535 60.6391 520.465 60.6391C520.412 60.6391 520.395 60.6567 520.236 60.8148C519.112 62.308 517.443 62.5716 516.776 62.5716C515.564 62.5716 515.177 61.5175 515.177 60.6391C515.177 60.0243 515.476 58.3202 516.108 57.1257C516.565 56.3 517.513 55.3513 518.62 55.3513C518.849 55.3513 519.815 55.3865 520.166 56.1419Z" fill="black"/>
<path d="M523.975 62.9932C524.163 62.8175 524.655 62.431 524.842 62.2671C525.568 61.5995 526.259 60.9554 526.259 59.8896C526.259 58.4959 525.088 57.5941 523.624 57.5941C522.218 57.5941 521.293 58.6599 521.293 59.7022C521.293 60.2761 521.75 60.3581 521.914 60.3581C522.16 60.3581 522.523 60.1824 522.523 59.7374C522.523 59.1284 521.937 59.1284 521.797 59.1284C522.137 58.2734 522.921 57.9806 523.495 57.9806C524.584 57.9806 525.146 58.9058 525.146 59.8896C525.146 61.1076 524.291 61.9977 522.909 63.4148L521.434 64.9373C521.293 65.0661 521.293 65.0896 521.293 65.3824H525.919L526.259 63.286H525.896C525.861 63.5202 525.767 64.1058 525.627 64.3283C525.556 64.422 524.666 64.422 524.479 64.422H522.394L523.975 62.9932Z" fill="black"/>
<path d="M371.164 56.1415C370.83 56.1415 370.672 56.1415 370.426 56.3522C370.321 56.44 370.128 56.7034 370.128 56.9844C370.128 57.3356 370.391 57.5464 370.725 57.5464C371.146 57.5464 371.621 57.1952 371.621 56.4927C371.621 55.6498 370.813 55 369.601 55C367.301 55 365 57.5113 365 60.0049C365 61.5328 365.948 62.9201 367.74 62.9201C370.128 62.9201 371.638 61.0586 371.638 60.8303C371.638 60.725 371.533 60.6371 371.463 60.6371C371.41 60.6371 371.392 60.6547 371.234 60.8128C370.11 62.3055 368.442 62.5689 367.775 62.5689C366.563 62.5689 366.177 61.5152 366.177 60.6371C366.177 60.0225 366.475 58.3191 367.107 57.1249C367.564 56.2995 368.512 55.3512 369.619 55.3512C369.847 55.3512 370.813 55.3863 371.164 56.1415Z" fill="black"/>
<path d="M375.346 57.9211C375.346 57.605 375.323 57.5932 375.007 57.5932C374.527 58.0615 373.906 58.3425 372.794 58.3425V58.7289C373.11 58.7289 373.742 58.7289 374.422 58.4128V64.4187C374.422 64.8519 374.386 64.9924 373.274 64.9924H372.864V65.3787C373.344 65.3436 374.351 65.3436 374.878 65.3436C375.405 65.3436 376.424 65.3436 376.904 65.3787V64.9924H376.494C375.382 64.9924 375.346 64.8519 375.346 64.4187V57.9211Z" fill="black"/>
</svg>
