<svg width="1060" height="288" viewBox="0 0 1060 288" fill="none" xmlns="http://www.w3.org/2000/svg">
<line x1="530.5" y1="2.18557e-08" x2="530.5" y2="288" stroke="#747474"/>
<path d="M112.263 51L207.526 106V216L112.263 271L17 216V106L112.263 51Z" stroke="#B33535" stroke-width="6"/>
<circle cx="112" cy="51" r="9" fill="#355FB3" stroke="white" stroke-width="3"/>
<circle cx="207" cy="106" r="9" fill="#355FB3" stroke="white" stroke-width="3"/>
<circle cx="17" cy="106" r="9" fill="#355FB3" stroke="white" stroke-width="3"/>
<circle cx="17" cy="216" r="9" fill="#355FB3" stroke="white" stroke-width="3"/>
<circle cx="207" cy="216" r="9" fill="#355FB3" stroke="white" stroke-width="3"/>
<circle cx="112" cy="271" r="9" fill="#355FB3" stroke="white" stroke-width="3"/>
<path d="M342.631 78.5L295 106V161M342.631 78.5L390.263 51L437.894 78.5M342.631 78.5H437.894M342.631 78.5L295 161M295 161V216L342.631 243.5M295 161L342.631 243.5M342.631 243.5L390.263 271L437.894 243.5M342.631 243.5H437.894M437.894 243.5L485.526 216V161M437.894 243.5L485.526 161M485.526 161V106L437.894 78.5M485.526 161L437.894 78.5" stroke="black" stroke-width="2"/>
<circle cx="390" cy="51" r="9" fill="#355FB3" stroke="white" stroke-width="3"/>
<circle cx="485" cy="106" r="9" fill="#355FB3" stroke="white" stroke-width="3"/>
<circle cx="485" cy="161" r="9" fill="#B33535" stroke="white" stroke-width="3"/>
<circle cx="295" cy="106" r="9" fill="#355FB3" stroke="white" stroke-width="3"/>
<circle cx="295" cy="161" r="9" fill="#B33535" stroke="white" stroke-width="3"/>
<circle cx="342.5" cy="78.5" r="9" fill="#B33535" stroke="white" stroke-width="3"/>
<circle cx="342.5" cy="243.5" r="9" fill="#B33535" stroke="white" stroke-width="3"/>
<circle cx="437.5" cy="78.5" r="9" fill="#B33535" stroke="white" stroke-width="3"/>
<circle cx="437.5" cy="243.5" r="9" fill="#B33535" stroke="white" stroke-width="3"/>
<circle cx="295" cy="216" r="9" fill="#355FB3" stroke="white" stroke-width="3"/>
<circle cx="485" cy="216" r="9" fill="#355FB3" stroke="white" stroke-width="3"/>
<circle cx="390" cy="271" r="9" fill="#355FB3" stroke="white" stroke-width="3"/>
<path d="M898.631 78.5L851 106H946.263M898.631 78.5L946.263 51L993.894 78.5M898.631 78.5H993.894M898.631 78.5L946.263 106M898.631 243.5L946.263 271L993.894 243.5M898.631 243.5L851 216H946.263M898.631 243.5H993.894M898.631 243.5L946.263 216M993.894 243.5L1041.53 216H946.263M993.894 243.5L946.263 216M993.894 78.5L1041.53 106H946.263M993.894 78.5L946.263 106" stroke="black" stroke-width="2"/>
<circle cx="946" cy="51" r="9" fill="#355FB3" stroke="white" stroke-width="3"/>
<circle cx="1041" cy="106" r="9" fill="#355FB3" stroke="white" stroke-width="3"/>
<circle cx="946" cy="216" r="9" fill="#B33535" stroke="white" stroke-width="3"/>
<circle cx="851" cy="106" r="9" fill="#355FB3" stroke="white" stroke-width="3"/>
<circle cx="946" cy="106" r="9" fill="#B33535" stroke="white" stroke-width="3"/>
<circle cx="898.5" cy="78.5" r="9" fill="#B33535" stroke="white" stroke-width="3"/>
<circle cx="898.5" cy="243.5" r="9" fill="#B33535" stroke="white" stroke-width="3"/>
<circle cx="993.5" cy="78.5" r="9" fill="#B33535" stroke="white" stroke-width="3"/>
<circle cx="993.5" cy="243.5" r="9" fill="#B33535" stroke="white" stroke-width="3"/>
<circle cx="851" cy="216" r="9" fill="#355FB3" stroke="white" stroke-width="3"/>
<circle cx="1041" cy="216" r="9" fill="#355FB3" stroke="white" stroke-width="3"/>
<circle cx="946" cy="271" r="9" fill="#355FB3" stroke="white" stroke-width="3"/>
<path d="M764.526 106L669.263 51L574 106H764.526Z" stroke="#B33535" stroke-width="6" stroke-linejoin="bevel"/>
<path d="M669.263 271L764.526 216H574L669.263 271Z" stroke="#B33535" stroke-width="6" stroke-linejoin="bevel"/>
<circle cx="670" cy="51" r="9" fill="#355FB3" stroke="white" stroke-width="3"/>
<circle cx="763" cy="106" r="9" fill="#355FB3" stroke="white" stroke-width="3"/>
<circle cx="575" cy="106" r="9" fill="#355FB3" stroke="white" stroke-width="3"/>
<circle cx="575" cy="216" r="9" fill="#355FB3" stroke="white" stroke-width="3"/>
<circle cx="763" cy="216" r="9" fill="#355FB3" stroke="white" stroke-width="3"/>
<circle cx="670" cy="271" r="9" fill="#355FB3" stroke="white" stroke-width="3"/>
<path d="M281 161L271 155.226V166.774L281 161ZM221 162H272V160H221V162Z" fill="black"/>
<path d="M837 161L827 155.226V166.774L837 161ZM777 162H828V160H777V162Z" fill="black"/>
<path d="M190.582 122.484H184.418L183.246 126H179.508L185.859 108.938H189.117L195.504 126H191.766L190.582 122.484ZM185.367 119.637H189.633L187.488 113.25L185.367 119.637Z" fill="#355FB3"/>
<path d="M595.582 133.484H589.418L588.246 137H584.508L590.859 119.938H594.117L600.504 137H596.766L595.582 133.484ZM590.367 130.637H594.633L592.488 124.25L590.367 130.637Z" fill="#355FB3"/>
<path d="M871.582 127.484H865.418L864.246 131H860.508L866.859 113.938H870.117L876.504 131H872.766L871.582 127.484ZM866.367 124.637H870.633L868.488 118.25L866.367 124.637Z" fill="#355FB3"/>
<path d="M509.582 111.484H503.418L502.246 115H498.508L504.859 97.9375H508.117L514.504 115H510.766L509.582 111.484ZM504.367 108.637H508.633L506.488 102.25L504.367 108.637Z" fill="#355FB3"/>
<path d="M27.8594 169V151.938H33.8359C35.9062 151.938 37.4766 152.336 38.5469 153.133C39.6172 153.922 40.1523 155.082 40.1523 156.613C40.1523 157.449 39.9375 158.188 39.5078 158.828C39.0781 159.461 38.4805 159.926 37.7148 160.223C38.5898 160.441 39.2773 160.883 39.7773 161.547C40.2852 162.211 40.5391 163.023 40.5391 163.984C40.5391 165.625 40.0156 166.867 38.9688 167.711C37.9219 168.555 36.4297 168.984 34.4922 169H27.8594ZM31.375 161.57V166.176H34.3867C35.2148 166.176 35.8594 165.98 36.3203 165.59C36.7891 165.191 37.0234 164.645 37.0234 163.949C37.0234 162.387 36.2148 161.594 34.5977 161.57H31.375ZM31.375 159.086H33.9766C35.75 159.055 36.6367 158.348 36.6367 156.965C36.6367 156.191 36.4102 155.637 35.957 155.301C35.5117 154.957 34.8047 154.785 33.8359 154.785H31.375V159.086Z" fill="#B33535"/>
<path d="M719.859 70V52.9375H725.836C727.906 52.9375 729.477 53.3359 730.547 54.1328C731.617 54.9219 732.152 56.082 732.152 57.6133C732.152 58.4492 731.938 59.1875 731.508 59.8281C731.078 60.4609 730.48 60.9258 729.715 61.2227C730.59 61.4414 731.277 61.8828 731.777 62.5469C732.285 63.2109 732.539 64.0234 732.539 64.9844C732.539 66.625 732.016 67.8672 730.969 68.7109C729.922 69.5547 728.43 69.9844 726.492 70H719.859ZM723.375 62.5703V67.1758H726.387C727.215 67.1758 727.859 66.9805 728.32 66.5898C728.789 66.1914 729.023 65.6445 729.023 64.9492C729.023 63.3867 728.215 62.5938 726.598 62.5703H723.375ZM723.375 60.0859H725.977C727.75 60.0547 728.637 59.3477 728.637 57.9648C728.637 57.1914 728.41 56.6367 727.957 56.3008C727.512 55.957 726.805 55.7852 725.836 55.7852H723.375V60.0859Z" fill="#B33535"/>
<path d="M1006.86 75V57.9375H1012.84C1014.91 57.9375 1016.48 58.3359 1017.55 59.1328C1018.62 59.9219 1019.15 61.082 1019.15 62.6133C1019.15 63.4492 1018.94 64.1875 1018.51 64.8281C1018.08 65.4609 1017.48 65.9258 1016.71 66.2227C1017.59 66.4414 1018.28 66.8828 1018.78 67.5469C1019.29 68.2109 1019.54 69.0234 1019.54 69.9844C1019.54 71.625 1019.02 72.8672 1017.97 73.7109C1016.92 74.5547 1015.43 74.9844 1013.49 75H1006.86ZM1010.38 67.5703V72.1758H1013.39C1014.21 72.1758 1014.86 71.9805 1015.32 71.5898C1015.79 71.1914 1016.02 70.6445 1016.02 69.9492C1016.02 68.3867 1015.21 67.5938 1013.6 67.5703H1010.38ZM1010.38 65.0859H1012.98C1014.75 65.0547 1015.64 64.3477 1015.64 62.9648C1015.64 62.1914 1015.41 61.6367 1014.96 61.3008C1014.51 60.957 1013.8 60.7852 1012.84 60.7852H1010.38V65.0859Z" fill="#B33535"/>
<path d="M310.859 169V151.938H316.836C318.906 151.938 320.477 152.336 321.547 153.133C322.617 153.922 323.152 155.082 323.152 156.613C323.152 157.449 322.938 158.188 322.508 158.828C322.078 159.461 321.48 159.926 320.715 160.223C321.59 160.441 322.277 160.883 322.777 161.547C323.285 162.211 323.539 163.023 323.539 163.984C323.539 165.625 323.016 166.867 321.969 167.711C320.922 168.555 319.43 168.984 317.492 169H310.859ZM314.375 161.57V166.176H317.387C318.215 166.176 318.859 165.98 319.32 165.59C319.789 165.191 320.023 164.645 320.023 163.949C320.023 162.387 319.215 161.594 317.598 161.57H314.375ZM314.375 159.086H316.977C318.75 159.055 319.637 158.348 319.637 156.965C319.637 156.191 319.41 155.637 318.957 155.301C318.512 154.957 317.805 154.785 316.836 154.785H314.375V159.086Z" fill="#B33535"/>
<path d="M398.411 5.14576C398.411 4.94647 398.256 4.94647 398.212 4.94647C398.168 4.94647 398.079 4.94647 397.902 5.1679L396.374 7.00576C396.264 6.82862 395.821 6.05362 394.957 5.54433C394.005 4.94647 393.053 4.94647 392.721 4.94647C387.982 4.94647 383 9.77362 383 14.9993C383 18.6529 385.524 21 388.846 21C390.44 21 392.455 20.4686 393.562 19.0736C393.806 19.915 394.293 20.5129 394.448 20.5129C394.559 20.5129 394.581 20.4465 394.603 20.4465C394.625 20.4022 394.802 19.6272 394.913 19.2286L395.267 17.8115C395.444 17.0808 395.533 16.7708 395.688 16.1065C395.909 15.265 395.954 15.1986 397.171 15.1765C397.26 15.1765 397.526 15.1765 397.526 14.7558C397.526 14.5343 397.304 14.5343 397.238 14.5343C396.861 14.5343 396.441 14.5786 396.042 14.5786H394.846C393.916 14.5786 392.942 14.5343 392.034 14.5343C391.835 14.5343 391.569 14.5343 391.569 14.9329C391.569 15.1543 391.746 15.1543 391.746 15.1765H392.3C394.049 15.1765 394.049 15.3536 394.049 15.6858C394.049 15.7079 393.629 17.9443 393.208 18.6086C392.366 19.8486 390.617 20.3579 389.311 20.3579C387.606 20.3579 384.838 19.4722 384.838 15.6415C384.838 14.1579 385.369 10.77 387.517 8.26791C388.912 6.67361 390.971 5.58861 392.92 5.58861C395.533 5.58861 396.463 7.82504 396.463 9.86219C396.463 10.2165 396.374 10.7036 396.374 11.0136C396.374 11.2129 396.596 11.2129 396.662 11.2129C396.906 11.2129 396.928 11.1908 397.016 10.7922L398.411 5.14576Z" fill="black"/>
<path d="M402.562 6.03387C400.274 7.12626 399.374 8.89768 399.374 9.85721C399.374 11.0677 400.643 11.7024 402.046 11.7024C404.644 11.7024 406.74 9.37005 406.74 9.06006C406.74 8.97149 406.666 8.94197 406.607 8.94197C406.519 8.94197 405.913 9.03054 405.441 9.65054C404.895 10.3591 404.157 10.8463 403.079 10.8463C402.075 10.8463 400.688 10.4182 400.688 9.20768C400.688 8.3515 401.603 6.34387 403.98 6.27006C404.777 6.24054 405.279 5.67959 405.279 5.53198C405.279 5.42863 405.175 5.41386 405.116 5.41386C402.828 5.32529 402.43 4.3215 402.43 3.74577C402.43 3.09626 402.828 1.85626 404.821 1.85626C405.087 1.85626 405.441 1.88578 405.81 2.01864C405.972 2.06292 406.342 2.18102 406.342 2.66815C406.342 2.8896 406.238 3.06674 406.179 3.15531C406.15 3.21435 406.105 3.2734 406.105 3.33245C406.105 3.39149 406.164 3.45054 406.253 3.45054C406.666 3.45054 407.655 2.90436 407.655 2.01864C407.655 1.11815 406.489 1.00006 405.869 1.00006C403.67 1.00006 401.116 2.6091 401.116 4.39531C401.116 5.03006 401.5 5.67959 402.562 6.03387Z" fill="black"/>
<path d="M120.411 5.47767C120.411 5.27838 120.256 5.27838 120.212 5.27838C120.168 5.27838 120.079 5.27838 119.902 5.49981L118.374 7.33767C118.264 7.16053 117.821 6.38553 116.957 5.87624C116.005 5.27838 115.053 5.27838 114.721 5.27838C109.982 5.27838 105 10.1055 105 15.3312C105 18.9848 107.524 21.332 110.846 21.332C112.44 21.332 114.455 20.8005 115.562 19.4055C115.806 20.247 116.293 20.8448 116.448 20.8448C116.559 20.8448 116.581 20.7784 116.603 20.7784C116.625 20.7341 116.802 19.9591 116.913 19.5605L117.267 18.1434C117.444 17.4127 117.533 17.1027 117.688 16.4384C117.909 15.597 117.954 15.5305 119.171 15.5084C119.26 15.5084 119.526 15.5084 119.526 15.0877C119.526 14.8662 119.304 14.8662 119.238 14.8662C118.861 14.8662 118.441 14.9105 118.042 14.9105H116.846C115.916 14.9105 114.942 14.8662 114.034 14.8662C113.835 14.8662 113.569 14.8662 113.569 15.2648C113.569 15.4862 113.746 15.4862 113.746 15.5084H114.3C116.049 15.5084 116.049 15.6855 116.049 16.0177C116.049 16.0398 115.629 18.2762 115.208 18.9405C114.366 20.1805 112.617 20.6898 111.311 20.6898C109.606 20.6898 106.838 19.8041 106.838 15.9734C106.838 14.4898 107.369 11.102 109.517 8.59982C110.912 7.00552 112.971 5.92052 114.92 5.92052C117.533 5.92052 118.463 8.15695 118.463 10.1941C118.463 10.5484 118.374 11.0355 118.374 11.3455C118.374 11.5448 118.596 11.5448 118.662 11.5448C118.906 11.5448 118.928 11.5227 119.016 11.1241L120.411 5.47767Z" fill="black"/>
<path d="M952.544 7.02787C952.744 6.27501 952.788 6.05358 954.36 6.05358C954.759 6.05358 954.98 6.05358 954.98 5.65501C954.98 5.41144 954.781 5.41144 954.648 5.41144C954.249 5.41144 953.784 5.45572 953.364 5.45572H950.751C950.33 5.45572 949.865 5.41144 949.444 5.41144C949.289 5.41144 949.024 5.41144 949.024 5.83215C949.024 6.05358 949.179 6.05358 949.599 6.05358C950.928 6.05358 950.928 6.23072 950.928 6.4743C950.928 6.51858 950.928 6.65144 950.839 6.98359L949.489 12.3422H942.801L944.13 7.02787C944.329 6.27501 944.374 6.05358 945.946 6.05358C946.344 6.05358 946.566 6.05358 946.566 5.65501C946.566 5.41144 946.366 5.41144 946.234 5.41144C945.835 5.41144 945.37 5.45572 944.949 5.45572H942.336C941.916 5.45572 941.451 5.41144 941.03 5.41144C940.875 5.41144 940.609 5.41144 940.609 5.83215C940.609 6.05358 940.764 6.05358 941.185 6.05358C942.514 6.05358 942.514 6.23072 942.514 6.4743C942.514 6.51858 942.514 6.65144 942.425 6.98359L939.436 18.8964C939.236 19.6714 939.192 19.8929 937.664 19.8929C937.155 19.8929 937 19.8929 937 20.3136C937 20.535 937.244 20.535 937.31 20.535C937.709 20.535 938.174 20.4907 938.594 20.4907H941.207C941.628 20.4907 942.093 20.535 942.514 20.535C942.691 20.535 942.934 20.535 942.934 20.1143C942.934 19.8929 942.735 19.8929 942.403 19.8929C941.052 19.8929 941.052 19.7157 941.052 19.4943C941.052 19.4722 941.052 19.3172 941.096 19.14L942.624 12.9843H949.334C948.957 14.4457 947.828 19.0736 947.784 19.2064C947.54 19.8707 947.186 19.8707 945.879 19.8929C945.614 19.8929 945.414 19.8929 945.414 20.3136C945.414 20.535 945.658 20.535 945.724 20.535C946.123 20.535 946.588 20.4907 947.009 20.4907H949.621C950.042 20.4907 950.507 20.535 950.928 20.535C951.105 20.535 951.349 20.535 951.349 20.1143C951.349 19.8929 951.149 19.8929 950.817 19.8929C949.466 19.8929 949.466 19.7157 949.466 19.4943C949.466 19.4722 949.466 19.3172 949.511 19.14L952.544 7.02787Z" fill="black"/>
<path d="M959.22 6.03381C956.932 7.1262 956.032 8.89762 956.032 9.85715C956.032 11.0676 957.301 11.7024 958.704 11.7024C961.302 11.7024 963.398 9.36999 963.398 9.06C963.398 8.97143 963.324 8.9419 963.265 8.9419C963.177 8.9419 962.571 9.03047 962.099 9.65048C961.553 10.359 960.815 10.8462 959.737 10.8462C958.733 10.8462 957.346 10.4181 957.346 9.20762C957.346 8.35144 958.261 6.34381 960.637 6.27C961.435 6.24048 961.937 5.67953 961.937 5.53192C961.937 5.42856 961.833 5.4138 961.774 5.4138C959.486 5.32523 959.087 4.32144 959.087 3.74571C959.087 3.0962 959.486 1.8562 961.479 1.8562C961.745 1.8562 962.099 1.88572 962.468 2.01858C962.63 2.06286 962.999 2.18095 962.999 2.66809C962.999 2.88953 962.896 3.06667 962.837 3.15524C962.807 3.21429 962.763 3.27334 962.763 3.33239C962.763 3.39143 962.822 3.45048 962.911 3.45048C963.324 3.45048 964.313 2.9043 964.313 2.01858C964.313 1.11809 963.147 1 962.527 1C960.327 1 957.774 2.60904 957.774 4.39525C957.774 5.03 958.157 5.67953 959.22 6.03381Z" fill="black"/>
<path d="M676.544 7.61643C676.744 6.86357 676.788 6.64214 678.36 6.64214C678.759 6.64214 678.98 6.64214 678.98 6.24358C678.98 6 678.781 6 678.648 6C678.249 6 677.784 6.04428 677.364 6.04428H674.751C674.33 6.04428 673.865 6 673.444 6C673.289 6 673.024 6 673.024 6.42072C673.024 6.64214 673.179 6.64214 673.599 6.64214C674.928 6.64214 674.928 6.81928 674.928 7.06286C674.928 7.10715 674.928 7.24 674.839 7.57215L673.489 12.9307H666.801L668.13 7.61643C668.329 6.86357 668.374 6.64214 669.946 6.64214C670.344 6.64214 670.566 6.64214 670.566 6.24358C670.566 6 670.366 6 670.234 6C669.835 6 669.37 6.04428 668.949 6.04428H666.336C665.916 6.04428 665.451 6 665.03 6C664.875 6 664.609 6 664.609 6.42072C664.609 6.64214 664.764 6.64214 665.185 6.64214C666.514 6.64214 666.514 6.81928 666.514 7.06286C666.514 7.10715 666.514 7.24 666.425 7.57215L663.436 19.485C663.236 20.26 663.192 20.4814 661.664 20.4814C661.155 20.4814 661 20.4814 661 20.9021C661 21.1236 661.244 21.1236 661.31 21.1236C661.709 21.1236 662.174 21.0793 662.594 21.0793H665.207C665.628 21.0793 666.093 21.1236 666.514 21.1236C666.691 21.1236 666.934 21.1236 666.934 20.7029C666.934 20.4814 666.735 20.4814 666.403 20.4814C665.052 20.4814 665.052 20.3043 665.052 20.0829C665.052 20.0607 665.052 19.9057 665.096 19.7286L666.624 13.5729H673.334C672.957 15.0343 671.828 19.6621 671.784 19.795C671.54 20.4593 671.186 20.4593 669.879 20.4814C669.614 20.4814 669.414 20.4814 669.414 20.9021C669.414 21.1236 669.658 21.1236 669.724 21.1236C670.123 21.1236 670.588 21.0793 671.009 21.0793H673.621C674.042 21.0793 674.507 21.1236 674.928 21.1236C675.105 21.1236 675.349 21.1236 675.349 20.7029C675.349 20.4814 675.149 20.4814 674.817 20.4814C673.466 20.4814 673.466 20.3043 673.466 20.0829C673.466 20.0607 673.466 19.9057 673.511 19.7286L676.544 7.61643Z" fill="black"/>
</svg>
