<svg width="617" height="333" viewBox="0 0 617 333" fill="none" xmlns="http://www.w3.org/2000/svg">
<path d="M590 163.5L585 160.613V166.387L590 163.5ZM544.61 163.188L523.617 189.429L524.398 190.053L545.39 163.812L544.61 163.188ZM544.517 163.371L520.456 253.601L521.422 253.859L545.483 163.629L544.517 163.371ZM545 164H585.5V163H545V164ZM522.079 107.544L544.536 163.686L545.464 163.314L523.008 107.173L522.079 107.544ZM482.5 89H494.689V88H482.5V89ZM500.581 200.5H472.5V201.5H500.581V200.5ZM491.952 275.5H472.5V276.5H491.952V275.5ZM523.008 107.173C518.376 95.593 507.161 88 494.689 88V89C506.752 89 517.599 96.3441 522.079 107.544L523.008 107.173ZM520.456 253.601C517.012 266.515 505.317 275.5 491.952 275.5V276.5C505.77 276.5 517.861 267.21 521.422 253.859L520.456 253.601ZM523.617 189.429C518.019 196.426 509.543 200.5 500.581 200.5V201.5C509.847 201.5 518.61 197.288 524.398 190.053L523.617 189.429Z" fill="black"/>
<path d="M450 88.5L445 85.6132V91.3868L450 88.5ZM450 201L445 198.113V203.887L450 201ZM450 276L445 273.113V278.887L450 276ZM404.007 62.2591L403.617 62.5715L404.007 62.2591ZM380.581 50.5H365V51.5H380.581V50.5ZM380.581 125.5H365V126.5H380.581V125.5ZM404.398 115.053L425.39 88.8123L424.61 88.1877L403.617 114.429L404.398 115.053ZM425.39 88.1877L404.398 61.9468L403.617 62.5715L424.61 88.8123L425.39 88.1877ZM425 89H445.5V88H425V89ZM445.5 200.5H365V201.5H445.5V200.5ZM445.5 275.5H365V276.5H445.5V275.5ZM380.581 126.5C389.847 126.5 398.61 122.288 404.398 115.053L403.617 114.429C398.019 121.426 389.543 125.5 380.581 125.5V126.5ZM380.581 51.5C389.543 51.5 398.019 55.5736 403.617 62.5715L404.398 61.9468C398.61 54.7117 389.847 50.5 380.581 50.5V51.5Z" fill="black"/>
<path d="M603.146 169.715C602.672 170.383 601.987 170.98 601.126 170.98C600.915 170.98 600.072 170.945 599.808 170.137C599.861 170.154 599.949 170.154 599.984 170.154C600.511 170.154 600.862 169.697 600.862 169.293C600.862 168.889 600.528 168.749 600.265 168.749C599.984 168.749 599.369 168.96 599.369 169.82C599.369 170.716 600.124 171.331 601.126 171.331C602.882 171.331 604.657 169.715 605.149 167.765L606.87 160.914C606.888 160.826 606.923 160.72 606.923 160.615C606.923 160.351 606.712 160.176 606.449 160.176C606.291 160.176 605.922 160.246 605.781 160.773L604.481 165.938C604.393 166.254 604.393 166.289 604.253 166.483C603.901 166.974 603.322 167.572 602.478 167.572C601.495 167.572 601.407 166.605 601.407 166.131C601.407 165.13 601.881 163.777 602.355 162.512C602.549 162.003 602.654 161.757 602.654 161.405C602.654 160.668 602.127 160 601.266 160C599.65 160 599 162.547 599 162.688C599 162.758 599.07 162.846 599.193 162.846C599.351 162.846 599.369 162.776 599.439 162.53C599.861 161.054 600.528 160.351 601.214 160.351C601.372 160.351 601.67 160.351 601.67 160.931C601.67 161.388 601.477 161.897 601.214 162.565C600.353 164.866 600.353 165.446 600.353 165.868C600.353 167.537 601.547 167.923 602.426 167.923C602.935 167.923 603.568 167.765 604.182 167.115L604.2 167.133C603.937 168.169 603.761 168.854 603.146 169.715Z" fill="#355FB3"/>
<path d="M616.216 162.454C616.228 162.407 616.251 162.337 616.251 162.278C616.251 162.196 616.181 162.137 616.099 162.137C616.017 162.137 615.982 162.173 615.888 162.278L615.068 163.18C614.529 162.43 613.768 162.137 612.972 162.137C610.231 162.137 607.502 164.667 607.502 167.349C607.502 169.305 608.954 170.629 610.946 170.629C612.21 170.629 613.147 170.172 613.581 169.668C613.721 170.043 614.002 170.371 614.119 170.371C614.166 170.371 614.225 170.347 614.248 170.301C614.319 170.102 614.6 168.907 614.682 168.579C614.787 168.11 614.869 167.783 614.939 167.689C615.045 167.548 615.267 167.537 615.619 167.537C615.677 167.537 615.853 167.537 615.853 167.326C615.853 167.209 615.771 167.15 615.677 167.15C615.595 167.15 615.455 167.185 614.319 167.185C614.026 167.185 613.628 167.185 613.452 167.174C613.276 167.162 612.808 167.15 612.632 167.15C612.562 167.15 612.386 167.15 612.386 167.373C612.386 167.537 612.515 167.537 612.819 167.537C613.065 167.537 613.51 167.537 613.791 167.642C613.803 167.665 613.815 167.736 613.815 167.783C613.815 167.841 613.745 168.099 613.71 168.251C613.639 168.556 613.51 169.047 613.464 169.165C613.089 169.949 611.953 170.242 611.145 170.242C609.985 170.242 608.627 169.633 608.627 167.724C608.627 166.752 609.025 165.065 610.055 163.941C611.18 162.723 612.445 162.524 613.054 162.524C614.482 162.524 615.138 163.648 615.138 164.831C615.138 164.995 615.092 165.206 615.092 165.346C615.092 165.499 615.244 165.499 615.291 165.499C615.443 165.499 615.466 165.452 615.513 165.241L616.216 162.454Z" fill="#355FB3"/>
<path d="M336.472 9.0708H331.851V12.8501H337.219V14H330.444V3.33594H337.146V4.49316H331.851V7.9209H336.472V9.0708ZM341.182 12.1616L343.145 6.0752H344.529L341.687 14H340.654L337.783 6.0752H339.167L341.182 12.1616ZM350.608 14C350.53 13.8438 350.466 13.5654 350.417 13.165C349.788 13.8193 349.036 14.1465 348.162 14.1465C347.38 14.1465 346.738 13.9268 346.235 13.4873C345.737 13.043 345.488 12.4814 345.488 11.8027C345.488 10.9775 345.801 10.3379 346.426 9.88379C347.056 9.4248 347.939 9.19531 349.077 9.19531H350.396V8.57275C350.396 8.09912 350.254 7.72314 349.971 7.44482C349.688 7.16162 349.27 7.02002 348.718 7.02002C348.235 7.02002 347.83 7.14209 347.502 7.38623C347.175 7.63037 347.012 7.92578 347.012 8.27246H345.649C345.649 7.87695 345.789 7.49609 346.067 7.12988C346.35 6.75879 346.731 6.46582 347.209 6.25098C347.693 6.03613 348.223 5.92871 348.799 5.92871C349.712 5.92871 350.427 6.1582 350.945 6.61719C351.462 7.07129 351.731 7.69873 351.75 8.49951V12.147C351.75 12.8745 351.843 13.4531 352.029 13.8828V14H350.608ZM348.359 12.9673C348.784 12.9673 349.187 12.8574 349.568 12.6377C349.949 12.418 350.225 12.1323 350.396 11.7808V10.1548H349.333C347.673 10.1548 346.843 10.6406 346.843 11.6123C346.843 12.0371 346.985 12.3691 347.268 12.6084C347.551 12.8477 347.915 12.9673 348.359 12.9673ZM355.347 14H353.992V2.75H355.347V14ZM362.415 13.2163C361.887 13.8364 361.113 14.1465 360.093 14.1465C359.248 14.1465 358.604 13.9023 358.159 13.4141C357.72 12.9209 357.498 12.1934 357.493 11.2314V6.0752H358.848V11.1948C358.848 12.396 359.336 12.9966 360.312 12.9966C361.348 12.9966 362.036 12.6108 362.378 11.8394V6.0752H363.733V14H362.444L362.415 13.2163ZM370.691 14C370.613 13.8438 370.549 13.5654 370.5 13.165C369.871 13.8193 369.119 14.1465 368.245 14.1465C367.463 14.1465 366.821 13.9268 366.318 13.4873C365.82 13.043 365.571 12.4814 365.571 11.8027C365.571 10.9775 365.884 10.3379 366.509 9.88379C367.139 9.4248 368.022 9.19531 369.16 9.19531H370.479V8.57275C370.479 8.09912 370.337 7.72314 370.054 7.44482C369.771 7.16162 369.353 7.02002 368.801 7.02002C368.318 7.02002 367.913 7.14209 367.585 7.38623C367.258 7.63037 367.095 7.92578 367.095 8.27246H365.732C365.732 7.87695 365.872 7.49609 366.15 7.12988C366.433 6.75879 366.814 6.46582 367.292 6.25098C367.776 6.03613 368.306 5.92871 368.882 5.92871C369.795 5.92871 370.51 6.1582 371.028 6.61719C371.545 7.07129 371.814 7.69873 371.833 8.49951V12.147C371.833 12.8745 371.926 13.4531 372.112 13.8828V14H370.691ZM368.442 12.9673C368.867 12.9673 369.27 12.8574 369.651 12.6377C370.032 12.418 370.308 12.1323 370.479 11.7808V10.1548H369.417C367.756 10.1548 366.926 10.6406 366.926 11.6123C366.926 12.0371 367.068 12.3691 367.351 12.6084C367.634 12.8477 367.998 12.9673 368.442 12.9673ZM375.796 4.15625V6.0752H377.275V7.12256H375.796V12.0371C375.796 12.3545 375.862 12.5938 375.994 12.7549C376.125 12.9111 376.35 12.9893 376.667 12.9893C376.824 12.9893 377.039 12.96 377.312 12.9014V14C376.956 14.0977 376.609 14.1465 376.272 14.1465C375.667 14.1465 375.21 13.9634 374.902 13.5972C374.595 13.231 374.441 12.7109 374.441 12.0371V7.12256H372.998V6.0752H374.441V4.15625H375.796ZM382.153 14.1465C381.079 14.1465 380.205 13.7949 379.531 13.0918C378.857 12.3838 378.521 11.439 378.521 10.2573V10.0083C378.521 9.22217 378.669 8.52148 378.967 7.90625C379.27 7.28613 379.69 6.80273 380.227 6.45605C380.769 6.10449 381.355 5.92871 381.985 5.92871C383.015 5.92871 383.816 6.26807 384.387 6.94678C384.958 7.62549 385.244 8.59717 385.244 9.86182V10.4258H379.875C379.895 11.207 380.122 11.8394 380.557 12.3228C380.996 12.8013 381.553 13.0405 382.227 13.0405C382.705 13.0405 383.11 12.9429 383.442 12.7476C383.774 12.5522 384.065 12.2935 384.314 11.9712L385.142 12.6157C384.478 13.6362 383.481 14.1465 382.153 14.1465ZM381.985 7.04199C381.438 7.04199 380.979 7.24219 380.608 7.64258C380.237 8.03809 380.007 8.59473 379.919 9.3125H383.889V9.20996C383.85 8.52148 383.665 7.98926 383.333 7.61328C383 7.23242 382.551 7.04199 381.985 7.04199Z" fill="black"/>
<path d="M455.912 324.825V329H454.506V318.336H458.439C459.606 318.336 460.519 318.634 461.178 319.229C461.842 319.825 462.174 320.614 462.174 321.595C462.174 322.63 461.85 323.429 461.2 323.99C460.556 324.547 459.63 324.825 458.424 324.825H455.912ZM455.912 323.675H458.439C459.191 323.675 459.767 323.5 460.167 323.148C460.568 322.792 460.768 322.279 460.768 321.61C460.768 320.975 460.568 320.467 460.167 320.086C459.767 319.706 459.218 319.508 458.52 319.493H455.912V323.675ZM463.295 324.964C463.295 324.188 463.446 323.49 463.749 322.87C464.057 322.25 464.481 321.771 465.023 321.434C465.57 321.097 466.193 320.929 466.891 320.929C467.97 320.929 468.842 321.302 469.506 322.049C470.175 322.796 470.509 323.79 470.509 325.03V325.125C470.509 325.897 470.36 326.59 470.062 327.206C469.77 327.816 469.347 328.292 468.795 328.634C468.249 328.976 467.619 329.146 466.906 329.146C465.832 329.146 464.96 328.773 464.291 328.026C463.627 327.279 463.295 326.29 463.295 325.06V324.964ZM464.657 325.125C464.657 326.004 464.86 326.71 465.265 327.242C465.675 327.774 466.222 328.041 466.906 328.041C467.594 328.041 468.141 327.772 468.546 327.235C468.952 326.693 469.154 325.936 469.154 324.964C469.154 324.095 468.947 323.392 468.532 322.855C468.122 322.313 467.575 322.042 466.891 322.042C466.222 322.042 465.683 322.308 465.272 322.84C464.862 323.373 464.657 324.134 464.657 325.125ZM471.85 324.964C471.85 324.188 472.001 323.49 472.304 322.87C472.611 322.25 473.036 321.771 473.578 321.434C474.125 321.097 474.748 320.929 475.446 320.929C476.525 320.929 477.396 321.302 478.061 322.049C478.729 322.796 479.064 323.79 479.064 325.03V325.125C479.064 325.897 478.915 326.59 478.617 327.206C478.324 327.816 477.902 328.292 477.35 328.634C476.803 328.976 476.173 329.146 475.46 329.146C474.386 329.146 473.515 328.773 472.846 328.026C472.182 327.279 471.85 326.29 471.85 325.06V324.964ZM473.212 325.125C473.212 326.004 473.415 326.71 473.82 327.242C474.23 327.774 474.777 328.041 475.46 328.041C476.149 328.041 476.696 327.772 477.101 327.235C477.506 326.693 477.709 325.936 477.709 324.964C477.709 324.095 477.501 323.392 477.086 322.855C476.676 322.313 476.129 322.042 475.446 322.042C474.777 322.042 474.237 322.308 473.827 322.84C473.417 323.373 473.212 324.134 473.212 325.125ZM482.235 329H480.88V317.75H482.235V329ZM485.883 329H484.528V321.075H485.883V329ZM484.418 318.973C484.418 318.753 484.484 318.568 484.616 318.417C484.752 318.265 484.953 318.189 485.216 318.189C485.48 318.189 485.68 318.265 485.817 318.417C485.954 318.568 486.022 318.753 486.022 318.973C486.022 319.193 485.954 319.376 485.817 319.522C485.68 319.669 485.48 319.742 485.216 319.742C484.953 319.742 484.752 319.669 484.616 319.522C484.484 319.376 484.418 319.193 484.418 318.973ZM489.34 321.075L489.384 322.071C489.989 321.31 490.78 320.929 491.757 320.929C493.432 320.929 494.276 321.874 494.291 323.763V329H492.936V323.756C492.931 323.185 492.799 322.762 492.541 322.489C492.287 322.215 491.889 322.079 491.347 322.079C490.907 322.079 490.521 322.196 490.189 322.43C489.857 322.665 489.599 322.972 489.413 323.353V329H488.058V321.075H489.34ZM496.012 324.972C496.012 323.736 496.298 322.755 496.869 322.027C497.44 321.295 498.197 320.929 499.14 320.929C500.106 320.929 500.861 321.271 501.403 321.954L501.469 321.075H502.707V328.81C502.707 329.835 502.401 330.643 501.791 331.234C501.186 331.825 500.37 332.12 499.345 332.12C498.773 332.12 498.214 331.998 497.667 331.754C497.121 331.51 496.703 331.175 496.415 330.75L497.118 329.938C497.699 330.655 498.41 331.014 499.25 331.014C499.909 331.014 500.421 330.829 500.788 330.458C501.159 330.086 501.344 329.564 501.344 328.89V328.209C500.802 328.834 500.062 329.146 499.125 329.146C498.197 329.146 497.445 328.773 496.869 328.026C496.298 327.279 496.012 326.261 496.012 324.972ZM497.375 325.125C497.375 326.019 497.558 326.722 497.924 327.235C498.29 327.743 498.803 327.997 499.462 327.997C500.316 327.997 500.944 327.608 501.344 326.832V323.214C500.929 322.457 500.307 322.079 499.477 322.079C498.817 322.079 498.302 322.335 497.931 322.848C497.56 323.36 497.375 324.12 497.375 325.125Z" fill="black"/>
<path d="M538.144 11.2168H533.676L532.673 14H531.223L535.295 3.33594H536.525L540.605 14H539.162L538.144 11.2168ZM534.101 10.0596H537.727L535.91 5.07178L534.101 10.0596ZM541.506 9.97168C541.506 8.73633 541.792 7.75488 542.363 7.02734C542.934 6.29492 543.691 5.92871 544.633 5.92871C545.6 5.92871 546.354 6.27051 546.896 6.9541L546.962 6.0752H548.2V13.8096C548.2 14.835 547.895 15.6431 547.285 16.2339C546.679 16.8247 545.864 17.1201 544.838 17.1201C544.267 17.1201 543.708 16.998 543.161 16.7539C542.614 16.5098 542.197 16.1753 541.909 15.7505L542.612 14.9375C543.193 15.6553 543.903 16.0142 544.743 16.0142C545.402 16.0142 545.915 15.8286 546.281 15.4575C546.652 15.0864 546.838 14.564 546.838 13.8901V13.209C546.296 13.834 545.556 14.1465 544.619 14.1465C543.691 14.1465 542.939 13.7729 542.363 13.0259C541.792 12.2788 541.506 11.2607 541.506 9.97168ZM542.868 10.1255C542.868 11.019 543.051 11.7222 543.417 12.2349C543.784 12.7427 544.296 12.9966 544.956 12.9966C545.81 12.9966 546.438 12.6084 546.838 11.832V8.21387C546.423 7.45703 545.8 7.07861 544.97 7.07861C544.311 7.07861 543.796 7.33496 543.425 7.84766C543.054 8.36035 542.868 9.11963 542.868 10.1255ZM549.929 9.97168C549.929 8.73633 550.214 7.75488 550.786 7.02734C551.357 6.29492 552.114 5.92871 553.056 5.92871C554.023 5.92871 554.777 6.27051 555.319 6.9541L555.385 6.0752H556.623V13.8096C556.623 14.835 556.318 15.6431 555.708 16.2339C555.102 16.8247 554.287 17.1201 553.261 17.1201C552.69 17.1201 552.131 16.998 551.584 16.7539C551.037 16.5098 550.62 16.1753 550.332 15.7505L551.035 14.9375C551.616 15.6553 552.326 16.0142 553.166 16.0142C553.825 16.0142 554.338 15.8286 554.704 15.4575C555.075 15.0864 555.261 14.564 555.261 13.8901V13.209C554.719 13.834 553.979 14.1465 553.042 14.1465C552.114 14.1465 551.362 13.7729 550.786 13.0259C550.214 12.2788 549.929 11.2607 549.929 9.97168ZM551.291 10.1255C551.291 11.019 551.474 11.7222 551.84 12.2349C552.207 12.7427 552.719 12.9966 553.378 12.9966C554.233 12.9966 554.86 12.6084 555.261 11.832V8.21387C554.846 7.45703 554.223 7.07861 553.393 7.07861C552.734 7.07861 552.219 7.33496 551.848 7.84766C551.477 8.36035 551.291 9.11963 551.291 10.1255ZM562.504 7.29102C562.299 7.25684 562.077 7.23975 561.838 7.23975C560.949 7.23975 560.346 7.61816 560.029 8.375V14H558.674V6.0752H559.992L560.014 6.99072C560.458 6.28271 561.088 5.92871 561.904 5.92871C562.167 5.92871 562.368 5.96289 562.504 6.03125V7.29102ZM566.899 14.1465C565.825 14.1465 564.951 13.7949 564.277 13.0918C563.603 12.3838 563.266 11.439 563.266 10.2573V10.0083C563.266 9.22217 563.415 8.52148 563.713 7.90625C564.016 7.28613 564.436 6.80273 564.973 6.45605C565.515 6.10449 566.101 5.92871 566.73 5.92871C567.761 5.92871 568.562 6.26807 569.133 6.94678C569.704 7.62549 569.99 8.59717 569.99 9.86182V10.4258H564.621C564.641 11.207 564.868 11.8394 565.302 12.3228C565.742 12.8013 566.298 13.0405 566.972 13.0405C567.451 13.0405 567.856 12.9429 568.188 12.7476C568.52 12.5522 568.811 12.2935 569.06 11.9712L569.887 12.6157C569.223 13.6362 568.227 14.1465 566.899 14.1465ZM566.73 7.04199C566.184 7.04199 565.725 7.24219 565.354 7.64258C564.982 8.03809 564.753 8.59473 564.665 9.3125H568.635V9.20996C568.596 8.52148 568.41 7.98926 568.078 7.61328C567.746 7.23242 567.297 7.04199 566.73 7.04199ZM571.242 9.97168C571.242 8.73633 571.528 7.75488 572.099 7.02734C572.67 6.29492 573.427 5.92871 574.37 5.92871C575.336 5.92871 576.091 6.27051 576.633 6.9541L576.699 6.0752H577.937V13.8096C577.937 14.835 577.631 15.6431 577.021 16.2339C576.416 16.8247 575.6 17.1201 574.575 17.1201C574.003 17.1201 573.444 16.998 572.897 16.7539C572.351 16.5098 571.933 16.1753 571.645 15.7505L572.348 14.9375C572.929 15.6553 573.64 16.0142 574.479 16.0142C575.139 16.0142 575.651 15.8286 576.018 15.4575C576.389 15.0864 576.574 14.564 576.574 13.8901V13.209C576.032 13.834 575.292 14.1465 574.355 14.1465C573.427 14.1465 572.675 13.7729 572.099 13.0259C571.528 12.2788 571.242 11.2607 571.242 9.97168ZM572.604 10.1255C572.604 11.019 572.788 11.7222 573.154 12.2349C573.52 12.7427 574.033 12.9966 574.692 12.9966C575.546 12.9966 576.174 12.6084 576.574 11.832V8.21387C576.159 7.45703 575.537 7.07861 574.707 7.07861C574.047 7.07861 573.532 7.33496 573.161 7.84766C572.79 8.36035 572.604 9.11963 572.604 10.1255ZM584.88 14C584.802 13.8438 584.738 13.5654 584.689 13.165C584.06 13.8193 583.308 14.1465 582.434 14.1465C581.652 14.1465 581.01 13.9268 580.507 13.4873C580.009 13.043 579.76 12.4814 579.76 11.8027C579.76 10.9775 580.073 10.3379 580.698 9.88379C581.328 9.4248 582.211 9.19531 583.349 9.19531H584.667V8.57275C584.667 8.09912 584.526 7.72314 584.243 7.44482C583.959 7.16162 583.542 7.02002 582.99 7.02002C582.507 7.02002 582.102 7.14209 581.774 7.38623C581.447 7.63037 581.284 7.92578 581.284 8.27246H579.921C579.921 7.87695 580.061 7.49609 580.339 7.12988C580.622 6.75879 581.003 6.46582 581.481 6.25098C581.965 6.03613 582.495 5.92871 583.071 5.92871C583.984 5.92871 584.699 6.1582 585.217 6.61719C585.734 7.07129 586.003 7.69873 586.022 8.49951V12.147C586.022 12.8745 586.115 13.4531 586.301 13.8828V14H584.88ZM582.631 12.9673C583.056 12.9673 583.459 12.8574 583.84 12.6377C584.221 12.418 584.497 12.1323 584.667 11.7808V10.1548H583.605C581.945 10.1548 581.115 10.6406 581.115 11.6123C581.115 12.0371 581.257 12.3691 581.54 12.6084C581.823 12.8477 582.187 12.9673 582.631 12.9673ZM589.985 4.15625V6.0752H591.464V7.12256H589.985V12.0371C589.985 12.3545 590.051 12.5938 590.183 12.7549C590.314 12.9111 590.539 12.9893 590.856 12.9893C591.013 12.9893 591.228 12.96 591.501 12.9014V14C591.145 14.0977 590.798 14.1465 590.461 14.1465C589.855 14.1465 589.399 13.9634 589.091 13.5972C588.784 13.231 588.63 12.7109 588.63 12.0371V7.12256H587.187V6.0752H588.63V4.15625H589.985ZM596.342 14.1465C595.268 14.1465 594.394 13.7949 593.72 13.0918C593.046 12.3838 592.709 11.439 592.709 10.2573V10.0083C592.709 9.22217 592.858 8.52148 593.156 7.90625C593.459 7.28613 593.879 6.80273 594.416 6.45605C594.958 6.10449 595.544 5.92871 596.174 5.92871C597.204 5.92871 598.005 6.26807 598.576 6.94678C599.147 7.62549 599.433 8.59717 599.433 9.86182V10.4258H594.064C594.084 11.207 594.311 11.8394 594.746 12.3228C595.185 12.8013 595.742 13.0405 596.416 13.0405C596.894 13.0405 597.299 12.9429 597.631 12.7476C597.963 12.5522 598.254 12.2935 598.503 11.9712L599.331 12.6157C598.667 13.6362 597.67 14.1465 596.342 14.1465ZM596.174 7.04199C595.627 7.04199 595.168 7.24219 594.797 7.64258C594.426 8.03809 594.196 8.59473 594.108 9.3125H598.078V9.20996C598.039 8.52148 597.854 7.98926 597.521 7.61328C597.189 7.23242 596.74 7.04199 596.174 7.04199Z" fill="black"/>
<path d="M458.145 206.712C457.67 207.379 456.986 207.976 456.125 207.976C455.914 207.976 455.071 207.941 454.808 207.133C454.861 207.151 454.948 207.151 454.983 207.151C455.51 207.151 455.862 206.694 455.862 206.29C455.862 205.886 455.528 205.746 455.264 205.746C454.983 205.746 454.369 205.957 454.369 206.817C454.369 207.713 455.124 208.327 456.125 208.327C457.881 208.327 459.655 206.712 460.147 204.762L461.868 197.913C461.885 197.825 461.92 197.72 461.92 197.615C461.92 197.351 461.71 197.176 461.446 197.176C461.288 197.176 460.919 197.246 460.779 197.773L459.479 202.936C459.391 203.252 459.391 203.287 459.251 203.48C458.9 203.972 458.32 204.569 457.477 204.569C456.494 204.569 456.406 203.603 456.406 203.129C456.406 202.128 456.88 200.776 457.354 199.511C457.547 199.002 457.653 198.756 457.653 198.405C457.653 197.667 457.126 197 456.265 197C454.65 197 454 199.546 454 199.687C454 199.757 454.07 199.845 454.193 199.845C454.351 199.845 454.369 199.775 454.439 199.529C454.861 198.054 455.528 197.351 456.213 197.351C456.371 197.351 456.669 197.351 456.669 197.931C456.669 198.387 456.476 198.897 456.213 199.564C455.352 201.865 455.352 202.444 455.352 202.866C455.352 204.534 456.546 204.92 457.425 204.92C457.934 204.92 458.566 204.762 459.181 204.113L459.198 204.13C458.935 205.166 458.759 205.851 458.145 206.712Z" fill="#22661E"/>
<path d="M464.841 203.469C465.766 203.469 466.351 204.148 466.351 205.377C466.351 206.84 465.52 207.274 464.9 207.274C464.256 207.274 463.378 207.039 462.968 206.419C463.389 206.419 463.682 206.15 463.682 205.763C463.682 205.389 463.413 205.119 463.038 205.119C462.722 205.119 462.394 205.318 462.394 205.787C462.394 206.899 463.588 207.625 464.923 207.625C466.48 207.625 467.569 206.548 467.569 205.377C467.569 204.405 466.796 203.515 465.602 203.258C466.527 202.93 467.218 202.134 467.218 201.197C467.218 200.261 466.164 199.593 464.946 199.593C463.694 199.593 462.745 200.272 462.745 201.162C462.745 201.595 463.038 201.783 463.342 201.783C463.705 201.783 463.94 201.525 463.94 201.186C463.94 200.752 463.565 200.588 463.307 200.577C463.799 199.933 464.701 199.898 464.911 199.898C465.216 199.898 466.106 199.991 466.106 201.197C466.106 202.017 465.766 202.509 465.602 202.696C465.251 203.059 464.982 203.082 464.267 203.129C464.045 203.141 463.951 203.152 463.951 203.305C463.951 203.469 464.057 203.469 464.256 203.469H464.841Z" fill="#22661E"/>
<path d="M458.145 281.712C457.67 282.379 456.986 282.976 456.125 282.976C455.914 282.976 455.071 282.941 454.808 282.133C454.861 282.151 454.948 282.151 454.983 282.151C455.51 282.151 455.862 281.694 455.862 281.29C455.862 280.886 455.528 280.746 455.264 280.746C454.983 280.746 454.369 280.957 454.369 281.817C454.369 282.713 455.124 283.327 456.125 283.327C457.881 283.327 459.655 281.712 460.147 279.762L461.868 272.913C461.885 272.825 461.92 272.72 461.92 272.615C461.92 272.351 461.71 272.176 461.446 272.176C461.288 272.176 460.919 272.246 460.779 272.773L459.479 277.936C459.391 278.252 459.391 278.287 459.251 278.48C458.9 278.972 458.32 279.569 457.477 279.569C456.494 279.569 456.406 278.603 456.406 278.129C456.406 277.128 456.88 275.776 457.354 274.511C457.547 274.002 457.653 273.756 457.653 273.405C457.653 272.667 457.126 272 456.265 272C454.65 272 454 274.546 454 274.687C454 274.757 454.07 274.845 454.193 274.845C454.351 274.845 454.369 274.775 454.439 274.529C454.861 273.054 455.528 272.351 456.213 272.351C456.371 272.351 456.669 272.351 456.669 272.931C456.669 273.387 456.476 273.897 456.213 274.564C455.352 276.865 455.352 277.444 455.352 277.866C455.352 279.534 456.546 279.92 457.425 279.92C457.934 279.92 458.566 279.762 459.181 279.113L459.198 279.13C458.935 280.166 458.759 280.851 458.145 281.712Z" fill="#66571E"/>
<path d="M466.492 274.804C466.492 274.57 466.492 274.476 466.246 274.476C466.094 274.476 466.082 274.488 465.965 274.652L462.23 280.073V280.459H465.532V281.431C465.532 281.864 465.497 281.993 464.595 281.993H464.326V282.379C465.321 282.344 465.344 282.344 466.012 282.344C466.679 282.344 466.703 282.344 467.698 282.379V281.993H467.428C466.527 281.993 466.492 281.864 466.492 281.431V280.459H467.733V280.073H466.492V274.804ZM465.614 275.752V280.073H462.64L465.614 275.752Z" fill="#66571E"/>
<path d="M568.979 155.786C569.067 156.893 569.278 157.701 569.366 158.035C569.559 158.826 569.647 159.212 570.403 159.212C571.193 159.212 572.546 158.422 572.546 158.07C572.546 157.982 572.476 157.947 572.388 157.947C572.159 157.947 571.791 158.14 571.738 158.176C571.615 158.246 571.58 158.246 571.545 158.246C571.053 158.246 570.947 157.771 570.736 156.717C570.613 156.138 570.455 155.435 570.315 153.028C570.192 151.236 570.121 149.444 570.121 147.652C570.121 147.23 570.139 146.773 570.139 146.351C570.139 146.07 570.139 146 569.946 146C569.7 146 568.979 146.299 568.663 146.773L568.54 146.966C567.152 149.936 565.852 152.061 564.938 153.485C563.902 155.083 562.075 157.947 561.126 157.947C560.476 157.947 559.931 157.526 559.773 156.893C559.755 156.858 559.72 156.752 559.65 156.752C559.387 156.752 559 157.596 559 158.088C559 158.791 559.755 159.564 560.581 159.564C561.794 159.564 563.814 156.401 564.201 155.786H568.979ZM568.628 148.161V149.18C568.628 150.199 568.663 151.218 568.716 152.237C568.733 152.589 568.804 153.906 568.892 154.82H565.676C565.395 154.82 565.132 154.82 564.675 155.101C565.905 153.203 566.924 151.376 567.029 151.183C567.908 149.619 568.382 148.6 568.61 148.161H568.628Z" fill="black"/>
<path d="M432.053 83.7748C432.035 83.8626 432 83.9679 432 84.0732C432 84.3364 432.211 84.5119 432.474 84.5119C432.737 84.5119 432.983 84.3364 433.088 84.0907C433.158 83.9328 433.65 81.8269 434.211 79.6685C434.562 80.5459 435.211 80.9144 435.896 80.9144C437.879 80.9144 440.125 78.4576 440.125 75.8078C440.125 73.9301 438.984 73 437.773 73C436.229 73 434.352 74.5969 433.772 76.9309L432.053 83.7748ZM435.878 80.5634C434.685 80.5634 434.387 79.1771 434.387 78.9665C434.387 78.8612 434.825 77.1941 434.878 76.9309C435.773 73.4387 437.493 73.351 437.756 73.351C438.546 73.351 438.984 74.0705 438.984 75.1058C438.984 76.0008 438.511 77.7381 438.212 78.4752C437.686 79.686 436.773 80.5634 435.878 80.5634Z" fill="black"/>
<path d="M403.053 195.775C403.035 195.863 403 195.968 403 196.073C403 196.336 403.211 196.512 403.474 196.512C403.737 196.512 403.983 196.336 404.088 196.091C404.158 195.933 404.65 193.827 405.211 191.668C405.562 192.546 406.211 192.914 406.896 192.914C408.879 192.914 411.125 190.458 411.125 187.808C411.125 185.93 409.984 185 408.773 185C407.229 185 405.352 186.597 404.772 188.931L403.053 195.775ZM406.878 192.563C405.685 192.563 405.387 191.177 405.387 190.967C405.387 190.861 405.825 189.194 405.878 188.931C406.773 185.439 408.493 185.351 408.756 185.351C409.546 185.351 409.984 186.07 409.984 187.106C409.984 188.001 409.511 189.738 409.212 190.475C408.686 191.686 407.773 192.563 406.878 192.563Z" fill="black"/>
<path d="M403.053 270.775C403.035 270.863 403 270.968 403 271.073C403 271.336 403.211 271.512 403.474 271.512C403.737 271.512 403.983 271.336 404.088 271.091C404.158 270.933 404.65 268.827 405.211 266.668C405.562 267.546 406.211 267.914 406.896 267.914C408.879 267.914 411.125 265.458 411.125 262.808C411.125 260.93 409.984 260 408.773 260C407.229 260 405.352 261.597 404.772 263.931L403.053 270.775ZM406.878 267.563C405.685 267.563 405.387 266.177 405.387 265.967C405.387 265.861 405.825 264.194 405.878 263.931C406.773 260.439 408.493 260.351 408.756 260.351C409.546 260.351 409.984 261.07 409.984 262.106C409.984 263.001 409.511 264.738 409.212 265.475C408.686 266.686 407.773 267.563 406.878 267.563Z" fill="black"/>
<path d="M458.144 94.711C457.67 95.3783 456.985 95.9753 456.125 95.9753C455.914 95.9753 455.071 95.9402 454.808 95.1324C454.86 95.15 454.948 95.15 454.983 95.15C455.51 95.15 455.861 94.6934 455.861 94.2895C455.861 93.8856 455.528 93.7451 455.264 93.7451C454.983 93.7451 454.369 93.9558 454.369 94.8163C454.369 95.7119 455.124 96.3265 456.125 96.3265C457.881 96.3265 459.654 94.711 460.146 92.7617L461.867 85.9131C461.885 85.8253 461.92 85.72 461.92 85.6146C461.92 85.3512 461.709 85.1756 461.446 85.1756C461.288 85.1756 460.919 85.2458 460.778 85.7727L459.479 90.9354C459.391 91.2515 459.391 91.2867 459.251 91.4798C458.899 91.9715 458.32 92.5686 457.477 92.5686C456.494 92.5686 456.406 91.6027 456.406 91.1286C456.406 90.1277 456.88 88.7755 457.354 87.5112C457.547 87.0019 457.653 86.7561 457.653 86.4048C457.653 85.6673 457.126 85 456.265 85C454.65 85 454 87.5463 454 87.6868C454 87.757 454.07 87.8448 454.193 87.8448C454.351 87.8448 454.369 87.7746 454.439 87.5287C454.86 86.0536 455.528 85.3512 456.213 85.3512C456.371 85.3512 456.669 85.3512 456.669 85.9307C456.669 86.3873 456.476 86.8965 456.213 87.5638C455.352 89.8643 455.352 90.4437 455.352 90.8652C455.352 92.5334 456.546 92.9198 457.424 92.9198C457.934 92.9198 458.566 92.7617 459.18 92.112L459.198 92.1296C458.934 93.1656 458.759 93.8505 458.144 94.711Z" fill="#B33535"/>
<path d="M465.554 87.9211C465.554 87.605 465.531 87.5933 465.215 87.5933C464.735 88.0615 464.114 88.3425 463.002 88.3425V88.7288C463.318 88.7288 463.95 88.7288 464.629 88.4127V94.4184C464.629 94.8516 464.594 94.9921 463.482 94.9921H463.072V95.3784C463.552 95.3433 464.559 95.3433 465.086 95.3433C465.613 95.3433 466.631 95.3433 467.111 95.3784V94.9921H466.702C465.589 94.9921 465.554 94.8516 465.554 94.4184V87.9211Z" fill="#B33535"/>
<path d="M470.264 95.2027C470.264 95.9637 470.1 96.631 469.374 97.3568C469.327 97.3919 469.304 97.4153 469.304 97.4739C469.304 97.5675 469.397 97.6378 469.479 97.6378C469.62 97.6378 470.591 96.7129 470.591 95.3432C470.591 94.594 470.311 94.0789 469.795 94.0789C469.386 94.0789 469.152 94.4067 469.152 94.7227C469.152 95.0505 469.374 95.3783 469.807 95.3783C470.088 95.3783 470.264 95.2144 470.264 95.2027Z" fill="#B33535"/>
<path d="M474.818 92.9902C475.005 92.8146 475.497 92.4282 475.684 92.2643C476.41 91.597 477.101 90.9532 477.101 89.8878C477.101 88.4947 475.93 87.5933 474.467 87.5933C473.062 87.5933 472.137 88.6586 472.137 89.7005C472.137 90.2742 472.594 90.3561 472.758 90.3561C473.004 90.3561 473.366 90.1805 473.366 89.7356C473.366 89.1269 472.781 89.1269 472.641 89.1269C472.98 88.2723 473.764 87.9796 474.338 87.9796C475.427 87.9796 475.989 88.9044 475.989 89.8878C475.989 91.1054 475.134 91.9951 473.753 93.4116L472.278 94.9335C472.137 95.0623 472.137 95.0857 472.137 95.3784H476.761L477.101 93.2829H476.738C476.703 93.517 476.609 94.1023 476.469 94.3248C476.399 94.4184 475.509 94.4184 475.322 94.4184H473.238L474.818 92.9902Z" fill="#B33535"/>
<path d="M265 37V37C265 32.5817 268.582 29 273 29H339.051C346.496 29 353.437 25.2379 357.5 19V19V19C361.563 25.2379 368.504 29 375.949 29H442C446.418 29 450 32.5817 450 37V37" stroke="black"/>
<path d="M365 294V294C365 298.418 368.582 302 373 302H456.819C464.878 302 472.495 305.683 477.5 312V312V312C482.505 305.683 490.122 302 498.181 302H582C586.418 302 590 298.418 590 294V294" stroke="black"/>
<line x1="566.5" y1="20" x2="566.5" y2="140" stroke="black" stroke-dasharray="2 2"/>
</svg>
