<svg width="617" height="333" viewBox="0 0 617 333" fill="none" xmlns="http://www.w3.org/2000/svg">
<path d="M337 51L332 48.1132V53.8868L337 51ZM337 126L332 123.113V128.887L337 126ZM337 201L332 198.113V203.887L337 201ZM337 276L332 273.113V278.887L337 276ZM332.5 50.5H265V51.5H332.5V50.5ZM332.5 125.5H265V126.5H332.5V125.5ZM332.5 200.5H265V201.5H332.5V200.5ZM332.5 275.5H215V276.5H332.5V275.5Z" fill="black"/>
<path d="M247.6 125L247.619 125.75L248.045 125.739L248.254 125.367L247.6 125ZM198.4 99L198.961 107.642L206.165 102.836L198.4 99ZM252 64.6L249.58 72.9154L257.991 70.8532L252 64.6ZM247.6 125C247.581 124.25 247.581 124.25 247.582 124.25C247.582 124.25 247.582 124.25 247.581 124.25C247.581 124.25 247.581 124.25 247.58 124.25C247.579 124.25 247.576 124.25 247.573 124.25C247.566 124.251 247.556 124.251 247.542 124.251C247.513 124.251 247.47 124.252 247.412 124.252C247.296 124.253 247.122 124.253 246.894 124.25C246.438 124.244 245.766 124.226 244.912 124.176C243.204 124.078 240.77 123.855 237.876 123.361C232.085 122.371 224.48 120.294 217.183 115.955L216.417 117.245C223.92 121.706 231.715 123.829 237.624 124.839C240.58 125.345 243.071 125.572 244.826 125.674C245.703 125.724 246.397 125.744 246.874 125.75C247.112 125.753 247.296 125.753 247.422 125.752C247.484 125.752 247.533 125.751 247.566 125.751C247.582 125.751 247.595 125.75 247.604 125.75C247.608 125.75 247.612 125.75 247.614 125.75C247.615 125.75 247.616 125.75 247.617 125.75C247.618 125.75 247.618 125.75 247.618 125.75C247.619 125.75 247.619 125.75 247.6 125ZM217.183 115.955C209.941 111.649 205.427 107.355 202.721 104.133L201.572 105.098C204.387 108.449 209.031 112.853 216.417 117.245L217.183 115.955ZM247.6 125C248.254 125.367 248.254 125.367 248.254 125.367C248.255 125.366 248.255 125.366 248.255 125.366C248.255 125.365 248.256 125.364 248.256 125.363C248.258 125.361 248.26 125.357 248.262 125.353C248.267 125.344 248.274 125.332 248.283 125.315C248.301 125.282 248.328 125.234 248.362 125.17C248.431 125.043 248.532 124.856 248.659 124.614C248.913 124.129 249.275 123.422 249.707 122.526C250.571 120.735 251.718 118.189 252.852 115.163C255.116 109.126 257.353 101.121 257.15 93.3803L255.65 93.4197C255.847 100.879 253.684 108.674 251.448 114.637C250.332 117.611 249.204 120.115 248.356 121.874C247.932 122.753 247.578 123.446 247.33 123.917C247.207 124.153 247.11 124.333 247.044 124.454C247.012 124.514 246.987 124.56 246.97 124.59C246.962 124.605 246.955 124.616 246.951 124.623C246.949 124.627 246.948 124.63 246.947 124.631C246.947 124.632 246.946 124.633 246.946 124.633C246.946 124.633 246.946 124.633 246.946 124.633C246.946 124.633 246.946 124.633 247.6 125ZM257.15 93.3803C256.92 84.6346 255.507 76.4246 254.34 70.997L252.874 71.3123C254.029 76.6882 255.423 84.7997 255.65 93.4197L257.15 93.3803Z" fill="#B33535"/>
<path d="M246.298 52.4453L246.231 51.6983L247.492 51.5852L246.986 52.7452L246.298 52.4453ZM197.098 78.4453L198.897 69.9739L205.334 75.7675L197.098 78.4453ZM244 113.4L237.783 107.371L246.113 105.001L244 113.4ZM246.298 52.4453C246.365 53.1923 246.365 53.1923 246.365 53.1923C246.365 53.1923 246.365 53.1923 246.365 53.1923C246.365 53.1923 246.365 53.1923 246.364 53.1924C246.362 53.1925 246.36 53.1927 246.357 53.193C246.351 53.1936 246.341 53.1946 246.327 53.1959C246.3 53.1985 246.259 53.2027 246.204 53.2085C246.094 53.2201 245.928 53.2385 245.712 53.2651C245.279 53.3183 244.64 53.4043 243.827 53.535C242.199 53.7964 239.872 54.2363 237.085 54.9492C231.507 56.3759 224.105 58.8915 216.783 63.2446L216.017 61.9553C223.495 57.5085 231.042 54.9467 236.713 53.496C239.551 52.7703 241.923 52.3215 243.589 52.0539C244.422 51.9201 245.079 51.8315 245.529 51.7763C245.754 51.7486 245.928 51.7293 246.046 51.7168C246.105 51.7105 246.151 51.706 246.182 51.703C246.197 51.7015 246.209 51.7003 246.217 51.6996C246.221 51.6992 246.225 51.6989 246.227 51.6987C246.228 51.6986 246.229 51.6985 246.23 51.6984C246.23 51.6984 246.23 51.6983 246.231 51.6983C246.231 51.6983 246.231 51.6983 246.298 52.4453ZM216.783 63.2446C209.763 67.4189 205.089 71.1874 202.128 73.974L201.1 72.8817C204.144 70.017 208.906 66.1832 216.017 61.9553L216.783 63.2446ZM246.298 52.4453C246.986 52.7452 246.986 52.7451 246.986 52.7451C246.986 52.7452 246.986 52.7452 246.985 52.7454C246.985 52.7457 246.985 52.7463 246.985 52.747C246.984 52.7486 246.983 52.7511 246.982 52.7545C246.979 52.7613 246.974 52.7718 246.968 52.7859C246.956 52.8142 246.938 52.8569 246.914 52.9137C246.865 53.0272 246.794 53.1968 246.704 53.4187C246.522 53.8626 246.261 54.5155 245.947 55.3472C245.318 57.011 244.474 59.3887 243.617 62.2385C241.902 67.9456 240.147 75.513 239.95 83.0197L238.45 82.9803C238.653 75.287 240.447 67.5771 242.181 61.8068C243.049 58.9179 243.905 56.5069 244.544 54.8167C244.863 53.9714 245.129 53.306 245.315 52.8507C245.409 52.6231 245.482 52.448 245.532 52.3292C245.557 52.2698 245.577 52.2244 245.59 52.1936C245.596 52.1782 245.602 52.1665 245.605 52.1584C245.607 52.1544 245.608 52.1513 245.609 52.1491C245.61 52.148 245.61 52.1472 245.61 52.1466C245.61 52.1462 245.61 52.146 245.611 52.1458C245.611 52.1456 245.611 52.1454 246.298 52.4453ZM239.95 83.0197C239.715 91.9547 241.437 100.912 242.881 106.726L241.425 107.087C239.967 101.215 238.21 92.1087 238.45 82.9803L239.95 83.0197Z" fill="#B33535"/>
<path d="M192 89L248 125L248 53L192 89Z" stroke="black" stroke-width="2"/>
<circle cx="248" cy="125" r="11" transform="rotate(-180 248 125)" fill="white" stroke="#B33535" stroke-width="2"/>
<path d="M249.041 121.941C249.041 121.056 248.592 121 248.479 121C248.142 121 247.833 121.337 247.833 121.618C247.833 121.787 247.931 121.885 247.988 121.941C248.128 122.068 248.493 122.447 248.493 123.178C248.493 123.768 247.65 127.055 245.964 127.055C245.107 127.055 244.939 126.339 244.939 125.819C244.939 125.117 245.262 124.133 245.641 123.121C245.866 122.545 245.922 122.405 245.922 122.124C245.922 121.534 245.501 121 244.812 121C243.52 121 243 123.037 243 123.15C243 123.206 243.056 123.276 243.155 123.276C243.281 123.276 243.295 123.22 243.351 123.023C243.688 121.815 244.236 121.281 244.77 121.281C244.897 121.281 245.136 121.281 245.136 121.745C245.136 122.11 244.981 122.517 244.77 123.051C244.096 124.85 244.096 125.285 244.096 125.622C244.096 125.931 244.138 126.507 244.574 126.901C245.079 127.336 245.782 127.336 245.908 127.336C248.24 127.336 249.041 122.742 249.041 121.941Z" fill="#B33535"/>
<path d="M251.888 127.393C252.038 127.252 252.431 126.943 252.581 126.812C253.162 126.278 253.714 125.763 253.714 124.911C253.714 123.796 252.778 123.075 251.607 123.075C250.483 123.075 249.743 123.927 249.743 124.761C249.743 125.22 250.108 125.285 250.239 125.285C250.436 125.285 250.726 125.145 250.726 124.789C250.726 124.302 250.258 124.302 250.146 124.302C250.417 123.618 251.045 123.384 251.504 123.384C252.375 123.384 252.824 124.124 252.824 124.911C252.824 125.885 252.141 126.596 251.035 127.73L249.855 128.947C249.743 129.05 249.743 129.069 249.743 129.303H253.443L253.714 127.627H253.424C253.396 127.814 253.321 128.282 253.208 128.46C253.152 128.535 252.44 128.535 252.29 128.535H250.623L251.888 127.393Z" fill="#B33535"/>
<circle cx="248" cy="53" r="11" transform="rotate(-180 248 53)" fill="white" stroke="#B33535" stroke-width="2"/>
<path d="M249.041 49.9413C249.041 49.0562 248.592 49 248.479 49C248.142 49 247.833 49.3372 247.833 49.6182C247.833 49.7868 247.931 49.8851 247.988 49.9413C248.128 50.0678 248.493 50.4471 248.493 51.1777C248.493 51.7677 247.65 55.0553 245.964 55.0553C245.107 55.0553 244.939 54.3388 244.939 53.819C244.939 53.1165 245.262 52.133 245.641 51.1215C245.866 50.5454 245.922 50.405 245.922 50.124C245.922 49.5339 245.501 49 244.812 49C243.52 49 243 51.0372 243 51.1496C243 51.2058 243.056 51.276 243.155 51.276C243.281 51.276 243.295 51.2198 243.351 51.0231C243.688 49.8149 244.236 49.281 244.77 49.281C244.897 49.281 245.136 49.281 245.136 49.7446C245.136 50.1099 244.981 50.5173 244.77 51.0512C244.096 52.8496 244.096 53.2851 244.096 53.6223C244.096 53.9314 244.138 54.5074 244.574 54.9008C245.079 55.3363 245.782 55.3363 245.908 55.3363C248.24 55.3363 249.041 50.7421 249.041 49.9413Z" fill="#B33535"/>
<path d="M252.187 51.337C252.187 51.0841 252.169 51.0747 251.916 51.0747C251.532 51.4494 251.035 51.6741 250.146 51.6741V51.9832C250.398 51.9832 250.904 51.9832 251.448 51.7303V56.5353C251.448 56.8818 251.419 56.9942 250.53 56.9942H250.202V57.3033C250.586 57.2752 251.391 57.2752 251.813 57.2752C252.234 57.2752 253.049 57.2752 253.433 57.3033V56.9942H253.105C252.216 56.9942 252.187 56.8818 252.187 56.5353V51.337Z" fill="#B33535"/>
<circle cx="192" cy="89" r="11" transform="rotate(-180 192 89)" fill="white" stroke="black" stroke-width="2"/>
<path d="M193.041 85.9413C193.041 85.0562 192.592 85 192.479 85C192.142 85 191.833 85.3372 191.833 85.6182C191.833 85.7868 191.931 85.8851 191.988 85.9413C192.128 86.0678 192.493 86.4471 192.493 87.1777C192.493 87.7677 191.65 91.0553 189.964 91.0553C189.107 91.0553 188.939 90.3388 188.939 89.819C188.939 89.1165 189.262 88.133 189.641 87.1215C189.866 86.5454 189.922 86.405 189.922 86.124C189.922 85.5339 189.501 85 188.812 85C187.52 85 187 87.0372 187 87.1496C187 87.2058 187.056 87.276 187.155 87.276C187.281 87.276 187.295 87.2198 187.351 87.0231C187.688 85.8149 188.236 85.281 188.77 85.281C188.897 85.281 189.136 85.281 189.136 85.7446C189.136 86.1099 188.981 86.5173 188.77 87.0512C188.096 88.8496 188.096 89.2851 188.096 89.6223C188.096 89.9314 188.138 90.5074 188.574 90.9008C189.079 91.3363 189.782 91.3363 189.908 91.3363C192.24 91.3363 193.041 86.7421 193.041 85.9413Z" fill="black"/>
<path d="M195.616 90.1749C196.356 90.1749 196.824 90.7182 196.824 91.7017C196.824 92.8724 196.159 93.219 195.663 93.219C195.148 93.219 194.445 93.0317 194.117 92.5353C194.455 92.5353 194.689 92.3198 194.689 92.0107C194.689 91.711 194.473 91.4956 194.174 91.4956C193.921 91.4956 193.659 91.6548 193.659 92.0295C193.659 92.9193 194.614 93.5 195.682 93.5C196.927 93.5 197.798 92.6383 197.798 91.7017C197.798 90.9243 197.18 90.2124 196.225 90.0064C196.965 89.7441 197.517 89.1072 197.517 88.3579C197.517 87.6086 196.674 87.0747 195.7 87.0747C194.698 87.0747 193.94 87.6179 193.94 88.3298C193.94 88.6763 194.174 88.8262 194.417 88.8262C194.708 88.8262 194.895 88.6201 194.895 88.3485C194.895 88.002 194.595 87.8708 194.389 87.8615C194.782 87.3463 195.504 87.3182 195.672 87.3182C195.916 87.3182 196.628 87.3932 196.628 88.3579C196.628 89.0135 196.356 89.4069 196.225 89.5568C195.944 89.8471 195.728 89.8659 195.157 89.9033C194.979 89.9127 194.904 89.9221 194.904 90.0438C194.904 90.1749 194.989 90.1749 195.148 90.1749H195.616Z" fill="black"/>
<path d="M250.4 245.4L256.722 239.482L248.436 236.965L250.4 245.4ZM212.8 157L210.402 165.321L218.807 163.238L212.8 157ZM279.2 157L273.281 163.322L281.715 165.287L279.2 157ZM246.642 201.902C245.984 202.262 245.984 202.262 245.984 202.262C245.984 202.262 245.984 202.262 245.985 202.262C245.985 202.262 245.985 202.263 245.985 202.263C245.986 202.264 245.987 202.266 245.988 202.269C245.991 202.275 245.996 202.283 246.002 202.295C246.015 202.318 246.033 202.352 246.058 202.399C246.107 202.492 246.18 202.631 246.274 202.813C246.461 203.177 246.729 203.713 247.051 204.394C247.697 205.757 248.557 207.699 249.418 210.012C251.144 214.651 252.85 220.729 252.85 226.6L254.35 226.6C254.35 220.471 252.577 214.2 250.824 209.489C249.945 207.128 249.067 205.146 248.407 203.752C248.077 203.055 247.802 202.505 247.608 202.128C247.512 201.94 247.435 201.794 247.383 201.695C247.356 201.646 247.336 201.608 247.322 201.582C247.315 201.569 247.31 201.559 247.306 201.553C247.304 201.549 247.303 201.546 247.302 201.545C247.301 201.544 247.301 201.543 247.301 201.542C247.3 201.542 247.3 201.542 247.3 201.542C247.3 201.541 247.3 201.541 246.642 201.902ZM252.85 226.6C252.85 231.633 252.281 235.735 251.628 238.784L253.095 239.098C253.768 235.954 254.35 231.747 254.35 226.6L252.85 226.6ZM246.642 201.902C246.976 201.23 246.976 201.23 246.976 201.23C246.976 201.23 246.976 201.23 246.976 201.23C246.976 201.23 246.975 201.23 246.975 201.229C246.974 201.229 246.971 201.228 246.968 201.226C246.962 201.223 246.953 201.218 246.94 201.212C246.915 201.199 246.877 201.18 246.826 201.153C246.724 201.101 246.572 201.021 246.374 200.915C245.979 200.703 245.402 200.384 244.68 199.962C243.237 199.116 241.217 197.857 238.918 196.204C234.316 192.894 228.627 188.025 224.213 181.768L222.987 182.632C227.531 189.074 233.363 194.055 238.042 197.422C240.385 199.107 242.446 200.391 243.923 201.256C244.661 201.689 245.255 202.016 245.665 202.237C245.87 202.347 246.029 202.43 246.138 202.486C246.192 202.514 246.234 202.536 246.263 202.55C246.277 202.557 246.288 202.563 246.296 202.567C246.299 202.569 246.302 202.57 246.304 202.571C246.306 202.572 246.306 202.572 246.307 202.573C246.307 202.573 246.308 202.573 246.308 202.573C246.308 202.573 246.308 202.573 246.642 201.902ZM224.213 181.768C219.369 174.901 216.628 168.09 215.14 163.328L213.708 163.776C215.23 168.643 218.031 175.606 222.987 182.632L224.213 181.768ZM247.067 202.519C255.77 196.532 262.374 191.404 267.414 185.489C272.468 179.556 275.925 172.862 278.392 163.773L276.944 163.38C274.526 172.287 271.163 178.775 266.272 184.516C261.367 190.273 254.901 195.31 246.217 201.284L247.067 202.519Z" fill="#3BB335"/>
<path d="M246 201L246 257M246 201L282 145L210 145L246 201Z" stroke="black" stroke-width="2"/>
<circle cx="282" cy="145" r="11" transform="rotate(90 282 145)" fill="white" stroke="black" stroke-width="2"/>
<path d="M283.041 141.941C283.041 141.056 282.592 141 282.479 141C282.142 141 281.833 141.337 281.833 141.618C281.833 141.787 281.931 141.885 281.988 141.941C282.128 142.068 282.493 142.447 282.493 143.178C282.493 143.768 281.65 147.055 279.964 147.055C279.107 147.055 278.939 146.339 278.939 145.819C278.939 145.117 279.262 144.133 279.641 143.121C279.866 142.545 279.922 142.405 279.922 142.124C279.922 141.534 279.501 141 278.812 141C277.52 141 277 143.037 277 143.15C277 143.206 277.056 143.276 277.155 143.276C277.281 143.276 277.295 143.22 277.351 143.023C277.688 141.815 278.236 141.281 278.77 141.281C278.897 141.281 279.136 141.281 279.136 141.745C279.136 142.11 278.981 142.517 278.77 143.051C278.096 144.85 278.096 145.285 278.096 145.622C278.096 145.931 278.138 146.507 278.574 146.901C279.079 147.336 279.782 147.336 279.908 147.336C282.24 147.336 283.041 142.742 283.041 141.941Z" fill="black"/>
<path d="M285.888 147.393C286.038 147.252 286.431 146.943 286.581 146.812C287.162 146.278 287.714 145.763 287.714 144.911C287.714 143.796 286.778 143.075 285.607 143.075C284.483 143.075 283.743 143.927 283.743 144.761C283.743 145.22 284.108 145.285 284.239 145.285C284.436 145.285 284.726 145.145 284.726 144.789C284.726 144.302 284.258 144.302 284.146 144.302C284.417 143.618 285.045 143.384 285.504 143.384C286.375 143.384 286.824 144.124 286.824 144.911C286.824 145.885 286.141 146.596 285.035 147.73L283.855 148.947C283.743 149.05 283.743 149.069 283.743 149.303H287.443L287.714 147.627H287.424C287.396 147.814 287.321 148.282 287.208 148.46C287.152 148.535 286.44 148.535 286.291 148.535H284.623L285.888 147.393Z" fill="black"/>
<circle cx="210" cy="145" r="11" transform="rotate(90 210 145)" fill="white" stroke="black" stroke-width="2"/>
<path d="M211.041 141.941C211.041 141.056 210.592 141 210.479 141C210.142 141 209.833 141.337 209.833 141.618C209.833 141.787 209.931 141.885 209.988 141.941C210.128 142.068 210.493 142.447 210.493 143.178C210.493 143.768 209.65 147.055 207.964 147.055C207.107 147.055 206.939 146.339 206.939 145.819C206.939 145.117 207.262 144.133 207.641 143.121C207.866 142.545 207.922 142.405 207.922 142.124C207.922 141.534 207.501 141 206.812 141C205.52 141 205 143.037 205 143.15C205 143.206 205.056 143.276 205.155 143.276C205.281 143.276 205.295 143.22 205.351 143.023C205.688 141.815 206.236 141.281 206.77 141.281C206.897 141.281 207.136 141.281 207.136 141.745C207.136 142.11 206.981 142.517 206.77 143.051C206.096 144.85 206.096 145.285 206.096 145.622C206.096 145.931 206.138 146.507 206.574 146.901C207.079 147.336 207.782 147.336 207.908 147.336C210.24 147.336 211.041 142.742 211.041 141.941Z" fill="black"/>
<path d="M214.187 143.337C214.187 143.084 214.169 143.075 213.916 143.075C213.532 143.449 213.035 143.674 212.146 143.674V143.983C212.399 143.983 212.904 143.983 213.448 143.73V148.535C213.448 148.882 213.419 148.994 212.53 148.994H212.202V149.303C212.586 149.275 213.391 149.275 213.813 149.275C214.234 149.275 215.049 149.275 215.433 149.303V148.994H215.105C214.216 148.994 214.187 148.882 214.187 148.535V143.337Z" fill="black"/>
<circle cx="246" cy="201" r="11" transform="rotate(90 246 201)" fill="white" stroke="#3BB335" stroke-width="2"/>
<path d="M247.041 197.941C247.041 197.056 246.592 197 246.479 197C246.142 197 245.833 197.337 245.833 197.618C245.833 197.787 245.931 197.885 245.988 197.941C246.128 198.068 246.493 198.447 246.493 199.178C246.493 199.768 245.65 203.055 243.964 203.055C243.107 203.055 242.939 202.339 242.939 201.819C242.939 201.117 243.262 200.133 243.641 199.121C243.866 198.545 243.922 198.405 243.922 198.124C243.922 197.534 243.501 197 242.812 197C241.52 197 241 199.037 241 199.15C241 199.206 241.056 199.276 241.155 199.276C241.281 199.276 241.295 199.22 241.351 199.023C241.688 197.815 242.236 197.281 242.77 197.281C242.897 197.281 243.136 197.281 243.136 197.745C243.136 198.11 242.981 198.517 242.77 199.051C242.096 200.85 242.096 201.285 242.096 201.622C242.096 201.931 242.138 202.507 242.574 202.901C243.079 203.336 243.782 203.336 243.908 203.336C246.24 203.336 247.041 198.742 247.041 197.941Z" fill="#22661E"/>
<path d="M249.616 202.175C250.356 202.175 250.824 202.718 250.824 203.702C250.824 204.872 250.159 205.219 249.663 205.219C249.148 205.219 248.445 205.032 248.117 204.535C248.455 204.535 248.689 204.32 248.689 204.011C248.689 203.711 248.473 203.496 248.174 203.496C247.921 203.496 247.659 203.655 247.659 204.029C247.659 204.919 248.614 205.5 249.682 205.5C250.927 205.5 251.798 204.638 251.798 203.702C251.798 202.924 251.18 202.212 250.225 202.006C250.965 201.744 251.517 201.107 251.517 200.358C251.517 199.609 250.674 199.075 249.7 199.075C248.698 199.075 247.94 199.618 247.94 200.33C247.94 200.676 248.174 200.826 248.417 200.826C248.708 200.826 248.895 200.62 248.895 200.349C248.895 200.002 248.595 199.871 248.389 199.861C248.782 199.346 249.504 199.318 249.672 199.318C249.916 199.318 250.628 199.393 250.628 200.358C250.628 201.014 250.356 201.407 250.225 201.557C249.944 201.847 249.728 201.866 249.157 201.903C248.979 201.913 248.904 201.922 248.904 202.044C248.904 202.175 248.989 202.175 249.148 202.175H249.616Z" fill="#22661E"/>
<circle cx="246" cy="257" r="11" transform="rotate(90 246 257)" fill="white" stroke="black" stroke-width="2"/>
<path d="M247.041 253.941C247.041 253.056 246.592 253 246.479 253C246.142 253 245.833 253.337 245.833 253.618C245.833 253.787 245.931 253.885 245.988 253.941C246.128 254.068 246.493 254.447 246.493 255.178C246.493 255.768 245.65 259.055 243.964 259.055C243.107 259.055 242.939 258.339 242.939 257.819C242.939 257.117 243.262 256.133 243.641 255.121C243.866 254.545 243.922 254.405 243.922 254.124C243.922 253.534 243.501 253 242.812 253C241.52 253 241 255.037 241 255.15C241 255.206 241.056 255.276 241.155 255.276C241.281 255.276 241.295 255.22 241.351 255.023C241.688 253.815 242.236 253.281 242.77 253.281C242.897 253.281 243.136 253.281 243.136 253.745C243.136 254.11 242.981 254.517 242.77 255.051C242.096 256.85 242.096 257.285 242.096 257.622C242.096 257.931 242.138 258.507 242.574 258.901C243.079 259.336 243.782 259.336 243.908 259.336C246.24 259.336 247.041 254.742 247.041 253.941Z" fill="black"/>
<path d="M250.937 255.243C250.937 255.056 250.937 254.981 250.74 254.981C250.618 254.981 250.609 254.99 250.515 255.121L247.527 259.458V259.767H250.169V260.545C250.169 260.891 250.141 260.994 249.419 260.994H249.204V261.303C250 261.275 250.019 261.275 250.553 261.275C251.087 261.275 251.105 261.275 251.902 261.303V260.994H251.686C250.965 260.994 250.937 260.891 250.937 260.545V259.767H251.93V259.458H250.937V255.243ZM250.234 256.002V259.458H247.855L250.234 256.002Z" fill="black"/>
<path d="M202.4 231.2L199.413 239.329L207.946 237.851L202.4 231.2ZM198.289 276.696C201.517 269.176 203.551 263.049 204.51 256.985C205.469 250.914 205.343 244.944 204.294 237.743L202.81 237.96C203.843 245.053 203.958 250.866 203.028 256.751C202.097 262.642 200.114 268.641 196.911 276.104L198.289 276.696Z" fill="#B39735"/>
<path d="M198 220L198 276" stroke="black" stroke-width="2"/>
<circle cx="198" cy="220" r="11" transform="rotate(90 198 220)" fill="white" stroke="black" stroke-width="2"/>
<path d="M199.041 216.941C199.041 216.056 198.592 216 198.479 216C198.142 216 197.833 216.337 197.833 216.618C197.833 216.787 197.931 216.885 197.988 216.941C198.128 217.068 198.493 217.447 198.493 218.178C198.493 218.768 197.65 222.055 195.964 222.055C195.107 222.055 194.939 221.339 194.939 220.819C194.939 220.117 195.262 219.133 195.641 218.121C195.866 217.545 195.922 217.405 195.922 217.124C195.922 216.534 195.501 216 194.812 216C193.52 216 193 218.037 193 218.15C193 218.206 193.056 218.276 193.155 218.276C193.281 218.276 193.295 218.22 193.351 218.023C193.688 216.815 194.236 216.281 194.77 216.281C194.897 216.281 195.136 216.281 195.136 216.745C195.136 217.11 194.981 217.517 194.77 218.051C194.096 219.85 194.096 220.285 194.096 220.622C194.096 220.931 194.138 221.507 194.574 221.901C195.079 222.336 195.782 222.336 195.908 222.336C198.24 222.336 199.041 217.742 199.041 216.941Z" fill="black"/>
<path d="M201.616 221.175C202.356 221.175 202.824 221.718 202.824 222.702C202.824 223.872 202.159 224.219 201.663 224.219C201.148 224.219 200.445 224.032 200.117 223.535C200.455 223.535 200.689 223.32 200.689 223.011C200.689 222.711 200.473 222.496 200.174 222.496C199.921 222.496 199.659 222.655 199.659 223.029C199.659 223.919 200.614 224.5 201.682 224.5C202.927 224.5 203.798 223.638 203.798 222.702C203.798 221.924 203.18 221.212 202.225 221.006C202.965 220.744 203.517 220.107 203.517 219.358C203.517 218.609 202.674 218.075 201.7 218.075C200.698 218.075 199.94 218.618 199.94 219.33C199.94 219.676 200.174 219.826 200.417 219.826C200.708 219.826 200.895 219.62 200.895 219.349C200.895 219.002 200.595 218.871 200.389 218.861C200.782 218.346 201.504 218.318 201.672 218.318C201.916 218.318 202.628 218.393 202.628 219.358C202.628 220.014 202.356 220.407 202.225 220.557C201.944 220.847 201.728 220.866 201.157 220.903C200.979 220.913 200.904 220.922 200.904 221.044C200.904 221.175 200.989 221.175 201.148 221.175H201.616Z" fill="black"/>
<circle cx="198" cy="276" r="11" transform="rotate(90 198 276)" fill="white" stroke="#B39735" stroke-width="2"/>
<path d="M199.041 272.941C199.041 272.056 198.592 272 198.479 272C198.142 272 197.833 272.337 197.833 272.618C197.833 272.787 197.931 272.885 197.988 272.941C198.128 273.068 198.493 273.447 198.493 274.178C198.493 274.768 197.65 278.055 195.964 278.055C195.107 278.055 194.939 277.339 194.939 276.819C194.939 276.117 195.262 275.133 195.641 274.121C195.866 273.545 195.922 273.405 195.922 273.124C195.922 272.534 195.501 272 194.812 272C193.52 272 193 274.037 193 274.15C193 274.206 193.056 274.276 193.155 274.276C193.281 274.276 193.295 274.22 193.351 274.023C193.688 272.815 194.236 272.281 194.77 272.281C194.897 272.281 195.136 272.281 195.136 272.745C195.136 273.11 194.981 273.517 194.77 274.051C194.096 275.85 194.096 276.285 194.096 276.622C194.096 276.931 194.138 277.507 194.574 277.901C195.079 278.336 195.782 278.336 195.908 278.336C198.24 278.336 199.041 273.742 199.041 272.941Z" fill="#66571E"/>
<path d="M202.937 274.243C202.937 274.056 202.937 273.981 202.74 273.981C202.618 273.981 202.609 273.99 202.515 274.121L199.527 278.458V278.767H202.169V279.545C202.169 279.891 202.141 279.994 201.419 279.994H201.204V280.303C202 280.275 202.019 280.275 202.553 280.275C203.087 280.275 203.105 280.275 203.902 280.303V279.994H203.686C202.965 279.994 202.937 279.891 202.937 279.545V278.767H203.93V278.458H202.937V274.243ZM202.234 275.002V278.458H199.855L202.234 275.002Z" fill="#66571E"/>
<path d="M184 166L174 160.226V171.774L184 166ZM129 167H175V165H129V167Z" fill="black"/>
<path d="M113.726 14V3.33594H116.736C117.664 3.33594 118.484 3.54102 119.197 3.95117C119.91 4.36133 120.459 4.94482 120.845 5.70166C121.235 6.4585 121.433 7.32764 121.438 8.30908V8.99023C121.438 9.99609 121.243 10.8774 120.852 11.6343C120.466 12.3911 119.912 12.9722 119.189 13.3774C118.472 13.7827 117.634 13.9902 116.677 14H113.726ZM115.132 4.49316V12.8501H116.611C117.695 12.8501 118.538 12.5132 119.138 11.8394C119.744 11.1655 120.046 10.2061 120.046 8.96094V8.33838C120.046 7.12744 119.761 6.1875 119.189 5.51855C118.623 4.84473 117.817 4.50293 116.772 4.49316H115.132ZM126.646 14.1465C125.571 14.1465 124.697 13.7949 124.023 13.0918C123.35 12.3838 123.013 11.439 123.013 10.2573V10.0083C123.013 9.22217 123.162 8.52148 123.459 7.90625C123.762 7.28613 124.182 6.80273 124.719 6.45605C125.261 6.10449 125.847 5.92871 126.477 5.92871C127.507 5.92871 128.308 6.26807 128.879 6.94678C129.451 7.62549 129.736 8.59717 129.736 9.86182V10.4258H124.368C124.387 11.207 124.614 11.8394 125.049 12.3228C125.488 12.8013 126.045 13.0405 126.719 13.0405C127.197 13.0405 127.603 12.9429 127.935 12.7476C128.267 12.5522 128.557 12.2935 128.806 11.9712L129.634 12.6157C128.97 13.6362 127.974 14.1465 126.646 14.1465ZM126.477 7.04199C125.93 7.04199 125.471 7.24219 125.1 7.64258C124.729 8.03809 124.5 8.59473 124.412 9.3125H128.381V9.20996C128.342 8.52148 128.157 7.98926 127.825 7.61328C127.493 7.23242 127.043 7.04199 126.477 7.04199ZM134.49 13.0405C134.973 13.0405 135.396 12.894 135.757 12.6011C136.118 12.3081 136.318 11.9419 136.357 11.5024H137.639C137.615 11.9565 137.458 12.3887 137.17 12.7988C136.882 13.209 136.497 13.5361 136.013 13.7803C135.535 14.0244 135.027 14.1465 134.49 14.1465C133.411 14.1465 132.551 13.7876 131.912 13.0698C131.277 12.3472 130.959 11.3608 130.959 10.1108V9.88379C130.959 9.1123 131.101 8.42627 131.384 7.82568C131.667 7.2251 132.073 6.75879 132.6 6.42676C133.132 6.09473 133.76 5.92871 134.482 5.92871C135.371 5.92871 136.108 6.19482 136.694 6.72705C137.285 7.25928 137.6 7.9502 137.639 8.7998H136.357C136.318 8.28711 136.123 7.86719 135.771 7.54004C135.425 7.20801 134.995 7.04199 134.482 7.04199C133.794 7.04199 133.259 7.29102 132.878 7.78906C132.502 8.28223 132.314 8.99756 132.314 9.93506V10.1914C132.314 11.1045 132.502 11.8076 132.878 12.3008C133.254 12.7939 133.792 13.0405 134.49 13.0405ZM138.804 9.96436C138.804 9.18799 138.955 8.48975 139.258 7.86963C139.565 7.24951 139.99 6.771 140.532 6.43408C141.079 6.09717 141.702 5.92871 142.4 5.92871C143.479 5.92871 144.351 6.30225 145.015 7.04932C145.684 7.79639 146.018 8.79004 146.018 10.0303V10.1255C146.018 10.897 145.869 11.5903 145.571 12.2056C145.278 12.8159 144.856 13.292 144.304 13.6338C143.757 13.9756 143.127 14.1465 142.415 14.1465C141.34 14.1465 140.469 13.7729 139.8 13.0259C139.136 12.2788 138.804 11.29 138.804 10.0596V9.96436ZM140.166 10.1255C140.166 11.0044 140.369 11.71 140.774 12.2422C141.184 12.7744 141.731 13.0405 142.415 13.0405C143.103 13.0405 143.65 12.772 144.055 12.2349C144.46 11.6929 144.663 10.936 144.663 9.96436C144.663 9.09521 144.456 8.39209 144.041 7.85498C143.63 7.31299 143.083 7.04199 142.4 7.04199C141.731 7.04199 141.191 7.30811 140.781 7.84033C140.371 8.37256 140.166 9.13428 140.166 10.1255ZM148.992 6.0752L149.028 6.9541C149.609 6.27051 150.393 5.92871 151.379 5.92871C152.488 5.92871 153.242 6.35352 153.643 7.20312C153.906 6.82227 154.248 6.51465 154.668 6.28027C155.093 6.0459 155.593 5.92871 156.169 5.92871C157.908 5.92871 158.792 6.84912 158.821 8.68994V14H157.466V8.77051C157.466 8.2041 157.336 7.78174 157.078 7.50342C156.819 7.22021 156.384 7.07861 155.774 7.07861C155.271 7.07861 154.854 7.22998 154.521 7.53271C154.189 7.83057 153.997 8.2334 153.943 8.74121V14H152.581V8.80713C152.581 7.65479 152.017 7.07861 150.889 7.07861C150 7.07861 149.392 7.45703 149.065 8.21387V14H147.71V6.0752H148.992ZM167.566 10.1255C167.566 11.3315 167.29 12.3032 166.738 13.0405C166.187 13.7778 165.439 14.1465 164.497 14.1465C163.535 14.1465 162.778 13.8413 162.227 13.231V17.0469H160.872V6.0752H162.109L162.175 6.9541C162.727 6.27051 163.494 5.92871 164.475 5.92871C165.427 5.92871 166.179 6.2876 166.731 7.00537C167.288 7.72314 167.566 8.72168 167.566 10.001V10.1255ZM166.211 9.97168C166.211 9.07812 166.021 8.37256 165.64 7.85498C165.259 7.3374 164.736 7.07861 164.072 7.07861C163.252 7.07861 162.637 7.44238 162.227 8.16992V11.9565C162.632 12.6792 163.252 13.0405 164.087 13.0405C164.736 13.0405 165.251 12.7842 165.632 12.2715C166.018 11.7539 166.211 10.9873 166.211 9.97168ZM168.936 9.96436C168.936 9.18799 169.087 8.48975 169.39 7.86963C169.697 7.24951 170.122 6.771 170.664 6.43408C171.211 6.09717 171.833 5.92871 172.532 5.92871C173.611 5.92871 174.482 6.30225 175.146 7.04932C175.815 7.79639 176.15 8.79004 176.15 10.0303V10.1255C176.15 10.897 176.001 11.5903 175.703 12.2056C175.41 12.8159 174.988 13.292 174.436 13.6338C173.889 13.9756 173.259 14.1465 172.546 14.1465C171.472 14.1465 170.601 13.7729 169.932 13.0259C169.268 12.2788 168.936 11.29 168.936 10.0596V9.96436ZM170.298 10.1255C170.298 11.0044 170.5 11.71 170.906 12.2422C171.316 12.7744 171.863 13.0405 172.546 13.0405C173.235 13.0405 173.782 12.772 174.187 12.2349C174.592 11.6929 174.795 10.936 174.795 9.96436C174.795 9.09521 174.587 8.39209 174.172 7.85498C173.762 7.31299 173.215 7.04199 172.532 7.04199C171.863 7.04199 171.323 7.30811 170.913 7.84033C170.503 8.37256 170.298 9.13428 170.298 10.1255ZM182.463 11.8979C182.463 11.5317 182.324 11.2485 182.046 11.0483C181.772 10.8433 181.292 10.6675 180.603 10.521C179.919 10.3745 179.375 10.1987 178.97 9.99365C178.569 9.78857 178.271 9.54443 178.076 9.26123C177.886 8.97803 177.791 8.64111 177.791 8.25049C177.791 7.60107 178.064 7.05176 178.611 6.60254C179.163 6.15332 179.866 5.92871 180.72 5.92871C181.619 5.92871 182.346 6.16064 182.903 6.62451C183.464 7.08838 183.745 7.68164 183.745 8.4043H182.383C182.383 8.0332 182.224 7.71338 181.907 7.44482C181.594 7.17627 181.199 7.04199 180.72 7.04199C180.227 7.04199 179.841 7.14941 179.563 7.36426C179.285 7.5791 179.146 7.85986 179.146 8.20654C179.146 8.53369 179.275 8.78027 179.534 8.94629C179.792 9.1123 180.259 9.271 180.933 9.42236C181.611 9.57373 182.161 9.75439 182.581 9.96436C183 10.1743 183.311 10.4282 183.511 10.7261C183.716 11.019 183.818 11.3779 183.818 11.8027C183.818 12.5107 183.535 13.0796 182.969 13.5093C182.402 13.9341 181.667 14.1465 180.764 14.1465C180.129 14.1465 179.568 14.0342 179.08 13.8096C178.591 13.585 178.208 13.2725 177.93 12.8721C177.656 12.4668 177.52 12.0298 177.52 11.561H178.875C178.899 12.0151 179.08 12.3765 179.417 12.645C179.758 12.9087 180.208 13.0405 180.764 13.0405C181.277 13.0405 181.687 12.938 181.995 12.7329C182.307 12.5229 182.463 12.2446 182.463 11.8979ZM188.872 14.1465C187.798 14.1465 186.924 13.7949 186.25 13.0918C185.576 12.3838 185.239 11.439 185.239 10.2573V10.0083C185.239 9.22217 185.388 8.52148 185.686 7.90625C185.989 7.28613 186.409 6.80273 186.946 6.45605C187.488 6.10449 188.074 5.92871 188.704 5.92871C189.734 5.92871 190.535 6.26807 191.106 6.94678C191.677 7.62549 191.963 8.59717 191.963 9.86182V10.4258H186.594C186.614 11.207 186.841 11.8394 187.275 12.3228C187.715 12.8013 188.271 13.0405 188.945 13.0405C189.424 13.0405 189.829 12.9429 190.161 12.7476C190.493 12.5522 190.784 12.2935 191.033 11.9712L191.86 12.6157C191.196 13.6362 190.2 14.1465 188.872 14.1465ZM188.704 7.04199C188.157 7.04199 187.698 7.24219 187.327 7.64258C186.956 8.03809 186.726 8.59473 186.638 9.3125H190.608V9.20996C190.569 8.52148 190.383 7.98926 190.051 7.61328C189.719 7.23242 189.27 7.04199 188.704 7.04199Z" fill="black"/>
<path d="M202.275 325.616C202.143 326.744 201.726 327.616 201.022 328.231C200.324 328.841 199.394 329.146 198.232 329.146C196.972 329.146 195.961 328.695 195.2 327.792C194.443 326.888 194.064 325.68 194.064 324.166V323.141C194.064 322.149 194.24 321.278 194.592 320.526C194.948 319.774 195.451 319.198 196.101 318.797C196.75 318.392 197.502 318.189 198.356 318.189C199.489 318.189 200.397 318.507 201.081 319.142C201.765 319.771 202.163 320.646 202.275 321.764H200.861C200.739 320.914 200.473 320.299 200.063 319.918C199.658 319.537 199.089 319.347 198.356 319.347C197.458 319.347 196.752 319.679 196.24 320.343C195.732 321.007 195.478 321.952 195.478 323.177V324.21C195.478 325.367 195.72 326.288 196.203 326.971C196.687 327.655 197.363 327.997 198.232 327.997C199.013 327.997 199.611 327.821 200.026 327.469C200.446 327.113 200.725 326.495 200.861 325.616H202.275ZM203.63 324.964C203.63 324.188 203.781 323.49 204.084 322.87C204.392 322.25 204.816 321.771 205.358 321.434C205.905 321.097 206.528 320.929 207.226 320.929C208.305 320.929 209.177 321.302 209.841 322.049C210.51 322.796 210.844 323.79 210.844 325.03V325.125C210.844 325.897 210.695 326.59 210.397 327.206C210.104 327.816 209.682 328.292 209.13 328.634C208.583 328.976 207.954 329.146 207.241 329.146C206.167 329.146 205.295 328.773 204.626 328.026C203.962 327.279 203.63 326.29 203.63 325.06V324.964ZM204.992 325.125C204.992 326.004 205.195 326.71 205.6 327.242C206.01 327.774 206.557 328.041 207.241 328.041C207.929 328.041 208.476 327.772 208.881 327.235C209.287 326.693 209.489 325.936 209.489 324.964C209.489 324.095 209.282 323.392 208.867 322.855C208.457 322.313 207.91 322.042 207.226 322.042C206.557 322.042 206.018 322.308 205.607 322.84C205.197 323.373 204.992 324.134 204.992 325.125ZM213.825 321.075L213.869 322.071C214.475 321.31 215.266 320.929 216.242 320.929C217.917 320.929 218.762 321.874 218.776 323.763V329H217.421V323.756C217.417 323.185 217.285 322.762 217.026 322.489C216.772 322.215 216.374 322.079 215.832 322.079C215.393 322.079 215.007 322.196 214.675 322.43C214.343 322.665 214.084 322.972 213.898 323.353V329H212.543V321.075H213.825ZM223.435 327.162L225.397 321.075H226.782L223.94 329H222.907L220.036 321.075H221.42L223.435 327.162ZM227.609 324.964C227.609 324.188 227.761 323.49 228.063 322.87C228.371 322.25 228.796 321.771 229.338 321.434C229.885 321.097 230.507 320.929 231.206 320.929C232.285 320.929 233.156 321.302 233.82 322.049C234.489 322.796 234.824 323.79 234.824 325.03V325.125C234.824 325.897 234.675 326.59 234.377 327.206C234.084 327.816 233.662 328.292 233.11 328.634C232.563 328.976 231.933 329.146 231.22 329.146C230.146 329.146 229.274 328.773 228.605 328.026C227.941 327.279 227.609 326.29 227.609 325.06V324.964ZM228.972 325.125C228.972 326.004 229.174 326.71 229.58 327.242C229.99 327.774 230.537 328.041 231.22 328.041C231.909 328.041 232.456 327.772 232.861 327.235C233.266 326.693 233.469 325.936 233.469 324.964C233.469 324.095 233.261 323.392 232.846 322.855C232.436 322.313 231.889 322.042 231.206 322.042C230.537 322.042 229.997 322.308 229.587 322.84C229.177 323.373 228.972 324.134 228.972 325.125ZM237.995 329H236.64V317.75H237.995V329ZM245.063 328.216C244.536 328.836 243.762 329.146 242.741 329.146C241.896 329.146 241.252 328.902 240.808 328.414C240.368 327.921 240.146 327.193 240.141 326.231V321.075H241.496V326.195C241.496 327.396 241.984 327.997 242.961 327.997C243.996 327.997 244.685 327.611 245.026 326.839V321.075H246.381V329H245.092L245.063 328.216ZM250.285 319.156V321.075H251.765V322.123H250.285V327.037C250.285 327.354 250.351 327.594 250.483 327.755C250.615 327.911 250.839 327.989 251.157 327.989C251.313 327.989 251.528 327.96 251.801 327.901V329C251.445 329.098 251.098 329.146 250.761 329.146C250.156 329.146 249.699 328.963 249.392 328.597C249.084 328.231 248.93 327.711 248.93 327.037V322.123H247.487V321.075H248.93V319.156H250.285ZM254.826 329H253.471V321.075H254.826V329ZM253.361 318.973C253.361 318.753 253.427 318.568 253.559 318.417C253.696 318.265 253.896 318.189 254.16 318.189C254.423 318.189 254.624 318.265 254.76 318.417C254.897 318.568 254.965 318.753 254.965 318.973C254.965 319.193 254.897 319.376 254.76 319.522C254.624 319.669 254.423 319.742 254.16 319.742C253.896 319.742 253.696 319.669 253.559 319.522C253.427 319.376 253.361 319.193 253.361 318.973ZM256.643 324.964C256.643 324.188 256.794 323.49 257.097 322.87C257.404 322.25 257.829 321.771 258.371 321.434C258.918 321.097 259.541 320.929 260.239 320.929C261.318 320.929 262.189 321.302 262.854 322.049C263.522 322.796 263.857 323.79 263.857 325.03V325.125C263.857 325.897 263.708 326.59 263.41 327.206C263.117 327.816 262.695 328.292 262.143 328.634C261.596 328.976 260.966 329.146 260.253 329.146C259.179 329.146 258.308 328.773 257.639 328.026C256.975 327.279 256.643 326.29 256.643 325.06V324.964ZM258.005 325.125C258.005 326.004 258.208 326.71 258.613 327.242C259.023 327.774 259.57 328.041 260.253 328.041C260.942 328.041 261.489 327.772 261.894 327.235C262.299 326.693 262.502 325.936 262.502 324.964C262.502 324.095 262.294 323.392 261.879 322.855C261.469 322.313 260.922 322.042 260.239 322.042C259.57 322.042 259.03 322.308 258.62 322.84C258.21 323.373 258.005 324.134 258.005 325.125ZM266.838 321.075L266.882 322.071C267.487 321.31 268.278 320.929 269.255 320.929C270.93 320.929 271.774 321.874 271.789 323.763V329H270.434V323.756C270.429 323.185 270.297 322.762 270.039 322.489C269.785 322.215 269.387 322.079 268.845 322.079C268.405 322.079 268.02 322.196 267.688 322.43C267.355 322.665 267.097 322.972 266.911 323.353V329H265.556V321.075H266.838Z" fill="black"/>
<path d="M155.779 146.421C155.779 146.404 155.849 146.176 155.849 146.158C155.849 146 155.709 146 155.656 146C155.498 146 155.481 146.088 155.41 146.351L152.513 157.976C151.055 157.8 150.511 157.063 150.511 156.009C150.511 155.623 150.511 155.219 151.336 153.042C151.565 152.409 151.652 152.181 151.652 151.865C151.652 151.075 151.091 150.443 150.265 150.443C148.65 150.443 148 152.989 148 153.129C148 153.2 148.07 153.287 148.193 153.287C148.351 153.287 148.369 153.217 148.439 152.971C148.86 151.444 149.563 150.794 150.213 150.794C150.371 150.794 150.669 150.811 150.669 151.373C150.669 151.444 150.669 151.83 150.371 152.603C149.422 155.096 149.422 155.482 149.422 155.886C149.422 157.572 150.827 158.222 152.408 158.345C152.267 158.889 152.144 159.451 152.004 159.995C151.723 161.049 151.6 161.541 151.6 161.611C151.6 161.769 151.74 161.769 151.793 161.769C151.828 161.769 151.898 161.769 151.933 161.699C152.004 161.628 152.724 158.678 152.794 158.362C153.444 158.362 154.831 158.362 156.411 156.729C156.991 156.097 157.517 155.289 157.816 154.534C157.992 154.078 158.413 152.515 158.413 151.619C158.413 150.566 157.886 150.443 157.711 150.443C157.289 150.443 156.903 150.864 156.903 151.215C156.903 151.426 157.026 151.549 157.096 151.619C157.254 151.777 157.728 152.251 157.728 153.164C157.728 153.797 157.377 155.096 156.253 156.36C154.778 158.011 153.426 158.011 152.899 158.011L155.779 146.421Z" fill="black"/>
<path d="M348.145 57.7117C347.67 58.379 346.986 58.9761 346.125 58.9761C345.914 58.9761 345.071 58.941 344.808 58.1331C344.861 58.1507 344.948 58.1507 344.983 58.1507C345.51 58.1507 345.862 57.6941 345.862 57.2902C345.862 56.8863 345.528 56.7458 345.264 56.7458C344.983 56.7458 344.369 56.9565 344.369 57.817C344.369 58.7127 345.124 59.3273 346.125 59.3273C347.881 59.3273 349.655 57.7117 350.147 55.7623L351.868 48.9132C351.885 48.8254 351.92 48.72 351.92 48.6147C351.92 48.3512 351.71 48.1756 351.446 48.1756C351.288 48.1756 350.919 48.2459 350.779 48.7727L349.479 53.9359C349.391 54.252 349.391 54.2871 349.251 54.4803C348.9 54.972 348.32 55.5691 347.477 55.5691C346.494 55.5691 346.406 54.6032 346.406 54.1291C346.406 53.128 346.88 51.7758 347.354 50.5113C347.547 50.002 347.653 49.7562 347.653 49.4049C347.653 48.6674 347.126 48 346.265 48C344.65 48 344 50.5465 344 50.687C344 50.7572 344.07 50.845 344.193 50.845C344.351 50.845 344.369 50.7748 344.439 50.5289C344.861 49.0537 345.528 48.3512 346.213 48.3512C346.371 48.3512 346.669 48.3512 346.669 48.9308C346.669 49.3874 346.476 49.8967 346.213 50.564C345.352 52.8646 345.352 53.4442 345.352 53.8656C345.352 55.534 346.546 55.9204 347.425 55.9204C347.934 55.9204 348.566 55.7623 349.181 55.1125L349.198 55.1301C348.935 56.1662 348.759 56.8511 348.145 57.7117Z" fill="#B33535"/>
<path d="M355.555 50.9211C355.555 50.605 355.532 50.5933 355.216 50.5933C354.736 51.0616 354.115 51.3426 353.003 51.3426V51.7289C353.319 51.7289 353.951 51.7289 354.63 51.4128V57.4189C354.63 57.8521 354.595 57.9926 353.483 57.9926H353.073V58.379C353.553 58.3439 354.56 58.3439 355.087 58.3439C355.614 58.3439 356.632 58.3439 357.112 58.379V57.9926H356.703C355.59 57.9926 355.555 57.8521 355.555 57.4189V50.9211Z" fill="#B33535"/>
<path d="M348.145 130.712C347.67 131.379 346.986 131.976 346.125 131.976C345.914 131.976 345.071 131.941 344.808 131.133C344.861 131.151 344.948 131.151 344.983 131.151C345.51 131.151 345.862 130.694 345.862 130.29C345.862 129.886 345.528 129.746 345.264 129.746C344.983 129.746 344.369 129.957 344.369 130.817C344.369 131.713 345.124 132.327 346.125 132.327C347.881 132.327 349.655 130.712 350.147 128.762L351.868 121.913C351.885 121.825 351.92 121.72 351.92 121.615C351.92 121.351 351.71 121.176 351.446 121.176C351.288 121.176 350.919 121.246 350.779 121.773L349.479 126.936C349.391 127.252 349.391 127.287 349.251 127.48C348.9 127.972 348.32 128.569 347.477 128.569C346.494 128.569 346.406 127.603 346.406 127.129C346.406 126.128 346.88 124.776 347.354 123.511C347.547 123.002 347.653 122.756 347.653 122.405C347.653 121.667 347.126 121 346.265 121C344.65 121 344 123.546 344 123.687C344 123.757 344.07 123.845 344.193 123.845C344.351 123.845 344.369 123.775 344.439 123.529C344.861 122.054 345.528 121.351 346.213 121.351C346.371 121.351 346.669 121.351 346.669 121.931C346.669 122.387 346.476 122.897 346.213 123.564C345.352 125.865 345.352 126.444 345.352 126.866C345.352 128.534 346.546 128.92 347.425 128.92C347.934 128.92 348.566 128.762 349.181 128.113L349.198 128.13C348.935 129.166 348.759 129.851 348.145 130.712Z" fill="#B33535"/>
<path d="M355.181 128.991C355.368 128.815 355.86 128.429 356.047 128.265C356.773 127.597 357.464 126.953 357.464 125.888C357.464 124.495 356.293 123.593 354.829 123.593C353.424 123.593 352.499 124.659 352.499 125.701C352.499 126.274 352.956 126.356 353.12 126.356C353.366 126.356 353.729 126.181 353.729 125.736C353.729 125.127 353.143 125.127 353.003 125.127C353.342 124.272 354.127 123.98 354.701 123.98C355.789 123.98 356.351 124.905 356.351 125.888C356.351 127.106 355.497 127.995 354.115 129.412L352.64 130.934C352.499 131.063 352.499 131.086 352.499 131.379H357.124L357.464 129.283H357.101C357.066 129.517 356.972 130.103 356.831 130.325C356.761 130.419 355.871 130.419 355.684 130.419H353.6L355.181 128.991Z" fill="#B33535"/>
<path d="M348.145 206.712C347.67 207.379 346.986 207.976 346.125 207.976C345.914 207.976 345.071 207.941 344.808 207.133C344.861 207.151 344.948 207.151 344.983 207.151C345.51 207.151 345.862 206.694 345.862 206.29C345.862 205.886 345.528 205.746 345.264 205.746C344.983 205.746 344.369 205.957 344.369 206.817C344.369 207.713 345.124 208.327 346.125 208.327C347.881 208.327 349.655 206.712 350.147 204.762L351.868 197.913C351.885 197.825 351.92 197.72 351.92 197.615C351.92 197.351 351.71 197.176 351.446 197.176C351.288 197.176 350.919 197.246 350.779 197.773L349.479 202.936C349.391 203.252 349.391 203.287 349.251 203.48C348.9 203.972 348.32 204.569 347.477 204.569C346.494 204.569 346.406 203.603 346.406 203.129C346.406 202.128 346.88 200.776 347.354 199.511C347.547 199.002 347.653 198.756 347.653 198.405C347.653 197.667 347.126 197 346.265 197C344.65 197 344 199.546 344 199.687C344 199.757 344.07 199.845 344.193 199.845C344.351 199.845 344.369 199.775 344.439 199.529C344.861 198.054 345.528 197.351 346.213 197.351C346.371 197.351 346.669 197.351 346.669 197.931C346.669 198.387 346.476 198.897 346.213 199.564C345.352 201.865 345.352 202.444 345.352 202.866C345.352 204.534 346.546 204.92 347.425 204.92C347.934 204.92 348.566 204.762 349.181 204.113L349.198 204.13C348.935 205.166 348.759 205.851 348.145 206.712Z" fill="#22661E"/>
<path d="M354.841 203.469C355.766 203.469 356.351 204.148 356.351 205.377C356.351 206.84 355.52 207.274 354.9 207.274C354.256 207.274 353.378 207.039 352.968 206.419C353.389 206.419 353.682 206.15 353.682 205.763C353.682 205.389 353.413 205.119 353.038 205.119C352.722 205.119 352.394 205.318 352.394 205.787C352.394 206.899 353.588 207.625 354.923 207.625C356.48 207.625 357.569 206.548 357.569 205.377C357.569 204.405 356.796 203.515 355.602 203.258C356.527 202.93 357.218 202.134 357.218 201.197C357.218 200.261 356.164 199.593 354.946 199.593C353.694 199.593 352.745 200.272 352.745 201.162C352.745 201.595 353.038 201.783 353.342 201.783C353.705 201.783 353.94 201.525 353.94 201.186C353.94 200.752 353.565 200.588 353.307 200.577C353.799 199.933 354.701 199.898 354.911 199.898C355.216 199.898 356.106 199.991 356.106 201.197C356.106 202.017 355.766 202.509 355.602 202.696C355.251 203.059 354.982 203.082 354.267 203.129C354.045 203.141 353.951 203.152 353.951 203.305C353.951 203.469 354.057 203.469 354.256 203.469H354.841Z" fill="#22661E"/>
<path d="M348.145 281.712C347.67 282.379 346.986 282.976 346.125 282.976C345.914 282.976 345.071 282.941 344.808 282.133C344.861 282.151 344.948 282.151 344.983 282.151C345.51 282.151 345.862 281.694 345.862 281.29C345.862 280.886 345.528 280.746 345.264 280.746C344.983 280.746 344.369 280.957 344.369 281.817C344.369 282.713 345.124 283.327 346.125 283.327C347.881 283.327 349.655 281.712 350.147 279.762L351.868 272.913C351.885 272.825 351.92 272.72 351.92 272.615C351.92 272.351 351.71 272.176 351.446 272.176C351.288 272.176 350.919 272.246 350.779 272.773L349.479 277.936C349.391 278.252 349.391 278.287 349.251 278.48C348.9 278.972 348.32 279.569 347.477 279.569C346.494 279.569 346.406 278.603 346.406 278.129C346.406 277.128 346.88 275.776 347.354 274.511C347.547 274.002 347.653 273.756 347.653 273.405C347.653 272.667 347.126 272 346.265 272C344.65 272 344 274.546 344 274.687C344 274.757 344.07 274.845 344.193 274.845C344.351 274.845 344.369 274.775 344.439 274.529C344.861 273.054 345.528 272.351 346.213 272.351C346.371 272.351 346.669 272.351 346.669 272.931C346.669 273.387 346.476 273.897 346.213 274.564C345.352 276.865 345.352 277.444 345.352 277.866C345.352 279.534 346.546 279.92 347.425 279.92C347.934 279.92 348.566 279.762 349.181 279.113L349.198 279.13C348.935 280.166 348.759 280.851 348.145 281.712Z" fill="#66571E"/>
<path d="M356.492 274.804C356.492 274.57 356.492 274.476 356.246 274.476C356.094 274.476 356.082 274.488 355.965 274.652L352.23 280.073V280.459H355.532V281.431C355.532 281.864 355.497 281.993 354.595 281.993H354.326V282.379C355.321 282.344 355.344 282.344 356.012 282.344C356.679 282.344 356.703 282.344 357.698 282.379V281.993H357.428C356.527 281.993 356.492 281.864 356.492 281.431V280.459H357.733V280.073H356.492V274.804ZM355.614 275.752V280.073H352.64L355.614 275.752Z" fill="#66571E"/>
<path d="M299.936 86.6347C300.287 86.6347 300.428 86.6347 300.428 86.301C300.428 86.1254 300.287 86.1254 299.971 86.1254H298.549C298.882 84.3169 299.128 83.0701 299.269 82.5083C299.374 82.0868 299.743 81.683 300.199 81.683C300.568 81.683 300.937 81.841 301.112 81.999C300.428 82.0693 300.217 82.5785 300.217 82.877C300.217 83.2282 300.48 83.4389 300.814 83.4389C301.165 83.4389 301.692 83.1404 301.692 82.4731C301.692 81.7357 300.954 81.3318 300.182 81.3318C299.427 81.3318 298.689 81.8937 298.338 82.5785C298.022 83.1931 297.846 83.8252 297.442 86.1254H296.266C295.932 86.1254 295.757 86.1254 295.757 86.4415C295.757 86.6347 295.862 86.6347 296.213 86.6347H297.337C297.021 88.2677 296.301 92.236 295.897 94.1149C295.599 95.6425 295.335 96.9244 294.457 96.9244C294.405 96.9244 293.896 96.9244 293.579 96.5907C294.475 96.5205 294.475 95.7479 294.475 95.7303C294.475 95.3791 294.212 95.1684 293.878 95.1684C293.527 95.1684 293 95.4669 293 96.1342C293 96.8892 293.773 97.2755 294.457 97.2755C296.248 97.2755 296.986 94.0622 297.179 93.1842C297.495 91.8322 298.356 87.1614 298.443 86.6347H299.936Z" fill="black"/>
<path d="M307.257 84.8981C307.362 84.9684 307.397 84.9684 307.456 84.9684C307.643 84.9684 307.807 84.8162 307.807 84.6055C307.807 84.3831 307.69 84.3362 307.514 84.2543C306.73 83.8914 306.449 83.7626 305.875 83.5285L307.245 82.9081C307.339 82.873 307.561 82.7676 307.655 82.7325C307.772 82.6623 307.807 82.5452 307.807 82.4398C307.807 82.2994 307.737 82.077 307.386 82.077L305.7 83.2242L305.864 81.4917C305.887 81.2926 305.864 81 305.524 81C305.314 81 305.15 81.1756 305.185 81.3395V81.4799L305.349 83.2242L303.792 82.1472C303.686 82.077 303.651 82.077 303.593 82.077C303.405 82.077 303.242 82.2291 303.242 82.4398C303.242 82.6623 303.359 82.7091 303.534 82.791C304.319 83.1539 304.6 83.2827 305.173 83.5168L303.804 84.1372C303.71 84.1724 303.487 84.2777 303.394 84.3128C303.277 84.3831 303.242 84.5001 303.242 84.6055C303.242 84.8162 303.405 84.9684 303.593 84.9684C303.686 84.9684 303.71 84.9684 304.003 84.7577L305.349 83.8212L305.173 85.7059C305.173 85.94 305.372 86.0453 305.524 86.0453C305.676 86.0453 305.875 85.94 305.875 85.7059C305.875 85.5888 305.829 85.2142 305.817 85.0737C305.77 84.6757 305.735 84.2309 305.7 83.8212L307.257 84.8981Z" fill="black"/>
<path d="M299.936 186.635C300.287 186.635 300.428 186.635 300.428 186.301C300.428 186.125 300.287 186.125 299.971 186.125H298.549C298.882 184.317 299.128 183.07 299.269 182.508C299.374 182.087 299.743 181.683 300.199 181.683C300.568 181.683 300.937 181.841 301.112 181.999C300.428 182.069 300.217 182.578 300.217 182.877C300.217 183.228 300.48 183.439 300.814 183.439C301.165 183.439 301.692 183.14 301.692 182.473C301.692 181.736 300.954 181.332 300.182 181.332C299.427 181.332 298.689 181.894 298.338 182.578C298.022 183.193 297.846 183.825 297.442 186.125H296.266C295.932 186.125 295.757 186.125 295.757 186.442C295.757 186.635 295.862 186.635 296.213 186.635H297.337C297.021 188.268 296.301 192.236 295.897 194.115C295.599 195.643 295.335 196.924 294.457 196.924C294.405 196.924 293.896 196.924 293.579 196.591C294.475 196.52 294.475 195.748 294.475 195.73C294.475 195.379 294.212 195.168 293.878 195.168C293.527 195.168 293 195.467 293 196.134C293 196.889 293.773 197.276 294.457 197.276C296.248 197.276 296.986 194.062 297.179 193.184C297.495 191.832 298.356 187.161 298.443 186.635H299.936Z" fill="black"/>
<path d="M307.257 184.898C307.362 184.968 307.397 184.968 307.456 184.968C307.643 184.968 307.807 184.816 307.807 184.605C307.807 184.383 307.69 184.336 307.514 184.254C306.73 183.891 306.449 183.763 305.875 183.529L307.245 182.908C307.339 182.873 307.561 182.768 307.655 182.732C307.772 182.662 307.807 182.545 307.807 182.44C307.807 182.299 307.737 182.077 307.386 182.077L305.7 183.224L305.864 181.492C305.887 181.293 305.864 181 305.524 181C305.314 181 305.15 181.176 305.185 181.339V181.48L305.349 183.224L303.792 182.147C303.686 182.077 303.651 182.077 303.593 182.077C303.405 182.077 303.242 182.229 303.242 182.44C303.242 182.662 303.359 182.709 303.534 182.791C304.319 183.154 304.6 183.283 305.173 183.517L303.804 184.137C303.71 184.172 303.487 184.278 303.394 184.313C303.277 184.383 303.242 184.5 303.242 184.605C303.242 184.816 303.405 184.968 303.593 184.968C303.686 184.968 303.71 184.968 304.003 184.758L305.349 183.821L305.173 185.706C305.173 185.94 305.372 186.045 305.524 186.045C305.676 186.045 305.875 185.94 305.875 185.706C305.875 185.589 305.829 185.214 305.817 185.074C305.77 184.676 305.735 184.231 305.7 183.821L307.257 184.898Z" fill="black"/>
<path d="M299.936 261.635C300.287 261.635 300.428 261.635 300.428 261.301C300.428 261.125 300.287 261.125 299.971 261.125H298.549C298.882 259.317 299.128 258.07 299.269 257.508C299.374 257.087 299.743 256.683 300.199 256.683C300.568 256.683 300.937 256.841 301.112 256.999C300.428 257.069 300.217 257.578 300.217 257.877C300.217 258.228 300.48 258.439 300.814 258.439C301.165 258.439 301.692 258.14 301.692 257.473C301.692 256.736 300.954 256.332 300.182 256.332C299.427 256.332 298.689 256.894 298.338 257.578C298.022 258.193 297.846 258.825 297.442 261.125H296.266C295.932 261.125 295.757 261.125 295.757 261.442C295.757 261.635 295.862 261.635 296.213 261.635H297.337C297.021 263.268 296.301 267.236 295.897 269.115C295.599 270.643 295.335 271.924 294.457 271.924C294.405 271.924 293.896 271.924 293.579 271.591C294.475 271.52 294.475 270.748 294.475 270.73C294.475 270.379 294.212 270.168 293.878 270.168C293.527 270.168 293 270.467 293 271.134C293 271.889 293.773 272.276 294.457 272.276C296.248 272.276 296.986 269.062 297.179 268.184C297.495 266.832 298.356 262.161 298.443 261.635H299.936Z" fill="black"/>
<path d="M307.257 259.898C307.362 259.968 307.397 259.968 307.456 259.968C307.643 259.968 307.807 259.816 307.807 259.605C307.807 259.383 307.69 259.336 307.514 259.254C306.73 258.891 306.449 258.763 305.875 258.529L307.245 257.908C307.339 257.873 307.561 257.768 307.655 257.732C307.772 257.662 307.807 257.545 307.807 257.44C307.807 257.299 307.737 257.077 307.386 257.077L305.7 258.224L305.864 256.492C305.887 256.293 305.864 256 305.524 256C305.314 256 305.15 256.176 305.185 256.339V256.48L305.349 258.224L303.792 257.147C303.686 257.077 303.651 257.077 303.593 257.077C303.405 257.077 303.242 257.229 303.242 257.44C303.242 257.662 303.359 257.709 303.534 257.791C304.319 258.154 304.6 258.283 305.173 258.517L303.804 259.137C303.71 259.172 303.487 259.278 303.394 259.313C303.277 259.383 303.242 259.5 303.242 259.605C303.242 259.816 303.405 259.968 303.593 259.968C303.686 259.968 303.71 259.968 304.003 259.758L305.349 258.821L305.173 260.706C305.173 260.94 305.372 261.045 305.524 261.045C305.676 261.045 305.875 260.94 305.875 260.706C305.875 260.589 305.829 260.214 305.817 260.074C305.77 259.676 305.735 259.231 305.7 258.821L307.257 259.898Z" fill="black"/>
<path d="M129 294V294C129 298.418 132.582 302 137 302H213.281C221.072 302 228.396 305.714 233 312V312V312C237.604 305.714 244.928 302 252.719 302H329C333.418 302 337 298.418 337 294V294" stroke="black"/>
<line x1="153.5" y1="20" x2="153.5" y2="142" stroke="black" stroke-dasharray="2 2"/>
</svg>
