<svg width="617" height="333" viewBox="0 0 617 333" fill="none" xmlns="http://www.w3.org/2000/svg">
<path d="M60 164L60 234M60 164L105 94L15 94L60 164Z" stroke="#355FB3" stroke-width="2"/>
<circle cx="15" cy="94" r="14" fill="white" stroke="#355FB3" stroke-width="2"/>
<path d="M15.5516 90.1766C15.5516 89.0702 14.9896 89 14.8491 89C14.4276 89 14.0413 89.4215 14.0413 89.7727C14.0413 89.9835 14.1642 90.1064 14.2344 90.1766C14.4101 90.3347 14.8667 90.8089 14.8667 91.7221C14.8667 92.4597 13.813 96.5692 11.7055 96.5692C10.6343 96.5692 10.4235 95.6735 10.4235 95.0237C10.4235 94.1456 10.8275 92.9163 11.3016 91.6518C11.5826 90.9318 11.6529 90.7562 11.6529 90.4049C11.6529 89.6674 11.126 89 10.2655 89C8.64979 89 8 91.5465 8 91.687C8 91.7572 8.07025 91.845 8.19318 91.845C8.35124 91.845 8.3688 91.7748 8.43905 91.5289C8.86053 90.0186 9.54543 89.3512 10.2128 89.3512C10.3709 89.3512 10.6694 89.3512 10.6694 89.9308C10.6694 90.3874 10.4762 90.8967 10.2128 91.564C9.36982 93.8119 9.36982 94.3564 9.36982 94.7778C9.36982 95.1642 9.42251 95.8842 9.96693 96.376C10.5991 96.9204 11.4772 96.9204 11.6353 96.9204C14.5506 96.9204 15.5516 91.1777 15.5516 90.1766Z" fill="#355FB3"/>
<path d="M19.4844 91.9211C19.4844 91.605 19.4609 91.5933 19.1448 91.5933C18.6648 92.0616 18.0443 92.3426 16.932 92.3426V92.7289C17.2482 92.7289 17.8804 92.7289 18.5594 92.4128V98.419C18.5594 98.8521 18.5243 98.9926 17.4121 98.9926H17.0023V99.379C17.4823 99.3439 18.4892 99.3439 19.016 99.3439C19.5429 99.3439 20.5615 99.3439 21.0415 99.379V98.9926H20.6317C19.5195 98.9926 19.4844 98.8521 19.4844 98.419V91.9211Z" fill="#355FB3"/>
<circle cx="105" cy="94" r="14" fill="white" stroke="#355FB3" stroke-width="2"/>
<path d="M105.552 90.1766C105.552 89.0702 104.99 89 104.849 89C104.428 89 104.041 89.4215 104.041 89.7727C104.041 89.9835 104.164 90.1064 104.234 90.1766C104.41 90.3347 104.867 90.8089 104.867 91.7221C104.867 92.4597 103.813 96.5692 101.706 96.5692C100.634 96.5692 100.424 95.6735 100.424 95.0237C100.424 94.1456 100.827 92.9163 101.302 91.6518C101.583 90.9318 101.653 90.7562 101.653 90.4049C101.653 89.6674 101.126 89 100.265 89C98.6498 89 98 91.5465 98 91.687C98 91.7572 98.0702 91.845 98.1932 91.845C98.3512 91.845 98.3688 91.7748 98.439 91.5289C98.8605 90.0186 99.5454 89.3512 100.213 89.3512C100.371 89.3512 100.669 89.3512 100.669 89.9308C100.669 90.3874 100.476 90.8967 100.213 91.564C99.3698 93.8119 99.3698 94.3564 99.3698 94.7778C99.3698 95.1642 99.4225 95.8842 99.9669 96.376C100.599 96.9204 101.477 96.9204 101.635 96.9204C104.551 96.9204 105.552 91.1777 105.552 90.1766Z" fill="#355FB3"/>
<path d="M109.11 96.9906C109.297 96.815 109.789 96.4286 109.976 96.2647C110.702 95.5973 111.393 94.9534 111.393 93.888C111.393 92.4948 110.222 91.5933 108.758 91.5933C107.353 91.5933 106.429 92.6587 106.429 93.7007C106.429 94.2744 106.885 94.3563 107.049 94.3563C107.295 94.3563 107.658 94.1807 107.658 93.7358C107.658 93.127 107.073 93.127 106.932 93.127C107.272 92.2723 108.056 91.9796 108.63 91.9796C109.718 91.9796 110.28 92.9045 110.28 93.888C110.28 95.1056 109.426 95.9954 108.044 97.4121L106.569 98.9341C106.429 99.0629 106.429 99.0863 106.429 99.379H111.053L111.393 97.2833H111.03C110.995 97.5174 110.901 98.1028 110.76 98.3253C110.69 98.419 109.8 98.419 109.613 98.419H107.529L109.11 96.9906Z" fill="#355FB3"/>
<circle cx="60" cy="164" r="14" fill="white" stroke="#355FB3" stroke-width="2"/>
<path d="M60.5516 160.177C60.5516 159.07 59.9896 159 59.8491 159C59.4276 159 59.0413 159.421 59.0413 159.773C59.0413 159.983 59.1642 160.106 59.2344 160.177C59.4101 160.335 59.8667 160.809 59.8667 161.722C59.8667 162.46 58.813 166.569 56.7055 166.569C55.6343 166.569 55.4235 165.673 55.4235 165.024C55.4235 164.146 55.8275 162.916 56.3016 161.652C56.5826 160.932 56.6529 160.756 56.6529 160.405C56.6529 159.667 56.126 159 55.2655 159C53.6498 159 53 161.546 53 161.687C53 161.757 53.0702 161.845 53.1932 161.845C53.3512 161.845 53.3688 161.775 53.439 161.529C53.8605 160.019 54.5454 159.351 55.2128 159.351C55.3709 159.351 55.6694 159.351 55.6694 159.931C55.6694 160.387 55.4762 160.897 55.2128 161.564C54.3698 163.812 54.3698 164.356 54.3698 164.778C54.3698 165.164 54.4225 165.884 54.9669 166.376C55.5991 166.92 56.4772 166.92 56.6353 166.92C59.5506 166.92 60.5516 161.178 60.5516 160.177Z" fill="#355FB3"/>
<path d="M63.7701 165.469C64.695 165.469 65.2804 166.148 65.2804 167.377C65.2804 168.84 64.4491 169.274 63.8286 169.274C63.1847 169.274 62.3066 169.039 61.8968 168.419C62.3183 168.419 62.611 168.15 62.611 167.763C62.611 167.389 62.3417 167.119 61.9671 167.119C61.651 167.119 61.3232 167.318 61.3232 167.787C61.3232 168.899 62.5174 169.625 63.8521 169.625C65.4092 169.625 66.498 168.548 66.498 167.377C66.498 166.405 65.7253 165.515 64.5311 165.258C65.456 164.93 66.1468 164.134 66.1468 163.197C66.1468 162.261 65.0931 161.593 63.8755 161.593C62.6227 161.593 61.6744 162.272 61.6744 163.162C61.6744 163.595 61.9671 163.783 62.2715 163.783C62.6344 163.783 62.8686 163.525 62.8686 163.186C62.8686 162.752 62.4939 162.588 62.2364 162.577C62.7281 161.933 63.6296 161.898 63.8403 161.898C64.1447 161.898 65.0346 161.991 65.0346 163.197C65.0346 164.017 64.695 164.509 64.5311 164.696C64.1799 165.059 63.9106 165.082 63.1964 165.129C62.974 165.141 62.8803 165.152 62.8803 165.305C62.8803 165.469 62.9857 165.469 63.1847 165.469H63.7701Z" fill="#355FB3"/>
<circle cx="60" cy="234" r="14" fill="white" stroke="#355FB3" stroke-width="2"/>
<path d="M60.5516 230.177C60.5516 229.07 59.9896 229 59.8491 229C59.4276 229 59.0413 229.421 59.0413 229.773C59.0413 229.983 59.1642 230.106 59.2344 230.177C59.4101 230.335 59.8667 230.809 59.8667 231.722C59.8667 232.46 58.813 236.569 56.7055 236.569C55.6343 236.569 55.4235 235.673 55.4235 235.024C55.4235 234.146 55.8275 232.916 56.3016 231.652C56.5826 230.932 56.6529 230.756 56.6529 230.405C56.6529 229.667 56.126 229 55.2655 229C53.6498 229 53 231.546 53 231.687C53 231.757 53.0702 231.845 53.1932 231.845C53.3512 231.845 53.3688 231.775 53.439 231.529C53.8605 230.019 54.5454 229.351 55.2128 229.351C55.3709 229.351 55.6694 229.351 55.6694 229.931C55.6694 230.387 55.4762 230.897 55.2128 231.564C54.3698 233.812 54.3698 234.356 54.3698 234.778C54.3698 235.164 54.4225 235.884 54.9669 236.376C55.5991 236.92 56.4772 236.92 56.6353 236.92C59.5506 236.92 60.5516 231.178 60.5516 230.177Z" fill="#355FB3"/>
<path d="M65.421 231.804C65.421 231.57 65.421 231.476 65.1751 231.476C65.0229 231.476 65.0112 231.488 64.8942 231.652L61.1593 237.073V237.459H64.461V238.431C64.461 238.864 64.4258 238.993 63.5243 238.993H63.255V239.379C64.2502 239.344 64.2736 239.344 64.941 239.344C65.6083 239.344 65.6318 239.344 66.6269 239.379V238.993H66.3576C65.4561 238.993 65.421 238.864 65.421 238.431V237.459H66.662V237.073H65.421V231.804ZM64.5429 232.752V237.073H61.5691L64.5429 232.752Z" fill="#355FB3"/>
<path d="M15.8354 114.58C15.2732 114.685 15.0624 115.107 15.0624 115.441C15.0624 115.862 15.3961 116.003 15.6421 116.003C16.1691 116.003 16.5381 115.546 16.5381 115.072C16.5381 114.334 15.6948 114 14.9569 114C13.8853 114 13.288 115.054 13.1299 115.388C12.7258 114.07 11.6366 114 11.3204 114C9.52841 114 8.57974 116.301 8.57974 116.688C8.57974 116.758 8.65002 116.846 8.77299 116.846C8.91354 116.846 8.94867 116.741 8.9838 116.67C9.58112 114.72 10.7582 114.351 11.2677 114.351C12.0582 114.351 12.2163 115.089 12.2163 115.511C12.2163 115.897 12.1109 116.301 11.9001 117.145L11.3028 119.551C11.0393 120.606 10.5298 121.572 9.5987 121.572C9.51085 121.572 9.07165 121.572 8.70272 121.343C9.33518 121.22 9.47572 120.693 9.47572 120.483C9.47572 120.131 9.21219 119.92 8.8784 119.92C8.45677 119.92 8 120.289 8 120.852C8 121.589 8.8257 121.923 9.58112 121.923C10.4244 121.923 11.0217 121.256 11.3906 120.535C11.6717 121.572 12.5501 121.923 13.2001 121.923C14.9921 121.923 15.9408 119.622 15.9408 119.235C15.9408 119.147 15.8705 119.077 15.7651 119.077C15.607 119.077 15.5894 119.165 15.5367 119.306C15.0624 120.852 14.0434 121.572 13.2528 121.572C12.638 121.572 12.3042 121.115 12.3042 120.395C12.3042 120.008 12.3744 119.727 12.6555 118.568L13.2704 116.178C13.5339 115.124 14.1313 114.351 14.9394 114.351C14.9745 114.351 15.4664 114.351 15.8354 114.58Z" fill="#355FB3"/>
<path d="M20.9243 116.922C20.9243 116.606 20.9009 116.594 20.5846 116.594C20.1044 117.063 19.4837 117.344 18.3711 117.344V117.73C18.6873 117.73 19.3197 117.73 19.999 117.414V123.422C19.999 123.856 19.9639 123.996 18.8513 123.996H18.4413V124.383C18.9215 124.348 19.9288 124.348 20.4558 124.348C20.9828 124.348 22.0018 124.348 22.482 124.383V123.996H22.0721C20.9594 123.996 20.9243 123.856 20.9243 123.422L20.9243 116.922Z" fill="#355FB3"/>
<path d="M105.835 114.58C105.273 114.685 105.062 115.107 105.062 115.441C105.062 115.862 105.396 116.003 105.642 116.003C106.169 116.003 106.538 115.546 106.538 115.072C106.538 114.334 105.695 114 104.957 114C103.885 114 103.288 115.054 103.13 115.388C102.726 114.07 101.636 114 101.32 114C99.5284 114 98.5797 116.301 98.5797 116.688C98.5797 116.758 98.65 116.846 98.773 116.846C98.9135 116.846 98.9487 116.741 98.9838 116.67C99.5811 114.72 100.758 114.351 101.268 114.351C102.058 114.351 102.216 115.089 102.216 115.511C102.216 115.897 102.111 116.301 101.9 117.145L101.303 119.551C101.039 120.605 100.53 121.572 99.5987 121.572C99.5108 121.572 99.0716 121.572 98.7027 121.343C99.3351 121.22 99.4757 120.693 99.4757 120.482C99.4757 120.131 99.2122 119.92 98.8784 119.92C98.4568 119.92 98 120.289 98 120.851C98 121.589 98.8257 121.923 99.5811 121.923C100.424 121.923 101.022 121.255 101.391 120.535C101.672 121.572 102.55 121.923 103.2 121.923C104.992 121.923 105.941 119.622 105.941 119.235C105.941 119.147 105.87 119.077 105.765 119.077C105.607 119.077 105.589 119.165 105.537 119.305C105.062 120.851 104.043 121.572 103.253 121.572C102.638 121.572 102.304 121.115 102.304 120.395C102.304 120.008 102.374 119.727 102.655 118.568L103.27 116.178C103.534 115.124 104.131 114.351 104.939 114.351C104.974 114.351 105.466 114.351 105.835 114.58Z" fill="#355FB3"/>
<path d="M110.549 121.993C110.737 121.818 111.228 121.431 111.416 121.267C112.142 120.6 112.833 119.956 112.833 118.89C112.833 117.496 111.662 116.594 110.198 116.594C108.792 116.594 107.867 117.66 107.867 118.702C107.867 119.276 108.324 119.358 108.488 119.358C108.734 119.358 109.097 119.183 109.097 118.737C109.097 118.128 108.511 118.128 108.371 118.128C108.71 117.274 109.495 116.981 110.069 116.981C111.158 116.981 111.72 117.906 111.72 118.89C111.72 120.108 110.865 120.998 109.483 122.415L108.008 123.937C107.867 124.066 107.867 124.09 107.867 124.383H112.493L112.833 122.286H112.47C112.435 122.52 112.341 123.106 112.201 123.328C112.13 123.422 111.24 123.422 111.053 123.422H108.968L110.549 121.993Z" fill="#355FB3"/>
<path d="M32.8344 159.58C32.2723 159.685 32.0615 160.107 32.0615 160.44C32.0615 160.862 32.3953 161.003 32.6412 161.003C33.1682 161.003 33.5371 160.546 33.5371 160.072C33.5371 159.334 32.6939 159 31.9561 159C30.8846 159 30.2874 160.054 30.1293 160.388C29.7252 159.07 28.6361 159 28.32 159C26.5282 159 25.5797 161.301 25.5797 161.688C25.5797 161.758 25.6499 161.846 25.7729 161.846C25.9134 161.846 25.9486 161.74 25.9837 161.67C26.5809 159.72 27.7579 159.351 28.2673 159.351C29.0577 159.351 29.2158 160.089 29.2158 160.511C29.2158 160.897 29.1104 161.301 28.8996 162.144L28.3024 164.551C28.0389 165.605 27.5295 166.571 26.5985 166.571C26.5107 166.571 26.0715 166.571 25.7026 166.343C26.335 166.22 26.4755 165.693 26.4755 165.482C26.4755 165.131 26.212 164.92 25.8783 164.92C25.4567 164.92 25 165.289 25 165.851C25 166.589 25.8256 166.922 26.5809 166.922C27.4241 166.922 28.0213 166.255 28.3902 165.535C28.6713 166.571 29.5496 166.922 30.1995 166.922C31.9913 166.922 32.9398 164.621 32.9398 164.235C32.9398 164.147 32.8696 164.077 32.7642 164.077C32.6061 164.077 32.5885 164.164 32.5358 164.305C32.0615 165.851 31.0427 166.571 30.2522 166.571C29.6374 166.571 29.3037 166.114 29.3037 165.394C29.3037 165.008 29.3739 164.727 29.655 163.567L30.2698 161.178C30.5333 160.124 31.1305 159.351 31.9386 159.351C31.9737 159.351 32.4655 159.351 32.8344 159.58Z" fill="#355FB3"/>
<path d="M37.2084 165.47C38.1336 165.47 38.7191 166.149 38.7191 167.379C38.7191 168.843 37.8876 169.276 37.267 169.276C36.6229 169.276 35.7446 169.042 35.3347 168.421C35.7563 168.421 36.0491 168.152 36.0491 167.765C36.0491 167.391 35.7797 167.121 35.405 167.121C35.0888 167.121 34.7609 167.32 34.7609 167.789C34.7609 168.901 35.9554 169.627 37.2904 169.627C38.8479 169.627 39.937 168.55 39.937 167.379C39.937 166.407 39.1641 165.517 37.9696 165.259C38.8947 164.932 39.5857 164.135 39.5857 163.198C39.5857 162.261 38.5317 161.594 37.3138 161.594C36.0608 161.594 35.1122 162.273 35.1122 163.163C35.1122 163.597 35.405 163.784 35.7095 163.784C36.0725 163.784 36.3067 163.526 36.3067 163.187C36.3067 162.753 35.932 162.589 35.6743 162.578C36.1662 161.934 37.0679 161.898 37.2787 161.898C37.5832 161.898 38.4732 161.992 38.4732 163.198C38.4732 164.018 38.1336 164.51 37.9696 164.697C37.6183 165.06 37.3489 165.084 36.6346 165.131C36.4121 165.142 36.3184 165.154 36.3184 165.306C36.3184 165.47 36.4238 165.47 36.6229 165.47H37.2084Z" fill="#355FB3"/>
<path d="M87.8303 229.579C87.2685 229.685 87.0578 230.106 87.0578 230.44C87.0578 230.861 87.3914 231.001 87.6372 231.001C88.1639 231.001 88.5326 230.545 88.5326 230.071C88.5326 229.334 87.6898 229 86.9525 229C85.8815 229 85.2846 230.053 85.1266 230.387C84.7227 229.07 83.6342 229 83.3182 229C81.5274 229 80.5794 231.3 80.5794 231.686C80.5794 231.756 80.6496 231.844 80.7725 231.844C80.9129 231.844 80.9481 231.739 80.9832 231.669C81.5801 229.72 82.7564 229.351 83.2656 229.351C84.0556 229.351 84.2136 230.089 84.2136 230.51C84.2136 230.896 84.1083 231.3 83.8976 232.143L83.3007 234.548C83.0373 235.601 82.5282 236.567 81.5977 236.567C81.5099 236.567 81.071 236.567 80.7023 236.339C81.3343 236.216 81.4748 235.689 81.4748 235.478C81.4748 235.127 81.2114 234.917 80.8778 234.917C80.4565 234.917 80 235.285 80 235.847C80 236.585 80.8252 236.918 81.5801 236.918C82.4228 236.918 83.0197 236.251 83.3884 235.531C83.6693 236.567 84.5472 236.918 85.1968 236.918C86.9876 236.918 87.9356 234.618 87.9356 234.232C87.9356 234.144 87.8654 234.074 87.7601 234.074C87.6021 234.074 87.5845 234.162 87.5318 234.302C87.0578 235.847 86.0395 236.567 85.2495 236.567C84.635 236.567 84.3014 236.11 84.3014 235.391C84.3014 235.004 84.3716 234.723 84.6525 233.565L85.267 231.177C85.5304 230.124 86.1273 229.351 86.9349 229.351C86.97 229.351 87.4616 229.351 87.8303 229.579Z" fill="#355FB3"/>
<path d="M93.8523 231.803C93.8523 231.569 93.8523 231.476 93.6065 231.476C93.4544 231.476 93.4427 231.487 93.3256 231.651L89.5919 237.07V237.457H92.8925V238.428C92.8925 238.861 92.8574 238.99 91.9562 238.99H91.687V239.376C92.6819 239.341 92.7053 239.341 93.3724 239.341C94.0396 239.341 94.063 239.341 95.0579 239.376V238.99H94.7887C93.8874 238.99 93.8523 238.861 93.8523 238.428V237.457H95.093V237.07H93.8523V231.803ZM92.9745 232.751V237.07H90.0015L92.9745 232.751Z" fill="#355FB3"/>
</svg>
