<svg width="740" height="230" viewBox="0 0 740 230" fill="none" xmlns="http://www.w3.org/2000/svg">
<rect width="740" height="230" fill="white"/>
<rect x="217" y="25" width="443" height="200" rx="2" fill="#8EA7D7" fill-opacity="0.09"/>
<rect x="217.5" y="25.5" width="442" height="199" rx="1.5" stroke="#355FB3" stroke-opacity="0.5"/>
<path d="M690 125L680 119.226V130.774L690 125ZM660 126H681V124H660V126Z" fill="black"/>
<path d="M47 90L35 147.5M35 147.5L95.5 128M35 147.5L78.5 185L95.5 128M35 147.5L107.5 63.5L148 95M95.5 128L161 148.5L132.5 187.5" stroke="black" stroke-width="2"/>
<path d="M161 148.5L148 95" stroke="#B33535" stroke-width="2"/>
<circle cx="107" cy="64" r="14" fill="white" stroke="black" stroke-width="2"/>
<path d="M107.552 60.1766C107.552 59.0702 106.99 59 106.849 59C106.428 59 106.041 59.4215 106.041 59.7727C106.041 59.9835 106.164 60.1064 106.234 60.1766C106.41 60.3347 106.867 60.8089 106.867 61.7221C106.867 62.4597 105.813 66.5692 103.706 66.5692C102.634 66.5692 102.424 65.6735 102.424 65.0237C102.424 64.1456 102.827 62.9163 103.302 61.6518C103.583 60.9318 103.653 60.7562 103.653 60.4049C103.653 59.6674 103.126 59 102.265 59C100.65 59 100 61.5465 100 61.687C100 61.7572 100.07 61.845 100.193 61.845C100.351 61.845 100.369 61.7748 100.439 61.5289C100.861 60.0186 101.545 59.3512 102.213 59.3512C102.371 59.3512 102.669 59.3512 102.669 59.9308C102.669 60.3874 102.476 60.8967 102.213 61.564C101.37 63.8119 101.37 64.3564 101.37 64.7778C101.37 65.1642 101.423 65.8842 101.967 66.376C102.599 66.9204 103.477 66.9204 103.635 66.9204C106.551 66.9204 107.552 61.1777 107.552 60.1766Z" fill="black"/>
<path d="M111.484 61.9211C111.484 61.605 111.461 61.5933 111.145 61.5933C110.665 62.0616 110.044 62.3426 108.932 62.3426V62.729C109.248 62.729 109.88 62.729 110.559 62.4129V68.419C110.559 68.8522 110.524 68.9927 109.412 68.9927H109.002V69.3791C109.482 69.3439 110.489 69.3439 111.016 69.3439C111.543 69.3439 112.561 69.3439 113.041 69.3791V68.9927H112.632C111.519 68.9927 111.484 68.8522 111.484 68.419V61.9211Z" fill="black"/>
<circle cx="46" cy="89" r="14" fill="white" stroke="black" stroke-width="2"/>
<path d="M46.5516 85.1766C46.5516 84.0702 45.9896 84 45.8491 84C45.4276 84 45.0413 84.4215 45.0413 84.7727C45.0413 84.9835 45.1642 85.1064 45.2344 85.1766C45.4101 85.3347 45.8667 85.8089 45.8667 86.7221C45.8667 87.4597 44.813 91.5692 42.7055 91.5692C41.6343 91.5692 41.4235 90.6735 41.4235 90.0237C41.4235 89.1456 41.8275 87.9163 42.3016 86.6518C42.5826 85.9318 42.6529 85.7562 42.6529 85.4049C42.6529 84.6674 42.126 84 41.2655 84C39.6498 84 39 86.5465 39 86.687C39 86.7572 39.0702 86.845 39.1932 86.845C39.3512 86.845 39.3688 86.7748 39.439 86.5289C39.8605 85.0186 40.5454 84.3512 41.2128 84.3512C41.3709 84.3512 41.6694 84.3512 41.6694 84.9308C41.6694 85.3874 41.4762 85.8967 41.2128 86.564C40.3698 88.8119 40.3698 89.3564 40.3698 89.7778C40.3698 90.1642 40.4225 90.8842 40.9669 91.376C41.5991 91.9204 42.4772 91.9204 42.6353 91.9204C45.5506 91.9204 46.5516 86.1777 46.5516 85.1766Z" fill="black"/>
<path d="M50.1097 91.9907C50.297 91.815 50.7888 91.4287 50.9761 91.2648C51.702 90.5974 52.3927 89.9535 52.3927 88.8881C52.3927 87.4948 51.2219 86.5933 49.7585 86.5933C48.3535 86.5933 47.4286 87.6587 47.4286 88.7007C47.4286 89.2744 47.8852 89.3564 48.0491 89.3564C48.295 89.3564 48.6579 89.1808 48.6579 88.7359C48.6579 88.127 48.0725 88.127 47.932 88.127C48.2716 87.2724 49.056 86.9797 49.6297 86.9797C50.7185 86.9797 51.2805 87.9046 51.2805 88.8881C51.2805 90.1057 50.4258 90.9955 49.0443 92.4121L47.5691 93.9342C47.4286 94.0629 47.4286 94.0864 47.4286 94.3791H52.0532L52.3927 92.2834H52.0298C51.9947 92.5175 51.901 93.1029 51.7605 93.3254C51.6903 93.419 50.8005 93.419 50.6131 93.419H48.5291L50.1097 91.9907Z" fill="black"/>
<circle cx="147" cy="96" r="14" fill="white" stroke="#B33535" stroke-width="2"/>
<path d="M147.552 92.1766C147.552 91.0702 146.99 91 146.849 91C146.428 91 146.041 91.4215 146.041 91.7727C146.041 91.9835 146.164 92.1064 146.234 92.1766C146.41 92.3347 146.867 92.8089 146.867 93.7221C146.867 94.4597 145.813 98.5692 143.706 98.5692C142.634 98.5692 142.424 97.6735 142.424 97.0237C142.424 96.1456 142.827 94.9163 143.302 93.6518C143.583 92.9318 143.653 92.7562 143.653 92.4049C143.653 91.6674 143.126 91 142.265 91C140.65 91 140 93.5465 140 93.687C140 93.7572 140.07 93.845 140.193 93.845C140.351 93.845 140.369 93.7748 140.439 93.5289C140.861 92.0186 141.545 91.3512 142.213 91.3512C142.371 91.3512 142.669 91.3512 142.669 91.9308C142.669 92.3874 142.476 92.8967 142.213 93.564C141.37 95.8119 141.37 96.3564 141.37 96.7778C141.37 97.1642 141.423 97.8842 141.967 98.376C142.599 98.9204 143.477 98.9204 143.635 98.9204C146.551 98.9204 147.552 93.1777 147.552 92.1766Z" fill="#B33535"/>
<path d="M150.77 97.4686C151.695 97.4686 152.28 98.1477 152.28 99.377C152.28 100.84 151.449 101.274 150.829 101.274C150.185 101.274 149.307 101.04 148.897 100.419C149.318 100.419 149.611 100.15 149.611 99.7634C149.611 99.3887 149.342 99.1194 148.967 99.1194C148.651 99.1194 148.323 99.3185 148.323 99.7868C148.323 100.899 149.517 101.625 150.852 101.625C152.409 101.625 153.498 100.548 153.498 99.377C153.498 98.4053 152.725 97.5155 151.531 97.2579C152.456 96.9301 153.147 96.1339 153.147 95.1973C153.147 94.2607 152.093 93.5933 150.876 93.5933C149.623 93.5933 148.674 94.2724 148.674 95.1622C148.674 95.5954 148.967 95.7827 149.272 95.7827C149.634 95.7827 149.869 95.5251 149.869 95.1856C149.869 94.7524 149.494 94.5885 149.236 94.5768C149.728 93.9328 150.63 93.8977 150.84 93.8977C151.145 93.8977 152.035 93.9914 152.035 95.1973C152.035 96.0169 151.695 96.5086 151.531 96.6959C151.18 97.0589 150.911 97.0823 150.196 97.1291C149.974 97.1408 149.88 97.1525 149.88 97.3047C149.88 97.4686 149.986 97.4686 150.185 97.4686H150.77Z" fill="#B33535"/>
<circle cx="96" cy="127" r="14" fill="white" stroke="black" stroke-width="2"/>
<path d="M96.5516 123.177C96.5516 122.07 95.9896 122 95.8491 122C95.4276 122 95.0413 122.421 95.0413 122.773C95.0413 122.983 95.1642 123.106 95.2344 123.177C95.4101 123.335 95.8667 123.809 95.8667 124.722C95.8667 125.46 94.813 129.569 92.7055 129.569C91.6343 129.569 91.4235 128.673 91.4235 128.024C91.4235 127.146 91.8275 125.916 92.3016 124.652C92.5826 123.932 92.6529 123.756 92.6529 123.405C92.6529 122.667 92.126 122 91.2655 122C89.6498 122 89 124.546 89 124.687C89 124.757 89.0702 124.845 89.1932 124.845C89.3512 124.845 89.3688 124.775 89.439 124.529C89.8605 123.019 90.5454 122.351 91.2128 122.351C91.3709 122.351 91.6694 122.351 91.6694 122.931C91.6694 123.387 91.4762 123.897 91.2128 124.564C90.3698 126.812 90.3698 127.356 90.3698 127.778C90.3698 128.164 90.4225 128.884 90.9669 129.376C91.5991 129.92 92.4772 129.92 92.6353 129.92C95.5506 129.92 96.5516 124.178 96.5516 123.177Z" fill="black"/>
<path d="M101.421 124.804C101.421 124.57 101.421 124.476 101.175 124.476C101.023 124.476 101.011 124.488 100.894 124.652L97.1593 130.073V130.459H100.461V131.431C100.461 131.864 100.426 131.993 99.5243 131.993H99.255V132.379C100.25 132.344 100.274 132.344 100.941 132.344C101.608 132.344 101.632 132.344 102.627 132.379V131.993H102.358C101.456 131.993 101.421 131.864 101.421 131.431V130.459H102.662V130.073H101.421V124.804ZM100.543 125.752V130.073H97.5691L100.543 125.752Z" fill="black"/>
<circle cx="35" cy="144" r="14" fill="white" stroke="black" stroke-width="2"/>
<path d="M35.5516 140.177C35.5516 139.07 34.9896 139 34.8491 139C34.4276 139 34.0413 139.421 34.0413 139.773C34.0413 139.983 34.1642 140.106 34.2344 140.177C34.4101 140.335 34.8667 140.809 34.8667 141.722C34.8667 142.46 33.813 146.569 31.7055 146.569C30.6343 146.569 30.4235 145.673 30.4235 145.024C30.4235 144.146 30.8275 142.916 31.3016 141.652C31.5826 140.932 31.6529 140.756 31.6529 140.405C31.6529 139.667 31.126 139 30.2655 139C28.6498 139 28 141.546 28 141.687C28 141.757 28.0702 141.845 28.1932 141.845C28.3512 141.845 28.3688 141.775 28.439 141.529C28.8605 140.019 29.5454 139.351 30.2128 139.351C30.3709 139.351 30.6694 139.351 30.6694 139.931C30.6694 140.387 30.4762 140.897 30.2128 141.564C29.3698 143.812 29.3698 144.356 29.3698 144.778C29.3698 145.164 29.4225 145.884 29.9669 146.376C30.5991 146.92 31.4772 146.92 31.6353 146.92C34.5506 146.92 35.5516 141.178 35.5516 140.177Z" fill="black"/>
<path d="M37.4472 142.799C37.5994 142.846 38.0677 142.963 38.5594 142.963C40.0229 142.963 40.9127 141.933 40.9127 141.757C40.9127 141.629 40.8308 141.593 40.7722 141.593C40.7488 141.593 40.7254 141.593 40.62 141.652C40.1634 141.828 39.6248 141.968 38.9926 141.968C38.3018 141.968 37.7282 141.792 37.3652 141.652C37.2481 141.593 37.2247 141.593 37.213 141.593C37.0608 141.593 37.0608 141.722 37.0608 141.933V145.363C37.0608 145.574 37.0608 145.715 37.2481 145.715C37.3418 145.715 37.3769 145.668 37.4355 145.574C37.576 145.398 38.0209 144.801 39.016 144.801C39.6717 144.801 39.9878 145.34 40.0932 145.562C40.2922 145.984 40.3156 146.522 40.3156 146.979C40.3156 147.412 40.3039 148.044 39.9761 148.56C39.7536 148.911 39.2853 149.274 38.6648 149.274C37.9038 149.274 37.1545 148.794 36.8852 148.033C36.9203 148.044 36.9906 148.044 37.0023 148.044C37.3301 148.044 37.5877 147.834 37.5877 147.471C37.5877 147.038 37.2481 146.885 37.014 146.885C36.8032 146.885 36.4286 147.002 36.4286 147.506C36.4286 148.56 37.3418 149.625 38.6882 149.625C40.1517 149.625 41.3927 148.489 41.3927 147.038C41.3927 145.679 40.4093 144.474 39.0277 144.474C38.4424 144.474 37.8921 144.661 37.4472 145.059V142.799Z" fill="black"/>
<circle cx="160" cy="147" r="14" fill="white" stroke="#B33535" stroke-width="2"/>
<path d="M160.552 143.177C160.552 142.07 159.99 142 159.849 142C159.428 142 159.041 142.421 159.041 142.773C159.041 142.983 159.164 143.106 159.234 143.177C159.41 143.335 159.867 143.809 159.867 144.722C159.867 145.46 158.813 149.569 156.706 149.569C155.634 149.569 155.424 148.673 155.424 148.024C155.424 147.146 155.827 145.916 156.302 144.652C156.583 143.932 156.653 143.756 156.653 143.405C156.653 142.667 156.126 142 155.265 142C153.65 142 153 144.546 153 144.687C153 144.757 153.07 144.845 153.193 144.845C153.351 144.845 153.369 144.775 153.439 144.529C153.861 143.019 154.545 142.351 155.213 142.351C155.371 142.351 155.669 142.351 155.669 142.931C155.669 143.387 155.476 143.897 155.213 144.564C154.37 146.812 154.37 147.356 154.37 147.778C154.37 148.164 154.423 148.884 154.967 149.376C155.599 149.92 156.477 149.92 156.635 149.92C159.551 149.92 160.552 144.178 160.552 143.177Z" fill="#B33535"/>
<path d="M162.424 148.504C162.424 147.532 162.506 146.677 162.927 145.963C163.278 145.378 163.876 144.898 164.613 144.898C164.847 144.898 165.386 144.933 165.655 145.343C165.128 145.366 165.081 145.764 165.081 145.893C165.081 146.244 165.351 146.443 165.632 146.443C165.842 146.443 166.182 146.314 166.182 145.869C166.182 145.167 165.655 144.593 164.601 144.593C162.974 144.593 161.323 146.139 161.323 148.668C161.323 151.84 162.798 152.625 163.934 152.625C164.496 152.625 165.105 152.473 165.632 151.969C166.1 151.513 166.498 151.021 166.498 150.002C166.498 148.469 165.339 147.391 164.039 147.391C163.197 147.391 162.693 147.93 162.424 148.504ZM163.934 152.274C163.314 152.274 162.927 151.84 162.752 151.513C162.482 150.986 162.459 150.19 162.459 149.745C162.459 148.586 163.091 147.719 163.993 147.719C164.578 147.719 164.929 148.024 165.152 148.434C165.398 148.867 165.398 149.394 165.398 149.991C165.398 150.588 165.398 151.103 165.163 151.524C164.859 152.063 164.449 152.274 163.934 152.274Z" fill="#B33535"/>
<circle cx="78" cy="182" r="14" fill="white" stroke="black" stroke-width="2"/>
<path d="M78.5516 178.177C78.5516 177.07 77.9896 177 77.8491 177C77.4276 177 77.0413 177.421 77.0413 177.773C77.0413 177.983 77.1642 178.106 77.2344 178.177C77.4101 178.335 77.8667 178.809 77.8667 179.722C77.8667 180.46 76.813 184.569 74.7055 184.569C73.6343 184.569 73.4235 183.673 73.4235 183.024C73.4235 182.146 73.8275 180.916 74.3016 179.652C74.5826 178.932 74.6529 178.756 74.6529 178.405C74.6529 177.667 74.126 177 73.2655 177C71.6498 177 71 179.546 71 179.687C71 179.757 71.0702 179.845 71.1932 179.845C71.3512 179.845 71.3688 179.775 71.439 179.529C71.8605 178.019 72.5454 177.351 73.2128 177.351C73.3709 177.351 73.6694 177.351 73.6694 177.931C73.6694 178.387 73.4762 178.897 73.2128 179.564C72.3698 181.812 72.3698 182.356 72.3698 182.778C72.3698 183.164 72.4225 183.884 72.9669 184.376C73.5991 184.92 74.4772 184.92 74.6353 184.92C77.5506 184.92 78.5516 179.178 78.5516 178.177Z" fill="black"/>
<path d="M84.7322 180.249C84.8376 180.12 84.8376 180.097 84.8376 179.839H81.8638C81.5711 179.839 81.2082 179.827 80.9155 179.804C80.3066 179.757 80.2949 179.652 80.2598 179.465H79.8969L79.4988 181.935H79.8618C79.8852 181.759 80.014 180.951 80.1779 180.858C80.3066 180.799 81.1847 180.799 81.3604 180.799H83.8424L82.6365 182.415C81.3018 184.195 81.0208 186.044 81.0208 186.969C81.0208 187.086 81.0208 187.625 81.5711 187.625C82.1214 187.625 82.1214 187.098 82.1214 186.958V186.396C82.1214 184.71 82.4024 183.328 82.9761 182.567L84.7322 180.249Z" fill="black"/>
<circle cx="131" cy="186" r="14" fill="white" stroke="black" stroke-width="2"/>
<path d="M131.552 182.177C131.552 181.07 130.99 181 130.849 181C130.428 181 130.041 181.421 130.041 181.773C130.041 181.983 130.164 182.106 130.234 182.177C130.41 182.335 130.867 182.809 130.867 183.722C130.867 184.46 129.813 188.569 127.706 188.569C126.634 188.569 126.424 187.673 126.424 187.024C126.424 186.146 126.827 184.916 127.302 183.652C127.583 182.932 127.653 182.756 127.653 182.405C127.653 181.667 127.126 181 126.265 181C124.65 181 124 183.546 124 183.687C124 183.757 124.07 183.845 124.193 183.845C124.351 183.845 124.369 183.775 124.439 183.529C124.861 182.019 125.545 181.351 126.213 181.351C126.371 181.351 126.669 181.351 126.669 181.931C126.669 182.387 126.476 182.897 126.213 183.564C125.37 185.812 125.37 186.356 125.37 186.778C125.37 187.164 125.423 187.884 125.967 188.376C126.599 188.92 127.477 188.92 127.635 188.92C130.551 188.92 131.552 183.178 131.552 182.177Z" fill="black"/>
<path d="M135.695 187.153C136.351 186.836 137.147 186.251 137.147 185.338C137.147 184.226 136.011 183.593 134.922 183.593C133.681 183.593 132.674 184.448 132.674 185.549C132.674 185.982 132.827 186.38 133.119 186.719C133.318 186.965 133.365 186.989 134.091 187.445C132.639 188.089 132.323 188.944 132.323 189.599C132.323 190.887 133.623 191.625 134.899 191.625C136.339 191.625 137.498 190.653 137.498 189.412C137.498 188.675 137.1 188.183 136.913 187.984C136.714 187.796 136.702 187.785 135.695 187.153ZM133.88 186.052C133.541 185.853 133.26 185.513 133.26 185.104C133.26 184.366 134.068 183.898 134.899 183.898C135.812 183.898 136.561 184.518 136.561 185.338C136.561 186.017 136.035 186.591 135.344 186.93L133.88 186.052ZM134.454 187.656C134.501 187.679 135.836 188.499 136.035 188.628C136.222 188.733 136.831 189.108 136.831 189.81C136.831 190.712 135.882 191.274 134.922 191.274C133.88 191.274 132.991 190.56 132.991 189.599C132.991 188.721 133.646 188.031 134.454 187.656Z" fill="black"/>
<path d="M9.40251 120.122C9.40251 120 9.30794 120 9.28092 120C9.2539 120 9.19986 120 9.09179 120.135L8.15964 121.256C8.09209 121.148 7.82191 120.675 7.29504 120.365C6.71415 120 6.13324 120 5.9306 120C3.0396 120 0 122.945 0 126.133C0 128.362 1.54007 129.794 3.56646 129.794C4.53913 129.794 5.76849 129.47 6.44395 128.619C6.59256 129.132 6.88976 129.497 6.98433 129.497C7.05188 129.497 7.06538 129.457 7.0789 129.457C7.0924 129.43 7.20048 128.957 7.26803 128.714L7.48417 127.849C7.59225 127.403 7.64628 127.214 7.74085 126.809C7.87594 126.295 7.90296 126.255 8.64598 126.241C8.70002 126.241 8.86213 126.241 8.86213 125.985C8.86213 125.85 8.72704 125.85 8.6865 125.85C8.45684 125.85 8.20018 125.877 7.957 125.877H7.22749C6.66011 125.877 6.0657 125.85 5.51181 125.85C5.39023 125.85 5.22812 125.85 5.22812 126.093C5.22812 126.228 5.33619 126.228 5.33619 126.241H5.67392C6.74116 126.241 6.74116 126.349 6.74116 126.552C6.74116 126.566 6.48448 127.93 6.22781 128.335C5.71445 129.092 4.64722 129.403 3.85016 129.403C2.80994 129.403 1.12128 128.862 1.12128 126.525C1.12128 125.62 1.4455 123.553 2.7559 122.026C3.607 121.054 4.86336 120.392 6.05218 120.392C7.64628 120.392 8.21368 121.756 8.21368 122.999C8.21368 123.215 8.15964 123.512 8.15964 123.702C8.15964 123.823 8.29473 123.823 8.33527 123.823C8.48386 123.823 8.49738 123.81 8.55141 123.566L9.40251 120.122Z" fill="black"/>
<path d="M217 125L207 119.226V130.774L217 125ZM187 126H208V124H187V126Z" fill="black"/>
<path d="M697.924 128.104C698.375 128.104 698.769 127.968 699.106 127.694C699.444 127.421 699.631 127.079 699.667 126.669H700.863C700.84 127.093 700.695 127.496 700.426 127.879C700.157 128.262 699.797 128.567 699.346 128.795C698.899 129.023 698.425 129.137 697.924 129.137C696.917 129.137 696.115 128.802 695.518 128.132C694.925 127.457 694.629 126.537 694.629 125.37V125.158C694.629 124.438 694.761 123.798 695.025 123.237C695.29 122.677 695.668 122.242 696.16 121.932C696.657 121.622 697.243 121.467 697.917 121.467C698.746 121.467 699.435 121.715 699.981 122.212C700.533 122.709 700.827 123.354 700.863 124.146H699.667C699.631 123.668 699.448 123.276 699.12 122.971C698.797 122.661 698.396 122.506 697.917 122.506C697.274 122.506 696.775 122.738 696.42 123.203C696.069 123.663 695.894 124.331 695.894 125.206V125.445C695.894 126.298 696.069 126.954 696.42 127.414C696.771 127.874 697.272 128.104 697.924 128.104ZM703.659 129H702.395V118.5H703.659V129ZM710.256 129C710.183 128.854 710.124 128.594 710.078 128.221C709.49 128.831 708.788 129.137 707.973 129.137C707.243 129.137 706.644 128.932 706.175 128.521C705.71 128.107 705.478 127.583 705.478 126.949C705.478 126.179 705.769 125.582 706.353 125.158C706.94 124.73 707.765 124.516 708.827 124.516H710.058V123.935C710.058 123.493 709.925 123.142 709.661 122.882C709.397 122.618 709.007 122.485 708.492 122.485C708.041 122.485 707.663 122.599 707.357 122.827C707.052 123.055 706.899 123.331 706.899 123.654H705.628C705.628 123.285 705.758 122.93 706.018 122.588C706.282 122.242 706.637 121.968 707.084 121.768C707.535 121.567 708.03 121.467 708.567 121.467C709.42 121.467 710.087 121.681 710.57 122.109C711.053 122.533 711.304 123.119 711.322 123.866V127.271C711.322 127.95 711.409 128.49 711.582 128.891V129H710.256ZM708.157 128.036C708.554 128.036 708.93 127.934 709.285 127.729C709.641 127.523 709.898 127.257 710.058 126.929V125.411H709.066C707.517 125.411 706.742 125.865 706.742 126.771C706.742 127.168 706.874 127.478 707.139 127.701C707.403 127.924 707.743 128.036 708.157 128.036ZM717.611 127.038C717.611 126.696 717.481 126.432 717.222 126.245C716.966 126.054 716.518 125.89 715.875 125.753C715.237 125.616 714.729 125.452 714.351 125.261C713.977 125.069 713.699 124.841 713.517 124.577C713.339 124.313 713.25 123.998 713.25 123.634C713.25 123.028 713.505 122.515 714.016 122.096C714.531 121.676 715.187 121.467 715.984 121.467C716.823 121.467 717.502 121.683 718.021 122.116C718.546 122.549 718.808 123.103 718.808 123.777H717.536C717.536 123.431 717.388 123.132 717.092 122.882C716.8 122.631 716.431 122.506 715.984 122.506C715.524 122.506 715.164 122.606 714.904 122.807C714.645 123.007 714.515 123.269 714.515 123.593C714.515 123.898 714.635 124.128 714.877 124.283C715.118 124.438 715.554 124.586 716.183 124.728C716.816 124.869 717.329 125.037 717.721 125.233C718.113 125.429 718.402 125.666 718.589 125.944C718.78 126.218 718.876 126.553 718.876 126.949C718.876 127.61 718.612 128.141 718.083 128.542C717.554 128.938 716.868 129.137 716.025 129.137C715.433 129.137 714.909 129.032 714.453 128.822C713.997 128.613 713.64 128.321 713.38 127.947C713.125 127.569 712.997 127.161 712.997 126.724H714.262C714.285 127.147 714.453 127.485 714.768 127.735C715.087 127.981 715.506 128.104 716.025 128.104C716.504 128.104 716.887 128.009 717.174 127.817C717.465 127.621 717.611 127.362 717.611 127.038ZM724.83 127.038C724.83 126.696 724.7 126.432 724.44 126.245C724.185 126.054 723.736 125.89 723.094 125.753C722.456 125.616 721.948 125.452 721.569 125.261C721.196 125.069 720.918 124.841 720.735 124.577C720.558 124.313 720.469 123.998 720.469 123.634C720.469 123.028 720.724 122.515 721.234 122.096C721.749 121.676 722.406 121.467 723.203 121.467C724.042 121.467 724.721 121.683 725.24 122.116C725.764 122.549 726.026 123.103 726.026 123.777H724.755C724.755 123.431 724.607 123.132 724.311 122.882C724.019 122.631 723.65 122.506 723.203 122.506C722.743 122.506 722.383 122.606 722.123 122.807C721.863 123.007 721.733 123.269 721.733 123.593C721.733 123.898 721.854 124.128 722.096 124.283C722.337 124.438 722.772 124.586 723.401 124.728C724.035 124.869 724.548 125.037 724.939 125.233C725.331 125.429 725.621 125.666 725.808 125.944C725.999 126.218 726.095 126.553 726.095 126.949C726.095 127.61 725.83 128.141 725.302 128.542C724.773 128.938 724.087 129.137 723.244 129.137C722.652 129.137 722.128 129.032 721.672 128.822C721.216 128.613 720.858 128.321 720.599 127.947C720.343 127.569 720.216 127.161 720.216 126.724H721.48C721.503 127.147 721.672 127.485 721.986 127.735C722.305 127.981 722.725 128.104 723.244 128.104C723.723 128.104 724.105 128.009 724.393 127.817C724.684 127.621 724.83 127.362 724.83 127.038ZM731.146 129V119.047H734.633C735.84 119.047 736.757 119.279 737.381 119.744C738.005 120.204 738.317 120.881 738.317 121.774C738.317 122.262 738.192 122.693 737.941 123.066C737.691 123.436 737.342 123.707 736.896 123.88C737.406 124.007 737.807 124.265 738.099 124.652C738.395 125.04 738.543 125.514 738.543 126.074C738.543 127.031 738.238 127.756 737.627 128.248C737.016 128.74 736.146 128.991 735.016 129H731.146ZM733.197 124.666V127.353H734.954C735.437 127.353 735.813 127.239 736.082 127.011C736.355 126.778 736.492 126.459 736.492 126.054C736.492 125.142 736.021 124.68 735.077 124.666H733.197ZM733.197 123.217H734.715C735.749 123.199 736.267 122.786 736.267 121.979C736.267 121.528 736.134 121.205 735.87 121.009C735.61 120.808 735.198 120.708 734.633 120.708H733.197V123.217Z" fill="#B33535"/>
<path d="M280.035 99H277.855V84.5508L273.484 86.1562V84.1875L279.695 81.8555H280.035V99ZM286.656 97.8633C286.656 97.4883 286.766 97.1758 286.984 96.9258C287.211 96.6758 287.547 96.5508 287.992 96.5508C288.438 96.5508 288.773 96.6758 289 96.9258C289.234 97.1758 289.352 97.4883 289.352 97.8633C289.352 98.2227 289.234 98.5234 289 98.7656C288.773 99.0078 288.438 99.1289 287.992 99.1289C287.547 99.1289 287.211 99.0078 286.984 98.7656C286.766 98.5234 286.656 98.2227 286.656 97.8633ZM311.828 96.7617C311.25 97.5898 310.441 98.2109 309.402 98.625C308.371 99.0312 307.168 99.2344 305.793 99.2344C304.402 99.2344 303.168 98.9102 302.09 98.2617C301.012 97.6055 300.176 96.6758 299.582 95.4727C298.996 94.2695 298.695 92.875 298.68 91.2891V89.8008C298.68 87.2305 299.277 85.2383 300.473 83.8242C301.676 82.4102 303.363 81.7031 305.535 81.7031C307.316 81.7031 308.75 82.1602 309.836 83.0742C310.922 83.9805 311.586 85.2695 311.828 86.9414H309.578C309.156 84.6836 307.812 83.5547 305.547 83.5547C304.039 83.5547 302.895 84.0859 302.113 85.1484C301.34 86.2031 300.949 87.7344 300.941 89.7422V91.1367C300.941 93.0508 301.379 94.5742 302.254 95.707C303.129 96.832 304.312 97.3945 305.805 97.3945C306.648 97.3945 307.387 97.3008 308.02 97.1133C308.652 96.9258 309.176 96.6094 309.59 96.1641V92.332H305.641V90.5039H311.828V96.7617ZM321.379 88.2656C321.051 88.2109 320.695 88.1836 320.312 88.1836C318.891 88.1836 317.926 88.7891 317.418 90V99H315.25V86.3203H317.359L317.395 87.7852C318.105 86.6523 319.113 86.0859 320.418 86.0859C320.84 86.0859 321.16 86.1406 321.379 86.25V88.2656ZM330.742 99C330.617 98.75 330.516 98.3047 330.438 97.6641C329.43 98.7109 328.227 99.2344 326.828 99.2344C325.578 99.2344 324.551 98.8828 323.746 98.1797C322.949 97.4688 322.551 96.5703 322.551 95.4844C322.551 94.1641 323.051 93.1406 324.051 92.4141C325.059 91.6797 326.473 91.3125 328.293 91.3125H330.402V90.3164C330.402 89.5586 330.176 88.957 329.723 88.5117C329.27 88.0586 328.602 87.832 327.719 87.832C326.945 87.832 326.297 88.0273 325.773 88.418C325.25 88.8086 324.988 89.2812 324.988 89.8359H322.809C322.809 89.2031 323.031 88.5938 323.477 88.0078C323.93 87.4141 324.539 86.9453 325.305 86.6016C326.078 86.2578 326.926 86.0859 327.848 86.0859C329.309 86.0859 330.453 86.4531 331.281 87.1875C332.109 87.9141 332.539 88.918 332.57 90.1992V96.0352C332.57 97.1992 332.719 98.125 333.016 98.8125V99H330.742ZM327.145 97.3477C327.824 97.3477 328.469 97.1719 329.078 96.8203C329.688 96.4688 330.129 96.0117 330.402 95.4492V92.8477H328.703C326.047 92.8477 324.719 93.625 324.719 95.1797C324.719 95.8594 324.945 96.3906 325.398 96.7734C325.852 97.1562 326.434 97.3477 327.145 97.3477ZM346.68 92.8008C346.68 94.7305 346.238 96.2852 345.355 97.4648C344.473 98.6445 343.277 99.2344 341.77 99.2344C340.23 99.2344 339.02 98.7461 338.137 97.7695V103.875H335.969V86.3203H337.949L338.055 87.7266C338.938 86.6328 340.164 86.0859 341.734 86.0859C343.258 86.0859 344.461 86.6602 345.344 87.8086C346.234 88.957 346.68 90.5547 346.68 92.6016V92.8008ZM344.512 92.5547C344.512 91.125 344.207 89.9961 343.598 89.168C342.988 88.3398 342.152 87.9258 341.09 87.9258C339.777 87.9258 338.793 88.5078 338.137 89.6719V95.7305C338.785 96.8867 339.777 97.4648 341.113 97.4648C342.152 97.4648 342.977 97.0547 343.586 96.2344C344.203 95.4062 344.512 94.1797 344.512 92.5547ZM351.613 87.8555C352.574 86.6758 353.824 86.0859 355.363 86.0859C358.043 86.0859 359.395 87.5977 359.418 90.6211V99H357.25V90.6094C357.242 89.6953 357.031 89.0195 356.617 88.582C356.211 88.1445 355.574 87.9258 354.707 87.9258C354.004 87.9258 353.387 88.1133 352.855 88.4883C352.324 88.8633 351.91 89.3555 351.613 89.9648V99H349.445V81H351.613V87.8555ZM378.602 91.1133H371.207V97.1602H379.797V99H368.957V81.9375H379.68V83.7891H371.207V89.2734H378.602V91.1133ZM384.297 86.3203L384.355 87.7266C385.285 86.6328 386.539 86.0859 388.117 86.0859C389.891 86.0859 391.098 86.7656 391.738 88.125C392.16 87.5156 392.707 87.0234 393.379 86.6484C394.059 86.2734 394.859 86.0859 395.781 86.0859C398.562 86.0859 399.977 87.5586 400.023 90.5039V99H397.855V90.6328C397.855 89.7266 397.648 89.0508 397.234 88.6055C396.82 88.1523 396.125 87.9258 395.148 87.9258C394.344 87.9258 393.676 88.168 393.145 88.6523C392.613 89.1289 392.305 89.7734 392.219 90.5859V99H390.039V90.6914C390.039 88.8477 389.137 87.9258 387.332 87.9258C385.91 87.9258 384.938 88.5312 384.414 89.7422V99H382.246V86.3203H384.297ZM414.039 92.8008C414.039 94.7383 413.594 96.2969 412.703 97.4766C411.812 98.6484 410.617 99.2344 409.117 99.2344C407.516 99.2344 406.277 98.668 405.402 97.5352L405.297 99H403.305V81H405.473V87.7148C406.348 86.6289 407.555 86.0859 409.094 86.0859C410.633 86.0859 411.84 86.668 412.715 87.832C413.598 88.9961 414.039 90.5898 414.039 92.6133V92.8008ZM411.871 92.5547C411.871 91.0781 411.586 89.9375 411.016 89.1328C410.445 88.3281 409.625 87.9258 408.555 87.9258C407.125 87.9258 406.098 88.5898 405.473 89.918V95.4023C406.137 96.7305 407.172 97.3945 408.578 97.3945C409.617 97.3945 410.426 96.9922 411.004 96.1875C411.582 95.3828 411.871 94.1719 411.871 92.5547ZM422.043 99.2344C420.324 99.2344 418.926 98.6719 417.848 97.5469C416.77 96.4141 416.23 94.9023 416.23 93.0117V92.6133C416.23 91.3555 416.469 90.2344 416.945 89.25C417.43 88.2578 418.102 87.4844 418.961 86.9297C419.828 86.3672 420.766 86.0859 421.773 86.0859C423.422 86.0859 424.703 86.6289 425.617 87.7148C426.531 88.8008 426.988 90.3555 426.988 92.3789V93.2812H418.398C418.43 94.5312 418.793 95.543 419.488 96.3164C420.191 97.082 421.082 97.4648 422.16 97.4648C422.926 97.4648 423.574 97.3086 424.105 96.9961C424.637 96.6836 425.102 96.2695 425.5 95.7539L426.824 96.7852C425.762 98.418 424.168 99.2344 422.043 99.2344ZM421.773 87.8672C420.898 87.8672 420.164 88.1875 419.57 88.8281C418.977 89.4609 418.609 90.3516 418.469 91.5H424.82V91.3359C424.758 90.2344 424.461 89.3828 423.93 88.7812C423.398 88.1719 422.68 87.8672 421.773 87.8672ZM428.98 92.5547C428.98 90.6094 429.441 89.0469 430.363 87.8672C431.285 86.6797 432.492 86.0859 433.984 86.0859C435.469 86.0859 436.645 86.5938 437.512 87.6094V81H439.68V99H437.688L437.582 97.6406C436.715 98.7031 435.508 99.2344 433.961 99.2344C432.492 99.2344 431.293 98.6328 430.363 97.4297C429.441 96.2266 428.98 94.6562 428.98 92.7188V92.5547ZM431.148 92.8008C431.148 94.2383 431.445 95.3633 432.039 96.1758C432.633 96.9883 433.453 97.3945 434.5 97.3945C435.875 97.3945 436.879 96.7773 437.512 95.543V89.7188C436.863 88.5234 435.867 87.9258 434.523 87.9258C433.461 87.9258 432.633 88.3359 432.039 89.1562C431.445 89.9766 431.148 91.1914 431.148 92.8008ZM442.527 92.5547C442.527 90.6094 442.988 89.0469 443.91 87.8672C444.832 86.6797 446.039 86.0859 447.531 86.0859C449.016 86.0859 450.191 86.5938 451.059 87.6094V81H453.227V99H451.234L451.129 97.6406C450.262 98.7031 449.055 99.2344 447.508 99.2344C446.039 99.2344 444.84 98.6328 443.91 97.4297C442.988 96.2266 442.527 94.6562 442.527 92.7188V92.5547ZM444.695 92.8008C444.695 94.2383 444.992 95.3633 445.586 96.1758C446.18 96.9883 447 97.3945 448.047 97.3945C449.422 97.3945 450.426 96.7773 451.059 95.543V89.7188C450.41 88.5234 449.414 87.9258 448.07 87.9258C447.008 87.9258 446.18 88.3359 445.586 89.1562C444.992 89.9766 444.695 91.1914 444.695 92.8008ZM458.957 99H456.789V86.3203H458.957V99ZM456.613 82.957C456.613 82.6055 456.719 82.3086 456.93 82.0664C457.148 81.8242 457.469 81.7031 457.891 81.7031C458.312 81.7031 458.633 81.8242 458.852 82.0664C459.07 82.3086 459.18 82.6055 459.18 82.957C459.18 83.3086 459.07 83.6016 458.852 83.8359C458.633 84.0703 458.312 84.1875 457.891 84.1875C457.469 84.1875 457.148 84.0703 456.93 83.8359C456.719 83.6016 456.613 83.3086 456.613 82.957ZM464.488 86.3203L464.559 87.9141C465.527 86.6953 466.793 86.0859 468.355 86.0859C471.035 86.0859 472.387 87.5977 472.41 90.6211V99H470.242V90.6094C470.234 89.6953 470.023 89.0195 469.609 88.582C469.203 88.1445 468.566 87.9258 467.699 87.9258C466.996 87.9258 466.379 88.1133 465.848 88.4883C465.316 88.8633 464.902 89.3555 464.605 89.9648V99H462.438V86.3203H464.488ZM475.164 92.5547C475.164 90.5781 475.621 89.0078 476.535 87.8438C477.449 86.6719 478.66 86.0859 480.168 86.0859C481.715 86.0859 482.922 86.6328 483.789 87.7266L483.895 86.3203H485.875V98.6953C485.875 100.336 485.387 101.629 484.41 102.574C483.441 103.52 482.137 103.992 480.496 103.992C479.582 103.992 478.688 103.797 477.812 103.406C476.938 103.016 476.27 102.48 475.809 101.801L476.934 100.5C477.863 101.648 479 102.223 480.344 102.223C481.398 102.223 482.219 101.926 482.805 101.332C483.398 100.738 483.695 99.9023 483.695 98.8242V97.7344C482.828 98.7344 481.645 99.2344 480.145 99.2344C478.66 99.2344 477.457 98.6367 476.535 97.4414C475.621 96.2461 475.164 94.6172 475.164 92.5547ZM477.344 92.8008C477.344 94.2305 477.637 95.3555 478.223 96.1758C478.809 96.9883 479.629 97.3945 480.684 97.3945C482.051 97.3945 483.055 96.7734 483.695 95.5312V89.7422C483.031 88.5312 482.035 87.9258 480.707 87.9258C479.652 87.9258 478.828 88.3359 478.234 89.1562C477.641 89.9766 477.344 91.1914 477.344 92.8008ZM496.539 95.6367C496.539 95.0508 496.316 94.5977 495.871 94.2773C495.434 93.9492 494.664 93.668 493.562 93.4336C492.469 93.1992 491.598 92.918 490.949 92.5898C490.309 92.2617 489.832 91.8711 489.52 91.418C489.215 90.9648 489.062 90.4258 489.062 89.8008C489.062 88.7617 489.5 87.8828 490.375 87.1641C491.258 86.4453 492.383 86.0859 493.75 86.0859C495.188 86.0859 496.352 86.457 497.242 87.1992C498.141 87.9414 498.59 88.8906 498.59 90.0469H496.41C496.41 89.4531 496.156 88.9414 495.648 88.5117C495.148 88.082 494.516 87.8672 493.75 87.8672C492.961 87.8672 492.344 88.0391 491.898 88.3828C491.453 88.7266 491.23 89.1758 491.23 89.7305C491.23 90.2539 491.438 90.6484 491.852 90.9141C492.266 91.1797 493.012 91.4336 494.09 91.6758C495.176 91.918 496.055 92.207 496.727 92.543C497.398 92.8789 497.895 93.2852 498.215 93.7617C498.543 94.2305 498.707 94.8047 498.707 95.4844C498.707 96.6172 498.254 97.5273 497.348 98.2148C496.441 98.8945 495.266 99.2344 493.82 99.2344C492.805 99.2344 491.906 99.0547 491.125 98.6953C490.344 98.3359 489.73 97.8359 489.285 97.1953C488.848 96.5469 488.629 95.8477 488.629 95.0977H490.797C490.836 95.8242 491.125 96.4023 491.664 96.832C492.211 97.2539 492.93 97.4648 493.82 97.4648C494.641 97.4648 495.297 97.3008 495.789 96.9727C496.289 96.6367 496.539 96.1914 496.539 95.6367ZM507.027 94.418C507.027 93.5977 507.254 92.8438 507.707 92.1562C508.168 91.4688 509.043 90.668 510.332 89.7539C509.574 88.832 509.066 88.0898 508.809 87.5273C508.551 86.9648 508.422 86.4062 508.422 85.8516C508.422 84.5547 508.805 83.5391 509.57 82.8047C510.336 82.0703 511.375 81.7031 512.688 81.7031C513.859 81.7031 514.828 82.0469 515.594 82.7344C516.359 83.4141 516.742 84.2734 516.742 85.3125C516.742 86 516.566 86.6367 516.215 87.2227C515.871 87.8008 515.266 88.4102 514.398 89.0508L513.145 89.9766L516.941 94.5117C517.473 93.4961 517.738 92.3672 517.738 91.125H519.695C519.695 93.1172 519.215 94.7695 518.254 96.082L520.691 99H518.09L516.953 97.6523C516.375 98.168 515.695 98.5625 514.914 98.8359C514.141 99.1016 513.352 99.2344 512.547 99.2344C510.883 99.2344 509.547 98.793 508.539 97.9102C507.531 97.0273 507.027 95.8633 507.027 94.418ZM512.547 97.4648C513.695 97.4648 514.746 97.0273 515.699 96.1523L511.539 91.1719L511.152 91.4531C509.848 92.4141 509.195 93.4023 509.195 94.418C509.195 95.3398 509.492 96.0781 510.086 96.6328C510.688 97.1875 511.508 97.4648 512.547 97.4648ZM510.59 85.7812C510.59 86.5312 511.051 87.4688 511.973 88.5938L513.355 87.6211C513.887 87.2461 514.25 86.8906 514.445 86.5547C514.641 86.2109 514.738 85.7969 514.738 85.3125C514.738 84.7891 514.543 84.3555 514.152 84.0117C513.762 83.6602 513.27 83.4844 512.676 83.4844C512.035 83.4844 511.527 83.7031 511.152 84.1406C510.777 84.5703 510.59 85.1172 510.59 85.7812ZM533.043 91.0664L530.957 93.2344V99H528.707V81.9375H530.957V90.375L538.539 81.9375H541.258L534.543 89.4727L541.785 99H539.09L533.043 91.0664ZM548.371 99.2344C546.652 99.2344 545.254 98.6719 544.176 97.5469C543.098 96.4141 542.559 94.9023 542.559 93.0117V92.6133C542.559 91.3555 542.797 90.2344 543.273 89.25C543.758 88.2578 544.43 87.4844 545.289 86.9297C546.156 86.3672 547.094 86.0859 548.102 86.0859C549.75 86.0859 551.031 86.6289 551.945 87.7148C552.859 88.8008 553.316 90.3555 553.316 92.3789V93.2812H544.727C544.758 94.5312 545.121 95.543 545.816 96.3164C546.52 97.082 547.41 97.4648 548.488 97.4648C549.254 97.4648 549.902 97.3086 550.434 96.9961C550.965 96.6836 551.43 96.2695 551.828 95.7539L553.152 96.7852C552.09 98.418 550.496 99.2344 548.371 99.2344ZM548.102 87.8672C547.227 87.8672 546.492 88.1875 545.898 88.8281C545.305 89.4609 544.938 90.3516 544.797 91.5H551.148V91.3359C551.086 90.2344 550.789 89.3828 550.258 88.7812C549.727 88.1719 549.008 87.8672 548.102 87.8672ZM561.965 88.2656C561.637 88.2109 561.281 88.1836 560.898 88.1836C559.477 88.1836 558.512 88.7891 558.004 90V99H555.836V86.3203H557.945L557.98 87.7852C558.691 86.6523 559.699 86.0859 561.004 86.0859C561.426 86.0859 561.746 86.1406 561.965 86.25V88.2656ZM566.02 86.3203L566.09 87.9141C567.059 86.6953 568.324 86.0859 569.887 86.0859C572.566 86.0859 573.918 87.5977 573.941 90.6211V99H571.773V90.6094C571.766 89.6953 571.555 89.0195 571.141 88.582C570.734 88.1445 570.098 87.9258 569.23 87.9258C568.527 87.9258 567.91 88.1133 567.379 88.4883C566.848 88.8633 566.434 89.3555 566.137 89.9648V99H563.969V86.3203H566.02ZM582.473 99.2344C580.754 99.2344 579.355 98.6719 578.277 97.5469C577.199 96.4141 576.66 94.9023 576.66 93.0117V92.6133C576.66 91.3555 576.898 90.2344 577.375 89.25C577.859 88.2578 578.531 87.4844 579.391 86.9297C580.258 86.3672 581.195 86.0859 582.203 86.0859C583.852 86.0859 585.133 86.6289 586.047 87.7148C586.961 88.8008 587.418 90.3555 587.418 92.3789V93.2812H578.828C578.859 94.5312 579.223 95.543 579.918 96.3164C580.621 97.082 581.512 97.4648 582.59 97.4648C583.355 97.4648 584.004 97.3086 584.535 96.9961C585.066 96.6836 585.531 96.2695 585.93 95.7539L587.254 96.7852C586.191 98.418 584.598 99.2344 582.473 99.2344ZM582.203 87.8672C581.328 87.8672 580.594 88.1875 580 88.8281C579.406 89.4609 579.039 90.3516 578.898 91.5H585.25V91.3359C585.188 90.2344 584.891 89.3828 584.359 88.7812C583.828 88.1719 583.109 87.8672 582.203 87.8672ZM592.293 99H590.125V81H592.293V99ZM603.156 95.6367C603.156 95.0508 602.934 94.5977 602.488 94.2773C602.051 93.9492 601.281 93.668 600.18 93.4336C599.086 93.1992 598.215 92.918 597.566 92.5898C596.926 92.2617 596.449 91.8711 596.137 91.418C595.832 90.9648 595.68 90.4258 595.68 89.8008C595.68 88.7617 596.117 87.8828 596.992 87.1641C597.875 86.4453 599 86.0859 600.367 86.0859C601.805 86.0859 602.969 86.457 603.859 87.1992C604.758 87.9414 605.207 88.8906 605.207 90.0469H603.027C603.027 89.4531 602.773 88.9414 602.266 88.5117C601.766 88.082 601.133 87.8672 600.367 87.8672C599.578 87.8672 598.961 88.0391 598.516 88.3828C598.07 88.7266 597.848 89.1758 597.848 89.7305C597.848 90.2539 598.055 90.6484 598.469 90.9141C598.883 91.1797 599.629 91.4336 600.707 91.6758C601.793 91.918 602.672 92.207 603.344 92.543C604.016 92.8789 604.512 93.2852 604.832 93.7617C605.16 94.2305 605.324 94.8047 605.324 95.4844C605.324 96.6172 604.871 97.5273 603.965 98.2148C603.059 98.8945 601.883 99.2344 600.438 99.2344C599.422 99.2344 598.523 99.0547 597.742 98.6953C596.961 98.3359 596.348 97.8359 595.902 97.1953C595.465 96.5469 595.246 95.8477 595.246 95.0977H597.414C597.453 95.8242 597.742 96.4023 598.281 96.832C598.828 97.2539 599.547 97.4648 600.438 97.4648C601.258 97.4648 601.914 97.3008 602.406 96.9727C602.906 96.6367 603.156 96.1914 603.156 95.6367Z" fill="black"/>
<path d="M315.016 167H303.836V165.441L309.742 158.879C310.617 157.887 311.219 157.082 311.547 156.465C311.883 155.84 312.051 155.195 312.051 154.531C312.051 153.641 311.781 152.91 311.242 152.34C310.703 151.77 309.984 151.484 309.086 151.484C308.008 151.484 307.168 151.793 306.566 152.41C305.973 153.02 305.676 153.871 305.676 154.965H303.508C303.508 153.395 304.012 152.125 305.02 151.156C306.035 150.188 307.391 149.703 309.086 149.703C310.672 149.703 311.926 150.121 312.848 150.957C313.77 151.785 314.23 152.891 314.23 154.273C314.23 155.953 313.16 157.953 311.02 160.273L306.449 165.23H315.016V167ZM317.582 165.863C317.582 165.488 317.691 165.176 317.91 164.926C318.137 164.676 318.473 164.551 318.918 164.551C319.363 164.551 319.699 164.676 319.926 164.926C320.16 165.176 320.277 165.488 320.277 165.863C320.277 166.223 320.16 166.523 319.926 166.766C319.699 167.008 319.363 167.129 318.918 167.129C318.473 167.129 318.137 167.008 317.91 166.766C317.691 166.523 317.582 166.223 317.582 165.863ZM342.754 164.762C342.176 165.59 341.367 166.211 340.328 166.625C339.297 167.031 338.094 167.234 336.719 167.234C335.328 167.234 334.094 166.91 333.016 166.262C331.938 165.605 331.102 164.676 330.508 163.473C329.922 162.27 329.621 160.875 329.605 159.289V157.801C329.605 155.23 330.203 153.238 331.398 151.824C332.602 150.41 334.289 149.703 336.461 149.703C338.242 149.703 339.676 150.16 340.762 151.074C341.848 151.98 342.512 153.27 342.754 154.941H340.504C340.082 152.684 338.738 151.555 336.473 151.555C334.965 151.555 333.82 152.086 333.039 153.148C332.266 154.203 331.875 155.734 331.867 157.742V159.137C331.867 161.051 332.305 162.574 333.18 163.707C334.055 164.832 335.238 165.395 336.73 165.395C337.574 165.395 338.312 165.301 338.945 165.113C339.578 164.926 340.102 164.609 340.516 164.164V160.332H336.566V158.504H342.754V164.762ZM352.305 156.266C351.977 156.211 351.621 156.184 351.238 156.184C349.816 156.184 348.852 156.789 348.344 158V167H346.176V154.32H348.285L348.32 155.785C349.031 154.652 350.039 154.086 351.344 154.086C351.766 154.086 352.086 154.141 352.305 154.25V156.266ZM361.668 167C361.543 166.75 361.441 166.305 361.363 165.664C360.355 166.711 359.152 167.234 357.754 167.234C356.504 167.234 355.477 166.883 354.672 166.18C353.875 165.469 353.477 164.57 353.477 163.484C353.477 162.164 353.977 161.141 354.977 160.414C355.984 159.68 357.398 159.312 359.219 159.312H361.328V158.316C361.328 157.559 361.102 156.957 360.648 156.512C360.195 156.059 359.527 155.832 358.645 155.832C357.871 155.832 357.223 156.027 356.699 156.418C356.176 156.809 355.914 157.281 355.914 157.836H353.734C353.734 157.203 353.957 156.594 354.402 156.008C354.855 155.414 355.465 154.945 356.23 154.602C357.004 154.258 357.852 154.086 358.773 154.086C360.234 154.086 361.379 154.453 362.207 155.188C363.035 155.914 363.465 156.918 363.496 158.199V164.035C363.496 165.199 363.645 166.125 363.941 166.812V167H361.668ZM358.07 165.348C358.75 165.348 359.395 165.172 360.004 164.82C360.613 164.469 361.055 164.012 361.328 163.449V160.848H359.629C356.973 160.848 355.645 161.625 355.645 163.18C355.645 163.859 355.871 164.391 356.324 164.773C356.777 165.156 357.359 165.348 358.07 165.348ZM377.605 160.801C377.605 162.73 377.164 164.285 376.281 165.465C375.398 166.645 374.203 167.234 372.695 167.234C371.156 167.234 369.945 166.746 369.062 165.77V171.875H366.895V154.32H368.875L368.98 155.727C369.863 154.633 371.09 154.086 372.66 154.086C374.184 154.086 375.387 154.66 376.27 155.809C377.16 156.957 377.605 158.555 377.605 160.602V160.801ZM375.438 160.555C375.438 159.125 375.133 157.996 374.523 157.168C373.914 156.34 373.078 155.926 372.016 155.926C370.703 155.926 369.719 156.508 369.062 157.672V163.73C369.711 164.887 370.703 165.465 372.039 165.465C373.078 165.465 373.902 165.055 374.512 164.234C375.129 163.406 375.438 162.18 375.438 160.555ZM382.539 155.855C383.5 154.676 384.75 154.086 386.289 154.086C388.969 154.086 390.32 155.598 390.344 158.621V167H388.176V158.609C388.168 157.695 387.957 157.02 387.543 156.582C387.137 156.145 386.5 155.926 385.633 155.926C384.93 155.926 384.312 156.113 383.781 156.488C383.25 156.863 382.836 157.355 382.539 157.965V167H380.371V149H382.539V155.855ZM412.996 167H410.734L402.145 153.852V167H399.883V149.938H402.145L410.758 163.145V149.938H412.996V167ZM421.914 167.234C420.195 167.234 418.797 166.672 417.719 165.547C416.641 164.414 416.102 162.902 416.102 161.012V160.613C416.102 159.355 416.34 158.234 416.816 157.25C417.301 156.258 417.973 155.484 418.832 154.93C419.699 154.367 420.637 154.086 421.645 154.086C423.293 154.086 424.574 154.629 425.488 155.715C426.402 156.801 426.859 158.355 426.859 160.379V161.281H418.27C418.301 162.531 418.664 163.543 419.359 164.316C420.062 165.082 420.953 165.465 422.031 165.465C422.797 165.465 423.445 165.309 423.977 164.996C424.508 164.684 424.973 164.27 425.371 163.754L426.695 164.785C425.633 166.418 424.039 167.234 421.914 167.234ZM421.645 155.867C420.77 155.867 420.035 156.188 419.441 156.828C418.848 157.461 418.48 158.352 418.34 159.5H424.691V159.336C424.629 158.234 424.332 157.383 423.801 156.781C423.27 156.172 422.551 155.867 421.645 155.867ZM437.207 165.746C436.363 166.738 435.125 167.234 433.492 167.234C432.141 167.234 431.109 166.844 430.398 166.062C429.695 165.273 429.34 164.109 429.332 162.57V154.32H431.5V162.512C431.5 164.434 432.281 165.395 433.844 165.395C435.5 165.395 436.602 164.777 437.148 163.543V154.32H439.316V167H437.254L437.207 165.746ZM448.75 156.266C448.422 156.211 448.066 156.184 447.684 156.184C446.262 156.184 445.297 156.789 444.789 158V167H442.621V154.32H444.73L444.766 155.785C445.477 154.652 446.484 154.086 447.789 154.086C448.211 154.086 448.531 154.141 448.75 154.25V156.266ZM458.113 167C457.988 166.75 457.887 166.305 457.809 165.664C456.801 166.711 455.598 167.234 454.199 167.234C452.949 167.234 451.922 166.883 451.117 166.18C450.32 165.469 449.922 164.57 449.922 163.484C449.922 162.164 450.422 161.141 451.422 160.414C452.43 159.68 453.844 159.312 455.664 159.312H457.773V158.316C457.773 157.559 457.547 156.957 457.094 156.512C456.641 156.059 455.973 155.832 455.09 155.832C454.316 155.832 453.668 156.027 453.145 156.418C452.621 156.809 452.359 157.281 452.359 157.836H450.18C450.18 157.203 450.402 156.594 450.848 156.008C451.301 155.414 451.91 154.945 452.676 154.602C453.449 154.258 454.297 154.086 455.219 154.086C456.68 154.086 457.824 154.453 458.652 155.188C459.48 155.914 459.91 156.918 459.941 158.199V164.035C459.941 165.199 460.09 166.125 460.387 166.812V167H458.113ZM454.516 165.348C455.195 165.348 455.84 165.172 456.449 164.82C457.059 164.469 457.5 164.012 457.773 163.449V160.848H456.074C453.418 160.848 452.09 161.625 452.09 163.18C452.09 163.859 452.316 164.391 452.77 164.773C453.223 165.156 453.805 165.348 454.516 165.348ZM465.695 167H463.527V149H465.695V167ZM488.582 167H486.32L477.73 153.852V167H475.469V149.938H477.73L486.344 163.145V149.938H488.582V167ZM497.5 167.234C495.781 167.234 494.383 166.672 493.305 165.547C492.227 164.414 491.688 162.902 491.688 161.012V160.613C491.688 159.355 491.926 158.234 492.402 157.25C492.887 156.258 493.559 155.484 494.418 154.93C495.285 154.367 496.223 154.086 497.23 154.086C498.879 154.086 500.16 154.629 501.074 155.715C501.988 156.801 502.445 158.355 502.445 160.379V161.281H493.855C493.887 162.531 494.25 163.543 494.945 164.316C495.648 165.082 496.539 165.465 497.617 165.465C498.383 165.465 499.031 165.309 499.562 164.996C500.094 164.684 500.559 164.27 500.957 163.754L502.281 164.785C501.219 166.418 499.625 167.234 497.5 167.234ZM497.23 155.867C496.355 155.867 495.621 156.188 495.027 156.828C494.434 157.461 494.066 158.352 493.926 159.5H500.277V159.336C500.215 158.234 499.918 157.383 499.387 156.781C498.855 156.172 498.137 155.867 497.23 155.867ZM507.906 151.25V154.32H510.273V155.996H507.906V163.859C507.906 164.367 508.012 164.75 508.223 165.008C508.434 165.258 508.793 165.383 509.301 165.383C509.551 165.383 509.895 165.336 510.332 165.242V167C509.762 167.156 509.207 167.234 508.668 167.234C507.699 167.234 506.969 166.941 506.477 166.355C505.984 165.77 505.738 164.938 505.738 163.859V155.996H503.43V154.32H505.738V151.25H507.906ZM524.043 164.012L526.48 154.32H528.648L524.957 167H523.199L520.117 157.391L517.117 167H515.359L511.68 154.32H513.836L516.332 163.812L519.285 154.32H521.031L524.043 164.012ZM530.289 160.543C530.289 159.301 530.531 158.184 531.016 157.191C531.508 156.199 532.188 155.434 533.055 154.895C533.93 154.355 534.926 154.086 536.043 154.086C537.77 154.086 539.164 154.684 540.227 155.879C541.297 157.074 541.832 158.664 541.832 160.648V160.801C541.832 162.035 541.594 163.145 541.117 164.129C540.648 165.105 539.973 165.867 539.09 166.414C538.215 166.961 537.207 167.234 536.066 167.234C534.348 167.234 532.953 166.637 531.883 165.441C530.82 164.246 530.289 162.664 530.289 160.695V160.543ZM532.469 160.801C532.469 162.207 532.793 163.336 533.441 164.188C534.098 165.039 534.973 165.465 536.066 165.465C537.168 165.465 538.043 165.035 538.691 164.176C539.34 163.309 539.664 162.098 539.664 160.543C539.664 159.152 539.332 158.027 538.668 157.168C538.012 156.301 537.137 155.867 536.043 155.867C534.973 155.867 534.109 156.293 533.453 157.145C532.797 157.996 532.469 159.215 532.469 160.801ZM550.68 156.266C550.352 156.211 549.996 156.184 549.613 156.184C548.191 156.184 547.227 156.789 546.719 158V167H544.551V154.32H546.66L546.695 155.785C547.406 154.652 548.414 154.086 549.719 154.086C550.141 154.086 550.461 154.141 550.68 154.25V156.266ZM556.223 161.129L554.863 162.547V167H552.695V149H554.863V159.887L556.023 158.492L559.973 154.32H562.609L557.676 159.617L563.184 167H560.641L556.223 161.129ZM572.23 163.637C572.23 163.051 572.008 162.598 571.562 162.277C571.125 161.949 570.355 161.668 569.254 161.434C568.16 161.199 567.289 160.918 566.641 160.59C566 160.262 565.523 159.871 565.211 159.418C564.906 158.965 564.754 158.426 564.754 157.801C564.754 156.762 565.191 155.883 566.066 155.164C566.949 154.445 568.074 154.086 569.441 154.086C570.879 154.086 572.043 154.457 572.934 155.199C573.832 155.941 574.281 156.891 574.281 158.047H572.102C572.102 157.453 571.848 156.941 571.34 156.512C570.84 156.082 570.207 155.867 569.441 155.867C568.652 155.867 568.035 156.039 567.59 156.383C567.145 156.727 566.922 157.176 566.922 157.73C566.922 158.254 567.129 158.648 567.543 158.914C567.957 159.18 568.703 159.434 569.781 159.676C570.867 159.918 571.746 160.207 572.418 160.543C573.09 160.879 573.586 161.285 573.906 161.762C574.234 162.23 574.398 162.805 574.398 163.484C574.398 164.617 573.945 165.527 573.039 166.215C572.133 166.895 570.957 167.234 569.512 167.234C568.496 167.234 567.598 167.055 566.816 166.695C566.035 166.336 565.422 165.836 564.977 165.195C564.539 164.547 564.32 163.848 564.32 163.098H566.488C566.527 163.824 566.816 164.402 567.355 164.832C567.902 165.254 568.621 165.465 569.512 165.465C570.332 165.465 570.988 165.301 571.48 164.973C571.98 164.637 572.23 164.191 572.23 163.637Z" fill="black"/>
</svg>
