<svg width="416" height="142" viewBox="0 0 416 142" fill="none" xmlns="http://www.w3.org/2000/svg">
<rect width="416" height="142" fill="white"/>
<path d="M22 36L10 93.5M10 93.5L70.5 74M10 93.5L53.5 131L70.5 74M10 93.5L82.5 9.5L123 41L136 94.5M70.5 74L136 94.5M136 94.5L107.5 133.5" stroke="black" stroke-width="2"/>
<circle cx="21" cy="35" r="10" fill="black"/>
<circle cx="10" cy="92" r="10" fill="black"/>
<circle cx="53" cy="128" r="10" fill="black"/>
<circle cx="71" cy="73" r="10" fill="black"/>
<circle cx="82" cy="10" r="10" fill="black"/>
<circle cx="122" cy="42" r="10" fill="black"/>
<circle cx="135" cy="93" r="10" fill="black"/>
<circle cx="106" cy="132" r="10" fill="black"/>
<path d="M92 10H247M31 35H247M132 42H247M81 73H247M20 91H247M63 128H247M116 132H247M145 94H247" stroke="black" stroke-dasharray="5 2"/>
<path d="M410.388 76.6246C409.771 77.4921 408.881 78.2683 407.762 78.2683C407.488 78.2683 406.393 78.2226 406.05 77.1725C406.119 77.1953 406.233 77.1953 406.278 77.1953C406.963 77.1953 407.42 76.6018 407.42 76.0767C407.42 75.5516 406.986 75.369 406.644 75.369C406.278 75.369 405.479 75.6429 405.479 76.7616C405.479 77.9259 406.461 78.7249 407.762 78.7249C410.045 78.7249 412.351 76.6246 412.99 74.0905L415.228 65.1871C415.25 65.073 415.296 64.936 415.296 64.799C415.296 64.4566 415.022 64.2283 414.68 64.2283C414.474 64.2283 413.995 64.3196 413.812 65.0045L412.123 71.7163C412.009 72.1272 412.009 72.1729 411.826 72.424C411.369 73.0632 410.616 73.8394 409.52 73.8394C408.242 73.8394 408.128 72.5838 408.128 71.9674C408.128 70.6661 408.744 68.9083 409.36 67.2646C409.612 66.6025 409.748 66.2829 409.748 65.8263C409.748 64.8675 409.064 64 407.945 64C405.845 64 405 67.3102 405 67.4929C405 67.5842 405.091 67.6983 405.251 67.6983C405.457 67.6983 405.479 67.607 405.571 67.2874C406.119 65.3698 406.986 64.4566 407.876 64.4566C408.082 64.4566 408.47 64.4566 408.47 65.2099C408.47 65.8035 408.219 66.4656 407.876 67.3331C406.758 70.3237 406.758 71.0771 406.758 71.625C406.758 73.7938 408.31 74.296 409.452 74.296C410.114 74.296 410.936 74.0905 411.735 73.2459L411.757 73.2687C411.415 74.6156 411.187 75.506 410.388 76.6246Z" fill="black"/>
<rect x="177.5" y="0.5" width="49" height="141" rx="1.5" fill="#F5F7FB" stroke="#95ABD7"/>
<path d="M203.488 112.467C204.992 112.643 206.154 113.199 206.975 114.137C207.788 115.068 208.195 116.308 208.195 117.857C208.195 119.537 207.593 120.885 206.389 121.9C205.184 122.91 203.573 123.414 201.555 123.414L200.187 123.414C198.866 123.414 197.704 123.18 196.701 122.711C195.699 122.236 194.93 121.565 194.396 120.699C193.856 119.833 193.586 118.831 193.586 117.691C193.586 116.181 194.009 114.97 194.855 114.059C195.695 113.147 196.861 112.617 198.352 112.467L198.352 114.352C197.219 114.514 196.398 114.869 195.891 115.416C195.383 115.956 195.129 116.715 195.129 117.691C195.129 118.889 195.572 119.83 196.457 120.514C197.342 121.191 198.602 121.529 200.236 121.529L201.613 121.529C203.156 121.529 204.383 121.207 205.295 120.562C206.206 119.918 206.662 119.016 206.662 117.857C206.662 116.816 206.428 116.018 205.959 115.465C205.484 114.905 204.66 114.534 203.488 114.352L203.488 112.467ZM202.619 110.66C201.584 110.66 200.653 110.458 199.826 110.055C198.999 109.645 198.361 109.078 197.912 108.355C197.463 107.626 197.238 106.796 197.238 105.865C197.238 104.426 197.736 103.264 198.732 102.379C199.729 101.487 201.053 101.041 202.707 101.041L202.834 101.041C203.863 101.041 204.787 101.24 205.607 101.637C206.421 102.027 207.056 102.59 207.512 103.326C207.967 104.055 208.195 104.895 208.195 105.846C208.195 107.278 207.697 108.44 206.701 109.332C205.705 110.217 204.387 110.66 202.746 110.66L202.619 110.66ZM202.834 108.844C204.006 108.844 204.947 108.574 205.656 108.033C206.366 107.486 206.721 106.757 206.721 105.846C206.721 104.928 206.363 104.199 205.646 103.658C204.924 103.118 203.915 102.848 202.619 102.848C201.46 102.848 200.523 103.124 199.807 103.678C199.084 104.225 198.723 104.954 198.723 105.865C198.723 106.757 199.077 107.477 199.787 108.023C200.497 108.57 201.512 108.844 202.834 108.844ZM197.434 97.0664L198.762 97.0078C197.746 96.2005 197.238 95.1458 197.238 93.8437C197.238 91.6107 198.498 90.4844 201.018 90.4648L208 90.4648L208 92.2715L201.008 92.2715C200.246 92.278 199.683 92.4538 199.318 92.7988C198.954 93.1374 198.771 93.668 198.771 94.3906C198.771 94.9766 198.928 95.4909 199.24 95.9336C199.553 96.3763 199.963 96.7214 200.471 96.9687L208 96.9687L208 98.7754L197.434 98.7754L197.434 97.0664ZM205.549 84.2539L197.434 81.6367L197.434 79.791L208 83.5801L208 84.957L197.434 88.7852L197.434 86.9395L205.549 84.2539ZM202.619 78.6875C201.584 78.6875 200.653 78.4857 199.826 78.082C198.999 77.6719 198.361 77.1055 197.912 76.3828C197.463 75.6536 197.238 74.8236 197.238 73.8926C197.238 72.4538 197.736 71.2917 198.732 70.4062C199.729 69.5143 201.053 69.0684 202.707 69.0684L202.834 69.0684C203.863 69.0684 204.787 69.2669 205.607 69.6641C206.421 70.0547 207.056 70.6178 207.512 71.3535C207.967 72.0827 208.195 72.9225 208.195 73.873C208.195 75.3053 207.697 76.4674 206.701 77.3594C205.705 78.2448 204.387 78.6875 202.746 78.6875L202.619 78.6875ZM202.834 76.8711C204.006 76.8711 204.947 76.6009 205.656 76.0605C206.366 75.5137 206.721 74.7845 206.721 73.873C206.721 72.9551 206.363 72.2259 205.646 71.6855C204.924 71.1452 203.915 70.875 202.619 70.875C201.46 70.875 200.523 71.1517 199.807 71.7051C199.084 72.252 198.723 72.9811 198.723 73.8926C198.723 74.7845 199.077 75.5039 199.787 76.0508C200.497 76.5977 201.512 76.8711 202.834 76.8711ZM208 64.8398L208 66.6465L193 66.6465L193 64.8398L208 64.8398ZM206.955 55.416C207.782 56.1191 208.195 57.151 208.195 58.5117C208.195 59.638 207.87 60.4974 207.219 61.0898C206.561 61.6758 205.591 61.972 204.309 61.9785L197.434 61.9785L197.434 60.1719L204.26 60.1719C205.861 60.1719 206.662 59.5208 206.662 58.2187C206.662 56.8385 206.148 55.9206 205.119 55.4648L197.434 55.4648L197.434 53.6582L208 53.6582L208 55.377L206.955 55.416ZM194.875 48.4531L197.434 48.4531L197.434 46.4805L198.83 46.4805L198.83 48.4531L205.383 48.4531C205.806 48.4531 206.125 48.3652 206.34 48.1895C206.548 48.0137 206.652 47.7142 206.652 47.291C206.652 47.0827 206.613 46.7962 206.535 46.4316L208 46.4316C208.13 46.9069 208.195 47.3691 208.195 47.8184C208.195 48.6257 207.951 49.2344 207.463 49.6445C206.975 50.0547 206.281 50.2598 205.383 50.2598L198.83 50.2598L198.83 52.1836L197.434 52.1836L197.434 50.2598L194.875 50.2598L194.875 48.4531ZM208 42.3984L208 44.2051L197.434 44.2051L197.434 42.3984L208 42.3984ZM194.631 44.3516C194.338 44.3516 194.09 44.2637 193.889 44.0879C193.687 43.9056 193.586 43.6387 193.586 43.2871C193.586 42.9355 193.687 42.6686 193.889 42.4863C194.09 42.304 194.338 42.2129 194.631 42.2129C194.924 42.2129 195.168 42.304 195.363 42.4863C195.559 42.6686 195.656 42.9355 195.656 43.2871C195.656 43.6387 195.559 43.9056 195.363 44.0879C195.168 44.2637 194.924 44.3516 194.631 44.3516ZM202.619 39.9766C201.584 39.9766 200.653 39.7747 199.826 39.3711C198.999 38.9609 198.361 38.3945 197.912 37.6719C197.463 36.9427 197.238 36.1126 197.238 35.1816C197.238 33.7428 197.736 32.5807 198.732 31.6953C199.729 30.8034 201.053 30.3574 202.707 30.3574L202.834 30.3574C203.863 30.3574 204.787 30.556 205.607 30.9531C206.421 31.3437 207.056 31.9069 207.512 32.6426C207.967 33.3717 208.195 34.2116 208.195 35.1621C208.195 36.5944 207.697 37.7565 206.701 38.6484C205.705 39.5339 204.387 39.9766 202.746 39.9766L202.619 39.9766ZM202.834 38.1602C204.006 38.1602 204.947 37.89 205.656 37.3496C206.366 36.8027 206.721 36.0736 206.721 35.1621C206.721 34.2441 206.363 33.515 205.646 32.9746C204.924 32.4342 203.915 32.1641 202.619 32.1641C201.46 32.1641 200.523 32.4408 199.807 32.9941C199.084 33.541 198.723 34.2702 198.723 35.1816C198.723 36.0736 199.077 36.793 199.787 37.3398C200.497 37.8867 201.512 38.1602 202.834 38.1602ZM197.434 26.3828L198.762 26.3242C197.746 25.5169 197.238 24.4622 197.238 23.1602C197.238 20.9271 198.498 19.8008 201.018 19.7812L208 19.7812L208 21.5879L201.008 21.5879C200.246 21.5944 199.683 21.7702 199.318 22.1152C198.954 22.4538 198.771 22.9844 198.771 23.707C198.771 24.293 198.928 24.8073 199.24 25.25C199.553 25.6927 199.963 26.0378 200.471 26.2852L208 26.2852L208 28.0918L197.434 28.0918L197.434 26.3828Z" fill="black"/>
<rect x="317.5" y="0.5" width="49" height="141" rx="1.5" fill="#F5F7FB" stroke="#95ABD7"/>
<path d="M333.781 87.8477L345.383 83.1992L333.781 78.5508L333.781 76.1191L348 76.1191L348 77.9941L342.463 77.9941L336.486 77.8184L348 82.4863L348 83.9219L336.516 88.5801L342.463 88.3945L348 88.3945L348 90.2695L333.781 90.2695L333.781 87.8477ZM346.467 70.9238L346.467 64.1855L348 64.1855L348 72.8086L333.781 72.8086L333.781 70.9238L346.467 70.9238ZM342.434 60.1719L348 60.1719L348 62.0469L333.781 62.0469L333.781 56.8027C333.781 55.2467 334.178 54.0293 334.973 53.1504C335.767 52.265 336.818 51.8223 338.127 51.8223C339.507 51.8223 340.572 52.2552 341.32 53.1211C342.062 53.9805 342.434 55.2142 342.434 56.8223L342.434 60.1719ZM340.9 60.1719L340.9 56.8027C340.9 55.8001 340.666 55.0319 340.197 54.498C339.722 53.9642 339.038 53.6973 338.146 53.6973C337.3 53.6973 336.623 53.9642 336.115 54.498C335.607 55.0319 335.344 55.7643 335.324 56.6953L335.324 60.1719L340.9 60.1719Z" fill="black"/>
<rect x="247.5" y="0.5" width="49" height="141" rx="1.5" fill="#F5F7FB" stroke="#95ABD7"/>
<path d="M272.434 101.617L278 101.617L278 103.492L263.781 103.492L263.781 98.248C263.781 96.6921 264.178 95.4746 264.973 94.5957C265.767 93.7103 266.818 93.2676 268.127 93.2676C269.507 93.2676 270.572 93.7005 271.32 94.5664C272.062 95.4258 272.434 96.6595 272.434 98.2676L272.434 101.617ZM270.9 101.617L270.9 98.248C270.9 97.2454 270.666 96.4772 270.197 95.9434C269.722 95.4095 269.038 95.1426 268.146 95.1426C267.3 95.1426 266.623 95.4095 266.115 95.9434C265.607 96.4772 265.344 97.2096 265.324 98.1406L265.324 101.617L270.9 101.617ZM272.619 91.7734C271.584 91.7734 270.653 91.5716 269.826 91.168C268.999 90.7578 268.361 90.1914 267.912 89.4687C267.463 88.7396 267.238 87.9095 267.238 86.9785C267.238 85.5397 267.736 84.3776 268.732 83.4922C269.729 82.6003 271.053 82.1543 272.707 82.1543L272.834 82.1543C273.863 82.1543 274.787 82.3529 275.607 82.75C276.421 83.1406 277.056 83.7038 277.512 84.4395C277.967 85.1686 278.195 86.0085 278.195 86.959C278.195 88.3913 277.697 89.5534 276.701 90.4453C275.705 91.3307 274.387 91.7734 272.746 91.7734L272.619 91.7734ZM272.834 89.957C274.006 89.957 274.947 89.6868 275.656 89.1465C276.366 88.5996 276.721 87.8704 276.721 86.959C276.721 86.041 276.363 85.3118 275.646 84.7715C274.924 84.2311 273.915 83.9609 272.619 83.9609C271.46 83.9609 270.523 84.2376 269.807 84.791C269.084 85.3379 268.723 86.0671 268.723 86.9785C268.723 87.8704 269.077 88.5898 269.787 89.1367C270.497 89.6836 271.512 89.957 272.834 89.957ZM272.619 80.3672C271.584 80.3672 270.653 80.1654 269.826 79.7617C268.999 79.3516 268.361 78.7852 267.912 78.0625C267.463 77.3333 267.238 76.5033 267.238 75.5723C267.238 74.1335 267.736 72.9714 268.732 72.0859C269.729 71.194 271.053 70.748 272.707 70.748L272.834 70.748C273.863 70.748 274.787 70.9466 275.607 71.3437C276.421 71.7344 277.056 72.2975 277.512 73.0332C277.967 73.7624 278.195 74.6022 278.195 75.5527C278.195 76.985 277.697 78.1471 276.701 79.0391C275.705 79.9245 274.387 80.3672 272.746 80.3672L272.619 80.3672ZM272.834 78.5508C274.006 78.5508 274.947 78.2806 275.656 77.7402C276.366 77.1934 276.721 76.4642 276.721 75.5527C276.721 74.6348 276.363 73.9056 275.646 73.3652C274.924 72.8249 273.915 72.5547 272.619 72.5547C271.46 72.5547 270.523 72.8314 269.807 73.3848C269.084 73.9316 268.723 74.6608 268.723 75.5723C268.723 76.4642 269.077 77.1836 269.787 77.7305C270.497 78.2773 271.512 78.5508 272.834 78.5508ZM278 66.5195L278 68.3262L263 68.3262L263 66.5195L278 66.5195ZM278 61.6562L278 63.4629L267.434 63.4629L267.434 61.6562L278 61.6562ZM264.631 63.6094C264.338 63.6094 264.09 63.5215 263.889 63.3457C263.687 63.1634 263.586 62.8965 263.586 62.5449C263.586 62.1934 263.687 61.9264 263.889 61.7441C264.09 61.5618 264.338 61.4707 264.631 61.4707C264.924 61.4707 265.168 61.5618 265.363 61.7441C265.559 61.9264 265.656 62.1934 265.656 62.5449C265.656 62.8965 265.559 63.1634 265.363 63.3457C265.168 63.5215 264.924 63.6094 264.631 63.6094ZM267.434 57.0469L268.762 56.9883C267.746 56.181 267.238 55.1263 267.238 53.8242C267.238 51.5911 268.498 50.4648 271.018 50.4453L278 50.4453L278 52.252L271.008 52.252C270.246 52.2585 269.683 52.4342 269.318 52.7793C268.954 53.1178 268.771 53.6484 268.771 54.3711C268.771 54.957 268.928 55.4714 269.24 55.9141C269.553 56.3568 269.963 56.7018 270.471 56.9492L278 56.9492L278 58.7559L267.434 58.7559L267.434 57.0469ZM272.629 48.1504C270.982 48.1504 269.673 47.7695 268.703 47.0078C267.727 46.2461 267.238 45.237 267.238 43.9805C267.238 42.6914 267.694 41.6855 268.605 40.9629L267.434 40.875L267.434 39.2246L277.746 39.2246C279.113 39.2246 280.191 39.6315 280.979 40.4453C281.766 41.2526 282.16 42.3398 282.16 43.707C282.16 44.4687 281.997 45.2142 281.672 45.9434C281.346 46.6725 280.9 47.2292 280.334 47.6133L279.25 46.6758C280.207 45.901 280.686 44.9538 280.686 43.834C280.686 42.9551 280.438 42.2715 279.943 41.7832C279.449 41.2884 278.752 41.041 277.854 41.041L276.945 41.041C277.779 41.7637 278.195 42.75 278.195 44C278.195 45.237 277.697 46.2396 276.701 47.0078C275.705 47.7695 274.348 48.1504 272.629 48.1504ZM272.834 46.334C274.025 46.334 274.963 46.0898 275.646 45.6016C276.324 45.1133 276.662 44.4297 276.662 43.5508C276.662 42.4115 276.145 41.5749 275.109 41.041L270.285 41.041C269.276 41.5944 268.771 42.4245 268.771 43.5312C268.771 44.4102 269.113 45.097 269.797 45.5918C270.48 46.0866 271.493 46.334 272.834 46.334Z" fill="black"/>
<path d="M397 71L387 65.2265V76.7735L397 71ZM367 72H388V70H367V72Z" fill="black"/>
<path d="M317 71L307 65.2265V76.7735L317 71ZM297 72H308V70H297V72Z" fill="black"/>
</svg>
