<svg width="96" height="94" viewBox="0 0 96 94" fill="none" xmlns="http://www.w3.org/2000/svg">
<path d="M45 52L55 67M45 52L35 67M45 52L45 37L45 22M45 52L30 52L15 62L35 67M55 67L60 82M55 67L75 62M55 67L45 87M35 67L30 82M35 67L15 77L30 82M30 82L45 87M45 22L39 7M45 22L51 7M45 22L61 17M39 7L29 17M39 7L51 7M51 7L61 17M60 82L75 77L75 62M60 82L45 87M75 62L89 57L85 37L65 37M61 17L76 22L65 37M29 17L14 22M29 17L25 37M14 22L5 37M14 22L25 37M25 37L5 52M65 37L65 52" stroke="black"/>
<path d="M50 67C50 64.2386 52.2386 62 55 62C57.7614 62 60 64.2386 60 67C60 69.7614 57.7614 72 55 72C52.2386 72 50 69.7614 50 67Z" fill="#B33535"/>
<path d="M30 67C30 64.2386 32.2386 62 35 62C37.7614 62 40 64.2386 40 67C40 69.7614 37.7614 72 35 72C32.2386 72 30 69.7614 30 67Z" fill="#B33535"/>
<path d="M10 62C10 59.2386 12.2386 57 15 57C17.7614 57 20 59.2386 20 62C20 64.7614 17.7614 67 15 67C12.2386 67 10 64.7614 10 62Z" fill="#355FB3"/>
<path d="M25 82C25 79.2386 27.2386 77 30 77C32.7614 77 35 79.2386 35 82C35 84.7614 32.7614 87 30 87C27.2386 87 25 84.7614 25 82Z" fill="#355FB3"/>
<path d="M10 77C10 74.2386 12.2386 72 15 72C17.7614 72 20 74.2386 20 77C20 79.7614 17.7614 82 15 82C12.2386 82 10 79.7614 10 77Z" fill="#355FB3"/>
<path d="M70 77C70 74.2386 72.2386 72 75 72C77.7614 72 80 74.2386 80 77C80 79.7614 77.7614 82 75 82C72.2386 82 70 79.7614 70 77Z" fill="#355FB3"/>
<path d="M40 87C40 84.2386 42.2386 82 45 82C47.7614 82 50 84.2386 50 87C50 89.7614 47.7614 92 45 92C42.2386 92 40 89.7614 40 87Z" fill="#355FB3"/>
<path d="M84 57C84 54.2386 86.2386 52 89 52C91.7614 52 94 54.2386 94 57C94 59.7614 91.7614 62 89 62C86.2386 62 84 59.7614 84 57Z" fill="#355FB3"/>
<path d="M40 22C40 19.2386 42.2386 17 45 17C47.7614 17 50 19.2386 50 22C50 24.7614 47.7614 27 45 27C42.2386 27 40 24.7614 40 22Z" fill="#355FB3"/>
<path d="M34 7C34 4.23858 36.2386 2 39 2C41.7614 2 44 4.23858 44 7C44 9.76142 41.7614 12 39 12C36.2386 12 34 9.76142 34 7Z" fill="#355FB3"/>
<path d="M24 17C24 14.2386 26.2386 12 29 12C31.7614 12 34 14.2386 34 17C34 19.7614 31.7614 22 29 22C26.2386 22 24 19.7614 24 17Z" fill="black"/>
<path d="M9 22C9 19.2386 11.2386 17 14 17C16.7614 17 19 19.2386 19 22C19 24.7614 16.7614 27 14 27C11.2386 27 9 24.7614 9 22Z" fill="black"/>
<path d="M46 7C46 4.23858 48.2386 2 51 2C53.7614 2 56 4.23858 56 7C56 9.76142 53.7614 12 51 12C48.2386 12 46 9.76142 46 7Z" fill="#355FB3"/>
<path d="M56 17C56 14.2386 58.2386 12 61 12C63.7614 12 66 14.2386 66 17C66 19.7614 63.7614 22 61 22C58.2386 22 56 19.7614 56 17Z" fill="#355FB3"/>
<path d="M71 22C71 19.2386 73.2386 17 76 17C78.7614 17 81 19.2386 81 22C81 24.7614 78.7614 27 76 27C73.2386 27 71 24.7614 71 22Z" fill="black"/>
<path d="M55 82C55 79.2386 57.2386 77 60 77C62.7614 77 65 79.2386 65 82C65 84.7614 62.7614 87 60 87C57.2386 87 55 84.7614 55 82Z" fill="#355FB3"/>
<path d="M70 62C70 59.2386 72.2386 57 75 57C77.7614 57 80 59.2386 80 62C80 64.7614 77.7614 67 75 67C72.2386 67 70 64.7614 70 62Z" fill="#355FB3"/>
<path d="M40 37C40 34.2386 42.2386 32 45 32C47.7614 32 50 34.2386 50 37C50 39.7614 47.7614 42 45 42C42.2386 42 40 39.7614 40 37Z" fill="#B33535"/>
<path d="M20 37C20 34.2386 22.2386 32 25 32C27.7614 32 30 34.2386 30 37C30 39.7614 27.7614 42 25 42C22.2386 42 20 39.7614 20 37Z" fill="black"/>
<path d="M25 52C25 49.2386 27.2386 47 30 47C32.7614 47 35 49.2386 35 52C35 54.7614 32.7614 57 30 57C27.2386 57 25 54.7614 25 52Z" fill="#B33535"/>
<path d="M-2.18557e-07 37C-3.39263e-07 34.2386 2.23858 32 5 32C7.76142 32 10 34.2386 10 37C10 39.7614 7.76142 42 5 42C2.23858 42 -9.78513e-08 39.7614 -2.18557e-07 37Z" fill="black"/>
<path d="M-2.18557e-07 52C-3.39263e-07 49.2386 2.23858 47 5 47C7.76142 47 10 49.2386 10 52C10 54.7614 7.76142 57 5 57C2.23858 57 -9.78513e-08 54.7614 -2.18557e-07 52Z" fill="black"/>
<path d="M60 37C60 34.2386 62.2386 32 65 32C67.7614 32 70 34.2386 70 37C70 39.7614 67.7614 42 65 42C62.2386 42 60 39.7614 60 37Z" fill="black"/>
<path d="M60 52C60 49.2386 62.2386 47 65 47C67.7614 47 70 49.2386 70 52C70 54.7614 67.7614 57 65 57C62.2386 57 60 54.7614 60 52Z" fill="black"/>
<path d="M80 37C80 34.2386 82.2386 32 85 32C87.7614 32 90 34.2386 90 37C90 39.7614 87.7614 42 85 42C82.2386 42 80 39.7614 80 37Z" fill="black"/>
<path d="M40 52C40 49.2386 42.2386 47 45 47C47.7614 47 50 49.2386 50 52C50 54.7614 47.7614 57 45 57C42.2386 57 40 54.7614 40 52Z" fill="#B33535"/>
<path d="M25.6807 47.8193L40.7455 32.7545C44.595 28.905 51.1692 31.7595 50.9847 37.2004L50.5745 49.3011C50.5264 50.7208 50.9836 52.1115 51.8646 53.2258L59.8133 63.2786C62.9239 67.2125 60.122 73 55.1068 73H35.2346C32.6959 73 30.4319 71.4021 29.5814 69.0101L24.27 54.072C23.4943 51.8902 24.0433 49.4567 25.6807 47.8193Z" stroke="#B33535"/>
<path d="M77.1091 82.6396L46.9479 92.8411C45.6854 93.2682 44.3165 93.2627 43.0574 92.8255L13.0319 82.4C10.6182 81.5619 9 79.2871 9 76.7319V61.8076C9 59.4835 10.3423 57.3683 12.4452 56.3787L16.5526 54.4459C17.1794 54.1508 17.7505 53.7495 18.2404 53.2596L38.7568 32.7432C40.4263 31.0737 40.9615 28.5803 40.1241 26.3727L33.583 9.12792C32.0939 5.202 34.9941 1 39.193 1H51.4165C53.0657 1 54.6421 1.67877 55.7754 2.8768L65.4023 13.0538C68.3213 16.1397 67.1975 21.1983 63.2465 22.758L56.2175 25.5326C53.966 26.4213 52.4691 28.5758 52.4216 30.9959L52.0731 48.7722C52.0283 51.055 53.2831 53.1653 55.31 54.2163L63.1435 58.2781C64.6443 59.0563 66.4039 59.1652 67.9893 58.5781L86.8692 51.5855C89.9649 50.4389 93.3997 52.0493 94.4984 55.1622C95.1277 56.9453 94.8663 58.9217 93.7951 60.4798L80.1309 80.3551C79.3967 81.4229 78.3366 82.2244 77.1091 82.6396Z" stroke="#355FB3"/>
</svg>
