<svg width="386" height="142" viewBox="0 0 386 142" fill="none" xmlns="http://www.w3.org/2000/svg">
<path d="M22 36L10 93.5M10 93.5L70.5 74M10 93.5L53.5 131L70.5 74M10 93.5L82.5 9.5L123 41L136 94.5M70.5 74L136 94.5M136 94.5L107.5 133.5" stroke="black" stroke-width="2"/>
<circle cx="21" cy="35" r="10" fill="black"/>
<circle cx="10" cy="92" r="10" fill="black"/>
<circle cx="53" cy="128" r="10" fill="black"/>
<circle cx="71" cy="73" r="10" fill="black"/>
<circle cx="82" cy="10" r="10" fill="black"/>
<circle cx="122" cy="42" r="10" fill="black"/>
<circle cx="135" cy="93" r="10" fill="black"/>
<circle cx="106" cy="132" r="10" fill="black"/>
<path d="M195 71L185 65.2265V76.7735L195 71ZM155 72H186V70H155V72Z" fill="black"/>
<g clip-path="url(#clip0)">
<path d="M214.694 22.0031C214.788 22.0972 214.835 22.1678 214.835 22.2149C214.835 22.2776 214.639 22.5835 214.247 23.1325C213.855 23.6815 213.345 24.4972 212.717 25.5795C212.09 26.6619 211.415 27.9246 210.694 29.3677C209.972 30.8108 209.243 32.6696 208.506 34.9441C207.768 37.2186 207.141 39.6107 206.623 42.1205C205.416 48.1282 204.812 55.2497 204.812 63.4849C204.812 63.9868 204.804 64.2849 204.788 64.379C204.772 64.4731 204.733 64.528 204.67 64.5437C204.639 64.5594 204.286 64.5672 203.612 64.5672C202.561 64.5672 202.02 64.5594 201.988 64.5437C201.91 64.5123 201.87 64.426 201.87 64.2849C201.87 64.1437 201.863 63.6731 201.847 62.8731C201.878 60.0026 201.98 57.3281 202.153 54.8497C202.325 52.3713 202.663 49.6106 203.165 46.5675C203.667 43.5244 204.333 40.7009 205.165 38.097C205.996 35.4931 207.11 32.8029 208.506 30.0265C209.902 27.2501 211.557 24.7168 213.47 22.4266C213.502 22.3796 213.541 22.3325 213.588 22.2855C213.635 22.2384 213.666 22.1992 213.682 22.1678C213.698 22.1364 213.713 22.1129 213.729 22.0972C213.745 22.0815 213.768 22.0658 213.8 22.0502C213.831 22.0345 213.855 22.0266 213.87 22.0266C213.886 22.0266 213.925 22.0188 213.988 22.0031C214.051 21.9874 214.098 21.9874 214.129 22.0031H214.27H214.694Z" fill="black"/>
<path d="M214.835 119.188C214.835 119.235 214.788 119.305 214.694 119.399H214.294C213.996 119.399 213.839 119.392 213.823 119.376C213.698 119.25 213.58 119.117 213.47 118.976C211.886 117.046 210.474 114.984 209.235 112.788C207.996 110.592 206.961 108.333 206.129 106.011C205.298 103.69 204.608 101.407 204.059 99.1644C203.51 96.9212 203.078 94.5527 202.765 92.0586C202.451 89.5645 202.231 87.2822 202.106 85.2116C201.98 83.1411 201.894 80.9136 201.847 78.5294C201.847 77.7294 201.847 77.2588 201.847 77.1176C201.847 76.9764 201.886 76.8902 201.965 76.8588C201.996 76.8431 202.545 76.8353 203.612 76.8353C204.286 76.8353 204.639 76.8431 204.67 76.8588C204.733 76.8745 204.772 76.9294 204.788 77.0235C204.804 77.1176 204.812 77.4156 204.812 77.9176C204.812 87.1724 205.596 95.0938 207.165 101.682C208.733 108.27 211.212 113.964 214.6 118.764C214.757 118.984 214.835 119.125 214.835 119.188Z" fill="black"/>
<g clip-path="url(#clip1)">
<path d="M204.718 80.7859C204.702 80.7859 204.655 80.7859 204.576 80.7859C204.498 80.7859 204.349 80.7996 204.129 80.8269C203.91 80.8543 203.643 80.8543 203.329 80.8269C202.482 80.8269 202.035 80.8133 201.988 80.7859C201.941 80.7585 201.91 80.7038 201.894 80.6217C201.863 80.3479 201.847 78.5414 201.847 75.202V68.0989C201.847 59.8325 201.855 55.6582 201.87 55.5761L201.965 55.4119C201.996 55.3845 202.545 55.3708 203.612 55.3708C203.863 55.3708 204.067 55.3708 204.223 55.3708C204.38 55.3708 204.498 55.3708 204.576 55.3708C204.655 55.3708 204.694 55.3845 204.694 55.4119C204.757 55.4119 204.788 55.6446 204.788 56.1099C204.788 56.5752 204.796 58.2039 204.812 60.9958V75.202C204.812 78.9246 204.78 80.7859 204.718 80.7859Z" fill="black"/>
</g>
<path d="M223.92 31.6972C223.763 31.6972 223.347 31.6109 222.673 31.4383C221.998 31.2658 221.504 31.1795 221.19 31.1795C220.876 31.1795 220.61 31.2109 220.39 31.2736C220.171 31.3364 219.99 31.4148 219.849 31.5089C219.708 31.603 219.614 31.6893 219.567 31.7678C219.52 31.8462 219.465 31.9325 219.402 32.0266L219.355 32.1207C219.308 32.1677 219.19 32.1913 219.002 32.1913C218.673 32.1913 218.508 32.1285 218.508 32.003C218.508 31.9246 218.531 31.8148 218.578 31.6736C218.782 31.0619 219.12 30.5364 219.59 30.0972C220.061 29.658 220.578 29.3913 221.143 29.2972C221.331 29.2658 221.465 29.2501 221.543 29.2501C221.935 29.2501 222.288 29.3835 222.602 29.6501C222.916 29.9168 223.214 30.1756 223.496 30.4266C223.778 30.6776 224.076 30.8109 224.39 30.8266C224.735 30.8266 225.08 30.5678 225.425 30.0501C225.771 29.5325 225.951 29.2737 225.967 29.2737C225.982 29.258 226.1 29.2501 226.32 29.2501H226.625C226.72 29.3443 226.767 29.407 226.767 29.4384C226.767 29.5011 226.727 29.6109 226.649 29.7678C226.571 29.9246 226.461 30.0893 226.32 30.2619C226.178 30.4344 226.045 30.607 225.92 30.7795C225.794 30.9521 225.684 31.1011 225.59 31.2266L225.425 31.4383C224.751 32.2383 223.684 33.2971 222.225 34.6148C220.767 35.9324 219.865 36.7794 219.52 37.1559L219.237 37.4383L219.59 37.4618C219.935 37.4618 220.437 37.5481 221.096 37.7206C221.755 37.8932 222.249 37.9794 222.578 37.9794C223.175 37.9794 223.724 37.8304 224.225 37.5324C224.727 37.2343 225.057 36.8422 225.214 36.3559C225.276 36.2147 225.331 36.1285 225.378 36.0971C225.425 36.0657 225.543 36.05 225.731 36.05C226.029 36.05 226.178 36.1285 226.178 36.2853C226.178 36.3638 226.171 36.4344 226.155 36.4971C225.888 37.4696 225.371 38.2775 224.602 38.9206C223.833 39.5637 223.065 39.8931 222.296 39.9088C221.888 39.9088 221.527 39.7755 221.214 39.5088C220.9 39.2422 220.594 38.9755 220.296 38.7088C219.998 38.4422 219.7 38.3088 219.402 38.3088C218.712 38.3088 218.092 38.7794 217.543 39.7206C217.449 39.8461 217.316 39.9088 217.143 39.9088H217.026H216.72C216.626 39.8147 216.579 39.7441 216.579 39.6971C216.579 39.4618 217.033 38.7873 217.943 37.6736C218.555 36.9677 219.59 35.9481 221.049 34.6148C222.508 33.2815 223.41 32.4344 223.755 32.0736C223.943 31.8227 223.998 31.6972 223.92 31.6972Z" fill="black"/>
<path d="M230.239 33.5643L230.023 33.6474C229.868 33.7029 229.646 33.7583 229.358 33.8138C229.069 33.8692 228.748 33.908 228.393 33.9302H228.077V33.165H228.393C228.914 33.1428 229.396 33.0597 229.84 32.9155C230.284 32.7713 230.594 32.6382 230.772 32.5163C230.949 32.3943 231.104 32.2723 231.237 32.1503C231.26 32.117 231.326 32.1004 231.437 32.1004C231.537 32.1004 231.631 32.1336 231.72 32.2002V37.1741L231.736 42.1646C231.814 42.2422 231.881 42.2921 231.936 42.3143C231.992 42.3365 232.125 42.3587 232.335 42.3808C232.546 42.403 232.89 42.4141 233.367 42.4141H233.799V43.1793H233.616C233.383 43.1461 232.502 43.1294 230.971 43.1294C229.463 43.1294 228.592 43.1461 228.36 43.1793H228.16V42.4141H228.592C228.836 42.4141 229.047 42.4141 229.225 42.4141C229.402 42.4141 229.541 42.4086 229.64 42.3975C229.74 42.3864 229.829 42.3697 229.907 42.3476C229.984 42.3254 230.029 42.3143 230.04 42.3143C230.051 42.3143 230.084 42.2866 230.139 42.2311C230.195 42.1757 230.228 42.1535 230.239 42.1646V33.5643Z" fill="black"/>
<path d="M224.536 82.3481C224.536 81.9717 224.669 81.6423 224.936 81.3599C225.203 81.0776 225.54 80.9364 225.948 80.9364C226.324 80.9364 226.654 81.0619 226.936 81.3129C227.218 81.5638 227.367 81.9011 227.383 82.3246C227.383 82.7168 227.25 83.054 226.983 83.3364C226.716 83.6187 226.379 83.7599 225.971 83.7599C225.564 83.7599 225.226 83.6266 224.96 83.3599C224.693 83.0932 224.552 82.756 224.536 82.3481ZM224.536 72.7012C224.536 72.3248 224.669 71.9953 224.936 71.713C225.203 71.4307 225.54 71.2895 225.948 71.2895C226.324 71.2895 226.654 71.415 226.936 71.6659C227.218 71.9169 227.367 72.2542 227.383 72.6777C227.383 73.0698 227.25 73.4071 226.983 73.6894C226.716 73.9718 226.379 74.113 225.971 74.113C225.564 74.113 225.226 73.9796 224.96 73.713C224.693 73.4463 224.552 73.1091 224.536 72.7012ZM224.536 63.2896C224.536 62.9131 224.669 62.5837 224.936 62.3014C225.203 62.019 225.54 61.8778 225.948 61.8778C226.324 61.8778 226.654 62.0033 226.936 62.2543C227.218 62.5053 227.367 62.8425 227.383 63.2661C227.383 63.6582 227.25 63.9955 226.983 64.2778C226.716 64.5602 226.379 64.7013 225.971 64.7013C225.564 64.7013 225.226 64.568 224.96 64.3013C224.693 64.0347 224.552 63.6974 224.536 63.2896Z" fill="black"/>
<path d="M223.753 105.564C223.596 105.564 223.18 105.478 222.505 105.305C221.831 105.133 221.337 105.047 221.023 105.047C220.709 105.047 220.443 105.078 220.223 105.141C220.004 105.204 219.823 105.282 219.682 105.376C219.541 105.47 219.447 105.556 219.4 105.635C219.353 105.713 219.298 105.8 219.235 105.894L219.188 105.988C219.141 106.035 219.023 106.058 218.835 106.058C218.506 106.058 218.341 105.996 218.341 105.87C218.341 105.792 218.364 105.682 218.411 105.541C218.615 104.929 218.953 104.404 219.423 103.964C219.894 103.525 220.411 103.258 220.976 103.164C221.164 103.133 221.298 103.117 221.376 103.117C221.768 103.117 222.121 103.251 222.435 103.517C222.749 103.784 223.047 104.043 223.329 104.294C223.611 104.545 223.909 104.678 224.223 104.694C224.568 104.694 224.913 104.435 225.258 103.917C225.603 103.4 225.784 103.141 225.8 103.141C225.815 103.125 225.933 103.117 226.153 103.117H226.458C226.553 103.211 226.6 103.274 226.6 103.305C226.6 103.368 226.56 103.478 226.482 103.635C226.403 103.792 226.294 103.956 226.153 104.129C226.011 104.302 225.878 104.474 225.753 104.647C225.627 104.819 225.517 104.968 225.423 105.094L225.258 105.305C224.584 106.105 223.517 107.164 222.058 108.482C220.6 109.8 219.698 110.647 219.353 111.023L219.07 111.305L219.423 111.329C219.768 111.329 220.27 111.415 220.929 111.588C221.588 111.76 222.082 111.847 222.411 111.847C223.007 111.847 223.556 111.698 224.058 111.4C224.56 111.101 224.89 110.709 225.047 110.223C225.109 110.082 225.164 109.996 225.211 109.964C225.258 109.933 225.376 109.917 225.564 109.917C225.862 109.917 226.011 109.996 226.011 110.152C226.011 110.231 226.003 110.301 225.988 110.364C225.721 111.337 225.204 112.145 224.435 112.788C223.666 113.431 222.898 113.76 222.129 113.776C221.721 113.776 221.36 113.643 221.047 113.376C220.733 113.109 220.427 112.843 220.129 112.576C219.831 112.309 219.533 112.176 219.235 112.176C218.545 112.176 217.925 112.647 217.376 113.588C217.282 113.713 217.149 113.776 216.976 113.776H216.859H216.553C216.459 113.682 216.411 113.611 216.411 113.564C216.411 113.329 216.866 112.654 217.776 111.541C218.388 110.835 219.423 109.815 220.882 108.482C222.341 107.149 223.243 106.302 223.588 105.941C223.776 105.69 223.831 105.564 223.753 105.564Z" fill="black"/>
<path d="M232.617 105.685C232.629 105.685 233.028 105.657 233.815 105.602C234.603 105.546 235.007 105.513 235.029 105.502C235.163 105.502 235.229 105.546 235.229 105.635C235.229 105.712 234.824 107.387 234.015 110.659C233.205 113.93 232.789 115.599 232.767 115.666C232.745 115.732 232.739 115.815 232.75 115.915C232.75 116.381 232.906 116.614 233.216 116.614C233.316 116.603 233.427 116.553 233.549 116.464C233.782 116.242 234.009 115.71 234.231 114.867C234.298 114.645 234.353 114.529 234.397 114.518C234.42 114.507 234.475 114.501 234.564 114.501H234.63H234.697C234.863 114.501 234.946 114.546 234.946 114.634C234.946 114.69 234.93 114.779 234.896 114.901C234.752 115.455 234.586 115.904 234.397 116.248C234.209 116.592 234.054 116.814 233.932 116.913C233.81 117.013 233.654 117.102 233.466 117.18C233.377 117.202 233.244 117.213 233.067 117.213C232.69 117.213 232.373 117.13 232.118 116.963C231.863 116.797 231.697 116.625 231.619 116.448L231.52 116.198C231.508 116.187 231.486 116.193 231.453 116.215C231.431 116.237 231.409 116.259 231.386 116.281C230.732 116.902 230.067 117.213 229.39 117.213C228.78 117.213 228.242 116.991 227.777 116.547C227.311 116.104 227.078 115.4 227.078 114.435C227.078 113.902 227.189 113.359 227.411 112.805C227.632 112.25 227.899 111.773 228.209 111.374C228.73 110.742 229.252 110.304 229.773 110.06C230.294 109.816 230.765 109.694 231.187 109.694C231.808 109.694 232.274 109.927 232.584 110.392C232.64 110.459 232.667 110.481 232.667 110.459C232.678 110.415 232.828 109.81 233.116 108.646C233.405 107.481 233.56 106.866 233.582 106.799C233.582 106.655 233.543 106.566 233.466 106.533C233.388 106.5 233.172 106.472 232.817 106.45H232.468C232.401 106.383 232.368 106.339 232.368 106.317C232.368 106.295 232.379 106.189 232.401 106.001C232.457 105.79 232.529 105.685 232.617 105.685ZM232.385 111.623C232.129 110.747 231.714 110.309 231.137 110.309C230.749 110.309 230.377 110.481 230.022 110.825C229.667 111.169 229.39 111.618 229.191 112.172C228.869 113.049 228.642 113.958 228.509 114.901C228.509 114.934 228.509 114.995 228.509 115.084C228.509 115.172 228.503 115.239 228.492 115.283C228.492 115.782 228.592 116.126 228.791 116.315C228.991 116.503 229.229 116.603 229.507 116.614C230.106 116.614 230.721 116.215 231.353 115.416L231.486 115.233L232.385 111.623Z" fill="black"/>
<path d="M237.086 22.2619C237.086 22.0894 237.228 22.0031 237.51 22.0031H237.745C237.949 22.0031 238.075 22.0188 238.122 22.0502C238.169 22.0815 238.279 22.207 238.451 22.4266C240.035 24.356 241.447 26.4187 242.686 28.6148C243.926 30.8108 244.961 33.0696 245.792 35.3911C246.624 37.7127 247.314 39.995 247.863 42.2381C248.412 44.4812 248.843 46.8498 249.157 49.3439C249.471 51.838 249.69 54.1203 249.816 56.1908C249.941 58.2614 250.027 60.4888 250.075 62.8731C250.075 63.6731 250.075 64.1437 250.075 64.2849C250.075 64.426 250.027 64.5123 249.933 64.5437C249.902 64.5594 249.361 64.5672 248.31 64.5672C247.635 64.5672 247.282 64.5594 247.251 64.5437C247.188 64.528 247.149 64.4731 247.133 64.379C247.118 64.2849 247.11 63.9868 247.11 63.4849C247.11 54.8418 246.435 47.3988 245.086 41.1558C243.737 34.9127 241.612 29.4461 238.71 24.756C238.506 24.4109 238.2 23.9325 237.792 23.3207C237.384 22.709 237.149 22.356 237.086 22.2619Z" fill="black"/>
<path d="M237.675 119.399H237.534C237.235 119.399 237.086 119.329 237.086 119.188C237.086 119.141 237.134 119.039 237.228 118.882C237.73 118.207 238.224 117.462 238.71 116.646C241.628 111.956 243.753 106.49 245.086 100.247C246.42 94.0036 247.094 86.5606 247.11 77.9176C247.11 77.2588 247.149 76.9058 247.227 76.8588C247.259 76.8431 247.714 76.8353 248.592 76.8353C249.455 76.8353 249.902 76.8431 249.933 76.8588C250.012 76.8902 250.051 76.9764 250.051 77.1176C250.051 77.2588 250.059 77.7294 250.075 78.5294C250.043 81.3999 249.941 84.0744 249.769 86.5528C249.596 89.0312 249.259 91.7919 248.757 94.835C248.255 97.8781 247.588 100.702 246.757 103.305C245.926 105.909 244.812 108.6 243.416 111.376C242.02 114.152 240.365 116.686 238.451 118.976C238.279 119.195 238.169 119.321 238.122 119.352C238.075 119.384 237.965 119.399 237.792 119.399H237.675Z" fill="black"/>
<g clip-path="url(#clip2)">
<path d="M249.98 80.7859C249.965 80.7859 249.918 80.7859 249.839 80.7859C249.761 80.7859 249.612 80.7996 249.392 80.8269C249.173 80.8543 248.906 80.8543 248.592 80.8269C247.745 80.8269 247.298 80.8133 247.251 80.7859C247.204 80.7585 247.173 80.7038 247.157 80.6217C247.126 80.3479 247.11 78.5414 247.11 75.202V68.0989C247.11 59.8325 247.118 55.6582 247.133 55.5761L247.227 55.4119C247.259 55.3845 247.808 55.3708 248.875 55.3708C249.125 55.3708 249.329 55.3708 249.486 55.3708C249.643 55.3708 249.761 55.3708 249.839 55.3708C249.918 55.3708 249.957 55.3845 249.957 55.4119C250.02 55.4119 250.051 55.6446 250.051 56.1099C250.051 56.5752 250.059 58.2039 250.074 60.9958V75.202C250.074 78.9246 250.043 80.7859 249.98 80.7859Z" fill="black"/>
</g>
</g>
<path d="M257 71H287" stroke="black" stroke-width="2"/>
<path d="M367 71L357 65.2265V76.7735L367 71ZM337 72H358V70H337V72Z" fill="black"/>
<path d="M380.388 76.6246C379.771 77.4921 378.881 78.2683 377.762 78.2683C377.488 78.2683 376.393 78.2226 376.05 77.1725C376.119 77.1953 376.233 77.1953 376.278 77.1953C376.963 77.1953 377.42 76.6018 377.42 76.0767C377.42 75.5516 376.986 75.369 376.644 75.369C376.278 75.369 375.479 75.6429 375.479 76.7616C375.479 77.9259 376.461 78.7249 377.762 78.7249C380.045 78.7249 382.351 76.6246 382.99 74.0905L385.228 65.1871C385.25 65.073 385.296 64.936 385.296 64.799C385.296 64.4566 385.022 64.2283 384.68 64.2283C384.474 64.2283 383.995 64.3196 383.812 65.0045L382.123 71.7163C382.009 72.1272 382.009 72.1729 381.826 72.424C381.369 73.0632 380.616 73.8394 379.52 73.8394C378.242 73.8394 378.128 72.5838 378.128 71.9674C378.128 70.6661 378.744 68.9083 379.36 67.2646C379.612 66.6025 379.748 66.2829 379.748 65.8263C379.748 64.8675 379.064 64 377.945 64C375.845 64 375 67.3102 375 67.4929C375 67.5842 375.091 67.6983 375.251 67.6983C375.457 67.6983 375.479 67.607 375.571 67.2874C376.119 65.3698 376.986 64.4566 377.876 64.4566C378.082 64.4566 378.47 64.4566 378.47 65.2099C378.47 65.8035 378.219 66.4656 377.876 67.3331C376.758 70.3237 376.758 71.0771 376.758 71.625C376.758 73.7938 378.31 74.296 379.452 74.296C380.114 74.296 380.936 74.0905 381.735 73.2459L381.757 73.2687C381.415 74.6156 381.187 75.506 380.388 76.6246Z" fill="black"/>
<rect x="287" width="50" height="142" rx="2" fill="#8EA7D7" fill-opacity="0.09"/>
<rect x="287.5" y="0.5" width="49" height="141" rx="1.5" stroke="#355FB3" stroke-opacity="0.5"/>
<path d="M312.395 89.8237C311.84 91.7533 311.16 93.1596 310.355 94.0424C309.543 94.9174 308.543 95.3549 307.355 95.3549C306.012 95.3549 304.902 94.8198 304.027 93.7494C303.145 92.6713 302.703 91.2729 302.703 89.5541C302.703 88.3823 302.93 87.3393 303.383 86.4252C303.836 85.5033 304.461 84.7924 305.258 84.2924C306.055 83.7846 306.926 83.5307 307.871 83.5307L307.871 85.7924C306.84 85.7924 306.031 86.1205 305.445 86.7768C304.852 87.433 304.555 88.3588 304.555 89.5541C304.555 90.6635 304.801 91.5307 305.293 92.1557C305.777 92.7729 306.453 93.0815 307.32 93.0815C308.016 93.0815 308.605 92.7885 309.09 92.2026C309.566 91.6088 310.004 90.6049 310.402 89.1908C310.801 87.769 311.242 86.6596 311.727 85.8627C312.203 85.058 312.762 84.4643 313.402 84.0815C314.043 83.6908 314.797 83.4955 315.664 83.4955C317.047 83.4955 318.156 84.0346 318.992 85.1127C319.82 86.1908 320.234 87.6323 320.234 89.4369C320.234 90.6088 320.012 91.7026 319.566 92.7182C319.113 93.7338 318.496 94.519 317.715 95.0737C316.934 95.6205 316.047 95.894 315.055 95.894L315.055 93.6323C316.086 93.6323 316.902 93.2533 317.504 92.4955C318.098 91.7299 318.395 90.7104 318.395 89.4369C318.395 88.2494 318.152 87.3393 317.668 86.7065C317.184 86.0737 316.523 85.7573 315.687 85.7573C314.852 85.7573 314.207 86.0502 313.754 86.6362C313.293 87.2221 312.84 88.2846 312.395 89.8237ZM317.012 74.9526L302.937 70.0776L302.937 67.6166L320 73.9448L320 75.9369L302.937 82.2533L302.937 79.8041L317.012 74.9526ZM302.937 62.4135L316.859 56.8354L302.937 51.2573L302.937 48.3393L320 48.3393L320 50.5893L313.355 50.5893L306.184 50.3783L320 55.9799L320 57.7026L306.219 63.2924L313.355 63.0698L320 63.0698L320 65.3198L302.937 65.3198L302.937 62.4135Z" fill="black"/>
<defs>
<clipPath id="clip0">
<rect x="195" y="22" width="61.945" height="97.4001" fill="white"/>
</clipPath>
<clipPath id="clip1">
<rect width="20.5879" height="16.9715" transform="matrix(1 0 0 -1 195 76.5835)" fill="white"/>
</clipPath>
<clipPath id="clip2">
<rect width="20.5879" height="16.9715" transform="matrix(1 0 0 -1 236.357 76.5835)" fill="white"/>
</clipPath>
</defs>
</svg>
