<svg width="740" height="230" viewBox="0 0 740 230" fill="none" xmlns="http://www.w3.org/2000/svg">
<path d="M690 125L680 119.226V130.774L690 125ZM635 126H681V124H635V126ZM636 125V49H634V125H636ZM634 125V211H636V125H634ZM634 211C634 213.209 632.209 215 630 215V217C633.314 217 636 214.314 636 211H634ZM636 49C636 45.6863 633.314 43 630 43V45C632.209 45 634 46.7909 634 49H636Z" fill="black"/>
<path d="M661.979 116.786C662.067 117.893 662.278 118.701 662.366 119.035C662.559 119.826 662.647 120.212 663.403 120.212C664.193 120.212 665.546 119.422 665.546 119.07C665.546 118.982 665.476 118.947 665.388 118.947C665.159 118.947 664.791 119.14 664.738 119.176C664.615 119.246 664.58 119.246 664.545 119.246C664.053 119.246 663.947 118.771 663.736 117.717C663.613 117.138 663.455 116.435 663.315 114.028C663.192 112.236 663.121 110.444 663.121 108.652C663.121 108.23 663.139 107.773 663.139 107.351C663.139 107.07 663.139 107 662.946 107C662.7 107 661.979 107.299 661.663 107.773L661.54 107.966C660.152 110.936 658.852 113.061 657.938 114.485C656.902 116.083 655.075 118.947 654.126 118.947C653.476 118.947 652.931 118.526 652.773 117.893C652.755 117.858 652.72 117.752 652.65 117.752C652.387 117.752 652 118.596 652 119.088C652 119.791 652.755 120.564 653.581 120.564C654.794 120.564 656.814 117.401 657.201 116.786H661.979ZM661.628 109.161V110.18C661.628 111.199 661.663 112.218 661.716 113.237C661.733 113.589 661.804 114.906 661.892 115.82H658.676C658.395 115.82 658.132 115.82 657.675 116.101C658.905 114.203 659.924 112.376 660.029 112.183C660.908 110.619 661.382 109.6 661.61 109.161H661.628Z" fill="black"/>
<path d="M438.472 9.0708H433.851V12.8501H439.219V14H432.444V3.33594H439.146V4.49316H433.851V7.9209H438.472V9.0708ZM443.182 12.1616L445.145 6.0752H446.529L443.687 14H442.654L439.783 6.0752H441.167L443.182 12.1616ZM452.608 14C452.53 13.8438 452.466 13.5654 452.417 13.165C451.788 13.8193 451.036 14.1465 450.162 14.1465C449.38 14.1465 448.738 13.9268 448.235 13.4873C447.737 13.043 447.488 12.4814 447.488 11.8027C447.488 10.9775 447.801 10.3379 448.426 9.88379C449.056 9.4248 449.939 9.19531 451.077 9.19531H452.396V8.57275C452.396 8.09912 452.254 7.72314 451.971 7.44482C451.688 7.16162 451.27 7.02002 450.718 7.02002C450.235 7.02002 449.83 7.14209 449.502 7.38623C449.175 7.63037 449.012 7.92578 449.012 8.27246H447.649C447.649 7.87695 447.789 7.49609 448.067 7.12988C448.35 6.75879 448.731 6.46582 449.209 6.25098C449.693 6.03613 450.223 5.92871 450.799 5.92871C451.712 5.92871 452.427 6.1582 452.945 6.61719C453.462 7.07129 453.731 7.69873 453.75 8.49951V12.147C453.75 12.8745 453.843 13.4531 454.029 13.8828V14H452.608ZM450.359 12.9673C450.784 12.9673 451.187 12.8574 451.568 12.6377C451.949 12.418 452.225 12.1323 452.396 11.7808V10.1548H451.333C449.673 10.1548 448.843 10.6406 448.843 11.6123C448.843 12.0371 448.985 12.3691 449.268 12.6084C449.551 12.8477 449.915 12.9673 450.359 12.9673ZM457.347 14H455.992V2.75H457.347V14ZM464.415 13.2163C463.887 13.8364 463.113 14.1465 462.093 14.1465C461.248 14.1465 460.604 13.9023 460.159 13.4141C459.72 12.9209 459.498 12.1934 459.493 11.2314V6.0752H460.848V11.1948C460.848 12.396 461.336 12.9966 462.312 12.9966C463.348 12.9966 464.036 12.6108 464.378 11.8394V6.0752H465.733V14H464.444L464.415 13.2163ZM472.691 14C472.613 13.8438 472.549 13.5654 472.5 13.165C471.871 13.8193 471.119 14.1465 470.245 14.1465C469.463 14.1465 468.821 13.9268 468.318 13.4873C467.82 13.043 467.571 12.4814 467.571 11.8027C467.571 10.9775 467.884 10.3379 468.509 9.88379C469.139 9.4248 470.022 9.19531 471.16 9.19531H472.479V8.57275C472.479 8.09912 472.337 7.72314 472.054 7.44482C471.771 7.16162 471.353 7.02002 470.801 7.02002C470.318 7.02002 469.913 7.14209 469.585 7.38623C469.258 7.63037 469.095 7.92578 469.095 8.27246H467.732C467.732 7.87695 467.872 7.49609 468.15 7.12988C468.433 6.75879 468.814 6.46582 469.292 6.25098C469.776 6.03613 470.306 5.92871 470.882 5.92871C471.795 5.92871 472.51 6.1582 473.028 6.61719C473.545 7.07129 473.814 7.69873 473.833 8.49951V12.147C473.833 12.8745 473.926 13.4531 474.112 13.8828V14H472.691ZM470.442 12.9673C470.867 12.9673 471.27 12.8574 471.651 12.6377C472.032 12.418 472.308 12.1323 472.479 11.7808V10.1548H471.417C469.756 10.1548 468.926 10.6406 468.926 11.6123C468.926 12.0371 469.068 12.3691 469.351 12.6084C469.634 12.8477 469.998 12.9673 470.442 12.9673ZM477.796 4.15625V6.0752H479.275V7.12256H477.796V12.0371C477.796 12.3545 477.862 12.5938 477.994 12.7549C478.125 12.9111 478.35 12.9893 478.667 12.9893C478.824 12.9893 479.039 12.96 479.312 12.9014V14C478.956 14.0977 478.609 14.1465 478.272 14.1465C477.667 14.1465 477.21 13.9634 476.902 13.5972C476.595 13.231 476.441 12.7109 476.441 12.0371V7.12256H474.998V6.0752H476.441V4.15625H477.796ZM484.153 14.1465C483.079 14.1465 482.205 13.7949 481.531 13.0918C480.857 12.3838 480.521 11.439 480.521 10.2573V10.0083C480.521 9.22217 480.669 8.52148 480.967 7.90625C481.27 7.28613 481.69 6.80273 482.227 6.45605C482.769 6.10449 483.355 5.92871 483.985 5.92871C485.015 5.92871 485.816 6.26807 486.387 6.94678C486.958 7.62549 487.244 8.59717 487.244 9.86182V10.4258H481.875C481.895 11.207 482.122 11.8394 482.557 12.3228C482.996 12.8013 483.553 13.0405 484.227 13.0405C484.705 13.0405 485.11 12.9429 485.442 12.7476C485.774 12.5522 486.065 12.2935 486.314 11.9712L487.142 12.6157C486.478 13.6362 485.481 14.1465 484.153 14.1465ZM483.985 7.04199C483.438 7.04199 482.979 7.24219 482.608 7.64258C482.237 8.03809 482.007 8.59473 481.919 9.3125H485.889V9.20996C485.85 8.52148 485.665 7.98926 485.333 7.61328C485 7.23242 484.551 7.04199 483.985 7.04199Z" fill="black"/>
<path d="M630.144 11.2168H625.676L624.673 14H623.223L627.295 3.33594H628.525L632.605 14H631.162L630.144 11.2168ZM626.101 10.0596H629.727L627.91 5.07178L626.101 10.0596ZM633.506 9.97168C633.506 8.73633 633.792 7.75488 634.363 7.02734C634.934 6.29492 635.691 5.92871 636.633 5.92871C637.6 5.92871 638.354 6.27051 638.896 6.9541L638.962 6.0752H640.2V13.8096C640.2 14.835 639.895 15.6431 639.285 16.2339C638.679 16.8247 637.864 17.1201 636.838 17.1201C636.267 17.1201 635.708 16.998 635.161 16.7539C634.614 16.5098 634.197 16.1753 633.909 15.7505L634.612 14.9375C635.193 15.6553 635.903 16.0142 636.743 16.0142C637.402 16.0142 637.915 15.8286 638.281 15.4575C638.652 15.0864 638.838 14.564 638.838 13.8901V13.209C638.296 13.834 637.556 14.1465 636.619 14.1465C635.691 14.1465 634.939 13.7729 634.363 13.0259C633.792 12.2788 633.506 11.2607 633.506 9.97168ZM634.868 10.1255C634.868 11.019 635.051 11.7222 635.417 12.2349C635.784 12.7427 636.296 12.9966 636.956 12.9966C637.81 12.9966 638.438 12.6084 638.838 11.832V8.21387C638.423 7.45703 637.8 7.07861 636.97 7.07861C636.311 7.07861 635.796 7.33496 635.425 7.84766C635.054 8.36035 634.868 9.11963 634.868 10.1255ZM641.929 9.97168C641.929 8.73633 642.214 7.75488 642.786 7.02734C643.357 6.29492 644.114 5.92871 645.056 5.92871C646.023 5.92871 646.777 6.27051 647.319 6.9541L647.385 6.0752H648.623V13.8096C648.623 14.835 648.318 15.6431 647.708 16.2339C647.102 16.8247 646.287 17.1201 645.261 17.1201C644.69 17.1201 644.131 16.998 643.584 16.7539C643.037 16.5098 642.62 16.1753 642.332 15.7505L643.035 14.9375C643.616 15.6553 644.326 16.0142 645.166 16.0142C645.825 16.0142 646.338 15.8286 646.704 15.4575C647.075 15.0864 647.261 14.564 647.261 13.8901V13.209C646.719 13.834 645.979 14.1465 645.042 14.1465C644.114 14.1465 643.362 13.7729 642.786 13.0259C642.214 12.2788 641.929 11.2607 641.929 9.97168ZM643.291 10.1255C643.291 11.019 643.474 11.7222 643.84 12.2349C644.207 12.7427 644.719 12.9966 645.378 12.9966C646.233 12.9966 646.86 12.6084 647.261 11.832V8.21387C646.846 7.45703 646.223 7.07861 645.393 7.07861C644.734 7.07861 644.219 7.33496 643.848 7.84766C643.477 8.36035 643.291 9.11963 643.291 10.1255ZM654.504 7.29102C654.299 7.25684 654.077 7.23975 653.838 7.23975C652.949 7.23975 652.346 7.61816 652.029 8.375V14H650.674V6.0752H651.992L652.014 6.99072C652.458 6.28271 653.088 5.92871 653.904 5.92871C654.167 5.92871 654.368 5.96289 654.504 6.03125V7.29102ZM658.899 14.1465C657.825 14.1465 656.951 13.7949 656.277 13.0918C655.603 12.3838 655.266 11.439 655.266 10.2573V10.0083C655.266 9.22217 655.415 8.52148 655.713 7.90625C656.016 7.28613 656.436 6.80273 656.973 6.45605C657.515 6.10449 658.101 5.92871 658.73 5.92871C659.761 5.92871 660.562 6.26807 661.133 6.94678C661.704 7.62549 661.99 8.59717 661.99 9.86182V10.4258H656.621C656.641 11.207 656.868 11.8394 657.302 12.3228C657.742 12.8013 658.298 13.0405 658.972 13.0405C659.451 13.0405 659.856 12.9429 660.188 12.7476C660.52 12.5522 660.811 12.2935 661.06 11.9712L661.887 12.6157C661.223 13.6362 660.227 14.1465 658.899 14.1465ZM658.73 7.04199C658.184 7.04199 657.725 7.24219 657.354 7.64258C656.982 8.03809 656.753 8.59473 656.665 9.3125H660.635V9.20996C660.596 8.52148 660.41 7.98926 660.078 7.61328C659.746 7.23242 659.297 7.04199 658.73 7.04199ZM663.242 9.97168C663.242 8.73633 663.528 7.75488 664.099 7.02734C664.67 6.29492 665.427 5.92871 666.37 5.92871C667.336 5.92871 668.091 6.27051 668.633 6.9541L668.699 6.0752H669.937V13.8096C669.937 14.835 669.631 15.6431 669.021 16.2339C668.416 16.8247 667.6 17.1201 666.575 17.1201C666.003 17.1201 665.444 16.998 664.897 16.7539C664.351 16.5098 663.933 16.1753 663.645 15.7505L664.348 14.9375C664.929 15.6553 665.64 16.0142 666.479 16.0142C667.139 16.0142 667.651 15.8286 668.018 15.4575C668.389 15.0864 668.574 14.564 668.574 13.8901V13.209C668.032 13.834 667.292 14.1465 666.355 14.1465C665.427 14.1465 664.675 13.7729 664.099 13.0259C663.528 12.2788 663.242 11.2607 663.242 9.97168ZM664.604 10.1255C664.604 11.019 664.788 11.7222 665.154 12.2349C665.52 12.7427 666.033 12.9966 666.692 12.9966C667.546 12.9966 668.174 12.6084 668.574 11.832V8.21387C668.159 7.45703 667.537 7.07861 666.707 7.07861C666.047 7.07861 665.532 7.33496 665.161 7.84766C664.79 8.36035 664.604 9.11963 664.604 10.1255ZM676.88 14C676.802 13.8438 676.738 13.5654 676.689 13.165C676.06 13.8193 675.308 14.1465 674.434 14.1465C673.652 14.1465 673.01 13.9268 672.507 13.4873C672.009 13.043 671.76 12.4814 671.76 11.8027C671.76 10.9775 672.073 10.3379 672.698 9.88379C673.328 9.4248 674.211 9.19531 675.349 9.19531H676.667V8.57275C676.667 8.09912 676.526 7.72314 676.243 7.44482C675.959 7.16162 675.542 7.02002 674.99 7.02002C674.507 7.02002 674.102 7.14209 673.774 7.38623C673.447 7.63037 673.284 7.92578 673.284 8.27246H671.921C671.921 7.87695 672.061 7.49609 672.339 7.12988C672.622 6.75879 673.003 6.46582 673.481 6.25098C673.965 6.03613 674.495 5.92871 675.071 5.92871C675.984 5.92871 676.699 6.1582 677.217 6.61719C677.734 7.07129 678.003 7.69873 678.022 8.49951V12.147C678.022 12.8745 678.115 13.4531 678.301 13.8828V14H676.88ZM674.631 12.9673C675.056 12.9673 675.459 12.8574 675.84 12.6377C676.221 12.418 676.497 12.1323 676.667 11.7808V10.1548H675.605C673.945 10.1548 673.115 10.6406 673.115 11.6123C673.115 12.0371 673.257 12.3691 673.54 12.6084C673.823 12.8477 674.187 12.9673 674.631 12.9673ZM681.985 4.15625V6.0752H683.464V7.12256H681.985V12.0371C681.985 12.3545 682.051 12.5938 682.183 12.7549C682.314 12.9111 682.539 12.9893 682.856 12.9893C683.013 12.9893 683.228 12.96 683.501 12.9014V14C683.145 14.0977 682.798 14.1465 682.461 14.1465C681.855 14.1465 681.399 13.9634 681.091 13.5972C680.784 13.231 680.63 12.7109 680.63 12.0371V7.12256H679.187V6.0752H680.63V4.15625H681.985ZM688.342 14.1465C687.268 14.1465 686.394 13.7949 685.72 13.0918C685.046 12.3838 684.709 11.439 684.709 10.2573V10.0083C684.709 9.22217 684.858 8.52148 685.156 7.90625C685.459 7.28613 685.879 6.80273 686.416 6.45605C686.958 6.10449 687.544 5.92871 688.174 5.92871C689.204 5.92871 690.005 6.26807 690.576 6.94678C691.147 7.62549 691.433 8.59717 691.433 9.86182V10.4258H686.064C686.084 11.207 686.311 11.8394 686.746 12.3228C687.185 12.8013 687.742 13.0405 688.416 13.0405C688.894 13.0405 689.299 12.9429 689.631 12.7476C689.963 12.5522 690.254 12.2935 690.503 11.9712L691.331 12.6157C690.667 13.6362 689.67 14.1465 688.342 14.1465ZM688.174 7.04199C687.627 7.04199 687.168 7.24219 686.797 7.64258C686.426 8.03809 686.196 8.59473 686.108 9.3125H690.078V9.20996C690.039 8.52148 689.854 7.98926 689.521 7.61328C689.189 7.23242 688.74 7.04199 688.174 7.04199Z" fill="black"/>
<path d="M563 54L553 48.2265L553 59.7735L563 54ZM344 55L554 55L554 53L344 53L344 55Z" fill="black"/>
<path d="M563 104L553 98.2265V109.774L563 104ZM324 105H554V103H324V105Z" fill="black"/>
<path d="M563 206L553 200.226V211.774L563 206ZM344 207H554V205H344V207Z" fill="black"/>
<path d="M563 155L553 149.226V160.774L563 155ZM334 156H554V154H334V156Z" fill="black"/>
<circle cx="311" cy="104" r="14" fill="white" stroke="black" stroke-width="2"/>
<circle cx="331" cy="54" r="14" fill="white" stroke="black" stroke-width="2"/>
<circle cx="321" cy="155" r="14" fill="white" stroke="black" stroke-width="2"/>
<circle cx="331" cy="206" r="14" fill="white" stroke="black" stroke-width="2"/>
<path d="M460.94 38.306C461.291 38.306 461.432 38.306 461.432 37.9722C461.432 37.7965 461.291 37.7965 460.975 37.7965H459.552C459.886 35.9869 460.132 34.7394 460.272 34.1772C460.378 33.7555 460.747 33.3514 461.204 33.3514C461.573 33.3514 461.942 33.5095 462.117 33.6677C461.432 33.7379 461.221 34.2475 461.221 34.5461C461.221 34.8975 461.485 35.1084 461.819 35.1084C462.17 35.1084 462.697 34.8097 462.697 34.142C462.697 33.4041 461.959 33 461.186 33C460.431 33 459.693 33.5622 459.341 34.2475C459.025 34.8624 458.849 35.4949 458.445 37.7965H457.268C456.934 37.7965 456.758 37.7965 456.758 38.1128C456.758 38.306 456.864 38.306 457.215 38.306H458.34C458.023 39.94 457.303 43.9108 456.899 45.7907C456.6 47.3193 456.337 48.6019 455.458 48.6019C455.406 48.6019 454.896 48.6019 454.58 48.2681C455.476 48.1978 455.476 47.4247 455.476 47.4072C455.476 47.0558 455.212 46.8449 454.878 46.8449C454.527 46.8449 454 47.1436 454 47.8113C454 48.5668 454.773 48.9533 455.458 48.9533C457.25 48.9533 457.988 45.738 458.182 44.8596C458.498 43.5067 459.359 38.8331 459.447 38.306H460.94Z" fill="black"/>
<path d="M460.94 88.306C461.291 88.306 461.432 88.306 461.432 87.9722C461.432 87.7965 461.291 87.7965 460.975 87.7965H459.552C459.886 85.9869 460.132 84.7394 460.272 84.1772C460.378 83.7555 460.747 83.3514 461.204 83.3514C461.573 83.3514 461.942 83.5095 462.117 83.6677C461.432 83.7379 461.221 84.2475 461.221 84.5461C461.221 84.8975 461.485 85.1084 461.819 85.1084C462.17 85.1084 462.697 84.8097 462.697 84.142C462.697 83.4041 461.959 83 461.186 83C460.431 83 459.693 83.5622 459.341 84.2475C459.025 84.8624 458.849 85.4949 458.445 87.7965H457.268C456.934 87.7965 456.758 87.7965 456.758 88.1128C456.758 88.306 456.864 88.306 457.215 88.306H458.34C458.023 89.94 457.303 93.9108 456.899 95.7907C456.6 97.3193 456.337 98.6019 455.458 98.6019C455.406 98.6019 454.896 98.6019 454.58 98.2681C455.476 98.1978 455.476 97.4247 455.476 97.4072C455.476 97.0558 455.212 96.8449 454.878 96.8449C454.527 96.8449 454 97.1436 454 97.8113C454 98.5668 454.773 98.9533 455.458 98.9533C457.25 98.9533 457.988 95.738 458.182 94.8596C458.498 93.5067 459.359 88.8331 459.447 88.306H460.94Z" fill="black"/>
<path d="M460.94 190.306C461.291 190.306 461.432 190.306 461.432 189.972C461.432 189.797 461.291 189.797 460.975 189.797H459.552C459.886 187.987 460.132 186.739 460.272 186.177C460.378 185.755 460.747 185.351 461.204 185.351C461.573 185.351 461.942 185.51 462.117 185.668C461.432 185.738 461.221 186.247 461.221 186.546C461.221 186.898 461.485 187.108 461.819 187.108C462.17 187.108 462.697 186.81 462.697 186.142C462.697 185.404 461.959 185 461.186 185C460.431 185 459.693 185.562 459.341 186.247C459.025 186.862 458.849 187.495 458.445 189.797H457.268C456.934 189.797 456.758 189.797 456.758 190.113C456.758 190.306 456.864 190.306 457.215 190.306H458.34C458.023 191.94 457.303 195.911 456.899 197.791C456.6 199.319 456.337 200.602 455.458 200.602C455.406 200.602 454.896 200.602 454.58 200.268C455.476 200.198 455.476 199.425 455.476 199.407C455.476 199.056 455.212 198.845 454.878 198.845C454.527 198.845 454 199.144 454 199.811C454 200.567 454.773 200.953 455.458 200.953C457.25 200.953 457.988 197.738 458.182 196.86C458.498 195.507 459.359 190.833 459.447 190.306H460.94Z" fill="black"/>
<path d="M460.94 139.306C461.291 139.306 461.432 139.306 461.432 138.972C461.432 138.797 461.291 138.797 460.975 138.797H459.552C459.886 136.987 460.132 135.739 460.272 135.177C460.378 134.755 460.747 134.351 461.204 134.351C461.573 134.351 461.942 134.51 462.117 134.668C461.432 134.738 461.221 135.247 461.221 135.546C461.221 135.898 461.485 136.108 461.819 136.108C462.17 136.108 462.697 135.81 462.697 135.142C462.697 134.404 461.959 134 461.186 134C460.431 134 459.693 134.562 459.341 135.247C459.025 135.862 458.849 136.495 458.445 138.797H457.268C456.934 138.797 456.758 138.797 456.758 139.113C456.758 139.306 456.864 139.306 457.215 139.306H458.34C458.023 140.94 457.303 144.911 456.899 146.791C456.6 148.319 456.337 149.602 455.458 149.602C455.406 149.602 454.896 149.602 454.58 149.268C455.476 149.198 455.476 148.425 455.476 148.407C455.476 148.056 455.212 147.845 454.878 147.845C454.527 147.845 454 148.144 454 148.811C454 149.567 454.773 149.953 455.458 149.953C457.25 149.953 457.988 146.738 458.182 145.86C458.498 144.507 459.359 139.833 459.447 139.306H460.94Z" fill="black"/>
<path d="M330.164 51.1415C329.83 51.1415 329.672 51.1415 329.426 51.3522C329.321 51.44 329.128 51.7034 329.128 51.9844C329.128 52.3356 329.391 52.5464 329.725 52.5464C330.146 52.5464 330.621 52.1952 330.621 51.4927C330.621 50.6498 329.813 50 328.601 50C326.301 50 324 52.5113 324 55.0049C324 56.5328 324.948 57.9201 326.74 57.9201C329.128 57.9201 330.638 56.0586 330.638 55.8303C330.638 55.725 330.533 55.6371 330.463 55.6371C330.41 55.6371 330.392 55.6547 330.234 55.8128C329.11 57.3055 327.442 57.5689 326.775 57.5689C325.563 57.5689 325.177 56.5152 325.177 55.6371C325.177 55.0225 325.475 53.3191 326.107 52.1249C326.564 51.2995 327.512 50.3512 328.619 50.3512C328.847 50.3512 329.813 50.3863 330.164 51.1415Z" fill="black"/>
<path d="M334.346 52.9211C334.346 52.605 334.323 52.5932 334.007 52.5932C333.527 53.0615 332.906 53.3425 331.794 53.3425V53.7289C332.11 53.7289 332.742 53.7289 333.422 53.4128V59.4187C333.422 59.8519 333.386 59.9924 332.274 59.9924H331.864V60.3787C332.344 60.3436 333.351 60.3436 333.878 60.3436C334.405 60.3436 335.423 60.3436 335.903 60.3787V59.9924H335.494C334.382 59.9924 334.346 59.8519 334.346 59.4187V52.9211Z" fill="black"/>
<path d="M310.166 100.142C309.832 100.142 309.674 100.142 309.428 100.353C309.323 100.441 309.13 100.704 309.13 100.985C309.13 101.336 309.393 101.547 309.727 101.547C310.149 101.547 310.623 101.196 310.623 100.493C310.623 99.65 309.815 99 308.603 99C306.301 99 304 101.512 304 104.007C304 105.535 304.949 106.923 306.741 106.923C309.13 106.923 310.64 105.061 310.64 104.832C310.64 104.727 310.535 104.639 310.465 104.639C310.412 104.639 310.395 104.657 310.236 104.815C309.112 106.308 307.443 106.572 306.776 106.572C305.564 106.572 305.177 105.518 305.177 104.639C305.177 104.024 305.476 102.32 306.108 101.126C306.565 100.3 307.513 99.3513 308.62 99.3513C308.849 99.3513 309.815 99.3865 310.166 100.142Z" fill="black"/>
<path d="M313.975 106.993C314.163 106.818 314.654 106.431 314.842 106.267C315.568 105.6 316.259 104.955 316.259 103.89C316.259 102.496 315.088 101.594 313.624 101.594C312.218 101.594 311.293 102.66 311.293 103.702C311.293 104.276 311.75 104.358 311.914 104.358C312.16 104.358 312.523 104.182 312.523 103.737C312.523 103.128 311.937 103.128 311.797 103.128C312.136 102.273 312.921 101.981 313.495 101.981C314.584 101.981 315.146 102.906 315.146 103.89C315.146 105.108 314.291 105.998 312.909 107.415L311.434 108.937C311.293 109.066 311.293 109.09 311.293 109.382H315.919L316.259 107.286H315.896C315.861 107.52 315.767 108.106 315.627 108.328C315.556 108.422 314.666 108.422 314.479 108.422H312.394L313.975 106.993Z" fill="black"/>
<path d="M320.165 151.142C319.832 151.142 319.674 151.142 319.428 151.353C319.322 151.44 319.129 151.704 319.129 151.985C319.129 152.336 319.393 152.547 319.726 152.547C320.148 152.547 320.622 152.196 320.622 151.493C320.622 150.65 319.814 150 318.602 150C316.301 150 314 152.512 314 155.006C314 156.534 314.949 157.922 316.74 157.922C319.129 157.922 320.64 156.06 320.64 155.832C320.64 155.726 320.534 155.638 320.464 155.638C320.411 155.638 320.394 155.656 320.236 155.814C319.112 157.307 317.443 157.571 316.775 157.571C315.563 157.571 315.177 156.517 315.177 155.638C315.177 155.024 315.475 153.32 316.108 152.125C316.565 151.3 317.513 150.351 318.62 150.351C318.848 150.351 319.814 150.386 320.165 151.142Z" fill="black"/>
<path d="M323.634 156.47C324.56 156.47 325.145 157.149 325.145 158.379C325.145 159.843 324.314 160.276 323.693 160.276C323.049 160.276 322.171 160.042 321.761 159.421C322.182 159.421 322.475 159.152 322.475 158.765C322.475 158.39 322.206 158.121 321.831 158.121C321.515 158.121 321.187 158.32 321.187 158.789C321.187 159.901 322.381 160.627 323.716 160.627C325.274 160.627 326.363 159.55 326.363 158.379C326.363 157.407 325.59 156.517 324.396 156.259C325.321 155.931 326.012 155.135 326.012 154.198C326.012 153.261 324.958 152.594 323.74 152.594C322.487 152.594 321.538 153.273 321.538 154.163C321.538 154.596 321.831 154.784 322.136 154.784C322.499 154.784 322.733 154.526 322.733 154.186C322.733 153.753 322.358 153.589 322.1 153.578C322.592 152.933 323.494 152.898 323.705 152.898C324.009 152.898 324.899 152.992 324.899 154.198C324.899 155.018 324.56 155.51 324.396 155.697C324.044 156.06 323.775 156.084 323.061 156.13C322.838 156.142 322.745 156.154 322.745 156.306C322.745 156.47 322.85 156.47 323.049 156.47H323.634Z" fill="black"/>
<path d="M330.162 202.141C329.828 202.141 329.67 202.141 329.424 202.352C329.319 202.439 329.126 202.703 329.126 202.984C329.126 203.335 329.389 203.545 329.723 203.545C330.144 203.545 330.618 203.194 330.618 202.492C330.618 201.65 329.81 201 328.599 201C326.3 201 324 203.51 324 206.003C324 207.53 324.948 208.917 326.738 208.917C329.126 208.917 330.636 207.056 330.636 206.828C330.636 206.723 330.53 206.635 330.46 206.635C330.407 206.635 330.39 206.652 330.232 206.81C329.108 208.303 327.441 208.566 326.774 208.566C325.562 208.566 325.176 207.513 325.176 206.635C325.176 206.021 325.475 204.318 326.107 203.124C326.563 202.299 327.511 201.351 328.617 201.351C328.845 201.351 329.81 201.386 330.162 202.141Z" fill="black"/>
<path d="M335.278 203.803C335.278 203.569 335.278 203.475 335.033 203.475C334.881 203.475 334.869 203.487 334.752 203.651L331.019 209.069V209.455H334.319V210.427C334.319 210.86 334.284 210.988 333.383 210.988H333.113V211.375C334.108 211.34 334.132 211.34 334.799 211.34C335.466 211.34 335.489 211.34 336.484 211.375V210.988H336.215C335.314 210.988 335.278 210.86 335.278 210.427V209.455H336.519V209.069H335.278V203.803ZM334.401 204.751V209.069H331.428L334.401 204.751Z" fill="black"/>
<path d="M575.56 60.1383C575.086 60.8056 574.401 61.4027 573.54 61.4027C573.33 61.4027 572.487 61.3676 572.223 60.5597C572.276 60.5773 572.364 60.5773 572.399 60.5773C572.926 60.5773 573.277 60.1207 573.277 59.7168C573.277 59.3128 572.943 59.1724 572.68 59.1724C572.399 59.1724 571.784 59.3831 571.784 60.2436C571.784 61.1393 572.539 61.7539 573.54 61.7539C575.296 61.7539 577.07 60.1383 577.562 58.1889L579.283 51.3398C579.301 51.252 579.336 51.1466 579.336 51.0412C579.336 50.7778 579.125 50.6022 578.861 50.6022C578.703 50.6022 578.335 50.6724 578.194 51.1993L576.895 56.3625C576.807 56.6786 576.807 56.7137 576.666 56.9069C576.315 57.3986 575.735 57.9957 574.893 57.9957C573.909 57.9957 573.821 57.0298 573.821 56.5556C573.821 55.5546 574.295 54.2024 574.77 52.9379C574.963 52.4286 575.068 52.1828 575.068 51.8315C575.068 51.0939 574.541 50.4266 573.681 50.4266C572.065 50.4266 571.415 52.973 571.415 53.1135C571.415 53.1838 571.486 53.2716 571.608 53.2716C571.767 53.2716 571.784 53.2014 571.854 52.9555C572.276 51.4803 572.943 50.7778 573.628 50.7778C573.786 50.7778 574.085 50.7778 574.085 51.3574C574.085 51.814 573.891 52.3233 573.628 52.9906C572.768 55.2912 572.768 55.8707 572.768 56.2922C572.768 57.9606 573.962 58.347 574.84 58.347C575.349 58.347 575.981 58.1889 576.596 57.5391L576.614 57.5567C576.35 58.5928 576.175 59.2777 575.56 60.1383Z" fill="black"/>
<path d="M582.971 53.3478C582.971 53.0317 582.947 53.0199 582.631 53.0199C582.151 53.4883 581.53 53.7692 580.418 53.7692V54.1556C580.734 54.1556 581.367 54.1556 582.046 53.8395V59.8456C582.046 60.2788 582.011 60.4193 580.898 60.4193H580.488V60.8057C580.969 60.7705 581.975 60.7705 582.502 60.7705C583.029 60.7705 584.048 60.7705 584.528 60.8057V60.4193H584.118C583.006 60.4193 582.971 60.2788 582.971 59.8456V53.3478Z" fill="black"/>
<path d="M599.294 54.1321C599.592 54.1321 599.908 54.1321 599.908 53.7809C599.908 53.4297 599.592 53.4297 599.294 53.4297H591.847C592.058 51.0764 594.078 49.3905 596.554 49.3905H599.294C599.592 49.3905 599.908 49.3905 599.908 49.0392C599.908 48.688 599.592 48.688 599.294 48.688H596.519C593.516 48.688 591.127 50.971 591.127 53.7809C591.127 56.5908 593.516 58.8738 596.519 58.8738H599.294C599.592 58.8738 599.908 58.8738 599.908 58.5226C599.908 58.1714 599.592 58.1714 599.294 58.1714H596.554C594.078 58.1714 592.058 56.4854 591.847 54.1321H599.294Z" fill="black"/>
<path d="M613.378 56.4678C613.431 55.8005 613.448 54.8522 613.448 54.3604C613.448 52.5164 613.36 46.1766 609.69 46.1766C608.478 46.1766 607.407 47.2479 607.407 47.5113C607.407 47.6518 607.548 47.6518 607.583 47.6518C607.688 47.6518 608.232 47.564 608.619 47.0547C610.164 47.0723 611.165 48.2138 611.692 50.4266C612.026 51.8315 612.149 53.3945 612.149 54.9926C612.149 56.0464 612.078 57.2581 612.061 57.4864C612.043 57.6269 612.043 57.662 612.008 57.6796C611.973 57.7147 610.217 59.1899 609.356 59.1899C609.216 59.1899 607.793 59.1899 607.46 57.7323C607.425 57.6094 607.407 57.504 607.302 57.504C607.091 57.504 606.757 58.1011 606.757 58.5401C606.757 59.2602 607.425 60.5422 608.917 60.5422C610.252 60.5422 613.15 57.9606 614.678 56.1869C618.19 52.1476 618.805 49.127 618.805 48.2138C618.805 46.721 617.804 46.1766 617.136 46.1766C616.627 46.1766 616.469 47.0547 616.469 47.2303C616.469 47.4938 616.539 47.5113 616.803 47.5464C617.839 47.6694 618.102 48.4948 618.102 49.0041C618.102 49.5485 617.277 52.6745 613.378 56.4678Z" fill="black"/>
<path d="M575.56 110.138C575.086 110.806 574.401 111.403 573.54 111.403C573.33 111.403 572.487 111.368 572.223 110.56C572.276 110.577 572.364 110.577 572.399 110.577C572.926 110.577 573.277 110.121 573.277 109.717C573.277 109.313 572.943 109.172 572.68 109.172C572.399 109.172 571.784 109.383 571.784 110.244C571.784 111.139 572.539 111.754 573.54 111.754C575.296 111.754 577.07 110.138 577.562 108.189L579.283 101.34C579.301 101.252 579.336 101.147 579.336 101.041C579.336 100.778 579.125 100.602 578.861 100.602C578.703 100.602 578.335 100.672 578.194 101.199L576.895 106.362C576.807 106.679 576.807 106.714 576.666 106.907C576.315 107.399 575.735 107.996 574.893 107.996C573.909 107.996 573.821 107.03 573.821 106.556C573.821 105.555 574.295 104.202 574.77 102.938C574.963 102.429 575.068 102.183 575.068 101.832C575.068 101.094 574.541 100.427 573.681 100.427C572.065 100.427 571.415 102.973 571.415 103.114C571.415 103.184 571.486 103.272 571.608 103.272C571.767 103.272 571.784 103.201 571.854 102.955C572.276 101.48 572.943 100.778 573.628 100.778C573.786 100.778 574.085 100.778 574.085 101.357C574.085 101.814 573.891 102.323 573.628 102.991C572.768 105.291 572.768 105.871 572.768 106.292C572.768 107.961 573.962 108.347 574.84 108.347C575.349 108.347 575.981 108.189 576.596 107.539L576.614 107.557C576.35 108.593 576.175 109.278 575.56 110.138Z" fill="black"/>
<path d="M582.596 108.417C582.783 108.242 583.275 107.855 583.462 107.691C584.188 107.024 584.879 106.38 584.879 105.315C584.879 103.921 583.708 103.02 582.245 103.02C580.84 103.02 579.915 104.085 579.915 105.127C579.915 105.701 580.371 105.783 580.535 105.783C580.781 105.783 581.144 105.607 581.144 105.162C581.144 104.554 580.559 104.554 580.418 104.554C580.758 103.699 581.542 103.406 582.116 103.406C583.205 103.406 583.767 104.331 583.767 105.315C583.767 106.532 582.912 107.422 581.53 108.839L580.055 110.361C579.915 110.49 579.915 110.513 579.915 110.806H584.539L584.879 108.71H584.516C584.481 108.944 584.387 109.53 584.247 109.752C584.176 109.846 583.287 109.846 583.099 109.846H581.015L582.596 108.417Z" fill="black"/>
<path d="M599.294 104.132C599.592 104.132 599.908 104.132 599.908 103.781C599.908 103.43 599.592 103.43 599.294 103.43H591.847C592.058 101.076 594.078 99.3905 596.554 99.3905H599.294C599.592 99.3905 599.908 99.3905 599.908 99.0392C599.908 98.688 599.592 98.688 599.294 98.688H596.519C593.516 98.688 591.127 100.971 591.127 103.781C591.127 106.591 593.516 108.874 596.519 108.874H599.294C599.592 108.874 599.908 108.874 599.908 108.523C599.908 108.171 599.592 108.171 599.294 108.171H596.554C594.078 108.171 592.058 106.485 591.847 104.132H599.294Z" fill="black"/>
<path d="M613.378 106.468C613.431 105.8 613.448 104.852 613.448 104.36C613.448 102.516 613.36 96.1766 609.69 96.1766C608.478 96.1766 607.407 97.2479 607.407 97.5113C607.407 97.6518 607.548 97.6518 607.583 97.6518C607.688 97.6518 608.232 97.564 608.619 97.0547C610.164 97.0723 611.165 98.2138 611.692 100.427C612.026 101.832 612.149 103.395 612.149 104.993C612.149 106.046 612.078 107.258 612.061 107.486C612.043 107.627 612.043 107.662 612.008 107.68C611.973 107.715 610.217 109.19 609.356 109.19C609.216 109.19 607.793 109.19 607.46 107.732C607.425 107.609 607.407 107.504 607.302 107.504C607.091 107.504 606.757 108.101 606.757 108.54C606.757 109.26 607.425 110.542 608.917 110.542C610.252 110.542 613.15 107.961 614.678 106.187C618.19 102.148 618.805 99.127 618.805 98.2138C618.805 96.721 617.804 96.1766 617.136 96.1766C616.627 96.1766 616.469 97.0547 616.469 97.2303C616.469 97.4938 616.539 97.5113 616.803 97.5464C617.839 97.6694 618.102 98.4948 618.102 99.0041C618.102 99.5485 617.277 102.674 613.378 106.468Z" fill="black"/>
<path d="M575.56 161.138C575.086 161.806 574.401 162.403 573.54 162.403C573.33 162.403 572.487 162.368 572.223 161.56C572.276 161.577 572.364 161.577 572.399 161.577C572.926 161.577 573.277 161.121 573.277 160.717C573.277 160.313 572.943 160.172 572.68 160.172C572.399 160.172 571.784 160.383 571.784 161.244C571.784 162.139 572.539 162.754 573.54 162.754C575.296 162.754 577.07 161.138 577.562 159.189L579.283 152.34C579.301 152.252 579.336 152.147 579.336 152.041C579.336 151.778 579.125 151.602 578.861 151.602C578.703 151.602 578.335 151.672 578.194 152.199L576.895 157.362C576.807 157.679 576.807 157.714 576.666 157.907C576.315 158.399 575.735 158.996 574.893 158.996C573.909 158.996 573.821 158.03 573.821 157.556C573.821 156.555 574.295 155.202 574.77 153.938C574.963 153.429 575.068 153.183 575.068 152.832C575.068 152.094 574.541 151.427 573.681 151.427C572.065 151.427 571.415 153.973 571.415 154.114C571.415 154.184 571.486 154.272 571.608 154.272C571.767 154.272 571.784 154.201 571.854 153.955C572.276 152.48 572.943 151.778 573.628 151.778C573.786 151.778 574.085 151.778 574.085 152.357C574.085 152.814 573.891 153.323 573.628 153.991C572.768 156.291 572.768 156.871 572.768 157.292C572.768 158.961 573.962 159.347 574.84 159.347C575.349 159.347 575.981 159.189 576.596 158.539L576.614 158.557C576.35 159.593 576.175 160.278 575.56 161.138Z" fill="black"/>
<path d="M582.256 157.895C583.181 157.895 583.767 158.574 583.767 159.804C583.767 161.267 582.935 161.7 582.315 161.7C581.671 161.7 580.793 161.466 580.383 160.846C580.805 160.846 581.097 160.576 581.097 160.19C581.097 159.815 580.828 159.546 580.453 159.546C580.137 159.546 579.809 159.745 579.809 160.213C579.809 161.326 581.004 162.052 582.338 162.052C583.895 162.052 584.984 160.974 584.984 159.804C584.984 158.832 584.212 157.942 583.017 157.684C583.942 157.357 584.633 156.561 584.633 155.624C584.633 154.687 583.579 154.02 582.362 154.02C581.109 154.02 580.161 154.699 580.161 155.589C580.161 156.022 580.453 156.209 580.758 156.209C581.121 156.209 581.355 155.952 581.355 155.612C581.355 155.179 580.98 155.015 580.723 155.003C581.214 154.359 582.116 154.324 582.327 154.324C582.631 154.324 583.521 154.418 583.521 155.624C583.521 156.443 583.181 156.935 583.017 157.123C582.666 157.485 582.397 157.509 581.683 157.556C581.46 157.567 581.367 157.579 581.367 157.731C581.367 157.895 581.472 157.895 581.671 157.895H582.256Z" fill="black"/>
<path d="M599.294 155.132C599.592 155.132 599.908 155.132 599.908 154.781C599.908 154.43 599.592 154.43 599.294 154.43H591.847C592.058 152.076 594.078 150.39 596.554 150.39H599.294C599.592 150.39 599.908 150.39 599.908 150.039C599.908 149.688 599.592 149.688 599.294 149.688H596.519C593.516 149.688 591.127 151.971 591.127 154.781C591.127 157.591 593.516 159.874 596.519 159.874H599.294C599.592 159.874 599.908 159.874 599.908 159.523C599.908 159.171 599.592 159.171 599.294 159.171H596.554C594.078 159.171 592.058 157.485 591.847 155.132H599.294Z" fill="black"/>
<path d="M613.378 157.468C613.431 156.8 613.448 155.852 613.448 155.36C613.448 153.516 613.36 147.177 609.69 147.177C608.478 147.177 607.407 148.248 607.407 148.511C607.407 148.652 607.548 148.652 607.583 148.652C607.688 148.652 608.232 148.564 608.619 148.055C610.164 148.072 611.165 149.214 611.692 151.427C612.026 152.832 612.149 154.395 612.149 155.993C612.149 157.046 612.078 158.258 612.061 158.486C612.043 158.627 612.043 158.662 612.008 158.68C611.973 158.715 610.217 160.19 609.356 160.19C609.216 160.19 607.793 160.19 607.46 158.732C607.425 158.609 607.407 158.504 607.302 158.504C607.091 158.504 606.757 159.101 606.757 159.54C606.757 160.26 607.425 161.542 608.917 161.542C610.252 161.542 613.15 158.961 614.678 157.187C618.19 153.148 618.805 150.127 618.805 149.214C618.805 147.721 617.804 147.177 617.136 147.177C616.627 147.177 616.469 148.055 616.469 148.23C616.469 148.494 616.539 148.511 616.803 148.546C617.839 148.669 618.102 149.495 618.102 150.004C618.102 150.548 617.277 153.674 613.378 157.468Z" fill="black"/>
<path d="M575.56 212.138C575.086 212.806 574.401 213.403 573.54 213.403C573.33 213.403 572.487 213.368 572.223 212.56C572.276 212.577 572.364 212.577 572.399 212.577C572.926 212.577 573.277 212.121 573.277 211.717C573.277 211.313 572.943 211.172 572.68 211.172C572.399 211.172 571.784 211.383 571.784 212.244C571.784 213.139 572.539 213.754 573.54 213.754C575.296 213.754 577.07 212.138 577.562 210.189L579.283 203.34C579.301 203.252 579.336 203.147 579.336 203.041C579.336 202.778 579.125 202.602 578.861 202.602C578.703 202.602 578.335 202.672 578.194 203.199L576.895 208.362C576.807 208.679 576.807 208.714 576.666 208.907C576.315 209.399 575.735 209.996 574.893 209.996C573.909 209.996 573.821 209.03 573.821 208.556C573.821 207.555 574.295 206.202 574.77 204.938C574.963 204.429 575.068 204.183 575.068 203.832C575.068 203.094 574.541 202.427 573.681 202.427C572.065 202.427 571.415 204.973 571.415 205.114C571.415 205.184 571.486 205.272 571.608 205.272C571.767 205.272 571.784 205.201 571.854 204.955C572.276 203.48 572.943 202.778 573.628 202.778C573.786 202.778 574.085 202.778 574.085 203.357C574.085 203.814 573.891 204.323 573.628 204.991C572.768 207.291 572.768 207.871 572.768 208.292C572.768 209.961 573.962 210.347 574.84 210.347C575.349 210.347 575.981 210.189 576.596 209.539L576.614 209.557C576.35 210.593 576.175 211.278 575.56 212.138Z" fill="black"/>
<path d="M583.907 205.231C583.907 204.997 583.907 204.903 583.661 204.903C583.509 204.903 583.497 204.915 583.38 205.078L579.645 210.499V210.886H582.947V211.857C582.947 212.29 582.912 212.419 582.01 212.419H581.741V212.806C582.736 212.771 582.76 212.771 583.427 212.771C584.094 212.771 584.118 212.771 585.113 212.806V212.419H584.844C583.942 212.419 583.907 212.29 583.907 211.857V210.886H585.148V210.499H583.907V205.231ZM583.029 206.179V210.499H580.055L583.029 206.179Z" fill="black"/>
<path d="M599.294 206.132C599.592 206.132 599.908 206.132 599.908 205.781C599.908 205.43 599.592 205.43 599.294 205.43H591.847C592.058 203.076 594.078 201.39 596.554 201.39H599.294C599.592 201.39 599.908 201.39 599.908 201.039C599.908 200.688 599.592 200.688 599.294 200.688H596.519C593.516 200.688 591.127 202.971 591.127 205.781C591.127 208.591 593.516 210.874 596.519 210.874H599.294C599.592 210.874 599.908 210.874 599.908 210.523C599.908 210.171 599.592 210.171 599.294 210.171H596.554C594.078 210.171 592.058 208.485 591.847 206.132H599.294Z" fill="black"/>
<path d="M613.378 208.468C613.431 207.8 613.448 206.852 613.448 206.36C613.448 204.516 613.36 198.177 609.69 198.177C608.478 198.177 607.407 199.248 607.407 199.511C607.407 199.652 607.548 199.652 607.583 199.652C607.688 199.652 608.232 199.564 608.619 199.055C610.164 199.072 611.165 200.214 611.692 202.427C612.026 203.832 612.149 205.395 612.149 206.993C612.149 208.046 612.078 209.258 612.061 209.486C612.043 209.627 612.043 209.662 612.008 209.68C611.973 209.715 610.217 211.19 609.356 211.19C609.216 211.19 607.793 211.19 607.46 209.732C607.425 209.609 607.407 209.504 607.302 209.504C607.091 209.504 606.757 210.101 606.757 210.54C606.757 211.26 607.425 212.542 608.917 212.542C610.252 212.542 613.15 209.961 614.678 208.187C618.19 204.148 618.805 201.127 618.805 200.214C618.805 198.721 617.804 198.177 617.136 198.177C616.627 198.177 616.469 199.055 616.469 199.23C616.469 199.494 616.539 199.511 616.803 199.546C617.839 199.669 618.102 200.495 618.102 201.004C618.102 201.548 617.277 204.674 613.378 208.468Z" fill="black"/>
</svg>
