<svg width="740" height="230" viewBox="0 0 740 230" fill="none" xmlns="http://www.w3.org/2000/svg">
<rect width="740" height="230" fill="white"/>
<path d="M47 90L35 147.5M35 147.5L95.5 128M35 147.5L78.5 185L95.5 128M35 147.5L107.5 63.5L148 95L161 148.5M95.5 128L161 148.5M161 148.5L132.5 187.5" stroke="black" stroke-width="2"/>
<circle cx="107" cy="64" r="14" fill="white" stroke="black" stroke-width="2"/>
<path d="M107.552 60.1766C107.552 59.0702 106.99 59 106.849 59C106.428 59 106.041 59.4215 106.041 59.7727C106.041 59.9835 106.164 60.1064 106.234 60.1766C106.41 60.3347 106.867 60.8089 106.867 61.7221C106.867 62.4597 105.813 66.5692 103.706 66.5692C102.634 66.5692 102.424 65.6735 102.424 65.0237C102.424 64.1456 102.827 62.9163 103.302 61.6518C103.583 60.9318 103.653 60.7562 103.653 60.4049C103.653 59.6674 103.126 59 102.265 59C100.65 59 100 61.5465 100 61.687C100 61.7572 100.07 61.845 100.193 61.845C100.351 61.845 100.369 61.7748 100.439 61.5289C100.861 60.0186 101.545 59.3512 102.213 59.3512C102.371 59.3512 102.669 59.3512 102.669 59.9308C102.669 60.3874 102.476 60.8967 102.213 61.564C101.37 63.8119 101.37 64.3564 101.37 64.7778C101.37 65.1642 101.423 65.8842 101.967 66.376C102.599 66.9204 103.477 66.9204 103.635 66.9204C106.551 66.9204 107.552 61.1777 107.552 60.1766Z" fill="black"/>
<path d="M111.484 61.9211C111.484 61.605 111.461 61.5933 111.145 61.5933C110.665 62.0616 110.044 62.3426 108.932 62.3426V62.729C109.248 62.729 109.88 62.729 110.559 62.4129V68.419C110.559 68.8522 110.524 68.9927 109.412 68.9927H109.002V69.3791C109.482 69.3439 110.489 69.3439 111.016 69.3439C111.543 69.3439 112.561 69.3439 113.041 69.3791V68.9927H112.632C111.519 68.9927 111.484 68.8522 111.484 68.419V61.9211Z" fill="black"/>
<circle cx="46" cy="89" r="14" fill="white" stroke="black" stroke-width="2"/>
<path d="M46.5516 85.1766C46.5516 84.0702 45.9896 84 45.8491 84C45.4276 84 45.0413 84.4215 45.0413 84.7727C45.0413 84.9835 45.1642 85.1064 45.2344 85.1766C45.4101 85.3347 45.8667 85.8089 45.8667 86.7221C45.8667 87.4597 44.813 91.5692 42.7055 91.5692C41.6343 91.5692 41.4235 90.6735 41.4235 90.0237C41.4235 89.1456 41.8275 87.9163 42.3016 86.6518C42.5826 85.9318 42.6529 85.7562 42.6529 85.4049C42.6529 84.6674 42.126 84 41.2655 84C39.6498 84 39 86.5465 39 86.687C39 86.7572 39.0702 86.845 39.1932 86.845C39.3512 86.845 39.3688 86.7748 39.439 86.5289C39.8605 85.0186 40.5454 84.3512 41.2128 84.3512C41.3709 84.3512 41.6694 84.3512 41.6694 84.9308C41.6694 85.3874 41.4762 85.8967 41.2128 86.564C40.3698 88.8119 40.3698 89.3564 40.3698 89.7778C40.3698 90.1642 40.4225 90.8842 40.9669 91.376C41.5991 91.9204 42.4772 91.9204 42.6353 91.9204C45.5506 91.9204 46.5516 86.1777 46.5516 85.1766Z" fill="black"/>
<path d="M50.1097 91.9907C50.297 91.815 50.7888 91.4287 50.9761 91.2648C51.702 90.5974 52.3927 89.9535 52.3927 88.8881C52.3927 87.4948 51.2219 86.5933 49.7585 86.5933C48.3535 86.5933 47.4286 87.6587 47.4286 88.7007C47.4286 89.2744 47.8852 89.3564 48.0491 89.3564C48.295 89.3564 48.6579 89.1808 48.6579 88.7359C48.6579 88.127 48.0725 88.127 47.932 88.127C48.2716 87.2724 49.056 86.9797 49.6297 86.9797C50.7185 86.9797 51.2805 87.9046 51.2805 88.8881C51.2805 90.1057 50.4258 90.9955 49.0443 92.4121L47.5691 93.9342C47.4286 94.0629 47.4286 94.0864 47.4286 94.3791H52.0532L52.3927 92.2834H52.0298C51.9947 92.5175 51.901 93.1029 51.7605 93.3254C51.6903 93.419 50.8005 93.419 50.6131 93.419H48.5291L50.1097 91.9907Z" fill="black"/>
<circle cx="147" cy="96" r="14" fill="white" stroke="black" stroke-width="2"/>
<path d="M147.552 92.1766C147.552 91.0702 146.99 91 146.849 91C146.428 91 146.041 91.4215 146.041 91.7727C146.041 91.9835 146.164 92.1064 146.234 92.1766C146.41 92.3347 146.867 92.8089 146.867 93.7221C146.867 94.4597 145.813 98.5692 143.706 98.5692C142.634 98.5692 142.424 97.6735 142.424 97.0237C142.424 96.1456 142.827 94.9163 143.302 93.6518C143.583 92.9318 143.653 92.7562 143.653 92.4049C143.653 91.6674 143.126 91 142.265 91C140.65 91 140 93.5465 140 93.687C140 93.7572 140.07 93.845 140.193 93.845C140.351 93.845 140.369 93.7748 140.439 93.5289C140.861 92.0186 141.545 91.3512 142.213 91.3512C142.371 91.3512 142.669 91.3512 142.669 91.9308C142.669 92.3874 142.476 92.8967 142.213 93.564C141.37 95.8119 141.37 96.3564 141.37 96.7778C141.37 97.1642 141.423 97.8842 141.967 98.376C142.599 98.9204 143.477 98.9204 143.635 98.9204C146.551 98.9204 147.552 93.1777 147.552 92.1766Z" fill="black"/>
<path d="M150.77 97.4686C151.695 97.4686 152.28 98.1477 152.28 99.377C152.28 100.84 151.449 101.274 150.829 101.274C150.185 101.274 149.307 101.04 148.897 100.419C149.318 100.419 149.611 100.15 149.611 99.7634C149.611 99.3887 149.342 99.1194 148.967 99.1194C148.651 99.1194 148.323 99.3185 148.323 99.7868C148.323 100.899 149.517 101.625 150.852 101.625C152.409 101.625 153.498 100.548 153.498 99.377C153.498 98.4053 152.725 97.5155 151.531 97.2579C152.456 96.9301 153.147 96.1339 153.147 95.1973C153.147 94.2607 152.093 93.5933 150.876 93.5933C149.623 93.5933 148.674 94.2724 148.674 95.1622C148.674 95.5954 148.967 95.7827 149.272 95.7827C149.634 95.7827 149.869 95.5251 149.869 95.1856C149.869 94.7524 149.494 94.5885 149.236 94.5768C149.728 93.9328 150.63 93.8977 150.84 93.8977C151.145 93.8977 152.035 93.9914 152.035 95.1973C152.035 96.0169 151.695 96.5086 151.531 96.6959C151.18 97.0589 150.911 97.0823 150.196 97.1291C149.974 97.1408 149.88 97.1525 149.88 97.3047C149.88 97.4686 149.986 97.4686 150.185 97.4686H150.77Z" fill="black"/>
<circle cx="96" cy="127" r="14" fill="white" stroke="black" stroke-width="2"/>
<path d="M96.5516 123.177C96.5516 122.07 95.9896 122 95.8491 122C95.4276 122 95.0413 122.421 95.0413 122.773C95.0413 122.983 95.1642 123.106 95.2344 123.177C95.4101 123.335 95.8667 123.809 95.8667 124.722C95.8667 125.46 94.813 129.569 92.7055 129.569C91.6343 129.569 91.4235 128.673 91.4235 128.024C91.4235 127.146 91.8275 125.916 92.3016 124.652C92.5826 123.932 92.6529 123.756 92.6529 123.405C92.6529 122.667 92.126 122 91.2655 122C89.6498 122 89 124.546 89 124.687C89 124.757 89.0702 124.845 89.1932 124.845C89.3512 124.845 89.3688 124.775 89.439 124.529C89.8605 123.019 90.5454 122.351 91.2128 122.351C91.3709 122.351 91.6694 122.351 91.6694 122.931C91.6694 123.387 91.4762 123.897 91.2128 124.564C90.3698 126.812 90.3698 127.356 90.3698 127.778C90.3698 128.164 90.4225 128.884 90.9669 129.376C91.5991 129.92 92.4772 129.92 92.6353 129.92C95.5506 129.92 96.5516 124.178 96.5516 123.177Z" fill="black"/>
<path d="M101.421 124.804C101.421 124.57 101.421 124.476 101.175 124.476C101.023 124.476 101.011 124.488 100.894 124.652L97.1593 130.073V130.459H100.461V131.431C100.461 131.864 100.426 131.993 99.5243 131.993H99.255V132.379C100.25 132.344 100.274 132.344 100.941 132.344C101.608 132.344 101.632 132.344 102.627 132.379V131.993H102.358C101.456 131.993 101.421 131.864 101.421 131.431V130.459H102.662V130.073H101.421V124.804ZM100.543 125.752V130.073H97.5691L100.543 125.752Z" fill="black"/>
<circle cx="35" cy="144" r="14" fill="white" stroke="black" stroke-width="2"/>
<path d="M35.5516 140.177C35.5516 139.07 34.9896 139 34.8491 139C34.4276 139 34.0413 139.421 34.0413 139.773C34.0413 139.983 34.1642 140.106 34.2344 140.177C34.4101 140.335 34.8667 140.809 34.8667 141.722C34.8667 142.46 33.813 146.569 31.7055 146.569C30.6343 146.569 30.4235 145.673 30.4235 145.024C30.4235 144.146 30.8275 142.916 31.3016 141.652C31.5826 140.932 31.6529 140.756 31.6529 140.405C31.6529 139.667 31.126 139 30.2655 139C28.6498 139 28 141.546 28 141.687C28 141.757 28.0702 141.845 28.1932 141.845C28.3512 141.845 28.3688 141.775 28.439 141.529C28.8605 140.019 29.5454 139.351 30.2128 139.351C30.3709 139.351 30.6694 139.351 30.6694 139.931C30.6694 140.387 30.4762 140.897 30.2128 141.564C29.3698 143.812 29.3698 144.356 29.3698 144.778C29.3698 145.164 29.4225 145.884 29.9669 146.376C30.5991 146.92 31.4772 146.92 31.6353 146.92C34.5506 146.92 35.5516 141.178 35.5516 140.177Z" fill="black"/>
<path d="M37.4472 142.799C37.5994 142.846 38.0677 142.963 38.5594 142.963C40.0229 142.963 40.9127 141.933 40.9127 141.757C40.9127 141.629 40.8308 141.593 40.7722 141.593C40.7488 141.593 40.7254 141.593 40.62 141.652C40.1634 141.828 39.6248 141.968 38.9926 141.968C38.3018 141.968 37.7282 141.792 37.3652 141.652C37.2481 141.593 37.2247 141.593 37.213 141.593C37.0608 141.593 37.0608 141.722 37.0608 141.933V145.363C37.0608 145.574 37.0608 145.715 37.2481 145.715C37.3418 145.715 37.3769 145.668 37.4355 145.574C37.576 145.398 38.0209 144.801 39.016 144.801C39.6717 144.801 39.9878 145.34 40.0932 145.562C40.2922 145.984 40.3156 146.522 40.3156 146.979C40.3156 147.412 40.3039 148.044 39.9761 148.56C39.7536 148.911 39.2853 149.274 38.6648 149.274C37.9038 149.274 37.1545 148.794 36.8852 148.033C36.9203 148.044 36.9906 148.044 37.0023 148.044C37.3301 148.044 37.5877 147.834 37.5877 147.471C37.5877 147.038 37.2481 146.885 37.014 146.885C36.8032 146.885 36.4286 147.002 36.4286 147.506C36.4286 148.56 37.3418 149.625 38.6882 149.625C40.1517 149.625 41.3927 148.489 41.3927 147.038C41.3927 145.679 40.4093 144.474 39.0277 144.474C38.4424 144.474 37.8921 144.661 37.4472 145.059V142.799Z" fill="black"/>
<circle cx="160" cy="147" r="14" fill="white" stroke="black" stroke-width="2"/>
<path d="M160.552 143.177C160.552 142.07 159.99 142 159.849 142C159.428 142 159.041 142.421 159.041 142.773C159.041 142.983 159.164 143.106 159.234 143.177C159.41 143.335 159.867 143.809 159.867 144.722C159.867 145.46 158.813 149.569 156.706 149.569C155.634 149.569 155.424 148.673 155.424 148.024C155.424 147.146 155.827 145.916 156.302 144.652C156.583 143.932 156.653 143.756 156.653 143.405C156.653 142.667 156.126 142 155.265 142C153.65 142 153 144.546 153 144.687C153 144.757 153.07 144.845 153.193 144.845C153.351 144.845 153.369 144.775 153.439 144.529C153.861 143.019 154.545 142.351 155.213 142.351C155.371 142.351 155.669 142.351 155.669 142.931C155.669 143.387 155.476 143.897 155.213 144.564C154.37 146.812 154.37 147.356 154.37 147.778C154.37 148.164 154.423 148.884 154.967 149.376C155.599 149.92 156.477 149.92 156.635 149.92C159.551 149.92 160.552 144.178 160.552 143.177Z" fill="black"/>
<path d="M162.424 148.504C162.424 147.532 162.506 146.677 162.927 145.963C163.278 145.378 163.876 144.898 164.613 144.898C164.847 144.898 165.386 144.933 165.655 145.343C165.128 145.366 165.081 145.764 165.081 145.893C165.081 146.244 165.351 146.443 165.632 146.443C165.842 146.443 166.182 146.314 166.182 145.869C166.182 145.167 165.655 144.593 164.601 144.593C162.974 144.593 161.323 146.139 161.323 148.668C161.323 151.84 162.798 152.625 163.934 152.625C164.496 152.625 165.105 152.473 165.632 151.969C166.1 151.513 166.498 151.021 166.498 150.002C166.498 148.469 165.339 147.391 164.039 147.391C163.197 147.391 162.693 147.93 162.424 148.504ZM163.934 152.274C163.314 152.274 162.927 151.84 162.752 151.513C162.482 150.986 162.459 150.19 162.459 149.745C162.459 148.586 163.091 147.719 163.993 147.719C164.578 147.719 164.929 148.024 165.152 148.434C165.398 148.867 165.398 149.394 165.398 149.991C165.398 150.588 165.398 151.103 165.163 151.524C164.859 152.063 164.449 152.274 163.934 152.274Z" fill="black"/>
<circle cx="78" cy="182" r="14" fill="white" stroke="black" stroke-width="2"/>
<path d="M78.5516 178.177C78.5516 177.07 77.9896 177 77.8491 177C77.4276 177 77.0413 177.421 77.0413 177.773C77.0413 177.983 77.1642 178.106 77.2344 178.177C77.4101 178.335 77.8667 178.809 77.8667 179.722C77.8667 180.46 76.813 184.569 74.7055 184.569C73.6343 184.569 73.4235 183.673 73.4235 183.024C73.4235 182.146 73.8275 180.916 74.3016 179.652C74.5826 178.932 74.6529 178.756 74.6529 178.405C74.6529 177.667 74.126 177 73.2655 177C71.6498 177 71 179.546 71 179.687C71 179.757 71.0702 179.845 71.1932 179.845C71.3512 179.845 71.3688 179.775 71.439 179.529C71.8605 178.019 72.5454 177.351 73.2128 177.351C73.3709 177.351 73.6694 177.351 73.6694 177.931C73.6694 178.387 73.4762 178.897 73.2128 179.564C72.3698 181.812 72.3698 182.356 72.3698 182.778C72.3698 183.164 72.4225 183.884 72.9669 184.376C73.5991 184.92 74.4772 184.92 74.6353 184.92C77.5506 184.92 78.5516 179.178 78.5516 178.177Z" fill="black"/>
<path d="M84.7322 180.249C84.8376 180.12 84.8376 180.097 84.8376 179.839H81.8638C81.5711 179.839 81.2081 179.827 80.9154 179.804C80.3066 179.757 80.2949 179.652 80.2598 179.465H79.8968L79.4988 181.935H79.8617C79.8851 181.759 80.0139 180.951 80.1778 180.858C80.3066 180.799 81.1847 180.799 81.3603 180.799H83.8424L82.6365 182.415C81.3018 184.195 81.0208 186.044 81.0208 186.969C81.0208 187.086 81.0208 187.625 81.5711 187.625C82.1214 187.625 82.1213 187.098 82.1213 186.958V186.396C82.1213 184.71 82.4023 183.328 82.976 182.567L84.7322 180.249Z" fill="black"/>
<circle cx="131" cy="186" r="14" fill="white" stroke="black" stroke-width="2"/>
<path d="M131.552 182.177C131.552 181.07 130.99 181 130.849 181C130.428 181 130.041 181.421 130.041 181.773C130.041 181.983 130.164 182.106 130.234 182.177C130.41 182.335 130.867 182.809 130.867 183.722C130.867 184.46 129.813 188.569 127.706 188.569C126.634 188.569 126.424 187.673 126.424 187.024C126.424 186.146 126.827 184.916 127.302 183.652C127.583 182.932 127.653 182.756 127.653 182.405C127.653 181.667 127.126 181 126.265 181C124.65 181 124 183.546 124 183.687C124 183.757 124.07 183.845 124.193 183.845C124.351 183.845 124.369 183.775 124.439 183.529C124.861 182.019 125.545 181.351 126.213 181.351C126.371 181.351 126.669 181.351 126.669 181.931C126.669 182.387 126.476 182.897 126.213 183.564C125.37 185.812 125.37 186.356 125.37 186.778C125.37 187.164 125.423 187.884 125.967 188.376C126.599 188.92 127.477 188.92 127.635 188.92C130.551 188.92 131.552 183.178 131.552 182.177Z" fill="black"/>
<path d="M135.695 187.153C136.351 186.836 137.147 186.251 137.147 185.338C137.147 184.226 136.011 183.593 134.922 183.593C133.681 183.593 132.674 184.448 132.674 185.549C132.674 185.982 132.827 186.38 133.119 186.719C133.318 186.965 133.365 186.989 134.091 187.445C132.639 188.089 132.323 188.944 132.323 189.599C132.323 190.887 133.623 191.625 134.899 191.625C136.339 191.625 137.498 190.653 137.498 189.412C137.498 188.675 137.1 188.183 136.913 187.984C136.714 187.796 136.702 187.785 135.695 187.153ZM133.88 186.052C133.541 185.853 133.26 185.513 133.26 185.104C133.26 184.366 134.068 183.898 134.899 183.898C135.812 183.898 136.561 184.518 136.561 185.338C136.561 186.017 136.035 186.591 135.344 186.93L133.88 186.052ZM134.454 187.656C134.501 187.679 135.836 188.499 136.035 188.628C136.222 188.733 136.831 189.108 136.831 189.81C136.831 190.712 135.882 191.274 134.922 191.274C133.88 191.274 132.991 190.56 132.991 189.599C132.991 188.721 133.646 188.031 134.454 187.656Z" fill="black"/>
<path d="M9.40251 120.122C9.40251 120 9.30794 120 9.28092 120C9.2539 120 9.19986 120 9.09179 120.135L8.15964 121.256C8.09209 121.148 7.82191 120.675 7.29504 120.365C6.71415 120 6.13324 120 5.9306 120C3.0396 120 0 122.945 0 126.133C0 128.362 1.54007 129.794 3.56646 129.794C4.53913 129.794 5.76849 129.47 6.44395 128.619C6.59256 129.132 6.88976 129.497 6.98433 129.497C7.05188 129.497 7.06538 129.457 7.0789 129.457C7.0924 129.43 7.20048 128.957 7.26803 128.714L7.48417 127.849C7.59225 127.403 7.64628 127.214 7.74085 126.809C7.87594 126.295 7.90296 126.255 8.64598 126.241C8.70002 126.241 8.86213 126.241 8.86213 125.985C8.86213 125.85 8.72704 125.85 8.6865 125.85C8.45684 125.85 8.20018 125.877 7.957 125.877H7.22749C6.66011 125.877 6.0657 125.85 5.51181 125.85C5.39023 125.85 5.22812 125.85 5.22812 126.093C5.22812 126.228 5.33619 126.228 5.33619 126.241H5.67392C6.74116 126.241 6.74116 126.349 6.74116 126.552C6.74116 126.566 6.48448 127.93 6.22781 128.335C5.71445 129.092 4.64722 129.403 3.85016 129.403C2.80994 129.403 1.12128 128.862 1.12128 126.525C1.12128 125.62 1.4455 123.553 2.7559 122.026C3.607 121.054 4.86336 120.392 6.05218 120.392C7.64628 120.392 8.21368 121.756 8.21368 122.999C8.21368 123.215 8.15964 123.512 8.15964 123.702C8.15964 123.823 8.29473 123.823 8.33527 123.823C8.48386 123.823 8.49738 123.81 8.55141 123.566L9.40251 120.122Z" fill="black"/>
<path d="M287 90L275 147.5M275 147.5L335.5 128M275 147.5L318.5 185L335.5 128M275 147.5L347.5 63.5L388 95L401 148.5M335.5 128L401 148.5M401 148.5L372.5 187.5" stroke="black" stroke-width="2"/>
<circle cx="347" cy="64" r="14" fill="white" stroke="black" stroke-width="2"/>
<path d="M347.552 60.1766C347.552 59.0702 346.99 59 346.849 59C346.428 59 346.041 59.4215 346.041 59.7727C346.041 59.9835 346.164 60.1064 346.234 60.1766C346.41 60.3347 346.867 60.8089 346.867 61.7221C346.867 62.4597 345.813 66.5692 343.706 66.5692C342.634 66.5692 342.424 65.6735 342.424 65.0237C342.424 64.1456 342.827 62.9163 343.302 61.6518C343.583 60.9318 343.653 60.7562 343.653 60.4049C343.653 59.6674 343.126 59 342.265 59C340.65 59 340 61.5465 340 61.687C340 61.7572 340.07 61.845 340.193 61.845C340.351 61.845 340.369 61.7748 340.439 61.5289C340.861 60.0186 341.545 59.3512 342.213 59.3512C342.371 59.3512 342.669 59.3512 342.669 59.9308C342.669 60.3874 342.476 60.8967 342.213 61.564C341.37 63.8119 341.37 64.3564 341.37 64.7778C341.37 65.1642 341.423 65.8842 341.967 66.376C342.599 66.9204 343.477 66.9204 343.635 66.9204C346.551 66.9204 347.552 61.1777 347.552 60.1766Z" fill="black"/>
<path d="M351.484 61.9211C351.484 61.605 351.461 61.5933 351.145 61.5933C350.665 62.0616 350.044 62.3426 348.932 62.3426V62.729C349.248 62.729 349.88 62.729 350.559 62.4129V68.419C350.559 68.8522 350.524 68.9927 349.412 68.9927H349.002V69.3791C349.482 69.3439 350.489 69.3439 351.016 69.3439C351.543 69.3439 352.561 69.3439 353.041 69.3791V68.9927H352.632C351.519 68.9927 351.484 68.8522 351.484 68.419V61.9211Z" fill="black"/>
<circle cx="286" cy="89" r="14" fill="white" stroke="black" stroke-width="2"/>
<path d="M286.552 85.1766C286.552 84.0702 285.99 84 285.849 84C285.428 84 285.041 84.4215 285.041 84.7727C285.041 84.9835 285.164 85.1064 285.234 85.1766C285.41 85.3347 285.867 85.8089 285.867 86.7221C285.867 87.4597 284.813 91.5692 282.706 91.5692C281.634 91.5692 281.424 90.6735 281.424 90.0237C281.424 89.1456 281.827 87.9163 282.302 86.6518C282.583 85.9318 282.653 85.7562 282.653 85.4049C282.653 84.6674 282.126 84 281.265 84C279.65 84 279 86.5465 279 86.687C279 86.7572 279.07 86.845 279.193 86.845C279.351 86.845 279.369 86.7748 279.439 86.5289C279.861 85.0186 280.545 84.3512 281.213 84.3512C281.371 84.3512 281.669 84.3512 281.669 84.9308C281.669 85.3874 281.476 85.8967 281.213 86.564C280.37 88.8119 280.37 89.3564 280.37 89.7778C280.37 90.1642 280.423 90.8842 280.967 91.376C281.599 91.9204 282.477 91.9204 282.635 91.9204C285.551 91.9204 286.552 86.1777 286.552 85.1766Z" fill="black"/>
<path d="M290.11 91.9907C290.297 91.815 290.789 91.4287 290.976 91.2648C291.702 90.5974 292.393 89.9535 292.393 88.8881C292.393 87.4948 291.222 86.5933 289.758 86.5933C288.354 86.5933 287.429 87.6587 287.429 88.7007C287.429 89.2744 287.885 89.3564 288.049 89.3564C288.295 89.3564 288.658 89.1808 288.658 88.7359C288.658 88.127 288.073 88.127 287.932 88.127C288.272 87.2724 289.056 86.9797 289.63 86.9797C290.719 86.9797 291.28 87.9046 291.28 88.8881C291.28 90.1057 290.426 90.9955 289.044 92.4121L287.569 93.9342C287.429 94.0629 287.429 94.0864 287.429 94.3791H292.053L292.393 92.2834H292.03C291.995 92.5175 291.901 93.1029 291.761 93.3254C291.69 93.419 290.8 93.419 290.613 93.419H288.529L290.11 91.9907Z" fill="black"/>
<circle cx="387" cy="96" r="14" fill="white" stroke="black" stroke-width="2"/>
<path d="M387.552 92.1766C387.552 91.0702 386.99 91 386.849 91C386.428 91 386.041 91.4215 386.041 91.7727C386.041 91.9835 386.164 92.1064 386.234 92.1766C386.41 92.3347 386.867 92.8089 386.867 93.7221C386.867 94.4597 385.813 98.5692 383.706 98.5692C382.634 98.5692 382.424 97.6735 382.424 97.0237C382.424 96.1456 382.827 94.9163 383.302 93.6518C383.583 92.9318 383.653 92.7562 383.653 92.4049C383.653 91.6674 383.126 91 382.265 91C380.65 91 380 93.5465 380 93.687C380 93.7572 380.07 93.845 380.193 93.845C380.351 93.845 380.369 93.7748 380.439 93.5289C380.861 92.0186 381.545 91.3512 382.213 91.3512C382.371 91.3512 382.669 91.3512 382.669 91.9308C382.669 92.3874 382.476 92.8967 382.213 93.564C381.37 95.8119 381.37 96.3564 381.37 96.7778C381.37 97.1642 381.423 97.8842 381.967 98.376C382.599 98.9204 383.477 98.9204 383.635 98.9204C386.551 98.9204 387.552 93.1777 387.552 92.1766Z" fill="black"/>
<path d="M390.77 97.4686C391.695 97.4686 392.28 98.1477 392.28 99.377C392.28 100.84 391.449 101.274 390.829 101.274C390.185 101.274 389.307 101.04 388.897 100.419C389.318 100.419 389.611 100.15 389.611 99.7634C389.611 99.3887 389.342 99.1194 388.967 99.1194C388.651 99.1194 388.323 99.3185 388.323 99.7868C388.323 100.899 389.517 101.625 390.852 101.625C392.409 101.625 393.498 100.548 393.498 99.377C393.498 98.4053 392.725 97.5155 391.531 97.2579C392.456 96.9301 393.147 96.1339 393.147 95.1973C393.147 94.2607 392.093 93.5933 390.876 93.5933C389.623 93.5933 388.674 94.2724 388.674 95.1622C388.674 95.5954 388.967 95.7827 389.272 95.7827C389.634 95.7827 389.869 95.5251 389.869 95.1856C389.869 94.7524 389.494 94.5885 389.236 94.5768C389.728 93.9328 390.63 93.8977 390.84 93.8977C391.145 93.8977 392.035 93.9914 392.035 95.1973C392.035 96.0169 391.695 96.5086 391.531 96.6959C391.18 97.0589 390.911 97.0823 390.196 97.1291C389.974 97.1408 389.88 97.1525 389.88 97.3047C389.88 97.4686 389.986 97.4686 390.185 97.4686H390.77Z" fill="black"/>
<circle cx="336" cy="127" r="14" fill="white" stroke="black" stroke-width="2"/>
<path d="M336.552 123.177C336.552 122.07 335.99 122 335.849 122C335.428 122 335.041 122.421 335.041 122.773C335.041 122.983 335.164 123.106 335.234 123.177C335.41 123.335 335.867 123.809 335.867 124.722C335.867 125.46 334.813 129.569 332.706 129.569C331.634 129.569 331.424 128.673 331.424 128.024C331.424 127.146 331.827 125.916 332.302 124.652C332.583 123.932 332.653 123.756 332.653 123.405C332.653 122.667 332.126 122 331.265 122C329.65 122 329 124.546 329 124.687C329 124.757 329.07 124.845 329.193 124.845C329.351 124.845 329.369 124.775 329.439 124.529C329.861 123.019 330.545 122.351 331.213 122.351C331.371 122.351 331.669 122.351 331.669 122.931C331.669 123.387 331.476 123.897 331.213 124.564C330.37 126.812 330.37 127.356 330.37 127.778C330.37 128.164 330.423 128.884 330.967 129.376C331.599 129.92 332.477 129.92 332.635 129.92C335.551 129.92 336.552 124.178 336.552 123.177Z" fill="black"/>
<path d="M341.421 124.804C341.421 124.57 341.421 124.476 341.175 124.476C341.023 124.476 341.011 124.488 340.894 124.652L337.159 130.073V130.459H340.461V131.431C340.461 131.864 340.426 131.993 339.524 131.993H339.255V132.379C340.25 132.344 340.274 132.344 340.941 132.344C341.608 132.344 341.632 132.344 342.627 132.379V131.993H342.358C341.456 131.993 341.421 131.864 341.421 131.431V130.459H342.662V130.073H341.421V124.804ZM340.543 125.752V130.073H337.569L340.543 125.752Z" fill="black"/>
<circle cx="275" cy="144" r="14" fill="white" stroke="black" stroke-width="2"/>
<path d="M275.552 140.177C275.552 139.07 274.99 139 274.849 139C274.428 139 274.041 139.421 274.041 139.773C274.041 139.983 274.164 140.106 274.234 140.177C274.41 140.335 274.867 140.809 274.867 141.722C274.867 142.46 273.813 146.569 271.706 146.569C270.634 146.569 270.424 145.673 270.424 145.024C270.424 144.146 270.827 142.916 271.302 141.652C271.583 140.932 271.653 140.756 271.653 140.405C271.653 139.667 271.126 139 270.265 139C268.65 139 268 141.546 268 141.687C268 141.757 268.07 141.845 268.193 141.845C268.351 141.845 268.369 141.775 268.439 141.529C268.861 140.019 269.545 139.351 270.213 139.351C270.371 139.351 270.669 139.351 270.669 139.931C270.669 140.387 270.476 140.897 270.213 141.564C269.37 143.812 269.37 144.356 269.37 144.778C269.37 145.164 269.423 145.884 269.967 146.376C270.599 146.92 271.477 146.92 271.635 146.92C274.551 146.92 275.552 141.178 275.552 140.177Z" fill="black"/>
<path d="M277.447 142.799C277.599 142.846 278.068 142.963 278.559 142.963C280.023 142.963 280.913 141.933 280.913 141.757C280.913 141.629 280.831 141.593 280.772 141.593C280.749 141.593 280.725 141.593 280.62 141.652C280.163 141.828 279.625 141.968 278.993 141.968C278.302 141.968 277.728 141.792 277.365 141.652C277.248 141.593 277.225 141.593 277.213 141.593C277.061 141.593 277.061 141.722 277.061 141.933V145.363C277.061 145.574 277.061 145.715 277.248 145.715C277.342 145.715 277.377 145.668 277.435 145.574C277.576 145.398 278.021 144.801 279.016 144.801C279.672 144.801 279.988 145.34 280.093 145.562C280.292 145.984 280.316 146.522 280.316 146.979C280.316 147.412 280.304 148.044 279.976 148.56C279.754 148.911 279.285 149.274 278.665 149.274C277.904 149.274 277.154 148.794 276.885 148.033C276.92 148.044 276.991 148.044 277.002 148.044C277.33 148.044 277.588 147.834 277.588 147.471C277.588 147.038 277.248 146.885 277.014 146.885C276.803 146.885 276.429 147.002 276.429 147.506C276.429 148.56 277.342 149.625 278.688 149.625C280.152 149.625 281.393 148.489 281.393 147.038C281.393 145.679 280.409 144.474 279.028 144.474C278.442 144.474 277.892 144.661 277.447 145.059V142.799Z" fill="black"/>
<circle cx="400" cy="147" r="14" fill="white" stroke="black" stroke-width="2"/>
<path d="M400.552 143.177C400.552 142.07 399.99 142 399.849 142C399.428 142 399.041 142.421 399.041 142.773C399.041 142.983 399.164 143.106 399.234 143.177C399.41 143.335 399.867 143.809 399.867 144.722C399.867 145.46 398.813 149.569 396.706 149.569C395.634 149.569 395.424 148.673 395.424 148.024C395.424 147.146 395.827 145.916 396.302 144.652C396.583 143.932 396.653 143.756 396.653 143.405C396.653 142.667 396.126 142 395.265 142C393.65 142 393 144.546 393 144.687C393 144.757 393.07 144.845 393.193 144.845C393.351 144.845 393.369 144.775 393.439 144.529C393.861 143.019 394.545 142.351 395.213 142.351C395.371 142.351 395.669 142.351 395.669 142.931C395.669 143.387 395.476 143.897 395.213 144.564C394.37 146.812 394.37 147.356 394.37 147.778C394.37 148.164 394.423 148.884 394.967 149.376C395.599 149.92 396.477 149.92 396.635 149.92C399.551 149.92 400.552 144.178 400.552 143.177Z" fill="black"/>
<path d="M402.424 148.504C402.424 147.532 402.506 146.677 402.927 145.963C403.278 145.378 403.876 144.898 404.613 144.898C404.847 144.898 405.386 144.933 405.655 145.343C405.128 145.366 405.081 145.764 405.081 145.893C405.081 146.244 405.351 146.443 405.632 146.443C405.842 146.443 406.182 146.314 406.182 145.869C406.182 145.167 405.655 144.593 404.601 144.593C402.974 144.593 401.323 146.139 401.323 148.668C401.323 151.84 402.798 152.625 403.934 152.625C404.496 152.625 405.105 152.473 405.632 151.969C406.1 151.513 406.498 151.021 406.498 150.002C406.498 148.469 405.339 147.391 404.039 147.391C403.197 147.391 402.693 147.93 402.424 148.504ZM403.934 152.274C403.314 152.274 402.927 151.84 402.752 151.513C402.482 150.986 402.459 150.19 402.459 149.745C402.459 148.586 403.091 147.719 403.993 147.719C404.578 147.719 404.929 148.024 405.152 148.434C405.398 148.867 405.398 149.394 405.398 149.991C405.398 150.588 405.398 151.103 405.163 151.524C404.859 152.063 404.449 152.274 403.934 152.274Z" fill="black"/>
<circle cx="318" cy="182" r="14" fill="white" stroke="black" stroke-width="2"/>
<path d="M318.552 178.177C318.552 177.07 317.99 177 317.849 177C317.428 177 317.041 177.421 317.041 177.773C317.041 177.983 317.164 178.106 317.234 178.177C317.41 178.335 317.867 178.809 317.867 179.722C317.867 180.46 316.813 184.569 314.706 184.569C313.634 184.569 313.424 183.673 313.424 183.024C313.424 182.146 313.827 180.916 314.302 179.652C314.583 178.932 314.653 178.756 314.653 178.405C314.653 177.667 314.126 177 313.265 177C311.65 177 311 179.546 311 179.687C311 179.757 311.07 179.845 311.193 179.845C311.351 179.845 311.369 179.775 311.439 179.529C311.861 178.019 312.545 177.351 313.213 177.351C313.371 177.351 313.669 177.351 313.669 177.931C313.669 178.387 313.476 178.897 313.213 179.564C312.37 181.812 312.37 182.356 312.37 182.778C312.37 183.164 312.423 183.884 312.967 184.376C313.599 184.92 314.477 184.92 314.635 184.92C317.551 184.92 318.552 179.178 318.552 178.177Z" fill="black"/>
<path d="M324.732 180.249C324.838 180.12 324.838 180.097 324.838 179.839H321.864C321.571 179.839 321.208 179.827 320.915 179.804C320.307 179.757 320.295 179.652 320.26 179.465H319.897L319.499 181.935H319.862C319.885 181.759 320.014 180.951 320.178 180.858C320.307 180.799 321.185 180.799 321.36 180.799H323.842L322.636 182.415C321.302 184.195 321.021 186.044 321.021 186.969C321.021 187.086 321.021 187.625 321.571 187.625C322.121 187.625 322.121 187.098 322.121 186.958V186.396C322.121 184.71 322.402 183.328 322.976 182.567L324.732 180.249Z" fill="black"/>
<circle cx="371" cy="186" r="14" fill="white" stroke="black" stroke-width="2"/>
<path d="M371.552 182.177C371.552 181.07 370.99 181 370.849 181C370.428 181 370.041 181.421 370.041 181.773C370.041 181.983 370.164 182.106 370.234 182.177C370.41 182.335 370.867 182.809 370.867 183.722C370.867 184.46 369.813 188.569 367.706 188.569C366.634 188.569 366.424 187.673 366.424 187.024C366.424 186.146 366.827 184.916 367.302 183.652C367.583 182.932 367.653 182.756 367.653 182.405C367.653 181.667 367.126 181 366.265 181C364.65 181 364 183.546 364 183.687C364 183.757 364.07 183.845 364.193 183.845C364.351 183.845 364.369 183.775 364.439 183.529C364.861 182.019 365.545 181.351 366.213 181.351C366.371 181.351 366.669 181.351 366.669 181.931C366.669 182.387 366.476 182.897 366.213 183.564C365.37 185.812 365.37 186.356 365.37 186.778C365.37 187.164 365.423 187.884 365.967 188.376C366.599 188.92 367.477 188.92 367.635 188.92C370.551 188.92 371.552 183.178 371.552 182.177Z" fill="black"/>
<path d="M375.695 187.153C376.351 186.836 377.147 186.251 377.147 185.338C377.147 184.226 376.011 183.593 374.922 183.593C373.681 183.593 372.674 184.448 372.674 185.549C372.674 185.982 372.827 186.38 373.119 186.719C373.318 186.965 373.365 186.989 374.091 187.445C372.639 188.089 372.323 188.944 372.323 189.599C372.323 190.887 373.623 191.625 374.899 191.625C376.339 191.625 377.498 190.653 377.498 189.412C377.498 188.675 377.1 188.183 376.913 187.984C376.714 187.796 376.702 187.785 375.695 187.153ZM373.88 186.052C373.541 185.853 373.26 185.513 373.26 185.104C373.26 184.366 374.068 183.898 374.899 183.898C375.812 183.898 376.561 184.518 376.561 185.338C376.561 186.017 376.035 186.591 375.344 186.93L373.88 186.052ZM374.454 187.656C374.501 187.679 375.836 188.499 376.035 188.628C376.222 188.733 376.831 189.108 376.831 189.81C376.831 190.712 375.882 191.274 374.922 191.274C373.88 191.274 372.991 190.56 372.991 189.599C372.991 188.721 373.646 188.031 374.454 187.656Z" fill="black"/>
<path d="M242 125L232 119.226V130.774L242 125ZM187 126H233V124H187V126Z" fill="black"/>
<path d="M171.726 14V3.33594H174.736C175.664 3.33594 176.484 3.54102 177.197 3.95117C177.91 4.36133 178.459 4.94482 178.845 5.70166C179.235 6.4585 179.433 7.32764 179.438 8.30908V8.99023C179.438 9.99609 179.243 10.8774 178.852 11.6343C178.466 12.3911 177.912 12.9722 177.189 13.3774C176.472 13.7827 175.634 13.9902 174.677 14H171.726ZM173.132 4.49316V12.8501H174.611C175.695 12.8501 176.538 12.5132 177.138 11.8394C177.744 11.1655 178.046 10.2061 178.046 8.96094V8.33838C178.046 7.12744 177.761 6.1875 177.189 5.51855C176.623 4.84473 175.817 4.50293 174.772 4.49316H173.132ZM184.646 14.1465C183.571 14.1465 182.697 13.7949 182.023 13.0918C181.35 12.3838 181.013 11.439 181.013 10.2573V10.0083C181.013 9.22217 181.162 8.52148 181.459 7.90625C181.762 7.28613 182.182 6.80273 182.719 6.45605C183.261 6.10449 183.847 5.92871 184.477 5.92871C185.507 5.92871 186.308 6.26807 186.879 6.94678C187.451 7.62549 187.736 8.59717 187.736 9.86182V10.4258H182.368C182.387 11.207 182.614 11.8394 183.049 12.3228C183.488 12.8013 184.045 13.0405 184.719 13.0405C185.197 13.0405 185.603 12.9429 185.935 12.7476C186.267 12.5522 186.557 12.2935 186.806 11.9712L187.634 12.6157C186.97 13.6362 185.974 14.1465 184.646 14.1465ZM184.477 7.04199C183.93 7.04199 183.471 7.24219 183.1 7.64258C182.729 8.03809 182.5 8.59473 182.412 9.3125H186.381V9.20996C186.342 8.52148 186.157 7.98926 185.825 7.61328C185.493 7.23242 185.043 7.04199 184.477 7.04199ZM192.49 13.0405C192.973 13.0405 193.396 12.894 193.757 12.6011C194.118 12.3081 194.318 11.9419 194.357 11.5024H195.639C195.615 11.9565 195.458 12.3887 195.17 12.7988C194.882 13.209 194.497 13.5361 194.013 13.7803C193.535 14.0244 193.027 14.1465 192.49 14.1465C191.411 14.1465 190.551 13.7876 189.912 13.0698C189.277 12.3472 188.959 11.3608 188.959 10.1108V9.88379C188.959 9.1123 189.101 8.42627 189.384 7.82568C189.667 7.2251 190.073 6.75879 190.6 6.42676C191.132 6.09473 191.76 5.92871 192.482 5.92871C193.371 5.92871 194.108 6.19482 194.694 6.72705C195.285 7.25928 195.6 7.9502 195.639 8.7998H194.357C194.318 8.28711 194.123 7.86719 193.771 7.54004C193.425 7.20801 192.995 7.04199 192.482 7.04199C191.794 7.04199 191.259 7.29102 190.878 7.78906C190.502 8.28223 190.314 8.99756 190.314 9.93506V10.1914C190.314 11.1045 190.502 11.8076 190.878 12.3008C191.254 12.7939 191.792 13.0405 192.49 13.0405ZM196.804 9.96436C196.804 9.18799 196.955 8.48975 197.258 7.86963C197.565 7.24951 197.99 6.771 198.532 6.43408C199.079 6.09717 199.702 5.92871 200.4 5.92871C201.479 5.92871 202.351 6.30225 203.015 7.04932C203.684 7.79639 204.018 8.79004 204.018 10.0303V10.1255C204.018 10.897 203.869 11.5903 203.571 12.2056C203.278 12.8159 202.856 13.292 202.304 13.6338C201.757 13.9756 201.127 14.1465 200.415 14.1465C199.34 14.1465 198.469 13.7729 197.8 13.0259C197.136 12.2788 196.804 11.29 196.804 10.0596V9.96436ZM198.166 10.1255C198.166 11.0044 198.369 11.71 198.774 12.2422C199.184 12.7744 199.731 13.0405 200.415 13.0405C201.103 13.0405 201.65 12.772 202.055 12.2349C202.46 11.6929 202.663 10.936 202.663 9.96436C202.663 9.09521 202.456 8.39209 202.041 7.85498C201.63 7.31299 201.083 7.04199 200.4 7.04199C199.731 7.04199 199.191 7.30811 198.781 7.84033C198.371 8.37256 198.166 9.13428 198.166 10.1255ZM206.992 6.0752L207.028 6.9541C207.609 6.27051 208.393 5.92871 209.379 5.92871C210.488 5.92871 211.242 6.35352 211.643 7.20312C211.906 6.82227 212.248 6.51465 212.668 6.28027C213.093 6.0459 213.593 5.92871 214.169 5.92871C215.908 5.92871 216.792 6.84912 216.821 8.68994V14H215.466V8.77051C215.466 8.2041 215.336 7.78174 215.078 7.50342C214.819 7.22021 214.384 7.07861 213.774 7.07861C213.271 7.07861 212.854 7.22998 212.521 7.53271C212.189 7.83057 211.997 8.2334 211.943 8.74121V14H210.581V8.80713C210.581 7.65479 210.017 7.07861 208.889 7.07861C208 7.07861 207.392 7.45703 207.065 8.21387V14H205.71V6.0752H206.992ZM225.566 10.1255C225.566 11.3315 225.29 12.3032 224.738 13.0405C224.187 13.7778 223.439 14.1465 222.497 14.1465C221.535 14.1465 220.778 13.8413 220.227 13.231V17.0469H218.872V6.0752H220.109L220.175 6.9541C220.727 6.27051 221.494 5.92871 222.475 5.92871C223.427 5.92871 224.179 6.2876 224.731 7.00537C225.288 7.72314 225.566 8.72168 225.566 10.001V10.1255ZM224.211 9.97168C224.211 9.07812 224.021 8.37256 223.64 7.85498C223.259 7.3374 222.736 7.07861 222.072 7.07861C221.252 7.07861 220.637 7.44238 220.227 8.16992V11.9565C220.632 12.6792 221.252 13.0405 222.087 13.0405C222.736 13.0405 223.251 12.7842 223.632 12.2715C224.018 11.7539 224.211 10.9873 224.211 9.97168ZM226.936 9.96436C226.936 9.18799 227.087 8.48975 227.39 7.86963C227.697 7.24951 228.122 6.771 228.664 6.43408C229.211 6.09717 229.833 5.92871 230.532 5.92871C231.611 5.92871 232.482 6.30225 233.146 7.04932C233.815 7.79639 234.15 8.79004 234.15 10.0303V10.1255C234.15 10.897 234.001 11.5903 233.703 12.2056C233.41 12.8159 232.988 13.292 232.436 13.6338C231.889 13.9756 231.259 14.1465 230.546 14.1465C229.472 14.1465 228.601 13.7729 227.932 13.0259C227.268 12.2788 226.936 11.29 226.936 10.0596V9.96436ZM228.298 10.1255C228.298 11.0044 228.5 11.71 228.906 12.2422C229.316 12.7744 229.863 13.0405 230.546 13.0405C231.235 13.0405 231.782 12.772 232.187 12.2349C232.592 11.6929 232.795 10.936 232.795 9.96436C232.795 9.09521 232.587 8.39209 232.172 7.85498C231.762 7.31299 231.215 7.04199 230.532 7.04199C229.863 7.04199 229.323 7.30811 228.913 7.84033C228.503 8.37256 228.298 9.13428 228.298 10.1255ZM240.463 11.8979C240.463 11.5317 240.324 11.2485 240.046 11.0483C239.772 10.8433 239.292 10.6675 238.603 10.521C237.919 10.3745 237.375 10.1987 236.97 9.99365C236.569 9.78857 236.271 9.54443 236.076 9.26123C235.886 8.97803 235.791 8.64111 235.791 8.25049C235.791 7.60107 236.064 7.05176 236.611 6.60254C237.163 6.15332 237.866 5.92871 238.72 5.92871C239.619 5.92871 240.346 6.16064 240.903 6.62451C241.464 7.08838 241.745 7.68164 241.745 8.4043H240.383C240.383 8.0332 240.224 7.71338 239.907 7.44482C239.594 7.17627 239.199 7.04199 238.72 7.04199C238.227 7.04199 237.841 7.14941 237.563 7.36426C237.285 7.5791 237.146 7.85986 237.146 8.20654C237.146 8.53369 237.275 8.78027 237.534 8.94629C237.792 9.1123 238.259 9.271 238.933 9.42236C239.611 9.57373 240.161 9.75439 240.581 9.96436C241 10.1743 241.311 10.4282 241.511 10.7261C241.716 11.019 241.818 11.3779 241.818 11.8027C241.818 12.5107 241.535 13.0796 240.969 13.5093C240.402 13.9341 239.667 14.1465 238.764 14.1465C238.129 14.1465 237.568 14.0342 237.08 13.8096C236.591 13.585 236.208 13.2725 235.93 12.8721C235.656 12.4668 235.52 12.0298 235.52 11.561H236.875C236.899 12.0151 237.08 12.3765 237.417 12.645C237.758 12.9087 238.208 13.0405 238.764 13.0405C239.277 13.0405 239.687 12.938 239.995 12.7329C240.307 12.5229 240.463 12.2446 240.463 11.8979ZM246.872 14.1465C245.798 14.1465 244.924 13.7949 244.25 13.0918C243.576 12.3838 243.239 11.439 243.239 10.2573V10.0083C243.239 9.22217 243.388 8.52148 243.686 7.90625C243.989 7.28613 244.409 6.80273 244.946 6.45605C245.488 6.10449 246.074 5.92871 246.704 5.92871C247.734 5.92871 248.535 6.26807 249.106 6.94678C249.677 7.62549 249.963 8.59717 249.963 9.86182V10.4258H244.594C244.614 11.207 244.841 11.8394 245.275 12.3228C245.715 12.8013 246.271 13.0405 246.945 13.0405C247.424 13.0405 247.829 12.9429 248.161 12.7476C248.493 12.5522 248.784 12.2935 249.033 11.9712L249.86 12.6157C249.196 13.6362 248.2 14.1465 246.872 14.1465ZM246.704 7.04199C246.157 7.04199 245.698 7.24219 245.327 7.64258C244.956 8.03809 244.726 8.59473 244.638 9.3125H248.608V9.20996C248.569 8.52148 248.383 7.98926 248.051 7.61328C247.719 7.23242 247.27 7.04199 246.704 7.04199Z" fill="black"/>
<path d="M213.779 105.421C213.779 105.404 213.849 105.176 213.849 105.158C213.849 105 213.709 105 213.656 105C213.498 105 213.481 105.088 213.41 105.351L210.513 116.976C209.055 116.8 208.511 116.063 208.511 115.009C208.511 114.623 208.511 114.219 209.336 112.042C209.565 111.409 209.652 111.181 209.652 110.865C209.652 110.075 209.091 109.443 208.265 109.443C206.65 109.443 206 111.989 206 112.129C206 112.2 206.07 112.287 206.193 112.287C206.351 112.287 206.369 112.217 206.439 111.971C206.86 110.444 207.563 109.794 208.213 109.794C208.371 109.794 208.669 109.811 208.669 110.373C208.669 110.444 208.669 110.83 208.371 111.603C207.422 114.096 207.422 114.482 207.422 114.886C207.422 116.572 208.827 117.222 210.408 117.345C210.267 117.889 210.144 118.451 210.004 118.995C209.723 120.049 209.6 120.541 209.6 120.611C209.6 120.769 209.74 120.769 209.793 120.769C209.828 120.769 209.898 120.769 209.933 120.699C210.004 120.628 210.724 117.678 210.794 117.362C211.444 117.362 212.831 117.362 214.411 115.729C214.991 115.097 215.517 114.289 215.816 113.534C215.992 113.078 216.413 111.515 216.413 110.619C216.413 109.566 215.886 109.443 215.711 109.443C215.289 109.443 214.903 109.864 214.903 110.215C214.903 110.426 215.026 110.549 215.096 110.619C215.254 110.777 215.728 111.251 215.728 112.164C215.728 112.797 215.377 114.096 214.253 115.36C212.778 117.011 211.426 117.011 210.899 117.011L213.779 105.421Z" fill="black"/>
<path d="M469.472 9.0708H464.851V12.8501H470.219V14H463.444V3.33594H470.146V4.49316H464.851V7.9209H469.472V9.0708ZM474.182 12.1616L476.145 6.0752H477.529L474.687 14H473.654L470.783 6.0752H472.167L474.182 12.1616ZM483.608 14C483.53 13.8438 483.466 13.5654 483.417 13.165C482.788 13.8193 482.036 14.1465 481.162 14.1465C480.38 14.1465 479.738 13.9268 479.235 13.4873C478.737 13.043 478.488 12.4814 478.488 11.8027C478.488 10.9775 478.801 10.3379 479.426 9.88379C480.056 9.4248 480.939 9.19531 482.077 9.19531H483.396V8.57275C483.396 8.09912 483.254 7.72314 482.971 7.44482C482.688 7.16162 482.27 7.02002 481.718 7.02002C481.235 7.02002 480.83 7.14209 480.502 7.38623C480.175 7.63037 480.012 7.92578 480.012 8.27246H478.649C478.649 7.87695 478.789 7.49609 479.067 7.12988C479.35 6.75879 479.731 6.46582 480.209 6.25098C480.693 6.03613 481.223 5.92871 481.799 5.92871C482.712 5.92871 483.427 6.1582 483.945 6.61719C484.462 7.07129 484.731 7.69873 484.75 8.49951V12.147C484.75 12.8745 484.843 13.4531 485.029 13.8828V14H483.608ZM481.359 12.9673C481.784 12.9673 482.187 12.8574 482.568 12.6377C482.949 12.418 483.225 12.1323 483.396 11.7808V10.1548H482.333C480.673 10.1548 479.843 10.6406 479.843 11.6123C479.843 12.0371 479.985 12.3691 480.268 12.6084C480.551 12.8477 480.915 12.9673 481.359 12.9673ZM488.347 14H486.992V2.75H488.347V14ZM495.415 13.2163C494.887 13.8364 494.113 14.1465 493.093 14.1465C492.248 14.1465 491.604 13.9023 491.159 13.4141C490.72 12.9209 490.498 12.1934 490.493 11.2314V6.0752H491.848V11.1948C491.848 12.396 492.336 12.9966 493.312 12.9966C494.348 12.9966 495.036 12.6108 495.378 11.8394V6.0752H496.733V14H495.444L495.415 13.2163ZM503.691 14C503.613 13.8438 503.549 13.5654 503.5 13.165C502.871 13.8193 502.119 14.1465 501.245 14.1465C500.463 14.1465 499.821 13.9268 499.318 13.4873C498.82 13.043 498.571 12.4814 498.571 11.8027C498.571 10.9775 498.884 10.3379 499.509 9.88379C500.139 9.4248 501.022 9.19531 502.16 9.19531H503.479V8.57275C503.479 8.09912 503.337 7.72314 503.054 7.44482C502.771 7.16162 502.353 7.02002 501.801 7.02002C501.318 7.02002 500.913 7.14209 500.585 7.38623C500.258 7.63037 500.095 7.92578 500.095 8.27246H498.732C498.732 7.87695 498.872 7.49609 499.15 7.12988C499.433 6.75879 499.814 6.46582 500.292 6.25098C500.776 6.03613 501.306 5.92871 501.882 5.92871C502.795 5.92871 503.51 6.1582 504.028 6.61719C504.545 7.07129 504.814 7.69873 504.833 8.49951V12.147C504.833 12.8745 504.926 13.4531 505.112 13.8828V14H503.691ZM501.442 12.9673C501.867 12.9673 502.27 12.8574 502.651 12.6377C503.032 12.418 503.308 12.1323 503.479 11.7808V10.1548H502.417C500.756 10.1548 499.926 10.6406 499.926 11.6123C499.926 12.0371 500.068 12.3691 500.351 12.6084C500.634 12.8477 500.998 12.9673 501.442 12.9673ZM508.796 4.15625V6.0752H510.275V7.12256H508.796V12.0371C508.796 12.3545 508.862 12.5938 508.994 12.7549C509.125 12.9111 509.35 12.9893 509.667 12.9893C509.824 12.9893 510.039 12.96 510.312 12.9014V14C509.956 14.0977 509.609 14.1465 509.272 14.1465C508.667 14.1465 508.21 13.9634 507.902 13.5972C507.595 13.231 507.441 12.7109 507.441 12.0371V7.12256H505.998V6.0752H507.441V4.15625H508.796ZM515.153 14.1465C514.079 14.1465 513.205 13.7949 512.531 13.0918C511.857 12.3838 511.521 11.439 511.521 10.2573V10.0083C511.521 9.22217 511.669 8.52148 511.967 7.90625C512.27 7.28613 512.69 6.80273 513.227 6.45605C513.769 6.10449 514.355 5.92871 514.985 5.92871C516.015 5.92871 516.816 6.26807 517.387 6.94678C517.958 7.62549 518.244 8.59717 518.244 9.86182V10.4258H512.875C512.895 11.207 513.122 11.8394 513.557 12.3228C513.996 12.8013 514.553 13.0405 515.227 13.0405C515.705 13.0405 516.11 12.9429 516.442 12.7476C516.774 12.5522 517.065 12.2935 517.314 11.9712L518.142 12.6157C517.478 13.6362 516.481 14.1465 515.153 14.1465ZM514.985 7.04199C514.438 7.04199 513.979 7.24219 513.608 7.64258C513.237 8.03809 513.007 8.59473 512.919 9.3125H516.889V9.20996C516.85 8.52148 516.665 7.98926 516.333 7.61328C516 7.23242 515.551 7.04199 514.985 7.04199Z" fill="black"/>
<path d="M549 125L539 119.226V130.774L549 125ZM430 126H540V124H430V126Z" fill="black"/>
<path d="M491.94 109.306C492.291 109.306 492.432 109.306 492.432 108.972C492.432 108.797 492.291 108.797 491.975 108.797H490.552C490.886 106.987 491.132 105.739 491.272 105.177C491.378 104.755 491.747 104.351 492.204 104.351C492.573 104.351 492.942 104.51 493.117 104.668C492.432 104.738 492.221 105.247 492.221 105.546C492.221 105.898 492.485 106.108 492.819 106.108C493.17 106.108 493.697 105.81 493.697 105.142C493.697 104.404 492.959 104 492.186 104C491.431 104 490.693 104.562 490.341 105.247C490.025 105.862 489.849 106.495 489.445 108.797H488.268C487.934 108.797 487.758 108.797 487.758 109.113C487.758 109.306 487.864 109.306 488.215 109.306H489.34C489.023 110.94 488.303 114.911 487.899 116.791C487.6 118.319 487.337 119.602 486.458 119.602C486.406 119.602 485.896 119.602 485.58 119.268C486.476 119.198 486.476 118.425 486.476 118.407C486.476 118.056 486.212 117.845 485.878 117.845C485.527 117.845 485 118.144 485 118.811C485 119.567 485.773 119.953 486.458 119.953C488.25 119.953 488.988 116.738 489.182 115.86C489.498 114.507 490.359 109.833 490.447 109.306H491.94Z" fill="black"/>
<path d="M690 125L680 119.226V130.774L690 125ZM615 126H681V124H615V126Z" fill="black"/>
<path d="M652.979 116.786C653.067 117.893 653.278 118.701 653.366 119.035C653.559 119.826 653.647 120.212 654.403 120.212C655.193 120.212 656.546 119.422 656.546 119.07C656.546 118.982 656.476 118.947 656.388 118.947C656.159 118.947 655.791 119.14 655.738 119.176C655.615 119.246 655.58 119.246 655.545 119.246C655.053 119.246 654.947 118.771 654.736 117.717C654.613 117.138 654.455 116.435 654.315 114.028C654.192 112.236 654.121 110.444 654.121 108.652C654.121 108.23 654.139 107.773 654.139 107.351C654.139 107.07 654.139 107 653.946 107C653.7 107 652.979 107.299 652.663 107.773L652.54 107.966C651.152 110.936 649.852 113.061 648.938 114.485C647.902 116.083 646.075 118.947 645.126 118.947C644.476 118.947 643.931 118.526 643.773 117.893C643.755 117.858 643.72 117.752 643.65 117.752C643.387 117.752 643 118.596 643 119.088C643 119.791 643.755 120.564 644.581 120.564C645.794 120.564 647.814 117.401 648.201 116.786H652.979ZM652.628 109.161V110.18C652.628 111.199 652.663 112.218 652.716 113.237C652.733 113.589 652.804 114.906 652.892 115.82H649.676C649.395 115.82 649.132 115.82 648.675 116.101C649.905 114.203 650.924 112.376 651.029 112.183C651.908 110.619 652.382 109.6 652.61 109.161H652.628Z" fill="black"/>
<path d="M701.145 130.962C700.671 131.63 699.986 132.227 699.125 132.227C698.914 132.227 698.071 132.192 697.808 131.384C697.861 131.401 697.948 131.401 697.983 131.401C698.51 131.401 698.862 130.945 698.862 130.541C698.862 130.137 698.528 129.996 698.264 129.996C697.983 129.996 697.369 130.207 697.369 131.068C697.369 131.963 698.124 132.578 699.125 132.578C700.881 132.578 702.655 130.962 703.147 129.013L704.868 122.163C704.886 122.076 704.921 121.97 704.921 121.865C704.921 121.601 704.71 121.426 704.446 121.426C704.288 121.426 703.92 121.496 703.779 122.023L702.479 127.186C702.392 127.502 702.392 127.537 702.251 127.731C701.9 128.222 701.32 128.82 700.477 128.82C699.494 128.82 699.406 127.854 699.406 127.379C699.406 126.378 699.88 125.026 700.354 123.762C700.548 123.252 700.653 123.006 700.653 122.655C700.653 121.918 700.126 121.25 699.266 121.25C697.65 121.25 697 123.797 697 123.937C697 124.007 697.07 124.095 697.193 124.095C697.351 124.095 697.369 124.025 697.439 123.779C697.861 122.304 698.528 121.601 699.213 121.601C699.371 121.601 699.67 121.601 699.67 122.181C699.67 122.638 699.476 123.147 699.213 123.814C698.352 126.115 698.352 126.694 698.352 127.116C698.352 128.784 699.547 129.171 700.425 129.171C700.934 129.171 701.566 129.013 702.181 128.363L702.198 128.38C701.935 129.417 701.759 130.102 701.145 130.962Z" fill="black"/>
<path d="M720.012 124.956C720.31 124.956 720.627 124.956 720.627 124.605C720.627 124.253 720.31 124.253 720.012 124.253H712.565C712.776 121.9 714.796 120.214 717.272 120.214H720.012C720.31 120.214 720.627 120.214 720.627 119.863C720.627 119.511 720.31 119.511 720.012 119.511H717.237C714.234 119.511 711.845 121.795 711.845 124.605C711.845 127.415 714.234 129.698 717.237 129.698H720.012C720.31 129.698 720.627 129.698 720.627 129.346C720.627 128.995 720.31 128.995 720.012 128.995H717.272C714.796 128.995 712.776 127.309 712.565 124.956H720.012Z" fill="black"/>
<path d="M734.096 127.292C734.149 126.624 734.166 125.676 734.166 125.184C734.166 123.34 734.079 117 730.408 117C729.196 117 728.125 118.071 728.125 118.335C728.125 118.475 728.265 118.475 728.301 118.475C728.406 118.475 728.95 118.387 729.337 117.878C730.882 117.896 731.883 119.037 732.41 121.25C732.744 122.655 732.867 124.218 732.867 125.816C732.867 126.87 732.797 128.082 732.779 128.31C732.761 128.451 732.761 128.486 732.726 128.503C732.691 128.539 730.935 130.014 730.074 130.014C729.934 130.014 728.511 130.014 728.178 128.556C728.142 128.433 728.125 128.328 728.02 128.328C727.809 128.328 727.475 128.925 727.475 129.364C727.475 130.084 728.142 131.366 729.635 131.366C730.97 131.366 733.868 128.784 735.396 127.011C738.908 122.971 739.523 119.95 739.523 119.037C739.523 117.544 738.522 117 737.855 117C737.345 117 737.187 117.878 737.187 118.054C737.187 118.317 737.257 118.335 737.521 118.37C738.557 118.493 738.82 119.318 738.82 119.828C738.82 120.372 737.995 123.498 734.096 127.292Z" fill="black"/>
<path d="M621.144 11.2168H616.676L615.673 14H614.223L618.295 3.33594H619.525L623.605 14H622.162L621.144 11.2168ZM617.101 10.0596H620.727L618.91 5.07178L617.101 10.0596ZM624.506 9.97168C624.506 8.73633 624.792 7.75488 625.363 7.02734C625.934 6.29492 626.691 5.92871 627.633 5.92871C628.6 5.92871 629.354 6.27051 629.896 6.9541L629.962 6.0752H631.2V13.8096C631.2 14.835 630.895 15.6431 630.285 16.2339C629.679 16.8247 628.864 17.1201 627.838 17.1201C627.267 17.1201 626.708 16.998 626.161 16.7539C625.614 16.5098 625.197 16.1753 624.909 15.7505L625.612 14.9375C626.193 15.6553 626.903 16.0142 627.743 16.0142C628.402 16.0142 628.915 15.8286 629.281 15.4575C629.652 15.0864 629.838 14.564 629.838 13.8901V13.209C629.296 13.834 628.556 14.1465 627.619 14.1465C626.691 14.1465 625.939 13.7729 625.363 13.0259C624.792 12.2788 624.506 11.2607 624.506 9.97168ZM625.868 10.1255C625.868 11.019 626.051 11.7222 626.417 12.2349C626.784 12.7427 627.296 12.9966 627.956 12.9966C628.81 12.9966 629.438 12.6084 629.838 11.832V8.21387C629.423 7.45703 628.8 7.07861 627.97 7.07861C627.311 7.07861 626.796 7.33496 626.425 7.84766C626.054 8.36035 625.868 9.11963 625.868 10.1255ZM632.929 9.97168C632.929 8.73633 633.214 7.75488 633.786 7.02734C634.357 6.29492 635.114 5.92871 636.056 5.92871C637.023 5.92871 637.777 6.27051 638.319 6.9541L638.385 6.0752H639.623V13.8096C639.623 14.835 639.318 15.6431 638.708 16.2339C638.102 16.8247 637.287 17.1201 636.261 17.1201C635.69 17.1201 635.131 16.998 634.584 16.7539C634.037 16.5098 633.62 16.1753 633.332 15.7505L634.035 14.9375C634.616 15.6553 635.326 16.0142 636.166 16.0142C636.825 16.0142 637.338 15.8286 637.704 15.4575C638.075 15.0864 638.261 14.564 638.261 13.8901V13.209C637.719 13.834 636.979 14.1465 636.042 14.1465C635.114 14.1465 634.362 13.7729 633.786 13.0259C633.214 12.2788 632.929 11.2607 632.929 9.97168ZM634.291 10.1255C634.291 11.019 634.474 11.7222 634.84 12.2349C635.207 12.7427 635.719 12.9966 636.378 12.9966C637.233 12.9966 637.86 12.6084 638.261 11.832V8.21387C637.846 7.45703 637.223 7.07861 636.393 7.07861C635.734 7.07861 635.219 7.33496 634.848 7.84766C634.477 8.36035 634.291 9.11963 634.291 10.1255ZM645.504 7.29102C645.299 7.25684 645.077 7.23975 644.838 7.23975C643.949 7.23975 643.346 7.61816 643.029 8.375V14H641.674V6.0752H642.992L643.014 6.99072C643.458 6.28271 644.088 5.92871 644.904 5.92871C645.167 5.92871 645.368 5.96289 645.504 6.03125V7.29102ZM649.899 14.1465C648.825 14.1465 647.951 13.7949 647.277 13.0918C646.603 12.3838 646.266 11.439 646.266 10.2573V10.0083C646.266 9.22217 646.415 8.52148 646.713 7.90625C647.016 7.28613 647.436 6.80273 647.973 6.45605C648.515 6.10449 649.101 5.92871 649.73 5.92871C650.761 5.92871 651.562 6.26807 652.133 6.94678C652.704 7.62549 652.99 8.59717 652.99 9.86182V10.4258H647.621C647.641 11.207 647.868 11.8394 648.302 12.3228C648.742 12.8013 649.298 13.0405 649.972 13.0405C650.451 13.0405 650.856 12.9429 651.188 12.7476C651.52 12.5522 651.811 12.2935 652.06 11.9712L652.887 12.6157C652.223 13.6362 651.227 14.1465 649.899 14.1465ZM649.73 7.04199C649.184 7.04199 648.725 7.24219 648.354 7.64258C647.982 8.03809 647.753 8.59473 647.665 9.3125H651.635V9.20996C651.596 8.52148 651.41 7.98926 651.078 7.61328C650.746 7.23242 650.297 7.04199 649.73 7.04199ZM654.242 9.97168C654.242 8.73633 654.528 7.75488 655.099 7.02734C655.67 6.29492 656.427 5.92871 657.37 5.92871C658.336 5.92871 659.091 6.27051 659.633 6.9541L659.699 6.0752H660.937V13.8096C660.937 14.835 660.631 15.6431 660.021 16.2339C659.416 16.8247 658.6 17.1201 657.575 17.1201C657.003 17.1201 656.444 16.998 655.897 16.7539C655.351 16.5098 654.933 16.1753 654.645 15.7505L655.348 14.9375C655.929 15.6553 656.64 16.0142 657.479 16.0142C658.139 16.0142 658.651 15.8286 659.018 15.4575C659.389 15.0864 659.574 14.564 659.574 13.8901V13.209C659.032 13.834 658.292 14.1465 657.355 14.1465C656.427 14.1465 655.675 13.7729 655.099 13.0259C654.528 12.2788 654.242 11.2607 654.242 9.97168ZM655.604 10.1255C655.604 11.019 655.788 11.7222 656.154 12.2349C656.52 12.7427 657.033 12.9966 657.692 12.9966C658.546 12.9966 659.174 12.6084 659.574 11.832V8.21387C659.159 7.45703 658.537 7.07861 657.707 7.07861C657.047 7.07861 656.532 7.33496 656.161 7.84766C655.79 8.36035 655.604 9.11963 655.604 10.1255ZM667.88 14C667.802 13.8438 667.738 13.5654 667.689 13.165C667.06 13.8193 666.308 14.1465 665.434 14.1465C664.652 14.1465 664.01 13.9268 663.507 13.4873C663.009 13.043 662.76 12.4814 662.76 11.8027C662.76 10.9775 663.073 10.3379 663.698 9.88379C664.328 9.4248 665.211 9.19531 666.349 9.19531H667.667V8.57275C667.667 8.09912 667.526 7.72314 667.243 7.44482C666.959 7.16162 666.542 7.02002 665.99 7.02002C665.507 7.02002 665.102 7.14209 664.774 7.38623C664.447 7.63037 664.284 7.92578 664.284 8.27246H662.921C662.921 7.87695 663.061 7.49609 663.339 7.12988C663.622 6.75879 664.003 6.46582 664.481 6.25098C664.965 6.03613 665.495 5.92871 666.071 5.92871C666.984 5.92871 667.699 6.1582 668.217 6.61719C668.734 7.07129 669.003 7.69873 669.022 8.49951V12.147C669.022 12.8745 669.115 13.4531 669.301 13.8828V14H667.88ZM665.631 12.9673C666.056 12.9673 666.459 12.8574 666.84 12.6377C667.221 12.418 667.497 12.1323 667.667 11.7808V10.1548H666.605C664.945 10.1548 664.115 10.6406 664.115 11.6123C664.115 12.0371 664.257 12.3691 664.54 12.6084C664.823 12.8477 665.187 12.9673 665.631 12.9673ZM672.985 4.15625V6.0752H674.464V7.12256H672.985V12.0371C672.985 12.3545 673.051 12.5938 673.183 12.7549C673.314 12.9111 673.539 12.9893 673.856 12.9893C674.013 12.9893 674.228 12.96 674.501 12.9014V14C674.145 14.0977 673.798 14.1465 673.461 14.1465C672.855 14.1465 672.399 13.9634 672.091 13.5972C671.784 13.231 671.63 12.7109 671.63 12.0371V7.12256H670.187V6.0752H671.63V4.15625H672.985ZM679.342 14.1465C678.268 14.1465 677.394 13.7949 676.72 13.0918C676.046 12.3838 675.709 11.439 675.709 10.2573V10.0083C675.709 9.22217 675.858 8.52148 676.156 7.90625C676.459 7.28613 676.879 6.80273 677.416 6.45605C677.958 6.10449 678.544 5.92871 679.174 5.92871C680.204 5.92871 681.005 6.26807 681.576 6.94678C682.147 7.62549 682.433 8.59717 682.433 9.86182V10.4258H677.064C677.084 11.207 677.311 11.8394 677.746 12.3228C678.185 12.8013 678.742 13.0405 679.416 13.0405C679.894 13.0405 680.299 12.9429 680.631 12.7476C680.963 12.5522 681.254 12.2935 681.503 11.9712L682.331 12.6157C681.667 13.6362 680.67 14.1465 679.342 14.1465ZM679.174 7.04199C678.627 7.04199 678.168 7.24219 677.797 7.64258C677.426 8.03809 677.196 8.59473 677.108 9.3125H681.078V9.20996C681.039 8.52148 680.854 7.98926 680.521 7.61328C680.189 7.23242 679.74 7.04199 679.174 7.04199Z" fill="black"/>
<path d="M565.987 133.439C565.987 133.386 565.987 133.351 565.688 133.052C563.932 131.279 562.948 128.381 562.948 124.798C562.948 121.391 563.774 118.459 565.811 116.386C565.987 116.228 565.987 116.193 565.987 116.141C565.987 116.035 565.899 116 565.828 116C565.6 116 564.16 117.264 563.3 118.986C562.404 120.759 562 122.638 562 124.798C562 126.361 562.246 128.451 563.159 130.33C564.195 132.438 565.635 133.579 565.828 133.579C565.899 133.579 565.987 133.544 565.987 133.439Z" fill="black"/>
<path d="M573.56 131.138C573.086 131.806 572.401 132.403 571.54 132.403C571.33 132.403 570.487 132.368 570.223 131.56C570.276 131.577 570.364 131.577 570.399 131.577C570.926 131.577 571.277 131.121 571.277 130.717C571.277 130.313 570.943 130.172 570.68 130.172C570.399 130.172 569.784 130.383 569.784 131.244C569.784 132.139 570.539 132.754 571.54 132.754C573.296 132.754 575.07 131.138 575.562 129.189L577.283 122.34C577.301 122.252 577.336 122.147 577.336 122.041C577.336 121.778 577.125 121.602 576.861 121.602C576.703 121.602 576.335 121.672 576.194 122.199L574.895 127.362C574.807 127.679 574.807 127.714 574.666 127.907C574.315 128.399 573.735 128.996 572.893 128.996C571.909 128.996 571.821 128.03 571.821 127.556C571.821 126.555 572.295 125.202 572.77 123.938C572.963 123.429 573.068 123.183 573.068 122.832C573.068 122.094 572.541 121.427 571.681 121.427C570.065 121.427 569.415 123.973 569.415 124.114C569.415 124.184 569.486 124.272 569.608 124.272C569.767 124.272 569.784 124.201 569.854 123.955C570.276 122.48 570.943 121.778 571.628 121.778C571.786 121.778 572.085 121.778 572.085 122.357C572.085 122.814 571.891 123.323 571.628 123.991C570.768 126.291 570.768 126.871 570.768 127.292C570.768 128.961 571.962 129.347 572.84 129.347C573.349 129.347 573.981 129.189 574.596 128.539L574.614 128.557C574.35 129.593 574.175 130.278 573.56 131.138Z" fill="black"/>
<path d="M582.67 129.242C582.67 128.223 582.337 127.468 581.617 127.468C581.055 127.468 580.774 127.924 580.774 128.311C580.774 128.697 581.037 129.171 581.634 129.171C581.863 129.171 582.056 129.101 582.214 128.943C582.249 128.908 582.266 128.908 582.284 128.908C582.319 128.908 582.319 129.154 582.319 129.242C582.319 129.821 582.214 130.963 581.195 132.104C581.002 132.315 581.002 132.35 581.002 132.385C581.002 132.473 581.09 132.561 581.178 132.561C581.318 132.561 582.67 131.261 582.67 129.242Z" fill="black"/>
<path d="M602.082 124.798C602.082 123.464 601.906 121.286 600.923 119.249C599.887 117.142 598.447 116 598.253 116C598.183 116 598.095 116.035 598.095 116.141C598.095 116.193 598.095 116.228 598.394 116.527C600.15 118.301 601.133 121.198 601.133 124.781C601.133 128.188 600.308 131.121 598.271 133.193C598.095 133.351 598.095 133.386 598.095 133.439C598.095 133.544 598.183 133.579 598.253 133.579C598.482 133.579 599.922 132.315 600.782 130.594C601.678 128.803 602.082 126.906 602.082 124.798Z" fill="black"/>
<path d="M595.866 123.88C595.954 123.528 596.007 123.318 596.007 122.844C596.007 121.79 595.392 121 594.058 121C592.495 121 591.67 122.106 591.354 122.545C591.301 121.544 590.581 121 589.809 121C589.299 121 588.895 121.246 588.562 121.913C588.246 122.545 588 123.616 588 123.686C588 123.757 588.07 123.845 588.193 123.845C588.334 123.845 588.351 123.827 588.457 123.423C588.72 122.387 589.054 121.351 589.756 121.351C590.16 121.351 590.3 121.632 590.3 122.159C590.3 122.545 590.125 123.23 590.002 123.774L589.51 125.671C589.44 126.004 589.247 126.794 589.159 127.11C589.036 127.567 588.843 128.392 588.843 128.48C588.843 128.726 589.036 128.919 589.299 128.919C589.51 128.919 589.756 128.814 589.896 128.55C589.931 128.462 590.089 127.848 590.177 127.497L590.564 125.916L591.143 123.599C591.178 123.493 591.617 122.615 592.267 122.054C592.723 121.632 593.32 121.351 594.005 121.351C594.707 121.351 594.953 121.878 594.953 122.58C594.953 123.09 594.883 123.37 594.795 123.704L592.758 131.781C592.741 131.869 592.706 131.974 592.706 132.08C592.706 132.343 592.916 132.519 593.18 132.519C593.338 132.519 593.707 132.448 593.847 131.922L595.866 123.88Z" fill="black"/>
</svg>
