<svg width="740" height="230" viewBox="0 0 740 230" fill="none" xmlns="http://www.w3.org/2000/svg">
<path d="M701.145 130.962C700.671 131.63 699.986 132.227 699.125 132.227C698.914 132.227 698.071 132.192 697.808 131.384C697.861 131.401 697.948 131.401 697.983 131.401C698.51 131.401 698.862 130.945 698.862 130.541C698.862 130.137 698.528 129.996 698.264 129.996C697.983 129.996 697.369 130.207 697.369 131.068C697.369 131.963 698.124 132.578 699.125 132.578C700.881 132.578 702.655 130.962 703.147 129.013L704.868 122.163C704.886 122.076 704.921 121.97 704.921 121.865C704.921 121.601 704.71 121.426 704.446 121.426C704.288 121.426 703.92 121.496 703.779 122.023L702.479 127.186C702.392 127.502 702.392 127.537 702.251 127.731C701.9 128.222 701.32 128.82 700.477 128.82C699.494 128.82 699.406 127.854 699.406 127.379C699.406 126.378 699.88 125.026 700.354 123.762C700.548 123.252 700.653 123.006 700.653 122.655C700.653 121.917 700.126 121.25 699.266 121.25C697.65 121.25 697 123.797 697 123.937C697 124.007 697.07 124.095 697.193 124.095C697.351 124.095 697.369 124.025 697.439 123.779C697.861 122.304 698.528 121.601 699.213 121.601C699.371 121.601 699.67 121.601 699.67 122.181C699.67 122.638 699.476 123.147 699.213 123.814C698.352 126.115 698.352 126.694 698.352 127.116C698.352 128.784 699.547 129.171 700.425 129.171C700.934 129.171 701.566 129.013 702.181 128.363L702.198 128.38C701.935 129.417 701.759 130.102 701.145 130.962Z" fill="black"/>
<path d="M720.012 124.956C720.31 124.956 720.627 124.956 720.627 124.605C720.627 124.253 720.31 124.253 720.012 124.253H712.565C712.776 121.9 714.796 120.214 717.272 120.214H720.012C720.31 120.214 720.627 120.214 720.627 119.863C720.627 119.511 720.31 119.511 720.012 119.511H717.237C714.234 119.511 711.845 121.795 711.845 124.605C711.845 127.415 714.234 129.698 717.237 129.698H720.012C720.31 129.698 720.627 129.698 720.627 129.346C720.627 128.995 720.31 128.995 720.012 128.995H717.272C714.796 128.995 712.776 127.309 712.565 124.956H720.012Z" fill="black"/>
<path d="M734.096 127.292C734.149 126.624 734.166 125.676 734.166 125.184C734.166 123.34 734.079 117 730.408 117C729.196 117 728.125 118.071 728.125 118.335C728.125 118.475 728.265 118.475 728.301 118.475C728.406 118.475 728.95 118.387 729.337 117.878C730.882 117.896 731.883 119.037 732.41 121.25C732.744 122.655 732.867 124.218 732.867 125.816C732.867 126.87 732.797 128.082 732.779 128.31C732.761 128.451 732.761 128.486 732.726 128.503C732.691 128.539 730.935 130.014 730.074 130.014C729.934 130.014 728.511 130.014 728.178 128.556C728.142 128.433 728.125 128.328 728.02 128.328C727.809 128.328 727.475 128.925 727.475 129.364C727.475 130.084 728.142 131.366 729.635 131.366C730.97 131.366 733.868 128.784 735.396 127.011C738.908 122.971 739.523 119.95 739.523 119.037C739.523 117.544 738.522 117 737.855 117C737.345 117 737.187 117.878 737.187 118.054C737.187 118.317 737.257 118.335 737.521 118.37C738.557 118.493 738.82 119.318 738.82 119.828C738.82 120.372 737.995 123.498 734.096 127.292Z" fill="black"/>
<circle cx="311" cy="104" r="14" fill="white" stroke="black" stroke-width="2"/>
<circle cx="331" cy="54" r="14" fill="white" stroke="black" stroke-width="2"/>
<circle cx="321" cy="155" r="14" fill="white" stroke="black" stroke-width="2"/>
<circle cx="331" cy="206" r="14" fill="white" stroke="black" stroke-width="2"/>
<path d="M330.164 51.1415C329.83 51.1415 329.672 51.1415 329.426 51.3522C329.321 51.44 329.128 51.7034 329.128 51.9844C329.128 52.3356 329.391 52.5464 329.725 52.5464C330.146 52.5464 330.621 52.1952 330.621 51.4927C330.621 50.6498 329.813 50 328.601 50C326.301 50 324 52.5113 324 55.0049C324 56.5328 324.948 57.9201 326.74 57.9201C329.128 57.9201 330.638 56.0586 330.638 55.8303C330.638 55.725 330.533 55.6371 330.463 55.6371C330.41 55.6371 330.392 55.6547 330.234 55.8128C329.11 57.3055 327.442 57.5689 326.775 57.5689C325.563 57.5689 325.177 56.5152 325.177 55.6371C325.177 55.0225 325.475 53.3191 326.107 52.1249C326.564 51.2995 327.512 50.3512 328.619 50.3512C328.847 50.3512 329.813 50.3863 330.164 51.1415Z" fill="black"/>
<path d="M334.346 52.9211C334.346 52.605 334.323 52.5932 334.007 52.5932C333.527 53.0615 332.906 53.3425 331.794 53.3425V53.7289C332.11 53.7289 332.742 53.7289 333.422 53.4128V59.4187C333.422 59.8519 333.386 59.9924 332.274 59.9924H331.864V60.3787C332.344 60.3436 333.351 60.3436 333.878 60.3436C334.405 60.3436 335.423 60.3436 335.903 60.3787V59.9924H335.494C334.382 59.9924 334.346 59.8519 334.346 59.4187V52.9211Z" fill="black"/>
<path d="M310.166 100.142C309.832 100.142 309.674 100.142 309.428 100.353C309.323 100.441 309.13 100.704 309.13 100.985C309.13 101.336 309.393 101.547 309.727 101.547C310.149 101.547 310.623 101.196 310.623 100.493C310.623 99.65 309.815 99 308.603 99C306.301 99 304 101.512 304 104.007C304 105.535 304.949 106.923 306.741 106.923C309.13 106.923 310.64 105.061 310.64 104.832C310.64 104.727 310.535 104.639 310.465 104.639C310.412 104.639 310.395 104.657 310.236 104.815C309.112 106.308 307.443 106.572 306.776 106.572C305.564 106.572 305.177 105.518 305.177 104.639C305.177 104.024 305.476 102.32 306.108 101.126C306.565 100.3 307.513 99.3513 308.62 99.3513C308.849 99.3513 309.815 99.3865 310.166 100.142Z" fill="black"/>
<path d="M313.975 106.993C314.163 106.818 314.654 106.431 314.842 106.267C315.568 105.6 316.259 104.955 316.259 103.89C316.259 102.496 315.088 101.594 313.624 101.594C312.218 101.594 311.293 102.66 311.293 103.702C311.293 104.276 311.75 104.358 311.914 104.358C312.16 104.358 312.523 104.182 312.523 103.737C312.523 103.128 311.937 103.128 311.797 103.128C312.136 102.273 312.921 101.981 313.495 101.981C314.584 101.981 315.146 102.906 315.146 103.89C315.146 105.108 314.291 105.998 312.909 107.415L311.434 108.937C311.293 109.066 311.293 109.09 311.293 109.382H315.919L316.259 107.286H315.896C315.861 107.52 315.767 108.106 315.627 108.328C315.556 108.422 314.666 108.422 314.479 108.422H312.394L313.975 106.993Z" fill="black"/>
<path d="M320.165 151.142C319.832 151.142 319.674 151.142 319.428 151.353C319.322 151.44 319.129 151.704 319.129 151.985C319.129 152.336 319.393 152.547 319.726 152.547C320.148 152.547 320.622 152.196 320.622 151.493C320.622 150.65 319.814 150 318.602 150C316.301 150 314 152.512 314 155.006C314 156.534 314.949 157.922 316.74 157.922C319.129 157.922 320.64 156.06 320.64 155.832C320.64 155.726 320.534 155.638 320.464 155.638C320.411 155.638 320.394 155.656 320.236 155.814C319.112 157.307 317.443 157.571 316.775 157.571C315.563 157.571 315.177 156.517 315.177 155.638C315.177 155.024 315.475 153.32 316.108 152.125C316.565 151.3 317.513 150.351 318.62 150.351C318.848 150.351 319.814 150.386 320.165 151.142Z" fill="black"/>
<path d="M323.634 156.47C324.56 156.47 325.145 157.149 325.145 158.379C325.145 159.843 324.314 160.276 323.693 160.276C323.049 160.276 322.171 160.042 321.761 159.421C322.182 159.421 322.475 159.152 322.475 158.765C322.475 158.39 322.206 158.121 321.831 158.121C321.515 158.121 321.187 158.32 321.187 158.789C321.187 159.901 322.381 160.627 323.716 160.627C325.274 160.627 326.363 159.55 326.363 158.379C326.363 157.407 325.59 156.517 324.396 156.259C325.321 155.931 326.012 155.135 326.012 154.198C326.012 153.261 324.958 152.594 323.74 152.594C322.487 152.594 321.538 153.273 321.538 154.163C321.538 154.596 321.831 154.784 322.136 154.784C322.499 154.784 322.733 154.526 322.733 154.186C322.733 153.753 322.358 153.589 322.1 153.578C322.592 152.933 323.494 152.898 323.705 152.898C324.009 152.898 324.899 152.992 324.899 154.198C324.899 155.018 324.56 155.51 324.396 155.697C324.044 156.06 323.775 156.084 323.061 156.13C322.838 156.142 322.745 156.154 322.745 156.306C322.745 156.47 322.85 156.47 323.049 156.47H323.634Z" fill="black"/>
<path d="M330.162 202.141C329.828 202.141 329.67 202.141 329.424 202.352C329.319 202.439 329.126 202.703 329.126 202.984C329.126 203.335 329.389 203.545 329.723 203.545C330.144 203.545 330.618 203.194 330.618 202.492C330.618 201.65 329.81 201 328.599 201C326.3 201 324 203.51 324 206.003C324 207.53 324.948 208.917 326.738 208.917C329.126 208.917 330.636 207.056 330.636 206.828C330.636 206.723 330.53 206.635 330.46 206.635C330.407 206.635 330.39 206.652 330.232 206.81C329.108 208.303 327.441 208.566 326.774 208.566C325.562 208.566 325.176 207.513 325.176 206.635C325.176 206.021 325.475 204.318 326.107 203.124C326.563 202.299 327.511 201.351 328.617 201.351C328.845 201.351 329.81 201.386 330.162 202.141Z" fill="black"/>
<path d="M335.278 203.803C335.278 203.569 335.278 203.475 335.033 203.475C334.881 203.475 334.869 203.487 334.752 203.651L331.019 209.069V209.455H334.319V210.427C334.319 210.86 334.284 210.988 333.383 210.988H333.113V211.375C334.108 211.34 334.132 211.34 334.799 211.34C335.466 211.34 335.489 211.34 336.484 211.375V210.988H336.215C335.314 210.988 335.278 210.86 335.278 210.427V209.455H336.519V209.069H335.278V203.803ZM334.401 204.751V209.069H331.428L334.401 204.751Z" fill="black"/>
<path d="M380 130C380 157.493 374.426 182.333 365.461 200.263C356.466 218.254 344.224 229 331 229C317.776 229 305.534 218.254 296.539 200.263C287.574 182.333 282 157.493 282 130C282 102.507 287.574 77.6669 296.539 59.7365C305.534 41.7464 317.776 31 331 31C344.224 31 356.466 41.7464 365.461 59.7365C374.426 77.6669 380 102.507 380 130Z" stroke="black" stroke-width="2"/>
<path d="M273.416 125.122C273.416 125 273.321 125 273.294 125C273.267 125 273.213 125 273.105 125.135L272.173 126.27C271.7 125.459 270.957 125 269.944 125C267.026 125 264 127.959 264 131.133C264 133.389 265.581 134.794 267.553 134.794C268.634 134.794 269.579 134.335 270.363 133.673C271.538 132.687 271.889 131.376 271.889 131.268C271.889 131.147 271.781 131.147 271.741 131.147C271.619 131.147 271.606 131.228 271.579 131.282C270.957 133.389 269.134 134.403 267.783 134.403C266.351 134.403 265.108 133.484 265.108 131.566C265.108 131.133 265.243 128.783 266.769 127.013C267.512 126.148 268.782 125.392 270.066 125.392C271.552 125.392 272.214 126.621 272.214 127.999C272.214 128.35 272.173 128.648 272.173 128.702C272.173 128.823 272.308 128.823 272.349 128.823C272.497 128.823 272.511 128.81 272.565 128.566L273.416 125.122Z" fill="black"/>
</svg>
