<svg width="740" height="230" viewBox="0 0 740 230" fill="none" xmlns="http://www.w3.org/2000/svg">
<path d="M438.472 9.0708H433.851V12.8501H439.219V14H432.444V3.33594H439.146V4.49316H433.851V7.9209H438.472V9.0708ZM443.182 12.1616L445.145 6.0752H446.529L443.687 14H442.654L439.783 6.0752H441.167L443.182 12.1616ZM452.608 14C452.53 13.8438 452.466 13.5654 452.417 13.165C451.788 13.8193 451.036 14.1465 450.162 14.1465C449.38 14.1465 448.738 13.9268 448.235 13.4873C447.737 13.043 447.488 12.4814 447.488 11.8027C447.488 10.9775 447.801 10.3379 448.426 9.88379C449.056 9.4248 449.939 9.19531 451.077 9.19531H452.396V8.57275C452.396 8.09912 452.254 7.72314 451.971 7.44482C451.688 7.16162 451.27 7.02002 450.718 7.02002C450.235 7.02002 449.83 7.14209 449.502 7.38623C449.175 7.63037 449.012 7.92578 449.012 8.27246H447.649C447.649 7.87695 447.789 7.49609 448.067 7.12988C448.35 6.75879 448.731 6.46582 449.209 6.25098C449.693 6.03613 450.223 5.92871 450.799 5.92871C451.712 5.92871 452.427 6.1582 452.945 6.61719C453.462 7.07129 453.731 7.69873 453.75 8.49951V12.147C453.75 12.8745 453.843 13.4531 454.029 13.8828V14H452.608ZM450.359 12.9673C450.784 12.9673 451.187 12.8574 451.568 12.6377C451.949 12.418 452.225 12.1323 452.396 11.7808V10.1548H451.333C449.673 10.1548 448.843 10.6406 448.843 11.6123C448.843 12.0371 448.985 12.3691 449.268 12.6084C449.551 12.8477 449.915 12.9673 450.359 12.9673ZM457.347 14H455.992V2.75H457.347V14ZM464.415 13.2163C463.887 13.8364 463.113 14.1465 462.093 14.1465C461.248 14.1465 460.604 13.9023 460.159 13.4141C459.72 12.9209 459.498 12.1934 459.493 11.2314V6.0752H460.848V11.1948C460.848 12.396 461.336 12.9966 462.312 12.9966C463.348 12.9966 464.036 12.6108 464.378 11.8394V6.0752H465.733V14H464.444L464.415 13.2163ZM472.691 14C472.613 13.8438 472.549 13.5654 472.5 13.165C471.871 13.8193 471.119 14.1465 470.245 14.1465C469.463 14.1465 468.821 13.9268 468.318 13.4873C467.82 13.043 467.571 12.4814 467.571 11.8027C467.571 10.9775 467.884 10.3379 468.509 9.88379C469.139 9.4248 470.022 9.19531 471.16 9.19531H472.479V8.57275C472.479 8.09912 472.337 7.72314 472.054 7.44482C471.771 7.16162 471.353 7.02002 470.801 7.02002C470.318 7.02002 469.913 7.14209 469.585 7.38623C469.258 7.63037 469.095 7.92578 469.095 8.27246H467.732C467.732 7.87695 467.872 7.49609 468.15 7.12988C468.433 6.75879 468.814 6.46582 469.292 6.25098C469.776 6.03613 470.306 5.92871 470.882 5.92871C471.795 5.92871 472.51 6.1582 473.028 6.61719C473.545 7.07129 473.814 7.69873 473.833 8.49951V12.147C473.833 12.8745 473.926 13.4531 474.112 13.8828V14H472.691ZM470.442 12.9673C470.867 12.9673 471.27 12.8574 471.651 12.6377C472.032 12.418 472.308 12.1323 472.479 11.7808V10.1548H471.417C469.756 10.1548 468.926 10.6406 468.926 11.6123C468.926 12.0371 469.068 12.3691 469.351 12.6084C469.634 12.8477 469.998 12.9673 470.442 12.9673ZM477.796 4.15625V6.0752H479.275V7.12256H477.796V12.0371C477.796 12.3545 477.862 12.5938 477.994 12.7549C478.125 12.9111 478.35 12.9893 478.667 12.9893C478.824 12.9893 479.039 12.96 479.312 12.9014V14C478.956 14.0977 478.609 14.1465 478.272 14.1465C477.667 14.1465 477.21 13.9634 476.902 13.5972C476.595 13.231 476.441 12.7109 476.441 12.0371V7.12256H474.998V6.0752H476.441V4.15625H477.796ZM484.153 14.1465C483.079 14.1465 482.205 13.7949 481.531 13.0918C480.857 12.3838 480.521 11.439 480.521 10.2573V10.0083C480.521 9.22217 480.669 8.52148 480.967 7.90625C481.27 7.28613 481.69 6.80273 482.227 6.45605C482.769 6.10449 483.355 5.92871 483.985 5.92871C485.015 5.92871 485.816 6.26807 486.387 6.94678C486.958 7.62549 487.244 8.59717 487.244 9.86182V10.4258H481.875C481.895 11.207 482.122 11.8394 482.557 12.3228C482.996 12.8013 483.553 13.0405 484.227 13.0405C484.705 13.0405 485.11 12.9429 485.442 12.7476C485.774 12.5522 486.065 12.2935 486.314 11.9712L487.142 12.6157C486.478 13.6362 485.481 14.1465 484.153 14.1465ZM483.985 7.04199C483.438 7.04199 482.979 7.24219 482.608 7.64258C482.237 8.03809 482.007 8.59473 481.919 9.3125H485.889V9.20996C485.85 8.52148 485.665 7.98926 485.333 7.61328C485 7.23242 484.551 7.04199 483.985 7.04199Z" fill="black"/>
<path d="M489 54L479 48.2265L479 59.7735L489 54ZM327 55L480 55L480 53L327 53L327 55Z" fill="black"/>
<path d="M489 104L479 98.2265V109.774L489 104ZM380 105H480V103H380V105Z" fill="black"/>
<path d="M489 206L479 200.226V211.774L489 206ZM395 207H480V205H395V207Z" fill="black"/>
<path d="M489 155L479 149.226V160.774L489 155ZM330 156H480V154H330V156Z" fill="black"/>
<path d="M460.94 38.306C461.291 38.306 461.432 38.306 461.432 37.9722C461.432 37.7965 461.291 37.7965 460.975 37.7965H459.552C459.886 35.9869 460.132 34.7394 460.272 34.1772C460.378 33.7555 460.747 33.3514 461.204 33.3514C461.573 33.3514 461.942 33.5095 462.117 33.6677C461.432 33.7379 461.221 34.2475 461.221 34.5461C461.221 34.8975 461.485 35.1084 461.819 35.1084C462.17 35.1084 462.697 34.8097 462.697 34.142C462.697 33.4041 461.959 33 461.186 33C460.431 33 459.693 33.5622 459.341 34.2475C459.025 34.8624 458.849 35.4949 458.445 37.7965H457.268C456.934 37.7965 456.758 37.7965 456.758 38.1128C456.758 38.306 456.864 38.306 457.215 38.306H458.34C458.023 39.94 457.303 43.9108 456.899 45.7907C456.6 47.3193 456.337 48.6019 455.458 48.6019C455.406 48.6019 454.896 48.6019 454.58 48.2681C455.476 48.1978 455.476 47.4247 455.476 47.4072C455.476 47.0558 455.212 46.8449 454.878 46.8449C454.527 46.8449 454 47.1436 454 47.8113C454 48.5668 454.773 48.9533 455.458 48.9533C457.25 48.9533 457.988 45.738 458.182 44.8596C458.498 43.5067 459.359 38.8331 459.447 38.306H460.94Z" fill="black"/>
<path d="M460.94 88.306C461.291 88.306 461.432 88.306 461.432 87.9722C461.432 87.7965 461.291 87.7965 460.975 87.7965H459.552C459.886 85.9869 460.132 84.7394 460.272 84.1772C460.378 83.7555 460.747 83.3514 461.204 83.3514C461.573 83.3514 461.942 83.5095 462.117 83.6677C461.432 83.7379 461.221 84.2475 461.221 84.5461C461.221 84.8975 461.485 85.1084 461.819 85.1084C462.17 85.1084 462.697 84.8097 462.697 84.142C462.697 83.4041 461.959 83 461.186 83C460.431 83 459.693 83.5622 459.341 84.2475C459.025 84.8624 458.849 85.4949 458.445 87.7965H457.268C456.934 87.7965 456.758 87.7965 456.758 88.1128C456.758 88.306 456.864 88.306 457.215 88.306H458.34C458.023 89.94 457.303 93.9108 456.899 95.7907C456.6 97.3193 456.337 98.6019 455.458 98.6019C455.406 98.6019 454.896 98.6019 454.58 98.2681C455.476 98.1978 455.476 97.4247 455.476 97.4072C455.476 97.0558 455.212 96.8449 454.878 96.8449C454.527 96.8449 454 97.1436 454 97.8113C454 98.5668 454.773 98.9533 455.458 98.9533C457.25 98.9533 457.988 95.738 458.182 94.8596C458.498 93.5067 459.359 88.8331 459.447 88.306H460.94Z" fill="black"/>
<path d="M460.94 190.306C461.291 190.306 461.432 190.306 461.432 189.972C461.432 189.797 461.291 189.797 460.975 189.797H459.552C459.886 187.987 460.132 186.739 460.272 186.177C460.378 185.755 460.747 185.351 461.204 185.351C461.573 185.351 461.942 185.51 462.117 185.668C461.432 185.738 461.221 186.247 461.221 186.546C461.221 186.898 461.485 187.108 461.819 187.108C462.17 187.108 462.697 186.81 462.697 186.142C462.697 185.404 461.959 185 461.186 185C460.431 185 459.693 185.562 459.341 186.247C459.025 186.862 458.849 187.495 458.445 189.797H457.268C456.934 189.797 456.758 189.797 456.758 190.113C456.758 190.306 456.864 190.306 457.215 190.306H458.34C458.023 191.94 457.303 195.911 456.899 197.791C456.6 199.319 456.337 200.602 455.458 200.602C455.406 200.602 454.896 200.602 454.58 200.268C455.476 200.198 455.476 199.425 455.476 199.407C455.476 199.056 455.212 198.845 454.878 198.845C454.527 198.845 454 199.144 454 199.811C454 200.567 454.773 200.953 455.458 200.953C457.25 200.953 457.988 197.738 458.182 196.86C458.498 195.507 459.359 190.833 459.447 190.306H460.94Z" fill="black"/>
<path d="M460.94 139.306C461.291 139.306 461.432 139.306 461.432 138.972C461.432 138.797 461.291 138.797 460.975 138.797H459.552C459.886 136.987 460.132 135.739 460.272 135.177C460.378 134.755 460.747 134.351 461.204 134.351C461.573 134.351 461.942 134.51 462.117 134.668C461.432 134.738 461.221 135.247 461.221 135.546C461.221 135.898 461.485 136.108 461.819 136.108C462.17 136.108 462.697 135.81 462.697 135.142C462.697 134.404 461.959 134 461.186 134C460.431 134 459.693 134.562 459.341 135.247C459.025 135.862 458.849 136.495 458.445 138.797H457.268C456.934 138.797 456.758 138.797 456.758 139.113C456.758 139.306 456.864 139.306 457.215 139.306H458.34C458.023 140.94 457.303 144.911 456.899 146.791C456.6 148.319 456.337 149.602 455.458 149.602C455.406 149.602 454.896 149.602 454.58 149.268C455.476 149.198 455.476 148.425 455.476 148.407C455.476 148.056 455.212 147.845 454.878 147.845C454.527 147.845 454 148.144 454 148.811C454 149.567 454.773 149.953 455.458 149.953C457.25 149.953 457.988 146.738 458.182 145.86C458.498 144.507 459.359 139.833 459.447 139.306H460.94Z" fill="black"/>
<path d="M504.987 62.4389C504.987 62.3862 504.987 62.3511 504.688 62.0525C502.932 60.2788 501.948 57.3811 501.948 53.7985C501.948 50.3915 502.774 47.4587 504.811 45.3864C504.987 45.2283 504.987 45.1932 504.987 45.1405C504.987 45.0351 504.899 45 504.828 45C504.6 45 503.16 46.2645 502.3 47.9855C501.404 49.7592 501 51.6384 501 53.7985C501 55.3615 501.246 57.4513 502.159 59.3304C503.195 61.4378 504.635 62.5794 504.828 62.5794C504.899 62.5794 504.987 62.5442 504.987 62.4389Z" fill="black"/>
<path d="M510.56 60.1382C510.086 60.8056 509.401 61.4027 508.54 61.4027C508.33 61.4027 507.487 61.3676 507.223 60.5597C507.276 60.5773 507.364 60.5773 507.399 60.5773C507.926 60.5773 508.277 60.1207 508.277 59.7168C508.277 59.3128 507.943 59.1723 507.68 59.1723C507.399 59.1723 506.784 59.3831 506.784 60.2436C506.784 61.1393 507.539 61.7539 508.54 61.7539C510.296 61.7539 512.07 60.1382 512.562 58.1889L514.283 51.3398C514.301 51.252 514.336 51.1466 514.336 51.0412C514.336 50.7778 514.125 50.6022 513.862 50.6022C513.703 50.6022 513.335 50.6724 513.194 51.1993L511.895 56.3625C511.807 56.6786 511.807 56.7137 511.666 56.9069C511.315 57.3986 510.736 57.9957 509.893 57.9957C508.909 57.9957 508.821 57.0298 508.821 56.5556C508.821 55.5546 509.295 54.2024 509.77 52.9379C509.963 52.4286 510.068 52.1828 510.068 51.8315C510.068 51.0939 509.541 50.4266 508.681 50.4266C507.065 50.4266 506.415 52.973 506.415 53.1135C506.415 53.1838 506.486 53.2716 506.608 53.2716C506.767 53.2716 506.784 53.2013 506.854 52.9555C507.276 51.4803 507.943 50.7778 508.628 50.7778C508.786 50.7778 509.085 50.7778 509.085 51.3573C509.085 51.814 508.892 52.3233 508.628 52.9906C507.768 55.2912 507.768 55.8707 507.768 56.2922C507.768 57.9606 508.962 58.3469 509.84 58.3469C510.349 58.3469 510.981 58.1889 511.596 57.5391L511.614 57.5567C511.35 58.5928 511.175 59.2777 510.56 60.1382Z" fill="black"/>
<path d="M517.971 53.3477C517.971 53.0316 517.947 53.0199 517.631 53.0199C517.151 53.4882 516.531 53.7692 515.418 53.7692V54.1556C515.734 54.1556 516.367 54.1556 517.046 53.8395V59.8456C517.046 60.2788 517.011 60.4193 515.898 60.4193H515.489V60.8056C515.969 60.7705 516.975 60.7705 517.502 60.7705C518.029 60.7705 519.048 60.7705 519.528 60.8056V60.4193H519.118C518.006 60.4193 517.971 60.2788 517.971 59.8456V53.3477Z" fill="black"/>
<path d="M524.67 58.2416C524.67 57.223 524.337 56.4678 523.617 56.4678C523.055 56.4678 522.774 56.9244 522.774 57.3108C522.774 57.6972 523.037 58.1713 523.634 58.1713C523.863 58.1713 524.056 58.1011 524.214 57.943C524.249 57.9079 524.267 57.9079 524.284 57.9079C524.319 57.9079 524.319 58.1538 524.319 58.2416C524.319 58.8211 524.214 59.9626 523.195 61.1041C523.002 61.3149 523.002 61.35 523.002 61.3851C523.002 61.4729 523.09 61.5608 523.178 61.5608C523.318 61.5608 524.67 60.2612 524.67 58.2416Z" fill="black"/>
<path d="M534.973 57.1001C535.359 58.1538 536.448 58.3469 537.115 58.3469C538.45 58.3469 539.24 57.1879 539.732 55.9761C540.136 54.9575 540.786 52.6394 540.786 51.6032C540.786 50.5319 540.241 50.4266 540.083 50.4266C539.662 50.4266 539.275 50.8481 539.275 51.1993C539.275 51.41 539.398 51.533 539.486 51.6032C539.644 51.7613 540.101 52.2354 540.101 53.1487C540.101 53.7458 539.609 55.3966 539.24 56.222C538.749 57.2932 538.099 57.9957 537.186 57.9957C536.202 57.9957 535.886 57.2581 535.886 56.4503C535.886 55.941 536.044 55.3263 536.114 55.0278L536.852 52.0774C536.94 51.7261 537.098 51.1115 537.098 51.0412C537.098 50.7778 536.887 50.6022 536.624 50.6022C536.114 50.6022 535.991 51.0412 535.886 51.4627C535.71 52.1476 534.973 55.1156 534.903 55.5019C534.832 55.8005 534.832 55.9937 534.832 56.38C534.832 56.8015 534.27 57.4689 534.253 57.504C534.06 57.6972 533.779 57.9957 533.234 57.9957C531.847 57.9957 531.847 56.6786 531.847 56.38C531.847 55.818 531.97 55.0453 532.76 52.9555C532.971 52.4111 533.059 52.1828 533.059 51.8315C533.059 51.0939 532.532 50.4266 531.671 50.4266C530.056 50.4266 529.406 52.973 529.406 53.1135C529.406 53.1838 529.476 53.2716 529.599 53.2716C529.757 53.2716 529.775 53.2013 529.845 52.9555C530.284 51.41 530.969 50.7778 531.619 50.7778C531.794 50.7778 532.075 50.7954 532.075 51.3573C532.075 51.4452 532.075 51.814 531.777 52.5867C530.951 54.7819 530.776 55.5019 530.776 56.1693C530.776 58.0133 532.286 58.3469 533.182 58.3469C533.48 58.3469 534.27 58.3469 534.973 57.1001Z" fill="black"/>
<path d="M544.854 53.3477C544.854 53.0316 544.831 53.0199 544.515 53.0199C544.035 53.4882 543.414 53.7692 542.302 53.7692V54.1556C542.618 54.1556 543.25 54.1556 543.929 53.8395V59.8456C543.929 60.2788 543.894 60.4193 542.782 60.4193H542.372V60.8056C542.852 60.7705 543.859 60.7705 544.386 60.7705C544.913 60.7705 545.931 60.7705 546.411 60.8056V60.4193H546.001C544.889 60.4193 544.854 60.2788 544.854 59.8456V53.3477Z" fill="black"/>
<path d="M553.082 53.7985C553.082 52.4638 552.906 50.2861 551.923 48.2489C550.887 46.1415 549.447 45 549.253 45C549.183 45 549.095 45.0351 549.095 45.1405C549.095 45.1932 549.095 45.2283 549.394 45.5269C551.15 47.3006 552.133 50.1983 552.133 53.7809C552.133 57.1879 551.308 60.1207 549.271 62.193C549.095 62.3511 549.095 62.3862 549.095 62.4389C549.095 62.5442 549.183 62.5794 549.253 62.5794C549.482 62.5794 550.922 61.3149 551.782 59.5939C552.678 57.8025 553.082 55.9059 553.082 53.7985Z" fill="black"/>
<path d="M569.294 54.1321C569.592 54.1321 569.908 54.1321 569.908 53.7809C569.908 53.4297 569.592 53.4297 569.294 53.4297H561.847C562.058 51.0764 564.078 49.3905 566.554 49.3905H569.294C569.592 49.3905 569.908 49.3905 569.908 49.0392C569.908 48.688 569.592 48.688 569.294 48.688H566.519C563.516 48.688 561.127 50.971 561.127 53.7809C561.127 56.5908 563.516 58.8738 566.519 58.8738H569.294C569.592 58.8738 569.908 58.8738 569.908 58.5226C569.908 58.1714 569.592 58.1714 569.294 58.1714H566.554C564.078 58.1714 562.058 56.4854 561.847 54.1321H569.294Z" fill="black"/>
<path d="M583.378 56.4678C583.431 55.8005 583.448 54.8522 583.448 54.3604C583.448 52.5164 583.36 46.1766 579.69 46.1766C578.478 46.1766 577.407 47.2479 577.407 47.5113C577.407 47.6518 577.548 47.6518 577.583 47.6518C577.688 47.6518 578.232 47.564 578.619 47.0547C580.164 47.0723 581.165 48.2138 581.692 50.4266C582.026 51.8315 582.149 53.3945 582.149 54.9926C582.149 56.0464 582.078 57.2581 582.061 57.4864C582.043 57.6269 582.043 57.662 582.008 57.6796C581.973 57.7147 580.217 59.1899 579.356 59.1899C579.216 59.1899 577.793 59.1899 577.46 57.7323C577.425 57.6094 577.407 57.504 577.302 57.504C577.091 57.504 576.757 58.1011 576.757 58.5401C576.757 59.2602 577.425 60.5422 578.917 60.5422C580.252 60.5422 583.15 57.9606 584.678 56.1869C588.19 52.1476 588.805 49.127 588.805 48.2138C588.805 46.721 587.804 46.1766 587.136 46.1766C586.627 46.1766 586.469 47.0547 586.469 47.2303C586.469 47.4938 586.539 47.5113 586.803 47.5464C587.839 47.6694 588.102 48.4948 588.102 49.0041C588.102 49.5485 587.277 52.6745 583.378 56.4678Z" fill="black"/>
<path d="M600.083 53.2892L596.571 49.7944C596.36 49.5836 596.325 49.5485 596.184 49.5485C596.009 49.5485 595.833 49.7066 595.833 49.8998C595.833 50.0227 595.868 50.0578 596.061 50.251L599.574 53.7809L596.061 57.3108C595.868 57.504 595.833 57.5391 595.833 57.6621C595.833 57.8553 596.009 58.0133 596.184 58.0133C596.325 58.0133 596.36 57.9782 596.571 57.7674L600.065 54.2726L603.701 57.9079C603.736 57.9255 603.859 58.0133 603.964 58.0133C604.175 58.0133 604.315 57.8553 604.315 57.6621C604.315 57.6269 604.315 57.5567 604.263 57.4689C604.245 57.4338 601.453 54.6766 600.575 53.7809L603.789 50.5671C603.876 50.4617 604.14 50.2334 604.228 50.1281C604.245 50.0929 604.315 50.0227 604.315 49.8998C604.315 49.7066 604.175 49.5485 603.964 49.5485C603.824 49.5485 603.753 49.6188 603.56 49.812L600.083 53.2892Z" fill="black"/>
<path d="M615.47 52.6569H616.102L618.736 56.7313C618.912 57.0123 619.333 57.6972 619.526 57.9606C619.649 58.1713 619.702 58.1713 620.106 58.1713H622.529C622.846 58.1713 623.109 58.1713 623.109 57.8552C623.109 57.7147 623.004 57.5918 622.846 57.5567C622.196 57.4162 621.335 56.2571 620.914 55.6951C620.791 55.5195 619.913 54.3604 618.736 52.4638C620.299 52.1828 621.809 51.5154 621.809 49.4256C621.809 46.9845 619.228 46.1415 617.156 46.1415H611.641C611.325 46.1415 611.044 46.1415 611.044 46.4576C611.044 46.7562 611.378 46.7562 611.518 46.7562C612.519 46.7562 612.607 46.8791 612.607 47.7572V56.5556C612.607 57.4337 612.519 57.5567 611.518 57.5567C611.378 57.5567 611.044 57.5567 611.044 57.8552C611.044 58.1713 611.325 58.1713 611.641 58.1713H616.453C616.769 58.1713 617.033 58.1713 617.033 57.8552C617.033 57.5567 616.734 57.5567 616.541 57.5567C615.54 57.5567 615.47 57.4162 615.47 56.5556V52.6569ZM618.859 51.7964C619.351 51.1466 619.403 50.2158 619.403 49.4431C619.403 48.6002 619.298 47.6694 618.736 46.9494C619.456 47.1074 621.195 47.6518 621.195 49.4256C621.195 50.5671 620.668 51.4627 618.859 51.7964ZM615.47 47.7045C615.47 47.3357 615.47 46.7562 616.558 46.7562C618.051 46.7562 618.789 47.3708 618.789 49.4431C618.789 51.7086 618.244 52.0423 615.47 52.0423V47.7045ZM613.081 57.5567C613.222 57.2406 613.222 56.7488 613.222 56.5908V47.7221C613.222 47.5464 613.222 47.0723 613.081 46.7562H615.083C614.855 47.0372 614.855 47.3884 614.855 47.6518V56.5908C614.855 56.7664 614.855 57.2406 614.995 57.5567H613.081ZM616.822 52.6569C616.945 52.6394 617.015 52.6218 617.156 52.6218C617.419 52.6218 617.805 52.5867 618.069 52.5516C618.332 52.973 620.229 56.099 621.687 57.5567H619.983L616.822 52.6569Z" fill="black"/>
<path d="M504.987 112.439C504.987 112.386 504.987 112.351 504.688 112.052C502.932 110.279 501.948 107.381 501.948 103.798C501.948 100.391 502.774 97.4587 504.811 95.3864C504.987 95.2283 504.987 95.1932 504.987 95.1405C504.987 95.0351 504.899 95 504.828 95C504.6 95 503.16 96.2645 502.3 97.9855C501.404 99.7592 501 101.638 501 103.798C501 105.361 501.246 107.451 502.159 109.33C503.195 111.438 504.635 112.579 504.828 112.579C504.899 112.579 504.987 112.544 504.987 112.439Z" fill="black"/>
<path d="M510.56 110.138C510.086 110.806 509.401 111.403 508.54 111.403C508.33 111.403 507.487 111.368 507.223 110.56C507.276 110.577 507.364 110.577 507.399 110.577C507.926 110.577 508.277 110.121 508.277 109.717C508.277 109.313 507.943 109.172 507.68 109.172C507.399 109.172 506.784 109.383 506.784 110.244C506.784 111.139 507.539 111.754 508.54 111.754C510.296 111.754 512.07 110.138 512.562 108.189L514.283 101.34C514.301 101.252 514.336 101.147 514.336 101.041C514.336 100.778 514.125 100.602 513.862 100.602C513.703 100.602 513.335 100.672 513.194 101.199L511.895 106.362C511.807 106.679 511.807 106.714 511.666 106.907C511.315 107.399 510.736 107.996 509.893 107.996C508.909 107.996 508.821 107.03 508.821 106.556C508.821 105.555 509.295 104.202 509.77 102.938C509.963 102.429 510.068 102.183 510.068 101.832C510.068 101.094 509.541 100.427 508.681 100.427C507.065 100.427 506.415 102.973 506.415 103.114C506.415 103.184 506.486 103.272 506.608 103.272C506.767 103.272 506.784 103.201 506.854 102.955C507.276 101.48 507.943 100.778 508.628 100.778C508.786 100.778 509.085 100.778 509.085 101.357C509.085 101.814 508.892 102.323 508.628 102.991C507.768 105.291 507.768 105.871 507.768 106.292C507.768 107.961 508.962 108.347 509.84 108.347C510.349 108.347 510.981 108.189 511.596 107.539L511.614 107.557C511.35 108.593 511.175 109.278 510.56 110.138Z" fill="black"/>
<path d="M517.596 108.417C517.783 108.242 518.275 107.855 518.462 107.691C519.188 107.024 519.879 106.38 519.879 105.315C519.879 103.921 518.708 103.02 517.245 103.02C515.84 103.02 514.915 104.085 514.915 105.127C514.915 105.701 515.371 105.783 515.535 105.783C515.781 105.783 516.144 105.607 516.144 105.162C516.144 104.554 515.559 104.554 515.418 104.554C515.758 103.699 516.542 103.406 517.116 103.406C518.205 103.406 518.767 104.331 518.767 105.315C518.767 106.532 517.912 107.422 516.53 108.839L515.055 110.361C514.915 110.49 514.915 110.513 514.915 110.806H519.539L519.879 108.71H519.516C519.481 108.944 519.387 109.53 519.247 109.752C519.176 109.846 518.287 109.846 518.099 109.846H516.015L517.596 108.417Z" fill="black"/>
<path d="M524.67 108.242C524.67 107.223 524.337 106.468 523.617 106.468C523.055 106.468 522.774 106.924 522.774 107.311C522.774 107.697 523.037 108.171 523.634 108.171C523.863 108.171 524.056 108.101 524.214 107.943C524.249 107.908 524.267 107.908 524.284 107.908C524.319 107.908 524.319 108.154 524.319 108.242C524.319 108.821 524.214 109.963 523.195 111.104C523.002 111.315 523.002 111.35 523.002 111.385C523.002 111.473 523.09 111.561 523.178 111.561C523.318 111.561 524.67 110.261 524.67 108.242Z" fill="black"/>
<path d="M534.973 107.1C535.359 108.154 536.448 108.347 537.115 108.347C538.45 108.347 539.24 107.188 539.732 105.976C540.136 104.958 540.786 102.639 540.786 101.603C540.786 100.532 540.241 100.427 540.083 100.427C539.662 100.427 539.275 100.848 539.275 101.199C539.275 101.41 539.398 101.533 539.486 101.603C539.644 101.761 540.101 102.235 540.101 103.149C540.101 103.746 539.609 105.397 539.24 106.222C538.749 107.293 538.099 107.996 537.186 107.996C536.202 107.996 535.886 107.258 535.886 106.45C535.886 105.941 536.044 105.326 536.114 105.028L536.852 102.077C536.94 101.726 537.098 101.111 537.098 101.041C537.098 100.778 536.887 100.602 536.624 100.602C536.114 100.602 535.991 101.041 535.886 101.463C535.71 102.148 534.973 105.116 534.903 105.502C534.832 105.8 534.832 105.994 534.832 106.38C534.832 106.802 534.27 107.469 534.253 107.504C534.06 107.697 533.779 107.996 533.234 107.996C531.847 107.996 531.847 106.679 531.847 106.38C531.847 105.818 531.97 105.045 532.76 102.955C532.971 102.411 533.059 102.183 533.059 101.832C533.059 101.094 532.532 100.427 531.671 100.427C530.056 100.427 529.406 102.973 529.406 103.114C529.406 103.184 529.476 103.272 529.599 103.272C529.757 103.272 529.775 103.201 529.845 102.955C530.284 101.41 530.969 100.778 531.619 100.778C531.794 100.778 532.075 100.795 532.075 101.357C532.075 101.445 532.075 101.814 531.777 102.587C530.951 104.782 530.776 105.502 530.776 106.169C530.776 108.013 532.286 108.347 533.182 108.347C533.48 108.347 534.27 108.347 534.973 107.1Z" fill="black"/>
<path d="M544.479 108.417C544.667 108.242 545.158 107.855 545.346 107.691C546.072 107.024 546.762 106.38 546.762 105.315C546.762 103.921 545.592 103.02 544.128 103.02C542.723 103.02 541.798 104.085 541.798 105.127C541.798 105.701 542.255 105.783 542.419 105.783C542.665 105.783 543.028 105.607 543.028 105.162C543.028 104.554 542.442 104.554 542.302 104.554C542.641 103.699 543.426 103.406 543.999 103.406C545.088 103.406 545.65 104.331 545.65 105.315C545.65 106.532 544.796 107.422 543.414 108.839L541.939 110.361C541.798 110.49 541.798 110.513 541.798 110.806H546.423L546.762 108.71H546.4C546.364 108.944 546.271 109.53 546.13 109.752C546.06 109.846 545.17 109.846 544.983 109.846H542.899L544.479 108.417Z" fill="black"/>
<path d="M553.082 103.798C553.082 102.464 552.906 100.286 551.923 98.2489C550.887 96.1415 549.447 95 549.253 95C549.183 95 549.095 95.0351 549.095 95.1405C549.095 95.1932 549.095 95.2283 549.394 95.5269C551.15 97.3006 552.133 100.198 552.133 103.781C552.133 107.188 551.308 110.121 549.271 112.193C549.095 112.351 549.095 112.386 549.095 112.439C549.095 112.544 549.183 112.579 549.253 112.579C549.482 112.579 550.922 111.315 551.782 109.594C552.678 107.803 553.082 105.906 553.082 103.798Z" fill="black"/>
<path d="M569.294 104.132C569.592 104.132 569.908 104.132 569.908 103.781C569.908 103.43 569.592 103.43 569.294 103.43H561.847C562.058 101.076 564.078 99.3905 566.554 99.3905H569.294C569.592 99.3905 569.908 99.3905 569.908 99.0392C569.908 98.688 569.592 98.688 569.294 98.688H566.519C563.516 98.688 561.127 100.971 561.127 103.781C561.127 106.591 563.516 108.874 566.519 108.874H569.294C569.592 108.874 569.908 108.874 569.908 108.523C569.908 108.171 569.592 108.171 569.294 108.171H566.554C564.078 108.171 562.058 106.485 561.847 104.132H569.294Z" fill="black"/>
<path d="M583.378 106.468C583.431 105.8 583.448 104.852 583.448 104.36C583.448 102.516 583.36 96.1766 579.69 96.1766C578.478 96.1766 577.407 97.2479 577.407 97.5113C577.407 97.6518 577.548 97.6518 577.583 97.6518C577.688 97.6518 578.232 97.564 578.619 97.0547C580.164 97.0723 581.165 98.2138 581.692 100.427C582.026 101.832 582.149 103.395 582.149 104.993C582.149 106.046 582.078 107.258 582.061 107.486C582.043 107.627 582.043 107.662 582.008 107.68C581.973 107.715 580.217 109.19 579.356 109.19C579.216 109.19 577.793 109.19 577.46 107.732C577.425 107.609 577.407 107.504 577.302 107.504C577.091 107.504 576.757 108.101 576.757 108.54C576.757 109.26 577.425 110.542 578.917 110.542C580.252 110.542 583.15 107.961 584.678 106.187C588.19 102.148 588.805 99.127 588.805 98.2138C588.805 96.721 587.804 96.1766 587.136 96.1766C586.627 96.1766 586.469 97.0547 586.469 97.2303C586.469 97.4938 586.539 97.5113 586.803 97.5464C587.839 97.6694 588.102 98.4948 588.102 99.0041C588.102 99.5485 587.277 102.674 583.378 106.468Z" fill="black"/>
<path d="M600.083 103.289L596.571 99.7944C596.36 99.5836 596.325 99.5485 596.184 99.5485C596.009 99.5485 595.833 99.7066 595.833 99.8998C595.833 100.023 595.868 100.058 596.061 100.251L599.574 103.781L596.061 107.311C595.868 107.504 595.833 107.539 595.833 107.662C595.833 107.855 596.009 108.013 596.184 108.013C596.325 108.013 596.36 107.978 596.571 107.767L600.065 104.273L603.701 107.908C603.736 107.925 603.859 108.013 603.964 108.013C604.175 108.013 604.315 107.855 604.315 107.662C604.315 107.627 604.315 107.557 604.263 107.469C604.245 107.434 601.453 104.677 600.575 103.781L603.789 100.567C603.876 100.462 604.14 100.233 604.228 100.128C604.245 100.093 604.315 100.023 604.315 99.8998C604.315 99.7066 604.175 99.5485 603.964 99.5485C603.824 99.5485 603.753 99.6188 603.56 99.812L600.083 103.289Z" fill="black"/>
<path d="M615.47 102.657H616.102L618.736 106.731C618.912 107.012 619.333 107.697 619.526 107.961C619.649 108.171 619.702 108.171 620.106 108.171H622.529C622.846 108.171 623.109 108.171 623.109 107.855C623.109 107.715 623.004 107.592 622.846 107.557C622.196 107.416 621.335 106.257 620.914 105.695C620.791 105.52 619.913 104.36 618.736 102.464C620.299 102.183 621.809 101.515 621.809 99.4256C621.809 96.9845 619.228 96.1415 617.156 96.1415H611.641C611.325 96.1415 611.044 96.1415 611.044 96.4576C611.044 96.7562 611.378 96.7562 611.518 96.7562C612.519 96.7562 612.607 96.8791 612.607 97.7572V106.556C612.607 107.434 612.519 107.557 611.518 107.557C611.378 107.557 611.044 107.557 611.044 107.855C611.044 108.171 611.325 108.171 611.641 108.171H616.453C616.769 108.171 617.033 108.171 617.033 107.855C617.033 107.557 616.734 107.557 616.541 107.557C615.54 107.557 615.47 107.416 615.47 106.556V102.657ZM618.859 101.796C619.351 101.147 619.403 100.216 619.403 99.4431C619.403 98.6002 619.298 97.6694 618.736 96.9494C619.456 97.1074 621.195 97.6518 621.195 99.4256C621.195 100.567 620.668 101.463 618.859 101.796ZM615.47 97.7045C615.47 97.3357 615.47 96.7562 616.558 96.7562C618.051 96.7562 618.789 97.3708 618.789 99.4431C618.789 101.709 618.244 102.042 615.47 102.042V97.7045ZM613.081 107.557C613.222 107.241 613.222 106.749 613.222 106.591V97.7221C613.222 97.5464 613.222 97.0723 613.081 96.7562H615.083C614.855 97.0372 614.855 97.3884 614.855 97.6518V106.591C614.855 106.766 614.855 107.241 614.995 107.557H613.081ZM616.822 102.657C616.945 102.639 617.015 102.622 617.156 102.622C617.419 102.622 617.805 102.587 618.069 102.552C618.332 102.973 620.229 106.099 621.687 107.557H619.983L616.822 102.657Z" fill="black"/>
<path d="M504.987 163.439C504.987 163.386 504.987 163.351 504.688 163.052C502.932 161.279 501.948 158.381 501.948 154.798C501.948 151.391 502.774 148.459 504.811 146.386C504.987 146.228 504.987 146.193 504.987 146.141C504.987 146.035 504.899 146 504.828 146C504.6 146 503.16 147.264 502.3 148.986C501.404 150.759 501 152.638 501 154.798C501 156.361 501.246 158.451 502.159 160.33C503.195 162.438 504.635 163.579 504.828 163.579C504.899 163.579 504.987 163.544 504.987 163.439Z" fill="black"/>
<path d="M510.56 161.138C510.086 161.806 509.401 162.403 508.54 162.403C508.33 162.403 507.487 162.368 507.223 161.56C507.276 161.577 507.364 161.577 507.399 161.577C507.926 161.577 508.277 161.121 508.277 160.717C508.277 160.313 507.943 160.172 507.68 160.172C507.399 160.172 506.784 160.383 506.784 161.244C506.784 162.139 507.539 162.754 508.54 162.754C510.296 162.754 512.07 161.138 512.562 159.189L514.283 152.34C514.301 152.252 514.336 152.147 514.336 152.041C514.336 151.778 514.125 151.602 513.862 151.602C513.703 151.602 513.335 151.672 513.194 152.199L511.895 157.362C511.807 157.679 511.807 157.714 511.666 157.907C511.315 158.399 510.736 158.996 509.893 158.996C508.909 158.996 508.821 158.03 508.821 157.556C508.821 156.555 509.295 155.202 509.77 153.938C509.963 153.429 510.068 153.183 510.068 152.832C510.068 152.094 509.541 151.427 508.681 151.427C507.065 151.427 506.415 153.973 506.415 154.114C506.415 154.184 506.486 154.272 506.608 154.272C506.767 154.272 506.784 154.201 506.854 153.955C507.276 152.48 507.943 151.778 508.628 151.778C508.786 151.778 509.085 151.778 509.085 152.357C509.085 152.814 508.892 153.323 508.628 153.991C507.768 156.291 507.768 156.871 507.768 157.292C507.768 158.961 508.962 159.347 509.84 159.347C510.349 159.347 510.981 159.189 511.596 158.539L511.614 158.557C511.35 159.593 511.175 160.278 510.56 161.138Z" fill="black"/>
<path d="M517.256 157.895C518.181 157.895 518.767 158.574 518.767 159.804C518.767 161.267 517.935 161.7 517.315 161.7C516.671 161.7 515.793 161.466 515.383 160.846C515.805 160.846 516.097 160.576 516.097 160.19C516.097 159.815 515.828 159.546 515.453 159.546C515.137 159.546 514.809 159.745 514.809 160.213C514.809 161.326 516.004 162.052 517.338 162.052C518.895 162.052 519.984 160.974 519.984 159.804C519.984 158.832 519.212 157.942 518.017 157.685C518.942 157.357 519.633 156.561 519.633 155.624C519.633 154.687 518.579 154.02 517.362 154.02C516.109 154.02 515.161 154.699 515.161 155.589C515.161 156.022 515.453 156.209 515.758 156.209C516.121 156.209 516.355 155.952 516.355 155.612C516.355 155.179 515.98 155.015 515.723 155.003C516.214 154.359 517.116 154.324 517.327 154.324C517.631 154.324 518.521 154.418 518.521 155.624C518.521 156.443 518.181 156.935 518.017 157.123C517.666 157.485 517.397 157.509 516.683 157.556C516.46 157.567 516.367 157.579 516.367 157.731C516.367 157.895 516.472 157.895 516.671 157.895H517.256Z" fill="black"/>
<path d="M524.67 159.242C524.67 158.223 524.337 157.468 523.617 157.468C523.055 157.468 522.774 157.924 522.774 158.311C522.774 158.697 523.037 159.171 523.634 159.171C523.863 159.171 524.056 159.101 524.214 158.943C524.249 158.908 524.267 158.908 524.284 158.908C524.319 158.908 524.319 159.154 524.319 159.242C524.319 159.821 524.214 160.963 523.195 162.104C523.002 162.315 523.002 162.35 523.002 162.385C523.002 162.473 523.09 162.561 523.178 162.561C523.318 162.561 524.67 161.261 524.67 159.242Z" fill="black"/>
<path d="M534.973 158.1C535.359 159.154 536.448 159.347 537.115 159.347C538.45 159.347 539.24 158.188 539.732 156.976C540.136 155.958 540.786 153.639 540.786 152.603C540.786 151.532 540.241 151.427 540.083 151.427C539.662 151.427 539.275 151.848 539.275 152.199C539.275 152.41 539.398 152.533 539.486 152.603C539.644 152.761 540.101 153.235 540.101 154.149C540.101 154.746 539.609 156.397 539.24 157.222C538.749 158.293 538.099 158.996 537.186 158.996C536.202 158.996 535.886 158.258 535.886 157.45C535.886 156.941 536.044 156.326 536.114 156.028L536.852 153.077C536.94 152.726 537.098 152.111 537.098 152.041C537.098 151.778 536.887 151.602 536.624 151.602C536.114 151.602 535.991 152.041 535.886 152.463C535.71 153.148 534.973 156.116 534.903 156.502C534.832 156.8 534.832 156.994 534.832 157.38C534.832 157.802 534.27 158.469 534.253 158.504C534.06 158.697 533.779 158.996 533.234 158.996C531.847 158.996 531.847 157.679 531.847 157.38C531.847 156.818 531.97 156.045 532.76 153.955C532.971 153.411 533.059 153.183 533.059 152.832C533.059 152.094 532.532 151.427 531.671 151.427C530.056 151.427 529.406 153.973 529.406 154.114C529.406 154.184 529.476 154.272 529.599 154.272C529.757 154.272 529.775 154.201 529.845 153.955C530.284 152.41 530.969 151.778 531.619 151.778C531.794 151.778 532.075 151.795 532.075 152.357C532.075 152.445 532.075 152.814 531.777 153.587C530.951 155.782 530.776 156.502 530.776 157.169C530.776 159.013 532.286 159.347 533.182 159.347C533.48 159.347 534.27 159.347 534.973 158.1Z" fill="black"/>
<path d="M544.14 157.895C545.065 157.895 545.65 158.574 545.65 159.804C545.65 161.267 544.819 161.7 544.198 161.7C543.555 161.7 542.676 161.466 542.267 160.846C542.688 160.846 542.981 160.576 542.981 160.19C542.981 159.815 542.712 159.546 542.337 159.546C542.021 159.546 541.693 159.745 541.693 160.213C541.693 161.326 542.887 162.052 544.222 162.052C545.779 162.052 546.868 160.974 546.868 159.804C546.868 158.832 546.095 157.942 544.901 157.685C545.826 157.357 546.517 156.561 546.517 155.624C546.517 154.687 545.463 154.02 544.245 154.02C542.993 154.02 542.044 154.699 542.044 155.589C542.044 156.022 542.337 156.209 542.641 156.209C543.004 156.209 543.238 155.952 543.238 155.612C543.238 155.179 542.864 155.015 542.606 155.003C543.098 154.359 543.999 154.324 544.21 154.324C544.515 154.324 545.404 154.418 545.404 155.624C545.404 156.443 545.065 156.935 544.901 157.123C544.55 157.485 544.28 157.509 543.566 157.556C543.344 157.567 543.25 157.579 543.25 157.731C543.25 157.895 543.355 157.895 543.555 157.895H544.14Z" fill="black"/>
<path d="M553.082 154.798C553.082 153.464 552.906 151.286 551.923 149.249C550.887 147.142 549.447 146 549.253 146C549.183 146 549.095 146.035 549.095 146.141C549.095 146.193 549.095 146.228 549.394 146.527C551.15 148.301 552.133 151.198 552.133 154.781C552.133 158.188 551.308 161.121 549.271 163.193C549.095 163.351 549.095 163.386 549.095 163.439C549.095 163.544 549.183 163.579 549.253 163.579C549.482 163.579 550.922 162.315 551.782 160.594C552.678 158.803 553.082 156.906 553.082 154.798Z" fill="black"/>
<path d="M569.294 155.132C569.592 155.132 569.908 155.132 569.908 154.781C569.908 154.43 569.592 154.43 569.294 154.43H561.847C562.058 152.076 564.078 150.39 566.554 150.39H569.294C569.592 150.39 569.908 150.39 569.908 150.039C569.908 149.688 569.592 149.688 569.294 149.688H566.519C563.516 149.688 561.127 151.971 561.127 154.781C561.127 157.591 563.516 159.874 566.519 159.874H569.294C569.592 159.874 569.908 159.874 569.908 159.523C569.908 159.171 569.592 159.171 569.294 159.171H566.554C564.078 159.171 562.058 157.485 561.847 155.132H569.294Z" fill="black"/>
<path d="M583.378 157.468C583.431 156.8 583.448 155.852 583.448 155.36C583.448 153.516 583.36 147.177 579.69 147.177C578.478 147.177 577.407 148.248 577.407 148.511C577.407 148.652 577.548 148.652 577.583 148.652C577.688 148.652 578.232 148.564 578.619 148.055C580.164 148.072 581.165 149.214 581.692 151.427C582.026 152.832 582.149 154.395 582.149 155.993C582.149 157.046 582.078 158.258 582.061 158.486C582.043 158.627 582.043 158.662 582.008 158.68C581.973 158.715 580.217 160.19 579.356 160.19C579.216 160.19 577.793 160.19 577.46 158.732C577.425 158.609 577.407 158.504 577.302 158.504C577.091 158.504 576.757 159.101 576.757 159.54C576.757 160.26 577.425 161.542 578.917 161.542C580.252 161.542 583.15 158.961 584.678 157.187C588.19 153.148 588.805 150.127 588.805 149.214C588.805 147.721 587.804 147.177 587.136 147.177C586.627 147.177 586.469 148.055 586.469 148.23C586.469 148.494 586.539 148.511 586.803 148.546C587.839 148.669 588.102 149.495 588.102 150.004C588.102 150.548 587.277 153.674 583.378 157.468Z" fill="black"/>
<path d="M600.083 154.289L596.571 150.794C596.36 150.584 596.325 150.549 596.184 150.549C596.009 150.549 595.833 150.707 595.833 150.9C595.833 151.023 595.868 151.058 596.061 151.251L599.574 154.781L596.061 158.311C595.868 158.504 595.833 158.539 595.833 158.662C595.833 158.855 596.009 159.013 596.184 159.013C596.325 159.013 596.36 158.978 596.571 158.767L600.065 155.273L603.701 158.908C603.736 158.925 603.859 159.013 603.964 159.013C604.175 159.013 604.315 158.855 604.315 158.662C604.315 158.627 604.315 158.557 604.263 158.469C604.245 158.434 601.453 155.677 600.575 154.781L603.789 151.567C603.876 151.462 604.14 151.233 604.228 151.128C604.245 151.093 604.315 151.023 604.315 150.9C604.315 150.707 604.175 150.549 603.964 150.549C603.824 150.549 603.753 150.619 603.56 150.812L600.083 154.289Z" fill="black"/>
<path d="M615.47 153.657H616.102L618.736 157.731C618.912 158.012 619.333 158.697 619.526 158.961C619.649 159.171 619.702 159.171 620.106 159.171H622.529C622.846 159.171 623.109 159.171 623.109 158.855C623.109 158.715 623.004 158.592 622.846 158.557C622.196 158.416 621.335 157.257 620.914 156.695C620.791 156.52 619.913 155.36 618.736 153.464C620.299 153.183 621.809 152.515 621.809 150.426C621.809 147.985 619.228 147.142 617.156 147.142H611.641C611.325 147.142 611.044 147.142 611.044 147.458C611.044 147.756 611.378 147.756 611.518 147.756C612.519 147.756 612.607 147.879 612.607 148.757V157.556C612.607 158.434 612.519 158.557 611.518 158.557C611.378 158.557 611.044 158.557 611.044 158.855C611.044 159.171 611.325 159.171 611.641 159.171H616.453C616.769 159.171 617.033 159.171 617.033 158.855C617.033 158.557 616.734 158.557 616.541 158.557C615.54 158.557 615.47 158.416 615.47 157.556V153.657ZM618.859 152.796C619.351 152.147 619.403 151.216 619.403 150.443C619.403 149.6 619.298 148.669 618.736 147.949C619.456 148.107 621.195 148.652 621.195 150.426C621.195 151.567 620.668 152.463 618.859 152.796ZM615.47 148.705C615.47 148.336 615.47 147.756 616.558 147.756C618.051 147.756 618.789 148.371 618.789 150.443C618.789 152.709 618.244 153.042 615.47 153.042V148.705ZM613.081 158.557C613.222 158.241 613.222 157.749 613.222 157.591V148.722C613.222 148.546 613.222 148.072 613.081 147.756H615.083C614.855 148.037 614.855 148.388 614.855 148.652V157.591C614.855 157.766 614.855 158.241 614.995 158.557H613.081ZM616.822 153.657C616.945 153.639 617.015 153.622 617.156 153.622C617.419 153.622 617.805 153.587 618.069 153.552C618.332 153.973 620.229 157.099 621.687 158.557H619.983L616.822 153.657Z" fill="black"/>
<path d="M504.987 214.439C504.987 214.386 504.987 214.351 504.688 214.052C502.932 212.279 501.948 209.381 501.948 205.798C501.948 202.391 502.774 199.459 504.811 197.386C504.987 197.228 504.987 197.193 504.987 197.141C504.987 197.035 504.899 197 504.828 197C504.6 197 503.16 198.264 502.3 199.986C501.404 201.759 501 203.638 501 205.798C501 207.361 501.246 209.451 502.159 211.33C503.195 213.438 504.635 214.579 504.828 214.579C504.899 214.579 504.987 214.544 504.987 214.439Z" fill="black"/>
<path d="M510.56 212.138C510.086 212.806 509.401 213.403 508.54 213.403C508.33 213.403 507.487 213.368 507.223 212.56C507.276 212.577 507.364 212.577 507.399 212.577C507.926 212.577 508.277 212.121 508.277 211.717C508.277 211.313 507.943 211.172 507.68 211.172C507.399 211.172 506.784 211.383 506.784 212.244C506.784 213.139 507.539 213.754 508.54 213.754C510.296 213.754 512.07 212.138 512.562 210.189L514.283 203.34C514.301 203.252 514.336 203.147 514.336 203.041C514.336 202.778 514.125 202.602 513.862 202.602C513.703 202.602 513.335 202.672 513.194 203.199L511.895 208.362C511.807 208.679 511.807 208.714 511.666 208.907C511.315 209.399 510.736 209.996 509.893 209.996C508.909 209.996 508.821 209.03 508.821 208.556C508.821 207.555 509.295 206.202 509.77 204.938C509.963 204.429 510.068 204.183 510.068 203.832C510.068 203.094 509.541 202.427 508.681 202.427C507.065 202.427 506.415 204.973 506.415 205.114C506.415 205.184 506.486 205.272 506.608 205.272C506.767 205.272 506.784 205.201 506.854 204.955C507.276 203.48 507.943 202.778 508.628 202.778C508.786 202.778 509.085 202.778 509.085 203.357C509.085 203.814 508.892 204.323 508.628 204.991C507.768 207.291 507.768 207.871 507.768 208.292C507.768 209.961 508.962 210.347 509.84 210.347C510.349 210.347 510.981 210.189 511.596 209.539L511.614 209.557C511.35 210.593 511.175 211.278 510.56 212.138Z" fill="black"/>
<path d="M518.907 205.231C518.907 204.997 518.907 204.903 518.661 204.903C518.509 204.903 518.497 204.915 518.38 205.078L514.646 210.499V210.886H517.947V211.857C517.947 212.29 517.912 212.419 517.011 212.419H516.741V212.806C517.736 212.771 517.76 212.771 518.427 212.771C519.095 212.771 519.118 212.771 520.113 212.806V212.419H519.844C518.942 212.419 518.907 212.29 518.907 211.857V210.886H520.148V210.499H518.907V205.231ZM518.029 206.179V210.499H515.055L518.029 206.179Z" fill="black"/>
<path d="M524.67 210.242C524.67 209.223 524.337 208.468 523.617 208.468C523.055 208.468 522.774 208.924 522.774 209.311C522.774 209.697 523.037 210.171 523.634 210.171C523.863 210.171 524.056 210.101 524.214 209.943C524.249 209.908 524.267 209.908 524.284 209.908C524.319 209.908 524.319 210.154 524.319 210.242C524.319 210.821 524.214 211.963 523.195 213.104C523.002 213.315 523.002 213.35 523.002 213.385C523.002 213.473 523.09 213.561 523.178 213.561C523.318 213.561 524.67 212.261 524.67 210.242Z" fill="black"/>
<path d="M534.973 209.1C535.359 210.154 536.448 210.347 537.115 210.347C538.45 210.347 539.24 209.188 539.732 207.976C540.136 206.958 540.786 204.639 540.786 203.603C540.786 202.532 540.241 202.427 540.083 202.427C539.662 202.427 539.275 202.848 539.275 203.199C539.275 203.41 539.398 203.533 539.486 203.603C539.644 203.761 540.101 204.235 540.101 205.149C540.101 205.746 539.609 207.397 539.24 208.222C538.749 209.293 538.099 209.996 537.186 209.996C536.202 209.996 535.886 209.258 535.886 208.45C535.886 207.941 536.044 207.326 536.114 207.028L536.852 204.077C536.94 203.726 537.098 203.111 537.098 203.041C537.098 202.778 536.887 202.602 536.624 202.602C536.114 202.602 535.991 203.041 535.886 203.463C535.71 204.148 534.973 207.116 534.903 207.502C534.832 207.8 534.832 207.994 534.832 208.38C534.832 208.802 534.27 209.469 534.253 209.504C534.06 209.697 533.779 209.996 533.234 209.996C531.847 209.996 531.847 208.679 531.847 208.38C531.847 207.818 531.97 207.045 532.76 204.955C532.971 204.411 533.059 204.183 533.059 203.832C533.059 203.094 532.532 202.427 531.671 202.427C530.056 202.427 529.406 204.973 529.406 205.114C529.406 205.184 529.476 205.272 529.599 205.272C529.757 205.272 529.775 205.201 529.845 204.955C530.284 203.41 530.969 202.778 531.619 202.778C531.794 202.778 532.075 202.795 532.075 203.357C532.075 203.445 532.075 203.814 531.777 204.587C530.951 206.782 530.776 207.502 530.776 208.169C530.776 210.013 532.286 210.347 533.182 210.347C533.48 210.347 534.27 210.347 534.973 209.1Z" fill="black"/>
<path d="M545.791 205.231C545.791 204.997 545.791 204.903 545.545 204.903C545.393 204.903 545.381 204.915 545.264 205.078L541.529 210.499V210.886H544.831V211.857C544.831 212.29 544.796 212.419 543.894 212.419H543.625V212.806C544.62 212.771 544.643 212.771 545.311 212.771C545.978 212.771 546.001 212.771 546.997 212.806V212.419H546.727C545.826 212.419 545.791 212.29 545.791 211.857V210.886H547.032V210.499H545.791V205.231ZM544.913 206.179V210.499H541.939L544.913 206.179Z" fill="black"/>
<path d="M553.082 205.798C553.082 204.464 552.906 202.286 551.923 200.249C550.887 198.142 549.447 197 549.253 197C549.183 197 549.095 197.035 549.095 197.141C549.095 197.193 549.095 197.228 549.394 197.527C551.15 199.301 552.133 202.198 552.133 205.781C552.133 209.188 551.308 212.121 549.271 214.193C549.095 214.351 549.095 214.386 549.095 214.439C549.095 214.544 549.183 214.579 549.253 214.579C549.482 214.579 550.922 213.315 551.782 211.594C552.678 209.803 553.082 207.906 553.082 205.798Z" fill="black"/>
<path d="M569.294 206.132C569.592 206.132 569.908 206.132 569.908 205.781C569.908 205.43 569.592 205.43 569.294 205.43H561.847C562.058 203.076 564.078 201.39 566.554 201.39H569.294C569.592 201.39 569.908 201.39 569.908 201.039C569.908 200.688 569.592 200.688 569.294 200.688H566.519C563.516 200.688 561.127 202.971 561.127 205.781C561.127 208.591 563.516 210.874 566.519 210.874H569.294C569.592 210.874 569.908 210.874 569.908 210.523C569.908 210.171 569.592 210.171 569.294 210.171H566.554C564.078 210.171 562.058 208.485 561.847 206.132H569.294Z" fill="black"/>
<path d="M583.378 208.468C583.431 207.8 583.448 206.852 583.448 206.36C583.448 204.516 583.36 198.177 579.69 198.177C578.478 198.177 577.407 199.248 577.407 199.511C577.407 199.652 577.548 199.652 577.583 199.652C577.688 199.652 578.232 199.564 578.619 199.055C580.164 199.072 581.165 200.214 581.692 202.427C582.026 203.832 582.149 205.395 582.149 206.993C582.149 208.046 582.078 209.258 582.061 209.486C582.043 209.627 582.043 209.662 582.008 209.68C581.973 209.715 580.217 211.19 579.356 211.19C579.216 211.19 577.793 211.19 577.46 209.732C577.425 209.609 577.407 209.504 577.302 209.504C577.091 209.504 576.757 210.101 576.757 210.54C576.757 211.26 577.425 212.542 578.917 212.542C580.252 212.542 583.15 209.961 584.678 208.187C588.19 204.148 588.805 201.127 588.805 200.214C588.805 198.721 587.804 198.177 587.136 198.177C586.627 198.177 586.469 199.055 586.469 199.23C586.469 199.494 586.539 199.511 586.803 199.546C587.839 199.669 588.102 200.495 588.102 201.004C588.102 201.548 587.277 204.674 583.378 208.468Z" fill="black"/>
<path d="M600.083 205.289L596.571 201.794C596.36 201.584 596.325 201.549 596.184 201.549C596.009 201.549 595.833 201.707 595.833 201.9C595.833 202.023 595.868 202.058 596.061 202.251L599.574 205.781L596.061 209.311C595.868 209.504 595.833 209.539 595.833 209.662C595.833 209.855 596.009 210.013 596.184 210.013C596.325 210.013 596.36 209.978 596.571 209.767L600.065 206.273L603.701 209.908C603.736 209.925 603.859 210.013 603.964 210.013C604.175 210.013 604.315 209.855 604.315 209.662C604.315 209.627 604.315 209.557 604.263 209.469C604.245 209.434 601.453 206.677 600.575 205.781L603.789 202.567C603.876 202.462 604.14 202.233 604.228 202.128C604.245 202.093 604.315 202.023 604.315 201.9C604.315 201.707 604.175 201.549 603.964 201.549C603.824 201.549 603.753 201.619 603.56 201.812L600.083 205.289Z" fill="black"/>
<path d="M615.47 204.657H616.102L618.736 208.731C618.912 209.012 619.333 209.697 619.526 209.961C619.649 210.171 619.702 210.171 620.106 210.171H622.529C622.846 210.171 623.109 210.171 623.109 209.855C623.109 209.715 623.004 209.592 622.846 209.557C622.196 209.416 621.335 208.257 620.914 207.695C620.791 207.52 619.913 206.36 618.736 204.464C620.299 204.183 621.809 203.515 621.809 201.426C621.809 198.985 619.228 198.142 617.156 198.142H611.641C611.325 198.142 611.044 198.142 611.044 198.458C611.044 198.756 611.378 198.756 611.518 198.756C612.519 198.756 612.607 198.879 612.607 199.757V208.556C612.607 209.434 612.519 209.557 611.518 209.557C611.378 209.557 611.044 209.557 611.044 209.855C611.044 210.171 611.325 210.171 611.641 210.171H616.453C616.769 210.171 617.033 210.171 617.033 209.855C617.033 209.557 616.734 209.557 616.541 209.557C615.54 209.557 615.47 209.416 615.47 208.556V204.657ZM618.859 203.796C619.351 203.147 619.403 202.216 619.403 201.443C619.403 200.6 619.298 199.669 618.736 198.949C619.456 199.107 621.195 199.652 621.195 201.426C621.195 202.567 620.668 203.463 618.859 203.796ZM615.47 199.705C615.47 199.336 615.47 198.756 616.558 198.756C618.051 198.756 618.789 199.371 618.789 201.443C618.789 203.709 618.244 204.042 615.47 204.042V199.705ZM613.081 209.557C613.222 209.241 613.222 208.749 613.222 208.591V199.722C613.222 199.546 613.222 199.072 613.081 198.756H615.083C614.855 199.037 614.855 199.388 614.855 199.652V208.591C614.855 208.766 614.855 209.241 614.995 209.557H613.081ZM616.822 204.657C616.945 204.639 617.015 204.622 617.156 204.622C617.419 204.622 617.805 204.587 618.069 204.552C618.332 204.973 620.229 208.099 621.687 209.557H619.983L616.822 204.657Z" fill="black"/>
</svg>
