<svg width="740" height="230" viewBox="0 0 740 230" fill="none" xmlns="http://www.w3.org/2000/svg">
<path d="M563 64L558 61.1132V66.8868L563 64ZM563 96L558 93.1132V98.8868L563 96ZM563 127L558 124.113V129.887L563 127ZM563 145L558 142.113V147.887L563 145ZM563 182L558 179.113V184.887L563 182ZM563 186L558 183.113V188.887L563 186ZM563 148L558 145.113V150.887L563 148ZM352 64.5H558.5V63.5H352V64.5ZM392 96.5H558.5V95.5H392V96.5ZM341 127.5H558.5V126.5H341V127.5ZM280 145.5H558.5V144.5H280V145.5ZM323 182.5H558.5V181.5H323V182.5ZM376 186.5H558.5V185.5H376V186.5ZM405 148.5H558.5V147.5H405V148.5Z" fill="#355FB3"/>
<path d="M563 89L558 86.1132V91.8868L563 89ZM291 89.5H558.5V88.5H291V89.5Z" fill="#B33535"/>
<circle cx="337" cy="64" r="14" fill="white" stroke="#355FB3" stroke-width="2"/>
<path d="M337.552 60.1766C337.552 59.0702 336.99 59 336.849 59C336.428 59 336.041 59.4215 336.041 59.7727C336.041 59.9835 336.164 60.1064 336.234 60.1766C336.41 60.3347 336.867 60.8089 336.867 61.7221C336.867 62.4597 335.813 66.5692 333.706 66.5692C332.634 66.5692 332.424 65.6735 332.424 65.0237C332.424 64.1456 332.827 62.9163 333.302 61.6518C333.583 60.9318 333.653 60.7562 333.653 60.4049C333.653 59.6674 333.126 59 332.265 59C330.65 59 330 61.5465 330 61.687C330 61.7572 330.07 61.845 330.193 61.845C330.351 61.845 330.369 61.7748 330.439 61.5289C330.861 60.0186 331.545 59.3512 332.213 59.3512C332.371 59.3512 332.669 59.3512 332.669 59.9308C332.669 60.3874 332.476 60.8967 332.213 61.564C331.37 63.8119 331.37 64.3564 331.37 64.7778C331.37 65.1642 331.423 65.8842 331.967 66.376C332.599 66.9204 333.477 66.9204 333.635 66.9204C336.551 66.9204 337.552 61.1777 337.552 60.1766Z" fill="#355FB3"/>
<path d="M341.484 61.9211C341.484 61.605 341.461 61.5933 341.145 61.5933C340.665 62.0616 340.044 62.3426 338.932 62.3426V62.729C339.248 62.729 339.88 62.729 340.559 62.4129V68.419C340.559 68.8522 340.524 68.9927 339.412 68.9927H339.002V69.3791C339.482 69.3439 340.489 69.3439 341.016 69.3439C341.543 69.3439 342.561 69.3439 343.041 69.3791V68.9927H342.632C341.519 68.9927 341.484 68.8522 341.484 68.419V61.9211Z" fill="#355FB3"/>
<circle cx="276" cy="89" r="14" fill="white" stroke="#B33535" stroke-width="2"/>
<path d="M276.552 85.1766C276.552 84.0702 275.99 84 275.849 84C275.428 84 275.041 84.4215 275.041 84.7727C275.041 84.9835 275.164 85.1064 275.234 85.1766C275.41 85.3347 275.867 85.8089 275.867 86.7221C275.867 87.4597 274.813 91.5692 272.706 91.5692C271.634 91.5692 271.424 90.6735 271.424 90.0237C271.424 89.1456 271.827 87.9163 272.302 86.6518C272.583 85.9318 272.653 85.7562 272.653 85.4049C272.653 84.6674 272.126 84 271.265 84C269.65 84 269 86.5465 269 86.687C269 86.7572 269.07 86.845 269.193 86.845C269.351 86.845 269.369 86.7748 269.439 86.5289C269.861 85.0186 270.545 84.3512 271.213 84.3512C271.371 84.3512 271.669 84.3512 271.669 84.9308C271.669 85.3874 271.476 85.8967 271.213 86.564C270.37 88.8119 270.37 89.3564 270.37 89.7778C270.37 90.1642 270.423 90.8842 270.967 91.376C271.599 91.9204 272.477 91.9204 272.635 91.9204C275.551 91.9204 276.552 86.1777 276.552 85.1766Z" fill="#B33535"/>
<path d="M280.11 91.9907C280.297 91.815 280.789 91.4287 280.976 91.2648C281.702 90.5974 282.393 89.9535 282.393 88.8881C282.393 87.4948 281.222 86.5933 279.758 86.5933C278.353 86.5933 277.429 87.6587 277.429 88.7007C277.429 89.2744 277.885 89.3564 278.049 89.3564C278.295 89.3564 278.658 89.1808 278.658 88.7359C278.658 88.127 278.073 88.127 277.932 88.127C278.272 87.2724 279.056 86.9797 279.63 86.9797C280.718 86.9797 281.28 87.9046 281.28 88.8881C281.28 90.1057 280.426 90.9955 279.044 92.4121L277.569 93.9342C277.429 94.0629 277.429 94.0864 277.429 94.3791H282.053L282.393 92.2834H282.03C281.995 92.5175 281.901 93.1029 281.76 93.3254C281.69 93.419 280.8 93.419 280.613 93.419H278.529L280.11 91.9907Z" fill="#B33535"/>
<circle cx="377" cy="96" r="14" fill="white" stroke="#355FB3" stroke-width="2"/>
<path d="M377.552 92.1766C377.552 91.0702 376.99 91 376.849 91C376.428 91 376.041 91.4215 376.041 91.7727C376.041 91.9835 376.164 92.1064 376.234 92.1766C376.41 92.3347 376.867 92.8089 376.867 93.7221C376.867 94.4597 375.813 98.5692 373.706 98.5692C372.634 98.5692 372.424 97.6735 372.424 97.0237C372.424 96.1456 372.827 94.9163 373.302 93.6518C373.583 92.9318 373.653 92.7562 373.653 92.4049C373.653 91.6674 373.126 91 372.265 91C370.65 91 370 93.5465 370 93.687C370 93.7572 370.07 93.845 370.193 93.845C370.351 93.845 370.369 93.7748 370.439 93.5289C370.861 92.0186 371.545 91.3512 372.213 91.3512C372.371 91.3512 372.669 91.3512 372.669 91.9308C372.669 92.3874 372.476 92.8967 372.213 93.564C371.37 95.8119 371.37 96.3564 371.37 96.7778C371.37 97.1642 371.423 97.8842 371.967 98.376C372.599 98.9204 373.477 98.9204 373.635 98.9204C376.551 98.9204 377.552 93.1777 377.552 92.1766Z" fill="#355FB3"/>
<path d="M380.77 97.4686C381.695 97.4686 382.28 98.1477 382.28 99.377C382.28 100.84 381.449 101.274 380.829 101.274C380.185 101.274 379.307 101.04 378.897 100.419C379.318 100.419 379.611 100.15 379.611 99.7634C379.611 99.3887 379.342 99.1194 378.967 99.1194C378.651 99.1194 378.323 99.3185 378.323 99.7868C378.323 100.899 379.517 101.625 380.852 101.625C382.409 101.625 383.498 100.548 383.498 99.377C383.498 98.4053 382.725 97.5155 381.531 97.2579C382.456 96.9301 383.147 96.1339 383.147 95.1973C383.147 94.2607 382.093 93.5933 380.875 93.5933C379.623 93.5933 378.674 94.2724 378.674 95.1622C378.674 95.5954 378.967 95.7827 379.271 95.7827C379.634 95.7827 379.869 95.5251 379.869 95.1856C379.869 94.7524 379.494 94.5885 379.236 94.5768C379.728 93.9328 380.63 93.8977 380.84 93.8977C381.145 93.8977 382.035 93.9914 382.035 95.1973C382.035 96.0169 381.695 96.5086 381.531 96.6959C381.18 97.0589 380.911 97.0823 380.196 97.1291C379.974 97.1408 379.88 97.1525 379.88 97.3047C379.88 97.4686 379.986 97.4686 380.185 97.4686H380.77Z" fill="#355FB3"/>
<circle cx="326" cy="127" r="14" fill="white" stroke="#355FB3" stroke-width="2"/>
<path d="M326.552 123.177C326.552 122.07 325.99 122 325.849 122C325.428 122 325.041 122.421 325.041 122.773C325.041 122.983 325.164 123.106 325.234 123.177C325.41 123.335 325.867 123.809 325.867 124.722C325.867 125.46 324.813 129.569 322.706 129.569C321.634 129.569 321.424 128.673 321.424 128.024C321.424 127.146 321.827 125.916 322.302 124.652C322.583 123.932 322.653 123.756 322.653 123.405C322.653 122.667 322.126 122 321.265 122C319.65 122 319 124.546 319 124.687C319 124.757 319.07 124.845 319.193 124.845C319.351 124.845 319.369 124.775 319.439 124.529C319.861 123.019 320.545 122.351 321.213 122.351C321.371 122.351 321.669 122.351 321.669 122.931C321.669 123.387 321.476 123.897 321.213 124.564C320.37 126.812 320.37 127.356 320.37 127.778C320.37 128.164 320.423 128.884 320.967 129.376C321.599 129.92 322.477 129.92 322.635 129.92C325.551 129.92 326.552 124.178 326.552 123.177Z" fill="#355FB3"/>
<path d="M331.421 124.804C331.421 124.57 331.421 124.476 331.175 124.476C331.023 124.476 331.011 124.488 330.894 124.652L327.159 130.073V130.459H330.461V131.431C330.461 131.864 330.426 131.993 329.524 131.993H329.255V132.379C330.25 132.344 330.274 132.344 330.941 132.344C331.608 132.344 331.632 132.344 332.627 132.379V131.993H332.358C331.456 131.993 331.421 131.864 331.421 131.431V130.459H332.662V130.073H331.421V124.804ZM330.543 125.752V130.073H327.569L330.543 125.752Z" fill="#355FB3"/>
<circle cx="265" cy="144" r="14" fill="white" stroke="#355FB3" stroke-width="2"/>
<path d="M265.552 140.177C265.552 139.07 264.99 139 264.849 139C264.428 139 264.041 139.421 264.041 139.773C264.041 139.983 264.164 140.106 264.234 140.177C264.41 140.335 264.867 140.809 264.867 141.722C264.867 142.46 263.813 146.569 261.706 146.569C260.634 146.569 260.424 145.673 260.424 145.024C260.424 144.146 260.827 142.916 261.302 141.652C261.583 140.932 261.653 140.756 261.653 140.405C261.653 139.667 261.126 139 260.265 139C258.65 139 258 141.546 258 141.687C258 141.757 258.07 141.845 258.193 141.845C258.351 141.845 258.369 141.775 258.439 141.529C258.861 140.019 259.545 139.351 260.213 139.351C260.371 139.351 260.669 139.351 260.669 139.931C260.669 140.387 260.476 140.897 260.213 141.564C259.37 143.812 259.37 144.356 259.37 144.778C259.37 145.164 259.423 145.884 259.967 146.376C260.599 146.92 261.477 146.92 261.635 146.92C264.551 146.92 265.552 141.178 265.552 140.177Z" fill="#355FB3"/>
<path d="M267.447 142.799C267.599 142.846 268.068 142.963 268.559 142.963C270.023 142.963 270.913 141.933 270.913 141.757C270.913 141.628 270.831 141.593 270.772 141.593C270.749 141.593 270.725 141.593 270.62 141.652C270.163 141.828 269.625 141.968 268.993 141.968C268.302 141.968 267.728 141.792 267.365 141.652C267.248 141.593 267.225 141.593 267.213 141.593C267.061 141.593 267.061 141.722 267.061 141.933V145.363C267.061 145.574 267.061 145.715 267.248 145.715C267.342 145.715 267.377 145.668 267.435 145.574C267.576 145.398 268.021 144.801 269.016 144.801C269.672 144.801 269.988 145.34 270.093 145.562C270.292 145.984 270.316 146.522 270.316 146.979C270.316 147.412 270.304 148.044 269.976 148.56C269.754 148.911 269.285 149.274 268.665 149.274C267.904 149.274 267.154 148.794 266.885 148.033C266.92 148.044 266.991 148.044 267.002 148.044C267.33 148.044 267.588 147.834 267.588 147.471C267.588 147.038 267.248 146.885 267.014 146.885C266.803 146.885 266.429 147.002 266.429 147.506C266.429 148.56 267.342 149.625 268.688 149.625C270.152 149.625 271.393 148.489 271.393 147.038C271.393 145.679 270.409 144.473 269.028 144.473C268.442 144.473 267.892 144.661 267.447 145.059V142.799Z" fill="#355FB3"/>
<circle cx="390" cy="147" r="14" fill="white" stroke="#355FB3" stroke-width="2"/>
<path d="M390.552 143.177C390.552 142.07 389.99 142 389.849 142C389.428 142 389.041 142.421 389.041 142.773C389.041 142.983 389.164 143.106 389.234 143.177C389.41 143.335 389.867 143.809 389.867 144.722C389.867 145.46 388.813 149.569 386.706 149.569C385.634 149.569 385.424 148.673 385.424 148.024C385.424 147.146 385.827 145.916 386.302 144.652C386.583 143.932 386.653 143.756 386.653 143.405C386.653 142.667 386.126 142 385.265 142C383.65 142 383 144.546 383 144.687C383 144.757 383.07 144.845 383.193 144.845C383.351 144.845 383.369 144.775 383.439 144.529C383.861 143.019 384.545 142.351 385.213 142.351C385.371 142.351 385.669 142.351 385.669 142.931C385.669 143.387 385.476 143.897 385.213 144.564C384.37 146.812 384.37 147.356 384.37 147.778C384.37 148.164 384.423 148.884 384.967 149.376C385.599 149.92 386.477 149.92 386.635 149.92C389.551 149.92 390.552 144.178 390.552 143.177Z" fill="#355FB3"/>
<path d="M392.424 148.504C392.424 147.532 392.506 146.677 392.927 145.963C393.278 145.378 393.876 144.898 394.613 144.898C394.847 144.898 395.386 144.933 395.655 145.343C395.128 145.366 395.081 145.764 395.081 145.893C395.081 146.244 395.351 146.443 395.632 146.443C395.842 146.443 396.182 146.314 396.182 145.869C396.182 145.167 395.655 144.593 394.601 144.593C392.974 144.593 391.323 146.139 391.323 148.668C391.323 151.84 392.798 152.625 393.934 152.625C394.496 152.625 395.105 152.473 395.632 151.969C396.1 151.513 396.498 151.021 396.498 150.002C396.498 148.469 395.339 147.391 394.039 147.391C393.196 147.391 392.693 147.93 392.424 148.504ZM393.934 152.274C393.314 152.274 392.927 151.84 392.752 151.513C392.482 150.986 392.459 150.19 392.459 149.745C392.459 148.586 393.091 147.719 393.993 147.719C394.578 147.719 394.929 148.024 395.152 148.434C395.398 148.867 395.398 149.394 395.398 149.991C395.398 150.588 395.398 151.103 395.163 151.524C394.859 152.063 394.449 152.274 393.934 152.274Z" fill="#355FB3"/>
<circle cx="308" cy="182" r="14" fill="white" stroke="#355FB3" stroke-width="2"/>
<path d="M308.552 178.177C308.552 177.07 307.99 177 307.849 177C307.428 177 307.041 177.421 307.041 177.773C307.041 177.983 307.164 178.106 307.234 178.177C307.41 178.335 307.867 178.809 307.867 179.722C307.867 180.46 306.813 184.569 304.706 184.569C303.634 184.569 303.424 183.673 303.424 183.024C303.424 182.146 303.827 180.916 304.302 179.652C304.583 178.932 304.653 178.756 304.653 178.405C304.653 177.667 304.126 177 303.265 177C301.65 177 301 179.546 301 179.687C301 179.757 301.07 179.845 301.193 179.845C301.351 179.845 301.369 179.775 301.439 179.529C301.861 178.019 302.545 177.351 303.213 177.351C303.371 177.351 303.669 177.351 303.669 177.931C303.669 178.387 303.476 178.897 303.213 179.564C302.37 181.812 302.37 182.356 302.37 182.778C302.37 183.164 302.423 183.884 302.967 184.376C303.599 184.92 304.477 184.92 304.635 184.92C307.551 184.92 308.552 179.178 308.552 178.177Z" fill="#355FB3"/>
<path d="M314.732 180.249C314.838 180.12 314.838 180.097 314.838 179.839H311.864C311.571 179.839 311.208 179.828 310.915 179.804C310.307 179.757 310.295 179.652 310.26 179.465H309.897L309.499 181.935H309.862C309.885 181.759 310.014 180.951 310.178 180.858C310.307 180.799 311.185 180.799 311.36 180.799H313.842L312.637 182.415C311.302 184.195 311.021 186.044 311.021 186.969C311.021 187.086 311.021 187.625 311.571 187.625C312.121 187.625 312.121 187.098 312.121 186.958V186.396C312.121 184.71 312.402 183.328 312.976 182.567L314.732 180.249Z" fill="#355FB3"/>
<circle cx="361" cy="186" r="14" fill="white" stroke="#355FB3" stroke-width="2"/>
<path d="M361.552 182.177C361.552 181.07 360.99 181 360.849 181C360.428 181 360.041 181.421 360.041 181.773C360.041 181.983 360.164 182.106 360.234 182.177C360.41 182.335 360.867 182.809 360.867 183.722C360.867 184.46 359.813 188.569 357.706 188.569C356.634 188.569 356.424 187.673 356.424 187.024C356.424 186.146 356.827 184.916 357.302 183.652C357.583 182.932 357.653 182.756 357.653 182.405C357.653 181.667 357.126 181 356.265 181C354.65 181 354 183.546 354 183.687C354 183.757 354.07 183.845 354.193 183.845C354.351 183.845 354.369 183.775 354.439 183.529C354.861 182.019 355.545 181.351 356.213 181.351C356.371 181.351 356.669 181.351 356.669 181.931C356.669 182.387 356.476 182.897 356.213 183.564C355.37 185.812 355.37 186.356 355.37 186.778C355.37 187.164 355.423 187.884 355.967 188.376C356.599 188.92 357.477 188.92 357.635 188.92C360.551 188.92 361.552 183.178 361.552 182.177Z" fill="#355FB3"/>
<path d="M365.695 187.153C366.351 186.836 367.147 186.251 367.147 185.338C367.147 184.226 366.011 183.593 364.922 183.593C363.681 183.593 362.674 184.448 362.674 185.549C362.674 185.982 362.827 186.38 363.119 186.719C363.318 186.965 363.365 186.989 364.091 187.445C362.639 188.089 362.323 188.944 362.323 189.599C362.323 190.887 363.623 191.625 364.899 191.625C366.339 191.625 367.498 190.653 367.498 189.412C367.498 188.675 367.1 188.183 366.913 187.984C366.714 187.796 366.702 187.785 365.695 187.153ZM363.88 186.052C363.541 185.853 363.26 185.513 363.26 185.104C363.26 184.366 364.068 183.898 364.899 183.898C365.812 183.898 366.561 184.518 366.561 185.338C366.561 186.017 366.035 186.591 365.344 186.93L363.88 186.052ZM364.454 187.656C364.501 187.679 365.836 188.499 366.035 188.628C366.222 188.733 366.831 189.108 366.831 189.81C366.831 190.712 365.882 191.274 364.922 191.274C363.88 191.274 362.991 190.56 362.991 189.599C362.991 188.721 363.646 188.031 364.454 187.656Z" fill="#355FB3"/>
<path d="M239.403 120.122C239.403 120 239.308 120 239.281 120C239.254 120 239.2 120 239.092 120.135L238.16 121.256C238.092 121.148 237.822 120.675 237.295 120.365C236.714 120 236.133 120 235.931 120C233.04 120 230 122.945 230 126.133C230 128.362 231.54 129.794 233.566 129.794C234.539 129.794 235.768 129.47 236.444 128.619C236.593 129.132 236.89 129.497 236.984 129.497C237.052 129.497 237.065 129.457 237.079 129.457C237.092 129.43 237.2 128.957 237.268 128.714L237.484 127.849C237.592 127.403 237.646 127.214 237.741 126.809C237.876 126.295 237.903 126.255 238.646 126.241C238.7 126.241 238.862 126.241 238.862 125.985C238.862 125.85 238.727 125.85 238.687 125.85C238.457 125.85 238.2 125.877 237.957 125.877H237.227C236.66 125.877 236.066 125.85 235.512 125.85C235.39 125.85 235.228 125.85 235.228 126.093C235.228 126.228 235.336 126.228 235.336 126.241H235.674C236.741 126.241 236.741 126.349 236.741 126.552C236.741 126.566 236.484 127.93 236.228 128.335C235.714 129.092 234.647 129.403 233.85 129.403C232.81 129.403 231.121 128.862 231.121 126.525C231.121 125.62 231.445 123.553 232.756 122.026C233.607 121.054 234.863 120.392 236.052 120.392C237.646 120.392 238.214 121.756 238.214 122.999C238.214 123.215 238.16 123.512 238.16 123.702C238.16 123.823 238.295 123.823 238.335 123.823C238.484 123.823 238.497 123.81 238.551 123.566L239.403 120.122Z" fill="black"/>
<path d="M594.703 112.843C594.703 112.369 594.3 112 593.86 112C593.351 112 593 112.404 593 112.843C593 113.37 593.439 113.703 593.843 113.703C594.317 113.703 594.703 113.335 594.703 112.843Z" fill="black"/>
<path d="M594.703 118.697C594.703 118.222 594.3 117.854 593.86 117.854C593.351 117.854 593 118.258 593 118.697C593 119.223 593.439 119.557 593.843 119.557C594.317 119.557 594.703 119.188 594.703 118.697Z" fill="black"/>
<path d="M594.703 124.55C594.703 124.076 594.3 123.707 593.86 123.707C593.351 123.707 593 124.111 593 124.55C593 125.077 593.439 125.411 593.843 125.411C594.317 125.411 594.703 125.042 594.703 124.55Z" fill="black"/>
<path d="M594.703 161.843C594.703 161.369 594.3 161 593.86 161C593.351 161 593 161.404 593 161.843C593 162.37 593.439 162.703 593.843 162.703C594.317 162.703 594.703 162.335 594.703 161.843Z" fill="black"/>
<path d="M594.703 167.697C594.703 167.222 594.3 166.854 593.86 166.854C593.351 166.854 593 167.258 593 167.697C593 168.223 593.439 168.557 593.843 168.557C594.317 168.557 594.703 168.188 594.703 167.697Z" fill="black"/>
<path d="M594.703 173.55C594.703 173.076 594.3 172.707 593.86 172.707C593.351 172.707 593 173.111 593 173.55C593 174.077 593.439 174.411 593.843 174.411C594.317 174.411 594.703 174.042 594.703 173.55Z" fill="black"/>
<path d="M438.472 9.0708H433.851V12.8501H439.219V14H432.444V3.33594H439.146V4.49316H433.851V7.9209H438.472V9.0708ZM443.182 12.1616L445.145 6.0752H446.529L443.687 14H442.654L439.783 6.0752H441.167L443.182 12.1616ZM452.608 14C452.53 13.8438 452.466 13.5654 452.417 13.165C451.788 13.8193 451.036 14.1465 450.162 14.1465C449.38 14.1465 448.738 13.9268 448.235 13.4873C447.737 13.043 447.488 12.4814 447.488 11.8027C447.488 10.9775 447.801 10.3379 448.426 9.88379C449.056 9.4248 449.939 9.19531 451.077 9.19531H452.396V8.57275C452.396 8.09912 452.254 7.72314 451.971 7.44482C451.688 7.16162 451.27 7.02002 450.718 7.02002C450.235 7.02002 449.83 7.14209 449.502 7.38623C449.175 7.63037 449.012 7.92578 449.012 8.27246H447.649C447.649 7.87695 447.789 7.49609 448.067 7.12988C448.35 6.75879 448.731 6.46582 449.209 6.25098C449.693 6.03613 450.223 5.92871 450.799 5.92871C451.712 5.92871 452.427 6.1582 452.945 6.61719C453.462 7.07129 453.731 7.69873 453.75 8.49951V12.147C453.75 12.8745 453.843 13.4531 454.029 13.8828V14H452.608ZM450.359 12.9673C450.784 12.9673 451.187 12.8574 451.568 12.6377C451.949 12.418 452.225 12.1323 452.396 11.7808V10.1548H451.333C449.673 10.1548 448.843 10.6406 448.843 11.6123C448.843 12.0371 448.985 12.3691 449.268 12.6084C449.551 12.8477 449.915 12.9673 450.359 12.9673ZM457.347 14H455.992V2.75H457.347V14ZM464.415 13.2163C463.887 13.8364 463.113 14.1465 462.093 14.1465C461.248 14.1465 460.604 13.9023 460.159 13.4141C459.72 12.9209 459.498 12.1934 459.493 11.2314V6.0752H460.848V11.1948C460.848 12.396 461.336 12.9966 462.312 12.9966C463.348 12.9966 464.036 12.6108 464.378 11.8394V6.0752H465.733V14H464.444L464.415 13.2163ZM472.691 14C472.613 13.8438 472.549 13.5654 472.5 13.165C471.871 13.8193 471.119 14.1465 470.245 14.1465C469.463 14.1465 468.821 13.9268 468.318 13.4873C467.82 13.043 467.571 12.4814 467.571 11.8027C467.571 10.9775 467.884 10.3379 468.509 9.88379C469.139 9.4248 470.022 9.19531 471.16 9.19531H472.479V8.57275C472.479 8.09912 472.337 7.72314 472.054 7.44482C471.771 7.16162 471.353 7.02002 470.801 7.02002C470.318 7.02002 469.913 7.14209 469.585 7.38623C469.258 7.63037 469.095 7.92578 469.095 8.27246H467.732C467.732 7.87695 467.872 7.49609 468.15 7.12988C468.433 6.75879 468.814 6.46582 469.292 6.25098C469.776 6.03613 470.306 5.92871 470.882 5.92871C471.795 5.92871 472.51 6.1582 473.028 6.61719C473.545 7.07129 473.814 7.69873 473.833 8.49951V12.147C473.833 12.8745 473.926 13.4531 474.112 13.8828V14H472.691ZM470.442 12.9673C470.867 12.9673 471.27 12.8574 471.651 12.6377C472.032 12.418 472.308 12.1323 472.479 11.7808V10.1548H471.417C469.756 10.1548 468.926 10.6406 468.926 11.6123C468.926 12.0371 469.068 12.3691 469.351 12.6084C469.634 12.8477 469.998 12.9673 470.442 12.9673ZM477.796 4.15625V6.0752H479.275V7.12256H477.796V12.0371C477.796 12.3545 477.862 12.5938 477.994 12.7549C478.125 12.9111 478.35 12.9893 478.667 12.9893C478.824 12.9893 479.039 12.96 479.312 12.9014V14C478.956 14.0977 478.609 14.1465 478.272 14.1465C477.667 14.1465 477.21 13.9634 476.902 13.5972C476.595 13.231 476.441 12.7109 476.441 12.0371V7.12256H474.998V6.0752H476.441V4.15625H477.796ZM484.153 14.1465C483.079 14.1465 482.205 13.7949 481.531 13.0918C480.857 12.3838 480.521 11.439 480.521 10.2573V10.0083C480.521 9.22217 480.669 8.52148 480.967 7.90625C481.27 7.28613 481.69 6.80273 482.227 6.45605C482.769 6.10449 483.355 5.92871 483.985 5.92871C485.015 5.92871 485.816 6.26807 486.387 6.94678C486.958 7.62549 487.244 8.59717 487.244 9.86182V10.4258H481.875C481.895 11.207 482.122 11.8394 482.557 12.3228C482.996 12.8013 483.553 13.0405 484.227 13.0405C484.705 13.0405 485.11 12.9429 485.442 12.7476C485.774 12.5522 486.065 12.2935 486.314 11.9712L487.142 12.6157C486.478 13.6362 485.481 14.1465 484.153 14.1465ZM483.985 7.04199C483.438 7.04199 482.979 7.24219 482.608 7.64258C482.237 8.03809 482.007 8.59473 481.919 9.3125H485.889V9.20996C485.85 8.52148 485.665 7.98926 485.333 7.61328C485 7.23242 484.551 7.04199 483.985 7.04199Z" fill="black"/>
<path d="M460.94 47.306C461.291 47.306 461.432 47.306 461.432 46.9722C461.432 46.7965 461.291 46.7965 460.975 46.7965H459.552C459.886 44.9869 460.132 43.7394 460.272 43.1772C460.378 42.7555 460.747 42.3514 461.204 42.3514C461.573 42.3514 461.942 42.5095 462.117 42.6677C461.432 42.7379 461.221 43.2475 461.221 43.5461C461.221 43.8975 461.485 44.1084 461.819 44.1084C462.17 44.1084 462.697 43.8097 462.697 43.142C462.697 42.4041 461.959 42 461.186 42C460.431 42 459.693 42.5622 459.341 43.2475C459.025 43.8624 458.849 44.4949 458.445 46.7965H457.268C456.934 46.7965 456.758 46.7965 456.758 47.1128C456.758 47.306 456.864 47.306 457.215 47.306H458.34C458.023 48.94 457.303 52.9108 456.899 54.7907C456.6 56.3193 456.337 57.6019 455.458 57.6019C455.406 57.6019 454.896 57.6019 454.58 57.2681C455.476 57.1978 455.476 56.4247 455.476 56.4072C455.476 56.0558 455.212 55.8449 454.878 55.8449C454.527 55.8449 454 56.1436 454 56.8113C454 57.5668 454.773 57.9533 455.458 57.9533C457.25 57.9533 457.988 54.738 458.182 53.8596C458.498 52.5067 459.359 47.8331 459.447 47.306H460.94Z" fill="#355FB3"/>
<path d="M460.94 74.306C461.291 74.306 461.432 74.306 461.432 73.9722C461.432 73.7965 461.291 73.7965 460.975 73.7965H459.552C459.886 71.9869 460.132 70.7394 460.272 70.1772C460.378 69.7555 460.747 69.3514 461.204 69.3514C461.573 69.3514 461.942 69.5095 462.117 69.6677C461.432 69.7379 461.221 70.2475 461.221 70.5461C461.221 70.8975 461.485 71.1084 461.819 71.1084C462.17 71.1084 462.697 70.8097 462.697 70.142C462.697 69.4041 461.959 69 461.186 69C460.431 69 459.693 69.5622 459.341 70.2475C459.025 70.8624 458.849 71.4949 458.445 73.7965H457.268C456.934 73.7965 456.758 73.7965 456.758 74.1128C456.758 74.306 456.864 74.306 457.215 74.306H458.34C458.023 75.94 457.303 79.9108 456.899 81.7907C456.6 83.3193 456.337 84.6019 455.458 84.6019C455.406 84.6019 454.896 84.6019 454.58 84.2681C455.476 84.1978 455.476 83.4247 455.476 83.4072C455.476 83.0558 455.212 82.8449 454.878 82.8449C454.527 82.8449 454 83.1436 454 83.8113C454 84.5668 454.773 84.9533 455.458 84.9533C457.25 84.9533 457.988 81.738 458.182 80.8596C458.498 79.5067 459.359 74.8331 459.447 74.306H460.94Z" fill="#B33535"/>
<path d="M460.94 167.306C461.291 167.306 461.432 167.306 461.432 166.972C461.432 166.797 461.291 166.797 460.975 166.797H459.552C459.886 164.987 460.132 163.739 460.272 163.177C460.378 162.755 460.747 162.351 461.204 162.351C461.573 162.351 461.942 162.51 462.117 162.668C461.432 162.738 461.221 163.247 461.221 163.546C461.221 163.898 461.485 164.108 461.819 164.108C462.17 164.108 462.697 163.81 462.697 163.142C462.697 162.404 461.959 162 461.186 162C460.431 162 459.693 162.562 459.341 163.247C459.025 163.862 458.849 164.495 458.445 166.797H457.268C456.934 166.797 456.758 166.797 456.758 167.113C456.758 167.306 456.864 167.306 457.215 167.306H458.34C458.023 168.94 457.303 172.911 456.899 174.791C456.6 176.319 456.337 177.602 455.458 177.602C455.406 177.602 454.896 177.602 454.58 177.268C455.476 177.198 455.476 176.425 455.476 176.407C455.476 176.056 455.212 175.845 454.878 175.845C454.527 175.845 454 176.144 454 176.811C454 177.567 454.773 177.953 455.458 177.953C457.25 177.953 457.988 174.738 458.182 173.86C458.498 172.507 459.359 167.833 459.447 167.306H460.94Z" fill="#355FB3"/>
<path d="M690 125L680 119.226V130.773L690 125ZM635 126H681V124H635V126ZM636 125V49H634V125H636ZM634 125V211H636V125H634ZM634 211C634 213.209 632.209 215 630 215V217C633.314 217 636 214.314 636 211H634ZM636 49C636 45.6863 633.314 43 630 43V45C632.209 45 634 46.7909 634 49H636Z" fill="black"/>
<path d="M661.979 116.786C662.067 117.893 662.278 118.701 662.366 119.035C662.559 119.826 662.647 120.212 663.403 120.212C664.193 120.212 665.546 119.422 665.546 119.07C665.546 118.982 665.476 118.947 665.388 118.947C665.159 118.947 664.791 119.14 664.738 119.176C664.615 119.246 664.58 119.246 664.545 119.246C664.053 119.246 663.947 118.771 663.736 117.717C663.613 117.138 663.455 116.435 663.315 114.028C663.192 112.236 663.121 110.444 663.121 108.652C663.121 108.23 663.139 107.773 663.139 107.351C663.139 107.07 663.139 107 662.946 107C662.7 107 661.979 107.299 661.663 107.773L661.54 107.966C660.152 110.936 658.852 113.061 657.938 114.485C656.902 116.083 655.075 118.947 654.126 118.947C653.476 118.947 652.931 118.526 652.773 117.893C652.755 117.858 652.72 117.752 652.65 117.752C652.387 117.752 652 118.596 652 119.088C652 119.791 652.755 120.564 653.581 120.564C654.794 120.564 656.814 117.401 657.201 116.786H661.979ZM661.628 109.161V110.18C661.628 111.199 661.663 112.218 661.716 113.237C661.733 113.589 661.804 114.906 661.892 115.82H658.676C658.395 115.82 658.132 115.82 657.675 116.101C658.905 114.203 659.924 112.376 660.029 112.183C660.908 110.619 661.382 109.6 661.61 109.161H661.628Z" fill="black"/>
<path d="M630.144 11.2168H625.676L624.673 14H623.223L627.295 3.33594H628.525L632.605 14H631.162L630.144 11.2168ZM626.101 10.0596H629.727L627.91 5.07178L626.101 10.0596ZM633.506 9.97168C633.506 8.73633 633.792 7.75488 634.363 7.02734C634.934 6.29492 635.691 5.92871 636.633 5.92871C637.6 5.92871 638.354 6.27051 638.896 6.9541L638.962 6.0752H640.2V13.8096C640.2 14.835 639.895 15.6431 639.285 16.2339C638.679 16.8247 637.864 17.1201 636.838 17.1201C636.267 17.1201 635.708 16.998 635.161 16.7539C634.614 16.5098 634.197 16.1753 633.909 15.7505L634.612 14.9375C635.193 15.6553 635.903 16.0142 636.743 16.0142C637.402 16.0142 637.915 15.8286 638.281 15.4575C638.652 15.0864 638.838 14.564 638.838 13.8901V13.209C638.296 13.834 637.556 14.1465 636.619 14.1465C635.691 14.1465 634.939 13.7729 634.363 13.0259C633.792 12.2788 633.506 11.2607 633.506 9.97168ZM634.868 10.1255C634.868 11.019 635.051 11.7222 635.417 12.2349C635.784 12.7427 636.296 12.9966 636.956 12.9966C637.81 12.9966 638.438 12.6084 638.838 11.832V8.21387C638.423 7.45703 637.8 7.07861 636.97 7.07861C636.311 7.07861 635.796 7.33496 635.425 7.84766C635.054 8.36035 634.868 9.11963 634.868 10.1255ZM641.929 9.97168C641.929 8.73633 642.214 7.75488 642.786 7.02734C643.357 6.29492 644.114 5.92871 645.056 5.92871C646.023 5.92871 646.777 6.27051 647.319 6.9541L647.385 6.0752H648.623V13.8096C648.623 14.835 648.318 15.6431 647.708 16.2339C647.102 16.8247 646.287 17.1201 645.261 17.1201C644.69 17.1201 644.131 16.998 643.584 16.7539C643.037 16.5098 642.62 16.1753 642.332 15.7505L643.035 14.9375C643.616 15.6553 644.326 16.0142 645.166 16.0142C645.825 16.0142 646.338 15.8286 646.704 15.4575C647.075 15.0864 647.261 14.564 647.261 13.8901V13.209C646.719 13.834 645.979 14.1465 645.042 14.1465C644.114 14.1465 643.362 13.7729 642.786 13.0259C642.214 12.2788 641.929 11.2607 641.929 9.97168ZM643.291 10.1255C643.291 11.019 643.474 11.7222 643.84 12.2349C644.207 12.7427 644.719 12.9966 645.378 12.9966C646.233 12.9966 646.86 12.6084 647.261 11.832V8.21387C646.846 7.45703 646.223 7.07861 645.393 7.07861C644.734 7.07861 644.219 7.33496 643.848 7.84766C643.477 8.36035 643.291 9.11963 643.291 10.1255ZM654.504 7.29102C654.299 7.25684 654.077 7.23975 653.838 7.23975C652.949 7.23975 652.346 7.61816 652.029 8.375V14H650.674V6.0752H651.992L652.014 6.99072C652.458 6.28271 653.088 5.92871 653.904 5.92871C654.167 5.92871 654.368 5.96289 654.504 6.03125V7.29102ZM658.899 14.1465C657.825 14.1465 656.951 13.7949 656.277 13.0918C655.603 12.3838 655.266 11.439 655.266 10.2573V10.0083C655.266 9.22217 655.415 8.52148 655.713 7.90625C656.016 7.28613 656.436 6.80273 656.973 6.45605C657.515 6.10449 658.101 5.92871 658.73 5.92871C659.761 5.92871 660.562 6.26807 661.133 6.94678C661.704 7.62549 661.99 8.59717 661.99 9.86182V10.4258H656.621C656.641 11.207 656.868 11.8394 657.302 12.3228C657.742 12.8013 658.298 13.0405 658.972 13.0405C659.451 13.0405 659.856 12.9429 660.188 12.7476C660.52 12.5522 660.811 12.2935 661.06 11.9712L661.887 12.6157C661.223 13.6362 660.227 14.1465 658.899 14.1465ZM658.73 7.04199C658.184 7.04199 657.725 7.24219 657.354 7.64258C656.982 8.03809 656.753 8.59473 656.665 9.3125H660.635V9.20996C660.596 8.52148 660.41 7.98926 660.078 7.61328C659.746 7.23242 659.297 7.04199 658.73 7.04199ZM663.242 9.97168C663.242 8.73633 663.528 7.75488 664.099 7.02734C664.67 6.29492 665.427 5.92871 666.37 5.92871C667.336 5.92871 668.091 6.27051 668.633 6.9541L668.699 6.0752H669.937V13.8096C669.937 14.835 669.631 15.6431 669.021 16.2339C668.416 16.8247 667.6 17.1201 666.575 17.1201C666.003 17.1201 665.444 16.998 664.897 16.7539C664.351 16.5098 663.933 16.1753 663.645 15.7505L664.348 14.9375C664.929 15.6553 665.64 16.0142 666.479 16.0142C667.139 16.0142 667.651 15.8286 668.018 15.4575C668.389 15.0864 668.574 14.564 668.574 13.8901V13.209C668.032 13.834 667.292 14.1465 666.355 14.1465C665.427 14.1465 664.675 13.7729 664.099 13.0259C663.528 12.2788 663.242 11.2607 663.242 9.97168ZM664.604 10.1255C664.604 11.019 664.788 11.7222 665.154 12.2349C665.52 12.7427 666.033 12.9966 666.692 12.9966C667.546 12.9966 668.174 12.6084 668.574 11.832V8.21387C668.159 7.45703 667.537 7.07861 666.707 7.07861C666.047 7.07861 665.532 7.33496 665.161 7.84766C664.79 8.36035 664.604 9.11963 664.604 10.1255ZM676.88 14C676.802 13.8438 676.738 13.5654 676.689 13.165C676.06 13.8193 675.308 14.1465 674.434 14.1465C673.652 14.1465 673.01 13.9268 672.507 13.4873C672.009 13.043 671.76 12.4814 671.76 11.8027C671.76 10.9775 672.073 10.3379 672.698 9.88379C673.328 9.4248 674.211 9.19531 675.349 9.19531H676.667V8.57275C676.667 8.09912 676.526 7.72314 676.243 7.44482C675.959 7.16162 675.542 7.02002 674.99 7.02002C674.507 7.02002 674.102 7.14209 673.774 7.38623C673.447 7.63037 673.284 7.92578 673.284 8.27246H671.921C671.921 7.87695 672.061 7.49609 672.339 7.12988C672.622 6.75879 673.003 6.46582 673.481 6.25098C673.965 6.03613 674.495 5.92871 675.071 5.92871C675.984 5.92871 676.699 6.1582 677.217 6.61719C677.734 7.07129 678.003 7.69873 678.022 8.49951V12.147C678.022 12.8745 678.115 13.4531 678.301 13.8828V14H676.88ZM674.631 12.9673C675.056 12.9673 675.459 12.8574 675.84 12.6377C676.221 12.418 676.497 12.1323 676.667 11.7808V10.1548H675.605C673.945 10.1548 673.115 10.6406 673.115 11.6123C673.115 12.0371 673.257 12.3691 673.54 12.6084C673.823 12.8477 674.187 12.9673 674.631 12.9673ZM681.985 4.15625V6.0752H683.464V7.12256H681.985V12.0371C681.985 12.3545 682.051 12.5938 682.183 12.7549C682.314 12.9111 682.539 12.9893 682.856 12.9893C683.013 12.9893 683.228 12.96 683.501 12.9014V14C683.145 14.0977 682.798 14.1465 682.461 14.1465C681.855 14.1465 681.399 13.9634 681.091 13.5972C680.784 13.231 680.63 12.7109 680.63 12.0371V7.12256H679.187V6.0752H680.63V4.15625H681.985ZM688.342 14.1465C687.268 14.1465 686.394 13.7949 685.72 13.0918C685.046 12.3838 684.709 11.439 684.709 10.2573V10.0083C684.709 9.22217 684.858 8.52148 685.156 7.90625C685.459 7.28613 685.879 6.80273 686.416 6.45605C686.958 6.10449 687.544 5.92871 688.174 5.92871C689.204 5.92871 690.005 6.26807 690.576 6.94678C691.147 7.62549 691.433 8.59717 691.433 9.86182V10.4258H686.064C686.084 11.207 686.311 11.8394 686.746 12.3228C687.185 12.8013 687.742 13.0405 688.416 13.0405C688.894 13.0405 689.299 12.9429 689.631 12.7476C689.963 12.5522 690.254 12.2935 690.503 11.9712L691.331 12.6157C690.667 13.6362 689.67 14.1465 688.342 14.1465ZM688.174 7.04199C687.627 7.04199 687.168 7.24219 686.797 7.64258C686.426 8.03809 686.196 8.59473 686.108 9.3125H690.078V9.20996C690.039 8.52148 689.854 7.98926 689.521 7.61328C689.189 7.23242 688.74 7.04199 688.174 7.04199Z" fill="black"/>
<path d="M697.924 128.104C698.375 128.104 698.769 127.968 699.106 127.694C699.444 127.421 699.631 127.079 699.667 126.669H700.863C700.84 127.093 700.695 127.496 700.426 127.879C700.157 128.262 699.797 128.567 699.346 128.795C698.899 129.023 698.425 129.137 697.924 129.137C696.917 129.137 696.115 128.802 695.518 128.132C694.925 127.457 694.629 126.537 694.629 125.37V125.158C694.629 124.438 694.761 123.798 695.025 123.237C695.29 122.677 695.668 122.242 696.16 121.932C696.657 121.622 697.243 121.467 697.917 121.467C698.746 121.467 699.435 121.715 699.981 122.212C700.533 122.709 700.827 123.354 700.863 124.146H699.667C699.631 123.668 699.448 123.276 699.12 122.971C698.797 122.661 698.396 122.506 697.917 122.506C697.274 122.506 696.775 122.738 696.42 123.203C696.069 123.663 695.894 124.331 695.894 125.206V125.445C695.894 126.298 696.069 126.954 696.42 127.414C696.771 127.874 697.272 128.104 697.924 128.104ZM703.659 129H702.395V118.5H703.659V129ZM710.256 129C710.183 128.854 710.124 128.594 710.078 128.221C709.49 128.831 708.788 129.137 707.973 129.137C707.243 129.137 706.644 128.932 706.175 128.521C705.71 128.107 705.478 127.583 705.478 126.949C705.478 126.179 705.769 125.582 706.353 125.158C706.94 124.73 707.765 124.516 708.827 124.516H710.058V123.935C710.058 123.493 709.925 123.142 709.661 122.882C709.397 122.618 709.007 122.485 708.492 122.485C708.041 122.485 707.663 122.599 707.357 122.827C707.052 123.055 706.899 123.331 706.899 123.654H705.628C705.628 123.285 705.758 122.93 706.018 122.588C706.282 122.242 706.637 121.968 707.084 121.768C707.535 121.567 708.03 121.467 708.567 121.467C709.42 121.467 710.087 121.681 710.57 122.109C711.053 122.533 711.304 123.119 711.322 123.866V127.271C711.322 127.95 711.409 128.49 711.582 128.891V129H710.256ZM708.157 128.036C708.554 128.036 708.93 127.934 709.285 127.729C709.641 127.523 709.898 127.257 710.058 126.929V125.411H709.066C707.517 125.411 706.742 125.865 706.742 126.771C706.742 127.168 706.874 127.478 707.139 127.701C707.403 127.924 707.743 128.036 708.157 128.036ZM717.611 127.038C717.611 126.696 717.481 126.432 717.222 126.245C716.966 126.054 716.518 125.89 715.875 125.753C715.237 125.616 714.729 125.452 714.351 125.261C713.977 125.069 713.699 124.841 713.517 124.577C713.339 124.313 713.25 123.998 713.25 123.634C713.25 123.028 713.505 122.515 714.016 122.096C714.531 121.676 715.187 121.467 715.984 121.467C716.823 121.467 717.502 121.683 718.021 122.116C718.546 122.549 718.808 123.103 718.808 123.777H717.536C717.536 123.431 717.388 123.132 717.092 122.882C716.8 122.631 716.431 122.506 715.984 122.506C715.524 122.506 715.164 122.606 714.904 122.807C714.645 123.007 714.515 123.269 714.515 123.593C714.515 123.898 714.635 124.128 714.877 124.283C715.118 124.438 715.554 124.586 716.183 124.728C716.816 124.869 717.329 125.037 717.721 125.233C718.113 125.429 718.402 125.666 718.589 125.944C718.78 126.218 718.876 126.553 718.876 126.949C718.876 127.61 718.612 128.141 718.083 128.542C717.554 128.938 716.868 129.137 716.025 129.137C715.433 129.137 714.909 129.032 714.453 128.822C713.997 128.613 713.64 128.321 713.38 127.947C713.125 127.569 712.997 127.161 712.997 126.724H714.262C714.285 127.147 714.453 127.485 714.768 127.735C715.087 127.981 715.506 128.104 716.025 128.104C716.504 128.104 716.887 128.009 717.174 127.817C717.465 127.621 717.611 127.362 717.611 127.038ZM724.83 127.038C724.83 126.696 724.7 126.432 724.44 126.245C724.185 126.054 723.736 125.89 723.094 125.753C722.456 125.616 721.948 125.452 721.569 125.261C721.196 125.069 720.918 124.841 720.735 124.577C720.558 124.313 720.469 123.998 720.469 123.634C720.469 123.028 720.724 122.515 721.234 122.096C721.749 121.676 722.406 121.467 723.203 121.467C724.042 121.467 724.721 121.683 725.24 122.116C725.764 122.549 726.026 123.103 726.026 123.777H724.755C724.755 123.431 724.607 123.132 724.311 122.882C724.019 122.631 723.65 122.506 723.203 122.506C722.743 122.506 722.383 122.606 722.123 122.807C721.863 123.007 721.733 123.269 721.733 123.593C721.733 123.898 721.854 124.128 722.096 124.283C722.337 124.438 722.772 124.586 723.401 124.728C724.035 124.869 724.548 125.037 724.939 125.233C725.331 125.429 725.621 125.666 725.808 125.944C725.999 126.218 726.095 126.553 726.095 126.949C726.095 127.61 725.83 128.141 725.302 128.542C724.773 128.938 724.087 129.137 723.244 129.137C722.652 129.137 722.128 129.032 721.672 128.822C721.216 128.613 720.858 128.321 720.599 127.947C720.343 127.569 720.216 127.161 720.216 126.724H721.48C721.503 127.147 721.672 127.485 721.986 127.735C722.305 127.981 722.725 128.104 723.244 128.104C723.723 128.104 724.105 128.009 724.393 127.817C724.684 127.621 724.83 127.362 724.83 127.038ZM731.146 129V119.047H734.633C735.84 119.047 736.757 119.279 737.381 119.744C738.005 120.204 738.317 120.881 738.317 121.774C738.317 122.262 738.192 122.693 737.941 123.066C737.691 123.436 737.342 123.707 736.896 123.88C737.406 124.007 737.807 124.265 738.099 124.652C738.395 125.04 738.543 125.514 738.543 126.074C738.543 127.031 738.238 127.756 737.627 128.248C737.016 128.74 736.146 128.991 735.016 129H731.146ZM733.197 124.666V127.353H734.954C735.437 127.353 735.813 127.239 736.082 127.011C736.355 126.778 736.492 126.459 736.492 126.054C736.492 125.142 736.021 124.68 735.077 124.666H733.197ZM733.197 123.217H734.715C735.749 123.199 736.267 122.786 736.267 121.979C736.267 121.528 736.134 121.205 735.87 121.009C735.61 120.808 735.198 120.708 734.633 120.708H733.197V123.217Z" fill="#B33535"/>
<path d="M574.924 68.1045C575.375 68.1045 575.769 67.9678 576.106 67.6943C576.444 67.4209 576.631 67.0791 576.667 66.6689H577.863C577.84 67.0928 577.695 67.4961 577.426 67.8789C577.157 68.2617 576.797 68.5671 576.346 68.7949C575.899 69.0228 575.425 69.1367 574.924 69.1367C573.917 69.1367 573.115 68.8018 572.518 68.1318C571.925 67.4574 571.629 66.5368 571.629 65.3701V65.1582C571.629 64.4382 571.761 63.7979 572.025 63.2373C572.29 62.6768 572.668 62.2415 573.16 61.9316C573.657 61.6217 574.243 61.4668 574.917 61.4668C575.746 61.4668 576.435 61.7152 576.981 62.2119C577.533 62.7087 577.827 63.3535 577.863 64.1465H576.667C576.631 63.668 576.448 63.276 576.12 62.9707C575.797 62.6608 575.396 62.5059 574.917 62.5059C574.274 62.5059 573.775 62.7383 573.42 63.2031C573.069 63.6634 572.894 64.3311 572.894 65.2061V65.4453C572.894 66.2975 573.069 66.9538 573.42 67.4141C573.771 67.8743 574.272 68.1045 574.924 68.1045ZM580.659 69H579.395V58.5H580.659V69ZM587.256 69C587.183 68.8542 587.124 68.5944 587.078 68.2207C586.49 68.8314 585.788 69.1367 584.973 69.1367C584.243 69.1367 583.644 68.9316 583.175 68.5215C582.71 68.1068 582.478 67.5827 582.478 66.9492C582.478 66.179 582.769 65.582 583.353 65.1582C583.94 64.7298 584.765 64.5156 585.827 64.5156H587.058V63.9346C587.058 63.4925 586.925 63.1416 586.661 62.8818C586.397 62.6175 586.007 62.4854 585.492 62.4854C585.041 62.4854 584.663 62.5993 584.357 62.8271C584.052 63.055 583.899 63.3307 583.899 63.6543H582.628C582.628 63.2852 582.758 62.9297 583.018 62.5879C583.282 62.2415 583.637 61.9681 584.084 61.7676C584.535 61.5671 585.03 61.4668 585.567 61.4668C586.42 61.4668 587.087 61.681 587.57 62.1094C588.053 62.5332 588.304 63.1188 588.322 63.8662V67.2705C588.322 67.9495 588.409 68.4896 588.582 68.8906V69H587.256ZM585.157 68.0361C585.554 68.0361 585.93 67.9336 586.285 67.7285C586.641 67.5234 586.898 67.2568 587.058 66.9287V65.4111H586.066C584.517 65.4111 583.742 65.8646 583.742 66.7715C583.742 67.168 583.874 67.4779 584.139 67.7012C584.403 67.9245 584.743 68.0361 585.157 68.0361ZM594.611 67.0381C594.611 66.6963 594.481 66.432 594.222 66.2451C593.966 66.0537 593.518 65.8896 592.875 65.7529C592.237 65.6162 591.729 65.4521 591.351 65.2607C590.977 65.0693 590.699 64.8415 590.517 64.5771C590.339 64.3128 590.25 63.9984 590.25 63.6338C590.25 63.0277 590.505 62.515 591.016 62.0957C591.531 61.6764 592.187 61.4668 592.984 61.4668C593.823 61.4668 594.502 61.6833 595.021 62.1162C595.546 62.5492 595.808 63.1029 595.808 63.7773H594.536C594.536 63.431 594.388 63.1325 594.092 62.8818C593.8 62.6312 593.431 62.5059 592.984 62.5059C592.524 62.5059 592.164 62.6061 591.904 62.8066C591.645 63.0072 591.515 63.2692 591.515 63.5928C591.515 63.8981 591.635 64.1283 591.877 64.2832C592.118 64.4382 592.554 64.5863 593.183 64.7275C593.816 64.8688 594.329 65.0374 594.721 65.2334C595.113 65.4294 595.402 65.6663 595.589 65.9443C595.78 66.2178 595.876 66.5527 595.876 66.9492C595.876 67.61 595.612 68.141 595.083 68.542C594.554 68.9385 593.868 69.1367 593.025 69.1367C592.433 69.1367 591.909 69.0319 591.453 68.8223C590.997 68.6126 590.64 68.321 590.38 67.9473C590.125 67.569 589.997 67.1611 589.997 66.7236H591.262C591.285 67.1475 591.453 67.4847 591.768 67.7354C592.087 67.9814 592.506 68.1045 593.025 68.1045C593.504 68.1045 593.887 68.0088 594.174 67.8174C594.465 67.6214 594.611 67.3617 594.611 67.0381ZM601.83 67.0381C601.83 66.6963 601.7 66.432 601.44 66.2451C601.185 66.0537 600.736 65.8896 600.094 65.7529C599.456 65.6162 598.948 65.4521 598.569 65.2607C598.196 65.0693 597.918 64.8415 597.735 64.5771C597.558 64.3128 597.469 63.9984 597.469 63.6338C597.469 63.0277 597.724 62.515 598.234 62.0957C598.749 61.6764 599.406 61.4668 600.203 61.4668C601.042 61.4668 601.721 61.6833 602.24 62.1162C602.764 62.5492 603.026 63.1029 603.026 63.7773H601.755C601.755 63.431 601.607 63.1325 601.311 62.8818C601.019 62.6312 600.65 62.5059 600.203 62.5059C599.743 62.5059 599.383 62.6061 599.123 62.8066C598.863 63.0072 598.733 63.2692 598.733 63.5928C598.733 63.8981 598.854 64.1283 599.096 64.2832C599.337 64.4382 599.772 64.5863 600.401 64.7275C601.035 64.8688 601.548 65.0374 601.939 65.2334C602.331 65.4294 602.621 65.6663 602.808 65.9443C602.999 66.2178 603.095 66.5527 603.095 66.9492C603.095 67.61 602.83 68.141 602.302 68.542C601.773 68.9385 601.087 69.1367 600.244 69.1367C599.652 69.1367 599.128 69.0319 598.672 68.8223C598.216 68.6126 597.858 68.321 597.599 67.9473C597.343 67.569 597.216 67.1611 597.216 66.7236H598.48C598.503 67.1475 598.672 67.4847 598.986 67.7354C599.305 67.9814 599.725 68.1045 600.244 68.1045C600.723 68.1045 601.105 68.0088 601.393 67.8174C601.684 67.6214 601.83 67.3617 601.83 67.0381ZM613.766 66.9492H610.17L609.486 69H607.306L611.011 59.0469H612.911L616.637 69H614.456L613.766 66.9492ZM610.724 65.2881H613.212L611.961 61.5625L610.724 65.2881Z" fill="#355FB3"/>
<path d="M574.924 190.104C575.375 190.104 575.769 189.968 576.106 189.694C576.444 189.421 576.631 189.079 576.667 188.669H577.863C577.84 189.093 577.695 189.496 577.426 189.879C577.157 190.262 576.797 190.567 576.346 190.795C575.899 191.023 575.425 191.137 574.924 191.137C573.917 191.137 573.115 190.802 572.518 190.132C571.925 189.457 571.629 188.537 571.629 187.37V187.158C571.629 186.438 571.761 185.798 572.025 185.237C572.29 184.677 572.668 184.242 573.16 183.932C573.657 183.622 574.243 183.467 574.917 183.467C575.746 183.467 576.435 183.715 576.981 184.212C577.533 184.709 577.827 185.354 577.863 186.146H576.667C576.631 185.668 576.448 185.276 576.12 184.971C575.797 184.661 575.396 184.506 574.917 184.506C574.274 184.506 573.775 184.738 573.42 185.203C573.069 185.663 572.894 186.331 572.894 187.206V187.445C572.894 188.298 573.069 188.954 573.42 189.414C573.771 189.874 574.272 190.104 574.924 190.104ZM580.659 191H579.395V180.5H580.659V191ZM587.256 191C587.183 190.854 587.124 190.594 587.078 190.221C586.49 190.831 585.788 191.137 584.973 191.137C584.243 191.137 583.644 190.932 583.175 190.521C582.71 190.107 582.478 189.583 582.478 188.949C582.478 188.179 582.769 187.582 583.353 187.158C583.94 186.73 584.765 186.516 585.827 186.516H587.058V185.935C587.058 185.493 586.925 185.142 586.661 184.882C586.397 184.618 586.007 184.485 585.492 184.485C585.041 184.485 584.663 184.599 584.357 184.827C584.052 185.055 583.899 185.331 583.899 185.654H582.628C582.628 185.285 582.758 184.93 583.018 184.588C583.282 184.242 583.637 183.968 584.084 183.768C584.535 183.567 585.03 183.467 585.567 183.467C586.42 183.467 587.087 183.681 587.57 184.109C588.053 184.533 588.304 185.119 588.322 185.866V189.271C588.322 189.95 588.409 190.49 588.582 190.891V191H587.256ZM585.157 190.036C585.554 190.036 585.93 189.934 586.285 189.729C586.641 189.523 586.898 189.257 587.058 188.929V187.411H586.066C584.517 187.411 583.742 187.865 583.742 188.771C583.742 189.168 583.874 189.478 584.139 189.701C584.403 189.924 584.743 190.036 585.157 190.036ZM594.611 189.038C594.611 188.696 594.481 188.432 594.222 188.245C593.966 188.054 593.518 187.89 592.875 187.753C592.237 187.616 591.729 187.452 591.351 187.261C590.977 187.069 590.699 186.841 590.517 186.577C590.339 186.313 590.25 185.998 590.25 185.634C590.25 185.028 590.505 184.515 591.016 184.096C591.531 183.676 592.187 183.467 592.984 183.467C593.823 183.467 594.502 183.683 595.021 184.116C595.546 184.549 595.808 185.103 595.808 185.777H594.536C594.536 185.431 594.388 185.132 594.092 184.882C593.8 184.631 593.431 184.506 592.984 184.506C592.524 184.506 592.164 184.606 591.904 184.807C591.645 185.007 591.515 185.269 591.515 185.593C591.515 185.898 591.635 186.128 591.877 186.283C592.118 186.438 592.554 186.586 593.183 186.728C593.816 186.869 594.329 187.037 594.721 187.233C595.113 187.429 595.402 187.666 595.589 187.944C595.78 188.218 595.876 188.553 595.876 188.949C595.876 189.61 595.612 190.141 595.083 190.542C594.554 190.938 593.868 191.137 593.025 191.137C592.433 191.137 591.909 191.032 591.453 190.822C590.997 190.613 590.64 190.321 590.38 189.947C590.125 189.569 589.997 189.161 589.997 188.724H591.262C591.285 189.147 591.453 189.485 591.768 189.735C592.087 189.981 592.506 190.104 593.025 190.104C593.504 190.104 593.887 190.009 594.174 189.817C594.465 189.621 594.611 189.362 594.611 189.038ZM601.83 189.038C601.83 188.696 601.7 188.432 601.44 188.245C601.185 188.054 600.736 187.89 600.094 187.753C599.456 187.616 598.948 187.452 598.569 187.261C598.196 187.069 597.918 186.841 597.735 186.577C597.558 186.313 597.469 185.998 597.469 185.634C597.469 185.028 597.724 184.515 598.234 184.096C598.749 183.676 599.406 183.467 600.203 183.467C601.042 183.467 601.721 183.683 602.24 184.116C602.764 184.549 603.026 185.103 603.026 185.777H601.755C601.755 185.431 601.607 185.132 601.311 184.882C601.019 184.631 600.65 184.506 600.203 184.506C599.743 184.506 599.383 184.606 599.123 184.807C598.863 185.007 598.733 185.269 598.733 185.593C598.733 185.898 598.854 186.128 599.096 186.283C599.337 186.438 599.772 186.586 600.401 186.728C601.035 186.869 601.548 187.037 601.939 187.233C602.331 187.429 602.621 187.666 602.808 187.944C602.999 188.218 603.095 188.553 603.095 188.949C603.095 189.61 602.83 190.141 602.302 190.542C601.773 190.938 601.087 191.137 600.244 191.137C599.652 191.137 599.128 191.032 598.672 190.822C598.216 190.613 597.858 190.321 597.599 189.947C597.343 189.569 597.216 189.161 597.216 188.724H598.48C598.503 189.147 598.672 189.485 598.986 189.735C599.305 189.981 599.725 190.104 600.244 190.104C600.723 190.104 601.105 190.009 601.393 189.817C601.684 189.621 601.83 189.362 601.83 189.038ZM613.766 188.949H610.17L609.486 191H607.306L611.011 181.047H612.911L616.637 191H614.456L613.766 188.949ZM610.724 187.288H613.212L611.961 183.562L610.724 187.288Z" fill="#355FB3"/>
<path d="M574.924 150.104C575.375 150.104 575.769 149.968 576.106 149.694C576.444 149.421 576.631 149.079 576.667 148.669H577.863C577.84 149.093 577.695 149.496 577.426 149.879C577.157 150.262 576.797 150.567 576.346 150.795C575.899 151.023 575.425 151.137 574.924 151.137C573.917 151.137 573.115 150.802 572.518 150.132C571.925 149.457 571.629 148.537 571.629 147.37V147.158C571.629 146.438 571.761 145.798 572.025 145.237C572.29 144.677 572.668 144.242 573.16 143.932C573.657 143.622 574.243 143.467 574.917 143.467C575.746 143.467 576.435 143.715 576.981 144.212C577.533 144.709 577.827 145.354 577.863 146.146H576.667C576.631 145.668 576.448 145.276 576.12 144.971C575.797 144.661 575.396 144.506 574.917 144.506C574.274 144.506 573.775 144.738 573.42 145.203C573.069 145.663 572.894 146.331 572.894 147.206V147.445C572.894 148.298 573.069 148.954 573.42 149.414C573.771 149.874 574.272 150.104 574.924 150.104ZM580.659 151H579.395V140.5H580.659V151ZM587.256 151C587.183 150.854 587.124 150.594 587.078 150.221C586.49 150.831 585.788 151.137 584.973 151.137C584.243 151.137 583.644 150.932 583.175 150.521C582.71 150.107 582.478 149.583 582.478 148.949C582.478 148.179 582.769 147.582 583.353 147.158C583.94 146.73 584.765 146.516 585.827 146.516H587.058V145.935C587.058 145.493 586.925 145.142 586.661 144.882C586.397 144.618 586.007 144.485 585.492 144.485C585.041 144.485 584.663 144.599 584.357 144.827C584.052 145.055 583.899 145.331 583.899 145.654H582.628C582.628 145.285 582.758 144.93 583.018 144.588C583.282 144.242 583.637 143.968 584.084 143.768C584.535 143.567 585.03 143.467 585.567 143.467C586.42 143.467 587.087 143.681 587.57 144.109C588.053 144.533 588.304 145.119 588.322 145.866V149.271C588.322 149.95 588.409 150.49 588.582 150.891V151H587.256ZM585.157 150.036C585.554 150.036 585.93 149.934 586.285 149.729C586.641 149.523 586.898 149.257 587.058 148.929V147.411H586.066C584.517 147.411 583.742 147.865 583.742 148.771C583.742 149.168 583.874 149.478 584.139 149.701C584.403 149.924 584.743 150.036 585.157 150.036ZM594.611 149.038C594.611 148.696 594.481 148.432 594.222 148.245C593.966 148.054 593.518 147.89 592.875 147.753C592.237 147.616 591.729 147.452 591.351 147.261C590.977 147.069 590.699 146.841 590.517 146.577C590.339 146.313 590.25 145.998 590.25 145.634C590.25 145.028 590.505 144.515 591.016 144.096C591.531 143.676 592.187 143.467 592.984 143.467C593.823 143.467 594.502 143.683 595.021 144.116C595.546 144.549 595.808 145.103 595.808 145.777H594.536C594.536 145.431 594.388 145.132 594.092 144.882C593.8 144.631 593.431 144.506 592.984 144.506C592.524 144.506 592.164 144.606 591.904 144.807C591.645 145.007 591.515 145.269 591.515 145.593C591.515 145.898 591.635 146.128 591.877 146.283C592.118 146.438 592.554 146.586 593.183 146.728C593.816 146.869 594.329 147.037 594.721 147.233C595.113 147.429 595.402 147.666 595.589 147.944C595.78 148.218 595.876 148.553 595.876 148.949C595.876 149.61 595.612 150.141 595.083 150.542C594.554 150.938 593.868 151.137 593.025 151.137C592.433 151.137 591.909 151.032 591.453 150.822C590.997 150.613 590.64 150.321 590.38 149.947C590.125 149.569 589.997 149.161 589.997 148.724H591.262C591.285 149.147 591.453 149.485 591.768 149.735C592.087 149.981 592.506 150.104 593.025 150.104C593.504 150.104 593.887 150.009 594.174 149.817C594.465 149.621 594.611 149.362 594.611 149.038ZM601.83 149.038C601.83 148.696 601.7 148.432 601.44 148.245C601.185 148.054 600.736 147.89 600.094 147.753C599.456 147.616 598.948 147.452 598.569 147.261C598.196 147.069 597.918 146.841 597.735 146.577C597.558 146.313 597.469 145.998 597.469 145.634C597.469 145.028 597.724 144.515 598.234 144.096C598.749 143.676 599.406 143.467 600.203 143.467C601.042 143.467 601.721 143.683 602.24 144.116C602.764 144.549 603.026 145.103 603.026 145.777H601.755C601.755 145.431 601.607 145.132 601.311 144.882C601.019 144.631 600.65 144.506 600.203 144.506C599.743 144.506 599.383 144.606 599.123 144.807C598.863 145.007 598.733 145.269 598.733 145.593C598.733 145.898 598.854 146.128 599.096 146.283C599.337 146.438 599.772 146.586 600.401 146.728C601.035 146.869 601.548 147.037 601.939 147.233C602.331 147.429 602.621 147.666 602.808 147.944C602.999 148.218 603.095 148.553 603.095 148.949C603.095 149.61 602.83 150.141 602.302 150.542C601.773 150.938 601.087 151.137 600.244 151.137C599.652 151.137 599.128 151.032 598.672 150.822C598.216 150.613 597.858 150.321 597.599 149.947C597.343 149.569 597.216 149.161 597.216 148.724H598.48C598.503 149.147 598.672 149.485 598.986 149.735C599.305 149.981 599.725 150.104 600.244 150.104C600.723 150.104 601.105 150.009 601.393 149.817C601.684 149.621 601.83 149.362 601.83 149.038ZM613.766 148.949H610.17L609.486 151H607.306L611.011 141.047H612.911L616.637 151H614.456L613.766 148.949ZM610.724 147.288H613.212L611.961 143.562L610.724 147.288Z" fill="#355FB3"/>
<path d="M574.924 92.1045C575.375 92.1045 575.769 91.9678 576.106 91.6943C576.444 91.4209 576.631 91.0791 576.667 90.6689H577.863C577.84 91.0928 577.695 91.4961 577.426 91.8789C577.157 92.2617 576.797 92.5671 576.346 92.7949C575.899 93.0228 575.425 93.1367 574.924 93.1367C573.917 93.1367 573.115 92.8018 572.518 92.1318C571.925 91.4574 571.629 90.5368 571.629 89.3701V89.1582C571.629 88.4382 571.761 87.7979 572.025 87.2373C572.29 86.6768 572.668 86.2415 573.16 85.9316C573.657 85.6217 574.243 85.4668 574.917 85.4668C575.746 85.4668 576.435 85.7152 576.981 86.2119C577.533 86.7087 577.827 87.3535 577.863 88.1465H576.667C576.631 87.668 576.448 87.276 576.12 86.9707C575.797 86.6608 575.396 86.5059 574.917 86.5059C574.274 86.5059 573.775 86.7383 573.42 87.2031C573.069 87.6634 572.894 88.3311 572.894 89.2061V89.4453C572.894 90.2975 573.069 90.9538 573.42 91.4141C573.771 91.8743 574.272 92.1045 574.924 92.1045ZM580.659 93H579.395V82.5H580.659V93ZM587.256 93C587.183 92.8542 587.124 92.5944 587.078 92.2207C586.49 92.8314 585.788 93.1367 584.973 93.1367C584.243 93.1367 583.644 92.9316 583.175 92.5215C582.71 92.1068 582.478 91.5827 582.478 90.9492C582.478 90.179 582.769 89.582 583.353 89.1582C583.94 88.7298 584.765 88.5156 585.827 88.5156H587.058V87.9346C587.058 87.4925 586.925 87.1416 586.661 86.8818C586.397 86.6175 586.007 86.4854 585.492 86.4854C585.041 86.4854 584.663 86.5993 584.357 86.8271C584.052 87.055 583.899 87.3307 583.899 87.6543H582.628C582.628 87.2852 582.758 86.9297 583.018 86.5879C583.282 86.2415 583.637 85.9681 584.084 85.7676C584.535 85.5671 585.03 85.4668 585.567 85.4668C586.42 85.4668 587.087 85.681 587.57 86.1094C588.053 86.5332 588.304 87.1188 588.322 87.8662V91.2705C588.322 91.9495 588.409 92.4896 588.582 92.8906V93H587.256ZM585.157 92.0361C585.554 92.0361 585.93 91.9336 586.285 91.7285C586.641 91.5234 586.898 91.2568 587.058 90.9287V89.4111H586.066C584.517 89.4111 583.742 89.8646 583.742 90.7715C583.742 91.168 583.874 91.4779 584.139 91.7012C584.403 91.9245 584.743 92.0361 585.157 92.0361ZM594.611 91.0381C594.611 90.6963 594.481 90.432 594.222 90.2451C593.966 90.0537 593.518 89.8896 592.875 89.7529C592.237 89.6162 591.729 89.4521 591.351 89.2607C590.977 89.0693 590.699 88.8415 590.517 88.5771C590.339 88.3128 590.25 87.9984 590.25 87.6338C590.25 87.0277 590.505 86.515 591.016 86.0957C591.531 85.6764 592.187 85.4668 592.984 85.4668C593.823 85.4668 594.502 85.6833 595.021 86.1162C595.546 86.5492 595.808 87.1029 595.808 87.7773H594.536C594.536 87.431 594.388 87.1325 594.092 86.8818C593.8 86.6312 593.431 86.5059 592.984 86.5059C592.524 86.5059 592.164 86.6061 591.904 86.8066C591.645 87.0072 591.515 87.2692 591.515 87.5928C591.515 87.8981 591.635 88.1283 591.877 88.2832C592.118 88.4382 592.554 88.5863 593.183 88.7275C593.816 88.8688 594.329 89.0374 594.721 89.2334C595.113 89.4294 595.402 89.6663 595.589 89.9443C595.78 90.2178 595.876 90.5527 595.876 90.9492C595.876 91.61 595.612 92.141 595.083 92.542C594.554 92.9385 593.868 93.1367 593.025 93.1367C592.433 93.1367 591.909 93.0319 591.453 92.8223C590.997 92.6126 590.64 92.321 590.38 91.9473C590.125 91.569 589.997 91.1611 589.997 90.7236H591.262C591.285 91.1475 591.453 91.4847 591.768 91.7354C592.087 91.9814 592.506 92.1045 593.025 92.1045C593.504 92.1045 593.887 92.0088 594.174 91.8174C594.465 91.6214 594.611 91.3617 594.611 91.0381ZM601.83 91.0381C601.83 90.6963 601.7 90.432 601.44 90.2451C601.185 90.0537 600.736 89.8896 600.094 89.7529C599.456 89.6162 598.948 89.4521 598.569 89.2607C598.196 89.0693 597.918 88.8415 597.735 88.5771C597.558 88.3128 597.469 87.9984 597.469 87.6338C597.469 87.0277 597.724 86.515 598.234 86.0957C598.749 85.6764 599.406 85.4668 600.203 85.4668C601.042 85.4668 601.721 85.6833 602.24 86.1162C602.764 86.5492 603.026 87.1029 603.026 87.7773H601.755C601.755 87.431 601.607 87.1325 601.311 86.8818C601.019 86.6312 600.65 86.5059 600.203 86.5059C599.743 86.5059 599.383 86.6061 599.123 86.8066C598.863 87.0072 598.733 87.2692 598.733 87.5928C598.733 87.8981 598.854 88.1283 599.096 88.2832C599.337 88.4382 599.772 88.5863 600.401 88.7275C601.035 88.8688 601.548 89.0374 601.939 89.2334C602.331 89.4294 602.621 89.6663 602.808 89.9443C602.999 90.2178 603.095 90.5527 603.095 90.9492C603.095 91.61 602.83 92.141 602.302 92.542C601.773 92.9385 601.087 93.1367 600.244 93.1367C599.652 93.1367 599.128 93.0319 598.672 92.8223C598.216 92.6126 597.858 92.321 597.599 91.9473C597.343 91.569 597.216 91.1611 597.216 90.7236H598.48C598.503 91.1475 598.672 91.4847 598.986 91.7354C599.305 91.9814 599.725 92.1045 600.244 92.1045C600.723 92.1045 601.105 92.0088 601.393 91.8174C601.684 91.6214 601.83 91.3617 601.83 91.0381ZM608.146 93V83.0469H611.633C612.84 83.0469 613.757 83.2793 614.381 83.7441C615.005 84.2044 615.317 84.8812 615.317 85.7744C615.317 86.262 615.192 86.6927 614.941 87.0664C614.691 87.4355 614.342 87.7067 613.896 87.8799C614.406 88.0075 614.807 88.265 615.099 88.6523C615.395 89.0397 615.543 89.5137 615.543 90.0742C615.543 91.0312 615.238 91.7559 614.627 92.248C614.016 92.7402 613.146 92.9909 612.016 93H608.146ZM610.197 88.666V91.3525H611.954C612.437 91.3525 612.813 91.2386 613.082 91.0107C613.355 90.7783 613.492 90.4593 613.492 90.0537C613.492 89.1423 613.021 88.6797 612.077 88.666H610.197ZM610.197 87.2168H611.715C612.749 87.1986 613.267 86.7861 613.267 85.9795C613.267 85.5283 613.134 85.2048 612.87 85.0088C612.61 84.8083 612.198 84.708 611.633 84.708H610.197V87.2168Z" fill="#B33535"/>
</svg>
