<svg width="462" height="201" viewBox="0 0 462 201" fill="none" xmlns="http://www.w3.org/2000/svg">
<path d="M424 115.5L424.837 116.047L425.197 115.496L424.834 114.948L424 115.5ZM380.421 137.725L379.967 136.834L380.421 137.725ZM382.88 178.413L382.043 177.866L382.88 178.413ZM357.885 40L357.885 39L357.885 40ZM382.898 53.4355L383.731 52.8834L382.898 53.4355ZM262 41L264.446 41L264.446 39L262 39L262 41ZM266.403 41L271.295 41L271.295 39L266.403 39L266.403 41ZM273.252 41L278.144 41L278.144 39L273.252 39L273.252 41ZM280.101 41L284.993 41L284.993 39L280.101 39L280.101 41ZM286.95 41L291.842 41L291.842 39L286.95 39L286.95 41ZM293.799 41L298.691 41L298.691 39L293.799 39L293.799 41ZM300.648 41L305.54 41L305.54 39L300.648 39L300.648 41ZM307.497 41L312.389 41L312.389 39L307.497 39L307.497 41ZM314.346 41L319.238 41L319.238 39L314.346 39L314.346 41ZM321.195 41L326.087 41L326.087 39L321.195 39L321.195 41ZM328.043 41L332.936 41L332.936 39L328.043 39L328.043 41ZM334.892 41L339.785 41L339.785 39L334.892 39L334.892 41ZM341.741 41L346.633 41L346.633 39L341.741 39L341.741 41ZM348.59 41L353.482 41L353.482 39L348.59 39L348.59 41ZM355.439 41L357.885 41L357.885 39L355.439 39L355.439 41ZM357.885 41C358.741 41 359.592 41.0377 360.435 41.1121L360.611 39.1198C359.709 39.0403 358.8 39 357.885 39L357.885 41ZM362.461 41.3628C364.151 41.6328 365.805 42.0507 367.406 42.6069L368.062 40.7179C366.352 40.1232 364.584 39.6765 362.777 39.3879L362.461 41.3628ZM369.309 43.3448C370.874 44.0157 372.378 44.8232 373.801 45.7577L374.899 44.0857C373.377 43.0869 371.77 42.2238 370.097 41.5066L369.309 43.3448ZM375.468 46.9374C376.815 47.9644 378.077 49.1127 379.235 50.3729L380.707 49.0195C379.469 47.6722 378.12 46.4446 376.68 45.3468L375.468 46.9374ZM380.563 51.9237C381.09 52.5859 381.591 53.2743 382.064 53.9877L383.731 52.8834C383.227 52.1209 382.691 51.3852 382.127 50.6773L380.563 51.9237ZM382.064 53.9877L383.398 56.0028L385.066 54.8985L383.731 52.8834L382.064 53.9877ZM384.466 57.6148L387.135 61.645L388.803 60.5407L386.134 56.5105L384.466 57.6148ZM388.203 63.2571L390.872 67.2872L392.539 66.1829L389.87 62.1528L388.203 63.2571ZM391.939 68.8993L394.608 72.9294L396.276 71.8251L393.607 67.795L391.939 68.8993ZM395.676 74.5415L398.345 78.5717L400.012 77.4674L397.343 73.4372L395.676 74.5415ZM399.412 80.1837L402.081 84.2139L403.749 83.1096L401.08 79.0794L399.412 80.1837ZM403.149 85.8259L405.818 89.8561L407.485 88.7518L404.816 84.7217L403.149 85.8259ZM406.885 91.4682L409.554 95.4983L411.222 94.394L408.553 90.3639L406.885 91.4682ZM410.622 97.1104L413.291 101.141L414.959 100.036L412.29 96.0061L410.622 97.1104ZM414.359 102.753L417.028 106.783L418.695 105.678L416.026 101.648L414.359 102.753ZM418.095 108.395L420.764 112.425L422.432 111.321L419.763 107.291L418.095 108.395ZM421.832 114.037L423.166 116.052L424.834 114.948L423.499 112.933L421.832 114.037ZM330 193H332.479V191H330V193ZM334.463 193H339.421V191H334.463V193ZM341.405 193H346.364V191H341.405V193ZM348.347 193H353.306V191H348.347V193ZM355.289 193H357.768V191H355.289V193ZM357.768 193C358.689 193 359.603 192.959 360.51 192.879L360.334 190.887C359.485 190.962 358.629 191 357.768 191V193ZM362.689 192.607C364.507 192.315 366.286 191.863 368.005 191.261L367.345 189.374C365.736 189.936 364.073 190.359 362.372 190.633L362.689 192.607ZM370.051 190.463C371.732 189.737 373.347 188.864 374.874 187.854L373.77 186.186C372.342 187.131 370.831 187.948 369.258 188.627L370.051 190.463ZM376.661 186.578C378.106 185.468 379.457 184.226 380.697 182.865L379.217 181.519C378.058 182.793 376.794 183.954 375.443 184.992L376.661 186.578ZM382.116 181.189C382.679 180.474 383.214 179.73 383.717 178.96L382.043 177.866C381.572 178.587 381.072 179.282 380.545 179.951L382.116 181.189ZM383.717 178.96L385.052 176.918L383.378 175.823L382.043 177.866L383.717 178.96ZM386.121 175.283L388.791 171.198L387.116 170.104L384.446 174.189L386.121 175.283ZM389.859 169.564L392.529 165.479L390.855 164.385L388.185 168.47L389.859 169.564ZM393.597 163.845L396.267 159.759L394.593 158.665L391.923 162.75L393.597 163.845ZM397.335 158.125L400.005 154.04L398.331 152.946L395.661 157.031L397.335 158.125ZM401.073 152.406L403.743 148.321L402.069 147.226L399.399 151.312L401.073 152.406ZM404.811 146.687L407.481 142.601L405.807 141.507L403.137 145.592L404.811 146.687ZM408.549 140.967L411.22 136.882L409.545 135.788L406.875 139.873L408.549 140.967ZM412.288 135.248L414.958 131.163L413.284 130.068L410.613 134.154L412.288 135.248ZM416.026 129.528L418.696 125.443L417.022 124.349L414.352 128.434L416.026 129.528ZM419.764 123.809L422.434 119.724L420.76 118.63L418.09 122.715L419.764 123.809ZM423.502 118.09L424.837 116.047L423.163 114.953L421.828 116.996L423.502 118.09ZM265 142H267.424V140H265V142ZM269.362 142H274.21V140H269.362V142ZM276.149 142H280.996V140H276.149V142ZM282.935 142H287.782V140H282.935V142ZM289.721 142H294.568V140H289.721V142ZM296.507 142H301.354V140H296.507V142ZM303.293 142H308.14V140H303.293V142ZM310.079 142H314.926V140H310.079V142ZM316.865 142H321.712V140H316.865V142ZM323.651 142H328.499V140H323.651V142ZM330.437 142H335.285V140H330.437V142ZM337.224 142H342.071V140H337.224V142ZM344.01 142H348.857V140H344.01V142ZM350.796 142H355.643V140H350.796V142ZM357.582 142H362.429V140H357.582V142ZM364.368 142H366.792V140H364.368V142ZM366.792 142C367.664 142 368.534 141.963 369.399 141.89L369.231 139.897C368.421 139.966 367.608 140 366.792 140V142ZM371.473 141.644C373.195 141.382 374.891 140.974 376.544 140.426L375.915 138.528C374.368 139.04 372.781 139.421 371.171 139.667L371.473 141.644ZM378.503 139.703C379.307 139.375 380.099 139.012 380.876 138.616L379.967 136.834C379.24 137.205 378.5 137.544 377.747 137.851L378.503 139.703ZM380.876 138.616L383.099 137.482L382.191 135.7L379.967 136.834L380.876 138.616ZM384.878 136.575L389.325 134.307L388.416 132.525L383.969 134.793L384.878 136.575ZM391.103 133.4L395.55 131.132L394.642 129.35L390.195 131.618L391.103 133.4ZM397.329 130.225L401.776 127.957L400.867 126.175L396.42 128.443L397.329 130.225ZM403.554 127.05L408.001 124.782L407.093 123L402.646 125.268L403.554 127.05ZM409.78 123.875L414.227 121.607L413.318 119.825L408.871 122.093L409.78 123.875ZM416.005 120.7L420.452 118.432L419.544 116.65L415.097 118.918L416.005 120.7ZM422.231 117.525L424.454 116.391L423.546 114.609L421.322 115.743L422.231 117.525Z" fill="#355FB3"/>
<path d="M424 115.5L423.546 116.391L423.76 116.5H424V115.5ZM380.421 93.2749L379.967 94.1658L380.421 93.2749ZM315 91H317.642V89H315V91ZM319.756 91H325.041V89H319.756V91ZM327.155 91H332.44V89H327.155V91ZM334.554 91H339.839V89H334.554V91ZM341.953 91H347.238V89H341.953V91ZM349.352 91H354.636V89H349.352V91ZM356.75 91H362.035V89H356.75V91ZM364.149 91H366.792V89H364.149V91ZM366.792 91C367.608 91 368.421 91.0344 369.231 91.1028L369.399 89.1099C368.534 89.0368 367.664 89 366.792 89V91ZM371.171 91.3326C372.781 91.5786 374.368 91.9599 375.915 92.4724L376.544 90.5739C374.891 90.0261 373.195 89.6185 371.473 89.3555L371.171 91.3326ZM377.747 93.149C378.5 93.456 379.24 93.7951 379.967 94.1658L380.876 92.3841C380.099 91.9878 379.307 91.6254 378.503 91.2972L377.747 93.149ZM379.967 94.1658L382.191 95.2997L383.099 93.518L380.876 92.3841L379.967 94.1658ZM383.969 96.2068L388.416 98.4747L389.325 96.693L384.878 94.4252L383.969 96.2068ZM390.195 99.3819L394.642 101.65L395.55 99.8681L391.103 97.6002L390.195 99.3819ZM396.42 102.557L400.867 104.825L401.776 103.043L397.329 100.775L396.42 102.557ZM402.646 105.732L407.093 108L408.001 106.218L403.554 103.95L402.646 105.732ZM408.871 108.907L413.318 111.175L414.227 109.393L409.78 107.125L408.871 108.907ZM415.097 112.082L419.544 114.35L420.452 112.568L416.005 110.3L415.097 112.082ZM421.322 115.257L423.546 116.391L424.454 114.609L422.231 113.475L421.322 115.257ZM424 116.5H426.381V114.5H424V116.5ZM428.286 116.5H433.048V114.5H428.286V116.5ZM434.952 116.5H439.714V114.5H434.952V116.5ZM441.619 116.5H444V114.5H441.619V116.5Z" fill="#B33535"/>
<path d="M200.5 40H79.7251C71.2995 40 63.2624 43.5431 57.5788 49.7629L40 69M290 192C287.723 192 197.131 192 145.881 192C141.012 192 136.249 190.815 131.94 188.548L119.5 182M188.5 141H176.299C171.503 141 166.777 142.15 162.517 144.353L146.483 152.646C142.223 154.85 137.497 156 132.701 156H66.5" stroke="#355FB3" stroke-width="2" stroke-dasharray="5 2"/>
<path d="M297 90H264.244C259.483 90 254.791 91.133 250.554 93.3055L224.446 106.695C220.209 108.867 215.517 110 210.756 110H135" stroke="#B33535" stroke-width="2" stroke-dasharray="5 2"/>
<path d="M218 36L206 93.5L278.5 9.5" stroke="#355FB3" stroke-width="2"/>
<circle cx="278" cy="10" r="10" fill="#355FB3"/>
<circle cx="217" cy="35" r="10" fill="#355FB3"/>
<circle cx="206" cy="90" r="10" fill="#355FB3"/>
<path d="M314 118.5L301 65" stroke="#B33535" stroke-width="2"/>
<circle cx="313" cy="117" r="10" fill="#B33535"/>
<circle cx="300" cy="66" r="10" fill="#B33535"/>
<path d="M264.5 115L204 134.5L247.5 172L264.5 115Z" stroke="#355FB3" stroke-width="2"/>
<circle cx="265" cy="114" r="10" fill="#355FB3"/>
<circle cx="204" cy="133" r="10" fill="#355FB3"/>
<circle cx="247" cy="169" r="10" fill="#355FB3"/>
<circle cx="310" cy="191" r="10" fill="#355FB3"/>
<path d="M310.552 187.177C310.552 186.07 309.99 186 309.849 186C309.428 186 309.041 186.421 309.041 186.773C309.041 186.983 309.164 187.106 309.234 187.177C309.41 187.335 309.867 187.809 309.867 188.722C309.867 189.46 308.813 193.569 306.706 193.569C305.634 193.569 305.424 192.673 305.424 192.024C305.424 191.146 305.827 189.916 306.302 188.652C306.583 187.932 306.653 187.756 306.653 187.405C306.653 186.667 306.126 186 305.265 186C303.65 186 303 188.546 303 188.687C303 188.757 303.07 188.845 303.193 188.845C303.351 188.845 303.369 188.775 303.439 188.529C303.861 187.019 304.545 186.351 305.213 186.351C305.371 186.351 305.669 186.351 305.669 186.931C305.669 187.387 305.476 187.897 305.213 188.564C304.37 190.812 304.37 191.356 304.37 191.778C304.37 192.164 304.423 192.884 304.967 193.376C305.599 193.92 306.477 193.92 306.635 193.92C309.551 193.92 310.552 188.178 310.552 187.177Z" fill="#355FB3"/>
<path d="M314.695 192.153C315.351 191.836 316.147 191.251 316.147 190.338C316.147 189.226 315.011 188.593 313.922 188.593C312.681 188.593 311.674 189.448 311.674 190.549C311.674 190.982 311.827 191.38 312.119 191.719C312.318 191.965 312.365 191.989 313.091 192.445C311.639 193.089 311.323 193.944 311.323 194.599C311.323 195.887 312.623 196.625 313.899 196.625C315.339 196.625 316.498 195.653 316.498 194.412C316.498 193.675 316.1 193.183 315.913 192.984C315.714 192.796 315.702 192.785 314.695 192.153ZM312.88 191.052C312.541 190.853 312.26 190.513 312.26 190.104C312.26 189.366 313.068 188.898 313.899 188.898C314.812 188.898 315.561 189.518 315.561 190.338C315.561 191.017 315.035 191.591 314.344 191.93L312.88 191.052ZM313.454 192.656C313.501 192.679 314.836 193.499 315.035 193.628C315.222 193.733 315.831 194.108 315.831 194.81C315.831 195.712 314.882 196.274 313.922 196.274C312.88 196.274 311.991 195.56 311.991 194.599C311.991 193.721 312.646 193.031 313.454 192.656Z" fill="#355FB3"/>
<path d="M22 82L10 139.5M10 139.5L70.5 120M10 139.5L53.5 177L70.5 120M10 139.5L82.5 55.5L123 87L136 140.5M70.5 120L136 140.5M136 140.5L107.5 179.5" stroke="black" stroke-width="2"/>
<circle cx="21" cy="81" r="10" fill="black"/>
<circle cx="10" cy="138" r="10" fill="black"/>
<circle cx="53" cy="174" r="10" fill="black"/>
<circle cx="71" cy="119" r="10" fill="black"/>
<circle cx="82" cy="56" r="10" fill="black"/>
<circle cx="122" cy="88" r="10" fill="black"/>
<circle cx="135" cy="139" r="10" fill="black"/>
<circle cx="106" cy="178" r="10" fill="black"/>
<path d="M456.388 121.625C455.771 122.492 454.881 123.268 453.762 123.268C453.488 123.268 452.393 123.223 452.05 122.172C452.119 122.195 452.233 122.195 452.278 122.195C452.963 122.195 453.42 121.602 453.42 121.077C453.42 120.552 452.986 120.369 452.644 120.369C452.278 120.369 451.479 120.643 451.479 121.762C451.479 122.926 452.461 123.725 453.762 123.725C456.045 123.725 458.351 121.625 458.99 119.091L461.228 110.187C461.25 110.073 461.296 109.936 461.296 109.799C461.296 109.457 461.022 109.228 460.68 109.228C460.474 109.228 459.995 109.32 459.812 110.004L458.123 116.716C458.009 117.127 458.009 117.173 457.826 117.424C457.369 118.063 456.616 118.839 455.52 118.839C454.242 118.839 454.128 117.584 454.128 116.967C454.128 115.666 454.744 113.908 455.36 112.265C455.612 111.603 455.748 111.283 455.748 110.826C455.748 109.868 455.064 109 453.945 109C451.845 109 451 112.31 451 112.493C451 112.584 451.091 112.698 451.251 112.698C451.457 112.698 451.479 112.607 451.571 112.287C452.119 110.37 452.986 109.457 453.876 109.457C454.082 109.457 454.47 109.457 454.47 110.21C454.47 110.804 454.219 111.466 453.876 112.333C452.758 115.324 452.758 116.077 452.758 116.625C452.758 118.794 454.31 119.296 455.452 119.296C456.114 119.296 456.936 119.091 457.735 118.246L457.757 118.269C457.415 119.616 457.187 120.506 456.388 121.625Z" fill="#B33535"/>
</svg>
