<svg width="129" height="201" viewBox="0 0 129 201" fill="none" xmlns="http://www.w3.org/2000/svg">
<path d="M24 36L12 93.5L84.5 9.5" stroke="#3BB335" stroke-width="2"/>
<circle cx="84" cy="10" r="10" fill="#3BB335"/>
<circle cx="23" cy="35" r="10" fill="#3BB335"/>
<circle cx="12" cy="90" r="10" fill="#3BB335"/>
<path d="M120 118.5L107 65" stroke="#3BB335" stroke-width="2"/>
<circle cx="119" cy="117" r="10" fill="#3BB335"/>
<circle cx="106" cy="66" r="10" fill="#3BB335"/>
<path d="M70.5 115L10 134.5L53.5 172L70.5 115Z" stroke="#3BB335" stroke-width="2"/>
<circle cx="71" cy="114" r="10" fill="#3BB335"/>
<circle cx="10" cy="133" r="10" fill="#3BB335"/>
<circle cx="53" cy="169" r="10" fill="#3BB335"/>
<circle cx="116" cy="191" r="10" fill="#3BB335"/>
<path d="M116.552 187.177C116.552 186.07 115.99 186 115.849 186C115.428 186 115.041 186.421 115.041 186.773C115.041 186.983 115.164 187.106 115.234 187.177C115.41 187.335 115.867 187.809 115.867 188.722C115.867 189.46 114.813 193.569 112.706 193.569C111.634 193.569 111.424 192.673 111.424 192.024C111.424 191.146 111.827 189.916 112.302 188.652C112.583 187.932 112.653 187.756 112.653 187.405C112.653 186.667 112.126 186 111.265 186C109.65 186 109 188.546 109 188.687C109 188.757 109.07 188.845 109.193 188.845C109.351 188.845 109.369 188.775 109.439 188.529C109.861 187.019 110.545 186.351 111.213 186.351C111.371 186.351 111.669 186.351 111.669 186.931C111.669 187.387 111.476 187.897 111.213 188.564C110.37 190.812 110.37 191.356 110.37 191.778C110.37 192.164 110.423 192.884 110.967 193.376C111.599 193.92 112.477 193.92 112.635 193.92C115.551 193.92 116.552 188.178 116.552 187.177Z" fill="#3BB335"/>
<path d="M120.695 192.153C121.351 191.836 122.147 191.251 122.147 190.338C122.147 189.226 121.011 188.593 119.922 188.593C118.681 188.593 117.674 189.448 117.674 190.549C117.674 190.982 117.827 191.38 118.119 191.719C118.318 191.965 118.365 191.989 119.091 192.445C117.639 193.089 117.323 193.944 117.323 194.599C117.323 195.887 118.623 196.625 119.899 196.625C121.339 196.625 122.498 195.653 122.498 194.412C122.498 193.675 122.1 193.183 121.913 192.984C121.714 192.796 121.702 192.785 120.695 192.153ZM118.88 191.052C118.541 190.853 118.26 190.513 118.26 190.104C118.26 189.366 119.068 188.898 119.899 188.898C120.812 188.898 121.561 189.518 121.561 190.338C121.561 191.017 121.035 191.591 120.344 191.93L118.88 191.052ZM119.454 192.656C119.501 192.679 120.836 193.499 121.035 193.628C121.222 193.733 121.831 194.108 121.831 194.81C121.831 195.712 120.882 196.274 119.922 196.274C118.88 196.274 117.991 195.56 117.991 194.599C117.991 193.721 118.646 193.031 119.454 192.656Z" fill="#3BB335"/>
</svg>
