<svg width="740" height="230" viewBox="0 0 740 230" fill="none" xmlns="http://www.w3.org/2000/svg">
<g clip-path="url(#clip0)">
<rect x="694" y="113" width="50" height="24" fill="white"/>
<rect x="694" y="113" width="50" height="24" fill="white"/>
<rect x="495" y="40" width="129" height="178" fill="white"/>
<rect x="495" y="40" width="129" height="178" fill="white"/>
<path d="M545.987 62.4389C545.987 62.3862 545.987 62.3511 545.688 62.0525C543.932 60.2788 542.948 57.3811 542.948 53.7985C542.948 50.3915 543.774 47.4587 545.811 45.3864C545.987 45.2283 545.987 45.1932 545.987 45.1405C545.987 45.0351 545.899 45 545.828 45C545.6 45 544.16 46.2645 543.3 47.9855C542.404 49.7592 542 51.6384 542 53.7985C542 55.3615 542.246 57.4513 543.159 59.3304C544.195 61.4378 545.635 62.5794 545.828 62.5794C545.899 62.5794 545.987 62.5442 545.987 62.4389Z" fill="black"/>
<path d="M553.56 60.1382C553.086 60.8056 552.401 61.4027 551.54 61.4027C551.33 61.4027 550.487 61.3676 550.223 60.5597C550.276 60.5773 550.364 60.5773 550.399 60.5773C550.926 60.5773 551.277 60.1207 551.277 59.7168C551.277 59.3128 550.943 59.1723 550.68 59.1723C550.399 59.1723 549.784 59.3831 549.784 60.2436C549.784 61.1393 550.539 61.7539 551.54 61.7539C553.296 61.7539 555.07 60.1382 555.562 58.1889L557.283 51.3398C557.301 51.252 557.336 51.1466 557.336 51.0412C557.336 50.7778 557.125 50.6022 556.861 50.6022C556.703 50.6022 556.335 50.6724 556.194 51.1993L554.895 56.3625C554.807 56.6786 554.807 56.7137 554.666 56.9069C554.315 57.3986 553.735 57.9957 552.893 57.9957C551.909 57.9957 551.821 57.0298 551.821 56.5556C551.821 55.5546 552.295 54.2024 552.77 52.9379C552.963 52.4286 553.068 52.1828 553.068 51.8315C553.068 51.0939 552.541 50.4266 551.681 50.4266C550.065 50.4266 549.415 52.973 549.415 53.1135C549.415 53.1838 549.486 53.2716 549.608 53.2716C549.767 53.2716 549.784 53.2013 549.854 52.9555C550.276 51.4803 550.943 50.7778 551.628 50.7778C551.786 50.7778 552.085 50.7778 552.085 51.3573C552.085 51.814 551.891 52.3233 551.628 52.9906C550.768 55.2912 550.768 55.8707 550.768 56.2922C550.768 57.9606 551.962 58.3469 552.84 58.3469C553.349 58.3469 553.981 58.1889 554.596 57.5391L554.614 57.5567C554.35 58.5928 554.175 59.2777 553.56 60.1382Z" fill="black"/>
<path d="M562.67 58.2416C562.67 57.223 562.337 56.4678 561.617 56.4678C561.055 56.4678 560.774 56.9244 560.774 57.3108C560.774 57.6972 561.037 58.1713 561.634 58.1713C561.863 58.1713 562.056 58.1011 562.214 57.943C562.249 57.9079 562.266 57.9079 562.284 57.9079C562.319 57.9079 562.319 58.1538 562.319 58.2416C562.319 58.8211 562.214 59.9626 561.195 61.1041C561.002 61.3149 561.002 61.35 561.002 61.3851C561.002 61.4729 561.09 61.5608 561.178 61.5608C561.318 61.5608 562.67 60.2612 562.67 58.2416Z" fill="black"/>
<path d="M582.082 53.7985C582.082 52.4638 581.906 50.2861 580.923 48.2489C579.887 46.1415 578.447 45 578.253 45C578.183 45 578.095 45.0351 578.095 45.1405C578.095 45.1932 578.095 45.2283 578.394 45.5269C580.15 47.3006 581.133 50.1983 581.133 53.7809C581.133 57.1879 580.308 60.1207 578.271 62.193C578.095 62.3511 578.095 62.3862 578.095 62.4389C578.095 62.5442 578.183 62.5794 578.253 62.5794C578.482 62.5794 579.922 61.3149 580.782 59.5939C581.678 57.8025 582.082 55.9059 582.082 53.7985Z" fill="black"/>
<path d="M545.987 112.439C545.987 112.386 545.987 112.351 545.688 112.052C543.932 110.279 542.948 107.381 542.948 103.798C542.948 100.391 543.774 97.4587 545.811 95.3864C545.987 95.2283 545.987 95.1932 545.987 95.1405C545.987 95.0351 545.899 95 545.828 95C545.6 95 544.16 96.2645 543.3 97.9855C542.404 99.7592 542 101.638 542 103.798C542 105.361 542.246 107.451 543.159 109.33C544.195 111.438 545.635 112.579 545.828 112.579C545.899 112.579 545.987 112.544 545.987 112.439Z" fill="#B33535"/>
<path d="M553.56 110.138C553.086 110.806 552.401 111.403 551.54 111.403C551.33 111.403 550.487 111.368 550.223 110.56C550.276 110.577 550.364 110.577 550.399 110.577C550.926 110.577 551.277 110.121 551.277 109.717C551.277 109.313 550.943 109.172 550.68 109.172C550.399 109.172 549.784 109.383 549.784 110.244C549.784 111.139 550.539 111.754 551.54 111.754C553.296 111.754 555.07 110.138 555.562 108.189L557.283 101.34C557.301 101.252 557.336 101.147 557.336 101.041C557.336 100.778 557.125 100.602 556.861 100.602C556.703 100.602 556.335 100.672 556.194 101.199L554.895 106.362C554.807 106.679 554.807 106.714 554.666 106.907C554.315 107.399 553.735 107.996 552.893 107.996C551.909 107.996 551.821 107.03 551.821 106.556C551.821 105.555 552.295 104.202 552.77 102.938C552.963 102.429 553.068 102.183 553.068 101.832C553.068 101.094 552.541 100.427 551.681 100.427C550.065 100.427 549.415 102.973 549.415 103.114C549.415 103.184 549.486 103.272 549.608 103.272C549.767 103.272 549.784 103.201 549.854 102.955C550.276 101.48 550.943 100.778 551.628 100.778C551.786 100.778 552.085 100.778 552.085 101.357C552.085 101.814 551.891 102.323 551.628 102.991C550.768 105.291 550.768 105.871 550.768 106.292C550.768 107.961 551.962 108.347 552.84 108.347C553.349 108.347 553.981 108.189 554.596 107.539L554.614 107.557C554.35 108.593 554.175 109.278 553.56 110.138Z" fill="#B33535"/>
<path d="M562.67 108.242C562.67 107.223 562.337 106.468 561.617 106.468C561.055 106.468 560.774 106.924 560.774 107.311C560.774 107.697 561.037 108.171 561.634 108.171C561.863 108.171 562.056 108.101 562.214 107.943C562.249 107.908 562.266 107.908 562.284 107.908C562.319 107.908 562.319 108.154 562.319 108.242C562.319 108.821 562.214 109.963 561.195 111.104C561.002 111.315 561.002 111.35 561.002 111.385C561.002 111.473 561.09 111.561 561.178 111.561C561.318 111.561 562.67 110.261 562.67 108.242Z" fill="#B33535"/>
<path d="M582.082 103.798C582.082 102.464 581.906 100.286 580.923 98.2489C579.887 96.1415 578.447 95 578.253 95C578.183 95 578.095 95.0351 578.095 95.1405C578.095 95.1932 578.095 95.2283 578.394 95.5269C580.15 97.3006 581.133 100.198 581.133 103.781C581.133 107.188 580.308 110.121 578.271 112.193C578.095 112.351 578.095 112.386 578.095 112.439C578.095 112.544 578.183 112.579 578.253 112.579C578.482 112.579 579.922 111.315 580.782 109.594C581.678 107.803 582.082 105.906 582.082 103.798Z" fill="#B33535"/>
<path d="M545.987 163.439C545.987 163.386 545.987 163.351 545.688 163.052C543.932 161.279 542.948 158.381 542.948 154.798C542.948 151.391 543.774 148.459 545.811 146.386C545.987 146.228 545.987 146.193 545.987 146.141C545.987 146.035 545.899 146 545.828 146C545.6 146 544.16 147.264 543.3 148.986C542.404 150.759 542 152.638 542 154.798C542 156.361 542.246 158.451 543.159 160.33C544.195 162.438 545.635 163.579 545.828 163.579C545.899 163.579 545.987 163.544 545.987 163.439Z" fill="#B33535"/>
<path d="M553.56 161.138C553.086 161.806 552.401 162.403 551.54 162.403C551.33 162.403 550.487 162.368 550.223 161.56C550.276 161.577 550.364 161.577 550.399 161.577C550.926 161.577 551.277 161.121 551.277 160.717C551.277 160.313 550.943 160.172 550.68 160.172C550.399 160.172 549.784 160.383 549.784 161.244C549.784 162.139 550.539 162.754 551.54 162.754C553.296 162.754 555.07 161.138 555.562 159.189L557.283 152.34C557.301 152.252 557.336 152.147 557.336 152.041C557.336 151.778 557.125 151.602 556.861 151.602C556.703 151.602 556.335 151.672 556.194 152.199L554.895 157.362C554.807 157.679 554.807 157.714 554.666 157.907C554.315 158.399 553.735 158.996 552.893 158.996C551.909 158.996 551.821 158.03 551.821 157.556C551.821 156.555 552.295 155.202 552.77 153.938C552.963 153.429 553.068 153.183 553.068 152.832C553.068 152.094 552.541 151.427 551.681 151.427C550.065 151.427 549.415 153.973 549.415 154.114C549.415 154.184 549.486 154.272 549.608 154.272C549.767 154.272 549.784 154.201 549.854 153.955C550.276 152.48 550.943 151.778 551.628 151.778C551.786 151.778 552.085 151.778 552.085 152.357C552.085 152.814 551.891 153.323 551.628 153.991C550.768 156.291 550.768 156.871 550.768 157.292C550.768 158.961 551.962 159.347 552.84 159.347C553.349 159.347 553.981 159.189 554.596 158.539L554.614 158.557C554.35 159.593 554.175 160.278 553.56 161.138Z" fill="#B33535"/>
<path d="M562.67 159.242C562.67 158.223 562.337 157.468 561.617 157.468C561.055 157.468 560.774 157.924 560.774 158.311C560.774 158.697 561.037 159.171 561.634 159.171C561.863 159.171 562.056 159.101 562.214 158.943C562.249 158.908 562.266 158.908 562.284 158.908C562.319 158.908 562.319 159.154 562.319 159.242C562.319 159.821 562.214 160.963 561.195 162.104C561.002 162.315 561.002 162.35 561.002 162.385C561.002 162.473 561.09 162.561 561.178 162.561C561.318 162.561 562.67 161.261 562.67 159.242Z" fill="#B33535"/>
<path d="M582.082 154.798C582.082 153.464 581.906 151.286 580.923 149.249C579.887 147.142 578.447 146 578.253 146C578.183 146 578.095 146.035 578.095 146.141C578.095 146.193 578.095 146.228 578.394 146.527C580.15 148.301 581.133 151.198 581.133 154.781C581.133 158.188 580.308 161.121 578.271 163.193C578.095 163.351 578.095 163.386 578.095 163.439C578.095 163.544 578.183 163.579 578.253 163.579C578.482 163.579 579.922 162.315 580.782 160.594C581.678 158.803 582.082 156.906 582.082 154.798Z" fill="#B33535"/>
<path d="M545.987 214.439C545.987 214.386 545.987 214.351 545.688 214.052C543.932 212.279 542.948 209.381 542.948 205.798C542.948 202.391 543.774 199.459 545.811 197.386C545.987 197.228 545.987 197.193 545.987 197.141C545.987 197.035 545.899 197 545.828 197C545.6 197 544.16 198.264 543.3 199.986C542.404 201.759 542 203.638 542 205.798C542 207.361 542.246 209.451 543.159 211.33C544.195 213.438 545.635 214.579 545.828 214.579C545.899 214.579 545.987 214.544 545.987 214.439Z" fill="black"/>
<path d="M553.56 212.138C553.086 212.806 552.401 213.403 551.54 213.403C551.33 213.403 550.487 213.368 550.223 212.56C550.276 212.577 550.364 212.577 550.399 212.577C550.926 212.577 551.277 212.121 551.277 211.717C551.277 211.313 550.943 211.172 550.68 211.172C550.399 211.172 549.784 211.383 549.784 212.244C549.784 213.139 550.539 213.754 551.54 213.754C553.296 213.754 555.07 212.138 555.562 210.189L557.283 203.34C557.301 203.252 557.336 203.147 557.336 203.041C557.336 202.778 557.125 202.602 556.861 202.602C556.703 202.602 556.335 202.672 556.194 203.199L554.895 208.362C554.807 208.679 554.807 208.714 554.666 208.907C554.315 209.399 553.735 209.996 552.893 209.996C551.909 209.996 551.821 209.03 551.821 208.556C551.821 207.555 552.295 206.202 552.77 204.938C552.963 204.429 553.068 204.183 553.068 203.832C553.068 203.094 552.541 202.427 551.681 202.427C550.065 202.427 549.415 204.973 549.415 205.114C549.415 205.184 549.486 205.272 549.608 205.272C549.767 205.272 549.784 205.201 549.854 204.955C550.276 203.48 550.943 202.778 551.628 202.778C551.786 202.778 552.085 202.778 552.085 203.357C552.085 203.814 551.891 204.323 551.628 204.991C550.768 207.291 550.768 207.871 550.768 208.292C550.768 209.961 551.962 210.347 552.84 210.347C553.349 210.347 553.981 210.189 554.596 209.539L554.614 209.557C554.35 210.593 554.175 211.278 553.56 212.138Z" fill="black"/>
<path d="M562.67 210.242C562.67 209.223 562.337 208.468 561.617 208.468C561.055 208.468 560.774 208.924 560.774 209.311C560.774 209.697 561.037 210.171 561.634 210.171C561.863 210.171 562.056 210.101 562.214 209.943C562.249 209.908 562.266 209.908 562.284 209.908C562.319 209.908 562.319 210.154 562.319 210.242C562.319 210.821 562.214 211.963 561.195 213.104C561.002 213.315 561.002 213.35 561.002 213.385C561.002 213.473 561.09 213.561 561.178 213.561C561.318 213.561 562.67 212.261 562.67 210.242Z" fill="black"/>
<path d="M582.082 205.798C582.082 204.464 581.906 202.286 580.923 200.249C579.887 198.142 578.447 197 578.253 197C578.183 197 578.095 197.035 578.095 197.141C578.095 197.193 578.095 197.228 578.394 197.527C580.15 199.301 581.133 202.198 581.133 205.781C581.133 209.188 580.308 212.121 578.271 214.193C578.095 214.351 578.095 214.386 578.095 214.439C578.095 214.544 578.183 214.579 578.253 214.579C578.482 214.579 579.922 213.315 580.782 211.594C581.678 209.803 582.082 207.906 582.082 205.798Z" fill="black"/>
<path d="M575.146 205.058C575.146 203.6 575.059 202.178 574.427 200.844C573.707 199.386 572.442 199 571.582 199C570.564 199 569.317 199.509 568.667 200.967C568.176 202.073 568 203.161 568 205.058C568 206.761 568.123 208.043 568.755 209.289C569.44 210.624 570.651 211.045 571.564 211.045C573.092 211.045 573.97 210.132 574.479 209.114C575.111 207.797 575.146 206.076 575.146 205.058ZM571.564 210.694C571.003 210.694 569.861 210.378 569.528 208.464C569.334 207.411 569.334 206.076 569.334 204.847C569.334 203.407 569.334 202.108 569.615 201.072C569.914 199.896 570.809 199.351 571.564 199.351C572.232 199.351 573.25 199.755 573.584 201.265C573.812 202.266 573.812 203.653 573.812 204.847C573.812 206.024 573.812 207.358 573.619 208.429C573.285 210.361 572.179 210.694 571.564 210.694Z" fill="black"/>
<path d="M575.866 102.88C575.954 102.528 576.007 102.318 576.007 101.844C576.007 100.79 575.392 100 574.058 100C572.495 100 571.67 101.106 571.354 101.545C571.301 100.544 570.581 100 569.809 100C569.299 100 568.895 100.246 568.562 100.913C568.246 101.545 568 102.616 568 102.686C568 102.757 568.07 102.845 568.193 102.845C568.334 102.845 568.351 102.827 568.457 102.423C568.72 101.387 569.054 100.351 569.756 100.351C570.16 100.351 570.3 100.632 570.3 101.159C570.3 101.545 570.125 102.23 570.002 102.774L569.51 104.671C569.44 105.004 569.247 105.794 569.159 106.11C569.036 106.567 568.843 107.392 568.843 107.48C568.843 107.726 569.036 107.919 569.299 107.919C569.51 107.919 569.756 107.814 569.896 107.55C569.931 107.462 570.089 106.848 570.177 106.497L570.564 104.916L571.143 102.599C571.178 102.493 571.617 101.615 572.267 101.054C572.723 100.632 573.32 100.351 574.005 100.351C574.707 100.351 574.953 100.878 574.953 101.58C574.953 102.09 574.883 102.37 574.795 102.704L572.758 110.781C572.741 110.869 572.706 110.974 572.706 111.08C572.706 111.343 572.916 111.519 573.18 111.519C573.338 111.519 573.707 111.448 573.847 110.922L575.866 102.88Z" fill="#B33535"/>
<path d="M575.866 153.88C575.954 153.528 576.007 153.318 576.007 152.844C576.007 151.79 575.392 151 574.058 151C572.495 151 571.67 152.106 571.354 152.545C571.301 151.544 570.581 151 569.809 151C569.299 151 568.895 151.246 568.562 151.913C568.246 152.545 568 153.616 568 153.686C568 153.757 568.07 153.845 568.193 153.845C568.334 153.845 568.351 153.827 568.457 153.423C568.72 152.387 569.054 151.351 569.756 151.351C570.16 151.351 570.3 151.632 570.3 152.159C570.3 152.545 570.125 153.23 570.002 153.774L569.51 155.671C569.44 156.004 569.247 156.794 569.159 157.11C569.036 157.567 568.843 158.392 568.843 158.48C568.843 158.726 569.036 158.919 569.299 158.919C569.51 158.919 569.756 158.814 569.896 158.55C569.931 158.462 570.089 157.848 570.177 157.497L570.564 155.916L571.143 153.599C571.178 153.493 571.617 152.615 572.267 152.054C572.723 151.632 573.32 151.351 574.005 151.351C574.707 151.351 574.953 151.878 574.953 152.58C574.953 153.09 574.883 153.37 574.795 153.704L572.758 161.781C572.741 161.869 572.706 161.974 572.706 162.08C572.706 162.343 572.916 162.519 573.18 162.519C573.338 162.519 573.707 162.448 573.847 161.922L575.866 153.88Z" fill="#B33535"/>
<path d="M575.146 53.0578C575.146 51.6004 575.059 50.1781 574.427 48.8437C573.707 47.3863 572.442 47 571.582 47C570.564 47 569.317 47.5092 568.667 48.9666C568.176 50.0728 568 51.1614 568 53.0578C568 54.761 568.123 56.0428 568.755 57.2895C569.44 58.6239 570.651 59.0453 571.564 59.0453C573.092 59.0453 573.97 58.1323 574.479 57.1139C575.111 55.797 575.146 54.0762 575.146 53.0578ZM571.564 58.6942C571.003 58.6942 569.861 58.3781 569.528 56.4642C569.334 55.4107 569.334 54.0762 569.334 52.8471C569.334 51.4073 569.334 50.1079 569.615 49.0719C569.914 47.8955 570.809 47.3512 571.564 47.3512C572.232 47.3512 573.25 47.755 573.584 49.2651C573.812 50.2659 573.812 51.6531 573.812 52.8471C573.812 54.0235 573.812 55.358 573.619 56.4291C573.285 58.3605 572.179 58.6942 571.564 58.6942Z" fill="black"/>
<path d="M701.145 130.962C700.671 131.63 699.986 132.227 699.125 132.227C698.914 132.227 698.071 132.192 697.808 131.384C697.861 131.401 697.948 131.401 697.983 131.401C698.51 131.401 698.862 130.945 698.862 130.541C698.862 130.137 698.528 129.996 698.264 129.996C697.983 129.996 697.369 130.207 697.369 131.068C697.369 131.963 698.124 132.578 699.125 132.578C700.881 132.578 702.655 130.962 703.147 129.013L704.868 122.163C704.886 122.076 704.921 121.97 704.921 121.865C704.921 121.601 704.71 121.426 704.446 121.426C704.288 121.426 703.92 121.496 703.779 122.023L702.479 127.186C702.392 127.502 702.392 127.537 702.251 127.731C701.9 128.222 701.32 128.82 700.477 128.82C699.494 128.82 699.406 127.854 699.406 127.379C699.406 126.378 699.88 125.026 700.354 123.762C700.548 123.252 700.653 123.006 700.653 122.655C700.653 121.918 700.126 121.25 699.266 121.25C697.65 121.25 697 123.797 697 123.937C697 124.007 697.07 124.095 697.193 124.095C697.351 124.095 697.369 124.025 697.439 123.779C697.861 122.304 698.528 121.601 699.213 121.601C699.371 121.601 699.67 121.601 699.67 122.181C699.67 122.638 699.476 123.147 699.213 123.814C698.352 126.115 698.352 126.694 698.352 127.116C698.352 128.784 699.547 129.171 700.425 129.171C700.934 129.171 701.566 129.013 702.181 128.363L702.198 128.38C701.935 129.417 701.759 130.102 701.145 130.962Z" fill="#B33535"/>
</g>
<defs>
<clipPath id="clip0">
<rect width="740" height="230" fill="white"/>
</clipPath>
</defs>
</svg>
