<svg width="740" height="230" viewBox="0 0 740 230" fill="none" xmlns="http://www.w3.org/2000/svg">
<path d="M242 125L232 119.226V130.774L242 125ZM187 126H233V124H187V126Z" fill="black"/>
<path d="M171.726 14V3.33594H174.736C175.664 3.33594 176.484 3.54102 177.197 3.95117C177.91 4.36133 178.459 4.94482 178.845 5.70166C179.235 6.4585 179.433 7.32764 179.438 8.30908V8.99023C179.438 9.99609 179.243 10.8774 178.852 11.6343C178.466 12.3911 177.912 12.9722 177.189 13.3774C176.472 13.7827 175.634 13.9902 174.677 14H171.726ZM173.132 4.49316V12.8501H174.611C175.695 12.8501 176.538 12.5132 177.138 11.8394C177.744 11.1655 178.046 10.2061 178.046 8.96094V8.33838C178.046 7.12744 177.761 6.1875 177.189 5.51855C176.623 4.84473 175.817 4.50293 174.772 4.49316H173.132ZM184.646 14.1465C183.571 14.1465 182.697 13.7949 182.023 13.0918C181.35 12.3838 181.013 11.439 181.013 10.2573V10.0083C181.013 9.22217 181.162 8.52148 181.459 7.90625C181.762 7.28613 182.182 6.80273 182.719 6.45605C183.261 6.10449 183.847 5.92871 184.477 5.92871C185.507 5.92871 186.308 6.26807 186.879 6.94678C187.451 7.62549 187.736 8.59717 187.736 9.86182V10.4258H182.368C182.387 11.207 182.614 11.8394 183.049 12.3228C183.488 12.8013 184.045 13.0405 184.719 13.0405C185.197 13.0405 185.603 12.9429 185.935 12.7476C186.267 12.5522 186.557 12.2935 186.806 11.9712L187.634 12.6157C186.97 13.6362 185.974 14.1465 184.646 14.1465ZM184.477 7.04199C183.93 7.04199 183.471 7.24219 183.1 7.64258C182.729 8.03809 182.5 8.59473 182.412 9.3125H186.381V9.20996C186.342 8.52148 186.157 7.98926 185.825 7.61328C185.493 7.23242 185.043 7.04199 184.477 7.04199ZM192.49 13.0405C192.973 13.0405 193.396 12.894 193.757 12.6011C194.118 12.3081 194.318 11.9419 194.357 11.5024H195.639C195.615 11.9565 195.458 12.3887 195.17 12.7988C194.882 13.209 194.497 13.5361 194.013 13.7803C193.535 14.0244 193.027 14.1465 192.49 14.1465C191.411 14.1465 190.551 13.7876 189.912 13.0698C189.277 12.3472 188.959 11.3608 188.959 10.1108V9.88379C188.959 9.1123 189.101 8.42627 189.384 7.82568C189.667 7.2251 190.073 6.75879 190.6 6.42676C191.132 6.09473 191.76 5.92871 192.482 5.92871C193.371 5.92871 194.108 6.19482 194.694 6.72705C195.285 7.25928 195.6 7.9502 195.639 8.7998H194.357C194.318 8.28711 194.123 7.86719 193.771 7.54004C193.425 7.20801 192.995 7.04199 192.482 7.04199C191.794 7.04199 191.259 7.29102 190.878 7.78906C190.502 8.28223 190.314 8.99756 190.314 9.93506V10.1914C190.314 11.1045 190.502 11.8076 190.878 12.3008C191.254 12.7939 191.792 13.0405 192.49 13.0405ZM196.804 9.96436C196.804 9.18799 196.955 8.48975 197.258 7.86963C197.565 7.24951 197.99 6.771 198.532 6.43408C199.079 6.09717 199.702 5.92871 200.4 5.92871C201.479 5.92871 202.351 6.30225 203.015 7.04932C203.684 7.79639 204.018 8.79004 204.018 10.0303V10.1255C204.018 10.897 203.869 11.5903 203.571 12.2056C203.278 12.8159 202.856 13.292 202.304 13.6338C201.757 13.9756 201.127 14.1465 200.415 14.1465C199.34 14.1465 198.469 13.7729 197.8 13.0259C197.136 12.2788 196.804 11.29 196.804 10.0596V9.96436ZM198.166 10.1255C198.166 11.0044 198.369 11.71 198.774 12.2422C199.184 12.7744 199.731 13.0405 200.415 13.0405C201.103 13.0405 201.65 12.772 202.055 12.2349C202.46 11.6929 202.663 10.936 202.663 9.96436C202.663 9.09521 202.456 8.39209 202.041 7.85498C201.63 7.31299 201.083 7.04199 200.4 7.04199C199.731 7.04199 199.191 7.30811 198.781 7.84033C198.371 8.37256 198.166 9.13428 198.166 10.1255ZM206.992 6.0752L207.028 6.9541C207.609 6.27051 208.393 5.92871 209.379 5.92871C210.488 5.92871 211.242 6.35352 211.643 7.20312C211.906 6.82227 212.248 6.51465 212.668 6.28027C213.093 6.0459 213.593 5.92871 214.169 5.92871C215.908 5.92871 216.792 6.84912 216.821 8.68994V14H215.466V8.77051C215.466 8.2041 215.336 7.78174 215.078 7.50342C214.819 7.22021 214.384 7.07861 213.774 7.07861C213.271 7.07861 212.854 7.22998 212.521 7.53271C212.189 7.83057 211.997 8.2334 211.943 8.74121V14H210.581V8.80713C210.581 7.65479 210.017 7.07861 208.889 7.07861C208 7.07861 207.392 7.45703 207.065 8.21387V14H205.71V6.0752H206.992ZM225.566 10.1255C225.566 11.3315 225.29 12.3032 224.738 13.0405C224.187 13.7778 223.439 14.1465 222.497 14.1465C221.535 14.1465 220.778 13.8413 220.227 13.231V17.0469H218.872V6.0752H220.109L220.175 6.9541C220.727 6.27051 221.494 5.92871 222.475 5.92871C223.427 5.92871 224.179 6.2876 224.731 7.00537C225.288 7.72314 225.566 8.72168 225.566 10.001V10.1255ZM224.211 9.97168C224.211 9.07812 224.021 8.37256 223.64 7.85498C223.259 7.3374 222.736 7.07861 222.072 7.07861C221.252 7.07861 220.637 7.44238 220.227 8.16992V11.9565C220.632 12.6792 221.252 13.0405 222.087 13.0405C222.736 13.0405 223.251 12.7842 223.632 12.2715C224.018 11.7539 224.211 10.9873 224.211 9.97168ZM226.936 9.96436C226.936 9.18799 227.087 8.48975 227.39 7.86963C227.697 7.24951 228.122 6.771 228.664 6.43408C229.211 6.09717 229.833 5.92871 230.532 5.92871C231.611 5.92871 232.482 6.30225 233.146 7.04932C233.815 7.79639 234.15 8.79004 234.15 10.0303V10.1255C234.15 10.897 234.001 11.5903 233.703 12.2056C233.41 12.8159 232.988 13.292 232.436 13.6338C231.889 13.9756 231.259 14.1465 230.546 14.1465C229.472 14.1465 228.601 13.7729 227.932 13.0259C227.268 12.2788 226.936 11.29 226.936 10.0596V9.96436ZM228.298 10.1255C228.298 11.0044 228.5 11.71 228.906 12.2422C229.316 12.7744 229.863 13.0405 230.546 13.0405C231.235 13.0405 231.782 12.772 232.187 12.2349C232.592 11.6929 232.795 10.936 232.795 9.96436C232.795 9.09521 232.587 8.39209 232.172 7.85498C231.762 7.31299 231.215 7.04199 230.532 7.04199C229.863 7.04199 229.323 7.30811 228.913 7.84033C228.503 8.37256 228.298 9.13428 228.298 10.1255ZM240.463 11.8979C240.463 11.5317 240.324 11.2485 240.046 11.0483C239.772 10.8433 239.292 10.6675 238.603 10.521C237.919 10.3745 237.375 10.1987 236.97 9.99365C236.569 9.78857 236.271 9.54443 236.076 9.26123C235.886 8.97803 235.791 8.64111 235.791 8.25049C235.791 7.60107 236.064 7.05176 236.611 6.60254C237.163 6.15332 237.866 5.92871 238.72 5.92871C239.619 5.92871 240.346 6.16064 240.903 6.62451C241.464 7.08838 241.745 7.68164 241.745 8.4043H240.383C240.383 8.0332 240.224 7.71338 239.907 7.44482C239.594 7.17627 239.199 7.04199 238.72 7.04199C238.227 7.04199 237.841 7.14941 237.563 7.36426C237.285 7.5791 237.146 7.85986 237.146 8.20654C237.146 8.53369 237.275 8.78027 237.534 8.94629C237.792 9.1123 238.259 9.271 238.933 9.42236C239.611 9.57373 240.161 9.75439 240.581 9.96436C241 10.1743 241.311 10.4282 241.511 10.7261C241.716 11.019 241.818 11.3779 241.818 11.8027C241.818 12.5107 241.535 13.0796 240.969 13.5093C240.402 13.9341 239.667 14.1465 238.764 14.1465C238.129 14.1465 237.568 14.0342 237.08 13.8096C236.591 13.585 236.208 13.2725 235.93 12.8721C235.656 12.4668 235.52 12.0298 235.52 11.561H236.875C236.899 12.0151 237.08 12.3765 237.417 12.645C237.758 12.9087 238.208 13.0405 238.764 13.0405C239.277 13.0405 239.687 12.938 239.995 12.7329C240.307 12.5229 240.463 12.2446 240.463 11.8979ZM246.872 14.1465C245.798 14.1465 244.924 13.7949 244.25 13.0918C243.576 12.3838 243.239 11.439 243.239 10.2573V10.0083C243.239 9.22217 243.388 8.52148 243.686 7.90625C243.989 7.28613 244.409 6.80273 244.946 6.45605C245.488 6.10449 246.074 5.92871 246.704 5.92871C247.734 5.92871 248.535 6.26807 249.106 6.94678C249.677 7.62549 249.963 8.59717 249.963 9.86182V10.4258H244.594C244.614 11.207 244.841 11.8394 245.275 12.3228C245.715 12.8013 246.271 13.0405 246.945 13.0405C247.424 13.0405 247.829 12.9429 248.161 12.7476C248.493 12.5522 248.784 12.2935 249.033 11.9712L249.86 12.6157C249.196 13.6362 248.2 14.1465 246.872 14.1465ZM246.704 7.04199C246.157 7.04199 245.698 7.24219 245.327 7.64258C244.956 8.03809 244.726 8.59473 244.638 9.3125H248.608V9.20996C248.569 8.52148 248.383 7.98926 248.051 7.61328C247.719 7.23242 247.27 7.04199 246.704 7.04199Z" fill="black"/>
<path d="M309.164 39.1415C308.83 39.1415 308.672 39.1415 308.426 39.3522C308.321 39.44 308.128 39.7034 308.128 39.9844C308.128 40.3356 308.391 40.5464 308.725 40.5464C309.146 40.5464 309.621 40.1952 309.621 39.4927C309.621 38.6498 308.813 38 307.601 38C305.301 38 303 40.5113 303 43.0049C303 44.5328 303.948 45.9201 305.74 45.9201C308.128 45.9201 309.638 44.0586 309.638 43.8303C309.638 43.725 309.533 43.6371 309.463 43.6371C309.41 43.6371 309.392 43.6547 309.234 43.8128C308.11 45.3055 306.442 45.5689 305.775 45.5689C304.563 45.5689 304.177 44.5152 304.177 43.6371C304.177 43.0225 304.475 41.3191 305.107 40.1249C305.564 39.2995 306.512 38.3512 307.619 38.3512C307.847 38.3512 308.813 38.3863 309.164 39.1415Z" fill="black"/>
<path d="M313.346 40.9211C313.346 40.605 313.323 40.5932 313.007 40.5932C312.527 41.0615 311.906 41.3425 310.794 41.3425V41.7289C311.11 41.7289 311.742 41.7289 312.422 41.4128V47.4187C312.422 47.8519 312.386 47.9924 311.274 47.9924H310.864V48.3787C311.344 48.3436 312.351 48.3436 312.878 48.3436C313.405 48.3436 314.423 48.3436 314.903 48.3787V47.9924H314.494C313.382 47.9924 313.346 47.8519 313.346 47.4187V40.9211Z" fill="black"/>
<path d="M283 50L271 107.5L343.5 23.5" stroke="black" stroke-width="2"/>
<circle cx="343" cy="24" r="14" fill="white" stroke="black" stroke-width="2"/>
<path d="M343.552 20.1766C343.552 19.0702 342.99 19 342.849 19C342.428 19 342.041 19.4215 342.041 19.7727C342.041 19.9835 342.164 20.1064 342.234 20.1766C342.41 20.3347 342.867 20.8089 342.867 21.7221C342.867 22.4597 341.813 26.5692 339.706 26.5692C338.634 26.5692 338.424 25.6735 338.424 25.0237C338.424 24.1456 338.827 22.9163 339.302 21.6518C339.583 20.9318 339.653 20.7562 339.653 20.4049C339.653 19.6674 339.126 19 338.265 19C336.65 19 336 21.5465 336 21.687C336 21.7572 336.07 21.845 336.193 21.845C336.351 21.845 336.369 21.7748 336.439 21.5289C336.861 20.0186 337.545 19.3512 338.213 19.3512C338.371 19.3512 338.669 19.3512 338.669 19.9308C338.669 20.3874 338.476 20.8967 338.213 21.564C337.37 23.8119 337.37 24.3564 337.37 24.7778C337.37 25.1642 337.423 25.8842 337.967 26.376C338.599 26.9204 339.477 26.9204 339.635 26.9204C342.551 26.9204 343.552 21.1777 343.552 20.1766Z" fill="black"/>
<path d="M347.484 21.9211C347.484 21.605 347.461 21.5933 347.145 21.5933C346.665 22.0616 346.044 22.3426 344.932 22.3426V22.729C345.248 22.729 345.88 22.729 346.559 22.4129V28.419C346.559 28.8522 346.524 28.9927 345.412 28.9927H345.002V29.3791C345.482 29.3439 346.489 29.3439 347.016 29.3439C347.543 29.3439 348.561 29.3439 349.041 29.3791V28.9927H348.632C347.519 28.9927 347.484 28.8522 347.484 28.419V21.9211Z" fill="black"/>
<circle cx="282" cy="49" r="14" fill="white" stroke="black" stroke-width="2"/>
<path d="M282.552 45.1766C282.552 44.0702 281.99 44 281.849 44C281.428 44 281.041 44.4215 281.041 44.7727C281.041 44.9835 281.164 45.1064 281.234 45.1766C281.41 45.3347 281.867 45.8089 281.867 46.7221C281.867 47.4597 280.813 51.5692 278.706 51.5692C277.634 51.5692 277.424 50.6735 277.424 50.0237C277.424 49.1456 277.827 47.9163 278.302 46.6518C278.583 45.9318 278.653 45.7562 278.653 45.4049C278.653 44.6674 278.126 44 277.265 44C275.65 44 275 46.5465 275 46.687C275 46.7572 275.07 46.845 275.193 46.845C275.351 46.845 275.369 46.7748 275.439 46.5289C275.861 45.0186 276.545 44.3512 277.213 44.3512C277.371 44.3512 277.669 44.3512 277.669 44.9308C277.669 45.3874 277.476 45.8967 277.213 46.564C276.37 48.8119 276.37 49.3564 276.37 49.7778C276.37 50.1642 276.423 50.8842 276.967 51.376C277.599 51.9204 278.477 51.9204 278.635 51.9204C281.551 51.9204 282.552 46.1777 282.552 45.1766Z" fill="black"/>
<path d="M286.11 51.9907C286.297 51.815 286.789 51.4287 286.976 51.2648C287.702 50.5974 288.393 49.9535 288.393 48.8881C288.393 47.4948 287.222 46.5933 285.758 46.5933C284.353 46.5933 283.429 47.6587 283.429 48.7007C283.429 49.2744 283.885 49.3564 284.049 49.3564C284.295 49.3564 284.658 49.1808 284.658 48.7359C284.658 48.127 284.073 48.127 283.932 48.127C284.272 47.2724 285.056 46.9797 285.63 46.9797C286.718 46.9797 287.28 47.9046 287.28 48.8881C287.28 50.1057 286.426 50.9955 285.044 52.4121L283.569 53.9342C283.429 54.0629 283.429 54.0864 283.429 54.3791H288.053L288.393 52.2834H288.03C287.995 52.5175 287.901 53.1029 287.76 53.3254C287.69 53.419 286.8 53.419 286.613 53.419H284.529L286.11 51.9907Z" fill="black"/>
<circle cx="271" cy="104" r="14" fill="white" stroke="black" stroke-width="2"/>
<path d="M271.552 100.177C271.552 99.0702 270.99 99 270.849 99C270.428 99 270.041 99.4215 270.041 99.7727C270.041 99.9835 270.164 100.106 270.234 100.177C270.41 100.335 270.867 100.809 270.867 101.722C270.867 102.46 269.813 106.569 267.706 106.569C266.634 106.569 266.424 105.673 266.424 105.024C266.424 104.146 266.827 102.916 267.302 101.652C267.583 100.932 267.653 100.756 267.653 100.405C267.653 99.6674 267.126 99 266.265 99C264.65 99 264 101.546 264 101.687C264 101.757 264.07 101.845 264.193 101.845C264.351 101.845 264.369 101.775 264.439 101.529C264.861 100.019 265.545 99.3512 266.213 99.3512C266.371 99.3512 266.669 99.3512 266.669 99.9308C266.669 100.387 266.476 100.897 266.213 101.564C265.37 103.812 265.37 104.356 265.37 104.778C265.37 105.164 265.423 105.884 265.967 106.376C266.599 106.92 267.477 106.92 267.635 106.92C270.551 106.92 271.552 101.178 271.552 100.177Z" fill="black"/>
<path d="M273.447 102.799C273.599 102.846 274.068 102.963 274.559 102.963C276.023 102.963 276.913 101.933 276.913 101.757C276.913 101.628 276.831 101.593 276.772 101.593C276.749 101.593 276.725 101.593 276.62 101.652C276.163 101.828 275.625 101.968 274.993 101.968C274.302 101.968 273.728 101.792 273.365 101.652C273.248 101.593 273.225 101.593 273.213 101.593C273.061 101.593 273.061 101.722 273.061 101.933V105.363C273.061 105.574 273.061 105.715 273.248 105.715C273.342 105.715 273.377 105.668 273.435 105.574C273.576 105.398 274.021 104.801 275.016 104.801C275.672 104.801 275.988 105.34 276.093 105.562C276.292 105.984 276.316 106.522 276.316 106.979C276.316 107.412 276.304 108.044 275.976 108.56C275.754 108.911 275.285 109.274 274.665 109.274C273.904 109.274 273.154 108.794 272.885 108.033C272.92 108.044 272.991 108.044 273.002 108.044C273.33 108.044 273.588 107.834 273.588 107.471C273.588 107.038 273.248 106.885 273.014 106.885C272.803 106.885 272.429 107.002 272.429 107.506C272.429 108.56 273.342 109.625 274.688 109.625C276.152 109.625 277.393 108.489 277.393 107.038C277.393 105.679 276.409 104.473 275.028 104.473C274.442 104.473 273.892 104.661 273.447 105.059V102.799Z" fill="black"/>
<path d="M379 132.5L366 79" stroke="black" stroke-width="2"/>
<circle cx="365" cy="80" r="14" fill="white" stroke="black" stroke-width="2"/>
<path d="M365.552 76.1766C365.552 75.0702 364.99 75 364.849 75C364.428 75 364.041 75.4215 364.041 75.7727C364.041 75.9835 364.164 76.1064 364.234 76.1766C364.41 76.3347 364.867 76.8089 364.867 77.7221C364.867 78.4597 363.813 82.5692 361.706 82.5692C360.634 82.5692 360.424 81.6735 360.424 81.0237C360.424 80.1456 360.827 78.9163 361.302 77.6518C361.583 76.9318 361.653 76.7562 361.653 76.4049C361.653 75.6674 361.126 75 360.265 75C358.65 75 358 77.5465 358 77.687C358 77.7572 358.07 77.845 358.193 77.845C358.351 77.845 358.369 77.7748 358.439 77.5289C358.861 76.0186 359.545 75.3512 360.213 75.3512C360.371 75.3512 360.669 75.3512 360.669 75.9308C360.669 76.3874 360.476 76.8967 360.213 77.564C359.37 79.8119 359.37 80.3564 359.37 80.7778C359.37 81.1642 359.423 81.8842 359.967 82.376C360.599 82.9204 361.477 82.9204 361.635 82.9204C364.551 82.9204 365.552 77.1777 365.552 76.1766Z" fill="black"/>
<path d="M368.77 81.4686C369.695 81.4686 370.28 82.1477 370.28 83.377C370.28 84.8405 369.449 85.2737 368.829 85.2737C368.185 85.2737 367.307 85.0395 366.897 84.419C367.318 84.419 367.611 84.1497 367.611 83.7634C367.611 83.3887 367.342 83.1194 366.967 83.1194C366.651 83.1194 366.323 83.3185 366.323 83.7868C366.323 84.899 367.517 85.6249 368.852 85.6249C370.409 85.6249 371.498 84.5478 371.498 83.377C371.498 82.4053 370.725 81.5155 369.531 81.2579C370.456 80.9301 371.147 80.1339 371.147 79.1973C371.147 78.2607 370.093 77.5933 368.875 77.5933C367.623 77.5933 366.674 78.2724 366.674 79.1622C366.674 79.5954 366.967 79.7827 367.271 79.7827C367.634 79.7827 367.869 79.5251 367.869 79.1856C367.869 78.7524 367.494 78.5885 367.236 78.5768C367.728 77.9328 368.63 77.8977 368.84 77.8977C369.145 77.8977 370.035 77.9914 370.035 79.1973C370.035 80.0169 369.695 80.5086 369.531 80.6959C369.18 81.0589 368.911 81.0823 368.196 81.1291C367.974 81.1408 367.88 81.1525 367.88 81.3047C367.88 81.4686 367.986 81.4686 368.185 81.4686H368.77Z" fill="black"/>
<circle cx="378" cy="131" r="14" fill="white" stroke="black" stroke-width="2"/>
<path d="M378.552 127.177C378.552 126.07 377.99 126 377.849 126C377.428 126 377.041 126.421 377.041 126.773C377.041 126.983 377.164 127.106 377.234 127.177C377.41 127.335 377.867 127.809 377.867 128.722C377.867 129.46 376.813 133.569 374.706 133.569C373.634 133.569 373.424 132.673 373.424 132.024C373.424 131.146 373.827 129.916 374.302 128.652C374.583 127.932 374.653 127.756 374.653 127.405C374.653 126.667 374.126 126 373.265 126C371.65 126 371 128.546 371 128.687C371 128.757 371.07 128.845 371.193 128.845C371.351 128.845 371.369 128.775 371.439 128.529C371.861 127.019 372.545 126.351 373.213 126.351C373.371 126.351 373.669 126.351 373.669 126.931C373.669 127.387 373.476 127.897 373.213 128.564C372.37 130.812 372.37 131.356 372.37 131.778C372.37 132.164 372.423 132.884 372.967 133.376C373.599 133.92 374.477 133.92 374.635 133.92C377.551 133.92 378.552 128.178 378.552 127.177Z" fill="black"/>
<path d="M380.424 132.504C380.424 131.532 380.506 130.677 380.927 129.963C381.278 129.378 381.876 128.898 382.613 128.898C382.847 128.898 383.386 128.933 383.655 129.343C383.128 129.366 383.081 129.764 383.081 129.893C383.081 130.244 383.351 130.443 383.632 130.443C383.842 130.443 384.182 130.314 384.182 129.869C384.182 129.167 383.655 128.593 382.601 128.593C380.974 128.593 379.323 130.139 379.323 132.668C379.323 135.84 380.798 136.625 381.934 136.625C382.496 136.625 383.105 136.473 383.632 135.969C384.1 135.513 384.498 135.021 384.498 134.002C384.498 132.469 383.339 131.391 382.039 131.391C381.196 131.391 380.693 131.93 380.424 132.504ZM381.934 136.274C381.314 136.274 380.927 135.84 380.752 135.513C380.482 134.986 380.459 134.19 380.459 133.745C380.459 132.586 381.091 131.719 381.993 131.719C382.578 131.719 382.929 132.024 383.152 132.434C383.398 132.867 383.398 133.394 383.398 133.991C383.398 134.588 383.398 135.103 383.163 135.524C382.859 136.063 382.449 136.274 381.934 136.274Z" fill="black"/>
<path d="M361.166 103.142C360.832 103.142 360.674 103.142 360.428 103.353C360.323 103.441 360.13 103.704 360.13 103.985C360.13 104.336 360.393 104.547 360.727 104.547C361.149 104.547 361.623 104.196 361.623 103.493C361.623 102.65 360.815 102 359.603 102C357.301 102 355 104.512 355 107.007C355 108.535 355.949 109.923 357.741 109.923C360.13 109.923 361.64 108.061 361.64 107.832C361.64 107.727 361.535 107.639 361.465 107.639C361.412 107.639 361.395 107.657 361.236 107.815C360.112 109.308 358.443 109.572 357.776 109.572C356.564 109.572 356.177 108.518 356.177 107.639C356.177 107.024 356.476 105.32 357.108 104.126C357.565 103.3 358.513 102.351 359.62 102.351C359.849 102.351 360.815 102.386 361.166 103.142Z" fill="black"/>
<path d="M364.975 109.993C365.163 109.818 365.654 109.431 365.842 109.267C366.568 108.6 367.259 107.955 367.259 106.89C367.259 105.496 366.088 104.594 364.624 104.594C363.218 104.594 362.293 105.66 362.293 106.702C362.293 107.276 362.75 107.358 362.914 107.358C363.16 107.358 363.523 107.182 363.523 106.737C363.523 106.128 362.937 106.128 362.797 106.128C363.136 105.273 363.921 104.981 364.495 104.981C365.584 104.981 366.146 105.906 366.146 106.89C366.146 108.108 365.291 108.998 363.909 110.415L362.434 111.937C362.293 112.066 362.293 112.09 362.293 112.382H366.919L367.259 110.286H366.896C366.861 110.52 366.767 111.106 366.627 111.328C366.556 111.422 365.666 111.422 365.479 111.422H363.394L364.975 109.993Z" fill="black"/>
<path d="M329.5 129L269 148.5L312.5 186L329.5 129Z" stroke="black" stroke-width="2"/>
<circle cx="330" cy="128" r="14" fill="white" stroke="black" stroke-width="2"/>
<path d="M330.552 124.177C330.552 123.07 329.99 123 329.849 123C329.428 123 329.041 123.421 329.041 123.773C329.041 123.983 329.164 124.106 329.234 124.177C329.41 124.335 329.867 124.809 329.867 125.722C329.867 126.46 328.813 130.569 326.706 130.569C325.634 130.569 325.424 129.673 325.424 129.024C325.424 128.146 325.827 126.916 326.302 125.652C326.583 124.932 326.653 124.756 326.653 124.405C326.653 123.667 326.126 123 325.265 123C323.65 123 323 125.546 323 125.687C323 125.757 323.07 125.845 323.193 125.845C323.351 125.845 323.369 125.775 323.439 125.529C323.861 124.019 324.545 123.351 325.213 123.351C325.371 123.351 325.669 123.351 325.669 123.931C325.669 124.387 325.476 124.897 325.213 125.564C324.37 127.812 324.37 128.356 324.37 128.778C324.37 129.164 324.423 129.884 324.967 130.376C325.599 130.92 326.477 130.92 326.635 130.92C329.551 130.92 330.552 125.178 330.552 124.177Z" fill="black"/>
<path d="M335.421 125.804C335.421 125.57 335.421 125.476 335.175 125.476C335.023 125.476 335.011 125.488 334.894 125.652L331.159 131.073V131.459H334.461V132.431C334.461 132.864 334.426 132.993 333.524 132.993H333.255V133.379C334.25 133.344 334.274 133.344 334.941 133.344C335.608 133.344 335.632 133.344 336.627 133.379V132.993H336.358C335.456 132.993 335.421 132.864 335.421 132.431V131.459H336.662V131.073H335.421V125.804ZM334.543 126.752V131.073H331.569L334.543 126.752Z" fill="black"/>
<circle cx="269" cy="145" r="14" fill="white" stroke="black" stroke-width="2"/>
<path d="M269.552 141.177C269.552 140.07 268.99 140 268.849 140C268.428 140 268.041 140.421 268.041 140.773C268.041 140.983 268.164 141.106 268.234 141.177C268.41 141.335 268.867 141.809 268.867 142.722C268.867 143.46 267.813 147.569 265.706 147.569C264.634 147.569 264.424 146.673 264.424 146.024C264.424 145.146 264.827 143.916 265.302 142.652C265.583 141.932 265.653 141.756 265.653 141.405C265.653 140.667 265.126 140 264.265 140C262.65 140 262 142.546 262 142.687C262 142.757 262.07 142.845 262.193 142.845C262.351 142.845 262.369 142.775 262.439 142.529C262.861 141.019 263.545 140.351 264.213 140.351C264.371 140.351 264.669 140.351 264.669 140.931C264.669 141.387 264.476 141.897 264.213 142.564C263.37 144.812 263.37 145.356 263.37 145.778C263.37 146.164 263.423 146.884 263.967 147.376C264.599 147.92 265.477 147.92 265.635 147.92C268.551 147.92 269.552 142.178 269.552 141.177Z" fill="black"/>
<path d="M271.447 143.799C271.599 143.846 272.068 143.963 272.559 143.963C274.023 143.963 274.913 142.933 274.913 142.757C274.913 142.628 274.831 142.593 274.772 142.593C274.749 142.593 274.725 142.593 274.62 142.652C274.163 142.828 273.625 142.968 272.993 142.968C272.302 142.968 271.728 142.792 271.365 142.652C271.248 142.593 271.225 142.593 271.213 142.593C271.061 142.593 271.061 142.722 271.061 142.933V146.363C271.061 146.574 271.061 146.715 271.248 146.715C271.342 146.715 271.377 146.668 271.435 146.574C271.576 146.398 272.021 145.801 273.016 145.801C273.672 145.801 273.988 146.34 274.093 146.562C274.292 146.984 274.316 147.522 274.316 147.979C274.316 148.412 274.304 149.044 273.976 149.56C273.754 149.911 273.285 150.274 272.665 150.274C271.904 150.274 271.154 149.794 270.885 149.033C270.92 149.044 270.991 149.044 271.002 149.044C271.33 149.044 271.588 148.834 271.588 148.471C271.588 148.038 271.248 147.885 271.014 147.885C270.803 147.885 270.429 148.002 270.429 148.506C270.429 149.56 271.342 150.625 272.688 150.625C274.152 150.625 275.393 149.489 275.393 148.038C275.393 146.679 274.409 145.473 273.028 145.473C272.442 145.473 271.892 145.661 271.447 146.059V143.799Z" fill="black"/>
<circle cx="312" cy="183" r="14" fill="white" stroke="black" stroke-width="2"/>
<path d="M312.552 179.177C312.552 178.07 311.99 178 311.849 178C311.428 178 311.041 178.421 311.041 178.773C311.041 178.983 311.164 179.106 311.234 179.177C311.41 179.335 311.867 179.809 311.867 180.722C311.867 181.46 310.813 185.569 308.706 185.569C307.634 185.569 307.424 184.673 307.424 184.024C307.424 183.146 307.827 181.916 308.302 180.652C308.583 179.932 308.653 179.756 308.653 179.405C308.653 178.667 308.126 178 307.265 178C305.65 178 305 180.546 305 180.687C305 180.757 305.07 180.845 305.193 180.845C305.351 180.845 305.369 180.775 305.439 180.529C305.861 179.019 306.545 178.351 307.213 178.351C307.371 178.351 307.669 178.351 307.669 178.931C307.669 179.387 307.476 179.897 307.213 180.564C306.37 182.812 306.37 183.356 306.37 183.778C306.37 184.164 306.423 184.884 306.967 185.376C307.599 185.92 308.477 185.92 308.635 185.92C311.551 185.92 312.552 180.178 312.552 179.177Z" fill="black"/>
<path d="M318.732 181.249C318.838 181.12 318.838 181.097 318.838 180.839H315.864C315.571 180.839 315.208 180.827 314.915 180.804C314.307 180.757 314.295 180.652 314.26 180.465H313.897L313.499 182.935H313.862C313.885 182.759 314.014 181.951 314.178 181.858C314.307 181.799 315.185 181.799 315.36 181.799H317.842L316.637 183.415C315.302 185.195 315.021 187.044 315.021 187.969C315.021 188.086 315.021 188.625 315.571 188.625C316.121 188.625 316.121 188.098 316.121 187.958V187.396C316.121 185.71 316.402 184.328 316.976 183.567L318.732 181.249Z" fill="black"/>
<path d="M303.165 150.142C302.832 150.142 302.674 150.142 302.428 150.353C302.322 150.44 302.129 150.704 302.129 150.985C302.129 151.336 302.393 151.547 302.726 151.547C303.148 151.547 303.622 151.196 303.622 150.493C303.622 149.65 302.814 149 301.602 149C299.301 149 297 151.512 297 154.006C297 155.534 297.949 156.922 299.74 156.922C302.129 156.922 303.64 155.06 303.64 154.832C303.64 154.726 303.534 154.638 303.464 154.638C303.411 154.638 303.394 154.656 303.236 154.814C302.112 156.307 300.443 156.571 299.775 156.571C298.563 156.571 298.177 155.517 298.177 154.638C298.177 154.024 298.475 152.32 299.108 151.125C299.565 150.3 300.513 149.351 301.62 149.351C301.848 149.351 302.814 149.386 303.165 150.142Z" fill="black"/>
<path d="M306.634 155.47C307.56 155.47 308.145 156.149 308.145 157.379C308.145 158.843 307.314 159.276 306.693 159.276C306.049 159.276 305.171 159.042 304.761 158.421C305.182 158.421 305.475 158.152 305.475 157.765C305.475 157.39 305.206 157.121 304.831 157.121C304.515 157.121 304.187 157.32 304.187 157.789C304.187 158.901 305.381 159.627 306.716 159.627C308.274 159.627 309.363 158.55 309.363 157.379C309.363 156.407 308.59 155.517 307.396 155.259C308.321 154.931 309.012 154.135 309.012 153.198C309.012 152.261 307.958 151.594 306.74 151.594C305.487 151.594 304.538 152.273 304.538 153.163C304.538 153.596 304.831 153.784 305.136 153.784C305.499 153.784 305.733 153.526 305.733 153.186C305.733 152.753 305.358 152.589 305.1 152.578C305.592 151.933 306.494 151.898 306.705 151.898C307.009 151.898 307.899 151.992 307.899 153.198C307.899 154.018 307.56 154.51 307.396 154.697C307.044 155.06 306.775 155.084 306.061 155.13C305.838 155.142 305.745 155.154 305.745 155.306C305.745 155.47 305.85 155.47 306.049 155.47H306.634Z" fill="black"/>
<circle cx="375" cy="205" r="14" fill="white" stroke="black" stroke-width="2"/>
<path d="M375.552 201.177C375.552 200.07 374.99 200 374.849 200C374.428 200 374.041 200.421 374.041 200.773C374.041 200.983 374.164 201.106 374.234 201.177C374.41 201.335 374.867 201.809 374.867 202.722C374.867 203.46 373.813 207.569 371.706 207.569C370.634 207.569 370.424 206.673 370.424 206.024C370.424 205.146 370.827 203.916 371.302 202.652C371.583 201.932 371.653 201.756 371.653 201.405C371.653 200.667 371.126 200 370.265 200C368.65 200 368 202.546 368 202.687C368 202.757 368.07 202.845 368.193 202.845C368.351 202.845 368.369 202.775 368.439 202.529C368.861 201.019 369.545 200.351 370.213 200.351C370.371 200.351 370.669 200.351 370.669 200.931C370.669 201.387 370.476 201.897 370.213 202.564C369.37 204.812 369.37 205.356 369.37 205.778C369.37 206.164 369.423 206.884 369.967 207.376C370.599 207.92 371.477 207.92 371.635 207.92C374.551 207.92 375.552 202.178 375.552 201.177Z" fill="black"/>
<path d="M379.695 206.153C380.351 205.836 381.147 205.251 381.147 204.338C381.147 203.226 380.011 202.593 378.922 202.593C377.681 202.593 376.674 203.448 376.674 204.549C376.674 204.982 376.827 205.38 377.119 205.719C377.318 205.965 377.365 205.989 378.091 206.445C376.639 207.089 376.323 207.944 376.323 208.599C376.323 209.887 377.623 210.625 378.899 210.625C380.339 210.625 381.498 209.653 381.498 208.412C381.498 207.675 381.1 207.183 380.913 206.984C380.714 206.796 380.702 206.785 379.695 206.153ZM377.88 205.052C377.541 204.853 377.26 204.513 377.26 204.104C377.26 203.366 378.068 202.898 378.899 202.898C379.812 202.898 380.561 203.518 380.561 204.338C380.561 205.017 380.035 205.591 379.344 205.93L377.88 205.052ZM378.454 206.656C378.501 206.679 379.836 207.499 380.035 207.628C380.222 207.733 380.831 208.108 380.831 208.81C380.831 209.712 379.882 210.274 378.922 210.274C377.88 210.274 376.991 209.56 376.991 208.599C376.991 207.721 377.646 207.031 378.454 206.656Z" fill="black"/>
<path d="M396.162 187.141C395.828 187.141 395.67 187.141 395.424 187.352C395.319 187.439 395.126 187.703 395.126 187.984C395.126 188.335 395.389 188.545 395.723 188.545C396.144 188.545 396.618 188.194 396.618 187.492C396.618 186.65 395.81 186 394.599 186C392.3 186 390 188.51 390 191.003C390 192.53 390.948 193.917 392.738 193.917C395.126 193.917 396.636 192.056 396.636 191.828C396.636 191.723 396.53 191.635 396.46 191.635C396.407 191.635 396.39 191.652 396.232 191.81C395.108 193.303 393.441 193.566 392.774 193.566C391.562 193.566 391.176 192.513 391.176 191.635C391.176 191.021 391.475 189.318 392.107 188.124C392.563 187.299 393.511 186.351 394.617 186.351C394.845 186.351 395.81 186.386 396.162 187.141Z" fill="black"/>
<path d="M401.278 188.803C401.278 188.569 401.278 188.475 401.033 188.475C400.881 188.475 400.869 188.487 400.752 188.651L397.019 194.069V194.455H400.319V195.427C400.319 195.86 400.284 195.988 399.383 195.988H399.113V196.375C400.108 196.34 400.132 196.34 400.799 196.34C401.466 196.34 401.489 196.34 402.484 196.375V195.988H402.215C401.314 195.988 401.278 195.86 401.278 195.427V194.455H402.519V194.069H401.278V188.803ZM400.401 189.751V194.069H397.428L400.401 189.751Z" fill="black"/>
<path d="M213.779 105.421C213.779 105.404 213.849 105.176 213.849 105.158C213.849 105 213.709 105 213.656 105C213.498 105 213.481 105.088 213.41 105.351L210.513 116.976C209.055 116.8 208.511 116.063 208.511 115.009C208.511 114.623 208.511 114.219 209.336 112.042C209.565 111.409 209.652 111.181 209.652 110.865C209.652 110.075 209.091 109.443 208.265 109.443C206.65 109.443 206 111.989 206 112.129C206 112.2 206.07 112.287 206.193 112.287C206.351 112.287 206.369 112.217 206.439 111.971C206.86 110.444 207.563 109.794 208.213 109.794C208.371 109.794 208.669 109.811 208.669 110.373C208.669 110.444 208.669 110.83 208.371 111.603C207.422 114.096 207.422 114.482 207.422 114.886C207.422 116.572 208.827 117.222 210.408 117.345C210.267 117.889 210.144 118.451 210.004 118.995C209.723 120.049 209.6 120.541 209.6 120.611C209.6 120.769 209.74 120.769 209.793 120.769C209.828 120.769 209.898 120.769 209.933 120.699C210.004 120.628 210.724 117.678 210.794 117.362C211.444 117.362 212.831 117.362 214.411 115.729C214.991 115.097 215.517 114.289 215.816 113.534C215.992 113.078 216.413 111.515 216.413 110.619C216.413 109.566 215.886 109.443 215.711 109.443C215.289 109.443 214.903 109.864 214.903 110.215C214.903 110.426 215.026 110.549 215.096 110.619C215.254 110.777 215.728 111.251 215.728 112.164C215.728 112.797 215.377 114.096 214.253 115.36C212.778 117.011 211.426 117.011 210.899 117.011L213.779 105.421Z" fill="black"/>
</svg>
