<svg width="740" height="230" viewBox="0 0 740 230" fill="none" xmlns="http://www.w3.org/2000/svg">
<path d="M47 90L35 147.5M35 147.5L95.5 128M35 147.5L78.5 185L95.5 128M35 147.5L107.5 63.5L148 95L161 148.5M95.5 128L161 148.5M161 148.5L132.5 187.5" stroke="black" stroke-width="2"/>
<circle cx="107" cy="64" r="14" fill="white" stroke="black" stroke-width="2"/>
<path d="M107.552 60.1766C107.552 59.0702 106.99 59 106.849 59C106.428 59 106.041 59.4215 106.041 59.7727C106.041 59.9835 106.164 60.1064 106.234 60.1766C106.41 60.3347 106.867 60.8089 106.867 61.7221C106.867 62.4597 105.813 66.5692 103.706 66.5692C102.634 66.5692 102.424 65.6735 102.424 65.0237C102.424 64.1456 102.827 62.9163 103.302 61.6518C103.583 60.9318 103.653 60.7562 103.653 60.4049C103.653 59.6674 103.126 59 102.265 59C100.65 59 100 61.5465 100 61.687C100 61.7572 100.07 61.845 100.193 61.845C100.351 61.845 100.369 61.7748 100.439 61.5289C100.861 60.0186 101.545 59.3512 102.213 59.3512C102.371 59.3512 102.669 59.3512 102.669 59.9308C102.669 60.3874 102.476 60.8967 102.213 61.564C101.37 63.8119 101.37 64.3564 101.37 64.7778C101.37 65.1642 101.423 65.8842 101.967 66.376C102.599 66.9204 103.477 66.9204 103.635 66.9204C106.551 66.9204 107.552 61.1777 107.552 60.1766Z" fill="black"/>
<path d="M111.484 61.9211C111.484 61.605 111.461 61.5933 111.145 61.5933C110.665 62.0616 110.044 62.3426 108.932 62.3426V62.729C109.248 62.729 109.88 62.729 110.559 62.4129V68.419C110.559 68.8522 110.524 68.9927 109.412 68.9927H109.002V69.3791C109.482 69.3439 110.489 69.3439 111.016 69.3439C111.543 69.3439 112.561 69.3439 113.042 69.3791V68.9927H112.632C111.519 68.9927 111.484 68.8522 111.484 68.419V61.9211Z" fill="black"/>
<circle cx="46" cy="89" r="14" fill="white" stroke="black" stroke-width="2"/>
<path d="M46.5516 85.1766C46.5516 84.0702 45.9896 84 45.8491 84C45.4276 84 45.0413 84.4215 45.0413 84.7727C45.0413 84.9835 45.1642 85.1064 45.2344 85.1766C45.4101 85.3347 45.8667 85.8089 45.8667 86.7221C45.8667 87.4597 44.813 91.5692 42.7055 91.5692C41.6343 91.5692 41.4235 90.6735 41.4235 90.0237C41.4235 89.1456 41.8275 87.9163 42.3016 86.6518C42.5826 85.9318 42.6529 85.7562 42.6529 85.4049C42.6529 84.6674 42.126 84 41.2655 84C39.6498 84 39 86.5465 39 86.687C39 86.7572 39.0702 86.845 39.1932 86.845C39.3512 86.845 39.3688 86.7748 39.439 86.5289C39.8605 85.0186 40.5454 84.3512 41.2128 84.3512C41.3709 84.3512 41.6694 84.3512 41.6694 84.9308C41.6694 85.3874 41.4762 85.8967 41.2128 86.564C40.3698 88.8119 40.3698 89.3564 40.3698 89.7778C40.3698 90.1642 40.4225 90.8842 40.9669 91.376C41.5991 91.9204 42.4772 91.9204 42.6353 91.9204C45.5506 91.9204 46.5516 86.1777 46.5516 85.1766Z" fill="black"/>
<path d="M50.1097 91.9907C50.297 91.815 50.7888 91.4287 50.9761 91.2648C51.702 90.5974 52.3927 89.9535 52.3927 88.8881C52.3927 87.4948 51.2219 86.5933 49.7585 86.5933C48.3535 86.5933 47.4286 87.6587 47.4286 88.7007C47.4286 89.2744 47.8852 89.3564 48.0491 89.3564C48.295 89.3564 48.6579 89.1808 48.6579 88.7359C48.6579 88.127 48.0725 88.127 47.932 88.127C48.2716 87.2724 49.056 86.9797 49.6297 86.9797C50.7185 86.9797 51.2805 87.9046 51.2805 88.8881C51.2805 90.1057 50.4258 90.9955 49.0443 92.4121L47.5691 93.9342C47.4286 94.0629 47.4286 94.0864 47.4286 94.3791H52.0532L52.3927 92.2834H52.0298C51.9947 92.5175 51.901 93.1029 51.7605 93.3254C51.6903 93.419 50.8005 93.419 50.6131 93.419H48.5291L50.1097 91.9907Z" fill="black"/>
<circle cx="147" cy="96" r="14" fill="white" stroke="black" stroke-width="2"/>
<path d="M147.552 92.1766C147.552 91.0702 146.99 91 146.849 91C146.428 91 146.041 91.4215 146.041 91.7727C146.041 91.9835 146.164 92.1064 146.234 92.1766C146.41 92.3347 146.867 92.8089 146.867 93.7221C146.867 94.4597 145.813 98.5692 143.706 98.5692C142.634 98.5692 142.424 97.6735 142.424 97.0237C142.424 96.1456 142.827 94.9163 143.302 93.6518C143.583 92.9318 143.653 92.7562 143.653 92.4049C143.653 91.6674 143.126 91 142.265 91C140.65 91 140 93.5465 140 93.687C140 93.7572 140.07 93.845 140.193 93.845C140.351 93.845 140.369 93.7748 140.439 93.5289C140.861 92.0186 141.545 91.3512 142.213 91.3512C142.371 91.3512 142.669 91.3512 142.669 91.9308C142.669 92.3874 142.476 92.8967 142.213 93.564C141.37 95.8119 141.37 96.3564 141.37 96.7778C141.37 97.1642 141.423 97.8842 141.967 98.376C142.599 98.9204 143.477 98.9204 143.635 98.9204C146.551 98.9204 147.552 93.1777 147.552 92.1766Z" fill="black"/>
<path d="M150.77 97.4686C151.695 97.4686 152.28 98.1477 152.28 99.377C152.28 100.84 151.449 101.274 150.829 101.274C150.185 101.274 149.307 101.04 148.897 100.419C149.318 100.419 149.611 100.15 149.611 99.7634C149.611 99.3887 149.342 99.1194 148.967 99.1194C148.651 99.1194 148.323 99.3185 148.323 99.7868C148.323 100.899 149.517 101.625 150.852 101.625C152.409 101.625 153.498 100.548 153.498 99.377C153.498 98.4053 152.725 97.5155 151.531 97.2579C152.456 96.9301 153.147 96.1339 153.147 95.1973C153.147 94.2607 152.093 93.5933 150.875 93.5933C149.623 93.5933 148.674 94.2724 148.674 95.1622C148.674 95.5954 148.967 95.7827 149.272 95.7827C149.634 95.7827 149.869 95.5251 149.869 95.1856C149.869 94.7524 149.494 94.5885 149.236 94.5768C149.728 93.9328 150.63 93.8977 150.84 93.8977C151.145 93.8977 152.035 93.9914 152.035 95.1973C152.035 96.0169 151.695 96.5086 151.531 96.6959C151.18 97.0589 150.911 97.0823 150.196 97.1291C149.974 97.1408 149.88 97.1525 149.88 97.3047C149.88 97.4686 149.986 97.4686 150.185 97.4686H150.77Z" fill="black"/>
<circle cx="96" cy="127" r="14" fill="white" stroke="black" stroke-width="2"/>
<path d="M96.5516 123.177C96.5516 122.07 95.9896 122 95.8491 122C95.4276 122 95.0413 122.421 95.0413 122.773C95.0413 122.983 95.1642 123.106 95.2344 123.177C95.4101 123.335 95.8667 123.809 95.8667 124.722C95.8667 125.46 94.813 129.569 92.7055 129.569C91.6343 129.569 91.4235 128.673 91.4235 128.024C91.4235 127.146 91.8275 125.916 92.3016 124.652C92.5826 123.932 92.6529 123.756 92.6529 123.405C92.6529 122.667 92.126 122 91.2655 122C89.6498 122 89 124.546 89 124.687C89 124.757 89.0702 124.845 89.1932 124.845C89.3512 124.845 89.3688 124.775 89.439 124.529C89.8605 123.019 90.5454 122.351 91.2128 122.351C91.3709 122.351 91.6694 122.351 91.6694 122.931C91.6694 123.387 91.4762 123.897 91.2128 124.564C90.3698 126.812 90.3698 127.356 90.3698 127.778C90.3698 128.164 90.4225 128.884 90.9669 129.376C91.5991 129.92 92.4772 129.92 92.6353 129.92C95.5506 129.92 96.5516 124.178 96.5516 123.177Z" fill="black"/>
<path d="M101.421 124.804C101.421 124.57 101.421 124.476 101.175 124.476C101.023 124.476 101.011 124.488 100.894 124.652L97.1593 130.073V130.459H100.461V131.431C100.461 131.864 100.426 131.993 99.5243 131.993H99.255V132.379C100.25 132.344 100.274 132.344 100.941 132.344C101.608 132.344 101.632 132.344 102.627 132.379V131.993H102.358C101.456 131.993 101.421 131.864 101.421 131.431V130.459H102.662V130.073H101.421V124.804ZM100.543 125.752V130.073H97.5691L100.543 125.752Z" fill="black"/>
<circle cx="35" cy="144" r="14" fill="white" stroke="black" stroke-width="2"/>
<path d="M35.5516 140.177C35.5516 139.07 34.9896 139 34.8491 139C34.4276 139 34.0413 139.421 34.0413 139.773C34.0413 139.983 34.1642 140.106 34.2344 140.177C34.4101 140.335 34.8667 140.809 34.8667 141.722C34.8667 142.46 33.813 146.569 31.7055 146.569C30.6343 146.569 30.4235 145.673 30.4235 145.024C30.4235 144.146 30.8275 142.916 31.3016 141.652C31.5826 140.932 31.6529 140.756 31.6529 140.405C31.6529 139.667 31.126 139 30.2655 139C28.6498 139 28 141.546 28 141.687C28 141.757 28.0702 141.845 28.1932 141.845C28.3512 141.845 28.3688 141.775 28.439 141.529C28.8605 140.019 29.5454 139.351 30.2128 139.351C30.3709 139.351 30.6694 139.351 30.6694 139.931C30.6694 140.387 30.4762 140.897 30.2128 141.564C29.3698 143.812 29.3698 144.356 29.3698 144.778C29.3698 145.164 29.4225 145.884 29.9669 146.376C30.5991 146.92 31.4772 146.92 31.6353 146.92C34.5506 146.92 35.5516 141.178 35.5516 140.177Z" fill="black"/>
<path d="M37.4472 142.799C37.5994 142.846 38.0677 142.963 38.5594 142.963C40.0229 142.963 40.9127 141.933 40.9127 141.757C40.9127 141.628 40.8308 141.593 40.7722 141.593C40.7488 141.593 40.7254 141.593 40.62 141.652C40.1634 141.828 39.6248 141.968 38.9926 141.968C38.3018 141.968 37.7282 141.792 37.3652 141.652C37.2481 141.593 37.2247 141.593 37.213 141.593C37.0608 141.593 37.0608 141.722 37.0608 141.933V145.363C37.0608 145.574 37.0608 145.715 37.2481 145.715C37.3418 145.715 37.3769 145.668 37.4355 145.574C37.576 145.398 38.0209 144.801 39.016 144.801C39.6717 144.801 39.9878 145.34 40.0932 145.562C40.2922 145.984 40.3156 146.522 40.3156 146.979C40.3156 147.412 40.3039 148.044 39.9761 148.56C39.7536 148.911 39.2853 149.274 38.6648 149.274C37.9038 149.274 37.1545 148.794 36.8852 148.033C36.9203 148.044 36.9906 148.044 37.0023 148.044C37.3301 148.044 37.5877 147.834 37.5877 147.471C37.5877 147.038 37.2481 146.885 37.014 146.885C36.8032 146.885 36.4286 147.002 36.4286 147.506C36.4286 148.56 37.3418 149.625 38.6882 149.625C40.1517 149.625 41.3927 148.489 41.3927 147.038C41.3927 145.679 40.4093 144.473 39.0277 144.473C38.4424 144.473 37.8921 144.661 37.4472 145.059V142.799Z" fill="black"/>
<circle cx="160" cy="147" r="14" fill="white" stroke="black" stroke-width="2"/>
<path d="M160.552 143.177C160.552 142.07 159.99 142 159.849 142C159.428 142 159.041 142.421 159.041 142.773C159.041 142.983 159.164 143.106 159.234 143.177C159.41 143.335 159.867 143.809 159.867 144.722C159.867 145.46 158.813 149.569 156.706 149.569C155.634 149.569 155.424 148.673 155.424 148.024C155.424 147.146 155.827 145.916 156.302 144.652C156.583 143.932 156.653 143.756 156.653 143.405C156.653 142.667 156.126 142 155.265 142C153.65 142 153 144.546 153 144.687C153 144.757 153.07 144.845 153.193 144.845C153.351 144.845 153.369 144.775 153.439 144.529C153.861 143.019 154.545 142.351 155.213 142.351C155.371 142.351 155.669 142.351 155.669 142.931C155.669 143.387 155.476 143.897 155.213 144.564C154.37 146.812 154.37 147.356 154.37 147.778C154.37 148.164 154.423 148.884 154.967 149.376C155.599 149.92 156.477 149.92 156.635 149.92C159.551 149.92 160.552 144.178 160.552 143.177Z" fill="black"/>
<path d="M162.424 148.504C162.424 147.532 162.506 146.677 162.927 145.963C163.278 145.378 163.876 144.898 164.613 144.898C164.847 144.898 165.386 144.933 165.655 145.343C165.128 145.366 165.081 145.764 165.081 145.893C165.081 146.244 165.351 146.443 165.632 146.443C165.842 146.443 166.182 146.314 166.182 145.869C166.182 145.167 165.655 144.593 164.601 144.593C162.974 144.593 161.323 146.139 161.323 148.668C161.323 151.84 162.798 152.625 163.934 152.625C164.496 152.625 165.105 152.473 165.632 151.969C166.1 151.513 166.498 151.021 166.498 150.002C166.498 148.469 165.339 147.391 164.039 147.391C163.196 147.391 162.693 147.93 162.424 148.504ZM163.934 152.274C163.314 152.274 162.927 151.84 162.752 151.513C162.482 150.986 162.459 150.19 162.459 149.745C162.459 148.586 163.091 147.719 163.993 147.719C164.578 147.719 164.929 148.024 165.152 148.434C165.398 148.867 165.398 149.394 165.398 149.991C165.398 150.588 165.398 151.103 165.163 151.524C164.859 152.063 164.449 152.274 163.934 152.274Z" fill="black"/>
<circle cx="78" cy="182" r="14" fill="white" stroke="black" stroke-width="2"/>
<path d="M78.5516 178.177C78.5516 177.07 77.9896 177 77.8491 177C77.4276 177 77.0413 177.421 77.0413 177.773C77.0413 177.983 77.1642 178.106 77.2344 178.177C77.4101 178.335 77.8667 178.809 77.8667 179.722C77.8667 180.46 76.813 184.569 74.7055 184.569C73.6343 184.569 73.4235 183.673 73.4235 183.024C73.4235 182.146 73.8275 180.916 74.3016 179.652C74.5826 178.932 74.6529 178.756 74.6529 178.405C74.6529 177.667 74.126 177 73.2655 177C71.6498 177 71 179.546 71 179.687C71 179.757 71.0702 179.845 71.1932 179.845C71.3512 179.845 71.3688 179.775 71.439 179.529C71.8605 178.019 72.5454 177.351 73.2128 177.351C73.3709 177.351 73.6694 177.351 73.6694 177.931C73.6694 178.387 73.4762 178.897 73.2128 179.564C72.3698 181.812 72.3698 182.356 72.3698 182.778C72.3698 183.164 72.4225 183.884 72.9669 184.376C73.5991 184.92 74.4772 184.92 74.6353 184.92C77.5506 184.92 78.5516 179.178 78.5516 178.177Z" fill="black"/>
<path d="M84.7322 180.249C84.8376 180.12 84.8376 180.097 84.8376 179.839H81.8638C81.5711 179.839 81.2082 179.827 80.9155 179.804C80.3066 179.757 80.2949 179.652 80.2598 179.465H79.8969L79.4988 181.935H79.8618C79.8852 181.759 80.014 180.951 80.1779 180.858C80.3066 180.799 81.1847 180.799 81.3604 180.799H83.8424L82.6365 182.415C81.3018 184.195 81.0208 186.044 81.0208 186.969C81.0208 187.086 81.0208 187.625 81.5711 187.625C82.1214 187.625 82.1214 187.098 82.1214 186.958V186.396C82.1214 184.71 82.4024 183.328 82.9761 182.567L84.7322 180.249Z" fill="black"/>
<circle cx="131" cy="186" r="14" fill="white" stroke="black" stroke-width="2"/>
<path d="M131.552 182.177C131.552 181.07 130.99 181 130.849 181C130.428 181 130.041 181.421 130.041 181.773C130.041 181.983 130.164 182.106 130.234 182.177C130.41 182.335 130.867 182.809 130.867 183.722C130.867 184.46 129.813 188.569 127.706 188.569C126.634 188.569 126.424 187.673 126.424 187.024C126.424 186.146 126.827 184.916 127.302 183.652C127.583 182.932 127.653 182.756 127.653 182.405C127.653 181.667 127.126 181 126.265 181C124.65 181 124 183.546 124 183.687C124 183.757 124.07 183.845 124.193 183.845C124.351 183.845 124.369 183.775 124.439 183.529C124.861 182.019 125.545 181.351 126.213 181.351C126.371 181.351 126.669 181.351 126.669 181.931C126.669 182.387 126.476 182.897 126.213 183.564C125.37 185.812 125.37 186.356 125.37 186.778C125.37 187.164 125.423 187.884 125.967 188.376C126.599 188.92 127.477 188.92 127.635 188.92C130.551 188.92 131.552 183.178 131.552 182.177Z" fill="black"/>
<path d="M135.695 187.153C136.351 186.836 137.147 186.251 137.147 185.338C137.147 184.226 136.011 183.593 134.922 183.593C133.681 183.593 132.674 184.448 132.674 185.549C132.674 185.982 132.827 186.38 133.119 186.719C133.318 186.965 133.365 186.989 134.091 187.445C132.639 188.089 132.323 188.944 132.323 189.599C132.323 190.887 133.623 191.625 134.899 191.625C136.339 191.625 137.498 190.653 137.498 189.412C137.498 188.675 137.1 188.183 136.913 187.984C136.714 187.796 136.702 187.785 135.695 187.153ZM133.88 186.052C133.541 185.853 133.26 185.513 133.26 185.104C133.26 184.366 134.068 183.898 134.899 183.898C135.812 183.898 136.561 184.518 136.561 185.338C136.561 186.017 136.035 186.591 135.344 186.93L133.88 186.052ZM134.454 187.656C134.501 187.679 135.836 188.499 136.035 188.628C136.222 188.733 136.831 189.108 136.831 189.81C136.831 190.712 135.882 191.274 134.922 191.274C133.88 191.274 132.991 190.56 132.991 189.599C132.991 188.721 133.646 188.031 134.454 187.656Z" fill="black"/>
<path d="M9.40251 120.122C9.40251 120 9.30794 120 9.28092 120C9.2539 120 9.19986 120 9.09179 120.135L8.15964 121.256C8.09209 121.148 7.82191 120.675 7.29504 120.365C6.71415 120 6.13324 120 5.9306 120C3.0396 120 0 122.945 0 126.133C0 128.362 1.54007 129.794 3.56646 129.794C4.53913 129.794 5.76849 129.47 6.44395 128.619C6.59256 129.132 6.88976 129.497 6.98433 129.497C7.05188 129.497 7.06538 129.457 7.0789 129.457C7.0924 129.43 7.20048 128.957 7.26803 128.714L7.48417 127.849C7.59225 127.403 7.64628 127.214 7.74085 126.809C7.87594 126.295 7.90296 126.255 8.64598 126.241C8.70002 126.241 8.86213 126.241 8.86213 125.985C8.86213 125.85 8.72704 125.85 8.6865 125.85C8.45684 125.85 8.20018 125.877 7.957 125.877H7.22749C6.66011 125.877 6.0657 125.85 5.51181 125.85C5.39023 125.85 5.22812 125.85 5.22812 126.093C5.22812 126.228 5.33619 126.228 5.33619 126.241H5.67392C6.74116 126.241 6.74116 126.349 6.74116 126.552C6.74116 126.566 6.48448 127.93 6.22781 128.335C5.71445 129.092 4.64722 129.403 3.85016 129.403C2.80994 129.403 1.12128 128.862 1.12128 126.525C1.12128 125.62 1.4455 123.553 2.7559 122.026C3.607 121.054 4.86336 120.392 6.05218 120.392C7.64628 120.392 8.21368 121.756 8.21368 122.999C8.21368 123.215 8.15964 123.512 8.15964 123.702C8.15964 123.823 8.29473 123.823 8.33527 123.823C8.48386 123.823 8.49738 123.81 8.55141 123.566L9.40251 120.122Z" fill="black"/>
<path d="M697.924 128.104C698.375 128.104 698.769 127.968 699.106 127.694C699.444 127.421 699.631 127.079 699.667 126.669H700.863C700.84 127.093 700.695 127.496 700.426 127.879C700.157 128.262 699.797 128.567 699.346 128.795C698.899 129.023 698.425 129.137 697.924 129.137C696.917 129.137 696.115 128.802 695.518 128.132C694.925 127.457 694.629 126.537 694.629 125.37V125.158C694.629 124.438 694.761 123.798 695.025 123.237C695.29 122.677 695.668 122.242 696.16 121.932C696.657 121.622 697.243 121.467 697.917 121.467C698.746 121.467 699.435 121.715 699.981 122.212C700.533 122.709 700.827 123.354 700.863 124.146H699.667C699.631 123.668 699.448 123.276 699.12 122.971C698.797 122.661 698.396 122.506 697.917 122.506C697.274 122.506 696.775 122.738 696.42 123.203C696.069 123.663 695.894 124.331 695.894 125.206V125.445C695.894 126.298 696.069 126.954 696.42 127.414C696.771 127.874 697.272 128.104 697.924 128.104ZM703.659 129H702.395V118.5H703.659V129ZM710.256 129C710.183 128.854 710.124 128.594 710.078 128.221C709.49 128.831 708.788 129.137 707.973 129.137C707.243 129.137 706.644 128.932 706.175 128.521C705.71 128.107 705.478 127.583 705.478 126.949C705.478 126.179 705.769 125.582 706.353 125.158C706.94 124.73 707.765 124.516 708.827 124.516H710.058V123.935C710.058 123.493 709.925 123.142 709.661 122.882C709.397 122.618 709.007 122.485 708.492 122.485C708.041 122.485 707.663 122.599 707.357 122.827C707.052 123.055 706.899 123.331 706.899 123.654H705.628C705.628 123.285 705.758 122.93 706.018 122.588C706.282 122.242 706.637 121.968 707.084 121.768C707.535 121.567 708.03 121.467 708.567 121.467C709.42 121.467 710.087 121.681 710.57 122.109C711.053 122.533 711.304 123.119 711.322 123.866V127.271C711.322 127.95 711.409 128.49 711.582 128.891V129H710.256ZM708.157 128.036C708.554 128.036 708.93 127.934 709.285 127.729C709.641 127.523 709.898 127.257 710.058 126.929V125.411H709.066C707.517 125.411 706.742 125.865 706.742 126.771C706.742 127.168 706.874 127.478 707.139 127.701C707.403 127.924 707.743 128.036 708.157 128.036ZM717.611 127.038C717.611 126.696 717.481 126.432 717.222 126.245C716.966 126.054 716.518 125.89 715.875 125.753C715.237 125.616 714.729 125.452 714.351 125.261C713.977 125.069 713.699 124.841 713.517 124.577C713.339 124.313 713.25 123.998 713.25 123.634C713.25 123.028 713.505 122.515 714.016 122.096C714.531 121.676 715.187 121.467 715.984 121.467C716.823 121.467 717.502 121.683 718.021 122.116C718.546 122.549 718.808 123.103 718.808 123.777H717.536C717.536 123.431 717.388 123.132 717.092 122.882C716.8 122.631 716.431 122.506 715.984 122.506C715.524 122.506 715.164 122.606 714.904 122.807C714.645 123.007 714.515 123.269 714.515 123.593C714.515 123.898 714.635 124.128 714.877 124.283C715.118 124.438 715.554 124.586 716.183 124.728C716.816 124.869 717.329 125.037 717.721 125.233C718.113 125.429 718.402 125.666 718.589 125.944C718.78 126.218 718.876 126.553 718.876 126.949C718.876 127.61 718.612 128.141 718.083 128.542C717.554 128.938 716.868 129.137 716.025 129.137C715.433 129.137 714.909 129.032 714.453 128.822C713.997 128.613 713.64 128.321 713.38 127.947C713.125 127.569 712.997 127.161 712.997 126.724H714.262C714.285 127.147 714.453 127.485 714.768 127.735C715.087 127.981 715.506 128.104 716.025 128.104C716.504 128.104 716.887 128.009 717.174 127.817C717.465 127.621 717.611 127.362 717.611 127.038ZM724.83 127.038C724.83 126.696 724.7 126.432 724.44 126.245C724.185 126.054 723.736 125.89 723.094 125.753C722.456 125.616 721.948 125.452 721.569 125.261C721.196 125.069 720.918 124.841 720.735 124.577C720.558 124.313 720.469 123.998 720.469 123.634C720.469 123.028 720.724 122.515 721.234 122.096C721.749 121.676 722.406 121.467 723.203 121.467C724.042 121.467 724.721 121.683 725.24 122.116C725.764 122.549 726.026 123.103 726.026 123.777H724.755C724.755 123.431 724.607 123.132 724.311 122.882C724.019 122.631 723.65 122.506 723.203 122.506C722.743 122.506 722.383 122.606 722.123 122.807C721.863 123.007 721.733 123.269 721.733 123.593C721.733 123.898 721.854 124.128 722.096 124.283C722.337 124.438 722.772 124.586 723.401 124.728C724.035 124.869 724.548 125.037 724.939 125.233C725.331 125.429 725.621 125.666 725.808 125.944C725.999 126.218 726.095 126.553 726.095 126.949C726.095 127.61 725.83 128.141 725.302 128.542C724.773 128.938 724.087 129.137 723.244 129.137C722.652 129.137 722.128 129.032 721.672 128.822C721.216 128.613 720.858 128.321 720.599 127.947C720.343 127.569 720.216 127.161 720.216 126.724H721.48C721.503 127.147 721.672 127.485 721.986 127.735C722.305 127.981 722.725 128.104 723.244 128.104C723.723 128.104 724.105 128.009 724.393 127.817C724.684 127.621 724.83 127.362 724.83 127.038ZM731.146 129V119.047H734.633C735.84 119.047 736.757 119.279 737.381 119.744C738.005 120.204 738.317 120.881 738.317 121.774C738.317 122.262 738.192 122.693 737.941 123.066C737.691 123.436 737.342 123.707 736.896 123.88C737.406 124.007 737.807 124.265 738.099 124.652C738.395 125.04 738.543 125.514 738.543 126.074C738.543 127.031 738.238 127.756 737.627 128.248C737.016 128.74 736.146 128.991 735.016 129H731.146ZM733.197 124.666V127.353H734.954C735.437 127.353 735.813 127.239 736.082 127.011C736.355 126.778 736.492 126.459 736.492 126.054C736.492 125.142 736.021 124.68 735.077 124.666H733.197ZM733.197 123.217H734.715C735.749 123.199 736.267 122.786 736.267 121.979C736.267 121.528 736.134 121.205 735.87 121.009C735.61 120.808 735.198 120.708 734.633 120.708H733.197V123.217Z" fill="#B33535"/>
</svg>
