<svg width="740" height="230" viewBox="0 0 740 230" fill="none" xmlns="http://www.w3.org/2000/svg">
<path d="M690 125L680 119.226V130.774L690 125ZM635 126H681V124H635V126ZM636 125V49H634V125H636ZM634 125V211H636V125H634ZM634 211C634 213.209 632.209 215 630 215V217C633.314 217 636 214.314 636 211H634ZM636 49C636 45.6863 633.314 43 630 43V45C632.209 45 634 46.7909 634 49H636Z" fill="black"/>
<path d="M661.979 116.786C662.067 117.893 662.278 118.701 662.366 119.035C662.559 119.826 662.647 120.212 663.403 120.212C664.193 120.212 665.546 119.422 665.546 119.07C665.546 118.982 665.476 118.947 665.388 118.947C665.159 118.947 664.791 119.14 664.738 119.176C664.615 119.246 664.58 119.246 664.545 119.246C664.053 119.246 663.947 118.771 663.736 117.717C663.613 117.138 663.455 116.435 663.315 114.028C663.192 112.236 663.121 110.444 663.121 108.652C663.121 108.23 663.139 107.773 663.139 107.351C663.139 107.07 663.139 107 662.946 107C662.7 107 661.979 107.299 661.663 107.773L661.54 107.966C660.152 110.936 658.852 113.061 657.938 114.485C656.902 116.083 655.075 118.947 654.126 118.947C653.476 118.947 652.931 118.526 652.773 117.893C652.755 117.858 652.72 117.752 652.65 117.752C652.387 117.752 652 118.596 652 119.088C652 119.791 652.755 120.564 653.581 120.564C654.794 120.564 656.814 117.401 657.201 116.786H661.979ZM661.628 109.161V110.18C661.628 111.199 661.663 112.218 661.716 113.237C661.733 113.589 661.804 114.906 661.892 115.82H658.676C658.395 115.82 658.132 115.82 657.675 116.101C658.905 114.203 659.924 112.376 660.029 112.183C660.908 110.619 661.382 109.6 661.61 109.161H661.628Z" fill="black"/>
<path d="M630.144 11.2168H625.676L624.673 14H623.223L627.295 3.33594H628.525L632.605 14H631.162L630.144 11.2168ZM626.101 10.0596H629.727L627.91 5.07178L626.101 10.0596ZM633.506 9.97168C633.506 8.73633 633.792 7.75488 634.363 7.02734C634.934 6.29492 635.691 5.92871 636.633 5.92871C637.6 5.92871 638.354 6.27051 638.896 6.9541L638.962 6.0752H640.2V13.8096C640.2 14.835 639.895 15.6431 639.285 16.2339C638.679 16.8247 637.864 17.1201 636.838 17.1201C636.267 17.1201 635.708 16.998 635.161 16.7539C634.614 16.5098 634.197 16.1753 633.909 15.7505L634.612 14.9375C635.193 15.6553 635.903 16.0142 636.743 16.0142C637.402 16.0142 637.915 15.8286 638.281 15.4575C638.652 15.0864 638.838 14.564 638.838 13.8901V13.209C638.296 13.834 637.556 14.1465 636.619 14.1465C635.691 14.1465 634.939 13.7729 634.363 13.0259C633.792 12.2788 633.506 11.2607 633.506 9.97168ZM634.868 10.1255C634.868 11.019 635.051 11.7222 635.417 12.2349C635.784 12.7427 636.296 12.9966 636.956 12.9966C637.81 12.9966 638.438 12.6084 638.838 11.832V8.21387C638.423 7.45703 637.8 7.07861 636.97 7.07861C636.311 7.07861 635.796 7.33496 635.425 7.84766C635.054 8.36035 634.868 9.11963 634.868 10.1255ZM641.929 9.97168C641.929 8.73633 642.214 7.75488 642.786 7.02734C643.357 6.29492 644.114 5.92871 645.056 5.92871C646.023 5.92871 646.777 6.27051 647.319 6.9541L647.385 6.0752H648.623V13.8096C648.623 14.835 648.318 15.6431 647.708 16.2339C647.102 16.8247 646.287 17.1201 645.261 17.1201C644.69 17.1201 644.131 16.998 643.584 16.7539C643.037 16.5098 642.62 16.1753 642.332 15.7505L643.035 14.9375C643.616 15.6553 644.326 16.0142 645.166 16.0142C645.825 16.0142 646.338 15.8286 646.704 15.4575C647.075 15.0864 647.261 14.564 647.261 13.8901V13.209C646.719 13.834 645.979 14.1465 645.042 14.1465C644.114 14.1465 643.362 13.7729 642.786 13.0259C642.214 12.2788 641.929 11.2607 641.929 9.97168ZM643.291 10.1255C643.291 11.019 643.474 11.7222 643.84 12.2349C644.207 12.7427 644.719 12.9966 645.378 12.9966C646.233 12.9966 646.86 12.6084 647.261 11.832V8.21387C646.846 7.45703 646.223 7.07861 645.393 7.07861C644.734 7.07861 644.219 7.33496 643.848 7.84766C643.477 8.36035 643.291 9.11963 643.291 10.1255ZM654.504 7.29102C654.299 7.25684 654.077 7.23975 653.838 7.23975C652.949 7.23975 652.346 7.61816 652.029 8.375V14H650.674V6.0752H651.992L652.014 6.99072C652.458 6.28271 653.088 5.92871 653.904 5.92871C654.167 5.92871 654.368 5.96289 654.504 6.03125V7.29102ZM658.899 14.1465C657.825 14.1465 656.951 13.7949 656.277 13.0918C655.603 12.3838 655.266 11.439 655.266 10.2573V10.0083C655.266 9.22217 655.415 8.52148 655.713 7.90625C656.016 7.28613 656.436 6.80273 656.973 6.45605C657.515 6.10449 658.101 5.92871 658.73 5.92871C659.761 5.92871 660.562 6.26807 661.133 6.94678C661.704 7.62549 661.99 8.59717 661.99 9.86182V10.4258H656.621C656.641 11.207 656.868 11.8394 657.302 12.3228C657.742 12.8013 658.298 13.0405 658.972 13.0405C659.451 13.0405 659.856 12.9429 660.188 12.7476C660.52 12.5522 660.811 12.2935 661.06 11.9712L661.887 12.6157C661.223 13.6362 660.227 14.1465 658.899 14.1465ZM658.73 7.04199C658.184 7.04199 657.725 7.24219 657.354 7.64258C656.982 8.03809 656.753 8.59473 656.665 9.3125H660.635V9.20996C660.596 8.52148 660.41 7.98926 660.078 7.61328C659.746 7.23242 659.297 7.04199 658.73 7.04199ZM663.242 9.97168C663.242 8.73633 663.528 7.75488 664.099 7.02734C664.67 6.29492 665.427 5.92871 666.37 5.92871C667.336 5.92871 668.091 6.27051 668.633 6.9541L668.699 6.0752H669.937V13.8096C669.937 14.835 669.631 15.6431 669.021 16.2339C668.416 16.8247 667.6 17.1201 666.575 17.1201C666.003 17.1201 665.444 16.998 664.897 16.7539C664.351 16.5098 663.933 16.1753 663.645 15.7505L664.348 14.9375C664.929 15.6553 665.64 16.0142 666.479 16.0142C667.139 16.0142 667.651 15.8286 668.018 15.4575C668.389 15.0864 668.574 14.564 668.574 13.8901V13.209C668.032 13.834 667.292 14.1465 666.355 14.1465C665.427 14.1465 664.675 13.7729 664.099 13.0259C663.528 12.2788 663.242 11.2607 663.242 9.97168ZM664.604 10.1255C664.604 11.019 664.788 11.7222 665.154 12.2349C665.52 12.7427 666.033 12.9966 666.692 12.9966C667.546 12.9966 668.174 12.6084 668.574 11.832V8.21387C668.159 7.45703 667.537 7.07861 666.707 7.07861C666.047 7.07861 665.532 7.33496 665.161 7.84766C664.79 8.36035 664.604 9.11963 664.604 10.1255ZM676.88 14C676.802 13.8438 676.738 13.5654 676.689 13.165C676.06 13.8193 675.308 14.1465 674.434 14.1465C673.652 14.1465 673.01 13.9268 672.507 13.4873C672.009 13.043 671.76 12.4814 671.76 11.8027C671.76 10.9775 672.073 10.3379 672.698 9.88379C673.328 9.4248 674.211 9.19531 675.349 9.19531H676.667V8.57275C676.667 8.09912 676.526 7.72314 676.243 7.44482C675.959 7.16162 675.542 7.02002 674.99 7.02002C674.507 7.02002 674.102 7.14209 673.774 7.38623C673.447 7.63037 673.284 7.92578 673.284 8.27246H671.921C671.921 7.87695 672.061 7.49609 672.339 7.12988C672.622 6.75879 673.003 6.46582 673.481 6.25098C673.965 6.03613 674.495 5.92871 675.071 5.92871C675.984 5.92871 676.699 6.1582 677.217 6.61719C677.734 7.07129 678.003 7.69873 678.022 8.49951V12.147C678.022 12.8745 678.115 13.4531 678.301 13.8828V14H676.88ZM674.631 12.9673C675.056 12.9673 675.459 12.8574 675.84 12.6377C676.221 12.418 676.497 12.1323 676.667 11.7808V10.1548H675.605C673.945 10.1548 673.115 10.6406 673.115 11.6123C673.115 12.0371 673.257 12.3691 673.54 12.6084C673.823 12.8477 674.187 12.9673 674.631 12.9673ZM681.985 4.15625V6.0752H683.464V7.12256H681.985V12.0371C681.985 12.3545 682.051 12.5938 682.183 12.7549C682.314 12.9111 682.539 12.9893 682.856 12.9893C683.013 12.9893 683.228 12.96 683.501 12.9014V14C683.145 14.0977 682.798 14.1465 682.461 14.1465C681.855 14.1465 681.399 13.9634 681.091 13.5972C680.784 13.231 680.63 12.7109 680.63 12.0371V7.12256H679.187V6.0752H680.63V4.15625H681.985ZM688.342 14.1465C687.268 14.1465 686.394 13.7949 685.72 13.0918C685.046 12.3838 684.709 11.439 684.709 10.2573V10.0083C684.709 9.22217 684.858 8.52148 685.156 7.90625C685.459 7.28613 685.879 6.80273 686.416 6.45605C686.958 6.10449 687.544 5.92871 688.174 5.92871C689.204 5.92871 690.005 6.26807 690.576 6.94678C691.147 7.62549 691.433 8.59717 691.433 9.86182V10.4258H686.064C686.084 11.207 686.311 11.8394 686.746 12.3228C687.185 12.8013 687.742 13.0405 688.416 13.0405C688.894 13.0405 689.299 12.9429 689.631 12.7476C689.963 12.5522 690.254 12.2935 690.503 11.9712L691.331 12.6157C690.667 13.6362 689.67 14.1465 688.342 14.1465ZM688.174 7.04199C687.627 7.04199 687.168 7.24219 686.797 7.64258C686.426 8.03809 686.196 8.59473 686.108 9.3125H690.078V9.20996C690.039 8.52148 689.854 7.98926 689.521 7.61328C689.189 7.23242 688.74 7.04199 688.174 7.04199Z" fill="black"/>
<path d="M701.145 130.962C700.671 131.63 699.986 132.227 699.125 132.227C698.914 132.227 698.071 132.192 697.808 131.384C697.861 131.401 697.948 131.401 697.983 131.401C698.51 131.401 698.862 130.945 698.862 130.541C698.862 130.137 698.528 129.996 698.264 129.996C697.983 129.996 697.369 130.207 697.369 131.068C697.369 131.963 698.124 132.578 699.125 132.578C700.881 132.578 702.655 130.962 703.147 129.013L704.868 122.163C704.886 122.076 704.921 121.97 704.921 121.865C704.921 121.601 704.71 121.426 704.446 121.426C704.288 121.426 703.92 121.496 703.779 122.023L702.479 127.186C702.392 127.502 702.392 127.537 702.251 127.731C701.9 128.222 701.32 128.82 700.477 128.82C699.494 128.82 699.406 127.854 699.406 127.379C699.406 126.378 699.88 125.026 700.354 123.762C700.548 123.252 700.653 123.006 700.653 122.655C700.653 121.917 700.126 121.25 699.266 121.25C697.65 121.25 697 123.797 697 123.937C697 124.007 697.07 124.095 697.193 124.095C697.351 124.095 697.369 124.025 697.439 123.779C697.861 122.304 698.528 121.601 699.213 121.601C699.371 121.601 699.67 121.601 699.67 122.181C699.67 122.638 699.476 123.147 699.213 123.814C698.352 126.115 698.352 126.694 698.352 127.116C698.352 128.784 699.547 129.171 700.425 129.171C700.934 129.171 701.566 129.013 702.181 128.363L702.198 128.38C701.935 129.417 701.759 130.102 701.145 130.962Z" fill="black"/>
<path d="M720.012 124.956C720.31 124.956 720.627 124.956 720.627 124.605C720.627 124.253 720.31 124.253 720.012 124.253H712.565C712.776 121.9 714.796 120.214 717.272 120.214H720.012C720.31 120.214 720.627 120.214 720.627 119.863C720.627 119.511 720.31 119.511 720.012 119.511H717.237C714.234 119.511 711.845 121.795 711.845 124.605C711.845 127.415 714.234 129.698 717.237 129.698H720.012C720.31 129.698 720.627 129.698 720.627 129.346C720.627 128.995 720.31 128.995 720.012 128.995H717.272C714.796 128.995 712.776 127.309 712.565 124.956H720.012Z" fill="black"/>
<path d="M734.096 127.292C734.149 126.624 734.166 125.676 734.166 125.184C734.166 123.34 734.079 117 730.408 117C729.196 117 728.125 118.071 728.125 118.335C728.125 118.475 728.265 118.475 728.301 118.475C728.406 118.475 728.95 118.387 729.337 117.878C730.882 117.896 731.883 119.037 732.41 121.25C732.744 122.655 732.867 124.218 732.867 125.816C732.867 126.87 732.797 128.082 732.779 128.31C732.761 128.451 732.761 128.486 732.726 128.503C732.691 128.539 730.935 130.014 730.074 130.014C729.934 130.014 728.511 130.014 728.178 128.556C728.142 128.433 728.125 128.328 728.02 128.328C727.809 128.328 727.475 128.925 727.475 129.364C727.475 130.084 728.142 131.366 729.635 131.366C730.97 131.366 733.868 128.784 735.396 127.011C738.908 122.971 739.523 119.95 739.523 119.037C739.523 117.544 738.522 117 737.855 117C737.345 117 737.187 117.878 737.187 118.054C737.187 118.317 737.257 118.335 737.521 118.37C738.557 118.493 738.82 119.318 738.82 119.828C738.82 120.372 737.995 123.498 734.096 127.292Z" fill="black"/>
</svg>
