<svg width="740" height="230" viewBox="0 0 740 230" fill="none" xmlns="http://www.w3.org/2000/svg">
<rect width="740" height="230" fill="white"/>
<path d="M690 125L680 119.226V130.774L690 125ZM635 126H681V124H635V126ZM636 125V49H634V125H636ZM634 125V211H636V125H634ZM634 211C634 213.209 632.209 215 630 215V217C633.314 217 636 214.314 636 211H634ZM636 49C636 45.6863 633.314 43 630 43V45C632.209 45 634 46.7909 634 49H636Z" fill="black"/>
<path d="M661.979 116.786C662.067 117.893 662.278 118.701 662.366 119.035C662.559 119.826 662.647 120.212 663.403 120.212C664.193 120.212 665.546 119.422 665.546 119.07C665.546 118.982 665.476 118.947 665.388 118.947C665.159 118.947 664.791 119.14 664.738 119.176C664.615 119.246 664.58 119.246 664.545 119.246C664.053 119.246 663.947 118.771 663.736 117.717C663.613 117.138 663.455 116.435 663.315 114.028C663.192 112.236 663.121 110.444 663.121 108.652C663.121 108.23 663.139 107.773 663.139 107.351C663.139 107.07 663.139 107 662.946 107C662.7 107 661.979 107.299 661.663 107.773L661.54 107.966C660.152 110.936 658.852 113.061 657.938 114.485C656.902 116.083 655.075 118.947 654.126 118.947C653.476 118.947 652.931 118.526 652.773 117.893C652.755 117.858 652.72 117.752 652.65 117.752C652.387 117.752 652 118.596 652 119.088C652 119.791 652.755 120.564 653.581 120.564C654.794 120.564 656.814 117.401 657.201 116.786H661.979ZM661.628 109.161V110.18C661.628 111.199 661.663 112.218 661.716 113.237C661.733 113.589 661.804 114.906 661.892 115.82H658.676C658.395 115.82 658.132 115.82 657.675 116.101C658.905 114.203 659.924 112.376 660.029 112.183C660.908 110.619 661.382 109.6 661.61 109.161H661.628Z" fill="black"/>
<path d="M438.472 9.0708H433.851V12.8501H439.219V14H432.444V3.33594H439.146V4.49316H433.851V7.9209H438.472V9.0708ZM443.182 12.1616L445.145 6.0752H446.529L443.687 14H442.654L439.783 6.0752H441.167L443.182 12.1616ZM452.608 14C452.53 13.8438 452.466 13.5654 452.417 13.165C451.788 13.8193 451.036 14.1465 450.162 14.1465C449.38 14.1465 448.738 13.9268 448.235 13.4873C447.737 13.043 447.488 12.4814 447.488 11.8027C447.488 10.9775 447.801 10.3379 448.426 9.88379C449.056 9.4248 449.939 9.19531 451.077 9.19531H452.396V8.57275C452.396 8.09912 452.254 7.72314 451.971 7.44482C451.688 7.16162 451.27 7.02002 450.718 7.02002C450.235 7.02002 449.83 7.14209 449.502 7.38623C449.175 7.63037 449.012 7.92578 449.012 8.27246H447.649C447.649 7.87695 447.789 7.49609 448.067 7.12988C448.35 6.75879 448.731 6.46582 449.209 6.25098C449.693 6.03613 450.223 5.92871 450.799 5.92871C451.712 5.92871 452.427 6.1582 452.945 6.61719C453.462 7.07129 453.731 7.69873 453.75 8.49951V12.147C453.75 12.8745 453.843 13.4531 454.029 13.8828V14H452.608ZM450.359 12.9673C450.784 12.9673 451.187 12.8574 451.568 12.6377C451.949 12.418 452.225 12.1323 452.396 11.7808V10.1548H451.333C449.673 10.1548 448.843 10.6406 448.843 11.6123C448.843 12.0371 448.985 12.3691 449.268 12.6084C449.551 12.8477 449.915 12.9673 450.359 12.9673ZM457.347 14H455.992V2.75H457.347V14ZM464.415 13.2163C463.887 13.8364 463.113 14.1465 462.093 14.1465C461.248 14.1465 460.604 13.9023 460.159 13.4141C459.72 12.9209 459.498 12.1934 459.493 11.2314V6.0752H460.848V11.1948C460.848 12.396 461.336 12.9966 462.312 12.9966C463.348 12.9966 464.036 12.6108 464.378 11.8394V6.0752H465.733V14H464.444L464.415 13.2163ZM472.691 14C472.613 13.8438 472.549 13.5654 472.5 13.165C471.871 13.8193 471.119 14.1465 470.245 14.1465C469.463 14.1465 468.821 13.9268 468.318 13.4873C467.82 13.043 467.571 12.4814 467.571 11.8027C467.571 10.9775 467.884 10.3379 468.509 9.88379C469.139 9.4248 470.022 9.19531 471.16 9.19531H472.479V8.57275C472.479 8.09912 472.337 7.72314 472.054 7.44482C471.771 7.16162 471.353 7.02002 470.801 7.02002C470.318 7.02002 469.913 7.14209 469.585 7.38623C469.258 7.63037 469.095 7.92578 469.095 8.27246H467.732C467.732 7.87695 467.872 7.49609 468.15 7.12988C468.433 6.75879 468.814 6.46582 469.292 6.25098C469.776 6.03613 470.306 5.92871 470.882 5.92871C471.795 5.92871 472.51 6.1582 473.028 6.61719C473.545 7.07129 473.814 7.69873 473.833 8.49951V12.147C473.833 12.8745 473.926 13.4531 474.112 13.8828V14H472.691ZM470.442 12.9673C470.867 12.9673 471.27 12.8574 471.651 12.6377C472.032 12.418 472.308 12.1323 472.479 11.7808V10.1548H471.417C469.756 10.1548 468.926 10.6406 468.926 11.6123C468.926 12.0371 469.068 12.3691 469.351 12.6084C469.634 12.8477 469.998 12.9673 470.442 12.9673ZM477.796 4.15625V6.0752H479.275V7.12256H477.796V12.0371C477.796 12.3545 477.862 12.5938 477.994 12.7549C478.125 12.9111 478.35 12.9893 478.667 12.9893C478.824 12.9893 479.039 12.96 479.312 12.9014V14C478.956 14.0977 478.609 14.1465 478.272 14.1465C477.667 14.1465 477.21 13.9634 476.902 13.5972C476.595 13.231 476.441 12.7109 476.441 12.0371V7.12256H474.998V6.0752H476.441V4.15625H477.796ZM484.153 14.1465C483.079 14.1465 482.205 13.7949 481.531 13.0918C480.857 12.3838 480.521 11.439 480.521 10.2573V10.0083C480.521 9.22217 480.669 8.52148 480.967 7.90625C481.27 7.28613 481.69 6.80273 482.227 6.45605C482.769 6.10449 483.355 5.92871 483.985 5.92871C485.015 5.92871 485.816 6.26807 486.387 6.94678C486.958 7.62549 487.244 8.59717 487.244 9.86182V10.4258H481.875C481.895 11.207 482.122 11.8394 482.557 12.3228C482.996 12.8013 483.553 13.0405 484.227 13.0405C484.705 13.0405 485.11 12.9429 485.442 12.7476C485.774 12.5522 486.065 12.2935 486.314 11.9712L487.142 12.6157C486.478 13.6362 485.481 14.1465 484.153 14.1465ZM483.985 7.04199C483.438 7.04199 482.979 7.24219 482.608 7.64258C482.237 8.03809 482.007 8.59473 481.919 9.3125H485.889V9.20996C485.85 8.52148 485.665 7.98926 485.333 7.61328C485 7.23242 484.551 7.04199 483.985 7.04199Z" fill="black"/>
<path d="M630.144 11.2168H625.676L624.673 14H623.223L627.295 3.33594H628.525L632.605 14H631.162L630.144 11.2168ZM626.101 10.0596H629.727L627.91 5.07178L626.101 10.0596ZM633.506 9.97168C633.506 8.73633 633.792 7.75488 634.363 7.02734C634.934 6.29492 635.691 5.92871 636.633 5.92871C637.6 5.92871 638.354 6.27051 638.896 6.9541L638.962 6.0752H640.2V13.8096C640.2 14.835 639.895 15.6431 639.285 16.2339C638.679 16.8247 637.864 17.1201 636.838 17.1201C636.267 17.1201 635.708 16.998 635.161 16.7539C634.614 16.5098 634.197 16.1753 633.909 15.7505L634.612 14.9375C635.193 15.6553 635.903 16.0142 636.743 16.0142C637.402 16.0142 637.915 15.8286 638.281 15.4575C638.652 15.0864 638.838 14.564 638.838 13.8901V13.209C638.296 13.834 637.556 14.1465 636.619 14.1465C635.691 14.1465 634.939 13.7729 634.363 13.0259C633.792 12.2788 633.506 11.2607 633.506 9.97168ZM634.868 10.1255C634.868 11.019 635.051 11.7222 635.417 12.2349C635.784 12.7427 636.296 12.9966 636.956 12.9966C637.81 12.9966 638.438 12.6084 638.838 11.832V8.21387C638.423 7.45703 637.8 7.07861 636.97 7.07861C636.311 7.07861 635.796 7.33496 635.425 7.84766C635.054 8.36035 634.868 9.11963 634.868 10.1255ZM641.929 9.97168C641.929 8.73633 642.214 7.75488 642.786 7.02734C643.357 6.29492 644.114 5.92871 645.056 5.92871C646.023 5.92871 646.777 6.27051 647.319 6.9541L647.385 6.0752H648.623V13.8096C648.623 14.835 648.318 15.6431 647.708 16.2339C647.102 16.8247 646.287 17.1201 645.261 17.1201C644.69 17.1201 644.131 16.998 643.584 16.7539C643.037 16.5098 642.62 16.1753 642.332 15.7505L643.035 14.9375C643.616 15.6553 644.326 16.0142 645.166 16.0142C645.825 16.0142 646.338 15.8286 646.704 15.4575C647.075 15.0864 647.261 14.564 647.261 13.8901V13.209C646.719 13.834 645.979 14.1465 645.042 14.1465C644.114 14.1465 643.362 13.7729 642.786 13.0259C642.214 12.2788 641.929 11.2607 641.929 9.97168ZM643.291 10.1255C643.291 11.019 643.474 11.7222 643.84 12.2349C644.207 12.7427 644.719 12.9966 645.378 12.9966C646.233 12.9966 646.86 12.6084 647.261 11.832V8.21387C646.846 7.45703 646.223 7.07861 645.393 7.07861C644.734 7.07861 644.219 7.33496 643.848 7.84766C643.477 8.36035 643.291 9.11963 643.291 10.1255ZM654.504 7.29102C654.299 7.25684 654.077 7.23975 653.838 7.23975C652.949 7.23975 652.346 7.61816 652.029 8.375V14H650.674V6.0752H651.992L652.014 6.99072C652.458 6.28271 653.088 5.92871 653.904 5.92871C654.167 5.92871 654.368 5.96289 654.504 6.03125V7.29102ZM658.899 14.1465C657.825 14.1465 656.951 13.7949 656.277 13.0918C655.603 12.3838 655.266 11.439 655.266 10.2573V10.0083C655.266 9.22217 655.415 8.52148 655.713 7.90625C656.016 7.28613 656.436 6.80273 656.973 6.45605C657.515 6.10449 658.101 5.92871 658.73 5.92871C659.761 5.92871 660.562 6.26807 661.133 6.94678C661.704 7.62549 661.99 8.59717 661.99 9.86182V10.4258H656.621C656.641 11.207 656.868 11.8394 657.302 12.3228C657.742 12.8013 658.298 13.0405 658.972 13.0405C659.451 13.0405 659.856 12.9429 660.188 12.7476C660.52 12.5522 660.811 12.2935 661.06 11.9712L661.887 12.6157C661.223 13.6362 660.227 14.1465 658.899 14.1465ZM658.73 7.04199C658.184 7.04199 657.725 7.24219 657.354 7.64258C656.982 8.03809 656.753 8.59473 656.665 9.3125H660.635V9.20996C660.596 8.52148 660.41 7.98926 660.078 7.61328C659.746 7.23242 659.297 7.04199 658.73 7.04199ZM663.242 9.97168C663.242 8.73633 663.528 7.75488 664.099 7.02734C664.67 6.29492 665.427 5.92871 666.37 5.92871C667.336 5.92871 668.091 6.27051 668.633 6.9541L668.699 6.0752H669.937V13.8096C669.937 14.835 669.631 15.6431 669.021 16.2339C668.416 16.8247 667.6 17.1201 666.575 17.1201C666.003 17.1201 665.444 16.998 664.897 16.7539C664.351 16.5098 663.933 16.1753 663.645 15.7505L664.348 14.9375C664.929 15.6553 665.64 16.0142 666.479 16.0142C667.139 16.0142 667.651 15.8286 668.018 15.4575C668.389 15.0864 668.574 14.564 668.574 13.8901V13.209C668.032 13.834 667.292 14.1465 666.355 14.1465C665.427 14.1465 664.675 13.7729 664.099 13.0259C663.528 12.2788 663.242 11.2607 663.242 9.97168ZM664.604 10.1255C664.604 11.019 664.788 11.7222 665.154 12.2349C665.52 12.7427 666.033 12.9966 666.692 12.9966C667.546 12.9966 668.174 12.6084 668.574 11.832V8.21387C668.159 7.45703 667.537 7.07861 666.707 7.07861C666.047 7.07861 665.532 7.33496 665.161 7.84766C664.79 8.36035 664.604 9.11963 664.604 10.1255ZM676.88 14C676.802 13.8438 676.738 13.5654 676.689 13.165C676.06 13.8193 675.308 14.1465 674.434 14.1465C673.652 14.1465 673.01 13.9268 672.507 13.4873C672.009 13.043 671.76 12.4814 671.76 11.8027C671.76 10.9775 672.073 10.3379 672.698 9.88379C673.328 9.4248 674.211 9.19531 675.349 9.19531H676.667V8.57275C676.667 8.09912 676.526 7.72314 676.243 7.44482C675.959 7.16162 675.542 7.02002 674.99 7.02002C674.507 7.02002 674.102 7.14209 673.774 7.38623C673.447 7.63037 673.284 7.92578 673.284 8.27246H671.921C671.921 7.87695 672.061 7.49609 672.339 7.12988C672.622 6.75879 673.003 6.46582 673.481 6.25098C673.965 6.03613 674.495 5.92871 675.071 5.92871C675.984 5.92871 676.699 6.1582 677.217 6.61719C677.734 7.07129 678.003 7.69873 678.022 8.49951V12.147C678.022 12.8745 678.115 13.4531 678.301 13.8828V14H676.88ZM674.631 12.9673C675.056 12.9673 675.459 12.8574 675.84 12.6377C676.221 12.418 676.497 12.1323 676.667 11.7808V10.1548H675.605C673.945 10.1548 673.115 10.6406 673.115 11.6123C673.115 12.0371 673.257 12.3691 673.54 12.6084C673.823 12.8477 674.187 12.9673 674.631 12.9673ZM681.985 4.15625V6.0752H683.464V7.12256H681.985V12.0371C681.985 12.3545 682.051 12.5938 682.183 12.7549C682.314 12.9111 682.539 12.9893 682.856 12.9893C683.013 12.9893 683.228 12.96 683.501 12.9014V14C683.145 14.0977 682.798 14.1465 682.461 14.1465C681.855 14.1465 681.399 13.9634 681.091 13.5972C680.784 13.231 680.63 12.7109 680.63 12.0371V7.12256H679.187V6.0752H680.63V4.15625H681.985ZM688.342 14.1465C687.268 14.1465 686.394 13.7949 685.72 13.0918C685.046 12.3838 684.709 11.439 684.709 10.2573V10.0083C684.709 9.22217 684.858 8.52148 685.156 7.90625C685.459 7.28613 685.879 6.80273 686.416 6.45605C686.958 6.10449 687.544 5.92871 688.174 5.92871C689.204 5.92871 690.005 6.26807 690.576 6.94678C691.147 7.62549 691.433 8.59717 691.433 9.86182V10.4258H686.064C686.084 11.207 686.311 11.8394 686.746 12.3228C687.185 12.8013 687.742 13.0405 688.416 13.0405C688.894 13.0405 689.299 12.9429 689.631 12.7476C689.963 12.5522 690.254 12.2935 690.503 11.9712L691.331 12.6157C690.667 13.6362 689.67 14.1465 688.342 14.1465ZM688.174 7.04199C687.627 7.04199 687.168 7.24219 686.797 7.64258C686.426 8.03809 686.196 8.59473 686.108 9.3125H690.078V9.20996C690.039 8.52148 689.854 7.98926 689.521 7.61328C689.189 7.23242 688.74 7.04199 688.174 7.04199Z" fill="black"/>
<path d="M563 54L553 48.2265L553 59.7735L563 54ZM344 55L554 55L554 53L344 53L344 55Z" fill="#355FB3"/>
<path d="M563 104L553 98.2265V109.774L563 104ZM324 105H554V103H324V105Z" fill="#B33535"/>
<path d="M563 206L553 200.226V211.774L563 206ZM344 207H554V205H344V207Z" fill="#355FB3"/>
<path d="M563 155L553 149.226V160.774L563 155ZM334 156H554V154H334V156Z" fill="#355FB3"/>
<circle cx="311" cy="104" r="14" fill="white" stroke="#B33535" stroke-width="2"/>
<circle cx="331" cy="54" r="14" fill="white" stroke="#355FB3" stroke-width="2"/>
<circle cx="321" cy="155" r="14" fill="white" stroke="#355FB3" stroke-width="2"/>
<circle cx="331" cy="206" r="14" fill="white" stroke="#355FB3" stroke-width="2"/>
<path d="M460.94 38.306C461.291 38.306 461.432 38.306 461.432 37.9722C461.432 37.7965 461.291 37.7965 460.975 37.7965H459.552C459.886 35.9869 460.132 34.7394 460.272 34.1772C460.378 33.7555 460.747 33.3514 461.204 33.3514C461.573 33.3514 461.942 33.5095 462.117 33.6677C461.432 33.7379 461.221 34.2475 461.221 34.5461C461.221 34.8975 461.485 35.1084 461.819 35.1084C462.17 35.1084 462.697 34.8097 462.697 34.142C462.697 33.4041 461.959 33 461.186 33C460.431 33 459.693 33.5622 459.341 34.2475C459.025 34.8624 458.849 35.4949 458.445 37.7965H457.268C456.934 37.7965 456.758 37.7965 456.758 38.1128C456.758 38.306 456.864 38.306 457.215 38.306H458.34C458.023 39.94 457.303 43.9108 456.899 45.7907C456.6 47.3193 456.337 48.6019 455.458 48.6019C455.406 48.6019 454.896 48.6019 454.58 48.2681C455.476 48.1978 455.476 47.4247 455.476 47.4072C455.476 47.0558 455.212 46.8449 454.878 46.8449C454.527 46.8449 454 47.1436 454 47.8113C454 48.5668 454.773 48.9533 455.458 48.9533C457.25 48.9533 457.988 45.738 458.182 44.8596C458.498 43.5067 459.359 38.8331 459.447 38.306H460.94Z" fill="#355FB3"/>
<path d="M460.94 88.306C461.291 88.306 461.432 88.306 461.432 87.9722C461.432 87.7965 461.291 87.7965 460.975 87.7965H459.552C459.886 85.9869 460.132 84.7394 460.272 84.1772C460.378 83.7555 460.747 83.3514 461.204 83.3514C461.573 83.3514 461.942 83.5095 462.117 83.6677C461.432 83.7379 461.221 84.2475 461.221 84.5461C461.221 84.8975 461.485 85.1084 461.819 85.1084C462.17 85.1084 462.697 84.8097 462.697 84.142C462.697 83.4041 461.959 83 461.186 83C460.431 83 459.693 83.5622 459.341 84.2475C459.025 84.8624 458.849 85.4949 458.445 87.7965H457.268C456.934 87.7965 456.758 87.7965 456.758 88.1128C456.758 88.306 456.864 88.306 457.215 88.306H458.34C458.023 89.94 457.303 93.9108 456.899 95.7907C456.6 97.3193 456.337 98.6019 455.458 98.6019C455.406 98.6019 454.896 98.6019 454.58 98.2681C455.476 98.1978 455.476 97.4247 455.476 97.4072C455.476 97.0558 455.212 96.8449 454.878 96.8449C454.527 96.8449 454 97.1436 454 97.8113C454 98.5668 454.773 98.9533 455.458 98.9533C457.25 98.9533 457.988 95.738 458.182 94.8596C458.498 93.5067 459.359 88.8331 459.447 88.306H460.94Z" fill="#B33535"/>
<path d="M460.94 190.306C461.291 190.306 461.432 190.306 461.432 189.972C461.432 189.797 461.291 189.797 460.975 189.797H459.552C459.886 187.987 460.132 186.739 460.272 186.177C460.378 185.755 460.747 185.351 461.204 185.351C461.573 185.351 461.942 185.51 462.117 185.668C461.432 185.738 461.221 186.247 461.221 186.546C461.221 186.898 461.485 187.108 461.819 187.108C462.17 187.108 462.697 186.81 462.697 186.142C462.697 185.404 461.959 185 461.186 185C460.431 185 459.693 185.562 459.341 186.247C459.025 186.862 458.849 187.495 458.445 189.797H457.268C456.934 189.797 456.758 189.797 456.758 190.113C456.758 190.306 456.864 190.306 457.215 190.306H458.34C458.023 191.94 457.303 195.911 456.899 197.791C456.6 199.319 456.337 200.602 455.458 200.602C455.406 200.602 454.896 200.602 454.58 200.268C455.476 200.198 455.476 199.425 455.476 199.407C455.476 199.056 455.212 198.845 454.878 198.845C454.527 198.845 454 199.144 454 199.811C454 200.567 454.773 200.953 455.458 200.953C457.25 200.953 457.988 197.738 458.182 196.86C458.498 195.507 459.359 190.833 459.447 190.306H460.94Z" fill="#355FB3"/>
<path d="M460.94 139.306C461.291 139.306 461.432 139.306 461.432 138.972C461.432 138.797 461.291 138.797 460.975 138.797H459.552C459.886 136.987 460.132 135.739 460.272 135.177C460.378 134.755 460.747 134.351 461.204 134.351C461.573 134.351 461.942 134.51 462.117 134.668C461.432 134.738 461.221 135.247 461.221 135.546C461.221 135.898 461.485 136.108 461.819 136.108C462.17 136.108 462.697 135.81 462.697 135.142C462.697 134.404 461.959 134 461.186 134C460.431 134 459.693 134.562 459.341 135.247C459.025 135.862 458.849 136.495 458.445 138.797H457.268C456.934 138.797 456.758 138.797 456.758 139.113C456.758 139.306 456.864 139.306 457.215 139.306H458.34C458.023 140.94 457.303 144.911 456.899 146.791C456.6 148.319 456.337 149.602 455.458 149.602C455.406 149.602 454.896 149.602 454.58 149.268C455.476 149.198 455.476 148.425 455.476 148.407C455.476 148.056 455.212 147.845 454.878 147.845C454.527 147.845 454 148.144 454 148.811C454 149.567 454.773 149.953 455.458 149.953C457.25 149.953 457.988 146.738 458.182 145.86C458.498 144.507 459.359 139.833 459.447 139.306H460.94Z" fill="#355FB3"/>
<path d="M330.164 51.1415C329.83 51.1415 329.672 51.1415 329.426 51.3522C329.321 51.44 329.128 51.7034 329.128 51.9844C329.128 52.3356 329.391 52.5464 329.725 52.5464C330.146 52.5464 330.621 52.1952 330.621 51.4927C330.621 50.6498 329.813 50 328.601 50C326.301 50 324 52.5113 324 55.0049C324 56.5328 324.948 57.9201 326.74 57.9201C329.128 57.9201 330.638 56.0586 330.638 55.8303C330.638 55.725 330.533 55.6371 330.463 55.6371C330.41 55.6371 330.392 55.6547 330.234 55.8128C329.11 57.3055 327.442 57.5689 326.775 57.5689C325.563 57.5689 325.177 56.5152 325.177 55.6371C325.177 55.0225 325.475 53.3191 326.107 52.1249C326.564 51.2995 327.512 50.3512 328.619 50.3512C328.847 50.3512 329.813 50.3863 330.164 51.1415Z" fill="#355FB3"/>
<path d="M334.346 52.9211C334.346 52.605 334.323 52.5932 334.007 52.5932C333.527 53.0615 332.906 53.3425 331.794 53.3425V53.7289C332.11 53.7289 332.742 53.7289 333.422 53.4128V59.4187C333.422 59.8519 333.386 59.9924 332.274 59.9924H331.864V60.3787C332.344 60.3436 333.351 60.3436 333.878 60.3436C334.405 60.3436 335.424 60.3436 335.904 60.3787V59.9924H335.494C334.382 59.9924 334.346 59.8519 334.346 59.4187V52.9211Z" fill="#355FB3"/>
<path d="M310.166 100.142C309.832 100.142 309.674 100.142 309.428 100.353C309.323 100.441 309.13 100.704 309.13 100.985C309.13 101.336 309.393 101.547 309.727 101.547C310.149 101.547 310.623 101.196 310.623 100.493C310.623 99.65 309.815 99 308.603 99C306.301 99 304 101.512 304 104.007C304 105.535 304.949 106.923 306.741 106.923C309.13 106.923 310.64 105.061 310.64 104.832C310.64 104.727 310.535 104.639 310.465 104.639C310.412 104.639 310.395 104.657 310.236 104.815C309.112 106.308 307.443 106.572 306.776 106.572C305.564 106.572 305.177 105.518 305.177 104.639C305.177 104.024 305.476 102.32 306.108 101.126C306.565 100.3 307.513 99.3513 308.62 99.3513C308.849 99.3513 309.815 99.3865 310.166 100.142Z" fill="#B33535"/>
<path d="M313.975 106.993C314.163 106.818 314.655 106.431 314.842 106.267C315.568 105.6 316.259 104.955 316.259 103.89C316.259 102.496 315.088 101.594 313.624 101.594C312.218 101.594 311.293 102.66 311.293 103.702C311.293 104.276 311.75 104.358 311.914 104.358C312.16 104.358 312.523 104.182 312.523 103.737C312.523 103.128 311.937 103.128 311.797 103.128C312.137 102.273 312.921 101.981 313.495 101.981C314.584 101.981 315.146 102.906 315.146 103.89C315.146 105.108 314.291 105.998 312.909 107.415L311.434 108.937C311.293 109.066 311.293 109.09 311.293 109.382H315.919L316.259 107.286H315.896C315.861 107.52 315.767 108.106 315.627 108.328C315.556 108.422 314.666 108.422 314.479 108.422H312.394L313.975 106.993Z" fill="#B33535"/>
<path d="M320.165 151.142C319.832 151.142 319.674 151.142 319.428 151.353C319.322 151.44 319.129 151.704 319.129 151.985C319.129 152.336 319.393 152.547 319.726 152.547C320.148 152.547 320.622 152.196 320.622 151.493C320.622 150.65 319.814 150 318.602 150C316.301 150 314 152.512 314 155.006C314 156.534 314.949 157.922 316.74 157.922C319.129 157.922 320.64 156.06 320.64 155.832C320.64 155.726 320.534 155.638 320.464 155.638C320.411 155.638 320.394 155.656 320.236 155.814C319.112 157.307 317.443 157.571 316.775 157.571C315.563 157.571 315.177 156.517 315.177 155.638C315.177 155.024 315.475 153.32 316.108 152.125C316.565 151.3 317.513 150.351 318.62 150.351C318.848 150.351 319.814 150.386 320.165 151.142Z" fill="#355FB3"/>
<path d="M323.635 156.47C324.56 156.47 325.145 157.149 325.145 158.379C325.145 159.843 324.314 160.276 323.693 160.276C323.049 160.276 322.171 160.042 321.761 159.421C322.182 159.421 322.475 159.152 322.475 158.765C322.475 158.39 322.206 158.121 321.831 158.121C321.515 158.121 321.187 158.32 321.187 158.789C321.187 159.901 322.382 160.627 323.716 160.627C325.274 160.627 326.363 159.55 326.363 158.379C326.363 157.407 325.59 156.517 324.396 156.259C325.321 155.931 326.012 155.135 326.012 154.198C326.012 153.261 324.958 152.594 323.74 152.594C322.487 152.594 321.538 153.273 321.538 154.163C321.538 154.596 321.831 154.784 322.136 154.784C322.499 154.784 322.733 154.526 322.733 154.186C322.733 153.753 322.358 153.589 322.1 153.578C322.592 152.933 323.494 152.898 323.705 152.898C324.009 152.898 324.899 152.992 324.899 154.198C324.899 155.018 324.56 155.51 324.396 155.697C324.044 156.06 323.775 156.084 323.061 156.13C322.838 156.142 322.745 156.154 322.745 156.306C322.745 156.47 322.85 156.47 323.049 156.47H323.635Z" fill="#355FB3"/>
<path d="M330.162 202.141C329.828 202.141 329.67 202.141 329.424 202.352C329.319 202.439 329.126 202.703 329.126 202.984C329.126 203.335 329.389 203.545 329.723 203.545C330.144 203.545 330.618 203.194 330.618 202.492C330.618 201.65 329.81 201 328.599 201C326.3 201 324 203.51 324 206.003C324 207.53 324.948 208.917 326.738 208.917C329.126 208.917 330.636 207.056 330.636 206.828C330.636 206.723 330.53 206.635 330.46 206.635C330.407 206.635 330.39 206.652 330.232 206.81C329.108 208.303 327.441 208.566 326.774 208.566C325.562 208.566 325.176 207.513 325.176 206.635C325.176 206.021 325.475 204.318 326.107 203.124C326.563 202.299 327.511 201.351 328.617 201.351C328.845 201.351 329.81 201.386 330.162 202.141Z" fill="#355FB3"/>
<path d="M335.278 203.803C335.278 203.569 335.278 203.475 335.033 203.475C334.881 203.475 334.869 203.487 334.752 203.651L331.019 209.069V209.455H334.319V210.427C334.319 210.86 334.284 210.988 333.383 210.988H333.113V211.375C334.108 211.34 334.132 211.34 334.799 211.34C335.466 211.34 335.489 211.34 336.484 211.375V210.988H336.215C335.314 210.988 335.278 210.86 335.278 210.427V209.455H336.519V209.069H335.278V203.803ZM334.401 204.751V209.069H331.428L334.401 204.751Z" fill="#355FB3"/>
<path d="M380 130C380 157.493 374.426 182.333 365.461 200.263C356.466 218.254 344.224 229 331 229C317.776 229 305.534 218.254 296.539 200.263C287.574 182.333 282 157.493 282 130C282 102.507 287.574 77.6669 296.539 59.7365C305.534 41.7464 317.776 31 331 31C344.224 31 356.466 41.7464 365.461 59.7365C374.426 77.6669 380 102.507 380 130Z" stroke="black" stroke-width="2"/>
<path d="M273.416 125.122C273.416 125 273.321 125 273.294 125C273.267 125 273.213 125 273.105 125.135L272.173 126.27C271.7 125.459 270.957 125 269.944 125C267.026 125 264 127.959 264 131.133C264 133.389 265.581 134.794 267.553 134.794C268.634 134.794 269.579 134.335 270.363 133.673C271.538 132.687 271.889 131.376 271.889 131.268C271.889 131.147 271.781 131.147 271.741 131.147C271.619 131.147 271.606 131.228 271.579 131.282C270.957 133.389 269.134 134.403 267.783 134.403C266.351 134.403 265.108 133.484 265.108 131.566C265.108 131.133 265.243 128.783 266.769 127.013C267.512 126.148 268.782 125.392 270.066 125.392C271.552 125.392 272.214 126.621 272.214 127.999C272.214 128.35 272.173 128.648 272.173 128.702C272.173 128.823 272.308 128.823 272.349 128.823C272.497 128.823 272.511 128.81 272.565 128.566L273.416 125.122Z" fill="black"/>
<path d="M697.924 128.104C698.375 128.104 698.769 127.968 699.106 127.694C699.444 127.421 699.631 127.079 699.667 126.669H700.863C700.84 127.093 700.695 127.496 700.426 127.879C700.157 128.262 699.797 128.567 699.346 128.795C698.899 129.023 698.425 129.137 697.924 129.137C696.917 129.137 696.115 128.802 695.518 128.132C694.925 127.457 694.629 126.537 694.629 125.37V125.158C694.629 124.438 694.761 123.798 695.025 123.237C695.29 122.677 695.668 122.242 696.16 121.932C696.657 121.622 697.243 121.467 697.917 121.467C698.746 121.467 699.435 121.715 699.981 122.212C700.533 122.709 700.827 123.354 700.863 124.146H699.667C699.631 123.668 699.448 123.276 699.12 122.971C698.797 122.661 698.396 122.506 697.917 122.506C697.274 122.506 696.775 122.738 696.42 123.203C696.069 123.663 695.894 124.331 695.894 125.206V125.445C695.894 126.298 696.069 126.954 696.42 127.414C696.771 127.874 697.272 128.104 697.924 128.104ZM703.659 129H702.395V118.5H703.659V129ZM710.256 129C710.183 128.854 710.124 128.594 710.078 128.221C709.49 128.831 708.788 129.137 707.973 129.137C707.243 129.137 706.644 128.932 706.175 128.521C705.71 128.107 705.478 127.583 705.478 126.949C705.478 126.179 705.769 125.582 706.353 125.158C706.94 124.73 707.765 124.516 708.827 124.516H710.058V123.935C710.058 123.493 709.925 123.142 709.661 122.882C709.397 122.618 709.007 122.485 708.492 122.485C708.041 122.485 707.663 122.599 707.357 122.827C707.052 123.055 706.899 123.331 706.899 123.654H705.628C705.628 123.285 705.758 122.93 706.018 122.588C706.282 122.242 706.637 121.968 707.084 121.768C707.535 121.567 708.03 121.467 708.567 121.467C709.42 121.467 710.087 121.681 710.57 122.109C711.053 122.533 711.304 123.119 711.322 123.866V127.271C711.322 127.95 711.409 128.49 711.582 128.891V129H710.256ZM708.157 128.036C708.554 128.036 708.93 127.934 709.285 127.729C709.641 127.523 709.898 127.257 710.058 126.929V125.411H709.066C707.517 125.411 706.742 125.865 706.742 126.771C706.742 127.168 706.874 127.478 707.139 127.701C707.403 127.924 707.743 128.036 708.157 128.036ZM717.611 127.038C717.611 126.696 717.481 126.432 717.222 126.245C716.966 126.054 716.518 125.89 715.875 125.753C715.237 125.616 714.729 125.452 714.351 125.261C713.977 125.069 713.699 124.841 713.517 124.577C713.339 124.313 713.25 123.998 713.25 123.634C713.25 123.028 713.505 122.515 714.016 122.096C714.531 121.676 715.187 121.467 715.984 121.467C716.823 121.467 717.502 121.683 718.021 122.116C718.546 122.549 718.808 123.103 718.808 123.777H717.536C717.536 123.431 717.388 123.132 717.092 122.882C716.8 122.631 716.431 122.506 715.984 122.506C715.524 122.506 715.164 122.606 714.904 122.807C714.645 123.007 714.515 123.269 714.515 123.593C714.515 123.898 714.635 124.128 714.877 124.283C715.118 124.438 715.554 124.586 716.183 124.728C716.816 124.869 717.329 125.037 717.721 125.233C718.113 125.429 718.402 125.666 718.589 125.944C718.78 126.218 718.876 126.553 718.876 126.949C718.876 127.61 718.612 128.141 718.083 128.542C717.554 128.938 716.868 129.137 716.025 129.137C715.433 129.137 714.909 129.032 714.453 128.822C713.997 128.613 713.64 128.321 713.38 127.947C713.125 127.569 712.997 127.161 712.997 126.724H714.262C714.285 127.147 714.453 127.485 714.768 127.735C715.087 127.981 715.506 128.104 716.025 128.104C716.504 128.104 716.887 128.009 717.174 127.817C717.465 127.621 717.611 127.362 717.611 127.038ZM724.83 127.038C724.83 126.696 724.7 126.432 724.44 126.245C724.185 126.054 723.736 125.89 723.094 125.753C722.456 125.616 721.948 125.452 721.569 125.261C721.196 125.069 720.918 124.841 720.735 124.577C720.558 124.313 720.469 123.998 720.469 123.634C720.469 123.028 720.724 122.515 721.234 122.096C721.749 121.676 722.406 121.467 723.203 121.467C724.042 121.467 724.721 121.683 725.24 122.116C725.764 122.549 726.026 123.103 726.026 123.777H724.755C724.755 123.431 724.607 123.132 724.311 122.882C724.019 122.631 723.65 122.506 723.203 122.506C722.743 122.506 722.383 122.606 722.123 122.807C721.863 123.007 721.733 123.269 721.733 123.593C721.733 123.898 721.854 124.128 722.096 124.283C722.337 124.438 722.772 124.586 723.401 124.728C724.035 124.869 724.548 125.037 724.939 125.233C725.331 125.429 725.621 125.666 725.808 125.944C725.999 126.218 726.095 126.553 726.095 126.949C726.095 127.61 725.83 128.141 725.302 128.542C724.773 128.938 724.087 129.137 723.244 129.137C722.652 129.137 722.128 129.032 721.672 128.822C721.216 128.613 720.858 128.321 720.599 127.947C720.343 127.569 720.216 127.161 720.216 126.724H721.48C721.503 127.147 721.672 127.485 721.986 127.735C722.305 127.981 722.725 128.104 723.244 128.104C723.723 128.104 724.105 128.009 724.393 127.817C724.684 127.621 724.83 127.362 724.83 127.038ZM731.146 129V119.047H734.633C735.84 119.047 736.757 119.279 737.381 119.744C738.005 120.204 738.317 120.881 738.317 121.774C738.317 122.262 738.192 122.693 737.941 123.066C737.691 123.436 737.342 123.707 736.896 123.88C737.406 124.007 737.807 124.265 738.099 124.652C738.395 125.04 738.543 125.514 738.543 126.074C738.543 127.031 738.238 127.756 737.627 128.248C737.016 128.74 736.146 128.991 735.016 129H731.146ZM733.197 124.666V127.353H734.954C735.437 127.353 735.813 127.239 736.082 127.011C736.355 126.778 736.492 126.459 736.492 126.054C736.492 125.142 736.021 124.68 735.077 124.666H733.197ZM733.197 123.217H734.715C735.749 123.199 736.267 122.786 736.267 121.979C736.267 121.528 736.134 121.205 735.87 121.009C735.61 120.808 735.198 120.708 734.633 120.708H733.197V123.217Z" fill="#B33535"/>
<path d="M574.924 58.1045C575.375 58.1045 575.769 57.9678 576.106 57.6943C576.444 57.4209 576.631 57.0791 576.667 56.6689H577.863C577.84 57.0928 577.695 57.4961 577.426 57.8789C577.157 58.2617 576.797 58.5671 576.346 58.7949C575.899 59.0228 575.425 59.1367 574.924 59.1367C573.917 59.1367 573.115 58.8018 572.518 58.1318C571.925 57.4574 571.629 56.5368 571.629 55.3701V55.1582C571.629 54.4382 571.761 53.7979 572.025 53.2373C572.29 52.6768 572.668 52.2415 573.16 51.9316C573.657 51.6217 574.243 51.4668 574.917 51.4668C575.746 51.4668 576.435 51.7152 576.981 52.2119C577.533 52.7087 577.827 53.3535 577.863 54.1465H576.667C576.631 53.668 576.448 53.276 576.12 52.9707C575.797 52.6608 575.396 52.5059 574.917 52.5059C574.274 52.5059 573.775 52.7383 573.42 53.2031C573.069 53.6634 572.894 54.3311 572.894 55.2061V55.4453C572.894 56.2975 573.069 56.9538 573.42 57.4141C573.771 57.8743 574.272 58.1045 574.924 58.1045ZM580.659 59H579.395V48.5H580.659V59ZM587.256 59C587.183 58.8542 587.124 58.5944 587.078 58.2207C586.49 58.8314 585.788 59.1367 584.973 59.1367C584.243 59.1367 583.644 58.9316 583.175 58.5215C582.71 58.1068 582.478 57.5827 582.478 56.9492C582.478 56.179 582.769 55.582 583.353 55.1582C583.94 54.7298 584.765 54.5156 585.827 54.5156H587.058V53.9346C587.058 53.4925 586.925 53.1416 586.661 52.8818C586.397 52.6175 586.007 52.4854 585.492 52.4854C585.041 52.4854 584.663 52.5993 584.357 52.8271C584.052 53.055 583.899 53.3307 583.899 53.6543H582.628C582.628 53.2852 582.758 52.9297 583.018 52.5879C583.282 52.2415 583.637 51.9681 584.084 51.7676C584.535 51.5671 585.03 51.4668 585.567 51.4668C586.42 51.4668 587.087 51.681 587.57 52.1094C588.053 52.5332 588.304 53.1188 588.322 53.8662V57.2705C588.322 57.9495 588.409 58.4896 588.582 58.8906V59H587.256ZM585.157 58.0361C585.554 58.0361 585.93 57.9336 586.285 57.7285C586.641 57.5234 586.898 57.2568 587.058 56.9287V55.4111H586.066C584.517 55.4111 583.742 55.8646 583.742 56.7715C583.742 57.168 583.874 57.4779 584.139 57.7012C584.403 57.9245 584.743 58.0361 585.157 58.0361ZM594.611 57.0381C594.611 56.6963 594.481 56.432 594.222 56.2451C593.966 56.0537 593.518 55.8896 592.875 55.7529C592.237 55.6162 591.729 55.4521 591.351 55.2607C590.977 55.0693 590.699 54.8415 590.517 54.5771C590.339 54.3128 590.25 53.9984 590.25 53.6338C590.25 53.0277 590.505 52.515 591.016 52.0957C591.531 51.6764 592.187 51.4668 592.984 51.4668C593.823 51.4668 594.502 51.6833 595.021 52.1162C595.546 52.5492 595.808 53.1029 595.808 53.7773H594.536C594.536 53.431 594.388 53.1325 594.092 52.8818C593.8 52.6312 593.431 52.5059 592.984 52.5059C592.524 52.5059 592.164 52.6061 591.904 52.8066C591.645 53.0072 591.515 53.2692 591.515 53.5928C591.515 53.8981 591.635 54.1283 591.877 54.2832C592.118 54.4382 592.554 54.5863 593.183 54.7275C593.816 54.8688 594.329 55.0374 594.721 55.2334C595.113 55.4294 595.402 55.6663 595.589 55.9443C595.78 56.2178 595.876 56.5527 595.876 56.9492C595.876 57.61 595.612 58.141 595.083 58.542C594.554 58.9385 593.868 59.1367 593.025 59.1367C592.433 59.1367 591.909 59.0319 591.453 58.8223C590.997 58.6126 590.64 58.321 590.38 57.9473C590.125 57.569 589.997 57.1611 589.997 56.7236H591.262C591.285 57.1475 591.453 57.4847 591.768 57.7354C592.087 57.9814 592.506 58.1045 593.025 58.1045C593.504 58.1045 593.887 58.0088 594.174 57.8174C594.465 57.6214 594.611 57.3617 594.611 57.0381ZM601.83 57.0381C601.83 56.6963 601.7 56.432 601.44 56.2451C601.185 56.0537 600.736 55.8896 600.094 55.7529C599.456 55.6162 598.948 55.4521 598.569 55.2607C598.196 55.0693 597.918 54.8415 597.735 54.5771C597.558 54.3128 597.469 53.9984 597.469 53.6338C597.469 53.0277 597.724 52.515 598.234 52.0957C598.749 51.6764 599.406 51.4668 600.203 51.4668C601.042 51.4668 601.721 51.6833 602.24 52.1162C602.764 52.5492 603.026 53.1029 603.026 53.7773H601.755C601.755 53.431 601.607 53.1325 601.311 52.8818C601.019 52.6312 600.65 52.5059 600.203 52.5059C599.743 52.5059 599.383 52.6061 599.123 52.8066C598.863 53.0072 598.733 53.2692 598.733 53.5928C598.733 53.8981 598.854 54.1283 599.096 54.2832C599.337 54.4382 599.772 54.5863 600.401 54.7275C601.035 54.8688 601.548 55.0374 601.939 55.2334C602.331 55.4294 602.621 55.6663 602.808 55.9443C602.999 56.2178 603.095 56.5527 603.095 56.9492C603.095 57.61 602.83 58.141 602.302 58.542C601.773 58.9385 601.087 59.1367 600.244 59.1367C599.652 59.1367 599.128 59.0319 598.672 58.8223C598.216 58.6126 597.858 58.321 597.599 57.9473C597.343 57.569 597.216 57.1611 597.216 56.7236H598.48C598.503 57.1475 598.672 57.4847 598.986 57.7354C599.305 57.9814 599.725 58.1045 600.244 58.1045C600.723 58.1045 601.105 58.0088 601.393 57.8174C601.684 57.6214 601.83 57.3617 601.83 57.0381ZM613.766 56.9492H610.17L609.486 59H607.306L611.011 49.0469H612.911L616.637 59H614.456L613.766 56.9492ZM610.724 55.2881H613.212L611.961 51.5625L610.724 55.2881Z" fill="#355FB3"/>
<path d="M574.924 108.104C575.375 108.104 575.769 107.968 576.106 107.694C576.444 107.421 576.631 107.079 576.667 106.669H577.863C577.84 107.093 577.695 107.496 577.426 107.879C577.157 108.262 576.797 108.567 576.346 108.795C575.899 109.023 575.425 109.137 574.924 109.137C573.917 109.137 573.115 108.802 572.518 108.132C571.925 107.457 571.629 106.537 571.629 105.37V105.158C571.629 104.438 571.761 103.798 572.025 103.237C572.29 102.677 572.668 102.242 573.16 101.932C573.657 101.622 574.243 101.467 574.917 101.467C575.746 101.467 576.435 101.715 576.981 102.212C577.533 102.709 577.827 103.354 577.863 104.146H576.667C576.631 103.668 576.448 103.276 576.12 102.971C575.797 102.661 575.396 102.506 574.917 102.506C574.274 102.506 573.775 102.738 573.42 103.203C573.069 103.663 572.894 104.331 572.894 105.206V105.445C572.894 106.298 573.069 106.954 573.42 107.414C573.771 107.874 574.272 108.104 574.924 108.104ZM580.659 109H579.395V98.5H580.659V109ZM587.256 109C587.183 108.854 587.124 108.594 587.078 108.221C586.49 108.831 585.788 109.137 584.973 109.137C584.243 109.137 583.644 108.932 583.175 108.521C582.71 108.107 582.478 107.583 582.478 106.949C582.478 106.179 582.769 105.582 583.353 105.158C583.94 104.73 584.765 104.516 585.827 104.516H587.058V103.935C587.058 103.493 586.925 103.142 586.661 102.882C586.397 102.618 586.007 102.485 585.492 102.485C585.041 102.485 584.663 102.599 584.357 102.827C584.052 103.055 583.899 103.331 583.899 103.654H582.628C582.628 103.285 582.758 102.93 583.018 102.588C583.282 102.242 583.637 101.968 584.084 101.768C584.535 101.567 585.03 101.467 585.567 101.467C586.42 101.467 587.087 101.681 587.57 102.109C588.053 102.533 588.304 103.119 588.322 103.866V107.271C588.322 107.95 588.409 108.49 588.582 108.891V109H587.256ZM585.157 108.036C585.554 108.036 585.93 107.934 586.285 107.729C586.641 107.523 586.898 107.257 587.058 106.929V105.411H586.066C584.517 105.411 583.742 105.865 583.742 106.771C583.742 107.168 583.874 107.478 584.139 107.701C584.403 107.924 584.743 108.036 585.157 108.036ZM594.611 107.038C594.611 106.696 594.481 106.432 594.222 106.245C593.966 106.054 593.518 105.89 592.875 105.753C592.237 105.616 591.729 105.452 591.351 105.261C590.977 105.069 590.699 104.841 590.517 104.577C590.339 104.313 590.25 103.998 590.25 103.634C590.25 103.028 590.505 102.515 591.016 102.096C591.531 101.676 592.187 101.467 592.984 101.467C593.823 101.467 594.502 101.683 595.021 102.116C595.546 102.549 595.808 103.103 595.808 103.777H594.536C594.536 103.431 594.388 103.132 594.092 102.882C593.8 102.631 593.431 102.506 592.984 102.506C592.524 102.506 592.164 102.606 591.904 102.807C591.645 103.007 591.515 103.269 591.515 103.593C591.515 103.898 591.635 104.128 591.877 104.283C592.118 104.438 592.554 104.586 593.183 104.728C593.816 104.869 594.329 105.037 594.721 105.233C595.113 105.429 595.402 105.666 595.589 105.944C595.78 106.218 595.876 106.553 595.876 106.949C595.876 107.61 595.612 108.141 595.083 108.542C594.554 108.938 593.868 109.137 593.025 109.137C592.433 109.137 591.909 109.032 591.453 108.822C590.997 108.613 590.64 108.321 590.38 107.947C590.125 107.569 589.997 107.161 589.997 106.724H591.262C591.285 107.147 591.453 107.485 591.768 107.735C592.087 107.981 592.506 108.104 593.025 108.104C593.504 108.104 593.887 108.009 594.174 107.817C594.465 107.621 594.611 107.362 594.611 107.038ZM601.83 107.038C601.83 106.696 601.7 106.432 601.44 106.245C601.185 106.054 600.736 105.89 600.094 105.753C599.456 105.616 598.948 105.452 598.569 105.261C598.196 105.069 597.918 104.841 597.735 104.577C597.558 104.313 597.469 103.998 597.469 103.634C597.469 103.028 597.724 102.515 598.234 102.096C598.749 101.676 599.406 101.467 600.203 101.467C601.042 101.467 601.721 101.683 602.24 102.116C602.764 102.549 603.026 103.103 603.026 103.777H601.755C601.755 103.431 601.607 103.132 601.311 102.882C601.019 102.631 600.65 102.506 600.203 102.506C599.743 102.506 599.383 102.606 599.123 102.807C598.863 103.007 598.733 103.269 598.733 103.593C598.733 103.898 598.854 104.128 599.096 104.283C599.337 104.438 599.772 104.586 600.401 104.728C601.035 104.869 601.548 105.037 601.939 105.233C602.331 105.429 602.621 105.666 602.808 105.944C602.999 106.218 603.095 106.553 603.095 106.949C603.095 107.61 602.83 108.141 602.302 108.542C601.773 108.938 601.087 109.137 600.244 109.137C599.652 109.137 599.128 109.032 598.672 108.822C598.216 108.613 597.858 108.321 597.599 107.947C597.343 107.569 597.216 107.161 597.216 106.724H598.48C598.503 107.147 598.672 107.485 598.986 107.735C599.305 107.981 599.725 108.104 600.244 108.104C600.723 108.104 601.105 108.009 601.393 107.817C601.684 107.621 601.83 107.362 601.83 107.038ZM608.146 109V99.0469H611.633C612.84 99.0469 613.757 99.2793 614.381 99.7441C615.005 100.204 615.317 100.881 615.317 101.774C615.317 102.262 615.192 102.693 614.941 103.066C614.691 103.436 614.342 103.707 613.896 103.88C614.406 104.007 614.807 104.265 615.099 104.652C615.395 105.04 615.543 105.514 615.543 106.074C615.543 107.031 615.238 107.756 614.627 108.248C614.016 108.74 613.146 108.991 612.016 109H608.146ZM610.197 104.666V107.353H611.954C612.437 107.353 612.813 107.239 613.082 107.011C613.355 106.778 613.492 106.459 613.492 106.054C613.492 105.142 613.021 104.68 612.077 104.666H610.197ZM610.197 103.217H611.715C612.749 103.199 613.267 102.786 613.267 101.979C613.267 101.528 613.134 101.205 612.87 101.009C612.61 100.808 612.198 100.708 611.633 100.708H610.197V103.217Z" fill="#B33535"/>
<path d="M574.924 159.104C575.375 159.104 575.769 158.968 576.106 158.694C576.444 158.421 576.631 158.079 576.667 157.669H577.863C577.84 158.093 577.695 158.496 577.426 158.879C577.157 159.262 576.797 159.567 576.346 159.795C575.899 160.023 575.425 160.137 574.924 160.137C573.917 160.137 573.115 159.802 572.518 159.132C571.925 158.457 571.629 157.537 571.629 156.37V156.158C571.629 155.438 571.761 154.798 572.025 154.237C572.29 153.677 572.668 153.242 573.16 152.932C573.657 152.622 574.243 152.467 574.917 152.467C575.746 152.467 576.435 152.715 576.981 153.212C577.533 153.709 577.827 154.354 577.863 155.146H576.667C576.631 154.668 576.448 154.276 576.12 153.971C575.797 153.661 575.396 153.506 574.917 153.506C574.274 153.506 573.775 153.738 573.42 154.203C573.069 154.663 572.894 155.331 572.894 156.206V156.445C572.894 157.298 573.069 157.954 573.42 158.414C573.771 158.874 574.272 159.104 574.924 159.104ZM580.659 160H579.395V149.5H580.659V160ZM587.256 160C587.183 159.854 587.124 159.594 587.078 159.221C586.49 159.831 585.788 160.137 584.973 160.137C584.243 160.137 583.644 159.932 583.175 159.521C582.71 159.107 582.478 158.583 582.478 157.949C582.478 157.179 582.769 156.582 583.353 156.158C583.94 155.73 584.765 155.516 585.827 155.516H587.058V154.935C587.058 154.493 586.925 154.142 586.661 153.882C586.397 153.618 586.007 153.485 585.492 153.485C585.041 153.485 584.663 153.599 584.357 153.827C584.052 154.055 583.899 154.331 583.899 154.654H582.628C582.628 154.285 582.758 153.93 583.018 153.588C583.282 153.242 583.637 152.968 584.084 152.768C584.535 152.567 585.03 152.467 585.567 152.467C586.42 152.467 587.087 152.681 587.57 153.109C588.053 153.533 588.304 154.119 588.322 154.866V158.271C588.322 158.95 588.409 159.49 588.582 159.891V160H587.256ZM585.157 159.036C585.554 159.036 585.93 158.934 586.285 158.729C586.641 158.523 586.898 158.257 587.058 157.929V156.411H586.066C584.517 156.411 583.742 156.865 583.742 157.771C583.742 158.168 583.874 158.478 584.139 158.701C584.403 158.924 584.743 159.036 585.157 159.036ZM594.611 158.038C594.611 157.696 594.481 157.432 594.222 157.245C593.966 157.054 593.518 156.89 592.875 156.753C592.237 156.616 591.729 156.452 591.351 156.261C590.977 156.069 590.699 155.841 590.517 155.577C590.339 155.313 590.25 154.998 590.25 154.634C590.25 154.028 590.505 153.515 591.016 153.096C591.531 152.676 592.187 152.467 592.984 152.467C593.823 152.467 594.502 152.683 595.021 153.116C595.546 153.549 595.808 154.103 595.808 154.777H594.536C594.536 154.431 594.388 154.132 594.092 153.882C593.8 153.631 593.431 153.506 592.984 153.506C592.524 153.506 592.164 153.606 591.904 153.807C591.645 154.007 591.515 154.269 591.515 154.593C591.515 154.898 591.635 155.128 591.877 155.283C592.118 155.438 592.554 155.586 593.183 155.728C593.816 155.869 594.329 156.037 594.721 156.233C595.113 156.429 595.402 156.666 595.589 156.944C595.78 157.218 595.876 157.553 595.876 157.949C595.876 158.61 595.612 159.141 595.083 159.542C594.554 159.938 593.868 160.137 593.025 160.137C592.433 160.137 591.909 160.032 591.453 159.822C590.997 159.613 590.64 159.321 590.38 158.947C590.125 158.569 589.997 158.161 589.997 157.724H591.262C591.285 158.147 591.453 158.485 591.768 158.735C592.087 158.981 592.506 159.104 593.025 159.104C593.504 159.104 593.887 159.009 594.174 158.817C594.465 158.621 594.611 158.362 594.611 158.038ZM601.83 158.038C601.83 157.696 601.7 157.432 601.44 157.245C601.185 157.054 600.736 156.89 600.094 156.753C599.456 156.616 598.948 156.452 598.569 156.261C598.196 156.069 597.918 155.841 597.735 155.577C597.558 155.313 597.469 154.998 597.469 154.634C597.469 154.028 597.724 153.515 598.234 153.096C598.749 152.676 599.406 152.467 600.203 152.467C601.042 152.467 601.721 152.683 602.24 153.116C602.764 153.549 603.026 154.103 603.026 154.777H601.755C601.755 154.431 601.607 154.132 601.311 153.882C601.019 153.631 600.65 153.506 600.203 153.506C599.743 153.506 599.383 153.606 599.123 153.807C598.863 154.007 598.733 154.269 598.733 154.593C598.733 154.898 598.854 155.128 599.096 155.283C599.337 155.438 599.772 155.586 600.401 155.728C601.035 155.869 601.548 156.037 601.939 156.233C602.331 156.429 602.621 156.666 602.808 156.944C602.999 157.218 603.095 157.553 603.095 157.949C603.095 158.61 602.83 159.141 602.302 159.542C601.773 159.938 601.087 160.137 600.244 160.137C599.652 160.137 599.128 160.032 598.672 159.822C598.216 159.613 597.858 159.321 597.599 158.947C597.343 158.569 597.216 158.161 597.216 157.724H598.48C598.503 158.147 598.672 158.485 598.986 158.735C599.305 158.981 599.725 159.104 600.244 159.104C600.723 159.104 601.105 159.009 601.393 158.817C601.684 158.621 601.83 158.362 601.83 158.038ZM613.766 157.949H610.17L609.486 160H607.306L611.011 150.047H612.911L616.637 160H614.456L613.766 157.949ZM610.724 156.288H613.212L611.961 152.562L610.724 156.288Z" fill="#355FB3"/>
<path d="M574.924 210.104C575.375 210.104 575.769 209.968 576.106 209.694C576.444 209.421 576.631 209.079 576.667 208.669H577.863C577.84 209.093 577.695 209.496 577.426 209.879C577.157 210.262 576.797 210.567 576.346 210.795C575.899 211.023 575.425 211.137 574.924 211.137C573.917 211.137 573.115 210.802 572.518 210.132C571.925 209.457 571.629 208.537 571.629 207.37V207.158C571.629 206.438 571.761 205.798 572.025 205.237C572.29 204.677 572.668 204.242 573.16 203.932C573.657 203.622 574.243 203.467 574.917 203.467C575.746 203.467 576.435 203.715 576.981 204.212C577.533 204.709 577.827 205.354 577.863 206.146H576.667C576.631 205.668 576.448 205.276 576.12 204.971C575.797 204.661 575.396 204.506 574.917 204.506C574.274 204.506 573.775 204.738 573.42 205.203C573.069 205.663 572.894 206.331 572.894 207.206V207.445C572.894 208.298 573.069 208.954 573.42 209.414C573.771 209.874 574.272 210.104 574.924 210.104ZM580.659 211H579.395V200.5H580.659V211ZM587.256 211C587.183 210.854 587.124 210.594 587.078 210.221C586.49 210.831 585.788 211.137 584.973 211.137C584.243 211.137 583.644 210.932 583.175 210.521C582.71 210.107 582.478 209.583 582.478 208.949C582.478 208.179 582.769 207.582 583.353 207.158C583.94 206.73 584.765 206.516 585.827 206.516H587.058V205.935C587.058 205.493 586.925 205.142 586.661 204.882C586.397 204.618 586.007 204.485 585.492 204.485C585.041 204.485 584.663 204.599 584.357 204.827C584.052 205.055 583.899 205.331 583.899 205.654H582.628C582.628 205.285 582.758 204.93 583.018 204.588C583.282 204.242 583.637 203.968 584.084 203.768C584.535 203.567 585.03 203.467 585.567 203.467C586.42 203.467 587.087 203.681 587.57 204.109C588.053 204.533 588.304 205.119 588.322 205.866V209.271C588.322 209.95 588.409 210.49 588.582 210.891V211H587.256ZM585.157 210.036C585.554 210.036 585.93 209.934 586.285 209.729C586.641 209.523 586.898 209.257 587.058 208.929V207.411H586.066C584.517 207.411 583.742 207.865 583.742 208.771C583.742 209.168 583.874 209.478 584.139 209.701C584.403 209.924 584.743 210.036 585.157 210.036ZM594.611 209.038C594.611 208.696 594.481 208.432 594.222 208.245C593.966 208.054 593.518 207.89 592.875 207.753C592.237 207.616 591.729 207.452 591.351 207.261C590.977 207.069 590.699 206.841 590.517 206.577C590.339 206.313 590.25 205.998 590.25 205.634C590.25 205.028 590.505 204.515 591.016 204.096C591.531 203.676 592.187 203.467 592.984 203.467C593.823 203.467 594.502 203.683 595.021 204.116C595.546 204.549 595.808 205.103 595.808 205.777H594.536C594.536 205.431 594.388 205.132 594.092 204.882C593.8 204.631 593.431 204.506 592.984 204.506C592.524 204.506 592.164 204.606 591.904 204.807C591.645 205.007 591.515 205.269 591.515 205.593C591.515 205.898 591.635 206.128 591.877 206.283C592.118 206.438 592.554 206.586 593.183 206.728C593.816 206.869 594.329 207.037 594.721 207.233C595.113 207.429 595.402 207.666 595.589 207.944C595.78 208.218 595.876 208.553 595.876 208.949C595.876 209.61 595.612 210.141 595.083 210.542C594.554 210.938 593.868 211.137 593.025 211.137C592.433 211.137 591.909 211.032 591.453 210.822C590.997 210.613 590.64 210.321 590.38 209.947C590.125 209.569 589.997 209.161 589.997 208.724H591.262C591.285 209.147 591.453 209.485 591.768 209.735C592.087 209.981 592.506 210.104 593.025 210.104C593.504 210.104 593.887 210.009 594.174 209.817C594.465 209.621 594.611 209.362 594.611 209.038ZM601.83 209.038C601.83 208.696 601.7 208.432 601.44 208.245C601.185 208.054 600.736 207.89 600.094 207.753C599.456 207.616 598.948 207.452 598.569 207.261C598.196 207.069 597.918 206.841 597.735 206.577C597.558 206.313 597.469 205.998 597.469 205.634C597.469 205.028 597.724 204.515 598.234 204.096C598.749 203.676 599.406 203.467 600.203 203.467C601.042 203.467 601.721 203.683 602.24 204.116C602.764 204.549 603.026 205.103 603.026 205.777H601.755C601.755 205.431 601.607 205.132 601.311 204.882C601.019 204.631 600.65 204.506 600.203 204.506C599.743 204.506 599.383 204.606 599.123 204.807C598.863 205.007 598.733 205.269 598.733 205.593C598.733 205.898 598.854 206.128 599.096 206.283C599.337 206.438 599.772 206.586 600.401 206.728C601.035 206.869 601.548 207.037 601.939 207.233C602.331 207.429 602.621 207.666 602.808 207.944C602.999 208.218 603.095 208.553 603.095 208.949C603.095 209.61 602.83 210.141 602.302 210.542C601.773 210.938 601.087 211.137 600.244 211.137C599.652 211.137 599.128 211.032 598.672 210.822C598.216 210.613 597.858 210.321 597.599 209.947C597.343 209.569 597.216 209.161 597.216 208.724H598.48C598.503 209.147 598.672 209.485 598.986 209.735C599.305 209.981 599.725 210.104 600.244 210.104C600.723 210.104 601.105 210.009 601.393 209.817C601.684 209.621 601.83 209.362 601.83 209.038ZM613.766 208.949H610.17L609.486 211H607.306L611.011 201.047H612.911L616.637 211H614.456L613.766 208.949ZM610.724 207.288H613.212L611.961 203.562L610.724 207.288Z" fill="#355FB3"/>
</svg>
