<svg width="722" height="323" viewBox="0 0 722 323" fill="none" xmlns="http://www.w3.org/2000/svg">
<path d="M267.628 215.673L164.987 140.685" stroke="black" stroke-width="2"/>
<path d="M463.306 196.939L560.19 127.912" stroke="black" stroke-width="2"/>
<path d="M267.628 215.673L235.864 234.142" stroke="black" stroke-width="2"/>
<path d="M267.628 215.673L318.348 175.118" stroke="black" stroke-width="2"/>
<path d="M267.628 215.673L322.162 288.198" stroke="black" stroke-width="2"/>
<path d="M463.306 196.939L498.707 211.79" stroke="black" stroke-width="2"/>
<path d="M463.306 196.939L404.426 175.639" stroke="black" stroke-width="2"/>
<path d="M463.306 196.939L459.51 235.434" stroke="black" stroke-width="2"/>
<path d="M404.426 175.639L387.617 273.752" stroke="black" stroke-width="2"/>
<path d="M404.426 175.639L318.348 175.118" stroke="black" stroke-width="2"/>
<path d="M404.426 175.639L412.431 128.788" stroke="black" stroke-width="2"/>
<path d="M387.617 273.752L322.162 288.198" stroke="black" stroke-width="2"/>
<path d="M387.617 273.752L423.971 255.883" stroke="black" stroke-width="2"/>
<path d="M387.617 273.752L389.838 312.573" stroke="black" stroke-width="2"/>
<path d="M318.348 175.118L348.839 207.763" stroke="black" stroke-width="2"/>
<path d="M322.162 288.198L351.335 251.945" stroke="black" stroke-width="2"/>
<path d="M423.971 255.883L459.51 235.434" stroke="black" stroke-width="2"/>
<path d="M423.971 255.883L446.878 287.758" stroke="black" stroke-width="2"/>
<path d="M351.335 251.945L348.839 207.763" stroke="black" stroke-width="2"/>
<path d="M351.335 251.945L315.447 231.872" stroke="black" stroke-width="2"/>
<path d="M267.628 225.673C273.151 225.673 277.628 221.196 277.628 215.673C277.628 210.151 273.151 205.673 267.628 205.673C262.105 205.673 257.628 210.151 257.628 215.673C257.628 221.196 262.105 225.673 267.628 225.673Z" fill="black"/>
<path d="M463.306 206.939C468.829 206.939 473.306 202.462 473.306 196.939C473.306 191.416 468.829 186.939 463.306 186.939C457.783 186.939 453.306 191.416 453.306 196.939C453.306 202.462 457.783 206.939 463.306 206.939Z" fill="black"/>
<path d="M235.864 244.142C241.387 244.142 245.864 239.665 245.864 234.142C245.864 228.619 241.387 224.142 235.864 224.142C230.342 224.142 225.864 228.619 225.864 234.142C225.864 239.665 230.342 244.142 235.864 244.142Z" fill="black"/>
<path d="M498.707 221.79C504.23 221.79 508.707 217.313 508.707 211.79C508.707 206.267 504.23 201.79 498.707 201.79C493.184 201.79 488.707 206.267 488.707 211.79C488.707 217.313 493.184 221.79 498.707 221.79Z" fill="black"/>
<path d="M404.426 185.639C409.949 185.639 414.426 181.162 414.426 175.639C414.426 170.116 409.949 165.639 404.426 165.639C398.903 165.639 394.426 170.116 394.426 175.639C394.426 181.162 398.903 185.639 404.426 185.639Z" fill="black"/>
<path d="M387.617 283.752C393.14 283.752 397.617 279.275 397.617 273.752C397.617 268.229 393.14 263.752 387.617 263.752C382.094 263.752 377.617 268.229 377.617 273.752C377.617 279.275 382.094 283.752 387.617 283.752Z" fill="black"/>
<path d="M318.348 185.118C323.871 185.118 328.348 180.64 328.348 175.118C328.348 169.595 323.871 165.118 318.348 165.118C312.826 165.118 308.348 169.595 308.348 175.118C308.348 180.64 312.826 185.118 318.348 185.118Z" fill="black"/>
<path d="M322.162 298.198C327.685 298.198 332.162 293.721 332.162 288.198C332.162 282.675 327.685 278.198 322.162 278.198C316.639 278.198 312.162 282.675 312.162 288.198C312.162 293.721 316.639 298.198 322.162 298.198Z" fill="black"/>
<path d="M423.971 265.883C429.494 265.883 433.972 261.405 433.972 255.883C433.972 250.36 429.494 245.883 423.971 245.883C418.449 245.883 413.971 250.36 413.971 255.883C413.971 261.405 418.449 265.883 423.971 265.883Z" fill="black"/>
<path d="M351.335 261.945C356.857 261.945 361.335 257.468 361.335 251.945C361.335 246.422 356.857 241.945 351.335 241.945C345.812 241.945 341.335 246.422 341.335 251.945C341.335 257.468 345.812 261.945 351.335 261.945Z" fill="black"/>
<path d="M348.839 217.763C354.362 217.763 358.839 213.286 358.839 207.763C358.839 202.24 354.362 197.763 348.839 197.763C343.317 197.763 338.839 202.24 338.839 207.763C338.839 213.286 343.317 217.763 348.839 217.763Z" fill="black"/>
<path d="M412.431 138.788C417.954 138.788 422.431 134.311 422.431 128.788C422.431 123.265 417.954 118.788 412.431 118.788C406.909 118.788 402.431 123.265 402.431 128.788C402.431 134.311 406.909 138.788 412.431 138.788Z" fill="black"/>
<path d="M389.838 322.573C395.361 322.573 399.838 318.096 399.838 312.573C399.838 307.05 395.361 302.573 389.838 302.573C384.315 302.573 379.838 307.05 379.838 312.573C379.838 318.096 384.315 322.573 389.838 322.573Z" fill="black"/>
<path d="M459.51 245.434C465.033 245.434 469.51 240.957 469.51 235.434C469.51 229.911 465.033 225.434 459.51 225.434C453.988 225.434 449.51 229.911 449.51 235.434C449.51 240.957 453.988 245.434 459.51 245.434Z" fill="black"/>
<path d="M446.878 297.758C452.401 297.758 456.878 293.281 456.878 287.758C456.878 282.235 452.401 277.758 446.878 277.758C441.355 277.758 436.878 282.235 436.878 287.758C436.878 293.281 441.355 297.758 446.878 297.758Z" fill="black"/>
<path d="M315.447 241.872C320.97 241.872 325.447 237.395 325.447 231.872C325.447 226.349 320.97 221.872 315.447 221.872C309.924 221.872 305.447 226.349 305.447 231.872C305.447 237.395 309.924 241.872 315.447 241.872Z" fill="black"/>
<path d="M164.987 140.685L151.601 95.7073" stroke="#B33535" stroke-width="2"/>
<path d="M164.987 140.685L113.549 156.017" stroke="#B33535" stroke-width="2"/>
<path d="M151.601 95.7073L170.985 61.699" stroke="black" stroke-width="2"/>
<path d="M151.601 95.7072L112.636 73.7936" stroke="#B33535" stroke-width="2"/>
<path d="M113.549 156.017L95.7196 189.314" stroke="black" stroke-width="2"/>
<path d="M113.549 156.017L78.9643 133.939" stroke="#B33535" stroke-width="2"/>
<path d="M170.985 61.699L163.733 19.2124" stroke="black" stroke-width="2"/>
<path d="M170.985 61.699L210.085 43.8086" stroke="black" stroke-width="2"/>
<path d="M95.7196 189.314L95.7281 226.572" stroke="black" stroke-width="2"/>
<path d="M95.7196 189.314L61.7635 205.289" stroke="black" stroke-width="2"/>
<path d="M112.636 73.7936L73.735 86.9121" stroke="#B33535" stroke-width="2"/>
<path d="M78.9643 133.939L73.735 86.9121" stroke="#B33535" stroke-width="2"/>
<path d="M73.735 86.9122L46.1109 63.8958" stroke="black" stroke-width="2"/>
<path d="M46.1109 63.8958L10 55.739" stroke="black" stroke-width="2"/>
<path d="M46.1109 63.8957L38.1086 28.4933" stroke="black" stroke-width="2"/>
<path d="M164.987 150.685C170.509 150.685 174.987 146.208 174.987 140.685C174.987 135.162 170.509 130.685 164.987 130.685C159.464 130.685 154.987 135.162 154.987 140.685C154.987 146.208 159.464 150.685 164.987 150.685Z" fill="#B33535"/>
<path d="M151.601 105.707C157.123 105.707 161.601 101.23 161.601 95.7073C161.601 90.1844 157.123 85.7073 151.601 85.7073C146.078 85.7073 141.601 90.1844 141.601 95.7073C141.601 101.23 146.078 105.707 151.601 105.707Z" fill="#B33535"/>
<path d="M113.549 166.017C119.072 166.017 123.549 161.54 123.549 156.017C123.549 150.494 119.072 146.017 113.549 146.017C108.026 146.017 103.549 150.494 103.549 156.017C103.549 161.54 108.026 166.017 113.549 166.017Z" fill="#B33535"/>
<path d="M170.985 71.699C176.508 71.699 180.985 67.2218 180.985 61.699C180.985 56.1761 176.508 51.699 170.985 51.699C165.462 51.699 160.985 56.1761 160.985 61.699C160.985 67.2218 165.462 71.699 170.985 71.699Z" fill="black"/>
<path d="M95.7196 199.314C101.242 199.314 105.72 194.837 105.72 189.314C105.72 183.791 101.242 179.314 95.7196 179.314C90.1968 179.314 85.7196 183.791 85.7196 189.314C85.7196 194.837 90.1968 199.314 95.7196 199.314Z" fill="black"/>
<path d="M112.636 83.7936C118.158 83.7936 122.636 79.3164 122.636 73.7936C122.636 68.2707 118.158 63.7936 112.636 63.7936C107.113 63.7936 102.636 68.2707 102.636 73.7936C102.636 79.3164 107.113 83.7936 112.636 83.7936Z" fill="#B33535"/>
<path d="M78.9643 143.939C84.4871 143.939 88.9643 139.462 88.9643 133.939C88.9643 128.417 84.4871 123.939 78.9643 123.939C73.4414 123.939 68.9643 128.417 68.9643 133.939C68.9643 139.462 73.4414 143.939 78.9643 143.939Z" fill="#B33535"/>
<path d="M73.735 96.9121C79.2578 96.9121 83.735 92.435 83.735 86.9121C83.735 81.3893 79.2578 76.9121 73.735 76.9121C68.2121 76.9121 63.735 81.3893 63.735 86.9121C63.735 92.435 68.2121 96.9121 73.735 96.9121Z" fill="#B33535"/>
<path d="M163.733 29.2124C169.256 29.2124 173.733 24.7353 173.733 19.2124C173.733 13.6896 169.256 9.2124 163.733 9.2124C158.21 9.2124 153.733 13.6896 153.733 19.2124C153.733 24.7353 158.21 29.2124 163.733 29.2124Z" fill="black"/>
<path d="M210.085 53.8086C215.608 53.8086 220.085 49.3314 220.085 43.8086C220.085 38.2857 215.608 33.8086 210.085 33.8086C204.562 33.8086 200.085 38.2857 200.085 43.8086C200.085 49.3314 204.562 53.8086 210.085 53.8086Z" fill="black"/>
<path d="M95.7281 236.572C101.251 236.572 105.728 232.095 105.728 226.572C105.728 221.049 101.251 216.572 95.7281 216.572C90.2053 216.572 85.7281 221.049 85.7281 226.572C85.7281 232.095 90.2053 236.572 95.7281 236.572Z" fill="black"/>
<path d="M61.7635 215.289C67.2864 215.289 71.7635 210.812 71.7635 205.289C71.7635 199.766 67.2864 195.289 61.7635 195.289C56.2407 195.289 51.7635 199.766 51.7635 205.289C51.7635 210.812 56.2407 215.289 61.7635 215.289Z" fill="black"/>
<path d="M46.1109 73.8958C51.6337 73.8958 56.1109 69.4186 56.1109 63.8958C56.1109 58.3729 51.6337 53.8958 46.1109 53.8958C40.5881 53.8958 36.1109 58.3729 36.1109 63.8958C36.1109 69.4186 40.5881 73.8958 46.1109 73.8958Z" fill="black"/>
<path d="M10 65.739C15.5228 65.739 20 61.2619 20 55.739C20 50.2162 15.5228 45.739 10 45.739C4.47715 45.739 0 50.2162 0 55.739C0 61.2619 4.47715 65.739 10 65.739Z" fill="black"/>
<path d="M38.1086 38.4933C43.6315 38.4933 48.1086 34.0161 48.1086 28.4933C48.1086 22.9704 43.6315 18.4933 38.1086 18.4933C32.5858 18.4933 28.1086 22.9704 28.1086 28.4933C28.1086 34.0161 32.5858 38.4933 38.1086 38.4933Z" fill="black"/>
<path d="M560.19 127.912L603.308 144.816" stroke="#B33535" stroke-width="2"/>
<path d="M560 127.683L570.691 83" stroke="#B33535" stroke-width="2"/>
<path d="M603.308 144.816L623.433 177.401" stroke="black" stroke-width="2"/>
<path d="M603.308 144.816L649.103 120.091" stroke="#B33535" stroke-width="2"/>
<path d="M570.882 83.2294L556.537 50.8081" stroke="black" stroke-width="2"/>
<path d="M571 82.9539L613.076 57" stroke="#B33535" stroke-width="2"/>
<path d="M623.433 177.401L655.554 194.091" stroke="black" stroke-width="2"/>
<path d="M623.433 177.401L618.001 212.138" stroke="black" stroke-width="2"/>
<path d="M556.537 50.8081L523.668 26.2981" stroke="black" stroke-width="2"/>
<path d="M556.537 50.8081L562.107 13.4479" stroke="black" stroke-width="2"/>
<path d="M649.103 120.091L649.644 71.2289" stroke="#B33535" stroke-width="2"/>
<path d="M613 57L649.686 70.9534" stroke="#B33535" stroke-width="2"/>
<path d="M649.644 71.2289L676.403 47.5815" stroke="black" stroke-width="2"/>
<path d="M676.403 47.5815L711.178 41.9713" stroke="black" stroke-width="2"/>
<path d="M676.403 47.5815L686.084 10" stroke="black" stroke-width="2"/>
<path d="M560.19 137.912C565.713 137.912 570.19 133.435 570.19 127.912C570.19 122.389 565.713 117.912 560.19 117.912C554.668 117.912 550.19 122.389 550.19 127.912C550.19 133.435 554.668 137.912 560.19 137.912Z" fill="#B33535"/>
<path d="M603.308 154.816C608.831 154.816 613.308 150.339 613.308 144.816C613.308 139.294 608.831 134.816 603.308 134.816C597.786 134.816 593.308 139.294 593.308 144.816C593.308 150.339 597.786 154.816 603.308 154.816Z" fill="#B33535"/>
<path d="M570.882 93.2294C576.404 93.2294 580.882 88.7522 580.882 83.2294C580.882 77.7065 576.404 73.2294 570.882 73.2294C565.359 73.2294 560.882 77.7065 560.882 83.2294C560.882 88.7522 565.359 93.2294 570.882 93.2294Z" fill="#B33535"/>
<path d="M623.433 187.401C628.955 187.401 633.433 182.924 633.433 177.401C633.433 171.878 628.955 167.401 623.433 167.401C617.91 167.401 613.433 171.878 613.433 177.401C613.433 182.924 617.91 187.401 623.433 187.401Z" fill="black"/>
<path d="M556.537 60.8081C562.06 60.8081 566.537 56.331 566.537 50.8081C566.537 45.2853 562.06 40.8081 556.537 40.8081C551.014 40.8081 546.537 45.2853 546.537 50.8081C546.537 56.331 551.014 60.8081 556.537 60.8081Z" fill="black"/>
<path d="M649.103 130.091C654.626 130.091 659.103 125.614 659.103 120.091C659.103 114.568 654.626 110.091 649.103 110.091C643.58 110.091 639.103 114.568 639.103 120.091C639.103 125.614 643.58 130.091 649.103 130.091Z" fill="#B33535"/>
<path d="M612.958 67.2755C618.481 67.2755 622.958 62.7984 622.958 57.2755C622.958 51.7527 618.481 47.2755 612.958 47.2755C607.435 47.2755 602.958 51.7527 602.958 57.2755C602.958 62.7984 607.435 67.2755 612.958 67.2755Z" fill="#B33535"/>
<path d="M649.644 81.2289C655.167 81.2289 659.644 76.7517 659.644 71.2289C659.644 65.706 655.167 61.2289 649.644 61.2289C644.121 61.2289 639.644 65.706 639.644 71.2289C639.644 76.7517 644.121 81.2289 649.644 81.2289Z" fill="#B33535"/>
<path d="M655.554 204.091C661.077 204.091 665.554 199.614 665.554 194.091C665.554 188.569 661.077 184.091 655.554 184.091C650.031 184.091 645.554 188.569 645.554 194.091C645.554 199.614 650.031 204.091 655.554 204.091Z" fill="black"/>
<path d="M618.001 222.138C623.523 222.138 628.001 217.661 628.001 212.138C628.001 206.615 623.523 202.138 618.001 202.138C612.478 202.138 608.001 206.615 608.001 212.138C608.001 217.661 612.478 222.138 618.001 222.138Z" fill="black"/>
<path d="M523.668 36.2981C529.191 36.2981 533.668 31.821 533.668 26.2981C533.668 20.7753 529.191 16.2981 523.668 16.2981C518.145 16.2981 513.668 20.7753 513.668 26.2981C513.668 31.821 518.145 36.2981 523.668 36.2981Z" fill="black"/>
<path d="M562.107 23.4479C567.63 23.4479 572.107 18.9707 572.107 13.4479C572.107 7.92503 567.63 3.44788 562.107 3.44788C556.584 3.44788 552.107 7.92503 552.107 13.4479C552.107 18.9707 556.584 23.4479 562.107 23.4479Z" fill="black"/>
<path d="M676.403 57.5815C681.926 57.5815 686.403 53.1044 686.403 47.5815C686.403 42.0587 681.926 37.5815 676.403 37.5815C670.88 37.5815 666.403 42.0587 666.403 47.5815C666.403 53.1044 670.88 57.5815 676.403 57.5815Z" fill="black"/>
<path d="M711.178 51.9713C716.701 51.9713 721.178 47.4942 721.178 41.9713C721.178 36.4485 716.701 31.9713 711.178 31.9713C705.655 31.9713 701.178 36.4485 701.178 41.9713C701.178 47.4942 705.655 51.9713 711.178 51.9713Z" fill="black"/>
<path d="M686.084 20C691.607 20 696.084 15.5228 696.084 10C696.084 4.47715 691.607 0 686.084 0C680.561 0 676.084 4.47715 676.084 10C676.084 15.5228 680.561 20 686.084 20Z" fill="black"/>
</svg>
