<svg width="986" height="279" viewBox="0 0 986 279" fill="none" xmlns="http://www.w3.org/2000/svg">
<circle cx="106" cy="48" r="9" fill="#355FB3" stroke="white" stroke-width="3"/>
<circle cx="201" cy="103" r="9" fill="#355FB3" stroke="white" stroke-width="3"/>
<circle cx="201" cy="213" r="9" fill="#355FB3" stroke="white" stroke-width="3"/>
<circle cx="106" cy="268" r="9" fill="#355FB3" stroke="white" stroke-width="3"/>
<circle cx="11" cy="213" r="9" fill="#355FB3" stroke="white" stroke-width="3"/>
<circle cx="11" cy="103" r="9" fill="#355FB3" stroke="white" stroke-width="3"/>
<path d="M364.263 48L459.526 103V213L364.263 268L269 213V103L364.263 48Z" stroke="#B33535" stroke-width="6" stroke-linejoin="round"/>
<circle cx="364" cy="48" r="9" fill="#355FB3" stroke="white" stroke-width="3"/>
<circle cx="459" cy="103" r="9" fill="#355FB3" stroke="white" stroke-width="3"/>
<circle cx="459" cy="213" r="9" fill="#355FB3" stroke="white" stroke-width="3"/>
<circle cx="364" cy="268" r="9" fill="#355FB3" stroke="white" stroke-width="3"/>
<circle cx="269" cy="213" r="9" fill="#355FB3" stroke="white" stroke-width="3"/>
<circle cx="269" cy="103" r="9" fill="#355FB3" stroke="white" stroke-width="3"/>
<path d="M880.263 48L785 213H975.526L880.263 48ZM975.526 103H785L880.263 268L975.526 103Z" stroke="black" stroke-width="2" stroke-linejoin="round" stroke-dasharray="4 2"/>
<path d="M880.263 48V268M975.526 103L785 213M975.526 213L785 103" stroke="black" stroke-width="2" stroke-linejoin="round" stroke-dasharray="8 3"/>
<path d="M880.263 48L975.526 103V213L880.263 268L785 213V103L880.263 48Z" stroke="#B33535" stroke-width="6" stroke-linejoin="round"/>
<circle cx="880" cy="48" r="9" fill="#355FB3" stroke="white" stroke-width="3"/>
<circle cx="975" cy="103" r="9" fill="#355FB3" stroke="white" stroke-width="3"/>
<circle cx="975" cy="213" r="9" fill="#355FB3" stroke="white" stroke-width="3"/>
<circle cx="880" cy="268" r="9" fill="#355FB3" stroke="white" stroke-width="3"/>
<circle cx="785" cy="213" r="9" fill="#355FB3" stroke="white" stroke-width="3"/>
<circle cx="785" cy="103" r="9" fill="#355FB3" stroke="white" stroke-width="3"/>
<path d="M622.263 48L527 213H717.526L622.263 48ZM717.526 103H527L622.263 268L717.526 103Z" stroke="black" stroke-width="2" stroke-linejoin="round" stroke-dasharray="4 2"/>
<path d="M622.263 48L717.526 103V213L622.263 268L527 213V103L622.263 48Z" stroke="#B33535" stroke-width="6" stroke-linejoin="round"/>
<circle cx="622" cy="48" r="9" fill="#355FB3" stroke="white" stroke-width="3"/>
<circle cx="717" cy="103" r="9" fill="#355FB3" stroke="white" stroke-width="3"/>
<circle cx="717" cy="213" r="9" fill="#355FB3" stroke="white" stroke-width="3"/>
<circle cx="622" cy="268" r="9" fill="#355FB3" stroke="white" stroke-width="3"/>
<circle cx="527" cy="213" r="9" fill="#355FB3" stroke="white" stroke-width="3"/>
<circle cx="527" cy="103" r="9" fill="#355FB3" stroke="white" stroke-width="3"/>
<path d="M94.3193 8.94922C94.0732 8.9082 93.8066 8.8877 93.5195 8.8877C92.4531 8.8877 91.7295 9.3418 91.3486 10.25V17H89.7227V7.49023H91.3047L91.3311 8.58887C91.8643 7.73926 92.6201 7.31445 93.5986 7.31445C93.915 7.31445 94.1553 7.35547 94.3193 7.4375V8.94922ZM107.723 9.8457H100.393V8.43066H107.723V9.8457ZM107.723 13.4932H100.393V12.0869H107.723V13.4932ZM122.488 11.542C122.488 13.4463 122.163 14.8613 121.513 15.7871C120.862 16.7129 119.846 17.1758 118.463 17.1758C117.098 17.1758 116.087 16.7246 115.431 15.8223C114.774 14.9141 114.435 13.5605 114.411 11.7617V9.59082C114.411 7.70996 114.736 6.3125 115.387 5.39844C116.037 4.48438 117.057 4.02734 118.445 4.02734C119.822 4.02734 120.836 4.46973 121.486 5.35449C122.137 6.2334 122.471 7.59277 122.488 9.43262V11.542ZM120.862 9.31836C120.862 7.94141 120.669 6.93945 120.282 6.3125C119.896 5.67969 119.283 5.36328 118.445 5.36328C117.613 5.36328 117.007 5.67676 116.626 6.30371C116.245 6.93066 116.049 7.89453 116.037 9.19531V11.7969C116.037 13.1797 116.236 14.2021 116.635 14.8643C117.039 15.5205 117.648 15.8486 118.463 15.8486C119.266 15.8486 119.86 15.5381 120.247 14.917C120.64 14.2959 120.845 13.3174 120.862 11.9814V9.31836Z" fill="black"/>
<path d="M352.319 8.94922C352.073 8.9082 351.807 8.8877 351.52 8.8877C350.453 8.8877 349.729 9.3418 349.349 10.25V17H347.723V7.49023H349.305L349.331 8.58887C349.864 7.73926 350.62 7.31445 351.599 7.31445C351.915 7.31445 352.155 7.35547 352.319 7.4375V8.94922ZM365.723 9.8457H358.393V8.43066H365.723V9.8457ZM365.723 13.4932H358.393V12.0869H365.723V13.4932ZM377.808 17H376.173V6.16309L372.895 7.36719V5.89062L377.553 4.1416H377.808V17Z" fill="black"/>
<path d="M610.319 8.94922C610.073 8.9082 609.807 8.8877 609.52 8.8877C608.453 8.8877 607.729 9.3418 607.349 10.25V17H605.723V7.49023H607.305L607.331 8.58887C607.864 7.73926 608.62 7.31445 609.599 7.31445C609.915 7.31445 610.155 7.35547 610.319 7.4375V8.94922ZM623.723 9.8457H616.393V8.43066H623.723V9.8457ZM623.723 13.4932H616.393V12.0869H623.723V13.4932ZM638.849 17H630.464V15.8311L634.894 10.9092C635.55 10.165 636.001 9.56152 636.247 9.09863C636.499 8.62988 636.625 8.14648 636.625 7.64844C636.625 6.98047 636.423 6.43262 636.019 6.00488C635.614 5.57715 635.075 5.36328 634.401 5.36328C633.593 5.36328 632.963 5.59473 632.512 6.05762C632.066 6.51465 631.844 7.15332 631.844 7.97363H630.218C630.218 6.7959 630.596 5.84375 631.352 5.11719C632.113 4.39062 633.13 4.02734 634.401 4.02734C635.591 4.02734 636.531 4.34082 637.223 4.96777C637.914 5.58887 638.26 6.41797 638.26 7.45508C638.26 8.71484 637.457 10.2148 635.852 11.9551L632.424 15.6729H638.849V17Z" fill="black"/>
<path d="M868.319 8.94922C868.073 8.9082 867.807 8.8877 867.52 8.8877C866.453 8.8877 865.729 9.3418 865.349 10.25V17H863.723V7.49023H865.305L865.331 8.58887C865.864 7.73926 866.62 7.31445 867.599 7.31445C867.915 7.31445 868.155 7.35547 868.319 7.4375V8.94922ZM881.723 9.8457H874.393V8.43066H881.723V9.8457ZM881.723 13.4932H874.393V12.0869H881.723V13.4932ZM890.828 9.81055H892.05C892.817 9.79883 893.421 9.59668 893.86 9.2041C894.3 8.81152 894.52 8.28125 894.52 7.61328C894.52 6.11328 893.772 5.36328 892.278 5.36328C891.575 5.36328 891.013 5.56543 890.591 5.96973C890.175 6.36816 889.967 6.89844 889.967 7.56055H888.341C888.341 6.54688 888.71 5.70605 889.448 5.03809C890.192 4.36426 891.136 4.02734 892.278 4.02734C893.485 4.02734 894.432 4.34668 895.117 4.98535C895.803 5.62402 896.146 6.51172 896.146 7.64844C896.146 8.20508 895.964 8.74414 895.601 9.26562C895.243 9.78711 894.754 10.1768 894.133 10.4346C894.836 10.6572 895.378 11.0264 895.759 11.542C896.146 12.0576 896.339 12.6875 896.339 13.4316C896.339 14.5801 895.964 15.4912 895.214 16.165C894.464 16.8389 893.488 17.1758 892.287 17.1758C891.086 17.1758 890.107 16.8506 889.352 16.2002C888.602 15.5498 888.227 14.6914 888.227 13.625H889.861C889.861 14.2988 890.081 14.8379 890.521 15.2422C890.96 15.6465 891.549 15.8486 892.287 15.8486C893.072 15.8486 893.673 15.6436 894.089 15.2334C894.505 14.8232 894.713 14.2344 894.713 13.4668C894.713 12.7227 894.484 12.1514 894.027 11.7529C893.57 11.3545 892.911 11.1494 892.05 11.1377H890.828V9.81055Z" fill="black"/>
</svg>
