<svg width="825" height="825" viewBox="0 0 825 825" fill="none" xmlns="http://www.w3.org/2000/svg">
<g clip-path="url(#clip0)">
<path d="M608.583 686.442L680.606 703.72" stroke="#747474" stroke-width="1.5"/>
<path d="M608.583 686.442L588.687 801.376" stroke="#747474" stroke-width="1.5"/>
<path d="M608.583 686.442L663.824 780.755" stroke="#747474" stroke-width="1.5"/>
<path d="M608.583 686.442L457.314 401.82" stroke="#747474" stroke-width="1.5"/>
<path d="M608.583 686.442L547.236 735.613" stroke="#747474" stroke-width="1.5"/>
<path d="M164.394 306.671L105.592 255.75" stroke="#747474" stroke-width="1.5"/>
<path d="M164.394 306.671L113.504 469.044" stroke="#747474" stroke-width="1.5"/>
<path d="M164.394 306.671L457.314 401.82" stroke="#747474" stroke-width="1.5"/>
<path d="M164.394 306.671L106.22 361.649" stroke="#747474" stroke-width="1.5"/>
<path d="M164.394 306.671L21.3164 369.548" stroke="#747474" stroke-width="1.5"/>
<path d="M164.394 306.671L38.4248 291.288" stroke="#747474" stroke-width="1.5"/>
<path d="M680.606 703.72L588.687 801.377" stroke="#747474" stroke-width="1.5"/>
<path d="M680.606 703.72L663.824 780.755" stroke="#747474" stroke-width="1.5"/>
<path d="M680.606 703.72L457.314 401.82" stroke="#747474" stroke-width="1.5"/>
<path d="M680.606 703.72L547.236 735.614" stroke="#747474" stroke-width="1.5"/>
<path d="M728.559 175.57L457.314 401.82" stroke="#747474" stroke-width="1.5"/>
<path d="M728.559 175.57L718.294 253.141" stroke="#747474" stroke-width="1.5"/>
<path d="M728.559 175.57L803.73 199.149" stroke="#747474" stroke-width="1.5"/>
<path d="M728.559 175.57L796.115 277.291" stroke="#747474" stroke-width="1.5"/>
<path d="M588.687 801.376L663.824 780.755" stroke="#747474" stroke-width="1.5"/>
<path d="M588.687 801.376L457.314 401.82" stroke="#747474" stroke-width="1.5"/>
<path d="M588.687 801.377L547.236 735.614" stroke="#747474" stroke-width="1.5"/>
<path d="M105.592 255.75L113.504 469.044" stroke="#747474" stroke-width="1.5"/>
<path d="M105.592 255.75L457.314 401.82" stroke="#747474" stroke-width="1.5"/>
<path d="M105.592 255.75L106.22 361.649" stroke="#747474" stroke-width="1.5"/>
<path d="M105.592 255.75L21.3164 369.548" stroke="#747474" stroke-width="1.5"/>
<path d="M105.592 255.75L38.4248 291.288" stroke="#747474" stroke-width="1.5"/>
<path d="M663.824 780.755L457.314 401.82" stroke="#747474" stroke-width="1.5"/>
<path d="M663.824 780.755L547.236 735.614" stroke="#747474" stroke-width="1.5"/>
<path d="M249.643 622.089L113.504 469.044" stroke="#747474" stroke-width="1.5"/>
<path d="M249.643 622.088L457.314 401.82" stroke="#747474" stroke-width="1.5"/>
<path d="M249.642 622.088L237.603 544.208" stroke="#747474" stroke-width="1.5"/>
<path d="M249.642 622.088L174.528 598.626" stroke="#747474" stroke-width="1.5"/>
<path d="M676.252 410.723L457.314 401.82" stroke="#747474" stroke-width="1.5"/>
<path d="M676.251 410.723L740.558 460.997" stroke="#747474" stroke-width="1.5"/>
<path d="M676.252 410.723L665.106 487.022" stroke="#747474" stroke-width="1.5"/>
<path d="M488.971 124.715L421.417 81.8154" stroke="#747474" stroke-width="1.5"/>
<path d="M488.971 124.716L457.314 401.82" stroke="#747474" stroke-width="1.5"/>
<path d="M488.971 124.715L470.128 21.3164" stroke="#747474" stroke-width="1.5"/>
<path d="M488.971 124.715L537.635 63.0188" stroke="#747474" stroke-width="1.5"/>
<path d="M113.504 469.044L457.314 401.82" stroke="#747474" stroke-width="1.5"/>
<path d="M113.504 469.044L106.22 361.649" stroke="#747474" stroke-width="1.5"/>
<path d="M113.504 469.044L21.3164 369.548" stroke="#747474" stroke-width="1.5"/>
<path d="M113.504 469.044L237.603 544.208" stroke="#747474" stroke-width="1.5"/>
<path d="M113.504 469.044L174.528 598.627" stroke="#747474" stroke-width="1.5"/>
<path d="M113.504 469.044L38.4248 291.288" stroke="#747474" stroke-width="1.5"/>
<path d="M421.417 81.8154L457.314 401.82" stroke="#747474" stroke-width="1.5"/>
<path d="M421.417 81.8154L470.129 21.3164" stroke="#747474" stroke-width="1.5"/>
<path d="M421.417 81.8149L537.635 63.0188" stroke="#747474" stroke-width="1.5"/>
<path d="M457.314 401.82L106.22 361.649" stroke="#747474" stroke-width="1.5"/>
<path d="M457.314 401.82L470.128 21.3164" stroke="#747474" stroke-width="1.5"/>
<path d="M457.314 401.82L21.3164 369.548" stroke="#747474" stroke-width="1.5"/>
<path d="M457.314 401.82L237.603 544.208" stroke="#747474" stroke-width="1.5"/>
<path d="M457.314 401.82L718.294 253.141" stroke="#747474" stroke-width="1.5"/>
<path d="M457.314 401.82L174.528 598.626" stroke="#747474" stroke-width="1.5"/>
<path d="M457.314 401.82L740.558 460.997" stroke="#747474" stroke-width="1.5"/>
<path d="M457.314 401.82L803.73 199.15" stroke="#747474" stroke-width="1.5"/>
<path d="M457.314 401.82L547.236 735.613" stroke="#747474" stroke-width="1.5"/>
<path d="M457.314 401.82L38.4248 291.288" stroke="#747474" stroke-width="1.5"/>
<path d="M457.314 401.82L665.106 487.022" stroke="#747474" stroke-width="1.5"/>
<path d="M457.314 401.819L537.635 63.0188" stroke="#747474" stroke-width="1.5"/>
<path d="M457.314 401.82L796.115 277.291" stroke="#747474" stroke-width="1.5"/>
<path d="M106.22 361.649L21.3164 369.548" stroke="#747474" stroke-width="1.5"/>
<path d="M106.22 361.65L38.4248 291.288" stroke="#747474" stroke-width="1.5"/>
<path d="M470.128 21.3164L537.635 63.0194" stroke="#747474" stroke-width="1.5"/>
<path d="M21.3164 369.548L38.4246 291.288" stroke="#747474" stroke-width="1.5"/>
<path d="M237.603 544.208L174.528 598.626" stroke="#747474" stroke-width="1.5"/>
<path d="M718.294 253.141L803.73 199.15" stroke="#747474" stroke-width="1.5"/>
<path d="M718.294 253.141L796.115 277.291" stroke="#747474" stroke-width="1.5"/>
<path d="M740.558 460.998L665.106 487.023" stroke="#747474" stroke-width="1.5"/>
<path d="M803.73 199.15L796.115 277.291" stroke="#747474" stroke-width="1.5"/>
<path d="M608.583 707.759C620.356 707.759 629.9 698.215 629.9 686.442C629.9 674.669 620.356 665.126 608.583 665.126C596.81 665.126 587.267 674.669 587.267 686.442C587.267 698.215 596.81 707.759 608.583 707.759Z" fill="#355FB3"/>
<path d="M164.394 327.987C176.166 327.987 185.71 318.444 185.71 306.671C185.71 294.898 176.166 285.354 164.394 285.354C152.621 285.354 143.077 294.898 143.077 306.671C143.077 318.444 152.621 327.987 164.394 327.987Z" fill="#355FB3"/>
<path d="M680.607 725.036C692.379 725.036 701.923 715.493 701.923 703.72C701.923 691.947 692.379 682.404 680.607 682.404C668.834 682.404 659.29 691.947 659.29 703.72C659.29 715.493 668.834 725.036 680.607 725.036Z" fill="#355FB3"/>
<path d="M728.559 196.887C740.331 196.887 749.875 187.343 749.875 175.57C749.875 163.798 740.331 154.254 728.559 154.254C716.786 154.254 707.242 163.798 707.242 175.57C707.242 187.343 716.786 196.887 728.559 196.887Z" fill="#355FB3"/>
<path d="M588.687 822.693C600.46 822.693 610.004 813.149 610.004 801.376C610.004 789.603 600.46 780.06 588.687 780.06C576.914 780.06 567.371 789.603 567.371 801.376C567.371 813.149 576.914 822.693 588.687 822.693Z" fill="#355FB3"/>
<path d="M105.592 277.066C117.365 277.066 126.909 267.522 126.909 255.75C126.909 243.977 117.365 234.433 105.592 234.433C93.8196 234.433 84.2759 243.977 84.2759 255.75C84.2759 267.522 93.8196 277.066 105.592 277.066Z" fill="#355FB3"/>
<path d="M663.824 802.071C675.597 802.071 685.141 792.528 685.141 780.755C685.141 768.982 675.597 759.438 663.824 759.438C652.052 759.438 642.508 768.982 642.508 780.755C642.508 792.528 652.052 802.071 663.824 802.071Z" fill="#355FB3"/>
<path d="M249.643 643.405C261.415 643.405 270.959 633.862 270.959 622.089C270.959 610.316 261.415 600.772 249.643 600.772C237.87 600.772 228.326 610.316 228.326 622.089C228.326 633.862 237.87 643.405 249.643 643.405Z" fill="#355FB3"/>
<path d="M676.252 432.039C688.024 432.039 697.568 422.496 697.568 410.723C697.568 398.95 688.024 389.406 676.252 389.406C664.479 389.406 654.935 398.95 654.935 410.723C654.935 422.496 664.479 432.039 676.252 432.039Z" fill="#355FB3"/>
<path d="M488.971 146.032C500.744 146.032 510.287 136.489 510.287 124.716C510.287 112.943 500.744 103.399 488.971 103.399C477.198 103.399 467.654 112.943 467.654 124.716C467.654 136.489 477.198 146.032 488.971 146.032Z" fill="#355FB3"/>
<path d="M113.504 490.361C125.277 490.361 134.82 480.817 134.82 469.044C134.82 457.272 125.277 447.728 113.504 447.728C101.731 447.728 92.1875 457.272 92.1875 469.044C92.1875 480.817 101.731 490.361 113.504 490.361Z" fill="#355FB3"/>
<path d="M421.417 103.132C433.19 103.132 442.734 93.5882 442.734 81.8155C442.734 70.0427 433.19 60.499 421.417 60.499C409.644 60.499 400.101 70.0427 400.101 81.8155C400.101 93.5882 409.644 103.132 421.417 103.132Z" fill="#355FB3"/>
<path d="M457.314 423.136C469.087 423.136 478.63 413.592 478.63 401.82C478.63 390.047 469.087 380.503 457.314 380.503C445.541 380.503 435.998 390.047 435.998 401.82C435.998 413.592 445.541 423.136 457.314 423.136Z" fill="#355FB3"/>
<path d="M106.22 382.966C117.993 382.966 127.536 373.422 127.536 361.649C127.536 349.876 117.993 340.333 106.22 340.333C94.447 340.333 84.9033 349.876 84.9033 361.649C84.9033 373.422 94.447 382.966 106.22 382.966Z" fill="#355FB3"/>
<path d="M470.128 42.6329C481.901 42.6329 491.445 33.0892 491.445 21.3165C491.445 9.54371 481.901 0 470.128 0C458.356 0 448.812 9.54371 448.812 21.3165C448.812 33.0892 458.356 42.6329 470.128 42.6329Z" fill="#355FB3"/>
<path d="M21.3165 390.865C33.0892 390.865 42.6329 381.321 42.6329 369.548C42.6329 357.775 33.0892 348.232 21.3165 348.232C9.54371 348.232 0 357.775 0 369.548C0 381.321 9.54371 390.865 21.3165 390.865Z" fill="#355FB3"/>
<path d="M237.603 565.524C249.376 565.524 258.92 555.981 258.92 544.208C258.92 532.435 249.376 522.891 237.603 522.891C225.83 522.891 216.287 532.435 216.287 544.208C216.287 555.981 225.83 565.524 237.603 565.524Z" fill="#355FB3"/>
<path d="M718.294 274.458C730.067 274.458 739.61 264.914 739.61 253.141C739.61 241.369 730.067 231.825 718.294 231.825C706.521 231.825 696.978 241.369 696.978 253.141C696.978 264.914 706.521 274.458 718.294 274.458Z" fill="#355FB3"/>
<path d="M174.528 619.943C186.301 619.943 195.844 610.399 195.844 598.626C195.844 586.853 186.301 577.31 174.528 577.31C162.755 577.31 153.211 586.853 153.211 598.626C153.211 610.399 162.755 619.943 174.528 619.943Z" fill="#355FB3"/>
<path d="M740.558 482.314C752.33 482.314 761.874 472.771 761.874 460.998C761.874 449.225 752.33 439.681 740.558 439.681C728.785 439.681 719.241 449.225 719.241 460.998C719.241 472.771 728.785 482.314 740.558 482.314Z" fill="#355FB3"/>
<path d="M803.73 220.466C815.503 220.466 825.047 210.922 825.047 199.15C825.047 187.377 815.503 177.833 803.73 177.833C791.957 177.833 782.414 187.377 782.414 199.15C782.414 210.922 791.957 220.466 803.73 220.466Z" fill="#355FB3"/>
<path d="M547.236 756.93C559.009 756.93 568.553 747.386 568.553 735.614C568.553 723.841 559.009 714.297 547.236 714.297C535.464 714.297 525.92 723.841 525.92 735.614C525.92 747.386 535.464 756.93 547.236 756.93Z" fill="#355FB3"/>
<path d="M38.4249 312.605C50.1976 312.605 59.7413 303.061 59.7413 291.288C59.7413 279.516 50.1976 269.972 38.4249 269.972C26.6521 269.972 17.1084 279.516 17.1084 291.288C17.1084 303.061 26.6521 312.605 38.4249 312.605Z" fill="#355FB3"/>
<path d="M665.107 508.339C676.879 508.339 686.423 498.796 686.423 487.023C686.423 475.25 676.879 465.707 665.107 465.707C653.334 465.707 643.79 475.25 643.79 487.023C643.79 498.796 653.334 508.339 665.107 508.339Z" fill="#355FB3"/>
<path d="M537.635 84.3353C549.408 84.3353 558.951 74.7916 558.951 63.0189C558.951 51.2461 549.408 41.7024 537.635 41.7024C525.862 41.7024 516.318 51.2461 516.318 63.0189C516.318 74.7916 525.862 84.3353 537.635 84.3353Z" fill="#355FB3"/>
<path d="M796.115 298.607C807.888 298.607 817.432 289.064 817.432 277.291C817.432 265.518 807.888 255.974 796.115 255.974C784.343 255.974 774.799 265.518 774.799 277.291C774.799 289.064 784.343 298.607 796.115 298.607Z" fill="#355FB3"/>
</g>
<defs>
<clipPath id="clip0">
<rect x="-2657" y="-1441" width="4048" height="2428" fill="white"/>
</clipPath>
</defs>
</svg>
