<svg width="1043" height="467" viewBox="0 0 1043 467" fill="none" xmlns="http://www.w3.org/2000/svg">
<g clip-path="url(#clip0)">
<path d="M387.099 311.952L238.638 203.488" stroke="#747474" stroke-width="1.5"/>
<path d="M670.13 284.855L810.265 185.013" stroke="#747474" stroke-width="1.5"/>
<path d="M387.1 311.952L341.157 338.665" stroke="#747474" stroke-width="1.5"/>
<path d="M387.1 311.952L460.463 253.292" stroke="#747474" stroke-width="1.5"/>
<path d="M387.1 311.952L465.979 416.852" stroke="#747474" stroke-width="1.5"/>
<path d="M670.131 284.855L721.336 306.336" stroke="#747474" stroke-width="1.5"/>
<path d="M670.131 284.855L584.967 254.046" stroke="#747474" stroke-width="1.5"/>
<path d="M670.131 284.855L664.641 340.534" stroke="#747474" stroke-width="1.5"/>
<path d="M584.966 254.046L560.653 395.957" stroke="#747474" stroke-width="1.5"/>
<path d="M584.966 254.046L460.463 253.292" stroke="#747474" stroke-width="1.5"/>
<path d="M584.967 254.045L596.546 186.28" stroke="#747474" stroke-width="1.5"/>
<path d="M560.654 395.957L465.979 416.852" stroke="#747474" stroke-width="1.5"/>
<path d="M560.653 395.958L613.237 370.112" stroke="#747474" stroke-width="1.5"/>
<path d="M560.653 395.957L563.866 452.109" stroke="#747474" stroke-width="1.5"/>
<path d="M460.463 253.292L504.565 300.51" stroke="#747474" stroke-width="1.5"/>
<path d="M465.979 416.853L508.174 364.416" stroke="#747474" stroke-width="1.5"/>
<path d="M613.237 370.111L664.641 340.534" stroke="#747474" stroke-width="1.5"/>
<path d="M613.237 370.112L646.37 416.217" stroke="#747474" stroke-width="1.5"/>
<path d="M508.174 364.416L504.565 300.51" stroke="#747474" stroke-width="1.5"/>
<path d="M508.174 364.417L456.266 335.383" stroke="#747474" stroke-width="1.5"/>
<path d="M387.1 326.416C395.088 326.416 401.564 319.94 401.564 311.952C401.564 303.964 395.088 297.488 387.1 297.488C379.111 297.488 372.635 303.964 372.635 311.952C372.635 319.94 379.111 326.416 387.1 326.416Z" fill="#B33535"/>
<path d="M670.131 299.319C678.119 299.319 684.595 292.844 684.595 284.855C684.595 276.867 678.119 270.391 670.131 270.391C662.143 270.391 655.667 276.867 655.667 284.855C655.667 292.844 662.143 299.319 670.131 299.319Z" fill="#B33535"/>
<path d="M341.157 353.13C349.145 353.13 355.621 346.654 355.621 338.666C355.621 330.677 349.145 324.201 341.157 324.201C333.169 324.201 326.693 330.677 326.693 338.666C326.693 346.654 333.169 353.13 341.157 353.13Z" fill="#B33535"/>
<path d="M721.336 320.8C729.324 320.8 735.8 314.324 735.8 306.336C735.8 298.348 729.324 291.872 721.336 291.872C713.348 291.872 706.872 298.348 706.872 306.336C706.872 314.324 713.348 320.8 721.336 320.8Z" fill="#B33535"/>
<path d="M584.967 268.51C592.955 268.51 599.431 262.034 599.431 254.046C599.431 246.057 592.955 239.581 584.967 239.581C576.978 239.581 570.502 246.057 570.502 254.046C570.502 262.034 576.978 268.51 584.967 268.51Z" fill="#B33535"/>
<path d="M560.653 410.421C568.642 410.421 575.117 403.945 575.117 395.957C575.117 387.969 568.642 381.493 560.653 381.493C552.665 381.493 546.189 387.969 546.189 395.957C546.189 403.945 552.665 410.421 560.653 410.421Z" fill="#B33535"/>
<path d="M460.463 267.756C468.451 267.756 474.927 261.28 474.927 253.292C474.927 245.304 468.451 238.828 460.463 238.828C452.474 238.828 445.999 245.304 445.999 253.292C445.999 261.28 452.474 267.756 460.463 267.756Z" fill="#B33535"/>
<path d="M465.979 431.317C473.968 431.317 480.443 424.841 480.443 416.853C480.443 408.865 473.968 402.389 465.979 402.389C457.991 402.389 451.515 408.865 451.515 416.853C451.515 424.841 457.991 431.317 465.979 431.317Z" fill="#B33535"/>
<path d="M613.237 384.576C621.226 384.576 627.701 378.1 627.701 370.112C627.701 362.123 621.226 355.647 613.237 355.647C605.249 355.647 598.773 362.123 598.773 370.112C598.773 378.1 605.249 384.576 613.237 384.576Z" fill="#B33535"/>
<path d="M508.174 378.88C516.163 378.88 522.638 372.405 522.638 364.416C522.638 356.428 516.163 349.952 508.174 349.952C500.186 349.952 493.71 356.428 493.71 364.416C493.71 372.405 500.186 378.88 508.174 378.88Z" fill="#B33535"/>
<path d="M504.565 314.974C512.554 314.974 519.03 308.498 519.03 300.51C519.03 292.522 512.554 286.046 504.565 286.046C496.577 286.046 490.101 292.522 490.101 300.51C490.101 308.498 496.577 314.974 504.565 314.974Z" fill="#B33535"/>
<path d="M596.545 200.744C604.533 200.744 611.009 194.269 611.009 186.28C611.009 178.292 604.533 171.816 596.545 171.816C588.557 171.816 582.081 178.292 582.081 186.28C582.081 194.269 588.557 200.744 596.545 200.744Z" fill="#B33535"/>
<path d="M563.866 466.573C571.854 466.573 578.33 460.097 578.33 452.109C578.33 444.121 571.854 437.645 563.866 437.645C555.877 437.645 549.402 444.121 549.402 452.109C549.402 460.097 555.877 466.573 563.866 466.573Z" fill="#B33535"/>
<path d="M664.641 354.998C672.629 354.998 679.105 348.522 679.105 340.534C679.105 332.545 672.629 326.069 664.641 326.069C656.653 326.069 650.177 332.545 650.177 340.534C650.177 348.522 656.653 354.998 664.641 354.998Z" fill="#B33535"/>
<path d="M646.37 430.681C654.358 430.681 660.834 424.205 660.834 416.217C660.834 408.228 654.358 401.752 646.37 401.752C638.382 401.752 631.906 408.228 631.906 416.217C631.906 424.205 638.382 430.681 646.37 430.681Z" fill="#B33535"/>
<path d="M456.266 349.847C464.254 349.847 470.73 343.371 470.73 335.383C470.73 327.395 464.254 320.919 456.266 320.919C448.277 320.919 441.802 327.395 441.802 335.383C441.802 343.371 448.277 349.847 456.266 349.847Z" fill="#B33535"/>
<path d="M238.638 203.488L219.277 138.432" stroke="#747474" stroke-width="1.5"/>
<path d="M238.638 203.488L164.239 225.665" stroke="#747474" stroke-width="1.5"/>
<path d="M219.277 138.432L247.314 89.2424" stroke="#747474" stroke-width="1.5"/>
<path d="M219.276 138.432L162.917 106.736" stroke="#747474" stroke-width="1.5"/>
<path d="M164.239 225.665L138.45 273.825" stroke="#747474" stroke-width="1.5"/>
<path d="M164.239 225.665L114.215 193.731" stroke="#747474" stroke-width="1.5"/>
<path d="M247.314 89.242L236.825 27.789" stroke="#747474" stroke-width="1.5"/>
<path d="M247.314 89.242L303.869 63.3652" stroke="#747474" stroke-width="1.5"/>
<path d="M138.45 273.825L138.462 327.716" stroke="#747474" stroke-width="1.5"/>
<path d="M138.45 273.825L89.3352 296.932" stroke="#747474" stroke-width="1.5"/>
<path d="M162.917 106.736L106.651 125.71" stroke="#747474" stroke-width="1.5"/>
<path d="M114.215 193.731L106.651 125.711" stroke="#747474" stroke-width="1.5"/>
<path d="M106.651 125.71L66.6951 92.4191" stroke="#747474" stroke-width="1.5"/>
<path d="M66.6953 92.4191L14.4641 80.6211" stroke="#747474" stroke-width="1.5"/>
<path d="M66.6952 92.4192L55.1206 41.2128" stroke="#747474" stroke-width="1.5"/>
<path d="M238.638 217.952C246.626 217.952 253.102 211.476 253.102 203.488C253.102 195.499 246.626 189.023 238.638 189.023C230.65 189.023 224.174 195.499 224.174 203.488C224.174 211.476 230.65 217.952 238.638 217.952Z" fill="#B33535"/>
<path d="M219.277 152.896C227.265 152.896 233.741 146.421 233.741 138.432C233.741 130.444 227.265 123.968 219.277 123.968C211.288 123.968 204.812 130.444 204.812 138.432C204.812 146.421 211.288 152.896 219.277 152.896Z" fill="#B33535"/>
<path d="M164.239 240.129C172.227 240.129 178.703 233.653 178.703 225.665C178.703 217.676 172.227 211.201 164.239 211.201C156.25 211.201 149.774 217.676 149.774 225.665C149.774 233.653 156.25 240.129 164.239 240.129Z" fill="#B33535"/>
<path d="M247.314 103.706C255.303 103.706 261.779 97.2307 261.779 89.2424C261.779 81.2541 255.303 74.7783 247.314 74.7783C239.326 74.7783 232.85 81.2541 232.85 89.2424C232.85 97.2307 239.326 103.706 247.314 103.706Z" fill="#B33535"/>
<path d="M138.45 288.289C146.438 288.289 152.914 281.813 152.914 273.825C152.914 265.837 146.438 259.361 138.45 259.361C130.462 259.361 123.986 265.837 123.986 273.825C123.986 281.813 130.462 288.289 138.45 288.289Z" fill="#B33535"/>
<path d="M162.917 121.2C170.905 121.2 177.381 114.724 177.381 106.736C177.381 98.7473 170.905 92.2715 162.917 92.2715C154.929 92.2715 148.453 98.7473 148.453 106.736C148.453 114.724 154.929 121.2 162.917 121.2Z" fill="#B33535"/>
<path d="M114.215 208.195C122.203 208.195 128.679 201.72 128.679 193.731C128.679 185.743 122.203 179.267 114.215 179.267C106.227 179.267 99.7507 185.743 99.7507 193.731C99.7507 201.72 106.227 208.195 114.215 208.195Z" fill="#B33535"/>
<path d="M106.651 140.175C114.639 140.175 121.115 133.699 121.115 125.711C121.115 117.722 114.639 111.246 106.651 111.246C98.6626 111.246 92.1868 117.722 92.1868 125.711C92.1868 133.699 98.6626 140.175 106.651 140.175Z" fill="#B33535"/>
<path d="M236.825 42.2531C244.813 42.2531 251.289 35.7773 251.289 27.789C251.289 19.8007 244.813 13.3249 236.825 13.3249C228.837 13.3249 222.361 19.8007 222.361 27.789C222.361 35.7773 228.837 42.2531 236.825 42.2531Z" fill="#B33535"/>
<path d="M303.869 77.8293C311.857 77.8293 318.333 71.3535 318.333 63.3652C318.333 55.3769 311.857 48.9011 303.869 48.9011C295.88 48.9011 289.405 55.3769 289.405 63.3652C289.405 71.3535 295.88 77.8293 303.869 77.8293Z" fill="#B33535"/>
<path d="M138.462 342.181C146.45 342.181 152.926 335.705 152.926 327.716C152.926 319.728 146.45 313.252 138.462 313.252C130.474 313.252 123.998 319.728 123.998 327.716C123.998 335.705 130.474 342.181 138.462 342.181Z" fill="#B33535"/>
<path d="M89.3352 311.396C97.3235 311.396 103.799 304.921 103.799 296.932C103.799 288.944 97.3235 282.468 89.3352 282.468C81.3469 282.468 74.8711 288.944 74.8711 296.932C74.8711 304.921 81.3469 311.396 89.3352 311.396Z" fill="#B33535"/>
<path d="M66.6951 106.883C74.6834 106.883 81.1592 100.407 81.1592 92.4191C81.1592 84.4308 74.6834 77.955 66.6951 77.955C58.7068 77.955 52.231 84.4308 52.231 92.4191C52.231 100.407 58.7068 106.883 66.6951 106.883Z" fill="#B33535"/>
<path d="M14.4641 95.0852C22.4524 95.0852 28.9282 88.6094 28.9282 80.6211C28.9282 72.6328 22.4524 66.157 14.4641 66.157C6.4758 66.157 0 72.6328 0 80.6211C0 88.6094 6.4758 95.0852 14.4641 95.0852Z" fill="#B33535"/>
<path d="M55.1206 55.6769C63.1089 55.6769 69.5847 49.2011 69.5847 41.2128C69.5847 33.2245 63.1089 26.7487 55.1206 26.7487C47.1323 26.7487 40.6565 33.2245 40.6565 41.2128C40.6565 49.2011 47.1323 55.6769 55.1206 55.6769Z" fill="#B33535"/>
<path d="M810.265 185.013L872.632 209.464" stroke="#747474" stroke-width="1.5"/>
<path d="M809.99 184.682L825.454 120.052" stroke="#747474" stroke-width="1.5"/>
<path d="M872.632 209.464L901.74 256.594" stroke="#747474" stroke-width="1.5"/>
<path d="M872.632 209.464L938.87 173.701" stroke="#747474" stroke-width="1.5"/>
<path d="M825.729 120.384L804.981 73.4894" stroke="#747474" stroke-width="1.5"/>
<path d="M825.9 119.985L886.76 82.4454" stroke="#747474" stroke-width="1.5"/>
<path d="M901.74 256.594L948.2 280.736" stroke="#747474" stroke-width="1.5"/>
<path d="M901.739 256.594L893.882 306.839" stroke="#747474" stroke-width="1.5"/>
<path d="M804.981 73.4897L757.439 38.0382" stroke="#747474" stroke-width="1.5"/>
<path d="M804.981 73.4892L813.037 19.451" stroke="#747474" stroke-width="1.5"/>
<path d="M938.87 173.701L939.652 103.026" stroke="#747474" stroke-width="1.5"/>
<path d="M886.65 82.4454L939.713 102.628" stroke="#747474" stroke-width="1.5"/>
<path d="M939.652 103.026L978.356 68.8224" stroke="#747474" stroke-width="1.5"/>
<path d="M978.356 68.8222L1028.65 60.7076" stroke="#747474" stroke-width="1.5"/>
<path d="M978.356 68.8224L992.359 14.4641" stroke="#747474" stroke-width="1.5"/>
<path d="M810.265 199.478C818.254 199.478 824.729 193.002 824.729 185.013C824.729 177.025 818.254 170.549 810.265 170.549C802.277 170.549 795.801 177.025 795.801 185.013C795.801 193.002 802.277 199.478 810.265 199.478Z" fill="#B33535"/>
<path d="M872.632 223.928C880.62 223.928 887.096 217.452 887.096 209.464C887.096 201.476 880.62 195 872.632 195C864.644 195 858.168 201.476 858.168 209.464C858.168 217.452 864.644 223.928 872.632 223.928Z" fill="#B33535"/>
<path d="M825.729 134.848C833.718 134.848 840.193 128.372 840.193 120.384C840.193 112.396 833.718 105.92 825.729 105.92C817.741 105.92 811.265 112.396 811.265 120.384C811.265 128.372 817.741 134.848 825.729 134.848Z" fill="#B33535"/>
<path d="M901.739 271.059C909.728 271.059 916.204 264.583 916.204 256.594C916.204 248.606 909.728 242.13 901.739 242.13C893.751 242.13 887.275 248.606 887.275 256.594C887.275 264.583 893.751 271.059 901.739 271.059Z" fill="#B33535"/>
<path d="M804.981 87.9535C812.969 87.9535 819.445 81.4777 819.445 73.4894C819.445 65.5011 812.969 59.0253 804.981 59.0253C796.992 59.0253 790.517 65.5011 790.517 73.4894C790.517 81.4777 796.992 87.9535 804.981 87.9535Z" fill="#B33535"/>
<path d="M938.87 188.165C946.858 188.165 953.334 181.69 953.334 173.701C953.334 165.713 946.858 159.237 938.87 159.237C930.882 159.237 924.406 165.713 924.406 173.701C924.406 181.69 930.882 188.165 938.87 188.165Z" fill="#B33535"/>
<path d="M886.589 97.3078C894.577 97.3078 901.053 90.832 901.053 82.8437C901.053 74.8554 894.577 68.3796 886.589 68.3796C878.6 68.3796 872.125 74.8554 872.125 82.8437C872.125 90.832 878.6 97.3078 886.589 97.3078Z" fill="#B33535"/>
<path d="M939.652 117.49C947.64 117.49 954.116 111.015 954.116 103.026C954.116 95.0381 947.64 88.5623 939.652 88.5623C931.664 88.5623 925.188 95.0381 925.188 103.026C925.188 111.015 931.664 117.49 939.652 117.49Z" fill="#B33535"/>
<path d="M948.2 295.2C956.188 295.2 962.664 288.724 962.664 280.736C962.664 272.747 956.188 266.272 948.2 266.272C940.211 266.272 933.736 272.747 933.736 280.736C933.736 288.724 940.211 295.2 948.2 295.2Z" fill="#B33535"/>
<path d="M893.882 321.303C901.871 321.303 908.346 314.827 908.346 306.839C908.346 298.851 901.871 292.375 893.882 292.375C885.894 292.375 879.418 298.851 879.418 306.839C879.418 314.827 885.894 321.303 893.882 321.303Z" fill="#B33535"/>
<path d="M757.439 52.5023C765.428 52.5023 771.903 46.0265 771.903 38.0382C771.903 30.0499 765.428 23.5741 757.439 23.5741C749.451 23.5741 742.975 30.0499 742.975 38.0382C742.975 46.0265 749.451 52.5023 757.439 52.5023Z" fill="#B33535"/>
<path d="M813.037 33.9151C821.026 33.9151 827.501 27.4393 827.501 19.451C827.501 11.4627 821.026 4.98686 813.037 4.98686C805.049 4.98686 798.573 11.4627 798.573 19.451C798.573 27.4393 805.049 33.9151 813.037 33.9151Z" fill="#B33535"/>
<path d="M978.356 83.2865C986.344 83.2865 992.82 76.8107 992.82 68.8224C992.82 60.8341 986.344 54.3583 978.356 54.3583C970.368 54.3583 963.892 60.8341 963.892 68.8224C963.892 76.8107 970.368 83.2865 978.356 83.2865Z" fill="#B33535"/>
<path d="M1028.66 75.1717C1036.64 75.1717 1043.12 68.6959 1043.12 60.7076C1043.12 52.7193 1036.64 46.2435 1028.66 46.2435C1020.67 46.2435 1014.19 52.7193 1014.19 60.7076C1014.19 68.6959 1020.67 75.1717 1028.66 75.1717Z" fill="#B33535"/>
<path d="M992.359 28.9282C1000.35 28.9282 1006.82 22.4524 1006.82 14.4641C1006.82 6.4758 1000.35 0 992.359 0C984.371 0 977.895 6.4758 977.895 14.4641C977.895 22.4524 984.371 28.9282 992.359 28.9282Z" fill="#B33535"/>
</g>
<defs>
<clipPath id="clip0">
<rect y="-327" width="4048" height="2428" fill="white"/>
</clipPath>
</defs>
</svg>
