<svg width="1367" height="1015" viewBox="0 0 1367 1015" fill="none" xmlns="http://www.w3.org/2000/svg">
<g clip-path="url(#clip0)">
<path d="M839.131 184.121L855.281 254.227" stroke="#747474" stroke-width="1.5"/>
<path d="M839.131 184.121L852.993 217.54" stroke="#747474" stroke-width="1.5"/>
<path d="M839.131 184.121L861.606 128.24" stroke="#747474" stroke-width="1.5"/>
<path d="M839.132 184.121L833.38 149.588" stroke="#747474" stroke-width="1.5"/>
<path d="M839.131 184.121L798.112 165.837" stroke="#747474" stroke-width="1.5"/>
<path d="M855.281 254.227L852.993 217.54" stroke="#747474" stroke-width="1.5"/>
<path d="M855.281 254.227L866.752 367.287" stroke="#747474" stroke-width="1.5"/>
<path d="M861.606 128.24L833.381 149.588" stroke="#747474" stroke-width="1.5"/>
<path d="M861.606 128.24L803.953 128.872" stroke="#747474" stroke-width="1.5"/>
<path d="M861.606 128.24L802.749 92.4483" stroke="#747474" stroke-width="1.5"/>
<path d="M833.38 149.588L798.112 165.837" stroke="#747474" stroke-width="1.5"/>
<path d="M833.38 149.588L803.953 128.872" stroke="#747474" stroke-width="1.5"/>
<path d="M833.38 149.588L802.748 92.4483" stroke="#747474" stroke-width="1.5"/>
<path d="M798.112 165.837L803.953 128.872" stroke="#747474" stroke-width="1.5"/>
<path d="M798.113 165.837L802.749 92.4483" stroke="#747474" stroke-width="1.5"/>
<path d="M798.113 165.837L771.727 117.181" stroke="#747474" stroke-width="1.5"/>
<path d="M798.112 165.837L763.287 153.499" stroke="#747474" stroke-width="1.5"/>
<path d="M81.5921 297.142L81.492 333.76" stroke="#747474" stroke-width="1.5"/>
<path d="M81.5923 297.142L45.4834 313.486" stroke="#747474" stroke-width="1.5"/>
<path d="M81.5923 297.142L115.073 311.578" stroke="#747474" stroke-width="1.5"/>
<path d="M81.5923 297.142L81.4228 261.621" stroke="#747474" stroke-width="1.5"/>
<path d="M81.5925 297.142L106.716 175.936" stroke="#747474" stroke-width="1.5"/>
<path d="M81.5923 297.142L67.8562 223.815" stroke="#747474" stroke-width="1.5"/>
<path d="M81.4922 333.76L45.4834 313.486" stroke="#747474" stroke-width="1.5"/>
<path d="M81.4924 333.76L115.073 311.578" stroke="#747474" stroke-width="1.5"/>
<path d="M81.4924 333.76L80.5516 369.105" stroke="#747474" stroke-width="1.5"/>
<path d="M81.4922 333.76L105.701 393.113" stroke="#747474" stroke-width="1.5"/>
<path d="M81.4924 333.76L47.1577 349.401" stroke="#747474" stroke-width="1.5"/>
<path d="M81.4922 333.76L143.783 330.06" stroke="#747474" stroke-width="1.5"/>
<path d="M81.4922 333.76L115.147 353.563" stroke="#747474" stroke-width="1.5"/>
<path d="M81.4923 333.76L13.1665 344.285" stroke="#747474" stroke-width="1.5"/>
<path d="M45.4835 313.486L47.1576 349.401" stroke="#747474" stroke-width="1.5"/>
<path d="M45.4834 313.486L13.1664 344.285" stroke="#747474" stroke-width="1.5"/>
<path d="M115.073 311.578L80.5513 369.105" stroke="#747474" stroke-width="1.5"/>
<path d="M115.073 311.578L105.701 393.113" stroke="#747474" stroke-width="1.5"/>
<path d="M115.073 311.578L47.1577 349.401" stroke="#747474" stroke-width="1.5"/>
<path d="M115.073 311.578L143.783 330.06" stroke="#747474" stroke-width="1.5"/>
<path d="M81.4229 261.621L67.8563 223.815" stroke="#747474" stroke-width="1.5"/>
<path d="M106.716 175.936L123.734 131.476" stroke="#747474" stroke-width="1.5"/>
<path d="M106.716 175.936L86.2142 136.058" stroke="#747474" stroke-width="1.5"/>
<path d="M106.716 175.936L53.4771 148.73" stroke="#747474" stroke-width="1.5"/>
<path d="M106.716 175.936L70.6704 179.079" stroke="#747474" stroke-width="1.5"/>
<path d="M67.8564 223.815L70.6703 179.079" stroke="#747474" stroke-width="1.5"/>
<path d="M67.8565 223.815L37.7227 202.877" stroke="#747474" stroke-width="1.5"/>
<path d="M1058.09 434.824L966.512 396.445" stroke="#747474" stroke-width="1.5"/>
<path d="M1058.09 434.824L926.743 407.585" stroke="#747474" stroke-width="1.5"/>
<path d="M1058.09 434.824L1090.43 415.358" stroke="#747474" stroke-width="1.5"/>
<path d="M1058.09 434.824L1158.41 481.557" stroke="#747474" stroke-width="1.5"/>
<path d="M1058.09 434.824L1122.97 435.877" stroke="#747474" stroke-width="1.5"/>
<path d="M966.512 396.445L926.743 407.585" stroke="#747474" stroke-width="1.5"/>
<path d="M966.512 396.445L885.215 397.705" stroke="#747474" stroke-width="1.5"/>
<path d="M966.512 396.445L939.036 371.836" stroke="#747474" stroke-width="1.5"/>
<path d="M966.512 396.445L1017.5 377.972" stroke="#747474" stroke-width="1.5"/>
<path d="M926.743 407.585L885.215 397.705" stroke="#747474" stroke-width="1.5"/>
<path d="M926.743 407.585L862.926 439.723" stroke="#747474" stroke-width="1.5"/>
<path d="M926.743 407.585L866.752 367.287" stroke="#747474" stroke-width="1.5"/>
<path d="M885.215 397.705L939.036 371.836" stroke="#747474" stroke-width="1.5"/>
<path d="M885.215 397.705L783.118 387.306" stroke="#747474" stroke-width="1.5"/>
<path d="M885.215 397.705L833.898 409.274" stroke="#747474" stroke-width="1.5"/>
<path d="M885.215 397.705L844.301 333.024" stroke="#747474" stroke-width="1.5"/>
<path d="M885.215 397.705L862.926 439.723" stroke="#747474" stroke-width="1.5"/>
<path d="M939.036 371.836L1017.5 377.972" stroke="#747474" stroke-width="1.5"/>
<path d="M939.036 371.836L844.301 333.024" stroke="#747474" stroke-width="1.5"/>
<path d="M939.036 371.836L998.285 411.435" stroke="#747474" stroke-width="1.5"/>
<path d="M1017.5 377.973L1049.46 396.151" stroke="#747474" stroke-width="1.5"/>
<path d="M1017.5 377.973L1090.43 415.358" stroke="#747474" stroke-width="1.5"/>
<path d="M1017.5 377.972L1063.47 332.055" stroke="#747474" stroke-width="1.5"/>
<path d="M1017.5 377.972L998.285 411.435" stroke="#747474" stroke-width="1.5"/>
<path d="M562.928 176.932L567.786 264.295" stroke="#747474" stroke-width="1.5"/>
<path d="M562.928 176.932L583.448 149.408" stroke="#747474" stroke-width="1.5"/>
<path d="M562.928 176.932L618.294 141.237" stroke="#747474" stroke-width="1.5"/>
<path d="M562.928 176.932L568.069 112.224" stroke="#747474" stroke-width="1.5"/>
<path d="M562.928 176.932L533.714 128.958" stroke="#747474" stroke-width="1.5"/>
<path d="M567.786 264.295L573.573 299.948" stroke="#747474" stroke-width="1.5"/>
<path d="M567.786 264.295L651.233 317.482" stroke="#747474" stroke-width="1.5"/>
<path d="M567.787 264.295L513.395 271.993" stroke="#747474" stroke-width="1.5"/>
<path d="M567.787 264.295L540.078 243.955" stroke="#747474" stroke-width="1.5"/>
<path d="M567.786 264.295L511.951 219.817" stroke="#747474" stroke-width="1.5"/>
<path d="M567.787 264.295L602.698 325.652" stroke="#747474" stroke-width="1.5"/>
<path d="M583.448 149.408L618.294 141.237" stroke="#747474" stroke-width="1.5"/>
<path d="M583.448 149.408L568.069 112.224" stroke="#747474" stroke-width="1.5"/>
<path d="M583.448 149.408L533.714 128.958" stroke="#747474" stroke-width="1.5"/>
<path d="M583.448 149.408L694.815 145.601" stroke="#747474" stroke-width="1.5"/>
<path d="M583.448 149.408L511.951 219.817" stroke="#747474" stroke-width="1.5"/>
<path d="M583.448 149.408L498.719 138.501" stroke="#747474" stroke-width="1.5"/>
<path d="M618.294 141.237L568.069 112.224" stroke="#747474" stroke-width="1.5"/>
<path d="M618.294 141.237L694.815 145.601" stroke="#747474" stroke-width="1.5"/>
<path d="M568.069 112.224L533.714 128.958" stroke="#747474" stroke-width="1.5"/>
<path d="M568.069 112.224L523.613 89.1906" stroke="#747474" stroke-width="1.5"/>
<path d="M568.069 112.224L498.719 138.501" stroke="#747474" stroke-width="1.5"/>
<path d="M533.714 128.958L523.613 89.1906" stroke="#747474" stroke-width="1.5"/>
<path d="M533.714 128.958L498.719 138.501" stroke="#747474" stroke-width="1.5"/>
<path d="M533.714 128.958L487.868 100.523" stroke="#747474" stroke-width="1.5"/>
<path d="M80.5513 369.105L48.744 389.694" stroke="#747474" stroke-width="1.5"/>
<path d="M80.5513 369.105L105.701 393.113" stroke="#747474" stroke-width="1.5"/>
<path d="M80.5516 369.105L47.1577 349.401" stroke="#747474" stroke-width="1.5"/>
<path d="M48.7441 389.694L105.701 393.113" stroke="#747474" stroke-width="1.5"/>
<path d="M48.7439 389.694L47.1574 349.401" stroke="#747474" stroke-width="1.5"/>
<path d="M48.7442 389.694L13.1665 344.285" stroke="#747474" stroke-width="1.5"/>
<path d="M105.701 393.113L115.147 353.563" stroke="#747474" stroke-width="1.5"/>
<path d="M105.701 393.113L138.654 383.44" stroke="#747474" stroke-width="1.5"/>
<path d="M47.1576 349.401L13.1665 344.285" stroke="#747474" stroke-width="1.5"/>
<path d="M208.054 333.212L244.373 339.862" stroke="#747474" stroke-width="1.5"/>
<path d="M208.054 333.212L143.783 330.06" stroke="#747474" stroke-width="1.5"/>
<path d="M208.054 333.212L285.959 314.068" stroke="#747474" stroke-width="1.5"/>
<path d="M244.373 339.862L168.233 361.049" stroke="#747474" stroke-width="1.5"/>
<path d="M244.373 339.862L319.555 305.111" stroke="#747474" stroke-width="1.5"/>
<path d="M143.783 330.06L168.234 361.049" stroke="#747474" stroke-width="1.5"/>
<path d="M143.783 330.06L115.147 353.563" stroke="#747474" stroke-width="1.5"/>
<path d="M143.783 330.06L138.654 383.44" stroke="#747474" stroke-width="1.5"/>
<path d="M285.958 314.068L319.556 305.111" stroke="#747474" stroke-width="1.5"/>
<path d="M285.958 314.068L362.659 287.766" stroke="#747474" stroke-width="1.5"/>
<path d="M803.953 128.872L802.748 92.4483" stroke="#747474" stroke-width="1.5"/>
<path d="M803.953 128.872L771.727 117.181" stroke="#747474" stroke-width="1.5"/>
<path d="M802.749 92.4483L771.727 117.181" stroke="#747474" stroke-width="1.5"/>
<path d="M827.907 694.772L828.141 730.221" stroke="#747474" stroke-width="1.5"/>
<path d="M827.907 694.772L796.93 670.26" stroke="#747474" stroke-width="1.5"/>
<path d="M827.907 694.772L816.106 773.812" stroke="#747474" stroke-width="1.5"/>
<path d="M827.907 694.772L794.523 744.132" stroke="#747474" stroke-width="1.5"/>
<path d="M827.907 694.772L852.937 753.998" stroke="#747474" stroke-width="1.5"/>
<path d="M827.907 694.772L796.828 634.775" stroke="#747474" stroke-width="1.5"/>
<path d="M827.907 694.772L809.57 597.777" stroke="#747474" stroke-width="1.5"/>
<path d="M828.141 730.221L796.93 670.26" stroke="#747474" stroke-width="1.5"/>
<path d="M828.141 730.221L816.106 773.812" stroke="#747474" stroke-width="1.5"/>
<path d="M828.141 730.221L852.937 753.998" stroke="#747474" stroke-width="1.5"/>
<path d="M828.141 730.221L768.907 719.826" stroke="#747474" stroke-width="1.5"/>
<path d="M796.93 670.26L794.523 744.132" stroke="#747474" stroke-width="1.5"/>
<path d="M796.93 670.26L796.828 634.775" stroke="#747474" stroke-width="1.5"/>
<path d="M796.93 670.26L809.57 597.777" stroke="#747474" stroke-width="1.5"/>
<path d="M796.93 670.26L768.907 719.826" stroke="#747474" stroke-width="1.5"/>
<path d="M796.93 670.26L759.365 683.049" stroke="#747474" stroke-width="1.5"/>
<path d="M796.93 670.26L762.864 647.15" stroke="#747474" stroke-width="1.5"/>
<path d="M816.106 773.812L794.523 744.132" stroke="#747474" stroke-width="1.5"/>
<path d="M816.106 773.812L852.937 753.998" stroke="#747474" stroke-width="1.5"/>
<path d="M816.106 773.812L862.468 824.446" stroke="#747474" stroke-width="1.5"/>
<path d="M816.106 773.812L847.492 791.483" stroke="#747474" stroke-width="1.5"/>
<path d="M794.523 744.132L852.937 753.998" stroke="#747474" stroke-width="1.5"/>
<path d="M794.523 744.132L768.907 719.826" stroke="#747474" stroke-width="1.5"/>
<path d="M794.523 744.132L759.365 683.049" stroke="#747474" stroke-width="1.5"/>
<path d="M852.937 753.998L847.491 791.483" stroke="#747474" stroke-width="1.5"/>
<path d="M852.937 753.998L895.874 808.38" stroke="#747474" stroke-width="1.5"/>
<path d="M796.828 634.775L809.569 597.777" stroke="#747474" stroke-width="1.5"/>
<path d="M796.828 634.775L766.33 553.348" stroke="#747474" stroke-width="1.5"/>
<path d="M796.828 634.775L762.864 647.15" stroke="#747474" stroke-width="1.5"/>
<path d="M796.828 634.775L767.523 602.925" stroke="#747474" stroke-width="1.5"/>
<path d="M809.569 597.777L766.33 553.348" stroke="#747474" stroke-width="1.5"/>
<path d="M809.57 597.777L762.864 647.15" stroke="#747474" stroke-width="1.5"/>
<path d="M809.57 597.777L767.523 602.925" stroke="#747474" stroke-width="1.5"/>
<path d="M809.569 597.777L862.926 439.723" stroke="#747474" stroke-width="1.5"/>
<path d="M1246.07 657.061L1225.5 756.873" stroke="#747474" stroke-width="1.5"/>
<path d="M1246.07 657.061L1237.01 724.101" stroke="#747474" stroke-width="1.5"/>
<path d="M1246.07 657.061L1274.45 591.981" stroke="#747474" stroke-width="1.5"/>
<path d="M1246.07 657.061L1251.42 618.244" stroke="#747474" stroke-width="1.5"/>
<path d="M1246.07 657.061L1237.71 577.787" stroke="#747474" stroke-width="1.5"/>
<path d="M1246.07 657.061L1216.97 604.922" stroke="#747474" stroke-width="1.5"/>
<path d="M1225.5 756.873L1237.01 724.101" stroke="#747474" stroke-width="1.5"/>
<path d="M1225.5 756.873L1194.33 806.736" stroke="#747474" stroke-width="1.5"/>
<path d="M1225.5 756.873L1231.01 798.445" stroke="#747474" stroke-width="1.5"/>
<path d="M1225.5 756.873L1261.69 777.416" stroke="#747474" stroke-width="1.5"/>
<path d="M1237.01 724.101L1194.33 806.736" stroke="#747474" stroke-width="1.5"/>
<path d="M1237.01 724.101L1261.69 777.416" stroke="#747474" stroke-width="1.5"/>
<path d="M1274.45 591.981L1251.42 618.244" stroke="#747474" stroke-width="1.5"/>
<path d="M1274.45 591.981L1237.71 577.787" stroke="#747474" stroke-width="1.5"/>
<path d="M1274.45 591.981L1216.97 604.922" stroke="#747474" stroke-width="1.5"/>
<path d="M1274.45 591.981L1266.14 552.241" stroke="#747474" stroke-width="1.5"/>
<path d="M1251.42 618.244L1216.97 604.922" stroke="#747474" stroke-width="1.5"/>
<path d="M1251.42 618.244L1214.06 550.82" stroke="#747474" stroke-width="1.5"/>
<path d="M1237.71 577.787L1204.09 515.158" stroke="#747474" stroke-width="1.5"/>
<path d="M1237.71 577.787L1214.06 550.82" stroke="#747474" stroke-width="1.5"/>
<path d="M1237.71 577.787L1266.14 552.241" stroke="#747474" stroke-width="1.5"/>
<path d="M1216.97 604.922L1214.06 550.82" stroke="#747474" stroke-width="1.5"/>
<path d="M694.815 145.601L767.651 192.348" stroke="#747474" stroke-width="1.5"/>
<path d="M694.815 145.601L771.727 117.181" stroke="#747474" stroke-width="1.5"/>
<path d="M694.815 145.601L763.287 153.498" stroke="#747474" stroke-width="1.5"/>
<path d="M694.815 145.601L727.797 166.653" stroke="#747474" stroke-width="1.5"/>
<path d="M87.2397 98.2328L127.22 96.8375" stroke="#747474" stroke-width="1.5"/>
<path d="M87.2394 98.2328L99.9112 65.2648" stroke="#747474" stroke-width="1.5"/>
<path d="M87.2397 98.2328L123.734 131.476" stroke="#747474" stroke-width="1.5"/>
<path d="M87.2398 98.2328L86.2144 136.058" stroke="#747474" stroke-width="1.5"/>
<path d="M127.22 96.8375L134.579 56.9226" stroke="#747474" stroke-width="1.5"/>
<path d="M127.22 96.8375L99.9116 65.2648" stroke="#747474" stroke-width="1.5"/>
<path d="M127.22 96.8375L123.734 131.476" stroke="#747474" stroke-width="1.5"/>
<path d="M127.22 96.8375L86.2142 136.058" stroke="#747474" stroke-width="1.5"/>
<path d="M127.22 96.8375L181.707 51.5738" stroke="#747474" stroke-width="1.5"/>
<path d="M127.22 96.8375L161.877 86.8912" stroke="#747474" stroke-width="1.5"/>
<path d="M134.579 56.9226L99.9116 65.2648" stroke="#747474" stroke-width="1.5"/>
<path d="M134.579 56.9226L181.708 51.5738" stroke="#747474" stroke-width="1.5"/>
<path d="M134.579 56.9226L161.877 86.8912" stroke="#747474" stroke-width="1.5"/>
<path d="M134.579 56.9226L150.834 25.7646" stroke="#747474" stroke-width="1.5"/>
<path d="M99.9116 65.2648L161.877 86.8912" stroke="#747474" stroke-width="1.5"/>
<path d="M99.9115 65.2648L150.834 25.7646" stroke="#747474" stroke-width="1.5"/>
<path d="M123.734 131.476L86.2144 136.058" stroke="#747474" stroke-width="1.5"/>
<path d="M123.734 131.476L161.877 86.8912" stroke="#747474" stroke-width="1.5"/>
<path d="M86.2144 136.058L53.4771 148.73" stroke="#747474" stroke-width="1.5"/>
<path d="M86.2141 136.058L70.67 179.079" stroke="#747474" stroke-width="1.5"/>
<path d="M181.708 51.5738L161.877 86.8912" stroke="#747474" stroke-width="1.5"/>
<path d="M181.707 51.5738L150.834 25.7646" stroke="#747474" stroke-width="1.5"/>
<path d="M181.708 51.5738L236.088 45.6238" stroke="#747474" stroke-width="1.5"/>
<path d="M161.877 86.8912L150.834 25.7646" stroke="#747474" stroke-width="1.5"/>
<path d="M161.877 86.8911L236.088 45.6238" stroke="#747474" stroke-width="1.5"/>
<path d="M1211.04 857.125L1153.27 868.141" stroke="#747474" stroke-width="1.5"/>
<path d="M1211.04 857.125L1194.33 806.736" stroke="#747474" stroke-width="1.5"/>
<path d="M1211.04 857.125L1178.5 838.028" stroke="#747474" stroke-width="1.5"/>
<path d="M1211.04 857.125L1185.1 883.07" stroke="#747474" stroke-width="1.5"/>
<path d="M1211.04 857.125L1231.01 798.445" stroke="#747474" stroke-width="1.5"/>
<path d="M1211.04 857.125L1263.21 820.998" stroke="#747474" stroke-width="1.5"/>
<path d="M1211.04 857.125L1247.7 853.493" stroke="#747474" stroke-width="1.5"/>
<path d="M1153.27 868.141L1194.33 806.736" stroke="#747474" stroke-width="1.5"/>
<path d="M1153.27 868.141L1178.5 838.028" stroke="#747474" stroke-width="1.5"/>
<path d="M1153.27 868.141L1185.1 883.07" stroke="#747474" stroke-width="1.5"/>
<path d="M1153.27 868.141L1091.28 891.173" stroke="#747474" stroke-width="1.5"/>
<path d="M1153.27 868.141L1126.64 895.72" stroke="#747474" stroke-width="1.5"/>
<path d="M1194.33 806.736L1178.5 838.028" stroke="#747474" stroke-width="1.5"/>
<path d="M1194.33 806.736L1185.1 883.07" stroke="#747474" stroke-width="1.5"/>
<path d="M1194.33 806.736L1263.21 820.998" stroke="#747474" stroke-width="1.5"/>
<path d="M1194.33 806.736L1247.7 853.493" stroke="#747474" stroke-width="1.5"/>
<path d="M1178.5 838.028L1185.1 883.07" stroke="#747474" stroke-width="1.5"/>
<path d="M1185.1 883.07L1126.64 895.72" stroke="#747474" stroke-width="1.5"/>
<path d="M1185.1 883.07L1247.7 853.493" stroke="#747474" stroke-width="1.5"/>
<path d="M1091.28 891.173L1126.64 895.72" stroke="#747474" stroke-width="1.5"/>
<path d="M1091.28 891.173L1026.15 918.179" stroke="#747474" stroke-width="1.5"/>
<path d="M1091.28 891.173L1101.43 929.906" stroke="#747474" stroke-width="1.5"/>
<path d="M1091.28 891.173L1052.56 891.279" stroke="#747474" stroke-width="1.5"/>
<path d="M1091.28 891.173L1066.32 926.069" stroke="#747474" stroke-width="1.5"/>
<path d="M1126.64 895.72L1101.43 929.906" stroke="#747474" stroke-width="1.5"/>
<path d="M1126.64 895.72L1052.56 891.279" stroke="#747474" stroke-width="1.5"/>
<path d="M1102.82 380.411L1139.27 398.958" stroke="#747474" stroke-width="1.5"/>
<path d="M1102.82 380.411L1049.46 396.151" stroke="#747474" stroke-width="1.5"/>
<path d="M1102.82 380.411L1090.43 415.358" stroke="#747474" stroke-width="1.5"/>
<path d="M1102.82 380.411L1070.19 369.183" stroke="#747474" stroke-width="1.5"/>
<path d="M1102.82 380.411L1138.39 362.16" stroke="#747474" stroke-width="1.5"/>
<path d="M1102.82 380.411L1109.45 341.061" stroke="#747474" stroke-width="1.5"/>
<path d="M1139.27 398.958L1090.43 415.358" stroke="#747474" stroke-width="1.5"/>
<path d="M1139.27 398.958L1122.97 435.877" stroke="#747474" stroke-width="1.5"/>
<path d="M1139.27 398.958L1169.4 438.071" stroke="#747474" stroke-width="1.5"/>
<path d="M1139.27 398.958L1173.21 365.24" stroke="#747474" stroke-width="1.5"/>
<path d="M1049.46 396.151L1070.19 369.183" stroke="#747474" stroke-width="1.5"/>
<path d="M1049.46 396.151L1017.64 456.34" stroke="#747474" stroke-width="1.5"/>
<path d="M1090.42 415.358L1109.45 341.061" stroke="#747474" stroke-width="1.5"/>
<path d="M1090.43 415.358L1122.97 435.877" stroke="#747474" stroke-width="1.5"/>
<path d="M1070.19 369.183L1063.47 332.055" stroke="#747474" stroke-width="1.5"/>
<path d="M1138.39 362.16L1109.45 341.061" stroke="#747474" stroke-width="1.5"/>
<path d="M1138.39 362.16L1173.21 365.24" stroke="#747474" stroke-width="1.5"/>
<path d="M1109.45 341.061L1090.21 308.084" stroke="#747474" stroke-width="1.5"/>
<path d="M1109.45 341.061L1173.21 365.24" stroke="#747474" stroke-width="1.5"/>
<path d="M1109.45 341.061L1139.05 313.958" stroke="#747474" stroke-width="1.5"/>
<path d="M404.996 95.3168L465.712 198.079" stroke="#747474" stroke-width="1.5"/>
<path d="M404.996 95.3168L337.577 71.8555" stroke="#747474" stroke-width="1.5"/>
<path d="M404.996 95.3168L399.39 58.5056" stroke="#747474" stroke-width="1.5"/>
<path d="M404.996 95.3168L364.6 44.3215" stroke="#747474" stroke-width="1.5"/>
<path d="M404.996 95.3168L454.568 85.7291" stroke="#747474" stroke-width="1.5"/>
<path d="M404.996 95.3168L434.464 56.6895" stroke="#747474" stroke-width="1.5"/>
<path d="M465.712 198.079L540.078 243.955" stroke="#747474" stroke-width="1.5"/>
<path d="M465.712 198.079L511.951 219.817" stroke="#747474" stroke-width="1.5"/>
<path d="M465.713 198.079L498.719 138.501" stroke="#747474" stroke-width="1.5"/>
<path d="M465.712 198.079L436.864 267.64" stroke="#747474" stroke-width="1.5"/>
<path d="M465.712 198.079L457.585 239.82" stroke="#747474" stroke-width="1.5"/>
<path d="M465.712 198.079L427.08 213.455" stroke="#747474" stroke-width="1.5"/>
<path d="M337.577 71.8555L399.39 58.5056" stroke="#747474" stroke-width="1.5"/>
<path d="M337.576 71.8555L364.6 44.3215" stroke="#747474" stroke-width="1.5"/>
<path d="M337.576 71.8555L269.58 38.1927" stroke="#747474" stroke-width="1.5"/>
<path d="M337.576 71.8555L340.185 19.4068" stroke="#747474" stroke-width="1.5"/>
<path d="M337.577 71.8555L304.338 13.3745" stroke="#747474" stroke-width="1.5"/>
<path d="M337.576 71.8555L302.292 54.7692" stroke="#747474" stroke-width="1.5"/>
<path d="M399.39 58.5056L364.6 44.3215" stroke="#747474" stroke-width="1.5"/>
<path d="M399.39 58.5056L454.569 85.7291" stroke="#747474" stroke-width="1.5"/>
<path d="M399.39 58.5056L434.464 56.6895" stroke="#747474" stroke-width="1.5"/>
<path d="M399.39 58.5056L340.185 19.4068" stroke="#747474" stroke-width="1.5"/>
<path d="M364.6 44.3215L434.464 56.6895" stroke="#747474" stroke-width="1.5"/>
<path d="M364.6 44.3215L340.185 19.4068" stroke="#747474" stroke-width="1.5"/>
<path d="M454.568 85.7291L434.464 56.6895" stroke="#747474" stroke-width="1.5"/>
<path d="M454.568 85.7291L523.613 89.1906" stroke="#747474" stroke-width="1.5"/>
<path d="M454.568 85.7291L498.719 138.501" stroke="#747474" stroke-width="1.5"/>
<path d="M454.568 85.7291L487.868 100.523" stroke="#747474" stroke-width="1.5"/>
<path d="M990.412 712.461L981.421 676.674" stroke="#747474" stroke-width="1.5"/>
<path d="M990.412 712.461L998.504 641.893" stroke="#747474" stroke-width="1.5"/>
<path d="M990.412 712.461L978.969 747.816" stroke="#747474" stroke-width="1.5"/>
<path d="M981.422 676.674L998.504 641.893" stroke="#747474" stroke-width="1.5"/>
<path d="M998.504 641.893L978.969 747.816" stroke="#747474" stroke-width="1.5"/>
<path d="M998.504 641.893L1003.86 562.225" stroke="#747474" stroke-width="1.5"/>
<path d="M269.58 38.1927L304.338 13.3745" stroke="#747474" stroke-width="1.5"/>
<path d="M269.58 38.1927L302.292 54.7692" stroke="#747474" stroke-width="1.5"/>
<path d="M269.58 38.1927L236.088 45.6238" stroke="#747474" stroke-width="1.5"/>
<path d="M340.185 19.4068L304.337 13.3744" stroke="#747474" stroke-width="1.5"/>
<path d="M340.185 19.4068L302.292 54.7692" stroke="#747474" stroke-width="1.5"/>
<path d="M304.338 13.3745L302.293 54.7692" stroke="#747474" stroke-width="1.5"/>
<path d="M304.337 13.3744L236.088 45.6238" stroke="#747474" stroke-width="1.5"/>
<path d="M302.292 54.7692L236.088 45.6238" stroke="#747474" stroke-width="1.5"/>
<path d="M1158.41 481.557L1122.97 435.877" stroke="#747474" stroke-width="1.5"/>
<path d="M1158.41 481.557L1204.09 515.158" stroke="#747474" stroke-width="1.5"/>
<path d="M1158.41 481.557L1214.06 550.82" stroke="#747474" stroke-width="1.5"/>
<path d="M1122.97 435.877L1169.4 438.071" stroke="#747474" stroke-width="1.5"/>
<path d="M658.585 405.879L632.8 383.52" stroke="#747474" stroke-width="1.5"/>
<path d="M658.584 405.879L662.006 440.009" stroke="#747474" stroke-width="1.5"/>
<path d="M658.584 405.879L673.439 367.848" stroke="#747474" stroke-width="1.5"/>
<path d="M658.584 405.879L627.201 423.396" stroke="#747474" stroke-width="1.5"/>
<path d="M658.584 405.879L696.933 397.456" stroke="#747474" stroke-width="1.5"/>
<path d="M632.8 383.52L662.006 440.009" stroke="#747474" stroke-width="1.5"/>
<path d="M632.8 383.52L673.439 367.848" stroke="#747474" stroke-width="1.5"/>
<path d="M632.8 383.52L627.201 423.396" stroke="#747474" stroke-width="1.5"/>
<path d="M632.8 383.52L573.573 299.948" stroke="#747474" stroke-width="1.5"/>
<path d="M632.8 383.52L594.583 361.698" stroke="#747474" stroke-width="1.5"/>
<path d="M632.8 383.52L631.646 348.937" stroke="#747474" stroke-width="1.5"/>
<path d="M632.8 383.52L600.401 399.899" stroke="#747474" stroke-width="1.5"/>
<path d="M662.006 440.009L627.201 423.396" stroke="#747474" stroke-width="1.5"/>
<path d="M662.006 440.009L720.309 496.756" stroke="#747474" stroke-width="1.5"/>
<path d="M673.439 367.848L631.646 348.937" stroke="#747474" stroke-width="1.5"/>
<path d="M673.439 367.848L733.04 407.495" stroke="#747474" stroke-width="1.5"/>
<path d="M673.439 367.848L651.233 317.482" stroke="#747474" stroke-width="1.5"/>
<path d="M673.439 367.848L696.933 397.456" stroke="#747474" stroke-width="1.5"/>
<path d="M627.201 423.396L594.583 361.698" stroke="#747474" stroke-width="1.5"/>
<path d="M627.201 423.396L600.401 399.899" stroke="#747474" stroke-width="1.5"/>
<path d="M573.573 299.948L651.233 317.482" stroke="#747474" stroke-width="1.5"/>
<path d="M573.573 299.948L513.395 271.993" stroke="#747474" stroke-width="1.5"/>
<path d="M573.573 299.948L540.078 243.955" stroke="#747474" stroke-width="1.5"/>
<path d="M573.573 299.948L602.698 325.652" stroke="#747474" stroke-width="1.5"/>
<path d="M594.583 361.698L631.646 348.937" stroke="#747474" stroke-width="1.5"/>
<path d="M594.583 361.698L600.401 399.899" stroke="#747474" stroke-width="1.5"/>
<path d="M594.583 361.698L602.698 325.652" stroke="#747474" stroke-width="1.5"/>
<path d="M631.646 348.937L600.401 399.899" stroke="#747474" stroke-width="1.5"/>
<path d="M631.646 348.937L651.233 317.482" stroke="#747474" stroke-width="1.5"/>
<path d="M631.645 348.937L602.698 325.652" stroke="#747474" stroke-width="1.5"/>
<path d="M783.118 387.306L833.898 409.274" stroke="#747474" stroke-width="1.5"/>
<path d="M783.118 387.306L772.41 453.568" stroke="#747474" stroke-width="1.5"/>
<path d="M783.118 387.306L844.301 333.024" stroke="#747474" stroke-width="1.5"/>
<path d="M783.118 387.306L733.04 407.495" stroke="#747474" stroke-width="1.5"/>
<path d="M783.118 387.306L651.233 317.482" stroke="#747474" stroke-width="1.5"/>
<path d="M833.898 409.274L772.41 453.568" stroke="#747474" stroke-width="1.5"/>
<path d="M833.898 409.274L862.926 439.723" stroke="#747474" stroke-width="1.5"/>
<path d="M833.898 409.274L866.752 367.287" stroke="#747474" stroke-width="1.5"/>
<path d="M772.41 453.568L733.04 407.495" stroke="#747474" stroke-width="1.5"/>
<path d="M772.41 453.568L766.33 553.348" stroke="#747474" stroke-width="1.5"/>
<path d="M772.41 453.568L756.111 504.309" stroke="#747474" stroke-width="1.5"/>
<path d="M844.3 333.024L767.65 192.348" stroke="#747474" stroke-width="1.5"/>
<path d="M733.04 407.495L696.933 397.456" stroke="#747474" stroke-width="1.5"/>
<path d="M651.233 317.482L602.698 325.652" stroke="#747474" stroke-width="1.5"/>
<path d="M720.309 496.756L766.33 553.348" stroke="#747474" stroke-width="1.5"/>
<path d="M720.309 496.756L756.111 504.309" stroke="#747474" stroke-width="1.5"/>
<path d="M1049.89 959.022L1054.9 1002.31" stroke="#747474" stroke-width="1.5"/>
<path d="M1049.89 959.022L1014.25 965.252" stroke="#747474" stroke-width="1.5"/>
<path d="M1049.89 959.022L1084.47 973.702" stroke="#747474" stroke-width="1.5"/>
<path d="M1049.89 959.022L1026.15 918.179" stroke="#747474" stroke-width="1.5"/>
<path d="M1049.89 959.022L1101.43 929.906" stroke="#747474" stroke-width="1.5"/>
<path d="M1049.89 959.022L1066.32 926.07" stroke="#747474" stroke-width="1.5"/>
<path d="M1054.9 1002.31L1014.25 965.252" stroke="#747474" stroke-width="1.5"/>
<path d="M1054.9 1002.31L1018.31 1001.57" stroke="#747474" stroke-width="1.5"/>
<path d="M1054.9 1002.31L1084.47 973.702" stroke="#747474" stroke-width="1.5"/>
<path d="M1014.25 965.252L1018.31 1001.57" stroke="#747474" stroke-width="1.5"/>
<path d="M1014.25 965.252L1084.47 973.702" stroke="#747474" stroke-width="1.5"/>
<path d="M1014.25 965.252L1026.15 918.179" stroke="#747474" stroke-width="1.5"/>
<path d="M1018.31 1001.57L1084.47 973.702" stroke="#747474" stroke-width="1.5"/>
<path d="M1084.47 973.702L1066.32 926.069" stroke="#747474" stroke-width="1.5"/>
<path d="M1204.09 515.158L1214.06 550.82" stroke="#747474" stroke-width="1.5"/>
<path d="M1204.09 515.158L1169.4 438.071" stroke="#747474" stroke-width="1.5"/>
<path d="M1204.09 515.158L1266.14 552.241" stroke="#747474" stroke-width="1.5"/>
<path d="M1204.09 515.158L1240.87 521.318" stroke="#747474" stroke-width="1.5"/>
<path d="M168.233 361.049L115.147 353.563" stroke="#747474" stroke-width="1.5"/>
<path d="M168.233 361.049L138.654 383.44" stroke="#747474" stroke-width="1.5"/>
<path d="M319.556 305.111L376.621 255.726" stroke="#747474" stroke-width="1.5"/>
<path d="M767.65 192.348L771.727 117.181" stroke="#747474" stroke-width="1.5"/>
<path d="M767.65 192.348L763.286 153.499" stroke="#747474" stroke-width="1.5"/>
<path d="M767.65 192.348L727.796 166.653" stroke="#747474" stroke-width="1.5"/>
<path d="M771.727 117.181L763.287 153.498" stroke="#747474" stroke-width="1.5"/>
<path d="M771.727 117.181L727.797 166.653" stroke="#747474" stroke-width="1.5"/>
<path d="M763.286 153.498L727.796 166.653" stroke="#747474" stroke-width="1.5"/>
<path d="M53.4769 148.73L70.6702 179.079" stroke="#747474" stroke-width="1.5"/>
<path d="M53.4768 148.73L37.7223 202.877" stroke="#747474" stroke-width="1.5"/>
<path d="M70.6703 179.079L37.7225 202.877" stroke="#747474" stroke-width="1.5"/>
<path d="M115.147 353.563L138.654 383.44" stroke="#747474" stroke-width="1.5"/>
<path d="M513.395 271.993L540.078 243.955" stroke="#747474" stroke-width="1.5"/>
<path d="M513.395 271.993L511.951 219.817" stroke="#747474" stroke-width="1.5"/>
<path d="M513.395 271.993L436.864 267.64" stroke="#747474" stroke-width="1.5"/>
<path d="M540.078 243.955L511.951 219.817" stroke="#747474" stroke-width="1.5"/>
<path d="M511.951 219.817L457.585 239.82" stroke="#747474" stroke-width="1.5"/>
<path d="M1231.01 798.445L1263.21 820.998" stroke="#747474" stroke-width="1.5"/>
<path d="M1231.01 798.445L1247.7 853.493" stroke="#747474" stroke-width="1.5"/>
<path d="M1231.01 798.445L1261.69 777.416" stroke="#747474" stroke-width="1.5"/>
<path d="M1263.21 820.998L1247.7 853.493" stroke="#747474" stroke-width="1.5"/>
<path d="M405.431 285.401L376.621 255.726" stroke="#747474" stroke-width="1.5"/>
<path d="M405.431 285.401L362.659 287.766" stroke="#747474" stroke-width="1.5"/>
<path d="M405.431 285.401L409.139 244.176" stroke="#747474" stroke-width="1.5"/>
<path d="M376.621 255.726L362.659 287.766" stroke="#747474" stroke-width="1.5"/>
<path d="M376.621 255.726L436.864 267.64" stroke="#747474" stroke-width="1.5"/>
<path d="M376.621 255.726L457.585 239.82" stroke="#747474" stroke-width="1.5"/>
<path d="M362.659 287.766L409.139 244.176" stroke="#747474" stroke-width="1.5"/>
<path d="M362.659 287.766L436.864 267.64" stroke="#747474" stroke-width="1.5"/>
<path d="M409.14 244.176L436.864 267.64" stroke="#747474" stroke-width="1.5"/>
<path d="M409.14 244.176L457.585 239.82" stroke="#747474" stroke-width="1.5"/>
<path d="M409.139 244.176L427.08 213.455" stroke="#747474" stroke-width="1.5"/>
<path d="M523.613 89.1906L498.719 138.501" stroke="#747474" stroke-width="1.5"/>
<path d="M523.613 89.1906L487.868 100.523" stroke="#747474" stroke-width="1.5"/>
<path d="M498.719 138.501L487.868 100.523" stroke="#747474" stroke-width="1.5"/>
<path d="M766.33 553.348L756.111 504.31" stroke="#747474" stroke-width="1.5"/>
<path d="M766.33 553.348L767.523 602.925" stroke="#747474" stroke-width="1.5"/>
<path d="M768.907 719.826L759.365 683.049" stroke="#747474" stroke-width="1.5"/>
<path d="M759.366 683.049L762.864 647.15" stroke="#747474" stroke-width="1.5"/>
<path d="M762.864 647.15L767.523 602.925" stroke="#747474" stroke-width="1.5"/>
<path d="M1063.47 332.055L1090.21 308.084" stroke="#747474" stroke-width="1.5"/>
<path d="M1352.96 499.488L1321.97 470.038" stroke="#747474" stroke-width="1.5"/>
<path d="M1352.96 499.488L1315.44 505.862" stroke="#747474" stroke-width="1.5"/>
<path d="M1321.97 470.038L1315.44 505.862" stroke="#747474" stroke-width="1.5"/>
<path d="M1315.44 505.862L1302.51 541.988" stroke="#747474" stroke-width="1.5"/>
<path d="M1107.38 273.039L1090.21 308.084" stroke="#747474" stroke-width="1.5"/>
<path d="M1107.38 273.039L1144.79 278.97" stroke="#747474" stroke-width="1.5"/>
<path d="M1090.21 308.084L1144.79 278.97" stroke="#747474" stroke-width="1.5"/>
<path d="M1090.21 308.084L1139.05 313.958" stroke="#747474" stroke-width="1.5"/>
<path d="M1144.79 278.97L1139.05 313.958" stroke="#747474" stroke-width="1.5"/>
<path d="M1169.4 438.071L1176.08 401.892" stroke="#747474" stroke-width="1.5"/>
<path d="M1176.08 401.892L1173.21 365.24" stroke="#747474" stroke-width="1.5"/>
<path d="M1176.08 401.892L1209.18 374.528" stroke="#747474" stroke-width="1.5"/>
<path d="M1017.65 456.34L998.285 411.435" stroke="#747474" stroke-width="1.5"/>
<path d="M1017.65 456.34L1003.86 562.225" stroke="#747474" stroke-width="1.5"/>
<path d="M1173.05 329.247L1173.21 365.24" stroke="#747474" stroke-width="1.5"/>
<path d="M1173.05 329.247L1179.09 290.653" stroke="#747474" stroke-width="1.5"/>
<path d="M1173.05 329.247L1139.05 313.958" stroke="#747474" stroke-width="1.5"/>
<path d="M1173.21 365.24L1209.18 374.528" stroke="#747474" stroke-width="1.5"/>
<path d="M436.864 267.64L457.585 239.82" stroke="#747474" stroke-width="1.5"/>
<path d="M436.864 267.64L427.08 213.455" stroke="#747474" stroke-width="1.5"/>
<path d="M457.585 239.82L427.08 213.455" stroke="#747474" stroke-width="1.5"/>
<path d="M1266.14 552.241L1302.51 541.988" stroke="#747474" stroke-width="1.5"/>
<path d="M1266.14 552.241L1240.87 521.318" stroke="#747474" stroke-width="1.5"/>
<path d="M1266.14 552.241L1278.09 511.436" stroke="#747474" stroke-width="1.5"/>
<path d="M1302.51 541.988L1278.09 511.436" stroke="#747474" stroke-width="1.5"/>
<path d="M1240.87 521.318L1278.09 511.436" stroke="#747474" stroke-width="1.5"/>
<path d="M1209.18 374.528L1207.51 334.798" stroke="#747474" stroke-width="1.5"/>
<path d="M1026.15 918.179L1101.43 929.906" stroke="#747474" stroke-width="1.5"/>
<path d="M1026.15 918.179L1066.32 926.07" stroke="#747474" stroke-width="1.5"/>
<path d="M1026.15 918.179L987.212 831.803" stroke="#747474" stroke-width="1.5"/>
<path d="M862.467 824.446L847.491 791.483" stroke="#747474" stroke-width="1.5"/>
<path d="M862.467 824.446L895.874 808.38" stroke="#747474" stroke-width="1.5"/>
<path d="M862.467 824.446L930.95 880.078" stroke="#747474" stroke-width="1.5"/>
<path d="M862.467 824.446L903.747 853.297" stroke="#747474" stroke-width="1.5"/>
<path d="M847.492 791.483L895.875 808.38" stroke="#747474" stroke-width="1.5"/>
<path d="M1101.43 929.906L1052.56 891.279" stroke="#747474" stroke-width="1.5"/>
<path d="M1101.43 929.906L1066.32 926.07" stroke="#747474" stroke-width="1.5"/>
<path d="M1052.56 891.279L1066.32 926.07" stroke="#747474" stroke-width="1.5"/>
<path d="M1052.56 891.279L930.951 880.078" stroke="#747474" stroke-width="1.5"/>
<path d="M895.875 808.38L930.951 880.078" stroke="#747474" stroke-width="1.5"/>
<path d="M895.875 808.38L903.747 853.297" stroke="#747474" stroke-width="1.5"/>
<path d="M895.875 808.38L933.867 820.509" stroke="#747474" stroke-width="1.5"/>
<path d="M930.951 880.078L903.747 853.297" stroke="#747474" stroke-width="1.5"/>
<path d="M930.95 880.078L955.819 850.746" stroke="#747474" stroke-width="1.5"/>
<path d="M930.95 880.078L933.867 820.509" stroke="#747474" stroke-width="1.5"/>
<path d="M903.747 853.297L955.819 850.745" stroke="#747474" stroke-width="1.5"/>
<path d="M903.747 853.297L933.867 820.509" stroke="#747474" stroke-width="1.5"/>
<path d="M903.747 853.297L987.213 831.803" stroke="#747474" stroke-width="1.5"/>
<path d="M955.819 850.745L933.867 820.509" stroke="#747474" stroke-width="1.5"/>
<path d="M955.819 850.746L987.213 831.803" stroke="#747474" stroke-width="1.5"/>
<path d="M933.867 820.509L987.212 831.803" stroke="#747474" stroke-width="1.5"/>
<path d="M987.212 831.803L978.969 747.816" stroke="#747474" stroke-width="1.5"/>
<path d="M862.926 439.723L866.752 367.287" stroke="#747474" stroke-width="1.5"/>
<path d="M844.131 192.781C848.914 190.02 850.553 183.904 847.792 179.121C845.03 174.338 838.914 172.699 834.131 175.46C829.349 178.222 827.71 184.338 830.471 189.121C833.233 193.904 839.349 195.542 844.131 192.781Z" fill="#B33535"/>
<path d="M860.282 262.887C865.065 260.125 866.704 254.009 863.942 249.227C861.181 244.444 855.065 242.805 850.282 245.566C845.499 248.328 843.86 254.444 846.622 259.227C849.383 264.009 855.499 265.648 860.282 262.887Z" fill="#B33535"/>
<path d="M857.993 226.2C862.776 223.439 864.415 217.323 861.654 212.54C858.892 207.757 852.776 206.118 847.993 208.88C843.21 211.641 841.572 217.757 844.333 222.54C847.094 227.323 853.21 228.962 857.993 226.2Z" fill="#B33535"/>
<path d="M866.606 136.9C871.389 134.139 873.028 128.023 870.266 123.24C867.505 118.457 861.389 116.818 856.606 119.579C851.823 122.341 850.184 128.457 852.946 133.24C855.707 138.023 861.823 139.661 866.606 136.9Z" fill="#B33535"/>
<path d="M838.38 158.248C843.163 155.487 844.802 149.371 842.041 144.588C839.279 139.805 833.163 138.166 828.38 140.928C823.598 143.689 821.959 149.805 824.72 154.588C827.482 159.371 833.598 161.01 838.38 158.248Z" fill="#B33535"/>
<path d="M803.112 174.497C807.895 171.735 809.534 165.619 806.773 160.836C804.011 156.054 797.895 154.415 793.112 157.176C788.329 159.938 786.691 166.054 789.452 170.836C792.214 175.619 798.329 177.258 803.112 174.497Z" fill="#B33535"/>
<path d="M86.5924 305.802C91.3753 303.041 93.014 296.925 90.2526 292.142C87.4912 287.359 81.3753 285.72 76.5924 288.482C71.8094 291.243 70.1707 297.359 72.9321 302.142C75.6936 306.925 81.8094 308.564 86.5924 305.802Z" fill="#B33535"/>
<path d="M86.4923 342.42C91.2752 339.658 92.914 333.542 90.1525 328.759C87.3911 323.977 81.2752 322.338 76.4923 325.099C71.7094 327.861 70.0706 333.977 72.832 338.759C75.5935 343.542 81.7094 345.181 86.4923 342.42Z" fill="#B33535"/>
<path d="M50.4835 322.146C55.2664 319.385 56.9052 313.269 54.1437 308.486C51.3823 303.703 45.2664 302.065 40.4835 304.826C35.7006 307.587 34.0618 313.703 36.8232 318.486C39.5847 323.269 45.7006 324.908 50.4835 322.146Z" fill="#B33535"/>
<path d="M120.073 320.238C124.856 317.477 126.495 311.361 123.733 306.578C120.972 301.795 114.856 300.156 110.073 302.918C105.29 305.679 103.651 311.795 106.413 316.578C109.174 321.361 115.29 323 120.073 320.238Z" fill="#B33535"/>
<path d="M86.4229 270.281C91.2059 267.52 92.8446 261.404 90.0832 256.621C87.3218 251.838 81.2059 250.199 76.4229 252.961C71.64 255.722 70.0013 261.838 72.7627 266.621C75.5241 271.404 81.64 273.043 86.4229 270.281Z" fill="#B33535"/>
<path d="M111.716 184.596C116.499 181.835 118.138 175.719 115.377 170.936C112.615 166.153 106.499 164.514 101.716 167.275C96.9335 170.037 95.2947 176.153 98.0562 180.936C100.818 185.719 106.933 187.357 111.716 184.596Z" fill="#B33535"/>
<path d="M72.8565 232.475C77.6395 229.714 79.2782 223.598 76.5168 218.815C73.7554 214.032 67.6395 212.393 62.8565 215.155C58.0736 217.916 56.4349 224.032 59.1963 228.815C61.9577 233.598 68.0736 235.236 72.8565 232.475Z" fill="#B33535"/>
<path d="M1063.09 443.484C1067.88 440.723 1069.51 434.607 1066.75 429.824C1063.99 425.041 1057.88 423.402 1053.09 426.163C1048.31 428.925 1046.67 435.041 1049.43 439.824C1052.19 444.607 1058.31 446.245 1063.09 443.484Z" fill="#B33535"/>
<path d="M971.512 405.105C976.295 402.343 977.933 396.227 975.172 391.444C972.411 386.662 966.295 385.023 961.512 387.784C956.729 390.546 955.09 396.662 957.852 401.444C960.613 406.227 966.729 407.866 971.512 405.105Z" fill="#B33535"/>
<path d="M931.743 416.245C936.526 413.484 938.165 407.368 935.404 402.585C932.642 397.802 926.526 396.163 921.743 398.925C916.96 401.686 915.322 407.802 918.083 412.585C920.844 417.368 926.96 419.006 931.743 416.245Z" fill="#B33535"/>
<path d="M890.215 406.365C894.998 403.604 896.637 397.488 893.875 392.705C891.114 387.922 884.998 386.283 880.215 389.045C875.432 391.806 873.793 397.922 876.555 402.705C879.316 407.488 885.432 409.127 890.215 406.365Z" fill="#B33535"/>
<path d="M944.036 380.496C948.819 377.735 950.458 371.619 947.696 366.836C944.935 362.053 938.819 360.414 934.036 363.176C929.253 365.937 927.615 372.053 930.376 376.836C933.137 381.619 939.253 383.258 944.036 380.496Z" fill="#B33535"/>
<path d="M1022.5 386.633C1027.28 383.871 1028.92 377.755 1026.16 372.972C1023.4 368.189 1017.28 366.551 1012.5 369.312C1007.71 372.074 1006.08 378.189 1008.84 382.972C1011.6 387.755 1017.71 389.394 1022.5 386.633Z" fill="#B33535"/>
<path d="M567.928 185.593C572.711 182.831 574.35 176.715 571.589 171.932C568.827 167.149 562.711 165.511 557.928 168.272C553.145 171.033 551.507 177.149 554.268 181.932C557.029 186.715 563.145 188.354 567.928 185.593Z" fill="#B33535"/>
<path d="M572.786 272.955C577.569 270.193 579.208 264.077 576.446 259.295C573.685 254.512 567.569 252.873 562.786 255.634C558.003 258.396 556.365 264.512 559.126 269.295C561.887 274.077 568.003 275.716 572.786 272.955Z" fill="#B33535"/>
<path d="M588.448 158.068C593.231 155.306 594.87 149.19 592.108 144.407C589.347 139.625 583.231 137.986 578.448 140.747C573.665 143.509 572.026 149.625 574.788 154.407C577.549 159.19 583.665 160.829 588.448 158.068Z" fill="#B33535"/>
<path d="M623.294 149.897C628.077 147.136 629.716 141.02 626.954 136.237C624.193 131.454 618.077 129.815 613.294 132.577C608.511 135.338 606.872 141.454 609.634 146.237C612.395 151.02 618.511 152.659 623.294 149.897Z" fill="#B33535"/>
<path d="M573.069 120.884C577.852 118.123 579.491 112.007 576.729 107.224C573.968 102.441 567.852 100.802 563.069 103.564C558.286 106.325 556.647 112.441 559.409 117.224C562.17 122.007 568.286 123.646 573.069 120.884Z" fill="#B33535"/>
<path d="M538.714 137.618C543.497 134.857 545.136 128.741 542.374 123.958C539.613 119.175 533.497 117.536 528.714 120.298C523.931 123.059 522.292 129.175 525.054 133.958C527.815 138.741 533.931 140.38 538.714 137.618Z" fill="#B33535"/>
<path d="M85.5514 377.765C90.3343 375.003 91.973 368.887 89.2116 364.104C86.4502 359.322 80.3343 357.683 75.5514 360.444C70.7684 363.206 69.1297 369.322 71.8911 374.104C74.6525 378.887 80.7684 380.526 85.5514 377.765Z" fill="#B33535"/>
<path d="M53.7442 398.354C58.5272 395.593 60.1659 389.477 57.4045 384.694C54.6431 379.911 48.5272 378.273 43.7442 381.034C38.9613 383.795 37.3226 389.911 40.084 394.694C42.8454 399.477 48.9613 401.116 53.7442 398.354Z" fill="#B33535"/>
<path d="M110.701 401.773C115.484 399.012 117.122 392.896 114.361 388.113C111.6 383.33 105.484 381.691 100.701 384.453C95.9179 387.214 94.2791 393.33 97.0405 398.113C99.802 402.896 105.918 404.535 110.701 401.773Z" fill="#B33535"/>
<path d="M52.1578 358.061C56.9407 355.3 58.5795 349.184 55.8181 344.401C53.0566 339.618 46.9407 337.979 42.1578 340.741C37.3749 343.502 35.7361 349.618 38.4976 354.401C41.259 359.184 47.3749 360.823 52.1578 358.061Z" fill="#B33535"/>
<path d="M213.054 341.872C217.837 339.11 219.476 332.995 216.715 328.212C213.953 323.429 207.837 321.79 203.054 324.551C198.271 327.313 196.633 333.429 199.394 338.212C202.155 342.995 208.271 344.633 213.054 341.872Z" fill="#B33535"/>
<path d="M249.373 348.522C254.156 345.761 255.795 339.645 253.033 334.862C250.272 330.079 244.156 328.44 239.373 331.202C234.59 333.963 232.951 340.079 235.713 344.862C238.474 349.645 244.59 351.284 249.373 348.522Z" fill="#B33535"/>
<path d="M148.783 338.72C153.566 335.959 155.205 329.843 152.444 325.06C149.682 320.277 143.566 318.638 138.783 321.4C134 324.161 132.362 330.277 135.123 335.06C137.884 339.843 144 341.482 148.783 338.72Z" fill="#B33535"/>
<path d="M290.959 322.728C295.742 319.966 297.38 313.851 294.619 309.068C291.857 304.285 285.742 302.646 280.959 305.407C276.176 308.169 274.537 314.285 277.298 319.068C280.06 323.851 286.176 325.489 290.959 322.728Z" fill="#B33535"/>
<path d="M808.953 137.532C813.736 134.771 815.375 128.655 812.613 123.872C809.852 119.089 803.736 117.45 798.953 120.211C794.17 122.973 792.532 129.089 795.293 133.872C798.054 138.655 804.17 140.293 808.953 137.532Z" fill="#B33535"/>
<path d="M807.749 101.108C812.532 98.347 814.17 92.2311 811.409 87.4482C808.647 82.6652 802.532 81.0265 797.749 83.7879C792.966 86.5493 791.327 92.6652 794.088 97.4482C796.85 102.231 802.966 103.87 807.749 101.108Z" fill="#B33535"/>
<path d="M832.907 703.432C837.69 700.671 839.329 694.555 836.567 689.772C833.806 684.989 827.69 683.351 822.907 686.112C818.124 688.873 816.485 694.989 819.247 699.772C822.008 704.555 828.124 706.194 832.907 703.432Z" fill="#B33535"/>
<path d="M833.141 738.881C837.924 736.12 839.563 730.004 836.801 725.221C834.04 720.438 827.924 718.799 823.141 721.56C818.358 724.322 816.72 730.438 819.481 735.221C822.242 740.004 828.358 741.642 833.141 738.881Z" fill="#B33535"/>
<path d="M801.93 678.92C806.713 676.158 808.352 670.042 805.591 665.259C802.829 660.476 796.713 658.838 791.93 661.599C787.147 664.361 785.509 670.476 788.27 675.259C791.031 680.042 797.147 681.681 801.93 678.92Z" fill="#B33535"/>
<path d="M821.106 782.472C825.889 779.71 827.528 773.595 824.766 768.812C822.005 764.029 815.889 762.39 811.106 765.151C806.323 767.913 804.684 774.029 807.446 778.812C810.207 783.595 816.323 785.233 821.106 782.472Z" fill="#B33535"/>
<path d="M799.524 752.792C804.306 750.031 805.945 743.915 803.184 739.132C800.422 734.349 794.306 732.71 789.524 735.472C784.741 738.233 783.102 744.349 785.863 749.132C788.625 753.915 794.741 755.554 799.524 752.792Z" fill="#B33535"/>
<path d="M857.937 762.658C862.72 759.897 864.358 753.781 861.597 748.998C858.835 744.215 852.72 742.576 847.937 745.338C843.154 748.099 841.515 754.215 844.276 758.998C847.038 763.781 853.154 765.42 857.937 762.658Z" fill="#B33535"/>
<path d="M801.828 643.435C806.611 640.673 808.25 634.557 805.488 629.774C802.727 624.992 796.611 623.353 791.828 626.114C787.045 628.876 785.407 634.992 788.168 639.774C790.929 644.557 797.045 646.196 801.828 643.435Z" fill="#B33535"/>
<path d="M814.569 606.437C819.352 603.675 820.991 597.56 818.23 592.777C815.468 587.994 809.352 586.355 804.569 589.116C799.787 591.878 798.148 597.994 800.909 602.777C803.671 607.56 809.787 609.198 814.569 606.437Z" fill="#B33535"/>
<path d="M1251.07 665.721C1255.85 662.96 1257.49 656.844 1254.73 652.061C1251.97 647.278 1245.85 645.639 1241.07 648.401C1236.29 651.162 1234.65 657.278 1237.41 662.061C1240.17 666.844 1246.29 668.483 1251.07 665.721Z" fill="#B33535"/>
<path d="M1230.5 765.533C1235.28 762.772 1236.92 756.656 1234.16 751.873C1231.4 747.09 1225.28 745.451 1220.5 748.213C1215.72 750.974 1214.08 757.09 1216.84 761.873C1219.6 766.656 1225.72 768.295 1230.5 765.533Z" fill="#B33535"/>
<path d="M1242.01 732.761C1246.79 730 1248.43 723.884 1245.67 719.101C1242.91 714.318 1236.79 712.679 1232.01 715.441C1227.23 718.202 1225.59 724.318 1228.35 729.101C1231.11 733.884 1237.23 735.523 1242.01 732.761Z" fill="#B33535"/>
<path d="M1279.45 600.641C1284.23 597.879 1285.87 591.763 1283.11 586.98C1280.35 582.198 1274.23 580.559 1269.45 583.32C1264.66 586.082 1263.03 592.198 1265.79 596.98C1268.55 601.763 1274.66 603.402 1279.45 600.641Z" fill="#B33535"/>
<path d="M1256.42 626.904C1261.2 624.143 1262.84 618.027 1260.08 613.244C1257.32 608.461 1251.2 606.823 1246.42 609.584C1241.64 612.345 1240 618.461 1242.76 623.244C1245.52 628.027 1251.64 629.666 1256.42 626.904Z" fill="#B33535"/>
<path d="M1242.71 586.447C1247.49 583.685 1249.13 577.569 1246.37 572.786C1243.61 568.004 1237.49 566.365 1232.71 569.126C1227.93 571.888 1226.29 578.004 1229.05 582.786C1231.81 587.569 1237.93 589.208 1242.71 586.447Z" fill="#B33535"/>
<path d="M1221.97 613.582C1226.76 610.821 1228.4 604.705 1225.63 599.922C1222.87 595.139 1216.76 593.5 1211.97 596.261C1207.19 599.023 1205.55 605.139 1208.31 609.922C1211.08 614.705 1217.19 616.343 1221.97 613.582Z" fill="#B33535"/>
<path d="M699.816 154.261C704.598 151.5 706.237 145.384 703.476 140.601C700.714 135.818 694.598 134.18 689.816 136.941C685.033 139.702 683.394 145.818 686.155 150.601C688.917 155.384 695.033 157.023 699.816 154.261Z" fill="#B33535"/>
<path d="M92.2398 106.893C97.0228 104.131 98.6615 98.0156 95.9001 93.2326C93.1387 88.4497 87.0228 86.8109 82.2398 89.5724C77.4569 92.3338 75.8182 98.4497 78.5796 103.233C81.341 108.016 87.4569 109.654 92.2398 106.893Z" fill="#B33535"/>
<path d="M132.22 105.498C137.003 102.736 138.642 96.6203 135.88 91.8374C133.119 87.0545 127.003 85.4157 122.22 88.1771C117.437 90.9386 115.798 97.0545 118.56 101.837C121.321 106.62 127.437 108.259 132.22 105.498Z" fill="#B33535"/>
<path d="M139.579 65.5827C144.362 62.8212 146.001 56.7053 143.239 51.9224C140.478 47.1395 134.362 45.5007 129.579 48.2622C124.796 51.0236 123.158 57.1395 125.919 61.9224C128.68 66.7053 134.796 68.3441 139.579 65.5827Z" fill="#B33535"/>
<path d="M104.912 73.9249C109.695 71.1635 111.333 65.0476 108.572 60.2647C105.811 55.4818 99.6946 53.843 94.9117 56.6044C90.1288 59.3659 88.49 65.4818 91.2515 70.2647C94.0129 75.0476 100.129 76.6864 104.912 73.9249Z" fill="#B33535"/>
<path d="M128.734 140.136C133.517 137.374 135.156 131.258 132.395 126.475C129.633 121.693 123.517 120.054 118.734 122.815C113.952 125.577 112.313 131.693 115.074 136.475C117.836 141.258 123.952 142.897 128.734 140.136Z" fill="#B33535"/>
<path d="M91.2145 144.718C95.9974 141.957 97.6361 135.841 94.8747 131.058C92.1133 126.275 85.9974 124.637 81.2145 127.398C76.4315 130.159 74.7928 136.275 77.5542 141.058C80.3156 145.841 86.4315 147.48 91.2145 144.718Z" fill="#B33535"/>
<path d="M186.708 60.2339C191.491 57.4725 193.129 51.3566 190.368 46.5736C187.606 41.7907 181.491 40.152 176.708 42.9134C171.925 45.6748 170.286 51.7907 173.047 56.5736C175.809 61.3566 181.925 62.9953 186.708 60.2339Z" fill="#B33535"/>
<path d="M166.877 95.5513C171.66 92.7898 173.299 86.6739 170.537 81.891C167.776 77.1081 161.66 75.4693 156.877 78.2307C152.094 80.9922 150.455 87.1081 153.217 91.891C155.978 96.6739 162.094 98.3127 166.877 95.5513Z" fill="#B33535"/>
<path d="M1216.04 865.785C1220.83 863.024 1222.46 856.908 1219.7 852.125C1216.94 847.342 1210.83 845.703 1206.04 848.465C1201.26 851.226 1199.62 857.342 1202.38 862.125C1205.14 866.908 1211.26 868.547 1216.04 865.785Z" fill="#B33535"/>
<path d="M1158.27 876.801C1163.05 874.04 1164.69 867.924 1161.93 863.141C1159.16 858.358 1153.05 856.72 1148.27 859.481C1143.48 862.242 1141.84 868.358 1144.61 873.141C1147.37 877.924 1153.48 879.563 1158.27 876.801Z" fill="#B33535"/>
<path d="M1199.33 815.396C1204.12 812.634 1205.75 806.518 1202.99 801.735C1200.23 796.953 1194.12 795.314 1189.33 798.075C1184.55 800.837 1182.91 806.953 1185.67 811.735C1188.43 816.518 1194.55 818.157 1199.33 815.396Z" fill="#B33535"/>
<path d="M1183.5 846.688C1188.28 843.926 1189.92 837.81 1187.16 833.028C1184.4 828.245 1178.28 826.606 1173.5 829.367C1168.72 832.129 1167.08 838.245 1169.84 843.028C1172.6 847.81 1178.72 849.449 1183.5 846.688Z" fill="#B33535"/>
<path d="M1190.1 891.73C1194.88 888.969 1196.52 882.853 1193.76 878.07C1191 873.287 1184.88 871.648 1180.1 874.409C1175.31 877.171 1173.68 883.287 1176.44 888.07C1179.2 892.853 1185.31 894.491 1190.1 891.73Z" fill="#B33535"/>
<path d="M1096.28 899.833C1101.07 897.072 1102.71 890.956 1099.94 886.173C1097.18 881.39 1091.07 879.752 1086.28 882.513C1081.5 885.274 1079.86 891.39 1082.62 896.173C1085.38 900.956 1091.5 902.595 1096.28 899.833Z" fill="#B33535"/>
<path d="M1131.64 904.38C1136.42 901.619 1138.06 895.503 1135.3 890.72C1132.54 885.937 1126.42 884.298 1121.64 887.06C1116.86 889.821 1115.22 895.937 1117.98 900.72C1120.74 905.503 1126.86 907.142 1131.64 904.38Z" fill="#B33535"/>
<path d="M1107.82 389.071C1112.61 386.309 1114.24 380.194 1111.48 375.411C1108.72 370.628 1102.61 368.989 1097.82 371.75C1093.04 374.512 1091.4 380.628 1094.16 385.411C1096.92 390.194 1103.04 391.832 1107.82 389.071Z" fill="#B33535"/>
<path d="M1144.27 407.618C1149.05 404.856 1150.69 398.74 1147.93 393.957C1145.16 389.174 1139.05 387.536 1134.27 390.297C1129.48 393.059 1127.84 399.174 1130.6 403.957C1133.37 408.74 1139.48 410.379 1144.27 407.618Z" fill="#B33535"/>
<path d="M1054.46 404.811C1059.24 402.05 1060.88 395.934 1058.12 391.151C1055.36 386.368 1049.24 384.729 1044.46 387.491C1039.68 390.252 1038.04 396.368 1040.8 401.151C1043.56 405.934 1049.68 407.573 1054.46 404.811Z" fill="#B33535"/>
<path d="M1095.43 424.018C1100.21 421.256 1101.85 415.14 1099.09 410.357C1096.32 405.575 1090.21 403.936 1085.43 406.697C1080.64 409.459 1079 415.575 1081.77 420.357C1084.53 425.14 1090.64 426.779 1095.43 424.018Z" fill="#B33535"/>
<path d="M1075.19 377.843C1079.97 375.082 1081.61 368.966 1078.85 364.183C1076.09 359.4 1069.97 357.762 1065.19 360.523C1060.4 363.284 1058.76 369.4 1061.53 374.183C1064.29 378.966 1070.4 380.605 1075.19 377.843Z" fill="#B33535"/>
<path d="M1143.39 370.82C1148.18 368.058 1149.81 361.943 1147.05 357.16C1144.29 352.377 1138.18 350.738 1133.39 353.499C1128.61 356.261 1126.97 362.377 1129.73 367.16C1132.49 371.943 1138.61 373.581 1143.39 370.82Z" fill="#B33535"/>
<path d="M1114.45 349.721C1119.24 346.959 1120.87 340.843 1118.11 336.06C1115.35 331.277 1109.24 329.639 1104.45 332.4C1099.67 335.162 1098.03 341.277 1100.79 346.06C1103.55 350.843 1109.67 352.482 1114.45 349.721Z" fill="#B33535"/>
<path d="M409.996 103.977C414.779 101.216 416.418 95.0996 413.656 90.3167C410.895 85.5338 404.779 83.895 399.996 86.6564C395.213 89.4179 393.575 95.5338 396.336 100.317C399.097 105.1 405.213 106.738 409.996 103.977Z" fill="#B33535"/>
<path d="M470.713 206.739C475.495 203.978 477.134 197.862 474.373 193.079C471.611 188.296 465.495 186.657 460.713 189.419C455.93 192.18 454.291 198.296 457.052 203.079C459.814 207.862 465.93 209.501 470.713 206.739Z" fill="#B33535"/>
<path d="M342.577 80.5156C347.36 77.7542 348.998 71.6383 346.237 66.8554C343.476 62.0724 337.36 60.4337 332.577 63.1951C327.794 65.9566 326.155 72.0724 328.916 76.8554C331.678 81.6383 337.794 83.277 342.577 80.5156Z" fill="#B33535"/>
<path d="M404.39 67.1657C409.173 64.4043 410.812 58.2884 408.05 53.5055C405.289 48.7226 399.173 47.0838 394.39 49.8452C389.607 52.6067 387.969 58.7226 390.73 63.5055C393.491 68.2884 399.607 69.9272 404.39 67.1657Z" fill="#B33535"/>
<path d="M369.6 52.9816C374.383 50.2202 376.022 44.1043 373.26 39.3213C370.499 34.5384 364.383 32.8997 359.6 35.6611C354.817 38.4225 353.179 44.5384 355.94 49.3213C358.701 54.1043 364.817 55.743 369.6 52.9816Z" fill="#B33535"/>
<path d="M459.568 94.3892C464.351 91.6278 465.99 85.5119 463.229 80.7289C460.467 75.946 454.351 74.3073 449.568 77.0687C444.786 79.8301 443.147 85.946 445.908 90.7289C448.67 95.5119 454.786 97.1506 459.568 94.3892Z" fill="#B33535"/>
<path d="M439.464 65.3496C444.247 62.5882 445.886 56.4723 443.124 51.6894C440.363 46.9064 434.247 45.2677 429.464 48.0291C424.681 50.7905 423.042 56.9064 425.804 61.6894C428.565 66.4723 434.681 68.111 439.464 65.3496Z" fill="#B33535"/>
<path d="M995.412 721.121C1000.2 718.36 1001.83 712.244 999.072 707.461C996.311 702.678 990.195 701.04 985.412 703.801C980.629 706.562 978.991 712.678 981.752 717.461C984.513 722.244 990.629 723.883 995.412 721.121Z" fill="#B33535"/>
<path d="M986.421 685.334C991.204 682.572 992.843 676.457 990.082 671.674C987.32 666.891 981.204 665.252 976.421 668.013C971.639 670.775 970 676.891 972.761 681.674C975.523 686.457 981.639 688.095 986.421 685.334Z" fill="#B33535"/>
<path d="M1003.5 650.553C1008.29 647.792 1009.93 641.676 1007.16 636.893C1004.4 632.11 998.287 630.471 993.504 633.233C988.722 635.994 987.083 642.11 989.844 646.893C992.606 651.676 998.722 653.315 1003.5 650.553Z" fill="#B33535"/>
<path d="M274.58 46.8528C279.363 44.0914 281.002 37.9755 278.24 33.1926C275.479 28.4096 269.363 26.7709 264.58 29.5323C259.797 32.2937 258.158 38.4096 260.92 43.1926C263.681 47.9755 269.797 49.6142 274.58 46.8528Z" fill="#B33535"/>
<path d="M345.185 28.0669C349.968 25.3055 351.607 19.1896 348.845 14.4067C346.084 9.62375 339.968 7.985 335.185 10.7464C330.402 13.5078 328.763 19.6237 331.525 24.4067C334.286 29.1896 340.402 30.8284 345.185 28.0669Z" fill="#B33535"/>
<path d="M309.337 22.0346C314.12 19.2731 315.759 13.1572 312.998 8.3743C310.236 3.59137 304.12 1.95262 299.337 4.71404C294.555 7.47547 292.916 13.5914 295.677 18.3743C298.439 23.1572 304.555 24.796 309.337 22.0346Z" fill="#B33535"/>
<path d="M307.293 63.4293C312.076 60.6679 313.714 54.552 310.953 49.769C308.191 44.9861 302.076 43.3474 297.293 46.1088C292.51 48.8702 290.871 54.9861 293.632 59.769C296.394 64.552 302.51 66.1907 307.293 63.4293Z" fill="#B33535"/>
<path d="M1163.41 490.217C1168.19 487.456 1169.83 481.34 1167.07 476.557C1164.31 471.774 1158.19 470.136 1153.41 472.897C1148.63 475.658 1146.99 481.774 1149.75 486.557C1152.51 491.34 1158.63 492.979 1163.41 490.217Z" fill="#B33535"/>
<path d="M1127.97 444.537C1132.75 441.776 1134.39 435.66 1131.63 430.877C1128.86 426.094 1122.75 424.455 1117.97 427.217C1113.18 429.978 1111.54 436.094 1114.31 440.877C1117.07 445.66 1123.18 447.299 1127.97 444.537Z" fill="#B33535"/>
<path d="M663.585 414.539C668.367 411.777 670.006 405.662 667.245 400.879C664.483 396.096 658.367 394.457 653.585 397.218C648.802 399.98 647.163 406.096 649.924 410.879C652.686 415.662 658.802 417.3 663.585 414.539Z" fill="#B33535"/>
<path d="M637.8 392.18C642.583 389.419 644.222 383.303 641.461 378.52C638.699 373.737 632.583 372.098 627.8 374.859C623.017 377.621 621.379 383.737 624.14 388.52C626.902 393.303 633.017 394.941 637.8 392.18Z" fill="#B33535"/>
<path d="M667.006 448.669C671.789 445.907 673.428 439.791 670.666 435.009C667.905 430.226 661.789 428.587 657.006 431.348C652.223 434.11 650.584 440.226 653.346 445.009C656.107 449.791 662.223 451.43 667.006 448.669Z" fill="#B33535"/>
<path d="M678.44 376.508C683.222 373.746 684.861 367.631 682.1 362.848C679.338 358.065 673.222 356.426 668.44 359.187C663.657 361.949 662.018 368.065 664.779 372.848C667.541 377.631 673.657 379.269 678.44 376.508Z" fill="#B33535"/>
<path d="M632.201 432.056C636.984 429.295 638.623 423.179 635.862 418.396C633.1 413.613 626.984 411.974 622.201 414.736C617.418 417.497 615.78 423.613 618.541 428.396C621.302 433.179 627.418 434.817 632.201 432.056Z" fill="#B33535"/>
<path d="M578.573 308.608C583.356 305.847 584.995 299.731 582.234 294.948C579.472 290.165 573.356 288.526 568.573 291.288C563.79 294.049 562.152 300.165 564.913 304.948C567.675 309.731 573.79 311.37 578.573 308.608Z" fill="#B33535"/>
<path d="M599.583 370.358C604.366 367.597 606.005 361.481 603.243 356.698C600.482 351.915 594.366 350.276 589.583 353.038C584.8 355.799 583.161 361.915 585.923 366.698C588.684 371.481 594.8 373.12 599.583 370.358Z" fill="#B33535"/>
<path d="M636.646 357.597C641.429 354.835 643.067 348.719 640.306 343.937C637.544 339.154 631.429 337.515 626.646 340.276C621.863 343.038 620.224 349.154 622.985 353.937C625.747 358.719 631.863 360.358 636.646 357.597Z" fill="#B33535"/>
<path d="M605.401 408.56C610.184 405.798 611.823 399.682 609.061 394.899C606.3 390.116 600.184 388.478 595.401 391.239C590.618 394 588.979 400.116 591.741 404.899C594.502 409.682 600.618 411.321 605.401 408.56Z" fill="#B33535"/>
<path d="M155.834 34.4247C160.617 31.6633 162.256 25.5474 159.494 20.7645C156.733 15.9815 150.617 14.3428 145.834 17.1042C141.051 19.8656 139.412 25.9815 142.174 30.7645C144.935 35.5474 151.051 37.1861 155.834 34.4247Z" fill="#B33535"/>
<path d="M788.118 395.966C792.901 393.205 794.539 387.089 791.778 382.306C789.017 377.523 782.901 375.884 778.118 378.645C773.335 381.407 771.696 387.523 774.458 392.306C777.219 397.089 783.335 398.727 788.118 395.966Z" fill="#B33535"/>
<path d="M838.899 417.934C843.681 415.173 845.32 409.057 842.559 404.274C839.797 399.491 833.681 397.852 828.899 400.614C824.116 403.375 822.477 409.491 825.238 414.274C828 419.057 834.116 420.696 838.899 417.934Z" fill="#B33535"/>
<path d="M777.41 462.228C782.193 459.467 783.832 453.351 781.071 448.568C778.309 443.785 772.193 442.146 767.41 444.908C762.627 447.669 760.989 453.785 763.75 458.568C766.511 463.351 772.627 464.99 777.41 462.228Z" fill="#B33535"/>
<path d="M849.301 341.684C854.084 338.922 855.723 332.807 852.961 328.024C850.2 323.241 844.084 321.602 839.301 324.363C834.518 327.125 832.879 333.241 835.641 338.024C838.402 342.807 844.518 344.445 849.301 341.684Z" fill="#B33535"/>
<path d="M738.04 416.155C742.823 413.393 744.461 407.278 741.7 402.495C738.938 397.712 732.823 396.073 728.04 398.834C723.257 401.596 721.618 407.712 724.379 412.495C727.141 417.278 733.257 418.916 738.04 416.155Z" fill="#B33535"/>
<path d="M656.233 326.142C661.016 323.381 662.655 317.265 659.893 312.482C657.132 307.699 651.016 306.06 646.233 308.822C641.45 311.583 639.811 317.699 642.573 322.482C645.334 327.265 651.45 328.904 656.233 326.142Z" fill="#B33535"/>
<path d="M725.309 505.416C730.092 502.654 731.731 496.538 728.969 491.755C726.208 486.973 720.092 485.334 715.309 488.095C710.526 490.857 708.888 496.973 711.649 501.755C714.41 506.538 720.526 508.177 725.309 505.416Z" fill="#B33535"/>
<path d="M1054.89 967.682C1059.68 964.921 1061.32 958.805 1058.55 954.022C1055.79 949.239 1049.68 947.6 1044.89 950.361C1040.11 953.123 1038.47 959.239 1041.23 964.022C1043.99 968.805 1050.11 970.443 1054.89 967.682Z" fill="#B33535"/>
<path d="M1059.9 1010.97C1064.68 1008.21 1066.32 1002.09 1063.56 997.306C1060.8 992.524 1054.68 990.885 1049.9 993.646C1045.12 996.408 1043.48 1002.52 1046.24 1007.31C1049 1012.09 1055.12 1013.73 1059.9 1010.97Z" fill="#B33535"/>
<path d="M1019.25 973.912C1024.03 971.15 1025.67 965.034 1022.91 960.251C1020.15 955.468 1014.03 953.83 1009.25 956.591C1004.47 959.353 1002.83 965.468 1005.59 970.251C1008.35 975.034 1014.47 976.673 1019.25 973.912Z" fill="#B33535"/>
<path d="M1023.31 1010.23C1028.09 1007.47 1029.73 1001.36 1026.97 996.572C1024.21 991.789 1018.09 990.151 1013.31 992.912C1008.52 995.673 1006.88 1001.79 1009.65 1006.57C1012.41 1011.36 1018.52 1012.99 1023.31 1010.23Z" fill="#B33535"/>
<path d="M1089.47 982.362C1094.26 979.6 1095.9 973.485 1093.13 968.702C1090.37 963.919 1084.26 962.28 1079.47 965.041C1074.69 967.803 1073.05 973.919 1075.81 978.702C1078.58 983.485 1084.69 985.123 1089.47 982.362Z" fill="#B33535"/>
<path d="M1209.09 523.818C1213.88 521.056 1215.52 514.941 1212.75 510.158C1209.99 505.375 1203.88 503.736 1199.09 506.497C1194.31 509.259 1192.67 515.375 1195.43 520.158C1198.2 524.941 1204.31 526.579 1209.09 523.818Z" fill="#B33535"/>
<path d="M1219.06 559.48C1223.84 556.719 1225.48 550.603 1222.72 545.82C1219.96 541.037 1213.84 539.399 1209.06 542.16C1204.28 544.921 1202.64 551.037 1205.4 555.82C1208.16 560.603 1214.28 562.242 1219.06 559.48Z" fill="#B33535"/>
<path d="M173.233 369.71C178.016 366.948 179.655 360.832 176.894 356.049C174.132 351.266 168.016 349.628 163.233 352.389C158.451 355.15 156.812 361.266 159.573 366.049C162.335 370.832 168.451 372.471 173.233 369.71Z" fill="#B33535"/>
<path d="M324.556 313.771C329.339 311.009 330.977 304.893 328.216 300.11C325.455 295.327 319.339 293.689 314.556 296.45C309.773 299.212 308.134 305.327 310.896 310.11C313.657 314.893 319.773 316.532 324.556 313.771Z" fill="#B33535"/>
<path d="M772.65 201.008C777.433 198.247 779.072 192.131 776.311 187.348C773.549 182.565 767.433 180.926 762.65 183.688C757.868 186.449 756.229 192.565 758.99 197.348C761.752 202.131 767.868 203.77 772.65 201.008Z" fill="#B33535"/>
<path d="M776.727 125.841C781.51 123.08 783.149 116.964 780.387 112.181C777.626 107.398 771.51 105.759 766.727 108.521C761.944 111.282 760.305 117.398 763.067 122.181C765.828 126.964 771.944 128.602 776.727 125.841Z" fill="#B33535"/>
<path d="M768.287 162.159C773.07 159.397 774.708 153.281 771.947 148.498C769.186 143.715 763.07 142.077 758.287 144.838C753.504 147.6 751.865 153.715 754.626 158.498C757.388 163.281 763.504 164.92 768.287 162.159Z" fill="#B33535"/>
<path d="M732.796 175.313C737.579 172.552 739.218 166.436 736.457 161.653C733.695 156.87 727.579 155.231 722.796 157.993C718.014 160.754 716.375 166.87 719.136 171.653C721.898 176.436 728.014 178.075 732.796 175.313Z" fill="#B33535"/>
<path d="M58.4771 157.39C63.2601 154.629 64.8988 148.513 62.1374 143.73C59.376 138.947 53.2601 137.308 48.4771 140.069C43.6942 142.831 42.0555 148.947 44.8169 153.73C47.5783 158.513 53.6942 160.151 58.4771 157.39Z" fill="#B33535"/>
<path d="M75.6705 187.739C80.4534 184.977 82.0922 178.861 79.3308 174.078C76.5693 169.296 70.4534 167.657 65.6705 170.418C60.8876 173.18 59.2488 179.296 62.0103 184.078C64.7717 188.861 70.8876 190.5 75.6705 187.739Z" fill="#B33535"/>
<path d="M42.7228 211.537C47.5057 208.776 49.1444 202.66 46.383 197.877C43.6216 193.094 37.5057 191.456 32.7228 194.217C27.9398 196.978 26.3011 203.094 29.0625 207.877C31.8239 212.66 37.9398 214.299 42.7228 211.537Z" fill="#B33535"/>
<path d="M120.148 362.223C124.931 359.461 126.569 353.345 123.808 348.562C121.046 343.779 114.931 342.141 110.148 344.902C105.365 347.664 103.726 353.779 106.487 358.562C109.249 363.345 115.365 364.984 120.148 362.223Z" fill="#B33535"/>
<path d="M143.654 392.1C148.437 389.339 150.076 383.223 147.314 378.44C144.553 373.657 138.437 372.018 133.654 374.78C128.871 377.541 127.232 383.657 129.994 388.44C132.755 393.223 138.871 394.862 143.654 392.1Z" fill="#B33535"/>
<path d="M518.395 280.653C523.178 277.892 524.817 271.776 522.055 266.993C519.294 262.21 513.178 260.572 508.395 263.333C503.612 266.094 501.973 272.21 504.735 276.993C507.496 281.776 513.612 283.415 518.395 280.653Z" fill="#B33535"/>
<path d="M545.078 252.616C549.861 249.854 551.5 243.738 548.738 238.955C545.977 234.172 539.861 232.534 535.078 235.295C530.295 238.056 528.657 244.172 531.418 248.955C534.179 253.738 540.295 255.377 545.078 252.616Z" fill="#B33535"/>
<path d="M516.951 228.477C521.734 225.715 523.372 219.6 520.611 214.817C517.85 210.034 511.734 208.395 506.951 211.156C502.168 213.918 500.529 220.034 503.291 224.817C506.052 229.6 512.168 231.238 516.951 228.477Z" fill="#B33535"/>
<path d="M607.698 334.312C612.481 331.55 614.12 325.434 611.358 320.652C608.597 315.869 602.481 314.23 597.698 316.991C592.915 319.753 591.276 325.869 594.038 330.652C596.799 335.434 602.915 337.073 607.698 334.312Z" fill="#B33535"/>
<path d="M18.1666 352.945C22.9495 350.183 24.5883 344.067 21.8269 339.284C19.0654 334.501 12.9495 332.863 8.1666 335.624C3.38368 338.386 1.74492 344.501 4.50635 349.284C7.26777 354.067 13.3837 355.706 18.1666 352.945Z" fill="#B33535"/>
<path d="M1236.01 807.105C1240.8 804.344 1242.44 798.228 1239.67 793.445C1236.91 788.662 1230.8 787.023 1226.01 789.785C1221.23 792.546 1219.59 798.662 1222.35 803.445C1225.12 808.228 1231.23 809.867 1236.01 807.105Z" fill="#B33535"/>
<path d="M1268.21 829.658C1272.99 826.896 1274.63 820.781 1271.87 815.998C1269.11 811.215 1262.99 809.576 1258.21 812.337C1253.43 815.099 1251.79 821.215 1254.55 825.998C1257.31 830.781 1263.43 832.419 1268.21 829.658Z" fill="#B33535"/>
<path d="M1252.7 862.153C1257.48 859.392 1259.12 853.276 1256.36 848.493C1253.6 843.71 1247.48 842.071 1242.7 844.833C1237.92 847.594 1236.28 853.71 1239.04 858.493C1241.8 863.276 1247.92 864.915 1252.7 862.153Z" fill="#B33535"/>
<path d="M410.431 294.061C415.214 291.299 416.852 285.183 414.091 280.4C411.33 275.618 405.214 273.979 400.431 276.74C395.648 279.502 394.009 285.618 396.771 290.4C399.532 295.183 405.648 296.822 410.431 294.061Z" fill="#B33535"/>
<path d="M381.621 264.386C386.404 261.625 388.043 255.509 385.281 250.726C382.52 245.943 376.404 244.304 371.621 247.066C366.838 249.827 365.2 255.943 367.961 260.726C370.722 265.509 376.838 267.148 381.621 264.386Z" fill="#B33535"/>
<path d="M367.659 296.426C372.442 293.665 374.08 287.549 371.319 282.766C368.558 277.983 362.442 276.344 357.659 279.106C352.876 281.867 351.237 287.983 353.999 292.766C356.76 297.549 362.876 299.188 367.659 296.426Z" fill="#B33535"/>
<path d="M414.14 252.836C418.923 250.075 420.561 243.959 417.8 239.176C415.039 234.393 408.923 232.755 404.14 235.516C399.357 238.277 397.718 244.393 400.479 249.176C403.241 253.959 409.357 255.598 414.14 252.836Z" fill="#B33535"/>
<path d="M528.613 97.8507C533.396 95.0893 535.035 88.9734 532.273 84.1905C529.512 79.4075 523.396 77.7688 518.613 80.5302C513.83 83.2916 512.191 89.4075 514.953 94.1905C517.714 98.9734 523.83 100.612 528.613 97.8507Z" fill="#B33535"/>
<path d="M503.719 147.161C508.502 144.399 510.141 138.284 507.38 133.501C504.618 128.718 498.502 127.079 493.719 129.84C488.936 132.602 487.298 138.718 490.059 143.501C492.821 148.284 498.936 149.922 503.719 147.161Z" fill="#B33535"/>
<path d="M771.33 562.008C776.113 559.247 777.752 553.131 774.99 548.348C772.229 543.565 766.113 541.927 761.33 544.688C756.547 547.449 754.908 553.565 757.67 558.348C760.431 563.131 766.547 564.77 771.33 562.008Z" fill="#B33535"/>
<path d="M761.111 512.97C765.894 510.208 767.533 504.092 764.772 499.309C762.01 494.526 755.894 492.888 751.111 495.649C746.328 498.411 744.69 504.526 747.451 509.309C750.213 514.092 756.328 515.731 761.111 512.97Z" fill="#B33535"/>
<path d="M1266.69 786.076C1271.48 783.314 1273.12 777.198 1270.35 772.416C1267.59 767.633 1261.48 765.994 1256.69 768.755C1251.91 771.517 1250.27 777.633 1253.03 782.416C1255.8 787.198 1261.91 788.837 1266.69 786.076Z" fill="#B33535"/>
<path d="M773.907 728.486C778.69 725.725 780.329 719.609 777.568 714.826C774.806 710.043 768.69 708.404 763.907 711.166C759.124 713.927 757.486 720.043 760.247 724.826C763.008 729.609 769.124 731.247 773.907 728.486Z" fill="#B33535"/>
<path d="M764.365 691.709C769.148 688.947 770.787 682.831 768.026 678.048C765.264 673.265 759.148 671.627 754.365 674.388C749.582 677.15 747.944 683.265 750.705 688.048C753.467 692.831 759.582 694.47 764.365 691.709Z" fill="#B33535"/>
<path d="M767.864 655.81C772.647 653.049 774.286 646.933 771.524 642.15C768.763 637.367 762.647 635.729 757.864 638.49C753.081 641.251 751.442 647.367 754.204 652.15C756.965 656.933 763.081 658.572 767.864 655.81Z" fill="#B33535"/>
<path d="M1068.47 340.715C1073.25 337.954 1074.89 331.838 1072.13 327.055C1069.37 322.272 1063.25 320.633 1058.47 323.395C1053.69 326.156 1052.05 332.272 1054.81 337.055C1057.57 341.838 1063.69 343.477 1068.47 340.715Z" fill="#B33535"/>
<path d="M241.088 54.2839C245.871 51.5225 247.51 45.4066 244.748 40.6236C241.987 35.8407 235.871 34.202 231.088 36.9634C226.305 39.7248 224.666 45.8407 227.428 50.6236C230.189 55.4066 236.305 57.0453 241.088 54.2839Z" fill="#B33535"/>
<path d="M1357.96 508.148C1362.74 505.387 1364.38 499.271 1361.62 494.488C1358.86 489.705 1352.74 488.066 1347.96 490.828C1343.18 493.589 1341.54 499.705 1344.3 504.488C1347.06 509.271 1353.18 510.91 1357.96 508.148Z" fill="#B33535"/>
<path d="M1326.97 478.698C1331.75 475.937 1333.39 469.821 1330.63 465.038C1327.87 460.255 1321.75 458.616 1316.97 461.378C1312.18 464.139 1310.55 470.255 1313.31 475.038C1316.07 479.821 1322.18 481.46 1326.97 478.698Z" fill="#B33535"/>
<path d="M1320.44 514.522C1325.22 511.761 1326.86 505.645 1324.1 500.862C1321.34 496.079 1315.22 494.44 1310.44 497.202C1305.66 499.963 1304.02 506.079 1306.78 510.862C1309.54 515.645 1315.66 517.284 1320.44 514.522Z" fill="#B33535"/>
<path d="M701.933 406.116C706.716 403.355 708.354 397.239 705.593 392.456C702.832 387.673 696.716 386.034 691.933 388.796C687.15 391.557 685.511 397.673 688.272 402.456C691.034 407.239 697.15 408.878 701.933 406.116Z" fill="#B33535"/>
<path d="M1112.38 281.699C1117.16 278.938 1118.8 272.822 1116.04 268.039C1113.28 263.256 1107.16 261.617 1102.38 264.379C1097.6 267.14 1095.96 273.256 1098.72 278.039C1101.48 282.822 1107.6 284.461 1112.38 281.699Z" fill="#B33535"/>
<path d="M1095.21 316.744C1100 313.982 1101.63 307.866 1098.87 303.083C1096.11 298.301 1090 296.662 1085.21 299.423C1080.43 302.185 1078.79 308.301 1081.55 313.083C1084.31 317.866 1090.43 319.505 1095.21 316.744Z" fill="#B33535"/>
<path d="M1149.79 287.63C1154.57 284.868 1156.21 278.752 1153.45 273.969C1150.69 269.187 1144.57 267.548 1139.79 270.309C1135 273.071 1133.36 279.187 1136.13 283.969C1138.89 288.752 1145 290.391 1149.79 287.63Z" fill="#B33535"/>
<path d="M1174.4 446.732C1179.18 443.97 1180.82 437.854 1178.06 433.071C1175.3 428.288 1169.18 426.65 1164.4 429.411C1159.62 432.172 1157.98 438.288 1160.74 443.071C1163.5 447.854 1169.62 449.493 1174.4 446.732Z" fill="#B33535"/>
<path d="M1181.08 410.552C1185.87 407.79 1187.51 401.675 1184.74 396.892C1181.98 392.109 1175.87 390.47 1171.08 393.231C1166.3 395.993 1164.66 402.109 1167.42 406.892C1170.19 411.675 1176.3 413.313 1181.08 410.552Z" fill="#B33535"/>
<path d="M1022.65 465C1027.43 462.238 1029.07 456.122 1026.31 451.339C1023.54 446.557 1017.43 444.918 1012.65 447.679C1007.86 450.441 1006.22 456.557 1008.98 461.339C1011.75 466.122 1017.86 467.761 1022.65 465Z" fill="#B33535"/>
<path d="M1003.28 420.095C1008.07 417.333 1009.71 411.218 1006.95 406.435C1004.18 401.652 998.068 400.013 993.285 402.774C988.502 405.536 986.863 411.652 989.625 416.435C992.386 421.218 998.502 422.856 1003.28 420.095Z" fill="#B33535"/>
<path d="M492.868 109.183C497.651 106.422 499.289 100.306 496.528 95.523C493.767 90.74 487.651 89.1013 482.868 91.8627C478.085 94.6241 476.446 100.74 479.208 105.523C481.969 110.306 488.085 111.945 492.868 109.183Z" fill="#B33535"/>
<path d="M1178.05 337.908C1182.83 335.146 1184.47 329.03 1181.71 324.247C1178.94 319.464 1172.83 317.826 1168.05 320.587C1163.26 323.348 1161.62 329.464 1164.39 334.247C1167.15 339.03 1173.26 340.669 1178.05 337.908Z" fill="#B33535"/>
<path d="M1178.21 373.9C1182.99 371.138 1184.63 365.023 1181.87 360.24C1179.11 355.457 1172.99 353.818 1168.21 356.579C1163.42 359.341 1161.79 365.457 1164.55 370.24C1167.31 375.023 1173.42 376.661 1178.21 373.9Z" fill="#B33535"/>
<path d="M1184.09 299.313C1188.87 296.552 1190.51 290.436 1187.75 285.653C1184.98 280.87 1178.87 279.231 1174.09 281.993C1169.3 284.754 1167.66 290.87 1170.43 295.653C1173.19 300.436 1179.3 302.074 1184.09 299.313Z" fill="#B33535"/>
<path d="M1144.05 322.618C1148.83 319.857 1150.47 313.741 1147.71 308.958C1144.95 304.175 1138.83 302.537 1134.05 305.298C1129.26 308.059 1127.62 314.175 1130.39 318.958C1133.15 323.741 1139.26 325.38 1144.05 322.618Z" fill="#B33535"/>
<path d="M441.864 276.3C446.647 273.539 448.286 267.423 445.524 262.64C442.763 257.857 436.647 256.218 431.864 258.98C427.081 261.741 425.442 267.857 428.204 272.64C430.965 277.423 437.081 279.061 441.864 276.3Z" fill="#B33535"/>
<path d="M462.585 248.48C467.368 245.719 469.007 239.603 466.245 234.82C463.484 230.037 457.368 228.398 452.585 231.16C447.802 233.921 446.163 240.037 448.925 244.82C451.686 249.603 457.802 251.242 462.585 248.48Z" fill="#B33535"/>
<path d="M432.08 222.115C436.863 219.354 438.502 213.238 435.74 208.455C432.979 203.672 426.863 202.033 422.08 204.794C417.297 207.556 415.658 213.672 418.42 218.455C421.181 223.238 427.297 224.876 432.08 222.115Z" fill="#B33535"/>
<path d="M1271.14 560.901C1275.92 558.139 1277.56 552.023 1274.8 547.24C1272.03 542.457 1265.92 540.819 1261.14 543.58C1256.35 546.342 1254.71 552.457 1257.48 557.24C1260.24 562.023 1266.35 563.662 1271.14 560.901Z" fill="#B33535"/>
<path d="M1307.51 550.648C1312.3 547.887 1313.94 541.771 1311.17 536.988C1308.41 532.205 1302.3 530.566 1297.51 533.328C1292.73 536.089 1291.09 542.205 1293.85 546.988C1296.61 551.771 1302.73 553.41 1307.51 550.648Z" fill="#B33535"/>
<path d="M1245.87 529.978C1250.66 527.217 1252.29 521.101 1249.53 516.318C1246.77 511.535 1240.66 509.896 1235.87 512.657C1231.09 515.419 1229.45 521.535 1232.21 526.318C1234.97 531.101 1241.09 532.739 1245.87 529.978Z" fill="#B33535"/>
<path d="M1283.09 520.096C1287.87 517.334 1289.51 511.219 1286.75 506.436C1283.99 501.653 1277.87 500.014 1273.09 502.775C1268.3 505.537 1266.66 511.653 1269.43 516.436C1272.19 521.219 1278.3 522.857 1283.09 520.096Z" fill="#B33535"/>
<path d="M1214.18 383.188C1218.96 380.426 1220.6 374.311 1217.84 369.528C1215.08 364.745 1208.96 363.106 1204.18 365.867C1199.39 368.629 1197.76 374.745 1200.52 379.528C1203.28 384.311 1209.39 385.949 1214.18 383.188Z" fill="#B33535"/>
<path d="M1212.51 343.458C1217.3 340.697 1218.93 334.581 1216.17 329.798C1213.41 325.015 1207.3 323.376 1202.51 326.138C1197.73 328.899 1196.09 335.015 1198.85 339.798C1201.61 344.581 1207.73 346.22 1212.51 343.458Z" fill="#B33535"/>
<path d="M1031.15 926.839C1035.93 924.077 1037.57 917.961 1034.81 913.179C1032.05 908.396 1025.93 906.757 1021.15 909.518C1016.37 912.28 1014.73 918.396 1017.49 923.179C1020.25 927.961 1026.37 929.6 1031.15 926.839Z" fill="#B33535"/>
<path d="M867.467 833.106C872.25 830.345 873.889 824.229 871.128 819.446C868.366 814.663 862.25 813.024 857.467 815.785C852.684 818.547 851.046 824.663 853.807 829.446C856.569 834.229 862.684 835.867 867.467 833.106Z" fill="#B33535"/>
<path d="M852.492 800.143C857.275 797.382 858.913 791.266 856.152 786.483C853.391 781.7 847.275 780.061 842.492 782.823C837.709 785.584 836.07 791.7 838.832 796.483C841.593 801.266 847.709 802.905 852.492 800.143Z" fill="#B33535"/>
<path d="M772.523 611.585C777.306 608.824 778.945 602.708 776.183 597.925C773.422 593.142 767.306 591.503 762.523 594.265C757.74 597.026 756.101 603.142 758.863 607.925C761.624 612.708 767.74 614.347 772.523 611.585Z" fill="#B33535"/>
<path d="M1106.43 938.566C1111.22 935.805 1112.85 929.689 1110.09 924.906C1107.33 920.123 1101.22 918.484 1096.43 921.246C1091.65 924.007 1090.01 930.123 1092.77 934.906C1095.53 939.689 1101.65 941.328 1106.43 938.566Z" fill="#B33535"/>
<path d="M1057.56 899.939C1062.35 897.178 1063.99 891.062 1061.22 886.279C1058.46 881.496 1052.35 879.857 1047.56 882.619C1042.78 885.38 1041.14 891.496 1043.9 896.279C1046.67 901.062 1052.78 902.701 1057.56 899.939Z" fill="#B33535"/>
<path d="M1071.32 934.73C1076.1 931.968 1077.74 925.852 1074.98 921.069C1072.22 916.286 1066.1 914.648 1061.32 917.409C1056.54 920.171 1054.9 926.286 1057.66 931.069C1060.42 935.852 1066.54 937.491 1071.32 934.73Z" fill="#B33535"/>
<path d="M900.875 817.04C905.658 814.279 907.296 808.163 904.535 803.38C901.773 798.597 895.658 796.959 890.875 799.72C886.092 802.481 884.453 808.597 887.214 813.38C889.976 818.163 896.092 819.802 900.875 817.04Z" fill="#B33535"/>
<path d="M935.951 888.738C940.734 885.977 942.372 879.861 939.611 875.078C936.85 870.295 930.734 868.656 925.951 871.418C921.168 874.179 919.529 880.295 922.291 885.078C925.052 889.861 931.168 891.499 935.951 888.738Z" fill="#B33535"/>
<path d="M908.747 861.957C913.53 859.195 915.169 853.079 912.407 848.296C909.646 843.513 903.53 841.875 898.747 844.636C893.964 847.398 892.325 853.513 895.087 858.296C897.848 863.079 903.964 864.718 908.747 861.957Z" fill="#B33535"/>
<path d="M960.819 859.406C965.602 856.644 967.241 850.528 964.48 845.745C961.718 840.962 955.602 839.324 950.819 842.085C946.037 844.847 944.398 850.962 947.159 855.745C949.921 860.528 956.037 862.167 960.819 859.406Z" fill="#B33535"/>
<path d="M938.867 829.169C943.65 826.407 945.288 820.291 942.527 815.508C939.766 810.725 933.65 809.087 928.867 811.848C924.084 814.61 922.445 820.725 925.207 825.508C927.968 830.291 934.084 831.93 938.867 829.169Z" fill="#B33535"/>
<path d="M992.212 840.463C996.995 837.701 998.634 831.586 995.873 826.803C993.111 822.02 986.995 820.381 982.212 823.142C977.43 825.904 975.791 832.02 978.552 836.803C981.314 841.586 987.43 843.224 992.212 840.463Z" fill="#B33535"/>
<path d="M983.969 756.476C988.752 753.715 990.391 747.599 987.63 742.816C984.868 738.033 978.752 736.394 973.969 739.156C969.186 741.917 967.548 748.033 970.309 752.816C973.071 757.599 979.186 759.238 983.969 756.476Z" fill="#B33535"/>
<path d="M867.926 448.383C872.709 445.622 874.348 439.506 871.586 434.723C868.825 429.94 862.709 428.302 857.926 431.063C853.143 433.824 851.504 439.94 854.266 444.723C857.027 449.506 863.143 451.145 867.926 448.383Z" fill="#B33535"/>
<path d="M871.752 375.947C876.535 373.186 878.174 367.07 875.412 362.287C872.651 357.504 866.535 355.865 861.752 358.627C856.969 361.388 855.33 367.504 858.092 372.287C860.853 377.07 866.969 378.709 871.752 375.947Z" fill="#B33535"/>
<path d="M1008.86 570.885C1013.65 568.123 1015.29 562.007 1012.52 557.224C1009.76 552.441 1003.65 550.803 998.864 553.564C994.081 556.326 992.443 562.441 995.204 567.224C997.966 572.007 1004.08 573.646 1008.86 570.885Z" fill="#B33535"/>
</g>
<defs>
<clipPath id="clip0">
<rect x="-2681" y="-1" width="4048" height="2428" fill="white"/>
</clipPath>
</defs>
</svg>
