<svg width="1315" height="735" viewBox="0 0 1315 735" fill="none" xmlns="http://www.w3.org/2000/svg">
<g clip-path="url(#clip0)">
<path d="M1155.21 483.47L1038.59 502.513" stroke="#747474" stroke-width="1.5"/>
<path d="M1155.21 483.469L1080.76 403.741" stroke="#747474" stroke-width="1.5"/>
<path d="M1155.21 483.469L1191.14 593.785" stroke="#747474" stroke-width="1.5"/>
<path d="M1155.21 483.469L1077.11 613.789" stroke="#747474" stroke-width="1.5"/>
<path d="M1038.59 502.512L1080.76 403.741" stroke="#747474" stroke-width="1.5"/>
<path d="M1038.59 502.513L954.529 433.832" stroke="#747474" stroke-width="1.5"/>
<path d="M1038.59 502.513L1077.11 613.789" stroke="#747474" stroke-width="1.5"/>
<path d="M1080.76 403.742L954.529 433.832" stroke="#747474" stroke-width="1.5"/>
<path d="M954.529 433.832L996.079 334.831" stroke="#747474" stroke-width="1.5"/>
<path d="M902.348 261.544L798.009 273.008" stroke="#747474" stroke-width="1.5"/>
<path d="M902.348 261.544L996.079 334.831" stroke="#747474" stroke-width="1.5"/>
<path d="M902.348 261.544L1003.2 217.744" stroke="#747474" stroke-width="1.5"/>
<path d="M902.348 261.544L872.585 372.311" stroke="#747474" stroke-width="1.5"/>
<path d="M797.196 153.581L707.344 100.434" stroke="#747474" stroke-width="1.5"/>
<path d="M797.196 153.581L691.182 252.508" stroke="#747474" stroke-width="1.5"/>
<path d="M797.196 153.581L798.01 273.008" stroke="#747474" stroke-width="1.5"/>
<path d="M707.344 100.434L691.182 252.508" stroke="#747474" stroke-width="1.5"/>
<path d="M707.344 100.434L626.615 172.449" stroke="#747474" stroke-width="1.5"/>
<path d="M524.931 123.817L442.741 201.843" stroke="#747474" stroke-width="1.5"/>
<path d="M524.931 123.817L605.476 56.7305" stroke="#747474" stroke-width="1.5"/>
<path d="M524.931 123.817L548.077 252.621" stroke="#747474" stroke-width="1.5"/>
<path d="M442.741 201.843L413.278 81.0263" stroke="#747474" stroke-width="1.5"/>
<path d="M442.741 201.843L338.479 196.161" stroke="#747474" stroke-width="1.5"/>
<path d="M297.649 69.8988L232.419 162.172" stroke="#747474" stroke-width="1.5"/>
<path d="M297.649 69.8988L413.278 81.0263" stroke="#747474" stroke-width="1.5"/>
<path d="M297.649 69.8988L338.478 196.161" stroke="#747474" stroke-width="1.5"/>
<path d="M232.419 162.172L147.514 16.4372" stroke="#747474" stroke-width="1.5"/>
<path d="M232.419 162.172L157.272 251.774" stroke="#747474" stroke-width="1.5"/>
<path d="M232.419 162.172L132.452 137.31" stroke="#747474" stroke-width="1.5"/>
<path d="M232.419 162.172L338.479 196.161" stroke="#747474" stroke-width="1.5"/>
<path d="M147.514 16.4372L157.272 251.774" stroke="#747474" stroke-width="1.5"/>
<path d="M147.514 16.4372L16.0482 151.37" stroke="#747474" stroke-width="1.5"/>
<path d="M147.514 16.4372L132.452 137.31" stroke="#747474" stroke-width="1.5"/>
<path d="M157.272 251.774L16.0483 151.37" stroke="#747474" stroke-width="1.5"/>
<path d="M157.272 251.774L132.452 137.31" stroke="#747474" stroke-width="1.5"/>
<path d="M16.0483 151.37L132.452 137.31" stroke="#747474" stroke-width="1.5"/>
<path d="M691.182 252.508L798.01 273.008" stroke="#747474" stroke-width="1.5"/>
<path d="M691.182 252.508L626.615 172.449" stroke="#747474" stroke-width="1.5"/>
<path d="M1220.27 708.01L1101.39 718.079" stroke="#747474" stroke-width="1.5"/>
<path d="M1220.27 708.011L1298.29 589.845" stroke="#747474" stroke-width="1.5"/>
<path d="M1220.27 708.01L1191.14 593.784" stroke="#747474" stroke-width="1.5"/>
<path d="M1101.39 718.079L1298.29 589.845" stroke="#747474" stroke-width="1.5"/>
<path d="M1101.39 718.079L1191.13 593.784" stroke="#747474" stroke-width="1.5"/>
<path d="M1298.29 589.845L1191.13 593.784" stroke="#747474" stroke-width="1.5"/>
<path d="M1191.13 593.784L1077.11 613.789" stroke="#747474" stroke-width="1.5"/>
<path d="M996.079 334.831L1003.2 217.744" stroke="#747474" stroke-width="1.5"/>
<path d="M996.079 334.831L872.584 372.311" stroke="#747474" stroke-width="1.5"/>
<path d="M1003.2 217.744L872.585 372.311" stroke="#747474" stroke-width="1.5"/>
<path d="M626.615 172.449L605.476 56.7305" stroke="#747474" stroke-width="1.5"/>
<path d="M626.615 172.449L548.077 252.621" stroke="#747474" stroke-width="1.5"/>
<path d="M605.476 56.7305L548.077 252.621" stroke="#747474" stroke-width="1.5"/>
<path d="M413.278 81.0263L338.479 196.161" stroke="#747474" stroke-width="1.5"/>
<path d="M1161.25 493.923C1167.02 490.59 1169 483.209 1165.66 477.435C1162.33 471.662 1154.95 469.683 1149.18 473.016C1143.4 476.348 1141.43 483.73 1144.76 489.504C1148.09 495.277 1155.48 497.256 1161.25 493.923Z" fill="#355FB3"/>
<path d="M1044.62 512.966C1050.4 509.634 1052.37 502.252 1049.04 496.478C1045.71 490.705 1038.33 488.726 1032.55 492.059C1026.78 495.392 1024.8 502.773 1028.14 508.547C1031.47 514.32 1038.85 516.299 1044.62 512.966Z" fill="#355FB3"/>
<path d="M1086.8 414.195C1092.57 410.862 1094.55 403.481 1091.21 397.707C1087.88 391.934 1080.5 389.955 1074.73 393.288C1068.96 396.621 1066.98 404.002 1070.31 409.776C1073.65 415.549 1081.03 417.528 1086.8 414.195Z" fill="#355FB3"/>
<path d="M960.564 444.286C966.337 440.953 968.314 433.571 964.981 427.798C961.647 422.025 954.266 420.046 948.494 423.379C942.721 426.711 940.744 434.093 944.077 439.867C947.411 445.64 954.792 447.619 960.564 444.286Z" fill="#355FB3"/>
<path d="M908.384 271.998C914.156 268.665 916.133 261.283 912.8 255.51C909.467 249.737 902.085 247.758 896.313 251.091C890.541 254.423 888.563 261.805 891.897 267.579C895.23 273.352 902.611 275.33 908.384 271.998Z" fill="#355FB3"/>
<path d="M803.231 164.034C809.004 160.702 810.981 153.32 807.648 147.547C804.314 141.773 796.933 139.795 791.161 143.127C785.388 146.46 783.411 153.842 786.744 159.615C790.078 165.388 797.459 167.367 803.231 164.034Z" fill="#355FB3"/>
<path d="M713.379 110.888C719.152 107.555 721.129 100.173 717.796 94.3997C714.462 88.6263 707.081 86.6477 701.309 89.9804C695.536 93.313 693.559 100.695 696.892 106.468C700.226 112.242 707.607 114.22 713.379 110.888Z" fill="#355FB3"/>
<path d="M530.966 134.271C536.739 130.938 538.716 123.556 535.383 117.783C532.049 112.01 524.668 110.031 518.895 113.364C513.123 116.696 511.146 124.078 514.479 129.852C517.812 135.625 525.194 137.604 530.966 134.271Z" fill="#355FB3"/>
<path d="M448.776 212.296C454.549 208.964 456.526 201.582 453.193 195.809C449.859 190.035 442.478 188.057 436.706 191.389C430.933 194.722 428.956 202.104 432.289 207.877C435.623 213.651 443.004 215.629 448.776 212.296Z" fill="#355FB3"/>
<path d="M303.685 80.3524C309.457 77.0197 311.435 69.6379 308.101 63.8645C304.768 58.0912 297.387 56.1126 291.614 59.4452C285.842 62.7778 283.865 70.1597 287.198 75.933C290.531 81.7064 297.913 83.685 303.685 80.3524Z" fill="#355FB3"/>
<path d="M238.455 172.626C244.227 169.293 246.204 161.911 242.871 156.138C239.538 150.365 232.156 148.386 226.384 151.719C220.611 155.051 218.634 162.433 221.968 168.206C225.301 173.98 232.682 175.958 238.455 172.626Z" fill="#355FB3"/>
<path d="M153.549 26.8908C159.322 23.5582 161.299 16.1763 157.966 10.403C154.632 4.62962 147.251 2.65102 141.478 5.98365C135.706 9.31628 133.729 16.6981 137.062 22.4715C140.395 28.2448 147.777 30.2234 153.549 26.8908Z" fill="#355FB3"/>
<path d="M163.308 262.228C169.08 258.895 171.057 251.513 167.724 245.74C164.391 239.966 157.009 237.988 151.237 241.32C145.465 244.653 143.487 252.035 146.821 257.808C150.154 263.582 157.535 265.56 163.308 262.228Z" fill="#355FB3"/>
<path d="M22.0839 161.824C27.8562 158.491 29.8334 151.109 26.5002 145.336C23.1669 139.563 15.7854 137.584 10.0132 140.917C4.24088 144.249 2.26365 151.631 5.5969 157.405C8.93015 163.178 16.3116 165.157 22.0839 161.824Z" fill="#355FB3"/>
<path d="M697.218 262.962C702.99 259.629 704.967 252.248 701.634 246.474C698.301 240.701 690.919 238.722 685.147 242.055C679.375 245.388 677.397 252.769 680.731 258.543C684.064 264.316 691.445 266.295 697.218 262.962Z" fill="#355FB3"/>
<path d="M804.045 283.461C809.817 280.129 811.794 272.747 808.461 266.973C805.128 261.2 797.746 259.221 791.974 262.554C786.202 265.887 784.225 273.269 787.558 279.042C790.891 284.815 798.273 286.794 804.045 283.461Z" fill="#355FB3"/>
<path d="M1226.3 718.464C1232.07 715.131 1234.05 707.75 1230.72 701.976C1227.38 696.203 1220 694.224 1214.23 697.557C1208.46 700.889 1206.48 708.271 1209.81 714.045C1213.15 719.818 1220.53 721.797 1226.3 718.464Z" fill="#355FB3"/>
<path d="M1107.42 728.532C1113.2 725.2 1115.17 717.818 1111.84 712.044C1108.51 706.271 1101.13 704.292 1095.35 707.625C1089.58 710.958 1087.6 718.34 1090.94 724.113C1094.27 729.886 1101.65 731.865 1107.42 728.532Z" fill="#355FB3"/>
<path d="M1304.33 600.298C1310.1 596.966 1312.08 589.584 1308.74 583.811C1305.41 578.037 1298.03 576.059 1292.26 579.391C1286.48 582.724 1284.51 590.106 1287.84 595.879C1291.17 601.652 1298.55 603.631 1304.33 600.298Z" fill="#355FB3"/>
<path d="M1197.17 604.238C1202.94 600.905 1204.92 593.524 1201.59 587.75C1198.25 581.977 1190.87 579.998 1185.1 583.331C1179.33 586.664 1177.35 594.045 1180.68 599.819C1184.02 605.592 1191.4 607.571 1197.17 604.238Z" fill="#355FB3"/>
<path d="M1083.15 624.242C1088.92 620.91 1090.89 613.528 1087.56 607.754C1084.23 601.981 1076.85 600.002 1071.07 603.335C1065.3 606.668 1063.33 614.05 1066.66 619.823C1069.99 625.596 1077.37 627.575 1083.15 624.242Z" fill="#355FB3"/>
<path d="M1002.12 345.285C1007.89 341.952 1009.86 334.57 1006.53 328.797C1003.2 323.023 995.817 321.045 990.044 324.378C984.272 327.71 982.295 335.092 985.628 340.865C988.961 346.639 996.343 348.617 1002.12 345.285Z" fill="#355FB3"/>
<path d="M1009.23 228.198C1015 224.865 1016.98 217.483 1013.65 211.71C1010.31 205.936 1002.93 203.958 997.16 207.29C991.388 210.623 989.411 218.005 992.744 223.778C996.077 229.552 1003.46 231.53 1009.23 228.198Z" fill="#355FB3"/>
<path d="M878.62 382.765C884.392 379.432 886.37 372.05 883.036 366.277C879.703 360.504 872.322 358.525 866.549 361.858C860.777 365.19 858.8 372.572 862.133 378.346C865.466 384.119 872.848 386.098 878.62 382.765Z" fill="#355FB3"/>
<path d="M138.488 147.764C144.26 144.431 146.237 137.049 142.904 131.276C139.571 125.502 132.189 123.524 126.417 126.856C120.645 130.189 118.667 137.571 122.001 143.344C125.334 149.118 132.715 151.096 138.488 147.764Z" fill="#355FB3"/>
<path d="M632.651 182.902C638.423 179.57 640.4 172.188 637.067 166.414C633.734 160.641 626.352 158.663 620.58 161.995C614.808 165.328 612.831 172.71 616.164 178.483C619.497 184.256 626.879 186.235 632.651 182.902Z" fill="#355FB3"/>
<path d="M611.512 67.1841C617.284 63.8515 619.261 56.4696 615.928 50.6963C612.595 44.9229 605.213 42.9443 599.441 46.2769C593.669 49.6096 591.691 56.9914 595.025 62.7648C598.358 68.5382 605.739 70.5168 611.512 67.1841Z" fill="#355FB3"/>
<path d="M554.112 263.074C559.885 259.742 561.862 252.36 558.529 246.586C555.195 240.813 547.814 238.834 542.041 242.167C536.269 245.5 534.292 252.881 537.625 258.655C540.958 264.428 548.34 266.407 554.112 263.074Z" fill="#355FB3"/>
<path d="M419.313 91.4799C425.086 88.1473 427.063 80.7654 423.73 74.9921C420.396 69.2187 413.015 67.2401 407.243 70.5727C401.47 73.9054 399.493 81.2872 402.826 87.0606C406.16 92.8339 413.541 94.8125 419.313 91.4799Z" fill="#355FB3"/>
<path d="M344.514 206.614C350.286 203.281 352.264 195.9 348.93 190.126C345.597 184.353 338.216 182.374 332.443 185.707C326.671 189.04 324.694 196.421 328.027 202.195C331.36 207.968 338.742 209.947 344.514 206.614Z" fill="#355FB3"/>
</g>
<defs>
<clipPath id="clip0">
<rect width="1315" height="735" fill="white"/>
</clipPath>
</defs>
</svg>
