<svg width="388" height="386" viewBox="0 0 388 386" fill="none" xmlns="http://www.w3.org/2000/svg">
<path d="M285.499 322.025L319.287 330.13" stroke="#B33535" stroke-width="2"/>
<path d="M285.499 322.025L276.165 375.943" stroke="#B33535" stroke-width="2"/>
<path d="M285.499 322.025L311.414 366.269" stroke="#B33535" stroke-width="2"/>
<path d="M285.499 322.025L214.536 188.502" stroke="black" stroke-width="2"/>
<path d="M285.499 322.025L256.72 345.092" stroke="#B33535" stroke-width="2"/>
<path d="M77.1206 143.866L49.5355 119.978" stroke="#B33535" stroke-width="2"/>
<path d="M77.1205 143.866L53.2471 220.038" stroke="#B33535" stroke-width="2"/>
<path d="M77.1205 143.866L214.536 188.502" stroke="black" stroke-width="2"/>
<path d="M77.1205 143.866L49.8298 169.657" stroke="#B33535" stroke-width="2"/>
<path d="M77.1206 143.866L10 173.363" stroke="#B33535" stroke-width="2"/>
<path d="M77.1205 143.866L18.0258 136.649" stroke="#B33535" stroke-width="2"/>
<path d="M319.287 330.13L276.165 375.943" stroke="#B33535" stroke-width="2"/>
<path d="M319.287 330.13L311.414 366.269" stroke="#B33535" stroke-width="2"/>
<path d="M319.287 330.13L214.536 188.502" stroke="black" stroke-width="2"/>
<path d="M319.287 330.13L256.72 345.092" stroke="#B33535" stroke-width="2"/>
<path d="M341.782 82.3639L214.536 188.502" stroke="black" stroke-width="2"/>
<path d="M341.782 82.3639L336.967 118.754" stroke="#B33535" stroke-width="2"/>
<path d="M341.782 82.3639L377.047 93.4251" stroke="#B33535" stroke-width="2"/>
<path d="M341.782 82.3639L373.474 130.083" stroke="#B33535" stroke-width="2"/>
<path d="M276.165 375.943L311.414 366.269" stroke="#B33535" stroke-width="2"/>
<path d="M276.165 375.943L214.536 188.502" stroke="black" stroke-width="2"/>
<path d="M276.165 375.943L256.72 345.092" stroke="#B33535" stroke-width="2"/>
<path d="M49.5355 119.978L53.2471 220.038" stroke="#B33535" stroke-width="2"/>
<path d="M49.5355 119.978L214.536 188.502" stroke="black" stroke-width="2"/>
<path d="M49.5355 119.978L49.8298 169.657" stroke="#B33535" stroke-width="2"/>
<path d="M49.5355 119.978L10 173.363" stroke="#B33535" stroke-width="2"/>
<path d="M49.5355 119.978L18.0258 136.649" stroke="#B33535" stroke-width="2"/>
<path d="M311.414 366.269L214.536 188.502" stroke="black" stroke-width="2"/>
<path d="M311.414 366.269L256.72 345.092" stroke="#B33535" stroke-width="2"/>
<path d="M117.113 291.835L53.2471 220.038" stroke="#B33535" stroke-width="2"/>
<path d="M117.113 291.835L214.536 188.502" stroke="black" stroke-width="2"/>
<path d="M117.113 291.835L111.465 255.299" stroke="#B33535" stroke-width="2"/>
<path d="M117.113 291.835L81.8747 280.828" stroke="#B33535" stroke-width="2"/>
<path d="M317.244 192.679L214.536 188.502" stroke="black" stroke-width="2"/>
<path d="M317.244 192.679L347.411 216.264" stroke="#B33535" stroke-width="2"/>
<path d="M317.244 192.679L312.015 228.472" stroke="#B33535" stroke-width="2"/>
<path d="M229.386 58.5066L197.695 38.3813" stroke="#B33535" stroke-width="2"/>
<path d="M229.386 58.5066L214.536 188.502" stroke="black" stroke-width="2"/>
<path d="M229.386 58.5066L220.547 10" stroke="#B33535" stroke-width="2"/>
<path d="M229.386 58.5066L252.216 29.5637" stroke="#B33535" stroke-width="2"/>
<path d="M53.2471 220.038L214.536 188.502" stroke="black" stroke-width="2"/>
<path d="M53.2471 220.038L49.8298 169.657" stroke="#B33535" stroke-width="2"/>
<path d="M53.2471 220.038L10 173.363" stroke="#B33535" stroke-width="2"/>
<path d="M53.2471 220.038L111.465 255.299" stroke="#B33535" stroke-width="2"/>
<path d="M53.2471 220.038L81.8747 280.828" stroke="#B33535" stroke-width="2"/>
<path d="M53.2471 220.038L18.0258 136.649" stroke="#B33535" stroke-width="2"/>
<path d="M197.695 38.3813L214.536 188.502" stroke="black" stroke-width="2"/>
<path d="M197.695 38.3814L220.547 10" stroke="#B33535" stroke-width="2"/>
<path d="M197.695 38.3814L252.216 29.5637" stroke="#B33535" stroke-width="2"/>
<path d="M214.536 188.502L49.8298 169.657" stroke="black" stroke-width="2"/>
<path d="M214.536 188.502L220.547 10" stroke="black" stroke-width="2"/>
<path d="M214.536 188.502L10 173.363" stroke="black" stroke-width="2"/>
<path d="M214.536 188.502L111.465 255.299" stroke="black" stroke-width="2"/>
<path d="M214.536 188.502L336.967 118.754" stroke="black" stroke-width="2"/>
<path d="M214.536 188.502L81.8747 280.828" stroke="black" stroke-width="2"/>
<path d="M214.536 188.502L347.411 216.264" stroke="black" stroke-width="2"/>
<path d="M214.536 188.502L377.047 93.4252" stroke="black" stroke-width="2"/>
<path d="M214.536 188.502L256.72 345.092" stroke="black" stroke-width="2"/>
<path d="M214.536 188.502L18.0258 136.649" stroke="black" stroke-width="2"/>
<path d="M214.536 188.502L312.015 228.472" stroke="black" stroke-width="2"/>
<path d="M214.536 188.502L252.216 29.5637" stroke="black" stroke-width="2"/>
<path d="M214.536 188.502L373.474 130.083" stroke="black" stroke-width="2"/>
<path d="M49.8298 169.657L10 173.363" stroke="#B33535" stroke-width="2"/>
<path d="M49.8298 169.657L18.0258 136.649" stroke="#B33535" stroke-width="2"/>
<path d="M220.547 10L252.216 29.5637" stroke="#B33535" stroke-width="2"/>
<path d="M10 173.363L18.0258 136.649" stroke="#B33535" stroke-width="2"/>
<path d="M111.465 255.299L81.8747 280.828" stroke="#B33535" stroke-width="2"/>
<path d="M336.967 118.754L377.047 93.4252" stroke="#B33535" stroke-width="2"/>
<path d="M336.967 118.754L373.474 130.083" stroke="#B33535" stroke-width="2"/>
<path d="M347.411 216.264L312.015 228.472" stroke="#B33535" stroke-width="2"/>
<path d="M377.047 93.4252L373.474 130.083" stroke="#B33535" stroke-width="2"/>
<path d="M285.499 332.025C291.022 332.025 295.499 327.547 295.499 322.025C295.499 316.502 291.022 312.025 285.499 312.025C279.976 312.025 275.499 316.502 275.499 322.025C275.499 327.547 279.976 332.025 285.499 332.025Z" fill="#B33535"/>
<path d="M77.1205 153.866C82.6434 153.866 87.1205 149.389 87.1205 143.866C87.1205 138.343 82.6434 133.866 77.1205 133.866C71.5977 133.866 67.1205 138.343 67.1205 143.866C67.1205 149.389 71.5977 153.866 77.1205 153.866Z" fill="#B33535"/>
<path d="M319.287 340.13C324.809 340.13 329.287 335.653 329.287 330.13C329.287 324.607 324.809 320.13 319.287 320.13C313.764 320.13 309.287 324.607 309.287 330.13C309.287 335.653 313.764 340.13 319.287 340.13Z" fill="#B33535"/>
<path d="M341.782 92.3639C347.305 92.3639 351.782 87.8867 351.782 82.3639C351.782 76.841 347.305 72.3639 341.782 72.3639C336.259 72.3639 331.782 76.841 331.782 82.3639C331.782 87.8867 336.259 92.3639 341.782 92.3639Z" fill="#B33535"/>
<path d="M276.165 385.943C281.688 385.943 286.165 381.465 286.165 375.943C286.165 370.42 281.688 365.943 276.165 365.943C270.643 365.943 266.165 370.42 266.165 375.943C266.165 381.465 270.643 385.943 276.165 385.943Z" fill="#B33535"/>
<path d="M49.5355 129.978C55.0584 129.978 59.5355 125.5 59.5355 119.978C59.5355 114.455 55.0584 109.978 49.5355 109.978C44.0127 109.978 39.5355 114.455 39.5355 119.978C39.5355 125.5 44.0127 129.978 49.5355 129.978Z" fill="#B33535"/>
<path d="M311.414 376.269C316.937 376.269 321.414 371.792 321.414 366.269C321.414 360.746 316.937 356.269 311.414 356.269C305.891 356.269 301.414 360.746 301.414 366.269C301.414 371.792 305.891 376.269 311.414 376.269Z" fill="#B33535"/>
<path d="M117.113 301.835C122.635 301.835 127.113 297.358 127.113 291.835C127.113 286.312 122.635 281.835 117.113 281.835C111.59 281.835 107.113 286.312 107.113 291.835C107.113 297.358 111.59 301.835 117.113 301.835Z" fill="#B33535"/>
<path d="M317.244 202.679C322.767 202.679 327.244 198.202 327.244 192.679C327.244 187.156 322.767 182.679 317.244 182.679C311.721 182.679 307.244 187.156 307.244 192.679C307.244 198.202 311.721 202.679 317.244 202.679Z" fill="#B33535"/>
<path d="M229.386 68.5066C234.909 68.5066 239.386 64.0294 239.386 58.5066C239.386 52.9837 234.909 48.5066 229.386 48.5066C223.864 48.5066 219.386 52.9837 219.386 58.5066C219.386 64.0294 223.864 68.5066 229.386 68.5066Z" fill="#B33535"/>
<path d="M53.2471 230.038C58.7699 230.038 63.2471 225.561 63.2471 220.038C63.2471 214.515 58.7699 210.038 53.2471 210.038C47.7242 210.038 43.2471 214.515 43.2471 220.038C43.2471 225.561 47.7242 230.038 53.2471 230.038Z" fill="#B33535"/>
<path d="M197.695 48.3813C203.218 48.3813 207.695 43.9042 207.695 38.3813C207.695 32.8585 203.218 28.3813 197.695 28.3813C192.173 28.3813 187.695 32.8585 187.695 38.3813C187.695 43.9042 192.173 48.3813 197.695 48.3813Z" fill="#B33535"/>
<path d="M214.536 198.502C220.058 198.502 224.536 194.025 224.536 188.502C224.536 182.979 220.058 178.502 214.536 178.502C209.013 178.502 204.536 182.979 204.536 188.502C204.536 194.025 209.013 198.502 214.536 198.502Z" fill="black"/>
<path d="M49.8298 179.657C55.3527 179.657 59.8298 175.18 59.8298 169.657C59.8298 164.135 55.3527 159.657 49.8298 159.657C44.307 159.657 39.8298 164.135 39.8298 169.657C39.8298 175.18 44.307 179.657 49.8298 179.657Z" fill="#B33535"/>
<path d="M220.547 20C226.07 20 230.547 15.5228 230.547 10C230.547 4.47715 226.07 0 220.547 0C215.024 0 210.547 4.47715 210.547 10C210.547 15.5228 215.024 20 220.547 20Z" fill="#B33535"/>
<path d="M10 183.363C15.5228 183.363 20 178.886 20 173.363C20 167.84 15.5228 163.363 10 163.363C4.47715 163.363 0 167.84 0 173.363C0 178.886 4.47715 183.363 10 183.363Z" fill="#B33535"/>
<path d="M111.465 265.299C116.988 265.299 121.465 260.822 121.465 255.299C121.465 249.776 116.988 245.299 111.465 245.299C105.942 245.299 101.465 249.776 101.465 255.299C101.465 260.822 105.942 265.299 111.465 265.299Z" fill="#B33535"/>
<path d="M336.967 128.754C342.489 128.754 346.967 124.277 346.967 118.754C346.967 113.231 342.489 108.754 336.967 108.754C331.444 108.754 326.967 113.231 326.967 118.754C326.967 124.277 331.444 128.754 336.967 128.754Z" fill="#B33535"/>
<path d="M81.8747 290.828C87.3975 290.828 91.8747 286.351 91.8747 280.828C91.8747 275.305 87.3975 270.828 81.8747 270.828C76.3518 270.828 71.8747 275.305 71.8747 280.828C71.8747 286.351 76.3518 290.828 81.8747 290.828Z" fill="#B33535"/>
<path d="M347.411 226.264C352.934 226.264 357.411 221.787 357.411 216.264C357.411 210.741 352.934 206.264 347.411 206.264C341.888 206.264 337.411 210.741 337.411 216.264C337.411 221.787 341.888 226.264 347.411 226.264Z" fill="#B33535"/>
<path d="M377.047 103.425C382.569 103.425 387.047 98.948 387.047 93.4252C387.047 87.9023 382.569 83.4252 377.047 83.4252C371.524 83.4252 367.047 87.9023 367.047 93.4252C367.047 98.948 371.524 103.425 377.047 103.425Z" fill="#B33535"/>
<path d="M256.72 355.092C262.243 355.092 266.72 350.615 266.72 345.092C266.72 339.569 262.243 335.092 256.72 335.092C251.197 335.092 246.72 339.569 246.72 345.092C246.72 350.615 251.197 355.092 256.72 355.092Z" fill="#B33535"/>
<path d="M18.0258 146.649C23.5487 146.649 28.0258 142.172 28.0258 136.649C28.0258 131.127 23.5487 126.649 18.0258 126.649C12.503 126.649 8.02582 131.127 8.02582 136.649C8.02582 142.172 12.503 146.649 18.0258 146.649Z" fill="#B33535"/>
<path d="M312.015 238.473C317.538 238.473 322.015 233.995 322.015 228.473C322.015 222.95 317.538 218.473 312.015 218.473C306.492 218.473 302.015 222.95 302.015 228.473C302.015 233.995 306.492 238.473 312.015 238.473Z" fill="#B33535"/>
<path d="M252.216 39.5637C257.739 39.5637 262.216 35.0866 262.216 29.5637C262.216 24.0409 257.739 19.5637 252.216 19.5637C246.693 19.5637 242.216 24.0409 242.216 29.5637C242.216 35.0866 246.693 39.5637 252.216 39.5637Z" fill="#B33535"/>
<path d="M373.474 140.083C378.997 140.083 383.474 135.606 383.474 130.083C383.474 124.56 378.997 120.083 373.474 120.083C367.951 120.083 363.474 124.56 363.474 130.083C363.474 135.606 367.951 140.083 373.474 140.083Z" fill="#B33535"/>
</svg>
