<svg width="21" height="40" viewBox="0 0 21 40" fill="none" xmlns="http://www.w3.org/2000/svg">
<path d="M6.16373 26.8087C5.83801 26.8087 5.57863 26.7001 5.38561 26.483C5.19258 26.2658 5.09607 26.0004 5.09607 25.6868C5.09607 24.8302 5.41577 24.0883 6.05516 23.461C6.69455 22.8336 7.49077 22.52 8.44383 22.52C9.54165 22.52 10.4585 22.8578 11.1944 23.5333C11.9303 24.2089 12.3043 25.0836 12.3164 26.1573C12.3164 26.676 12.1957 27.1706 11.9545 27.6411C11.7132 28.1116 11.4236 28.5218 11.0858 28.8717C10.7481 29.2215 10.2655 29.6679 9.63817 30.2108C9.20386 30.5847 8.60066 31.1397 7.82857 31.8756L6.7609 32.889L8.1362 32.9071C10.0302 32.9071 11.0376 32.8769 11.1582 32.8166C11.2427 32.7925 11.3874 32.2556 11.5925 31.206V31.1518H12.3164V31.206C12.3043 31.2422 12.2259 31.7911 12.0811 32.8528C11.9364 33.9144 11.8459 34.4694 11.8097 34.5176V34.5719H5.09607V34.2281V34.0109C5.09607 33.9265 5.13226 33.836 5.20465 33.7395C5.27703 33.643 5.45799 33.4319 5.74753 33.1061C6.09738 32.7201 6.39898 32.3823 6.65233 32.0927C6.7609 31.9721 6.96599 31.7489 7.26759 31.4232C7.56919 31.0975 7.77428 30.8743 7.88285 30.7536C7.99143 30.633 8.16636 30.4339 8.40764 30.1565C8.64892 29.879 8.81781 29.6739 8.91433 29.5412C9.01084 29.4085 9.14957 29.2275 9.33053 28.9983C9.51149 28.7691 9.63817 28.5761 9.71055 28.4193C9.78293 28.2624 9.87341 28.0875 9.98199 27.8945C10.0906 27.7015 10.169 27.5084 10.2172 27.3154C10.2655 27.1224 10.3077 26.9414 10.3439 26.7725C10.3801 26.6036 10.3982 26.4046 10.3982 26.1754C10.3982 25.4153 10.1931 24.7578 9.78293 24.2029C9.37276 23.6479 8.78765 23.3705 8.02762 23.3705C7.62951 23.3705 7.27965 23.473 6.97805 23.6781C6.67645 23.8832 6.46533 24.0823 6.34469 24.2753C6.22405 24.4683 6.16373 24.5829 6.16373 24.6191C6.16373 24.6312 6.19389 24.6372 6.25421 24.6372C6.47137 24.6372 6.69455 24.7216 6.92377 24.8905C7.15298 25.0594 7.26759 25.3369 7.26759 25.723C7.26759 26.0246 7.17108 26.2779 6.97805 26.483C6.78503 26.6881 6.51359 26.7967 6.16373 26.8087Z" fill="#B33535"/>
<path d="M14.6508 33.9386C14.6508 33.9386 14.6508 33.7878 14.6508 33.4862C14.6508 33.1846 14.7473 32.9252 14.9403 32.7081C15.1333 32.4909 15.3927 32.3823 15.7184 32.3823C16.0562 32.3823 16.3578 32.5331 16.6232 32.8347C16.8886 33.1363 17.0274 33.6672 17.0394 34.4272C17.0394 34.8494 16.9851 35.2596 16.8766 35.6577C16.768 36.0558 16.6413 36.3997 16.4965 36.6892C16.3518 36.9787 16.1949 37.226 16.0261 37.4311C15.8572 37.6362 15.7124 37.7991 15.5917 37.9197C15.4711 38.0404 15.3927 38.0946 15.3565 38.0826C15.3082 38.0826 15.2298 38.0283 15.1213 37.9197C15.0127 37.8111 14.9584 37.7327 14.9584 37.6845C14.9584 37.6362 15.0247 37.5397 15.1574 37.3949C15.2901 37.2502 15.4409 37.0692 15.6098 36.8521C15.7787 36.6349 15.9356 36.3333 16.0803 35.9473C16.2251 35.5612 16.3216 35.1209 16.3699 34.6262V34.4091L16.3518 34.4272C16.3277 34.4393 16.2975 34.4513 16.2613 34.4634C16.2251 34.4754 16.1889 34.4935 16.1527 34.5177C16.1165 34.5418 16.0622 34.5539 15.9899 34.5539C15.9175 34.5539 15.8451 34.5599 15.7727 34.572C15.447 34.572 15.1816 34.4694 14.9765 34.2643L14.6508 33.9386Z" fill="black"/>
<path d="M5.56494 14V3.33594H9.05127C10.2085 3.33594 11.0776 3.5752 11.6587 4.05371C12.2446 4.53223 12.5376 5.24023 12.5376 6.17773C12.5376 6.67578 12.396 7.11768 12.1128 7.50342C11.8296 7.88428 11.4438 8.17969 10.9556 8.38965C11.5317 8.55078 11.9858 8.8584 12.3179 9.3125C12.6548 9.76172 12.8232 10.2988 12.8232 10.9238C12.8232 11.8809 12.5132 12.6328 11.8931 13.1797C11.2729 13.7266 10.3965 14 9.26367 14H5.56494ZM6.97119 9.01221V12.8501H9.29297C9.94727 12.8501 10.4624 12.6816 10.8384 12.3447C11.2192 12.0029 11.4097 11.5342 11.4097 10.9385C11.4097 9.6543 10.7114 9.01221 9.31494 9.01221H6.97119ZM6.97119 7.88428H9.09521C9.71045 7.88428 10.2012 7.73047 10.5674 7.42285C10.9385 7.11523 11.124 6.69775 11.124 6.17041C11.124 5.58447 10.9531 5.15967 10.6113 4.896C10.2695 4.62744 9.74951 4.49316 9.05127 4.49316H6.97119V7.88428Z" fill="#B33535"/>
</svg>
