<svg width="95" height="40" viewBox="0 0 95 40" fill="none" xmlns="http://www.w3.org/2000/svg">
<path d="M0.709656 30.0479C0.709656 29.2155 0.769976 28.4253 0.890616 27.6774C1.01126 26.9294 1.14999 26.284 1.30682 25.7411C1.46366 25.1982 1.68684 24.6674 1.97638 24.1487C2.26591 23.6299 2.49513 23.2258 2.66402 22.9362C2.83292 22.6467 3.08626 22.333 3.42406 21.9952C3.76185 21.6574 3.9609 21.4523 4.02122 21.38C4.08154 21.3076 4.23234 21.1809 4.47362 20.9999H4.70887H4.78126C4.95015 20.9999 5.0346 21.0542 5.0346 21.1628C5.0346 21.199 4.93206 21.3257 4.72697 21.5428C4.52188 21.76 4.27457 22.0797 3.98503 22.5019C3.6955 22.9242 3.39993 23.4429 3.09833 24.0582C2.79673 24.6734 2.54338 25.5059 2.3383 26.5554C2.13321 27.605 2.03066 28.7692 2.03066 30.0479C2.03066 31.3267 2.13321 32.4849 2.3383 33.5224C2.54338 34.5599 2.7907 35.3983 3.08023 36.0377C3.36977 36.6771 3.66534 37.1959 3.96694 37.594C4.26854 37.9921 4.52188 38.3118 4.72697 38.5531C4.93206 38.7943 5.0346 38.921 5.0346 38.9331C5.0346 39.0417 4.94412 39.0959 4.76316 39.0959H4.70887H4.47362L3.96694 38.6616C2.83292 37.6362 2.00654 36.3574 1.48778 34.8253C0.969032 33.2932 0.709656 31.7007 0.709656 30.0479Z" fill="black"/>
<path d="M18.9323 34.5719C18.7152 34.5357 17.9371 34.5176 16.598 34.5176C15.1985 34.5176 14.3902 34.5357 14.1731 34.5719H14.0102V33.7395H14.5712C14.8125 33.7395 14.9753 33.7395 15.0598 33.7395C15.1442 33.7395 15.2468 33.7274 15.3674 33.7033C15.4881 33.6792 15.5725 33.649 15.6208 33.6128C15.669 33.5766 15.7113 33.5284 15.7474 33.468C15.7595 33.4439 15.7655 33.1182 15.7655 32.4909V31.5861H11.0787V30.7536L13.8112 26.5735C15.657 23.7746 16.5919 22.3692 16.6161 22.3571C16.6402 22.333 16.7669 22.3209 16.9961 22.3209H17.3218L17.4304 22.4295V30.7536H19.0952V31.5861H17.4304V32.509C17.4304 33.0036 17.4304 33.2931 17.4304 33.3776C17.4304 33.462 17.4666 33.5344 17.5389 33.5947C17.6355 33.6792 17.9793 33.7274 18.5704 33.7395H19.0952V34.5719H18.9323ZM15.8741 30.7536V24.7096L11.9111 30.7355L13.8836 30.7536H15.8741Z" fill="#355FB3"/>
<path d="M21.0315 33.9386C21.0315 33.9386 21.0315 33.7878 21.0315 33.4862C21.0315 33.1846 21.128 32.9252 21.321 32.7081C21.5141 32.4909 21.7734 32.3823 22.0992 32.3823C22.437 32.3823 22.7386 32.5331 23.004 32.8347C23.2694 33.1363 23.4081 33.6672 23.4202 34.4272C23.4202 34.8494 23.3659 35.2596 23.2573 35.6577C23.1487 36.0558 23.0221 36.3997 22.8773 36.6892C22.7325 36.9787 22.5757 37.226 22.4068 37.4311C22.2379 37.6362 22.0931 37.7991 21.9725 37.9197C21.8518 38.0404 21.7734 38.0946 21.7372 38.0826C21.689 38.0826 21.6106 38.0283 21.502 37.9197C21.3934 37.8111 21.3391 37.7327 21.3391 37.6845C21.3391 37.6362 21.4055 37.5397 21.5382 37.3949C21.6709 37.2502 21.8217 37.0692 21.9906 36.8521C22.1595 36.6349 22.3163 36.3333 22.4611 35.9473C22.6058 35.5612 22.7024 35.1209 22.7506 34.6262V34.4091L22.7325 34.4272C22.7084 34.4393 22.6782 34.4513 22.642 34.4634C22.6058 34.4754 22.5697 34.4935 22.5335 34.5177C22.4973 34.5418 22.443 34.5539 22.3706 34.5539C22.2982 34.5539 22.2258 34.5599 22.1534 34.572C21.8277 34.572 21.5623 34.4694 21.3572 34.2643L21.0315 33.9386Z" fill="black"/>
<path d="M34.1637 26.8087C33.838 26.8087 33.5786 26.7001 33.3856 26.483C33.1926 26.2658 33.0961 26.0004 33.0961 25.6868C33.0961 24.8302 33.4158 24.0883 34.0552 23.461C34.6945 22.8336 35.4908 22.52 36.4438 22.52C37.5417 22.52 38.4585 22.8578 39.1944 23.5333C39.9303 24.2089 40.3043 25.0836 40.3164 26.1573C40.3164 26.676 40.1957 27.1706 39.9545 27.6411C39.7132 28.1116 39.4236 28.5218 39.0858 28.8717C38.7481 29.2215 38.2655 29.6679 37.6382 30.2108C37.2039 30.5847 36.6007 31.1397 35.8286 31.8756L34.7609 32.889L36.1362 32.9071C38.0302 32.9071 39.0376 32.8769 39.1582 32.8166C39.2427 32.7925 39.3874 32.2556 39.5925 31.206V31.1518H40.3164V31.206C40.3043 31.2422 40.2259 31.7911 40.0811 32.8528C39.9364 33.9144 39.8459 34.4694 39.8097 34.5176V34.5719H33.0961V34.2281V34.0109C33.0961 33.9265 33.1323 33.836 33.2046 33.7395C33.277 33.643 33.458 33.4319 33.7475 33.1061C34.0974 32.7201 34.399 32.3823 34.6523 32.0927C34.7609 31.9721 34.966 31.7489 35.2676 31.4232C35.5692 31.0975 35.7743 30.8743 35.8829 30.7536C35.9914 30.633 36.1664 30.4339 36.4076 30.1565C36.6489 29.879 36.8178 29.6739 36.9143 29.5412C37.0108 29.4085 37.1496 29.2275 37.3305 28.9983C37.5115 28.7691 37.6382 28.5761 37.7105 28.4193C37.7829 28.2624 37.8734 28.0875 37.982 27.8945C38.0906 27.7015 38.169 27.5084 38.2172 27.3154C38.2655 27.1224 38.3077 26.9414 38.3439 26.7725C38.3801 26.6036 38.3982 26.4046 38.3982 26.1754C38.3982 25.4153 38.1931 24.7578 37.7829 24.2029C37.3728 23.6479 36.7877 23.3705 36.0276 23.3705C35.6295 23.3705 35.2797 23.473 34.9781 23.6781C34.6765 23.8832 34.4653 24.0823 34.3447 24.2753C34.2241 24.4683 34.1637 24.5829 34.1637 24.6191C34.1637 24.6312 34.1939 24.6372 34.2542 24.6372C34.4714 24.6372 34.6945 24.7216 34.9238 24.8905C35.153 25.0594 35.2676 25.3369 35.2676 25.723C35.2676 26.0246 35.1711 26.2779 34.9781 26.483C34.785 26.6881 34.5136 26.7967 34.1637 26.8087Z" fill="#B33535"/>
<path d="M42.6508 33.9386C42.6508 33.9386 42.6508 33.7878 42.6508 33.4862C42.6508 33.1846 42.7473 32.9252 42.9403 32.7081C43.1333 32.4909 43.3927 32.3823 43.7184 32.3823C44.0562 32.3823 44.3578 32.5331 44.6232 32.8347C44.8886 33.1363 45.0274 33.6672 45.0394 34.4272C45.0394 34.8494 44.9851 35.2596 44.8766 35.6577C44.768 36.0558 44.6413 36.3997 44.4965 36.6892C44.3518 36.9787 44.1949 37.226 44.0261 37.4311C43.8572 37.6362 43.7124 37.7991 43.5917 37.9197C43.4711 38.0404 43.3927 38.0946 43.3565 38.0826C43.3082 38.0826 43.2298 38.0283 43.1213 37.9197C43.0127 37.8111 42.9584 37.7327 42.9584 37.6845C42.9584 37.6362 43.0247 37.5397 43.1574 37.3949C43.2901 37.2502 43.4409 37.0692 43.6098 36.8521C43.7787 36.6349 43.9356 36.3333 44.0803 35.9473C44.2251 35.5612 44.3216 35.1209 44.3699 34.6262V34.4091L44.3518 34.4272C44.3277 34.4393 44.2975 34.4513 44.2613 34.4634C44.2251 34.4754 44.1889 34.4935 44.1527 34.5177C44.1165 34.5418 44.0622 34.5539 43.9899 34.5539C43.9175 34.5539 43.8451 34.5599 43.7727 34.572C43.447 34.572 43.1816 34.4694 42.9765 34.2643L42.6508 33.9386Z" fill="black"/>
<path d="M57.6632 24.1124L57.428 24.2029C57.2591 24.2632 57.0178 24.3235 56.7041 24.3839C56.3905 24.4442 56.0406 24.4864 55.6546 24.5105H55.3107V23.6781H55.6546C56.2216 23.654 56.7463 23.5635 57.2289 23.4067C57.7115 23.2498 58.0493 23.1051 58.2423 22.9724C58.4353 22.8397 58.6042 22.707 58.749 22.5743C58.7731 22.5381 58.8455 22.52 58.9661 22.52C59.0747 22.52 59.1772 22.5562 59.2738 22.6285V28.0392L59.2918 33.468C59.3763 33.5525 59.4487 33.6068 59.509 33.6309C59.5693 33.655 59.7141 33.6792 59.9433 33.7033C60.1725 33.7274 60.5465 33.7395 61.0653 33.7395H61.5358V34.5719H61.3367C61.0834 34.5357 60.1243 34.5176 58.4594 34.5176C56.8187 34.5176 55.8717 34.5357 55.6184 34.5719H55.4012V33.7395H55.8717C56.1371 33.7395 56.3663 33.7395 56.5594 33.7395C56.7524 33.7395 56.9032 33.7335 57.0118 33.7214C57.1203 33.7093 57.2168 33.6912 57.3013 33.6671C57.3857 33.643 57.434 33.6309 57.4461 33.6309C57.4581 33.6309 57.4943 33.6007 57.5546 33.5404C57.615 33.4801 57.6511 33.456 57.6632 33.468V24.1124Z" fill="#3BB335"/>
<path d="M64.2682 33.9386C64.2682 33.9386 64.2682 33.7878 64.2682 33.4862C64.2682 33.1846 64.3648 32.9252 64.5578 32.7081C64.7508 32.4909 65.0102 32.3823 65.3359 32.3823C65.6737 32.3823 65.9753 32.5331 66.2407 32.8347C66.5061 33.1363 66.6449 33.6672 66.6569 34.4272C66.6569 34.8494 66.6026 35.2596 66.4941 35.6577C66.3855 36.0558 66.2588 36.3997 66.114 36.6892C65.9693 36.9787 65.8124 37.226 65.6435 37.4311C65.4746 37.6362 65.3299 37.7991 65.2092 37.9197C65.0886 38.0404 65.0102 38.0946 64.974 38.0826C64.9257 38.0826 64.8473 38.0283 64.7387 37.9197C64.6302 37.8111 64.5759 37.7327 64.5759 37.6845C64.5759 37.6362 64.6422 37.5397 64.7749 37.3949C64.9076 37.2502 65.0584 37.0692 65.2273 36.8521C65.3962 36.6349 65.5531 36.3333 65.6978 35.9473C65.8426 35.5612 65.9391 35.1209 65.9874 34.6262V34.4091L65.9693 34.4272C65.9451 34.4393 65.915 34.4513 65.8788 34.4634C65.8426 34.4754 65.8064 34.4935 65.7702 34.5177C65.734 34.5418 65.6797 34.5539 65.6074 34.5539C65.535 34.5539 65.4626 34.5599 65.3902 34.572C65.0645 34.572 64.7991 34.4694 64.594 34.2643L64.2682 33.9386Z" fill="black"/>
<path d="M79.2825 24.1124L79.0472 24.2029C78.8783 24.2632 78.637 24.3235 78.3234 24.3839C78.0097 24.4442 77.6599 24.4864 77.2738 24.5105H76.93V23.6781H77.2738C77.8408 23.654 78.3656 23.5635 78.8482 23.4067C79.3307 23.2498 79.6685 23.1051 79.8615 22.9724C80.0546 22.8397 80.2235 22.707 80.3682 22.5743C80.3924 22.5381 80.4647 22.52 80.5854 22.52C80.694 22.52 80.7965 22.5562 80.893 22.6285V28.0392L80.9111 33.468C80.9956 33.5525 81.0679 33.6068 81.1283 33.6309C81.1886 33.655 81.3334 33.6792 81.5626 33.7033C81.7918 33.7274 82.1658 33.7395 82.6845 33.7395H83.155V34.5719H82.956C82.7026 34.5357 81.7435 34.5176 80.0787 34.5176C78.438 34.5176 77.491 34.5357 77.2376 34.5719H77.0205V33.7395H77.491C77.7564 33.7395 77.9856 33.7395 78.1786 33.7395C78.3716 33.7395 78.5224 33.7335 78.631 33.7214C78.7396 33.7093 78.8361 33.6912 78.9206 33.6671C79.005 33.643 79.0533 33.6309 79.0653 33.6309C79.0774 33.6309 79.1136 33.6007 79.1739 33.5404C79.2342 33.4801 79.2704 33.456 79.2825 33.468V24.1124Z" fill="#B39735"/>
<path d="M90.0858 21.018L90.1582 20.9999C90.2185 20.9999 90.2788 20.9999 90.3391 20.9999H90.5563L91.063 21.4343C92.197 22.4597 93.0234 23.7385 93.5421 25.2706C94.0609 26.8027 94.3202 28.3952 94.3202 30.0479C94.3202 30.8683 94.2599 31.6585 94.1393 32.4185C94.0186 33.1786 93.8799 33.824 93.7231 34.3548C93.5662 34.8856 93.3431 35.4164 93.0535 35.9472C92.764 36.4781 92.5348 36.8822 92.3659 37.1597C92.197 37.4371 91.9497 37.7448 91.6239 38.0826C91.2982 38.4204 91.1052 38.6194 91.0449 38.6797C90.9845 38.7401 90.8458 38.8547 90.6287 39.0236C90.5925 39.0598 90.5683 39.0839 90.5563 39.0959H90.3391C90.2426 39.0959 90.1763 39.0959 90.1401 39.0959C90.1039 39.0959 90.0737 39.0779 90.0496 39.0417C90.0255 39.0055 90.0074 38.9512 89.9953 38.8788C90.0074 38.8667 90.0737 38.7883 90.1944 38.6435C92.0643 36.7012 92.9992 33.836 92.9992 30.0479C92.9992 26.2599 92.0643 23.3947 90.1944 21.4523C90.0737 21.3076 90.0074 21.2292 89.9953 21.2171C89.9953 21.1206 90.0255 21.0542 90.0858 21.018Z" fill="black"/>
<path d="M17.2339 11.2168H12.7661L11.7627 14H10.3125L14.3848 3.33594H15.6152L19.6948 14H18.252L17.2339 11.2168ZM13.1909 10.0596H16.8164L15 5.07178L13.1909 10.0596Z" fill="#355FB3"/>
<path d="M33.5649 14V3.33594H37.0513C38.2085 3.33594 39.0776 3.5752 39.6587 4.05371C40.2446 4.53223 40.5376 5.24023 40.5376 6.17773C40.5376 6.67578 40.396 7.11768 40.1128 7.50342C39.8296 7.88428 39.4438 8.17969 38.9556 8.38965C39.5317 8.55078 39.9858 8.8584 40.3179 9.3125C40.6548 9.76172 40.8232 10.2988 40.8232 10.9238C40.8232 11.8809 40.5132 12.6328 39.8931 13.1797C39.2729 13.7266 38.3965 14 37.2637 14H33.5649ZM34.9712 9.01221V12.8501H37.293C37.9473 12.8501 38.4624 12.6816 38.8384 12.3447C39.2192 12.0029 39.4097 11.5342 39.4097 10.9385C39.4097 9.6543 38.7114 9.01221 37.3149 9.01221H34.9712ZM34.9712 7.88428H37.0952C37.7104 7.88428 38.2012 7.73047 38.5674 7.42285C38.9385 7.11523 39.124 6.69775 39.124 6.17041C39.124 5.58447 38.9531 5.15967 38.6113 4.896C38.2695 4.62744 37.7495 4.49316 37.0513 4.49316H34.9712V7.88428Z" fill="#B33535"/>
<path d="M62.1968 10.6162C62.0649 11.7441 61.6475 12.6157 60.9443 13.231C60.2461 13.8413 59.3159 14.1465 58.1538 14.1465C56.894 14.1465 55.8833 13.6948 55.1216 12.7915C54.3647 11.8882 53.9863 10.6797 53.9863 9.16602V8.14062C53.9863 7.14941 54.1621 6.27783 54.5137 5.52588C54.8701 4.77393 55.373 4.19775 56.0225 3.79736C56.6719 3.39209 57.4238 3.18945 58.2783 3.18945C59.4111 3.18945 60.3193 3.50684 61.0029 4.1416C61.6865 4.77148 62.0845 5.64551 62.1968 6.76367H60.7832C60.6611 5.91406 60.395 5.29883 59.9849 4.91797C59.5796 4.53711 59.0107 4.34668 58.2783 4.34668C57.3799 4.34668 56.6743 4.67871 56.1616 5.34277C55.6538 6.00684 55.3999 6.95166 55.3999 8.17725V9.20996C55.3999 10.3672 55.6416 11.2876 56.125 11.9712C56.6084 12.6548 57.2847 12.9966 58.1538 12.9966C58.9351 12.9966 59.5332 12.8208 59.9482 12.4692C60.3682 12.1128 60.6465 11.4951 60.7832 10.6162H62.1968Z" fill="#3BB335"/>
<path d="M76.3159 14V3.33594H79.3262C80.2539 3.33594 81.0742 3.54102 81.7871 3.95117C82.5 4.36133 83.0493 4.94482 83.4351 5.70166C83.8257 6.4585 84.0234 7.32764 84.0283 8.30908V8.99023C84.0283 9.99609 83.833 10.8774 83.4424 11.6343C83.0566 12.3911 82.5024 12.9722 81.7798 13.3774C81.062 13.7827 80.2246 13.9902 79.2676 14H76.3159ZM77.7222 4.49316V12.8501H79.2017C80.2856 12.8501 81.1279 12.5132 81.7285 11.8394C82.334 11.1655 82.6367 10.2061 82.6367 8.96094V8.33838C82.6367 7.12744 82.3511 6.1875 81.7798 5.51855C81.2134 4.84473 80.4077 4.50293 79.3628 4.49316H77.7222Z" fill="#B39735"/>
</svg>
