<svg width="520" height="210" viewBox="0 0 520 210" fill="none" xmlns="http://www.w3.org/2000/svg">
<path d="M350.5 99.5001L344.693 93.0751L342.032 101.316L350.5 99.5001ZM240 146.5L248.291 149.001L246.312 140.57L240 146.5ZM240 63.5L246.364 69.374L248.269 60.9259L240 63.5ZM296.127 104.197C296.487 104.855 296.487 104.855 296.487 104.855C296.487 104.855 296.487 104.855 296.488 104.855C296.488 104.855 296.489 104.854 296.489 104.854C296.491 104.853 296.493 104.852 296.497 104.85C296.504 104.846 296.515 104.84 296.529 104.832C296.558 104.817 296.602 104.793 296.661 104.762C296.778 104.7 296.952 104.608 297.181 104.491C297.638 104.256 298.309 103.92 299.162 103.516C300.87 102.708 303.302 101.63 306.2 100.552C312.008 98.3906 319.629 96.25 327 96.2501L327 94.7501C319.371 94.75 311.556 96.9581 305.677 99.1457C302.731 100.242 300.259 101.338 298.521 102.16C297.652 102.572 296.966 102.915 296.496 103.156C296.261 103.277 296.08 103.372 295.957 103.437C295.896 103.47 295.849 103.495 295.817 103.512C295.801 103.521 295.789 103.528 295.78 103.532C295.776 103.534 295.773 103.536 295.771 103.537C295.769 103.538 295.769 103.538 295.768 103.539C295.768 103.539 295.767 103.539 295.767 103.539C295.767 103.539 295.767 103.539 296.127 104.197ZM327 96.2501C334.251 96.2501 339.961 97.1931 343.9 98.1551L344.256 96.698C340.211 95.7102 334.382 94.7501 327 94.7501L327 96.2501ZM296.127 104.197C295.455 103.863 295.456 103.863 295.456 103.863C295.456 103.863 295.455 103.863 295.455 103.863C295.455 103.864 295.455 103.864 295.455 103.865C295.454 103.867 295.452 103.87 295.45 103.874C295.446 103.881 295.441 103.893 295.432 103.909C295.416 103.941 295.392 103.99 295.358 104.054C295.292 104.182 295.192 104.373 295.059 104.621C294.793 105.116 294.393 105.84 293.864 106.744C292.805 108.553 291.227 111.083 289.157 113.962C285.012 119.724 278.912 126.854 271.068 132.387L271.932 133.613C279.961 127.949 286.174 120.677 290.375 114.838C292.477 111.915 294.08 109.344 295.158 107.502C295.698 106.581 296.106 105.841 296.381 105.331C296.518 105.075 296.621 104.877 296.691 104.742C296.726 104.674 296.753 104.622 296.771 104.587C296.779 104.569 296.786 104.556 296.791 104.546C296.793 104.542 296.795 104.538 296.796 104.536C296.797 104.534 296.798 104.533 296.798 104.533C296.798 104.532 296.798 104.532 296.798 104.532C296.799 104.531 296.799 104.531 296.127 104.197ZM271.068 132.387C261.66 139.024 252.335 142.509 246.363 144.237L246.78 145.678C252.861 143.918 262.35 140.372 271.932 133.613L271.068 132.387ZM296.745 103.772C289.084 92.6359 282.559 84.2655 274.958 77.927C267.339 71.5743 258.675 67.2899 246.769 64.258L246.399 65.7116C258.127 68.6983 266.579 72.8934 273.997 79.079C281.432 85.2788 287.861 93.5053 295.509 104.622L296.745 103.772Z" fill="#3BB335"/>
<path d="M295 105L365 105M295 105L225 60L225 150L295 105Z" stroke="black" stroke-width="2"/>
<circle cx="225" cy="60" r="14" fill="white" stroke="black" stroke-width="2"/>
<path d="M225.552 56.1766C225.552 55.0702 224.99 55 224.849 55C224.428 55 224.041 55.4215 224.041 55.7727C224.041 55.9835 224.164 56.1064 224.234 56.1766C224.41 56.3347 224.867 56.8089 224.867 57.7221C224.867 58.4597 223.813 62.5692 221.706 62.5692C220.634 62.5692 220.424 61.6735 220.424 61.0237C220.424 60.1456 220.827 58.9163 221.302 57.6518C221.583 56.9318 221.653 56.7562 221.653 56.4049C221.653 55.6674 221.126 55 220.265 55C218.65 55 218 57.5465 218 57.687C218 57.7572 218.07 57.845 218.193 57.845C218.351 57.845 218.369 57.7748 218.439 57.5289C218.861 56.0186 219.545 55.3512 220.213 55.3512C220.371 55.3512 220.669 55.3512 220.669 55.9308C220.669 56.3874 220.476 56.8967 220.213 57.564C219.37 59.8119 219.37 60.3564 219.37 60.7778C219.37 61.1642 219.423 61.8842 219.967 62.376C220.599 62.9204 221.477 62.9204 221.635 62.9204C224.551 62.9204 225.552 57.1777 225.552 56.1766Z" fill="black"/>
<path d="M229.484 57.9212C229.484 57.6051 229.461 57.5934 229.145 57.5934C228.665 58.0617 228.044 58.3427 226.932 58.3427V58.729C227.248 58.729 227.88 58.729 228.559 58.4129V64.4191C228.559 64.8523 228.524 64.9928 227.412 64.9928H227.002V65.3791C227.482 65.344 228.489 65.344 229.016 65.344C229.543 65.344 230.561 65.344 231.041 65.3791V64.9928H230.632C229.519 64.9928 229.484 64.8523 229.484 64.4191V57.9212Z" fill="black"/>
<circle cx="225" cy="150" r="14" fill="white" stroke="black" stroke-width="2"/>
<path d="M225.552 146.177C225.552 145.07 224.99 145 224.849 145C224.428 145 224.041 145.421 224.041 145.773C224.041 145.983 224.164 146.106 224.234 146.177C224.41 146.335 224.867 146.809 224.867 147.722C224.867 148.46 223.813 152.569 221.706 152.569C220.634 152.569 220.424 151.673 220.424 151.024C220.424 150.146 220.827 148.916 221.302 147.652C221.583 146.932 221.653 146.756 221.653 146.405C221.653 145.667 221.126 145 220.265 145C218.65 145 218 147.546 218 147.687C218 147.757 218.07 147.845 218.193 147.845C218.351 147.845 218.369 147.775 218.439 147.529C218.861 146.019 219.545 145.351 220.213 145.351C220.371 145.351 220.669 145.351 220.669 145.931C220.669 146.387 220.476 146.897 220.213 147.564C219.37 149.812 219.37 150.356 219.37 150.778C219.37 151.164 219.423 151.884 219.967 152.376C220.599 152.92 221.477 152.92 221.635 152.92C224.551 152.92 225.552 147.178 225.552 146.177Z" fill="black"/>
<path d="M229.11 152.991C229.297 152.815 229.789 152.429 229.976 152.265C230.702 151.597 231.393 150.953 231.393 149.888C231.393 148.495 230.222 147.593 228.758 147.593C227.354 147.593 226.429 148.659 226.429 149.701C226.429 150.274 226.885 150.356 227.049 150.356C227.295 150.356 227.658 150.181 227.658 149.736C227.658 149.127 227.073 149.127 226.932 149.127C227.272 148.272 228.056 147.98 228.63 147.98C229.719 147.98 230.28 148.905 230.28 149.888C230.28 151.106 229.426 151.995 228.044 153.412L226.569 154.934C226.429 155.063 226.429 155.086 226.429 155.379H231.053L231.393 153.283H231.03C230.995 153.517 230.901 154.103 230.761 154.325C230.69 154.419 229.8 154.419 229.613 154.419H227.529L229.11 152.991Z" fill="black"/>
<circle cx="295" cy="105" r="14" fill="white" stroke="#3BB335" stroke-width="2"/>
<path d="M295.552 101.177C295.552 100.07 294.99 100 294.849 100C294.428 100 294.041 100.421 294.041 100.773C294.041 100.983 294.164 101.106 294.234 101.177C294.41 101.335 294.867 101.809 294.867 102.722C294.867 103.46 293.813 107.569 291.706 107.569C290.634 107.569 290.424 106.673 290.424 106.024C290.424 105.146 290.827 103.916 291.302 102.652C291.583 101.932 291.653 101.756 291.653 101.405C291.653 100.667 291.126 100 290.265 100C288.65 100 288 102.546 288 102.687C288 102.757 288.07 102.845 288.193 102.845C288.351 102.845 288.369 102.775 288.439 102.529C288.861 101.019 289.545 100.351 290.213 100.351C290.371 100.351 290.669 100.351 290.669 100.931C290.669 101.387 290.476 101.897 290.213 102.564C289.37 104.812 289.37 105.356 289.37 105.778C289.37 106.164 289.423 106.884 289.967 107.376C290.599 107.92 291.477 107.92 291.635 107.92C294.551 107.92 295.552 102.178 295.552 101.177Z" fill="#22661E"/>
<path d="M298.77 106.469C299.695 106.469 300.28 107.148 300.28 108.377C300.28 109.841 299.449 110.274 298.829 110.274C298.185 110.274 297.307 110.04 296.897 109.419C297.318 109.419 297.611 109.15 297.611 108.763C297.611 108.389 297.342 108.12 296.967 108.12C296.651 108.12 296.323 108.319 296.323 108.787C296.323 109.899 297.517 110.625 298.852 110.625C300.409 110.625 301.498 109.548 301.498 108.377C301.498 107.405 300.725 106.516 299.531 106.258C300.456 105.93 301.147 105.134 301.147 104.197C301.147 103.261 300.093 102.593 298.876 102.593C297.623 102.593 296.674 103.272 296.674 104.162C296.674 104.595 296.967 104.783 297.272 104.783C297.634 104.783 297.869 104.525 297.869 104.186C297.869 103.752 297.494 103.589 297.236 103.577C297.728 102.933 298.63 102.898 298.84 102.898C299.145 102.898 300.035 102.991 300.035 104.197C300.035 105.017 299.695 105.509 299.531 105.696C299.18 106.059 298.911 106.082 298.196 106.129C297.974 106.141 297.88 106.153 297.88 106.305C297.88 106.469 297.986 106.469 298.185 106.469H298.77Z" fill="#22661E"/>
<circle cx="365" cy="105" r="14" fill="white" stroke="black" stroke-width="2"/>
<path d="M365.552 101.177C365.552 100.07 364.99 100 364.849 100C364.428 100 364.041 100.421 364.041 100.773C364.041 100.983 364.164 101.106 364.234 101.177C364.41 101.335 364.867 101.809 364.867 102.722C364.867 103.46 363.813 107.569 361.706 107.569C360.634 107.569 360.424 106.673 360.424 106.024C360.424 105.146 360.827 103.916 361.302 102.652C361.583 101.932 361.653 101.756 361.653 101.405C361.653 100.667 361.126 100 360.265 100C358.65 100 358 102.546 358 102.687C358 102.757 358.07 102.845 358.193 102.845C358.351 102.845 358.369 102.775 358.439 102.529C358.861 101.019 359.545 100.351 360.213 100.351C360.371 100.351 360.669 100.351 360.669 100.931C360.669 101.387 360.476 101.897 360.213 102.564C359.37 104.812 359.37 105.356 359.37 105.778C359.37 106.164 359.423 106.884 359.967 107.376C360.599 107.92 361.477 107.92 361.635 107.92C364.551 107.92 365.552 102.178 365.552 101.177Z" fill="black"/>
<path d="M370.421 102.804C370.421 102.57 370.421 102.476 370.175 102.476C370.023 102.476 370.011 102.488 369.894 102.652L366.159 108.073V108.459H369.461V109.431C369.461 109.864 369.426 109.993 368.524 109.993H368.255V110.379C369.25 110.344 369.274 110.344 369.941 110.344C370.608 110.344 370.632 110.344 371.627 110.379V109.993H371.358C370.456 109.993 370.421 109.864 370.421 109.431V108.459H371.662V108.073H370.421V102.804ZM369.543 103.752V108.073H366.569L369.543 103.752Z" fill="black"/>
<path d="M85.4999 60L85.4812 59.2502L85.0546 59.2609L84.8458 59.633L85.4999 60ZM147 92.5L146.64 83.8472L139.326 88.4853L147 92.5ZM80 135.5L82.3707 127.171L73.9718 129.282L80 135.5ZM85.4999 60C85.5186 60.7497 85.5185 60.7497 85.5185 60.7497C85.5185 60.7497 85.5186 60.7497 85.5187 60.7497C85.519 60.7497 85.5197 60.7497 85.5206 60.7497C85.5225 60.7496 85.5256 60.7496 85.5298 60.7495C85.5384 60.7493 85.5517 60.749 85.5698 60.7488C85.6058 60.7482 85.6608 60.7475 85.7339 60.747C85.8801 60.7461 86.099 60.7461 86.3854 60.7499C86.9581 60.7576 87.8005 60.7806 88.8707 60.8425C91.0114 60.9661 94.0614 61.2446 97.686 61.8642C104.94 63.1042 114.469 65.7058 123.617 71.1446L124.383 69.8553C115.03 64.2941 105.31 61.6457 97.9388 60.3857C94.2509 59.7553 91.1446 59.4713 88.9572 59.345C87.8633 59.2818 86.9987 59.258 86.4055 59.25C86.1088 59.246 85.88 59.246 85.7242 59.247C85.6463 59.2475 85.5866 59.2483 85.5459 59.249C85.5256 59.2493 85.5099 59.2496 85.4991 59.2498C85.4937 59.2499 85.4895 59.25 85.4865 59.2501C85.485 59.2501 85.4838 59.2501 85.4829 59.2501C85.4825 59.2502 85.482 59.2502 85.4818 59.2502C85.4814 59.2502 85.4812 59.2502 85.4999 60ZM123.617 71.1446C133.696 77.1376 139.563 83.1161 142.794 87.2618L143.977 86.3396C140.631 82.0473 134.623 75.9441 124.383 69.8553L123.617 71.1446ZM85.4999 60C84.8458 59.633 84.8457 59.6332 84.8455 59.6335C84.8454 59.6337 84.8452 59.6341 84.845 59.6345C84.8445 59.6353 84.8439 59.6364 84.8431 59.6378C84.8415 59.6407 84.8392 59.6448 84.8363 59.6501C84.8303 59.6607 84.8217 59.6763 84.8104 59.6967C84.7879 59.7376 84.7548 59.7978 84.7119 59.8767C84.6261 60.0346 84.5011 60.2673 84.3426 60.5696C84.0255 61.174 83.5745 62.0565 83.0353 63.1741C81.9573 65.4088 80.526 68.5862 79.1102 72.3616C76.2839 79.8986 73.4965 89.879 73.7502 99.5197L75.2497 99.4802C75.0034 90.121 77.7161 80.3514 80.5147 72.8883C81.9114 69.1637 83.3238 66.0286 84.3864 63.8258C84.9175 62.7247 85.361 61.8572 85.6709 61.2663C85.8259 60.9709 85.9474 60.7446 86.0299 60.5929C86.0711 60.5171 86.1025 60.4598 86.1234 60.422C86.1339 60.403 86.1417 60.3889 86.1469 60.3797C86.1494 60.3751 86.1513 60.3717 86.1525 60.3696C86.1531 60.3685 86.1535 60.3677 86.1538 60.3673C86.1539 60.3671 86.154 60.367 86.154 60.3669C86.154 60.3668 86.154 60.3669 85.4999 60ZM73.7502 99.5197C74.0619 111.365 76.1116 122.426 77.6228 129.12L79.0859 128.789C77.5863 122.147 75.5579 111.19 75.2497 99.4802L73.7502 99.5197Z" fill="#B33535"/>
<path d="M87.1273 150.693L87.1944 151.44L85.9339 151.554L86.4399 150.394L87.1273 150.693ZM148.627 118.193L146.977 126.695L140.44 121.015L148.627 118.193ZM90 74.5001L96.2586 80.4859L87.9454 82.9131L90 74.5001ZM87.1273 150.693C87.0603 149.946 87.0602 149.946 87.0602 149.946C87.0602 149.946 87.0603 149.946 87.0604 149.946C87.0608 149.946 87.0614 149.946 87.0623 149.946C87.0641 149.946 87.0671 149.946 87.0712 149.945C87.0793 149.945 87.092 149.943 87.1092 149.942C87.1435 149.938 87.1956 149.933 87.265 149.926C87.4036 149.911 87.6112 149.888 87.883 149.855C88.4266 149.788 89.2269 149.68 90.2463 149.516C92.2854 149.189 95.2 148.638 98.6903 147.745C105.674 145.959 114.945 142.809 124.117 137.355L124.883 138.645C115.555 144.192 106.14 147.388 99.062 149.198C95.5216 150.104 92.5618 150.664 90.4842 150.998C89.4453 151.164 88.6266 151.275 88.0658 151.344C87.7854 151.378 87.5694 151.402 87.4226 151.418C87.3492 151.425 87.2931 151.431 87.2549 151.435C87.2358 151.437 87.2211 151.438 87.211 151.439C87.2059 151.439 87.202 151.44 87.1992 151.44C87.1979 151.44 87.1968 151.44 87.1959 151.44C87.1955 151.44 87.1951 151.44 87.1949 151.44C87.1946 151.44 87.1944 151.44 87.1273 150.693ZM124.117 137.355C133.921 131.526 140.073 126.326 143.673 122.756L144.729 123.821C141.039 127.481 134.788 132.755 124.883 138.645L124.117 137.355ZM87.1273 150.693C86.4399 150.394 86.4399 150.394 86.4399 150.394C86.4399 150.393 86.44 150.393 86.4401 150.393C86.4403 150.393 86.4406 150.392 86.441 150.391C86.4419 150.389 86.4433 150.386 86.4452 150.381C86.4489 150.373 86.4547 150.359 86.4623 150.342C86.4776 150.306 86.5006 150.252 86.5308 150.181C86.5911 150.038 86.6801 149.826 86.7939 149.548C87.0215 148.991 87.348 148.174 87.7419 147.132C88.5296 145.049 89.5859 142.073 90.6579 138.506C92.804 131.364 95.0027 121.887 95.2502 112.48L96.7497 112.52C96.4973 122.113 94.2596 131.733 92.0944 138.938C91.0107 142.544 89.9426 145.553 89.1449 147.663C88.7459 148.718 88.4145 149.548 88.1822 150.116C88.0661 150.399 87.9748 150.618 87.9122 150.766C87.8809 150.839 87.8568 150.896 87.8404 150.934C87.8322 150.953 87.8259 150.968 87.8216 150.978C87.8195 150.982 87.8178 150.986 87.8167 150.989C87.8161 150.99 87.8157 150.991 87.8154 150.992C87.8152 150.992 87.815 150.993 87.815 150.993C87.8149 150.993 87.8148 150.993 87.1273 150.693ZM95.2502 112.48C95.5679 100.41 93.0345 88.3162 91.1658 81.1678L92.617 80.7885C94.5003 87.9927 97.0728 100.244 96.7497 112.52L95.2502 112.48Z" fill="#B33535"/>
<path d="M155 105L85 60L85 150L155 105Z" stroke="black" stroke-width="2"/>
<circle cx="85" cy="60" r="14" fill="white" stroke="#B33535" stroke-width="2"/>
<path d="M85.5516 56.1766C85.5516 55.0702 84.9896 55 84.8491 55C84.4276 55 84.0413 55.4215 84.0413 55.7727C84.0413 55.9835 84.1642 56.1064 84.2344 56.1766C84.4101 56.3347 84.8667 56.8089 84.8667 57.7221C84.8667 58.4597 83.813 62.5692 81.7055 62.5692C80.6343 62.5692 80.4235 61.6735 80.4235 61.0237C80.4235 60.1456 80.8275 58.9163 81.3016 57.6518C81.5826 56.9318 81.6529 56.7562 81.6529 56.4049C81.6529 55.6674 81.126 55 80.2655 55C78.6498 55 78 57.5465 78 57.687C78 57.7572 78.0702 57.845 78.1932 57.845C78.3512 57.845 78.3688 57.7748 78.439 57.5289C78.8605 56.0186 79.5454 55.3512 80.2128 55.3512C80.3709 55.3512 80.6694 55.3512 80.6694 55.9308C80.6694 56.3874 80.4762 56.8967 80.2128 57.564C79.3698 59.8119 79.3698 60.3564 79.3698 60.7778C79.3698 61.1642 79.4225 61.8842 79.9669 62.376C80.5991 62.9204 81.4772 62.9204 81.6353 62.9204C84.5506 62.9204 85.5516 57.1777 85.5516 56.1766Z" fill="#B33535"/>
<path d="M89.4843 57.9212C89.4843 57.6051 89.4609 57.5934 89.1448 57.5934C88.6648 58.0617 88.0443 58.3427 86.932 58.3427V58.729C87.2481 58.729 87.8803 58.729 88.5594 58.4129V64.4191C88.5594 64.8523 88.5243 64.9928 87.412 64.9928H87.0023V65.3791C87.4823 65.344 88.4892 65.344 89.016 65.344C89.5429 65.344 90.5615 65.344 91.0415 65.3791V64.9928H90.6317C89.5195 64.9928 89.4843 64.8523 89.4843 64.4191V57.9212Z" fill="#B33535"/>
<circle cx="85" cy="150" r="14" fill="white" stroke="#B33535" stroke-width="2"/>
<path d="M85.5516 146.177C85.5516 145.07 84.9896 145 84.8491 145C84.4276 145 84.0413 145.421 84.0413 145.773C84.0413 145.983 84.1642 146.106 84.2344 146.177C84.4101 146.335 84.8667 146.809 84.8667 147.722C84.8667 148.46 83.813 152.569 81.7055 152.569C80.6343 152.569 80.4235 151.673 80.4235 151.024C80.4235 150.146 80.8275 148.916 81.3016 147.652C81.5826 146.932 81.6529 146.756 81.6529 146.405C81.6529 145.667 81.126 145 80.2655 145C78.6498 145 78 147.546 78 147.687C78 147.757 78.0702 147.845 78.1932 147.845C78.3512 147.845 78.3688 147.775 78.439 147.529C78.8605 146.019 79.5454 145.351 80.2128 145.351C80.3709 145.351 80.6694 145.351 80.6694 145.931C80.6694 146.387 80.4762 146.897 80.2128 147.564C79.3698 149.812 79.3698 150.356 79.3698 150.778C79.3698 151.164 79.4225 151.884 79.9669 152.376C80.5991 152.92 81.4772 152.92 81.6353 152.92C84.5506 152.92 85.5516 147.178 85.5516 146.177Z" fill="#B33535"/>
<path d="M89.1097 152.991C89.297 152.815 89.7888 152.429 89.9761 152.265C90.702 151.597 91.3927 150.953 91.3927 149.888C91.3927 148.495 90.2219 147.593 88.7585 147.593C87.3535 147.593 86.4286 148.659 86.4286 149.701C86.4286 150.274 86.8852 150.356 87.0491 150.356C87.295 150.356 87.6579 150.181 87.6579 149.736C87.6579 149.127 87.0725 149.127 86.932 149.127C87.2716 148.272 88.056 147.98 88.6297 147.98C89.7185 147.98 90.2805 148.905 90.2805 149.888C90.2805 151.106 89.4258 151.995 88.0443 153.412L86.5691 154.934C86.4286 155.063 86.4286 155.086 86.4286 155.379H91.0532L91.3927 153.283H91.0298C90.9947 153.517 90.901 154.103 90.7605 154.325C90.6903 154.419 89.8005 154.419 89.6131 154.419H87.5291L89.1097 152.991Z" fill="#B33535"/>
<circle cx="155" cy="105" r="14" fill="white" stroke="black" stroke-width="2"/>
<path d="M155.552 101.177C155.552 100.07 154.99 100 154.849 100C154.428 100 154.041 100.421 154.041 100.773C154.041 100.983 154.164 101.106 154.234 101.177C154.41 101.335 154.867 101.809 154.867 102.722C154.867 103.46 153.813 107.569 151.706 107.569C150.634 107.569 150.424 106.673 150.424 106.024C150.424 105.146 150.827 103.916 151.302 102.652C151.583 101.932 151.653 101.756 151.653 101.405C151.653 100.667 151.126 100 150.265 100C148.65 100 148 102.546 148 102.687C148 102.757 148.07 102.845 148.193 102.845C148.351 102.845 148.369 102.775 148.439 102.529C148.861 101.019 149.545 100.351 150.213 100.351C150.371 100.351 150.669 100.351 150.669 100.931C150.669 101.387 150.476 101.897 150.213 102.564C149.37 104.812 149.37 105.356 149.37 105.778C149.37 106.164 149.423 106.884 149.967 107.376C150.599 107.92 151.477 107.92 151.635 107.92C154.551 107.92 155.552 102.178 155.552 101.177Z" fill="black"/>
<path d="M158.77 106.469C159.695 106.469 160.28 107.148 160.28 108.377C160.28 109.841 159.449 110.274 158.829 110.274C158.185 110.274 157.307 110.04 156.897 109.419C157.318 109.419 157.611 109.15 157.611 108.763C157.611 108.389 157.342 108.12 156.967 108.12C156.651 108.12 156.323 108.319 156.323 108.787C156.323 109.899 157.517 110.625 158.852 110.625C160.409 110.625 161.498 109.548 161.498 108.377C161.498 107.405 160.725 106.516 159.531 106.258C160.456 105.93 161.147 105.134 161.147 104.197C161.147 103.261 160.093 102.593 158.876 102.593C157.623 102.593 156.674 103.272 156.674 104.162C156.674 104.595 156.967 104.783 157.272 104.783C157.634 104.783 157.869 104.525 157.869 104.186C157.869 103.752 157.494 103.589 157.236 103.577C157.728 102.933 158.63 102.898 158.84 102.898C159.145 102.898 160.035 102.991 160.035 104.197C160.035 105.017 159.695 105.509 159.531 105.696C159.18 106.059 158.911 106.082 158.196 106.129C157.974 106.141 157.88 106.153 157.88 106.305C157.88 106.469 157.986 106.469 158.185 106.469H158.77Z" fill="black"/>
<circle cx="15" cy="75" r="14" fill="white" stroke="#355FB3" stroke-width="2"/>
<path d="M15.5516 71.1766C15.5516 70.0702 14.9896 70 14.8491 70C14.4276 70 14.0413 70.4215 14.0413 70.7727C14.0413 70.9835 14.1642 71.1064 14.2344 71.1766C14.4101 71.3347 14.8667 71.8089 14.8667 72.7221C14.8667 73.4597 13.813 77.5692 11.7055 77.5692C10.6343 77.5692 10.4235 76.6735 10.4235 76.0237C10.4235 75.1456 10.8275 73.9163 11.3016 72.6518C11.5826 71.9318 11.6529 71.7562 11.6529 71.4049C11.6529 70.6674 11.126 70 10.2655 70C8.64979 70 8 72.5465 8 72.687C8 72.7572 8.07025 72.845 8.19318 72.845C8.35124 72.845 8.3688 72.7748 8.43905 72.5289C8.86053 71.0186 9.54543 70.3512 10.2128 70.3512C10.3709 70.3512 10.6694 70.3512 10.6694 70.9308C10.6694 71.3874 10.4762 71.8967 10.2128 72.564C9.36982 74.8119 9.36982 75.3564 9.36982 75.7778C9.36982 76.1642 9.42251 76.8842 9.96693 77.376C10.5991 77.9204 11.4772 77.9204 11.6353 77.9204C14.5506 77.9204 15.5516 72.1777 15.5516 71.1766Z" fill="#355FB3"/>
<path d="M19.1097 77.9906C19.297 77.815 19.7888 77.4286 19.9761 77.2647C20.702 76.5973 21.3927 75.9534 21.3927 74.888C21.3927 73.4948 20.2219 72.5933 18.7585 72.5933C17.3535 72.5933 16.4286 73.6587 16.4286 74.7007C16.4286 75.2744 16.8852 75.3563 17.0491 75.3563C17.295 75.3563 17.6579 75.1807 17.6579 74.7358C17.6579 74.127 17.0725 74.127 16.932 74.127C17.2716 73.2723 18.056 72.9796 18.6297 72.9796C19.7185 72.9796 20.2805 73.9045 20.2805 74.888C20.2805 76.1056 19.4258 76.9954 18.0443 78.4121L16.5691 79.9341C16.4286 80.0629 16.4286 80.0863 16.4286 80.379H21.0532L21.3927 78.2833H21.0298C20.9947 78.5174 20.901 79.1028 20.7605 79.3253C20.6903 79.419 19.8005 79.419 19.6131 79.419H17.5291L19.1097 77.9906Z" fill="#355FB3"/>
<circle cx="15" cy="135" r="14" fill="white" stroke="#355FB3" stroke-width="2"/>
<path d="M15.5516 131.177C15.5516 130.07 14.9896 130 14.8491 130C14.4276 130 14.0413 130.421 14.0413 130.773C14.0413 130.983 14.1642 131.106 14.2344 131.177C14.4101 131.335 14.8667 131.809 14.8667 132.722C14.8667 133.46 13.813 137.569 11.7055 137.569C10.6343 137.569 10.4235 136.673 10.4235 136.024C10.4235 135.146 10.8275 133.916 11.3016 132.652C11.5826 131.932 11.6529 131.756 11.6529 131.405C11.6529 130.667 11.126 130 10.2655 130C8.64979 130 8 132.546 8 132.687C8 132.757 8.07025 132.845 8.19318 132.845C8.35124 132.845 8.3688 132.775 8.43905 132.529C8.86053 131.019 9.54543 130.351 10.2128 130.351C10.3709 130.351 10.6694 130.351 10.6694 130.931C10.6694 131.387 10.4762 131.897 10.2128 132.564C9.36982 134.812 9.36982 135.356 9.36982 135.778C9.36982 136.164 9.42251 136.884 9.96693 137.376C10.5991 137.92 11.4772 137.92 11.6353 137.92C14.5506 137.92 15.5516 132.178 15.5516 131.177Z" fill="#355FB3"/>
<path d="M18.7701 136.469C19.6951 136.469 20.2804 137.148 20.2804 138.377C20.2804 139.841 19.4492 140.274 18.8287 140.274C18.1847 140.274 17.3066 140.04 16.8969 139.419C17.3183 139.419 17.6111 139.15 17.6111 138.763C17.6111 138.389 17.3418 138.12 16.9671 138.12C16.651 138.12 16.3232 138.319 16.3232 138.787C16.3232 139.899 17.5174 140.625 18.8521 140.625C20.4092 140.625 21.4981 139.548 21.4981 138.377C21.4981 137.405 20.7254 136.516 19.5311 136.258C20.4561 135.93 21.1468 135.134 21.1468 134.197C21.1468 133.261 20.0931 132.593 18.8755 132.593C17.6228 132.593 16.6744 133.272 16.6744 134.162C16.6744 134.595 16.9671 134.783 17.2715 134.783C17.6345 134.783 17.8686 134.525 17.8686 134.186C17.8686 133.752 17.494 133.589 17.2364 133.577C17.7281 132.933 18.6296 132.898 18.8404 132.898C19.1448 132.898 20.0346 132.991 20.0346 134.197C20.0346 135.017 19.6951 135.509 19.5311 135.696C19.1799 136.059 18.9106 136.082 18.1964 136.129C17.974 136.141 17.8803 136.153 17.8803 136.305C17.8803 136.469 17.9857 136.469 18.1847 136.469H18.7701Z" fill="#355FB3"/>
<circle cx="15" cy="195" r="14" fill="white" stroke="#355FB3" stroke-width="2"/>
<path d="M15.5516 191.177C15.5516 190.07 14.9896 190 14.8491 190C14.4276 190 14.0413 190.421 14.0413 190.773C14.0413 190.983 14.1642 191.106 14.2344 191.177C14.4101 191.335 14.8667 191.809 14.8667 192.722C14.8667 193.46 13.813 197.569 11.7055 197.569C10.6343 197.569 10.4235 196.673 10.4235 196.024C10.4235 195.146 10.8275 193.916 11.3016 192.652C11.5826 191.932 11.6529 191.756 11.6529 191.405C11.6529 190.667 11.126 190 10.2655 190C8.64979 190 8 192.546 8 192.687C8 192.757 8.07025 192.845 8.19318 192.845C8.35124 192.845 8.3688 192.775 8.43905 192.529C8.86053 191.019 9.54543 190.351 10.2128 190.351C10.3709 190.351 10.6694 190.351 10.6694 190.931C10.6694 191.387 10.4762 191.897 10.2128 192.564C9.36982 194.812 9.36982 195.356 9.36982 195.778C9.36982 196.164 9.42251 196.884 9.96693 197.376C10.5991 197.92 11.4772 197.92 11.6353 197.92C14.5506 197.92 15.5516 192.178 15.5516 191.177Z" fill="#355FB3"/>
<path d="M20.421 192.804C20.421 192.57 20.421 192.476 20.1751 192.476C20.0229 192.476 20.0112 192.488 19.8941 192.652L16.1593 198.073V198.459H19.4609V199.431C19.4609 199.864 19.4258 199.993 18.5243 199.993H18.255V200.379C19.2502 200.344 19.2736 200.344 19.941 200.344C20.6083 200.344 20.6317 200.344 21.6269 200.379V199.993H21.3576C20.4561 199.993 20.421 199.864 20.421 199.431V198.459H21.662V198.073H20.421V192.804ZM19.5429 193.752V198.073H16.5691L19.5429 193.752Z" fill="#355FB3"/>
<circle cx="15" cy="15" r="14" fill="white" stroke="#355FB3" stroke-width="2"/>
<path d="M15.5516 11.1766C15.5516 10.0702 14.9896 10 14.8491 10C14.4276 10 14.0413 10.4215 14.0413 10.7727C14.0413 10.9835 14.1642 11.1064 14.2344 11.1766C14.4101 11.3347 14.8667 11.8089 14.8667 12.7221C14.8667 13.4597 13.813 17.5692 11.7055 17.5692C10.6343 17.5692 10.4235 16.6735 10.4235 16.0237C10.4235 15.1456 10.8275 13.9163 11.3016 12.6518C11.5826 11.9318 11.6529 11.7562 11.6529 11.4049C11.6529 10.6674 11.126 10 10.2655 10C8.64979 10 8 12.5465 8 12.687C8 12.7572 8.07025 12.845 8.19318 12.845C8.35124 12.845 8.3688 12.7748 8.43905 12.5289C8.86053 11.0186 9.54543 10.3512 10.2128 10.3512C10.3709 10.3512 10.6694 10.3512 10.6694 10.9308C10.6694 11.3874 10.4762 11.8967 10.2128 12.564C9.36982 14.8119 9.36982 15.3564 9.36982 15.7778C9.36982 16.1642 9.42251 16.8842 9.96693 17.376C10.5991 17.9204 11.4772 17.9204 11.6353 17.9204C14.5506 17.9204 15.5516 12.1777 15.5516 11.1766Z" fill="#355FB3"/>
<path d="M19.4843 12.9212C19.4843 12.6051 19.4609 12.5934 19.1448 12.5934C18.6648 13.0617 18.0443 13.3427 16.932 13.3427V13.729C17.2481 13.729 17.8803 13.729 18.5594 13.4129V19.4191C18.5594 19.8523 18.5243 19.9928 17.412 19.9928H17.0023V20.3791C17.4823 20.344 18.4892 20.344 19.016 20.344C19.5429 20.344 20.5615 20.344 21.0415 20.3791V19.9928H20.6317C19.5195 19.9928 19.4843 19.8523 19.4843 19.4191V12.9212Z" fill="#355FB3"/>
<path d="M449 99.5L457.144 102.445L455.622 93.9195L449 99.5ZM505.796 104.811C496.114 100.655 488.291 98.0878 480.504 96.9419C472.711 95.795 464.994 96.0774 455.529 97.5731L455.763 99.0547C465.127 97.575 472.684 97.3073 480.285 98.4259C487.892 99.5453 495.581 102.059 505.204 106.189L505.796 104.811Z" fill="#B39735"/>
<path d="M435 105L505 105" stroke="black" stroke-width="2"/>
<circle cx="435" cy="105" r="14" fill="white" stroke="black" stroke-width="2"/>
<path d="M435.552 101.177C435.552 100.07 434.99 100 434.849 100C434.428 100 434.041 100.421 434.041 100.773C434.041 100.983 434.164 101.106 434.234 101.177C434.41 101.335 434.867 101.809 434.867 102.722C434.867 103.46 433.813 107.569 431.706 107.569C430.634 107.569 430.424 106.673 430.424 106.024C430.424 105.146 430.827 103.916 431.302 102.652C431.583 101.932 431.653 101.756 431.653 101.405C431.653 100.667 431.126 100 430.265 100C428.65 100 428 102.546 428 102.687C428 102.757 428.07 102.845 428.193 102.845C428.351 102.845 428.369 102.775 428.439 102.529C428.861 101.019 429.545 100.351 430.213 100.351C430.371 100.351 430.669 100.351 430.669 100.931C430.669 101.387 430.476 101.897 430.213 102.564C429.37 104.812 429.37 105.356 429.37 105.778C429.37 106.164 429.423 106.884 429.967 107.376C430.599 107.92 431.477 107.92 431.635 107.92C434.551 107.92 435.552 102.178 435.552 101.177Z" fill="black"/>
<path d="M438.77 106.469C439.695 106.469 440.28 107.148 440.28 108.377C440.28 109.841 439.449 110.274 438.829 110.274C438.185 110.274 437.307 110.04 436.897 109.419C437.318 109.419 437.611 109.15 437.611 108.763C437.611 108.389 437.342 108.12 436.967 108.12C436.651 108.12 436.323 108.319 436.323 108.787C436.323 109.899 437.517 110.625 438.852 110.625C440.409 110.625 441.498 109.548 441.498 108.377C441.498 107.405 440.725 106.516 439.531 106.258C440.456 105.93 441.147 105.134 441.147 104.197C441.147 103.261 440.093 102.593 438.875 102.593C437.623 102.593 436.674 103.272 436.674 104.162C436.674 104.595 436.967 104.783 437.271 104.783C437.634 104.783 437.869 104.525 437.869 104.186C437.869 103.752 437.494 103.589 437.236 103.577C437.728 102.933 438.63 102.898 438.84 102.898C439.145 102.898 440.035 102.991 440.035 104.197C440.035 105.017 439.695 105.509 439.531 105.696C439.18 106.059 438.911 106.082 438.196 106.129C437.974 106.141 437.88 106.153 437.88 106.305C437.88 106.469 437.986 106.469 438.185 106.469H438.77Z" fill="black"/>
<circle cx="505" cy="105" r="14" fill="white" stroke="#B39735" stroke-width="2"/>
<path d="M505.552 101.177C505.552 100.07 504.99 100 504.849 100C504.428 100 504.041 100.421 504.041 100.773C504.041 100.983 504.164 101.106 504.234 101.177C504.41 101.335 504.867 101.809 504.867 102.722C504.867 103.46 503.813 107.569 501.706 107.569C500.634 107.569 500.424 106.673 500.424 106.024C500.424 105.146 500.827 103.916 501.302 102.652C501.583 101.932 501.653 101.756 501.653 101.405C501.653 100.667 501.126 100 500.265 100C498.65 100 498 102.546 498 102.687C498 102.757 498.07 102.845 498.193 102.845C498.351 102.845 498.369 102.775 498.439 102.529C498.861 101.019 499.545 100.351 500.213 100.351C500.371 100.351 500.669 100.351 500.669 100.931C500.669 101.387 500.476 101.897 500.213 102.564C499.37 104.812 499.37 105.356 499.37 105.778C499.37 106.164 499.423 106.884 499.967 107.376C500.599 107.92 501.477 107.92 501.635 107.92C504.551 107.92 505.552 102.178 505.552 101.177Z" fill="#66571E"/>
<path d="M510.421 102.804C510.421 102.57 510.421 102.476 510.175 102.476C510.023 102.476 510.011 102.488 509.894 102.652L506.159 108.073V108.459H509.461V109.431C509.461 109.864 509.426 109.993 508.524 109.993H508.255V110.379C509.25 110.344 509.274 110.344 509.941 110.344C510.608 110.344 510.632 110.344 511.627 110.379V109.993H511.358C510.456 109.993 510.421 109.864 510.421 109.431V108.459H511.662V108.073H510.421V102.804ZM509.543 103.752V108.073H506.569L509.543 103.752Z" fill="#66571E"/>
</svg>
