<svg width="445" height="161" viewBox="0 0 445 161" fill="none" xmlns="http://www.w3.org/2000/svg">
<path d="M71.7041 17H70.0781V7.49023H71.7041V17ZM69.9463 4.96777C69.9463 4.7041 70.0254 4.48145 70.1836 4.2998C70.3477 4.11816 70.5879 4.02734 70.9043 4.02734C71.2207 4.02734 71.4609 4.11816 71.625 4.2998C71.7891 4.48145 71.8711 4.7041 71.8711 4.96777C71.8711 5.23145 71.7891 5.45117 71.625 5.62695C71.4609 5.80273 71.2207 5.89062 70.9043 5.89062C70.5879 5.89062 70.3477 5.80273 70.1836 5.62695C70.0254 5.45117 69.9463 5.23145 69.9463 4.96777ZM86.2148 9.8457H78.8848V8.43066H86.2148V9.8457ZM86.2148 13.4932H78.8848V12.0869H86.2148V13.4932ZM100.98 11.542C100.98 13.4463 100.655 14.8613 100.005 15.7871C99.3545 16.7129 98.3379 17.1758 96.9551 17.1758C95.5898 17.1758 94.5791 16.7246 93.9229 15.8223C93.2666 14.9141 92.9268 13.5605 92.9033 11.7617V9.59082C92.9033 7.70996 93.2285 6.3125 93.8789 5.39844C94.5293 4.48438 95.5488 4.02734 96.9375 4.02734C98.3145 4.02734 99.3281 4.46973 99.9785 5.35449C100.629 6.2334 100.963 7.59277 100.98 9.43262V11.542ZM99.3545 9.31836C99.3545 7.94141 99.1611 6.93945 98.7744 6.3125C98.3877 5.67969 97.7754 5.36328 96.9375 5.36328C96.1055 5.36328 95.499 5.67676 95.1182 6.30371C94.7373 6.93066 94.541 7.89453 94.5293 9.19531V11.7969C94.5293 13.1797 94.7285 14.2021 95.127 14.8643C95.5312 15.5205 96.1406 15.8486 96.9551 15.8486C97.7578 15.8486 98.3525 15.5381 98.7393 14.917C99.1318 14.2959 99.3369 13.3174 99.3545 11.9814V9.31836Z" fill="black"/>
<path d="M346.704 17H345.078V7.49023H346.704V17ZM344.946 4.96777C344.946 4.7041 345.025 4.48145 345.184 4.2998C345.348 4.11816 345.588 4.02734 345.904 4.02734C346.221 4.02734 346.461 4.11816 346.625 4.2998C346.789 4.48145 346.871 4.7041 346.871 4.96777C346.871 5.23145 346.789 5.45117 346.625 5.62695C346.461 5.80273 346.221 5.89062 345.904 5.89062C345.588 5.89062 345.348 5.80273 345.184 5.62695C345.025 5.45117 344.946 5.23145 344.946 4.96777ZM361.215 9.8457H353.885V8.43066H361.215V9.8457ZM361.215 13.4932H353.885V12.0869H361.215V13.4932ZM373.3 17H371.665V6.16309L368.387 7.36719V5.89062L373.045 4.1416H373.3V17Z" fill="black"/>
<path d="M85 101L155 101M85 101L15 56L15 146L85 101Z" stroke="black" stroke-width="2"/>
<circle cx="15" cy="56" r="14" fill="white" stroke="#355FB3" stroke-width="2"/>
<path d="M15.5516 52.1766C15.5516 51.0702 14.9896 51 14.8491 51C14.4276 51 14.0413 51.4215 14.0413 51.7727C14.0413 51.9835 14.1642 52.1064 14.2344 52.1766C14.4101 52.3347 14.8667 52.8089 14.8667 53.7221C14.8667 54.4597 13.813 58.5692 11.7055 58.5692C10.6343 58.5692 10.4235 57.6735 10.4235 57.0237C10.4235 56.1456 10.8275 54.9163 11.3016 53.6518C11.5826 52.9318 11.6529 52.7562 11.6529 52.4049C11.6529 51.6674 11.126 51 10.2655 51C8.64979 51 8 53.5465 8 53.687C8 53.7572 8.07025 53.845 8.19318 53.845C8.35124 53.845 8.3688 53.7748 8.43905 53.5289C8.86053 52.0186 9.54543 51.3512 10.2128 51.3512C10.3709 51.3512 10.6694 51.3512 10.6694 51.9308C10.6694 52.3874 10.4762 52.8967 10.2128 53.564C9.36982 55.8119 9.36982 56.3564 9.36982 56.7778C9.36982 57.1642 9.42251 57.8842 9.96693 58.376C10.5991 58.9204 11.4772 58.9204 11.6353 58.9204C14.5506 58.9204 15.5516 53.1777 15.5516 52.1766Z" fill="#355FB3"/>
<path d="M19.4843 53.9212C19.4843 53.6051 19.4609 53.5934 19.1448 53.5934C18.6648 54.0617 18.0443 54.3427 16.932 54.3427V54.729C17.2481 54.729 17.8803 54.729 18.5594 54.4129V60.4191C18.5594 60.8523 18.5243 60.9928 17.412 60.9928H17.0023V61.3791C17.4823 61.344 18.4892 61.344 19.016 61.344C19.5429 61.344 20.5615 61.344 21.0415 61.3791V60.9928H20.6317C19.5195 60.9928 19.4843 60.8523 19.4843 60.4191V53.9212Z" fill="#355FB3"/>
<circle cx="15" cy="146" r="14" fill="white" stroke="#355FB3" stroke-width="2"/>
<path d="M15.5516 142.177C15.5516 141.07 14.9896 141 14.8491 141C14.4276 141 14.0413 141.421 14.0413 141.773C14.0413 141.983 14.1642 142.106 14.2344 142.177C14.4101 142.335 14.8667 142.809 14.8667 143.722C14.8667 144.46 13.813 148.569 11.7055 148.569C10.6343 148.569 10.4235 147.673 10.4235 147.024C10.4235 146.146 10.8275 144.916 11.3016 143.652C11.5826 142.932 11.6529 142.756 11.6529 142.405C11.6529 141.667 11.126 141 10.2655 141C8.64979 141 8 143.546 8 143.687C8 143.757 8.07025 143.845 8.19318 143.845C8.35124 143.845 8.3688 143.775 8.43905 143.529C8.86053 142.019 9.54543 141.351 10.2128 141.351C10.3709 141.351 10.6694 141.351 10.6694 141.931C10.6694 142.387 10.4762 142.897 10.2128 143.564C9.36982 145.812 9.36982 146.356 9.36982 146.778C9.36982 147.164 9.42251 147.884 9.96693 148.376C10.5991 148.92 11.4772 148.92 11.6353 148.92C14.5506 148.92 15.5516 143.178 15.5516 142.177Z" fill="#355FB3"/>
<path d="M19.1097 148.991C19.297 148.815 19.7888 148.429 19.9761 148.265C20.702 147.597 21.3927 146.953 21.3927 145.888C21.3927 144.495 20.2219 143.593 18.7585 143.593C17.3535 143.593 16.4286 144.659 16.4286 145.701C16.4286 146.274 16.8852 146.356 17.0491 146.356C17.295 146.356 17.6579 146.181 17.6579 145.736C17.6579 145.127 17.0725 145.127 16.932 145.127C17.2716 144.272 18.056 143.98 18.6297 143.98C19.7185 143.98 20.2805 144.905 20.2805 145.888C20.2805 147.106 19.4258 147.995 18.0443 149.412L16.5691 150.934C16.4286 151.063 16.4286 151.086 16.4286 151.379H21.0532L21.3927 149.283H21.0298C20.9947 149.517 20.901 150.103 20.7605 150.325C20.6903 150.419 19.8005 150.419 19.6131 150.419H17.5291L19.1097 148.991Z" fill="#355FB3"/>
<circle cx="85" cy="101" r="14" fill="white" stroke="#355FB3" stroke-width="2"/>
<path d="M85.5516 97.1766C85.5516 96.0702 84.9896 96 84.8491 96C84.4276 96 84.0413 96.4215 84.0413 96.7727C84.0413 96.9835 84.1642 97.1064 84.2344 97.1766C84.4101 97.3347 84.8667 97.8089 84.8667 98.7221C84.8667 99.4597 83.813 103.569 81.7055 103.569C80.6343 103.569 80.4235 102.673 80.4235 102.024C80.4235 101.146 80.8275 99.9163 81.3016 98.6518C81.5826 97.9318 81.6529 97.7562 81.6529 97.4049C81.6529 96.6674 81.126 96 80.2655 96C78.6498 96 78 98.5465 78 98.687C78 98.7572 78.0702 98.845 78.1932 98.845C78.3512 98.845 78.3688 98.7748 78.439 98.5289C78.8605 97.0186 79.5454 96.3512 80.2128 96.3512C80.3709 96.3512 80.6694 96.3512 80.6694 96.9308C80.6694 97.3874 80.4762 97.8967 80.2128 98.564C79.3698 100.812 79.3698 101.356 79.3698 101.778C79.3698 102.164 79.4225 102.884 79.9669 103.376C80.5991 103.92 81.4772 103.92 81.6353 103.92C84.5506 103.92 85.5516 98.1777 85.5516 97.1766Z" fill="#355FB3"/>
<path d="M88.7701 102.469C89.6951 102.469 90.2804 103.148 90.2804 104.377C90.2804 105.841 89.4492 106.274 88.8287 106.274C88.1847 106.274 87.3066 106.04 86.8969 105.419C87.3183 105.419 87.6111 105.15 87.6111 104.763C87.6111 104.389 87.3418 104.12 86.9671 104.12C86.651 104.12 86.3232 104.319 86.3232 104.787C86.3232 105.899 87.5174 106.625 88.8521 106.625C90.4092 106.625 91.4981 105.548 91.4981 104.377C91.4981 103.405 90.7254 102.516 89.5311 102.258C90.4561 101.93 91.1468 101.134 91.1468 100.197C91.1468 99.2607 90.0931 98.5934 88.8755 98.5934C87.6228 98.5934 86.6744 99.2724 86.6744 100.162C86.6744 100.595 86.9671 100.783 87.2715 100.783C87.6345 100.783 87.8686 100.525 87.8686 100.186C87.8686 99.7525 87.494 99.5885 87.2364 99.5768C87.7281 98.9329 88.6296 98.8978 88.8404 98.8978C89.1448 98.8978 90.0346 98.9914 90.0346 100.197C90.0346 101.017 89.6951 101.509 89.5311 101.696C89.1799 102.059 88.9106 102.082 88.1964 102.129C87.974 102.141 87.8803 102.153 87.8803 102.305C87.8803 102.469 87.9857 102.469 88.1847 102.469H88.7701Z" fill="#355FB3"/>
<circle cx="155" cy="101" r="14" fill="white" stroke="#355FB3" stroke-width="2"/>
<path d="M155.552 97.1766C155.552 96.0702 154.99 96 154.849 96C154.428 96 154.041 96.4215 154.041 96.7727C154.041 96.9835 154.164 97.1064 154.234 97.1766C154.41 97.3347 154.867 97.8089 154.867 98.7221C154.867 99.4597 153.813 103.569 151.706 103.569C150.634 103.569 150.424 102.673 150.424 102.024C150.424 101.146 150.827 99.9163 151.302 98.6518C151.583 97.9318 151.653 97.7562 151.653 97.4049C151.653 96.6674 151.126 96 150.265 96C148.65 96 148 98.5465 148 98.687C148 98.7572 148.07 98.845 148.193 98.845C148.351 98.845 148.369 98.7748 148.439 98.5289C148.861 97.0186 149.545 96.3512 150.213 96.3512C150.371 96.3512 150.669 96.3512 150.669 96.9308C150.669 97.3874 150.476 97.8967 150.213 98.564C149.37 100.812 149.37 101.356 149.37 101.778C149.37 102.164 149.423 102.884 149.967 103.376C150.599 103.92 151.477 103.92 151.635 103.92C154.551 103.92 155.552 98.1777 155.552 97.1766Z" fill="#355FB3"/>
<path d="M160.421 98.804C160.421 98.5699 160.421 98.4762 160.175 98.4762C160.023 98.4762 160.011 98.4879 159.894 98.6518L156.159 104.073V104.459H159.461V105.431C159.461 105.864 159.426 105.993 158.524 105.993H158.255V106.379C159.25 106.344 159.274 106.344 159.941 106.344C160.608 106.344 160.632 106.344 161.627 106.379V105.993H161.358C160.456 105.993 160.421 105.864 160.421 105.431V104.459H161.662V104.073H160.421V98.804ZM159.543 99.7524V104.073H156.569L159.543 99.7524Z" fill="#355FB3"/>
<path d="M42.1265 58.2168H37.6587L36.6553 61H35.2051L39.2773 50.3359H40.5078L44.5874 61H43.1445L42.1265 58.2168ZM38.0835 57.0596H41.709L39.8926 52.0718L38.0835 57.0596Z" fill="#355FB3"/>
<path d="M87.1265 129.217H82.6587L81.6553 132H80.2051L84.2773 121.336H85.5078L89.5874 132H88.1445L87.1265 129.217ZM83.0835 128.06H86.709L84.8926 123.072L83.0835 128.06Z" fill="#355FB3"/>
<path d="M157.126 129.217H152.659L151.655 132H150.205L154.277 121.336H155.508L159.587 132H158.145L157.126 129.217ZM153.083 128.06H156.709L154.893 123.072L153.083 128.06Z" fill="#355FB3"/>
<path d="M42.1265 148.217H37.6587L36.6553 151H35.2051L39.2773 140.336H40.5078L44.5874 151H43.1445L42.1265 148.217ZM38.0835 147.06H41.709L39.8926 142.072L38.0835 147.06Z" fill="#355FB3"/>
<path d="M360 101L430 101M360 101L290 56L290 146L360 101Z" stroke="black" stroke-width="2"/>
<circle cx="290" cy="56" r="14" fill="white" stroke="#B33535" stroke-width="2"/>
<path d="M290.552 52.1766C290.552 51.0702 289.99 51 289.849 51C289.428 51 289.041 51.4215 289.041 51.7727C289.041 51.9835 289.164 52.1064 289.234 52.1766C289.41 52.3347 289.867 52.8089 289.867 53.7221C289.867 54.4597 288.813 58.5692 286.706 58.5692C285.634 58.5692 285.424 57.6735 285.424 57.0237C285.424 56.1456 285.827 54.9163 286.302 53.6518C286.583 52.9318 286.653 52.7562 286.653 52.4049C286.653 51.6674 286.126 51 285.265 51C283.65 51 283 53.5465 283 53.687C283 53.7572 283.07 53.845 283.193 53.845C283.351 53.845 283.369 53.7748 283.439 53.5289C283.861 52.0186 284.545 51.3512 285.213 51.3512C285.371 51.3512 285.669 51.3512 285.669 51.9308C285.669 52.3874 285.476 52.8967 285.213 53.564C284.37 55.8119 284.37 56.3564 284.37 56.7778C284.37 57.1642 284.423 57.8842 284.967 58.376C285.599 58.9204 286.477 58.9204 286.635 58.9204C289.551 58.9204 290.552 53.1777 290.552 52.1766Z" fill="#B33535"/>
<path d="M294.484 53.9212C294.484 53.6051 294.461 53.5934 294.145 53.5934C293.665 54.0617 293.044 54.3427 291.932 54.3427V54.729C292.248 54.729 292.88 54.729 293.559 54.4129V60.4191C293.559 60.8523 293.524 60.9928 292.412 60.9928H292.002V61.3791C292.482 61.344 293.489 61.344 294.016 61.344C294.543 61.344 295.561 61.344 296.041 61.3791V60.9928H295.632C294.519 60.9928 294.484 60.8523 294.484 60.4191V53.9212Z" fill="#B33535"/>
<circle cx="290" cy="146" r="14" fill="white" stroke="#B33535" stroke-width="2"/>
<path d="M290.552 142.177C290.552 141.07 289.99 141 289.849 141C289.428 141 289.041 141.421 289.041 141.773C289.041 141.983 289.164 142.106 289.234 142.177C289.41 142.335 289.867 142.809 289.867 143.722C289.867 144.46 288.813 148.569 286.706 148.569C285.634 148.569 285.424 147.673 285.424 147.024C285.424 146.146 285.827 144.916 286.302 143.652C286.583 142.932 286.653 142.756 286.653 142.405C286.653 141.667 286.126 141 285.265 141C283.65 141 283 143.546 283 143.687C283 143.757 283.07 143.845 283.193 143.845C283.351 143.845 283.369 143.775 283.439 143.529C283.861 142.019 284.545 141.351 285.213 141.351C285.371 141.351 285.669 141.351 285.669 141.931C285.669 142.387 285.476 142.897 285.213 143.564C284.37 145.812 284.37 146.356 284.37 146.778C284.37 147.164 284.423 147.884 284.967 148.376C285.599 148.92 286.477 148.92 286.635 148.92C289.551 148.92 290.552 143.178 290.552 142.177Z" fill="#B33535"/>
<path d="M294.11 148.991C294.297 148.815 294.789 148.429 294.976 148.265C295.702 147.597 296.393 146.953 296.393 145.888C296.393 144.495 295.222 143.593 293.758 143.593C292.354 143.593 291.429 144.659 291.429 145.701C291.429 146.274 291.885 146.356 292.049 146.356C292.295 146.356 292.658 146.181 292.658 145.736C292.658 145.127 292.073 145.127 291.932 145.127C292.272 144.272 293.056 143.98 293.63 143.98C294.719 143.98 295.28 144.905 295.28 145.888C295.28 147.106 294.426 147.995 293.044 149.412L291.569 150.934C291.429 151.063 291.429 151.086 291.429 151.379H296.053L296.393 149.283H296.03C295.995 149.517 295.901 150.103 295.761 150.325C295.69 150.419 294.8 150.419 294.613 150.419H292.529L294.11 148.991Z" fill="#B33535"/>
<circle cx="360" cy="101" r="14" fill="white" stroke="#3BB335" stroke-width="2"/>
<path d="M360.552 97.1766C360.552 96.0702 359.99 96 359.849 96C359.428 96 359.041 96.4215 359.041 96.7727C359.041 96.9835 359.164 97.1064 359.234 97.1766C359.41 97.3347 359.867 97.8089 359.867 98.7221C359.867 99.4597 358.813 103.569 356.706 103.569C355.634 103.569 355.424 102.673 355.424 102.024C355.424 101.146 355.827 99.9163 356.302 98.6518C356.583 97.9318 356.653 97.7562 356.653 97.4049C356.653 96.6674 356.126 96 355.265 96C353.65 96 353 98.5465 353 98.687C353 98.7572 353.07 98.845 353.193 98.845C353.351 98.845 353.369 98.7748 353.439 98.5289C353.861 97.0186 354.545 96.3512 355.213 96.3512C355.371 96.3512 355.669 96.3512 355.669 96.9308C355.669 97.3874 355.476 97.8967 355.213 98.564C354.37 100.812 354.37 101.356 354.37 101.778C354.37 102.164 354.423 102.884 354.967 103.376C355.599 103.92 356.477 103.92 356.635 103.92C359.551 103.92 360.552 98.1777 360.552 97.1766Z" fill="#22661E"/>
<path d="M363.77 102.469C364.695 102.469 365.28 103.148 365.28 104.377C365.28 105.841 364.449 106.274 363.829 106.274C363.185 106.274 362.307 106.04 361.897 105.419C362.318 105.419 362.611 105.15 362.611 104.763C362.611 104.389 362.342 104.12 361.967 104.12C361.651 104.12 361.323 104.319 361.323 104.787C361.323 105.899 362.517 106.625 363.852 106.625C365.409 106.625 366.498 105.548 366.498 104.377C366.498 103.405 365.725 102.516 364.531 102.258C365.456 101.93 366.147 101.134 366.147 100.197C366.147 99.2607 365.093 98.5934 363.875 98.5934C362.623 98.5934 361.674 99.2724 361.674 100.162C361.674 100.595 361.967 100.783 362.271 100.783C362.634 100.783 362.869 100.525 362.869 100.186C362.869 99.7525 362.494 99.5885 362.236 99.5768C362.728 98.9329 363.63 98.8978 363.84 98.8978C364.145 98.8978 365.035 98.9914 365.035 100.197C365.035 101.017 364.695 101.509 364.531 101.696C364.18 102.059 363.911 102.082 363.196 102.129C362.974 102.141 362.88 102.153 362.88 102.305C362.88 102.469 362.986 102.469 363.185 102.469H363.77Z" fill="#22661E"/>
<circle cx="430" cy="101" r="14" fill="white" stroke="#B39735" stroke-width="2"/>
<path d="M430.552 97.1766C430.552 96.0702 429.99 96 429.849 96C429.428 96 429.041 96.4215 429.041 96.7727C429.041 96.9835 429.164 97.1064 429.234 97.1766C429.41 97.3347 429.867 97.8089 429.867 98.7221C429.867 99.4597 428.813 103.569 426.706 103.569C425.634 103.569 425.424 102.673 425.424 102.024C425.424 101.146 425.827 99.9163 426.302 98.6518C426.583 97.9318 426.653 97.7562 426.653 97.4049C426.653 96.6674 426.126 96 425.265 96C423.65 96 423 98.5465 423 98.687C423 98.7572 423.07 98.845 423.193 98.845C423.351 98.845 423.369 98.7748 423.439 98.5289C423.861 97.0186 424.545 96.3512 425.213 96.3512C425.371 96.3512 425.669 96.3512 425.669 96.9308C425.669 97.3874 425.476 97.8967 425.213 98.564C424.37 100.812 424.37 101.356 424.37 101.778C424.37 102.164 424.423 102.884 424.967 103.376C425.599 103.92 426.477 103.92 426.635 103.92C429.551 103.92 430.552 98.1777 430.552 97.1766Z" fill="#66571E"/>
<path d="M435.421 98.804C435.421 98.5699 435.421 98.4762 435.175 98.4762C435.023 98.4762 435.011 98.4879 434.894 98.6518L431.159 104.073V104.459H434.461V105.431C434.461 105.864 434.426 105.993 433.524 105.993H433.255V106.379C434.25 106.344 434.274 106.344 434.941 106.344C435.608 106.344 435.632 106.344 436.627 106.379V105.993H436.358C435.456 105.993 435.421 105.864 435.421 105.431V104.459H436.662V104.073H435.421V98.804ZM434.543 99.7524V104.073H431.569L434.543 99.7524Z" fill="#66571E"/>
<path d="M311.238 61V50.3359H314.724C315.881 50.3359 316.75 50.5752 317.332 51.0537C317.917 51.5322 318.21 52.2402 318.21 53.1777C318.21 53.6758 318.069 54.1177 317.786 54.5034C317.502 54.8843 317.117 55.1797 316.628 55.3896C317.205 55.5508 317.659 55.8584 317.991 56.3125C318.328 56.7617 318.496 57.2988 318.496 57.9238C318.496 58.8809 318.186 59.6328 317.566 60.1797C316.946 60.7266 316.069 61 314.937 61H311.238ZM312.644 56.0122V59.8501H314.966C315.62 59.8501 316.135 59.6816 316.511 59.3447C316.892 59.0029 317.083 58.5342 317.083 57.9385C317.083 56.6543 316.384 56.0122 314.988 56.0122H312.644ZM312.644 54.8843H314.768C315.383 54.8843 315.874 54.7305 316.24 54.4229C316.611 54.1152 316.797 53.6978 316.797 53.1704C316.797 52.5845 316.626 52.1597 316.284 51.896C315.942 51.6274 315.422 51.4932 314.724 51.4932H312.644V54.8843Z" fill="#B33535"/>
<path d="M364.082 128.616C363.95 129.744 363.533 130.616 362.83 131.231C362.131 131.841 361.201 132.146 360.039 132.146C358.779 132.146 357.769 131.695 357.007 130.792C356.25 129.888 355.872 128.68 355.872 127.166V126.141C355.872 125.149 356.047 124.278 356.399 123.526C356.755 122.774 357.258 122.198 357.908 121.797C358.557 121.392 359.309 121.189 360.164 121.189C361.296 121.189 362.205 121.507 362.888 122.142C363.572 122.771 363.97 123.646 364.082 124.764H362.668C362.546 123.914 362.28 123.299 361.87 122.918C361.465 122.537 360.896 122.347 360.164 122.347C359.265 122.347 358.56 122.679 358.047 123.343C357.539 124.007 357.285 124.952 357.285 126.177V127.21C357.285 128.367 357.527 129.288 358.01 129.971C358.494 130.655 359.17 130.997 360.039 130.997C360.82 130.997 361.418 130.821 361.833 130.469C362.253 130.113 362.532 129.495 362.668 128.616H364.082Z" fill="#22661E"/>
<path d="M426.238 132V121.336H429.248C430.176 121.336 430.996 121.541 431.709 121.951C432.422 122.361 432.971 122.945 433.357 123.702C433.748 124.458 433.945 125.328 433.95 126.309V126.99C433.95 127.996 433.755 128.877 433.364 129.634C432.979 130.391 432.424 130.972 431.702 131.377C430.984 131.783 430.146 131.99 429.189 132H426.238ZM427.644 122.493V130.85H429.124C430.208 130.85 431.05 130.513 431.65 129.839C432.256 129.166 432.559 128.206 432.559 126.961V126.338C432.559 125.127 432.273 124.188 431.702 123.519C431.135 122.845 430.33 122.503 429.285 122.493H427.644Z" fill="#66571E"/>
<path d="M311.238 151V140.336H314.724C315.881 140.336 316.75 140.575 317.332 141.054C317.917 141.532 318.21 142.24 318.21 143.178C318.21 143.676 318.069 144.118 317.786 144.503C317.502 144.884 317.117 145.18 316.628 145.39C317.205 145.551 317.659 145.858 317.991 146.312C318.328 146.762 318.496 147.299 318.496 147.924C318.496 148.881 318.186 149.633 317.566 150.18C316.946 150.727 316.069 151 314.937 151H311.238ZM312.644 146.012V149.85H314.966C315.62 149.85 316.135 149.682 316.511 149.345C316.892 149.003 317.083 148.534 317.083 147.938C317.083 146.654 316.384 146.012 314.988 146.012H312.644ZM312.644 144.884H314.768C315.383 144.884 315.874 144.73 316.24 144.423C316.611 144.115 316.797 143.698 316.797 143.17C316.797 142.584 316.626 142.16 316.284 141.896C315.942 141.627 315.422 141.493 314.724 141.493H312.644V144.884Z" fill="#B33535"/>
<path d="M256.992 101L246.992 95.2265L246.992 106.774L256.992 101ZM195 102L247.992 102L247.992 100L195 100L195 102Z" fill="black"/>
</svg>
