<svg width="25" height="40" viewBox="0 0 25 40" fill="none" xmlns="http://www.w3.org/2000/svg">
<path d="M9.28247 24.1124L9.04722 24.2029C8.87833 24.2632 8.63705 24.3235 8.32338 24.3839C8.00972 24.4442 7.65986 24.4864 7.27382 24.5105H6.92999V23.6781H7.27382C7.84082 23.654 8.36561 23.5635 8.84817 23.4067C9.33073 23.2498 9.66852 23.1051 9.86154 22.9724C10.0546 22.8397 10.2235 22.707 10.3682 22.5743C10.3924 22.5381 10.4647 22.52 10.5854 22.52C10.694 22.52 10.7965 22.5562 10.893 22.6285V28.0392L10.9111 33.468C10.9956 33.5525 11.0679 33.6068 11.1283 33.6309C11.1886 33.655 11.3334 33.6792 11.5626 33.7033C11.7918 33.7274 12.1658 33.7395 12.6845 33.7395H13.155V34.5719H12.956C12.7026 34.5357 11.7435 34.5176 10.0787 34.5176C8.43799 34.5176 7.49097 34.5357 7.23762 34.5719H7.02047V33.7395H7.49097C7.75638 33.7395 7.98559 33.7395 8.17862 33.7395C8.37164 33.7395 8.52244 33.7335 8.63102 33.7214C8.73959 33.7093 8.8361 33.6912 8.92055 33.6671C9.005 33.643 9.05326 33.6309 9.06532 33.6309C9.07738 33.6309 9.11358 33.6007 9.1739 33.5404C9.23422 33.4801 9.27041 33.456 9.28247 33.468V24.1124Z" fill="#B39735"/>
<path d="M20.0858 21.018L20.1582 20.9999C20.2185 20.9999 20.2788 20.9999 20.3391 20.9999H20.5563L21.063 21.4343C22.197 22.4597 23.0234 23.7385 23.5421 25.2706C24.0609 26.8027 24.3202 28.3952 24.3202 30.0479C24.3202 30.8683 24.2599 31.6585 24.1393 32.4185C24.0186 33.1786 23.8799 33.824 23.7231 34.3548C23.5662 34.8856 23.3431 35.4164 23.0535 35.9472C22.764 36.4781 22.5348 36.8822 22.3659 37.1597C22.197 37.4371 21.9497 37.7448 21.6239 38.0826C21.2982 38.4204 21.1052 38.6194 21.0449 38.6797C20.9845 38.7401 20.8458 38.8547 20.6287 39.0236C20.5925 39.0598 20.5683 39.0839 20.5563 39.0959H20.3391C20.2426 39.0959 20.1763 39.0959 20.1401 39.0959C20.1039 39.0959 20.0737 39.0779 20.0496 39.0417C20.0255 39.0055 20.0074 38.9512 19.9953 38.8788C20.0074 38.8667 20.0737 38.7883 20.1944 38.6435C22.0643 36.7012 22.9992 33.836 22.9992 30.0479C22.9992 26.2599 22.0643 23.3947 20.1944 21.4523C20.0737 21.3076 20.0074 21.2292 19.9953 21.2171C19.9953 21.1206 20.0255 21.0542 20.0858 21.018Z" fill="black"/>
<path d="M6.31592 14V3.33594H9.32617C10.2539 3.33594 11.0742 3.54102 11.7871 3.95117C12.5 4.36133 13.0493 4.94482 13.4351 5.70166C13.8257 6.4585 14.0234 7.32764 14.0283 8.30908V8.99023C14.0283 9.99609 13.833 10.8774 13.4424 11.6343C13.0566 12.3911 12.5024 12.9722 11.7798 13.3774C11.062 13.7827 10.2246 13.9902 9.26758 14H6.31592ZM7.72217 4.49316V12.8501H9.20166C10.2856 12.8501 11.1279 12.5132 11.7285 11.8394C12.334 11.1655 12.6367 10.2061 12.6367 8.96094V8.33838C12.6367 7.12744 12.3511 6.1875 11.7798 5.51855C11.2134 4.84473 10.4077 4.50293 9.36279 4.49316H7.72217Z" fill="#B39735"/>
</svg>
