<svg width="28" height="40" viewBox="0 0 28 40" fill="none" xmlns="http://www.w3.org/2000/svg">
<path d="M0.709656 30.0479C0.709656 29.2155 0.769976 28.4253 0.890616 27.6774C1.01126 26.9294 1.14999 26.284 1.30682 25.7411C1.46366 25.1982 1.68684 24.6674 1.97638 24.1487C2.26591 23.6299 2.49513 23.2258 2.66402 22.9362C2.83292 22.6467 3.08626 22.333 3.42406 21.9952C3.76185 21.6574 3.9609 21.4523 4.02122 21.38C4.08154 21.3076 4.23234 21.1809 4.47362 20.9999H4.70887H4.78126C4.95015 20.9999 5.0346 21.0542 5.0346 21.1628C5.0346 21.199 4.93206 21.3257 4.72697 21.5428C4.52188 21.76 4.27457 22.0797 3.98503 22.5019C3.6955 22.9242 3.39993 23.4429 3.09833 24.0582C2.79673 24.6734 2.54338 25.5059 2.3383 26.5554C2.13321 27.605 2.03066 28.7692 2.03066 30.0479C2.03066 31.3267 2.13321 32.4849 2.3383 33.5224C2.54338 34.5599 2.7907 35.3983 3.08023 36.0377C3.36977 36.6771 3.66534 37.1959 3.96694 37.594C4.26854 37.9921 4.52188 38.3118 4.72697 38.5531C4.93206 38.7943 5.0346 38.921 5.0346 38.9331C5.0346 39.0417 4.94412 39.0959 4.76316 39.0959H4.70887H4.47362L3.96694 38.6616C2.83292 37.6362 2.00654 36.3574 1.48778 34.8253C0.969032 33.2932 0.709656 31.7007 0.709656 30.0479Z" fill="black"/>
<path d="M18.9323 34.5719C18.7152 34.5357 17.9371 34.5176 16.598 34.5176C15.1985 34.5176 14.3902 34.5357 14.1731 34.5719H14.0102V33.7395H14.5712C14.8125 33.7395 14.9753 33.7395 15.0598 33.7395C15.1442 33.7395 15.2468 33.7274 15.3674 33.7033C15.4881 33.6792 15.5725 33.649 15.6208 33.6128C15.669 33.5766 15.7113 33.5284 15.7474 33.468C15.7595 33.4439 15.7655 33.1182 15.7655 32.4909V31.5861H11.0787V30.7536L13.8112 26.5735C15.657 23.7746 16.5919 22.3692 16.6161 22.3571C16.6402 22.333 16.7669 22.3209 16.9961 22.3209H17.3218L17.4304 22.4295V30.7536H19.0952V31.5861H17.4304V32.509C17.4304 33.0036 17.4304 33.2931 17.4304 33.3776C17.4304 33.462 17.4666 33.5344 17.5389 33.5947C17.6355 33.6792 17.9793 33.7274 18.5704 33.7395H19.0952V34.5719H18.9323ZM15.8741 30.7536V24.7096L11.9111 30.7355L13.8836 30.7536H15.8741Z" fill="#355FB3"/>
<path d="M21.0315 33.9386C21.0315 33.9386 21.0315 33.7878 21.0315 33.4862C21.0315 33.1846 21.128 32.9252 21.321 32.7081C21.5141 32.4909 21.7734 32.3823 22.0992 32.3823C22.437 32.3823 22.7386 32.5331 23.004 32.8347C23.2694 33.1363 23.4081 33.6672 23.4202 34.4272C23.4202 34.8494 23.3659 35.2596 23.2573 35.6577C23.1487 36.0558 23.0221 36.3997 22.8773 36.6892C22.7325 36.9787 22.5757 37.226 22.4068 37.4311C22.2379 37.6362 22.0931 37.7991 21.9725 37.9197C21.8518 38.0404 21.7734 38.0946 21.7372 38.0826C21.689 38.0826 21.6106 38.0283 21.502 37.9197C21.3934 37.8111 21.3391 37.7327 21.3391 37.6845C21.3391 37.6362 21.4055 37.5397 21.5382 37.3949C21.6709 37.2502 21.8217 37.0692 21.9906 36.8521C22.1595 36.6349 22.3163 36.3333 22.4611 35.9473C22.6058 35.5612 22.7024 35.1209 22.7506 34.6262V34.4091L22.7325 34.4272C22.7084 34.4393 22.6782 34.4513 22.642 34.4634C22.6058 34.4754 22.5697 34.4935 22.5335 34.5177C22.4973 34.5418 22.443 34.5539 22.3706 34.5539C22.2982 34.5539 22.2258 34.5599 22.1534 34.572C21.8277 34.572 21.5623 34.4694 21.3572 34.2643L21.0315 33.9386Z" fill="black"/>
<path d="M17.2339 11.2168H12.7661L11.7627 14H10.3125L14.3848 3.33594H15.6152L19.6948 14H18.252L17.2339 11.2168ZM13.1909 10.0596H16.8164L15 5.07178L13.1909 10.0596Z" fill="#355FB3"/>
</svg>
