<svg width="21" height="40" viewBox="0 0 21 40" fill="none" xmlns="http://www.w3.org/2000/svg">
<path d="M8.66321 24.1124L8.42796 24.2029C8.25907 24.2632 8.01779 24.3235 7.70412 24.3839C7.39046 24.4442 7.0406 24.4864 6.65455 24.5105H6.31073V23.6781H6.65455C7.22156 23.654 7.74635 23.5635 8.22891 23.4067C8.71147 23.2498 9.04926 23.1051 9.24228 22.9724C9.43531 22.8397 9.6042 22.707 9.74897 22.5743C9.7731 22.5381 9.84548 22.52 9.96612 22.52C10.0747 22.52 10.1772 22.5562 10.2738 22.6285V28.0392L10.2918 33.468C10.3763 33.5525 10.4487 33.6068 10.509 33.6309C10.5693 33.655 10.7141 33.6792 10.9433 33.7033C11.1725 33.7274 11.5465 33.7395 12.0653 33.7395H12.5358V34.5719H12.3367C12.0834 34.5357 11.1243 34.5176 9.45943 34.5176C7.81873 34.5176 6.87171 34.5357 6.61836 34.5719H6.40121V33.7395H6.87171C7.13711 33.7395 7.36633 33.7395 7.55935 33.7395C7.75238 33.7395 7.90318 33.7335 8.01175 33.7214C8.12033 33.7093 8.21684 33.6912 8.30129 33.6671C8.38574 33.643 8.43399 33.6309 8.44606 33.6309C8.45812 33.6309 8.49431 33.6007 8.55463 33.5404C8.61495 33.4801 8.65115 33.456 8.66321 33.468V24.1124Z" fill="#3BB335"/>
<path d="M15.2682 33.9386C15.2682 33.9386 15.2682 33.7878 15.2682 33.4862C15.2682 33.1846 15.3648 32.9252 15.5578 32.7081C15.7508 32.4909 16.0102 32.3823 16.3359 32.3823C16.6737 32.3823 16.9753 32.5331 17.2407 32.8347C17.5061 33.1363 17.6449 33.6672 17.6569 34.4272C17.6569 34.8494 17.6026 35.2596 17.4941 35.6577C17.3855 36.0558 17.2588 36.3997 17.114 36.6892C16.9693 36.9787 16.8124 37.226 16.6435 37.4311C16.4746 37.6362 16.3299 37.7991 16.2092 37.9197C16.0886 38.0404 16.0102 38.0946 15.974 38.0826C15.9257 38.0826 15.8473 38.0283 15.7387 37.9197C15.6302 37.8111 15.5759 37.7327 15.5759 37.6845C15.5759 37.6362 15.6422 37.5397 15.7749 37.3949C15.9076 37.2502 16.0584 37.0692 16.2273 36.8521C16.3962 36.6349 16.5531 36.3333 16.6978 35.9473C16.8426 35.5612 16.9391 35.1209 16.9874 34.6262V34.4091L16.9693 34.4272C16.9451 34.4393 16.915 34.4513 16.8788 34.4634C16.8426 34.4754 16.8064 34.4935 16.7702 34.5177C16.734 34.5418 16.6797 34.5539 16.6074 34.5539C16.535 34.5539 16.4626 34.5599 16.3902 34.572C16.0645 34.572 15.7991 34.4694 15.594 34.2643L15.2682 33.9386Z" fill="black"/>
<path d="M13.1968 10.6162C13.0649 11.7441 12.6475 12.6157 11.9443 13.231C11.2461 13.8413 10.3159 14.1465 9.15381 14.1465C7.89404 14.1465 6.8833 13.6948 6.12158 12.7915C5.36475 11.8882 4.98633 10.6797 4.98633 9.16602V8.14062C4.98633 7.14941 5.16211 6.27783 5.51367 5.52588C5.87012 4.77393 6.37305 4.19775 7.02246 3.79736C7.67188 3.39209 8.42383 3.18945 9.27832 3.18945C10.4111 3.18945 11.3193 3.50684 12.0029 4.1416C12.6865 4.77148 13.0845 5.64551 13.1968 6.76367H11.7832C11.6611 5.91406 11.395 5.29883 10.9849 4.91797C10.5796 4.53711 10.0107 4.34668 9.27832 4.34668C8.37988 4.34668 7.67432 4.67871 7.16162 5.34277C6.65381 6.00684 6.3999 6.95166 6.3999 8.17725V9.20996C6.3999 10.3672 6.6416 11.2876 7.125 11.9712C7.6084 12.6548 8.28467 12.9966 9.15381 12.9966C9.93506 12.9966 10.5332 12.8208 10.9482 12.4692C11.3682 12.1128 11.6465 11.4951 11.7832 10.6162H13.1968Z" fill="#3BB335"/>
</svg>
