<svg width="157" height="151" viewBox="0 0 157 151" fill="none" xmlns="http://www.w3.org/2000/svg">
<g filter="url(#filter0_d)">
<circle cx="98" cy="90" r="55" fill="white"/>
<circle cx="98" cy="90" r="54.5" stroke="#C00000"/>
</g>
<path d="M99 45L114 60M99 45L84 60M99 45L99 60" stroke="#355FB3"/>
<path d="M109 60C109 62.7614 111.239 65 114 65C116.761 65 119 62.7614 119 60C119 57.2386 116.761 55 114 55C111.239 55 109 57.2386 109 60Z" fill="#355FB3"/>
<path d="M79 60C79 62.7614 81.2386 65 84 65C86.7614 65 89 62.7614 89 60C89 57.2386 86.7614 55 84 55C81.2386 55 79 57.2386 79 60Z" fill="#355FB3"/>
<path d="M94 60C94 62.7614 96.2386 65 99 65C101.761 65 104 62.7614 104 60C104 57.2386 101.761 55 99 55C96.2386 55 94 57.2386 94 60Z" fill="#355FB3"/>
<path d="M94 45C94 47.7614 96.2386 50 99 50C101.761 50 104 47.7614 104 45C104 42.2386 101.761 40 99 40C96.2386 40 94 42.2386 94 45Z" fill="#355FB3"/>
<path d="M99 135L114 120M99 135L84 120M99 135L99 120L99 105M114 120L114 105L119 90M114 120L129 105L133 90M84 120L84 105L79 90M84 120L69 105L65 90M99 105L93 90M99 105L105 90" stroke="#355FB3"/>
<path d="M109 120C109 117.239 111.239 115 114 115C116.761 115 119 117.239 119 120C119 122.761 116.761 125 114 125C111.239 125 109 122.761 109 120Z" fill="#355FB3"/>
<path d="M79 120C79 117.239 81.2386 115 84 115C86.7614 115 89 117.239 89 120C89 122.761 86.7614 125 84 125C81.2386 125 79 122.761 79 120Z" fill="#355FB3"/>
<path d="M64 105C64 102.239 66.2386 100 69 100C71.7614 100 74 102.239 74 105C74 107.761 71.7614 110 69 110C66.2386 110 64 107.761 64 105Z" fill="#355FB3"/>
<path d="M79 105C79 102.239 81.2386 100 84 100C86.7614 100 89 102.239 89 105C89 107.761 86.7614 110 84 110C81.2386 110 79 107.761 79 105Z" fill="#355FB3"/>
<path d="M74 90C74 87.2386 76.2386 85 79 85C81.7614 85 84 87.2386 84 90C84 92.7614 81.7614 95 79 95C76.2386 95 74 92.7614 74 90Z" fill="#355FB3"/>
<path d="M60 90C60 87.2386 62.2386 85 65 85C67.7614 85 70 87.2386 70 90C70 92.7614 67.7614 95 65 95C62.2386 95 60 92.7614 60 90Z" fill="#355FB3"/>
<path d="M114 90C114 87.2386 116.239 85 119 85C121.761 85 124 87.2386 124 90C124 92.7614 121.761 95 119 95C116.239 95 114 92.7614 114 90Z" fill="#355FB3"/>
<path d="M128 90C128 87.2386 130.239 85 133 85C135.761 85 138 87.2386 138 90C138 92.7614 135.761 95 133 95C130.239 95 128 92.7614 128 90Z" fill="#355FB3"/>
<path d="M94 105C94 102.239 96.2386 100 99 100C101.761 100 104 102.239 104 105C104 107.761 101.761 110 99 110C96.2386 110 94 107.761 94 105Z" fill="#355FB3"/>
<path d="M88 90C88 87.2386 90.2386 85 93 85C95.7614 85 98 87.2386 98 90C98 92.7614 95.7614 95 93 95C90.2386 95 88 92.7614 88 90Z" fill="#355FB3"/>
<path d="M100 90C100 87.2386 102.239 85 105 85C107.761 85 110 87.2386 110 90C110 92.7614 107.761 95 105 95C102.239 95 100 92.7614 100 90Z" fill="#355FB3"/>
<path d="M109 105C109 102.239 111.239 100 114 100C116.761 100 119 102.239 119 105C119 107.761 116.761 110 114 110C111.239 110 109 107.761 109 105Z" fill="#355FB3"/>
<path d="M124 105C124 102.239 126.239 100 129 100C131.761 100 134 102.239 134 105C134 107.761 131.761 110 129 110C126.239 110 124 107.761 124 105Z" fill="#355FB3"/>
<path d="M94 120C94 117.239 96.2386 115 99 115C101.761 115 104 117.239 104 120C104 122.761 101.761 125 99 125C96.2386 125 94 122.761 94 120Z" fill="#355FB3"/>
<path d="M94 135C94 132.239 96.2386 130 99 130C101.761 130 104 132.239 104 135C104 137.761 101.761 140 99 140C96.2386 140 94 137.761 94 135Z" fill="#355FB3"/>
<path d="M46 106.5C46 106.5 20 46 0 46M23 0.5C23 17 111 37 111 37" stroke="#C00000"/>
<defs>
<filter id="filter0_d" x="39" y="33" width="118" height="118" filterUnits="userSpaceOnUse" color-interpolation-filters="sRGB">
<feFlood flood-opacity="0" result="BackgroundImageFix"/>
<feColorMatrix in="SourceAlpha" type="matrix" values="0 0 0 0 0 0 0 0 0 0 0 0 0 0 0 0 0 0 127 0"/>
<feOffset dy="2"/>
<feGaussianBlur stdDeviation="2"/>
<feColorMatrix type="matrix" values="0 0 0 0 0 0 0 0 0 0 0 0 0 0 0 0 0 0 0.1 0"/>
<feBlend mode="normal" in2="BackgroundImageFix" result="effect1_dropShadow"/>
<feBlend mode="normal" in="SourceGraphic" in2="effect1_dropShadow" result="shape"/>
</filter>
</defs>
</svg>
