<svg width="157" height="146" viewBox="0 0 157 146" fill="none" xmlns="http://www.w3.org/2000/svg">
<g filter="url(#filter0_d)">
<circle cx="98" cy="85" r="55" fill="white"/>
<circle cx="98" cy="85" r="54.5" stroke="#C00000"/>
</g>
<path d="M98 90L108 105M98 90L88 105M98 90L98 75L98 60M98 90L83 90L68 100L88 105M108 105L113 120M108 105L128 100M108 105L98 125M88 105L83 120M88 105L68 115L83 120M83 120L98 125M98 60L92 45M98 60L104 45M98 60L114 55M92 45L82 55M92 45L104 45M104 45L114 55M113 120L128 115L128 100M113 120L98 125M128 100L142 95L138 75L118 75M114 55L129 60L118 75M82 55L67 60M82 55L78 75M67 60L58 75M67 60L78 75M78 75L58 90M118 75L118 90" stroke="black"/>
<path d="M103 105C103 102.239 105.239 100 108 100C110.761 100 113 102.239 113 105C113 107.761 110.761 110 108 110C105.239 110 103 107.761 103 105Z" fill="#B33535"/>
<path d="M83 105C83 102.239 85.2386 100 88 100C90.7614 100 93 102.239 93 105C93 107.761 90.7614 110 88 110C85.2386 110 83 107.761 83 105Z" fill="#B33535"/>
<path d="M63 100C63 97.2386 65.2386 95 68 95C70.7614 95 73 97.2386 73 100C73 102.761 70.7614 105 68 105C65.2386 105 63 102.761 63 100Z" fill="#355FB3"/>
<path d="M78 120C78 117.239 80.2386 115 83 115C85.7614 115 88 117.239 88 120C88 122.761 85.7614 125 83 125C80.2386 125 78 122.761 78 120Z" fill="#355FB3"/>
<path d="M63 115C63 112.239 65.2386 110 68 110C70.7614 110 73 112.239 73 115C73 117.761 70.7614 120 68 120C65.2386 120 63 117.761 63 115Z" fill="#355FB3"/>
<path d="M123 115C123 112.239 125.239 110 128 110C130.761 110 133 112.239 133 115C133 117.761 130.761 120 128 120C125.239 120 123 117.761 123 115Z" fill="#355FB3"/>
<path d="M93 125C93 122.239 95.2386 120 98 120C100.761 120 103 122.239 103 125C103 127.761 100.761 130 98 130C95.2386 130 93 127.761 93 125Z" fill="#355FB3"/>
<path d="M137 95C137 92.2386 139.239 90 142 90C144.761 90 147 92.2386 147 95C147 97.7614 144.761 100 142 100C139.239 100 137 97.7614 137 95Z" fill="#355FB3"/>
<path d="M93 60C93 57.2386 95.2386 55 98 55C100.761 55 103 57.2386 103 60C103 62.7614 100.761 65 98 65C95.2386 65 93 62.7614 93 60Z" fill="#355FB3"/>
<path d="M87 45C87 42.2386 89.2386 40 92 40C94.7614 40 97 42.2386 97 45C97 47.7614 94.7614 50 92 50C89.2386 50 87 47.7614 87 45Z" fill="#355FB3"/>
<path d="M77 55C77 52.2386 79.2386 50 82 50C84.7614 50 87 52.2386 87 55C87 57.7614 84.7614 60 82 60C79.2386 60 77 57.7614 77 55Z" fill="black"/>
<path d="M62 60C62 57.2386 64.2386 55 67 55C69.7614 55 72 57.2386 72 60C72 62.7614 69.7614 65 67 65C64.2386 65 62 62.7614 62 60Z" fill="black"/>
<path d="M99 45C99 42.2386 101.239 40 104 40C106.761 40 109 42.2386 109 45C109 47.7614 106.761 50 104 50C101.239 50 99 47.7614 99 45Z" fill="#355FB3"/>
<path d="M109 55C109 52.2386 111.239 50 114 50C116.761 50 119 52.2386 119 55C119 57.7614 116.761 60 114 60C111.239 60 109 57.7614 109 55Z" fill="#355FB3"/>
<path d="M124 60C124 57.2386 126.239 55 129 55C131.761 55 134 57.2386 134 60C134 62.7614 131.761 65 129 65C126.239 65 124 62.7614 124 60Z" fill="black"/>
<path d="M108 120C108 117.239 110.239 115 113 115C115.761 115 118 117.239 118 120C118 122.761 115.761 125 113 125C110.239 125 108 122.761 108 120Z" fill="#355FB3"/>
<path d="M123 100C123 97.2386 125.239 95 128 95C130.761 95 133 97.2386 133 100C133 102.761 130.761 105 128 105C125.239 105 123 102.761 123 100Z" fill="#355FB3"/>
<path d="M93 75C93 72.2386 95.2386 70 98 70C100.761 70 103 72.2386 103 75C103 77.7614 100.761 80 98 80C95.2386 80 93 77.7614 93 75Z" fill="#B33535"/>
<path d="M73 75C73 72.2386 75.2386 70 78 70C80.7614 70 83 72.2386 83 75C83 77.7614 80.7614 80 78 80C75.2386 80 73 77.7614 73 75Z" fill="black"/>
<path d="M78 90C78 87.2386 80.2386 85 83 85C85.7614 85 88 87.2386 88 90C88 92.7614 85.7614 95 83 95C80.2386 95 78 92.7614 78 90Z" fill="#B33535"/>
<path d="M53 75C53 72.2386 55.2386 70 58 70C60.7614 70 63 72.2386 63 75C63 77.7614 60.7614 80 58 80C55.2386 80 53 77.7614 53 75Z" fill="black"/>
<path d="M53 90C53 87.2386 55.2386 85 58 85C60.7614 85 63 87.2386 63 90C63 92.7614 60.7614 95 58 95C55.2386 95 53 92.7614 53 90Z" fill="black"/>
<path d="M113 75C113 72.2386 115.239 70 118 70C120.761 70 123 72.2386 123 75C123 77.7614 120.761 80 118 80C115.239 80 113 77.7614 113 75Z" fill="black"/>
<path d="M113 90C113 87.2386 115.239 85 118 85C120.761 85 123 87.2386 123 90C123 92.7614 120.761 95 118 95C115.239 95 113 92.7614 113 90Z" fill="black"/>
<path d="M133 75C133 72.2386 135.239 70 138 70C140.761 70 143 72.2386 143 75C143 77.7614 140.761 80 138 80C135.239 80 133 77.7614 133 75Z" fill="black"/>
<path d="M93 90C93 87.2386 95.2386 85 98 85C100.761 85 103 87.2386 103 90C103 92.7614 100.761 95 98 95C95.2386 95 93 92.7614 93 90Z" fill="#B33535"/>
<path d="M78.6807 85.8193L93.7455 70.7545C97.595 66.905 104.169 69.7595 103.985 75.2004L103.575 87.3011C103.526 88.7208 103.984 90.1115 104.865 91.2258L112.813 101.279C115.924 105.213 113.122 111 108.107 111H88.2346C85.6959 111 83.4319 109.402 82.5814 107.01L77.27 92.072C76.4943 89.8902 77.0433 87.4567 78.6807 85.8193Z" stroke="#B33535"/>
<path d="M130.109 120.64L99.9479 130.841C98.6854 131.268 97.3165 131.263 96.0574 130.826L66.0319 120.4C63.6182 119.562 62 117.287 62 114.732V99.8076C62 97.4835 63.3423 95.3683 65.4452 94.3787L69.5526 92.4459C70.1794 92.1508 70.7505 91.7495 71.2404 91.2596L91.7568 70.7432C93.4263 69.0737 93.9615 66.5803 93.1241 64.3727L86.583 47.1279C85.0939 43.202 87.9941 39 92.193 39H104.417C106.066 39 107.642 39.6788 108.775 40.8768L118.402 51.0538C121.321 54.1397 120.198 59.1983 116.246 60.758L109.217 63.5326C106.966 64.4213 105.469 66.5758 105.422 68.9959L105.073 86.7722C105.028 89.055 106.283 91.1653 108.31 92.2163L116.143 96.2781C117.644 97.0563 119.404 97.1652 120.989 96.5781L139.869 89.5855C142.965 88.4389 146.4 90.0493 147.498 93.1622C148.128 94.9453 147.866 96.9217 146.795 98.4798L133.131 118.355C132.397 119.423 131.337 120.224 130.109 120.64Z" stroke="#355FB3"/>
<path d="M46 101.5C46 101.5 20 33 0 33M23 0.5C23 17 111 32 111 32" stroke="#C00000"/>
<defs>
<filter id="filter0_d" x="39" y="28" width="118" height="118" filterUnits="userSpaceOnUse" color-interpolation-filters="sRGB">
<feFlood flood-opacity="0" result="BackgroundImageFix"/>
<feColorMatrix in="SourceAlpha" type="matrix" values="0 0 0 0 0 0 0 0 0 0 0 0 0 0 0 0 0 0 127 0"/>
<feOffset dy="2"/>
<feGaussianBlur stdDeviation="2"/>
<feColorMatrix type="matrix" values="0 0 0 0 0 0 0 0 0 0 0 0 0 0 0 0 0 0 0.1 0"/>
<feBlend mode="normal" in2="BackgroundImageFix" result="effect1_dropShadow"/>
<feBlend mode="normal" in="SourceGraphic" in2="effect1_dropShadow" result="shape"/>
</filter>
</defs>
</svg>
