<svg width="655" height="254" viewBox="0 0 655 254" fill="none" xmlns="http://www.w3.org/2000/svg">
<rect width="655" height="254" fill="white"/>
<line x1="273.25" y1="1.09278e-08" x2="273.25" y2="254" stroke="black" stroke-width="0.5"/>
<path d="M488 127L488.7 126.731L488.316 125.733L487.509 126.433L488 127ZM468 179L474.734 173.554L466.651 170.445L468 179ZM428 179L436.504 177.36L430.832 170.816L428 179ZM508 179L509.349 170.445L501.266 173.554L508 179ZM487.3 126.731L469.723 172.431L471.123 172.969L488.7 127.269L487.3 126.731ZM487.509 126.433L432.61 174.012L433.592 175.146L488.491 127.567L487.509 126.433ZM487.3 127.269L504.877 172.969L506.277 172.431L488.7 126.731L487.3 127.269Z" fill="#355FB3"/>
<path d="M548 179L545.168 170.816L539.496 177.36L548 179ZM487.509 127.567L489.457 129.255L490.439 128.122L488.491 126.433L487.509 127.567ZM491.015 130.606L494.911 133.982L495.894 132.849L491.998 129.472L491.015 130.606ZM496.47 135.333L500.366 138.71L501.348 137.576L497.452 134.199L496.47 135.333ZM501.924 140.06L505.82 143.437L506.803 142.303L502.907 138.927L501.924 140.06ZM507.379 144.788L511.275 148.164L512.257 147.031L508.361 143.654L507.379 144.788ZM512.833 149.515L516.73 152.891L517.712 151.758L513.816 148.381L512.833 149.515ZM518.288 154.242L522.184 157.619L523.167 156.485L519.27 153.109L518.288 154.242ZM523.743 158.969L527.639 162.346L528.621 161.212L524.725 157.836L523.743 158.969ZM529.197 163.697L533.093 167.073L534.076 165.94L530.18 162.563L529.197 163.697ZM534.652 168.424L538.548 171.801L539.53 170.667L535.634 167.29L534.652 168.424ZM540.106 173.151L544.002 176.528L544.985 175.394L541.089 172.018L540.106 173.151Z" fill="black"/>
<path d="M358 127L358.7 126.731L358 124.911L357.3 126.731L358 127ZM338 179L344.734 173.554L336.651 170.445L338 179ZM378 179L379.349 170.445L371.266 173.554L378 179ZM357.3 126.731L339.723 172.431L341.123 172.969L358.7 127.269L357.3 126.731ZM357.3 127.269L374.877 172.969L376.277 172.431L358.7 126.731L357.3 127.269Z" fill="#355FB3"/>
<path d="M488 57H488.75V55.8843L487.717 56.3055L488 57ZM488 110L492.33 102.5H483.67L488 110ZM358 110L366.58 111.178L363.31 103.159L358 110ZM487.25 57V103.25H488.75V57H487.25ZM487.717 56.3055L363.967 106.757L364.534 108.146L488.283 57.6945L487.717 56.3055Z" fill="#B33535"/>
<path d="M618 110L612.69 103.159L609.42 111.178L618 110ZM487.717 57.6945L490.038 58.6409L490.605 57.2519L488.283 56.3055L487.717 57.6945ZM491.895 59.3981L496.538 61.2909L497.105 59.9019L492.462 58.0091L491.895 59.3981ZM498.395 62.0481L503.038 63.9409L503.605 62.5519L498.962 60.6591L498.395 62.0481ZM504.895 64.6981L509.538 66.5909L510.105 65.2019L505.462 63.3091L504.895 64.6981ZM511.395 67.3481L516.038 69.2409L516.605 67.8519L511.962 65.9591L511.395 67.3481ZM517.895 69.9981L522.538 71.8909L523.105 70.5019L518.462 68.6091L517.895 69.9981ZM524.395 72.6481L529.038 74.5409L529.605 73.1519L524.962 71.2591L524.395 72.6481ZM530.895 75.2981L535.538 77.1909L536.105 75.8019L531.462 73.9091L530.895 75.2981ZM537.395 77.9481L542.038 79.8409L542.605 78.4519L537.962 76.5591L537.395 77.9481ZM543.895 80.5981L548.538 82.4909L549.105 81.1019L544.462 79.2091L543.895 80.5981ZM550.395 83.2481L555.038 85.1409L555.605 83.7519L550.962 81.8591L550.395 83.2481ZM556.895 85.8981L561.538 87.7909L562.105 86.4019L557.462 84.5091L556.895 85.8981ZM563.395 88.5481L568.038 90.4409L568.605 89.0519L563.962 87.1591L563.395 88.5481ZM569.895 91.1981L574.538 93.0909L575.105 91.7019L570.462 89.8091L569.895 91.1981ZM576.395 93.8481L581.038 95.7409L581.605 94.3519L576.962 92.4591L576.395 93.8481ZM582.895 96.4981L587.538 98.3909L588.105 97.0019L583.462 95.1091L582.895 96.4981ZM589.395 99.1481L594.038 101.041L594.605 99.6519L589.962 97.7591L589.395 99.1481ZM595.895 101.798L600.538 103.691L601.105 102.302L596.462 100.409L595.895 101.798ZM602.395 104.448L607.038 106.341L607.605 104.952L602.962 103.059L602.395 104.448ZM608.895 107.098L613.538 108.991L614.105 107.602L609.462 105.709L608.895 107.098Z" fill="black"/>
<circle cx="428" cy="197" r="14" fill="white" stroke="#B33535" stroke-width="2"/>
<path d="M428.552 193.177C428.552 192.07 427.99 192 427.849 192C427.428 192 427.041 192.421 427.041 192.773C427.041 192.983 427.164 193.106 427.234 193.177C427.41 193.335 427.867 193.809 427.867 194.722C427.867 195.46 426.813 199.569 424.706 199.569C423.634 199.569 423.424 198.673 423.424 198.024C423.424 197.146 423.827 195.916 424.302 194.652C424.583 193.932 424.653 193.756 424.653 193.405C424.653 192.667 424.126 192 423.265 192C421.65 192 421 194.546 421 194.687C421 194.757 421.07 194.845 421.193 194.845C421.351 194.845 421.369 194.775 421.439 194.529C421.861 193.019 422.545 192.351 423.213 192.351C423.371 192.351 423.669 192.351 423.669 192.931C423.669 193.387 423.476 193.897 423.213 194.564C422.37 196.812 422.37 197.356 422.37 197.778C422.37 198.164 422.423 198.884 422.967 199.376C423.599 199.92 424.477 199.92 424.635 199.92C427.551 199.92 428.552 194.178 428.552 193.177Z" fill="#B33535"/>
<path d="M432.484 194.921C432.484 194.605 432.461 194.593 432.145 194.593C431.665 195.062 431.044 195.343 429.932 195.343V195.729C430.248 195.729 430.88 195.729 431.559 195.413V201.419C431.559 201.852 431.524 201.993 430.412 201.993H430.002V202.379C430.482 202.344 431.489 202.344 432.016 202.344C432.543 202.344 433.561 202.344 434.041 202.379V201.993H433.632C432.519 201.993 432.484 201.852 432.484 201.419V194.921Z" fill="#B33535"/>
<circle cx="338" cy="197" r="14" fill="white" stroke="#B33535" stroke-width="2"/>
<path d="M338.552 193.177C338.552 192.07 337.99 192 337.849 192C337.428 192 337.041 192.421 337.041 192.773C337.041 192.983 337.164 193.106 337.234 193.177C337.41 193.335 337.867 193.809 337.867 194.722C337.867 195.46 336.813 199.569 334.706 199.569C333.634 199.569 333.424 198.673 333.424 198.024C333.424 197.146 333.827 195.916 334.302 194.652C334.583 193.932 334.653 193.756 334.653 193.405C334.653 192.667 334.126 192 333.265 192C331.65 192 331 194.546 331 194.687C331 194.757 331.07 194.845 331.193 194.845C331.351 194.845 331.369 194.775 331.439 194.529C331.861 193.019 332.545 192.351 333.213 192.351C333.371 192.351 333.669 192.351 333.669 192.931C333.669 193.387 333.476 193.897 333.213 194.564C332.37 196.812 332.37 197.356 332.37 197.778C332.37 198.164 332.423 198.884 332.967 199.376C333.599 199.92 334.477 199.92 334.635 199.92C337.551 199.92 338.552 194.178 338.552 193.177Z" fill="#B33535"/>
<path d="M342.484 194.921C342.484 194.605 342.461 194.593 342.145 194.593C341.665 195.062 341.044 195.343 339.932 195.343V195.729C340.248 195.729 340.88 195.729 341.559 195.413V201.419C341.559 201.852 341.524 201.993 340.412 201.993H340.002V202.379C340.482 202.344 341.489 202.344 342.016 202.344C342.543 202.344 343.561 202.344 344.041 202.379V201.993H343.632C342.519 201.993 342.484 201.852 342.484 201.419V194.921Z" fill="#B33535"/>
<circle cx="488" cy="57" r="14" fill="white" stroke="#B33535" stroke-width="2"/>
<path d="M488.552 53.1766C488.552 52.0702 487.99 52 487.849 52C487.428 52 487.041 52.4215 487.041 52.7727C487.041 52.9835 487.164 53.1064 487.234 53.1766C487.41 53.3347 487.867 53.8089 487.867 54.7221C487.867 55.4597 486.813 59.5692 484.706 59.5692C483.634 59.5692 483.424 58.6735 483.424 58.0237C483.424 57.1456 483.827 55.9163 484.302 54.6518C484.583 53.9318 484.653 53.7562 484.653 53.4049C484.653 52.6674 484.126 52 483.265 52C481.65 52 481 54.5465 481 54.687C481 54.7572 481.07 54.845 481.193 54.845C481.351 54.845 481.369 54.7748 481.439 54.5289C481.861 53.0186 482.545 52.3512 483.213 52.3512C483.371 52.3512 483.669 52.3512 483.669 52.9308C483.669 53.3874 483.476 53.8967 483.213 54.564C482.37 56.8119 482.37 57.3564 482.37 57.7778C482.37 58.1642 482.423 58.8842 482.967 59.376C483.599 59.9204 484.477 59.9204 484.635 59.9204C487.551 59.9204 488.552 54.1777 488.552 53.1766Z" fill="#B33535"/>
<path d="M492.484 54.9211C492.484 54.605 492.461 54.5933 492.145 54.5933C491.665 55.0616 491.044 55.3426 489.932 55.3426V55.729C490.248 55.729 490.88 55.729 491.559 55.4129V61.419C491.559 61.8522 491.524 61.9927 490.412 61.9927H490.002V62.3791C490.482 62.3439 491.489 62.3439 492.016 62.3439C492.543 62.3439 493.561 62.3439 494.041 62.3791V61.9927H493.632C492.519 61.9927 492.484 61.8522 492.484 61.419V54.9211Z" fill="#B33535"/>
<circle cx="468" cy="197" r="14" fill="white" stroke="#355FB3" stroke-width="2"/>
<path d="M468.552 193.177C468.552 192.07 467.99 192 467.849 192C467.428 192 467.041 192.421 467.041 192.773C467.041 192.983 467.164 193.106 467.234 193.177C467.41 193.335 467.867 193.809 467.867 194.722C467.867 195.46 466.813 199.569 464.706 199.569C463.634 199.569 463.424 198.673 463.424 198.024C463.424 197.146 463.827 195.916 464.302 194.652C464.583 193.932 464.653 193.756 464.653 193.405C464.653 192.667 464.126 192 463.265 192C461.65 192 461 194.546 461 194.687C461 194.757 461.07 194.845 461.193 194.845C461.351 194.845 461.369 194.775 461.439 194.529C461.861 193.019 462.545 192.351 463.213 192.351C463.371 192.351 463.669 192.351 463.669 192.931C463.669 193.387 463.476 193.897 463.213 194.564C462.37 196.812 462.37 197.356 462.37 197.778C462.37 198.164 462.423 198.884 462.967 199.376C463.599 199.92 464.477 199.92 464.635 199.92C467.551 199.92 468.552 194.178 468.552 193.177Z" fill="#355FB3"/>
<path d="M472.11 199.991C472.297 199.815 472.789 199.429 472.976 199.265C473.702 198.597 474.393 197.953 474.393 196.888C474.393 195.495 473.222 194.593 471.758 194.593C470.353 194.593 469.429 195.659 469.429 196.701C469.429 197.274 469.885 197.356 470.049 197.356C470.295 197.356 470.658 197.181 470.658 196.736C470.658 196.127 470.073 196.127 469.932 196.127C470.272 195.272 471.056 194.98 471.63 194.98C472.718 194.98 473.28 195.905 473.28 196.888C473.28 198.106 472.426 198.995 471.044 200.412L469.569 201.934C469.429 202.063 469.429 202.086 469.429 202.379H474.053L474.393 200.283H474.03C473.995 200.517 473.901 201.103 473.76 201.325C473.69 201.419 472.8 201.419 472.613 201.419H470.529L472.11 199.991Z" fill="#355FB3"/>
<circle cx="358" cy="127" r="14" fill="white" stroke="#355FB3" stroke-width="2"/>
<path d="M358.552 123.177C358.552 122.07 357.99 122 357.849 122C357.428 122 357.041 122.421 357.041 122.773C357.041 122.983 357.164 123.106 357.234 123.177C357.41 123.335 357.867 123.809 357.867 124.722C357.867 125.46 356.813 129.569 354.706 129.569C353.634 129.569 353.424 128.673 353.424 128.024C353.424 127.146 353.827 125.916 354.302 124.652C354.583 123.932 354.653 123.756 354.653 123.405C354.653 122.667 354.126 122 353.265 122C351.65 122 351 124.546 351 124.687C351 124.757 351.07 124.845 351.193 124.845C351.351 124.845 351.369 124.775 351.439 124.529C351.861 123.019 352.545 122.351 353.213 122.351C353.371 122.351 353.669 122.351 353.669 122.931C353.669 123.387 353.476 123.897 353.213 124.564C352.37 126.812 352.37 127.356 352.37 127.778C352.37 128.164 352.423 128.884 352.967 129.376C353.599 129.92 354.477 129.92 354.635 129.92C357.551 129.92 358.552 124.178 358.552 123.177Z" fill="#355FB3"/>
<path d="M362.11 129.991C362.297 129.815 362.789 129.429 362.976 129.265C363.702 128.597 364.393 127.953 364.393 126.888C364.393 125.495 363.222 124.593 361.758 124.593C360.353 124.593 359.429 125.659 359.429 126.701C359.429 127.274 359.885 127.356 360.049 127.356C360.295 127.356 360.658 127.181 360.658 126.736C360.658 126.127 360.073 126.127 359.932 126.127C360.272 125.272 361.056 124.98 361.63 124.98C362.718 124.98 363.28 125.905 363.28 126.888C363.28 128.106 362.426 128.995 361.044 130.412L359.569 131.934C359.429 132.063 359.429 132.086 359.429 132.379H364.053L364.393 130.283H364.03C363.995 130.517 363.901 131.103 363.761 131.325C363.69 131.419 362.8 131.419 362.613 131.419H360.529L362.11 129.991Z" fill="#355FB3"/>
<circle cx="378" cy="197" r="14" fill="white" stroke="#355FB3" stroke-width="2"/>
<path d="M378.552 193.177C378.552 192.07 377.99 192 377.849 192C377.428 192 377.041 192.421 377.041 192.773C377.041 192.983 377.164 193.106 377.234 193.177C377.41 193.335 377.867 193.809 377.867 194.722C377.867 195.46 376.813 199.569 374.706 199.569C373.634 199.569 373.424 198.673 373.424 198.024C373.424 197.146 373.827 195.916 374.302 194.652C374.583 193.932 374.653 193.756 374.653 193.405C374.653 192.667 374.126 192 373.265 192C371.65 192 371 194.546 371 194.687C371 194.757 371.07 194.845 371.193 194.845C371.351 194.845 371.369 194.775 371.439 194.529C371.861 193.019 372.545 192.351 373.213 192.351C373.371 192.351 373.669 192.351 373.669 192.931C373.669 193.387 373.476 193.897 373.213 194.564C372.37 196.812 372.37 197.356 372.37 197.778C372.37 198.164 372.423 198.884 372.967 199.376C373.599 199.92 374.477 199.92 374.635 199.92C377.551 199.92 378.552 194.178 378.552 193.177Z" fill="#355FB3"/>
<path d="M381.77 198.469C382.695 198.469 383.28 199.148 383.28 200.377C383.28 201.841 382.449 202.274 381.829 202.274C381.185 202.274 380.307 202.04 379.897 201.419C380.318 201.419 380.611 201.15 380.611 200.763C380.611 200.389 380.342 200.119 379.967 200.119C379.651 200.119 379.323 200.318 379.323 200.787C379.323 201.899 380.517 202.625 381.852 202.625C383.409 202.625 384.498 201.548 384.498 200.377C384.498 199.405 383.725 198.515 382.531 198.258C383.456 197.93 384.147 197.134 384.147 196.197C384.147 195.261 383.093 194.593 381.875 194.593C380.623 194.593 379.674 195.272 379.674 196.162C379.674 196.595 379.967 196.783 380.271 196.783C380.634 196.783 380.869 196.525 380.869 196.186C380.869 195.752 380.494 195.588 380.236 195.577C380.728 194.933 381.63 194.898 381.84 194.898C382.145 194.898 383.035 194.991 383.035 196.197C383.035 197.017 382.695 197.509 382.531 197.696C382.18 198.059 381.911 198.082 381.196 198.129C380.974 198.141 380.88 198.153 380.88 198.305C380.88 198.469 380.986 198.469 381.185 198.469H381.77Z" fill="#355FB3"/>
<circle cx="488" cy="127" r="14" fill="white" stroke="#355FB3" stroke-width="2"/>
<path d="M488.552 123.177C488.552 122.07 487.99 122 487.849 122C487.428 122 487.041 122.421 487.041 122.773C487.041 122.983 487.164 123.106 487.234 123.177C487.41 123.335 487.867 123.809 487.867 124.722C487.867 125.46 486.813 129.569 484.706 129.569C483.634 129.569 483.424 128.673 483.424 128.024C483.424 127.146 483.827 125.916 484.302 124.652C484.583 123.932 484.653 123.756 484.653 123.405C484.653 122.667 484.126 122 483.265 122C481.65 122 481 124.546 481 124.687C481 124.757 481.07 124.845 481.193 124.845C481.351 124.845 481.369 124.775 481.439 124.529C481.861 123.019 482.545 122.351 483.213 122.351C483.371 122.351 483.669 122.351 483.669 122.931C483.669 123.387 483.476 123.897 483.213 124.564C482.37 126.812 482.37 127.356 482.37 127.778C482.37 128.164 482.423 128.884 482.967 129.376C483.599 129.92 484.477 129.92 484.635 129.92C487.551 129.92 488.552 124.178 488.552 123.177Z" fill="#355FB3"/>
<path d="M491.77 128.469C492.695 128.469 493.28 129.148 493.28 130.377C493.28 131.841 492.449 132.274 491.829 132.274C491.185 132.274 490.307 132.04 489.897 131.419C490.318 131.419 490.611 131.15 490.611 130.763C490.611 130.389 490.342 130.119 489.967 130.119C489.651 130.119 489.323 130.318 489.323 130.787C489.323 131.899 490.517 132.625 491.852 132.625C493.409 132.625 494.498 131.548 494.498 130.377C494.498 129.405 493.725 128.515 492.531 128.258C493.456 127.93 494.147 127.134 494.147 126.197C494.147 125.261 493.093 124.593 491.875 124.593C490.623 124.593 489.674 125.272 489.674 126.162C489.674 126.595 489.967 126.783 490.272 126.783C490.634 126.783 490.869 126.525 490.869 126.186C490.869 125.752 490.494 125.588 490.236 125.577C490.728 124.933 491.63 124.898 491.84 124.898C492.145 124.898 493.035 124.991 493.035 126.197C493.035 127.017 492.695 127.509 492.531 127.696C492.18 128.059 491.911 128.082 491.196 128.129C490.974 128.141 490.88 128.153 490.88 128.305C490.88 128.469 490.986 128.469 491.185 128.469H491.77Z" fill="#355FB3"/>
<circle cx="508" cy="197" r="14" fill="white" stroke="#355FB3" stroke-width="2"/>
<path d="M508.552 193.177C508.552 192.07 507.99 192 507.849 192C507.428 192 507.041 192.421 507.041 192.773C507.041 192.983 507.164 193.106 507.234 193.177C507.41 193.335 507.867 193.809 507.867 194.722C507.867 195.46 506.813 199.569 504.706 199.569C503.634 199.569 503.424 198.673 503.424 198.024C503.424 197.146 503.827 195.916 504.302 194.652C504.583 193.932 504.653 193.756 504.653 193.405C504.653 192.667 504.126 192 503.265 192C501.65 192 501 194.546 501 194.687C501 194.757 501.07 194.845 501.193 194.845C501.351 194.845 501.369 194.775 501.439 194.529C501.861 193.019 502.545 192.351 503.213 192.351C503.371 192.351 503.669 192.351 503.669 192.931C503.669 193.387 503.476 193.897 503.213 194.564C502.37 196.812 502.37 197.356 502.37 197.778C502.37 198.164 502.423 198.884 502.967 199.376C503.599 199.92 504.477 199.92 504.635 199.92C507.551 199.92 508.552 194.178 508.552 193.177Z" fill="#355FB3"/>
<path d="M513.421 194.804C513.421 194.57 513.421 194.476 513.175 194.476C513.023 194.476 513.011 194.488 512.894 194.652L509.159 200.073V200.459H512.461V201.431C512.461 201.864 512.426 201.993 511.524 201.993H511.255V202.379C512.25 202.344 512.274 202.344 512.941 202.344C513.608 202.344 513.632 202.344 514.627 202.379V201.993H514.358C513.456 201.993 513.421 201.864 513.421 201.431V200.459H514.662V200.073H513.421V194.804ZM512.543 195.752V200.073H509.569L512.543 195.752Z" fill="#355FB3"/>
<circle cx="548" cy="197" r="14" fill="white" stroke="black" stroke-width="2" stroke-dasharray="5 2"/>
<path d="M548.552 193.177C548.552 192.07 547.99 192 547.849 192C547.428 192 547.041 192.421 547.041 192.773C547.041 192.983 547.164 193.106 547.234 193.177C547.41 193.335 547.867 193.809 547.867 194.722C547.867 195.46 546.813 199.569 544.706 199.569C543.634 199.569 543.424 198.673 543.424 198.024C543.424 197.146 543.827 195.916 544.302 194.652C544.583 193.932 544.653 193.756 544.653 193.405C544.653 192.667 544.126 192 543.265 192C541.65 192 541 194.546 541 194.687C541 194.757 541.07 194.845 541.193 194.845C541.351 194.845 541.369 194.775 541.439 194.529C541.861 193.019 542.545 192.351 543.213 192.351C543.371 192.351 543.669 192.351 543.669 192.931C543.669 193.387 543.476 193.897 543.213 194.564C542.37 196.812 542.37 197.356 542.37 197.778C542.37 198.164 542.423 198.884 542.967 199.376C543.599 199.92 544.477 199.92 544.635 199.92C547.551 199.92 548.552 194.178 548.552 193.177Z" fill="black"/>
<path d="M550.447 195.799C550.599 195.846 551.068 195.963 551.559 195.963C553.023 195.963 553.913 194.933 553.913 194.757C553.913 194.628 553.831 194.593 553.772 194.593C553.749 194.593 553.725 194.593 553.62 194.652C553.163 194.828 552.625 194.968 551.993 194.968C551.302 194.968 550.728 194.792 550.365 194.652C550.248 194.593 550.225 194.593 550.213 194.593C550.061 194.593 550.061 194.722 550.061 194.933V198.363C550.061 198.574 550.061 198.715 550.248 198.715C550.342 198.715 550.377 198.668 550.435 198.574C550.576 198.398 551.021 197.801 552.016 197.801C552.672 197.801 552.988 198.34 553.093 198.562C553.292 198.984 553.316 199.522 553.316 199.979C553.316 200.412 553.304 201.044 552.976 201.56C552.754 201.911 552.285 202.274 551.665 202.274C550.904 202.274 550.154 201.794 549.885 201.033C549.92 201.044 549.991 201.044 550.002 201.044C550.33 201.044 550.588 200.834 550.588 200.471C550.588 200.038 550.248 199.885 550.014 199.885C549.803 199.885 549.429 200.002 549.429 200.506C549.429 201.56 550.342 202.625 551.688 202.625C553.152 202.625 554.393 201.489 554.393 200.038C554.393 198.679 553.409 197.473 552.028 197.473C551.442 197.473 550.892 197.661 550.447 198.059V195.799Z" fill="black"/>
<circle cx="618" cy="127" r="14" fill="white" stroke="black" stroke-width="2" stroke-dasharray="5 2"/>
<path d="M618.552 123.177C618.552 122.07 617.99 122 617.849 122C617.428 122 617.041 122.421 617.041 122.773C617.041 122.983 617.164 123.106 617.234 123.177C617.41 123.335 617.867 123.809 617.867 124.722C617.867 125.46 616.813 129.569 614.706 129.569C613.634 129.569 613.424 128.673 613.424 128.024C613.424 127.146 613.827 125.916 614.302 124.652C614.583 123.932 614.653 123.756 614.653 123.405C614.653 122.667 614.126 122 613.265 122C611.65 122 611 124.546 611 124.687C611 124.757 611.07 124.845 611.193 124.845C611.351 124.845 611.369 124.775 611.439 124.529C611.861 123.019 612.545 122.351 613.213 122.351C613.371 122.351 613.669 122.351 613.669 122.931C613.669 123.387 613.476 123.897 613.213 124.564C612.37 126.812 612.37 127.356 612.37 127.778C612.37 128.164 612.423 128.884 612.967 129.376C613.599 129.92 614.477 129.92 614.635 129.92C617.551 129.92 618.552 124.178 618.552 123.177Z" fill="black"/>
<path d="M620.424 128.504C620.424 127.532 620.506 126.677 620.927 125.963C621.278 125.378 621.876 124.898 622.613 124.898C622.847 124.898 623.386 124.933 623.655 125.343C623.128 125.366 623.081 125.764 623.081 125.893C623.081 126.244 623.351 126.443 623.632 126.443C623.842 126.443 624.182 126.314 624.182 125.869C624.182 125.167 623.655 124.593 622.601 124.593C620.974 124.593 619.323 126.139 619.323 128.668C619.323 131.841 620.798 132.625 621.934 132.625C622.496 132.625 623.105 132.473 623.632 131.969C624.1 131.513 624.498 131.021 624.498 130.002C624.498 128.469 623.339 127.392 622.039 127.392C621.197 127.392 620.693 127.93 620.424 128.504ZM621.934 132.274C621.314 132.274 620.927 131.841 620.752 131.513C620.482 130.986 620.459 130.19 620.459 129.745C620.459 128.586 621.091 127.719 621.993 127.719C622.578 127.719 622.929 128.024 623.152 128.434C623.398 128.867 623.398 129.394 623.398 129.991C623.398 130.588 623.398 131.103 623.163 131.524C622.859 132.063 622.449 132.274 621.934 132.274Z" fill="black"/>
<path d="M549.438 88.5622L559 86M556.438 76.4378L559 86M568.562 83.4378L559 86M561.562 95.5622L559 86" stroke="black" stroke-width="3"/>
<path d="M512.101 157H522M522 147.101V157M531.9 157H522M522 166.899V157" stroke="black" stroke-width="3"/>
<path d="M208.263 72L113 237M17.7372 182V72" stroke="black" stroke-width="2" stroke-dasharray="5 2"/>
<path d="M208.263 72L113 17L17.7372 72H208.263ZM208.263 72V182L113 237L17.7372 182" stroke="black" stroke-width="2"/>
<path d="M196.5 59L194.12 50.6732L188.099 56.8977L196.5 59ZM112.578 16.5C112.471 17.2424 112.472 17.2424 112.472 17.2424C112.472 17.2425 112.472 17.2425 112.473 17.2426C112.473 17.2427 112.475 17.2429 112.476 17.2431C112.48 17.2437 112.485 17.2444 112.493 17.2455C112.507 17.2476 112.53 17.2509 112.559 17.2552C112.618 17.2639 112.706 17.2771 112.823 17.2947C113.055 17.33 113.399 17.3834 113.845 17.4553C114.735 17.599 116.03 17.8169 117.641 18.1127C120.865 18.7044 125.356 19.6076 130.422 20.8533C140.573 23.349 152.965 27.2032 162.117 32.6447L162.883 31.3553C153.535 25.7968 140.966 21.901 130.78 19.3967C125.679 18.1424 121.158 17.2331 117.912 16.6373C116.289 16.3394 114.984 16.1197 114.084 15.9744C113.634 15.9018 113.285 15.8477 113.048 15.8117C112.929 15.7937 112.839 15.7803 112.778 15.7713C112.747 15.7668 112.724 15.7634 112.709 15.7611C112.701 15.76 112.695 15.7591 112.691 15.7585C112.689 15.7582 112.687 15.758 112.686 15.7578C112.685 15.7578 112.685 15.7577 112.685 15.7577C112.684 15.7576 112.684 15.7576 112.578 16.5ZM162.117 32.6447C174.282 39.8781 185.158 49.296 191.137 54.8558L192.159 53.7572C186.147 48.1676 175.182 38.6679 162.883 31.3553L162.117 32.6447Z" fill="#355FB3"/>
<path d="M122 31L124.406 39.3193L130.408 33.0758L122 31ZM208 71.9736C208.163 71.2417 208.163 71.2417 208.163 71.2416C208.163 71.2415 208.163 71.2415 208.162 71.2413C208.161 71.2411 208.159 71.2407 208.157 71.2402C208.153 71.2393 208.146 71.2377 208.137 71.2357C208.119 71.2317 208.092 71.2256 208.056 71.2175C207.984 71.2012 207.877 71.1768 207.736 71.1444C207.454 71.0795 207.038 70.9827 206.499 70.8549C205.423 70.5992 203.86 70.2199 201.919 69.7256C198.037 68.7369 192.642 67.2889 186.593 65.4516C174.478 61.772 159.801 56.5497 149.383 50.3553L148.617 51.6447C159.199 57.9368 174.022 63.2013 186.157 66.8869C192.233 68.7322 197.65 70.1863 201.549 71.1792C203.499 71.6757 205.069 72.057 206.153 72.3143C206.695 72.4429 207.115 72.5406 207.4 72.6062C207.542 72.639 207.651 72.6637 207.725 72.6804C207.761 72.6887 207.789 72.6949 207.808 72.6992C207.817 72.7013 207.824 72.7028 207.829 72.7039C207.831 72.7045 207.833 72.7049 207.835 72.7051C207.835 72.7053 207.836 72.7054 207.836 72.7055C207.836 72.7056 207.837 72.7056 208 71.9736ZM149.383 50.3553C138.243 43.7314 131.352 38.5205 127.352 35.1064L126.378 36.2473C130.452 39.7239 137.414 44.9834 148.617 51.6447L149.383 50.3553Z" fill="#355FB3"/>
<path d="M33.5 78.5L40.7594 83.2224L41.2194 74.5744L33.5 78.5ZM208 71.9737C207.883 71.2329 207.882 71.2329 207.882 71.233C207.882 71.2331 207.881 71.2332 207.88 71.2333C207.879 71.2336 207.876 71.234 207.873 71.2345C207.866 71.2356 207.855 71.2372 207.842 71.2393C207.814 71.2437 207.773 71.2501 207.719 71.2586C207.611 71.2756 207.449 71.3009 207.236 71.3339C206.81 71.3999 206.181 71.4967 205.366 71.62C203.737 71.8665 201.368 72.2188 198.41 72.6416C192.492 73.4872 184.217 74.6147 174.786 75.7421C155.917 77.9981 132.453 80.25 114 80.25L114 81.75C132.547 81.75 156.083 79.4888 174.964 77.2315C184.408 76.1024 192.696 74.9733 198.622 74.1265C201.585 73.7031 203.958 73.3502 205.591 73.1031C206.407 72.9795 207.038 72.8824 207.466 72.8162C207.679 72.7831 207.842 72.7577 207.951 72.7405C208.006 72.7319 208.047 72.7254 208.075 72.7211C208.089 72.7189 208.1 72.7172 208.107 72.7161C208.11 72.7156 208.113 72.7152 208.115 72.7149C208.115 72.7147 208.116 72.7146 208.117 72.7146C208.117 72.7145 208.117 72.7144 208 71.9737ZM114 80.25C85.8416 80.25 53.9091 78.8008 40.2789 78.1095L40.2029 79.6076C53.8383 80.2992 85.802 81.75 114 81.75L114 80.25Z" fill="#355FB3"/>
<path d="M214 166L219.539 159.343L211.004 157.874L214 166ZM208 71.9736C207.308 72.2629 207.308 72.2629 207.308 72.2629C207.308 72.263 207.308 72.263 207.308 72.2632C207.308 72.2637 207.308 72.2644 207.309 72.2655C207.31 72.2677 207.311 72.2711 207.313 72.2759C207.317 72.2855 207.323 72.3002 207.331 72.3201C207.348 72.3599 207.372 72.4203 207.404 72.5009C207.469 72.6622 207.564 72.9044 207.685 73.2244C207.928 73.8644 208.277 74.8158 208.696 76.054C209.533 78.5305 210.652 82.1536 211.771 86.7275C214.01 95.8766 216.25 108.822 216.25 124L217.75 124C217.75 108.677 215.489 95.61 213.228 86.371C212.098 81.7508 210.966 78.0862 210.117 75.5734C209.692 74.3169 209.337 73.3483 209.088 72.6919C208.963 72.3638 208.865 72.1137 208.797 71.9447C208.764 71.8603 208.738 71.7961 208.72 71.7525C208.711 71.7308 208.704 71.7142 208.699 71.7028C208.697 71.6971 208.695 71.6927 208.694 71.6896C208.693 71.6881 208.693 71.6869 208.692 71.686C208.692 71.6856 208.692 71.6851 208.692 71.6849C208.692 71.6846 208.692 71.6843 208 71.9736ZM216.25 124C216.25 141.651 215.244 152.913 214.401 159.248L215.888 159.445C216.74 153.036 217.75 141.707 217.75 124L216.25 124Z" fill="#355FB3"/>
<path d="M33.5 67L41.9892 68.7129L39.228 60.5046L33.5 67ZM112.578 16.5C112.016 16.0032 112.016 16.0033 112.016 16.0033C112.016 16.0034 112.015 16.0036 112.015 16.0038C112.015 16.0043 112.014 16.0051 112.013 16.0061C112.011 16.0081 112.009 16.0113 112.005 16.0155C111.997 16.024 111.986 16.0368 111.971 16.0538C111.941 16.0879 111.895 16.1391 111.835 16.2064C111.714 16.3412 111.534 16.5409 111.298 16.7996C110.827 17.3171 110.134 18.0705 109.246 19.012C107.472 20.895 104.923 23.5295 101.829 26.532C95.6365 32.5415 87.278 40.0073 78.5803 45.8783L79.4195 47.1216C88.2218 41.18 96.6523 33.6459 102.874 27.6085C105.987 24.5876 108.551 21.9369 110.338 20.0407C111.232 19.0925 111.931 18.3328 112.407 17.8095C112.646 17.5478 112.828 17.3453 112.951 17.2078C113.013 17.1391 113.06 17.0866 113.091 17.0512C113.107 17.0335 113.119 17.02 113.127 17.0109C113.131 17.0064 113.134 17.0029 113.136 17.0005C113.137 16.9993 113.138 16.9984 113.139 16.9978C113.139 16.9975 113.139 16.9972 113.139 16.997C113.14 16.9968 113.14 16.9967 112.578 16.5ZM78.5803 45.8783C66.3624 54.1254 48.9477 60.8598 39.6484 64.1406L40.1474 65.5551C49.4562 62.271 67.0298 55.4846 79.4195 47.1216L78.5803 45.8783Z" fill="#355FB3"/>
<path d="M95.5 18.9998L87.0147 17.2679L89.7575 25.4823L95.5 18.9998ZM17.4999 70.9999C18.0636 71.4946 18.0637 71.4946 18.0638 71.4944C18.0639 71.4943 18.0641 71.494 18.0644 71.4937C18.065 71.493 18.066 71.492 18.0672 71.4905C18.0697 71.4877 18.0735 71.4834 18.0785 71.4776C18.0887 71.4661 18.104 71.4488 18.1243 71.4257C18.165 71.3796 18.2259 71.3108 18.3063 71.2204C18.4669 71.0396 18.7053 70.7726 19.0151 70.4287C19.6348 69.7409 20.5403 68.7458 21.6819 67.5185C23.9653 65.0637 27.1918 61.6814 30.9634 57.9722C38.5188 50.5417 48.2163 41.8448 56.8859 36.6431L56.1141 35.3568C47.2837 40.6551 37.4812 49.4582 29.9116 56.9027C26.1206 60.631 22.8783 64.0299 20.5836 66.4969C19.4361 67.7306 18.5252 68.7316 17.9007 69.4246C17.5885 69.7712 17.3479 70.0408 17.185 70.224C17.1036 70.3156 17.0417 70.3856 16.9999 70.4329C16.9791 70.4565 16.9633 70.4745 16.9526 70.4866C16.9473 70.4926 16.9432 70.4972 16.9405 70.5003C16.9391 70.5019 16.9381 70.5031 16.9374 70.5039C16.937 70.5043 16.9367 70.5046 16.9365 70.5048C16.9363 70.5051 16.9362 70.5052 17.4999 70.9999ZM56.8859 36.6431C68.3976 29.736 81.6685 24.5603 89.3477 21.8446L88.8475 20.4304C81.1351 23.1579 67.7539 28.3729 56.1141 35.3568L56.8859 36.6431Z" fill="#B33535"/>
<path d="M191 69L184.015 63.8805L183.074 72.4894L191 69ZM17.5 70.9999C17.5872 71.7448 17.5874 71.7448 17.5878 71.7447C17.5882 71.7447 17.5888 71.7446 17.5897 71.7445C17.5913 71.7443 17.5938 71.744 17.5971 71.7436C17.6038 71.7429 17.6138 71.7417 17.6271 71.7401C17.6538 71.737 17.6937 71.7324 17.7467 71.7263C17.8526 71.714 18.0105 71.6958 18.2184 71.672C18.6341 71.6245 19.2493 71.5548 20.0468 71.466C21.642 71.2884 23.9665 71.0347 26.8826 70.7302C32.715 70.1212 40.9134 69.3092 50.3766 68.4972C69.3078 66.8728 93.2825 65.25 113.5 65.25L113.5 63.75C93.2176 63.75 69.1922 65.3772 50.2484 67.0027C40.7741 67.8157 32.5663 68.6286 26.7268 69.2383C23.807 69.5432 21.4791 69.7973 19.8809 69.9752C19.0818 70.0642 18.4651 70.1341 18.048 70.1817C17.8394 70.2056 17.6808 70.2239 17.5742 70.2362C17.5209 70.2424 17.4806 70.2471 17.4536 70.2502C17.4401 70.2518 17.43 70.253 17.4231 70.2538C17.4197 70.2542 17.4172 70.2545 17.4154 70.2547C17.4146 70.2548 17.4139 70.2549 17.4135 70.2549C17.413 70.255 17.4128 70.255 17.5 70.9999ZM113.5 65.25C143.6 65.2499 171.769 67.7388 184.216 69.0128L184.369 67.5206C171.898 66.2441 143.672 63.7499 113.5 63.75L113.5 65.25Z" fill="#B33535"/>
<circle cx="18" cy="72" r="14" fill="white" stroke="#B33535" stroke-width="2"/>
<path d="M18.5516 68.1766C18.5516 67.0702 17.9896 67 17.8491 67C17.4276 67 17.0413 67.4215 17.0413 67.7727C17.0413 67.9835 17.1642 68.1064 17.2344 68.1766C17.4101 68.3347 17.8667 68.8089 17.8667 69.7221C17.8667 70.4597 16.813 74.5692 14.7055 74.5692C13.6343 74.5692 13.4235 73.6735 13.4235 73.0237C13.4235 72.1456 13.8275 70.9163 14.3016 69.6518C14.5826 68.9318 14.6529 68.7562 14.6529 68.4049C14.6529 67.6674 14.126 67 13.2655 67C11.6498 67 11 69.5465 11 69.687C11 69.7572 11.0702 69.845 11.1932 69.845C11.3512 69.845 11.3688 69.7748 11.439 69.5289C11.8605 68.0186 12.5454 67.3512 13.2128 67.3512C13.3709 67.3512 13.6694 67.3512 13.6694 67.9308C13.6694 68.3874 13.4762 68.8967 13.2128 69.564C12.3698 71.8119 12.3698 72.3564 12.3698 72.7778C12.3698 73.1642 12.4225 73.8842 12.9669 74.376C13.5991 74.9204 14.4772 74.9204 14.6353 74.9204C17.5506 74.9204 18.5516 69.1777 18.5516 68.1766Z" fill="#B33535"/>
<path d="M22.4844 69.9211C22.4844 69.605 22.4609 69.5933 22.1448 69.5933C21.6648 70.0616 21.0443 70.3426 19.932 70.3426V70.729C20.2482 70.729 20.8804 70.729 21.5594 70.4129V76.419C21.5594 76.8522 21.5243 76.9927 20.4121 76.9927H20.0023V77.3791C20.4823 77.3439 21.4892 77.3439 22.016 77.3439C22.5429 77.3439 23.5615 77.3439 24.0415 77.3791V76.9927H23.6317C22.5195 76.9927 22.4844 76.8522 22.4844 76.419V69.9211Z" fill="#B33535"/>
<circle cx="113" cy="17" r="14" fill="white" stroke="#355FB3" stroke-width="2"/>
<path d="M113.552 13.1766C113.552 12.0702 112.99 12 112.849 12C112.428 12 112.041 12.4215 112.041 12.7727C112.041 12.9835 112.164 13.1064 112.234 13.1766C112.41 13.3347 112.867 13.8089 112.867 14.7221C112.867 15.4597 111.813 19.5692 109.706 19.5692C108.634 19.5692 108.424 18.6735 108.424 18.0237C108.424 17.1456 108.827 15.9163 109.302 14.6518C109.583 13.9318 109.653 13.7562 109.653 13.4049C109.653 12.6674 109.126 12 108.265 12C106.65 12 106 14.5465 106 14.687C106 14.7572 106.07 14.845 106.193 14.845C106.351 14.845 106.369 14.7748 106.439 14.5289C106.861 13.0186 107.545 12.3512 108.213 12.3512C108.371 12.3512 108.669 12.3512 108.669 12.9308C108.669 13.3874 108.476 13.8967 108.213 14.564C107.37 16.8119 107.37 17.3564 107.37 17.7778C107.37 18.1642 107.423 18.8842 107.967 19.376C108.599 19.9204 109.477 19.9204 109.635 19.9204C112.551 19.9204 113.552 14.1777 113.552 13.1766Z" fill="#355FB3"/>
<path d="M117.11 19.9906C117.297 19.815 117.789 19.4287 117.976 19.2648C118.702 18.5974 119.393 17.9535 119.393 16.8881C119.393 15.4948 118.222 14.5933 116.758 14.5933C115.353 14.5933 114.429 15.6587 114.429 16.7007C114.429 17.2744 114.885 17.3564 115.049 17.3564C115.295 17.3564 115.658 17.1808 115.658 16.7359C115.658 16.127 115.073 16.127 114.932 16.127C115.272 15.2724 116.056 14.9797 116.63 14.9797C117.718 14.9797 118.28 15.9046 118.28 16.8881C118.28 18.1057 117.426 18.9955 116.044 20.4121L114.569 21.9342C114.429 22.0629 114.429 22.0864 114.429 22.3791H119.053L119.393 20.2833H119.03C118.995 20.5175 118.901 21.1029 118.76 21.3253C118.69 21.419 117.8 21.419 117.613 21.419H115.529L117.11 19.9906Z" fill="#355FB3"/>
<circle cx="208" cy="72" r="14" fill="white" stroke="#355FB3" stroke-width="2"/>
<path d="M208.552 68.1766C208.552 67.0702 207.99 67 207.849 67C207.428 67 207.041 67.4215 207.041 67.7727C207.041 67.9835 207.164 68.1064 207.234 68.1766C207.41 68.3347 207.867 68.8089 207.867 69.7221C207.867 70.4597 206.813 74.5692 204.706 74.5692C203.634 74.5692 203.424 73.6735 203.424 73.0237C203.424 72.1456 203.827 70.9163 204.302 69.6518C204.583 68.9318 204.653 68.7562 204.653 68.4049C204.653 67.6674 204.126 67 203.265 67C201.65 67 201 69.5465 201 69.687C201 69.7572 201.07 69.845 201.193 69.845C201.351 69.845 201.369 69.7748 201.439 69.5289C201.861 68.0186 202.545 67.3512 203.213 67.3512C203.371 67.3512 203.669 67.3512 203.669 67.9308C203.669 68.3874 203.476 68.8967 203.213 69.564C202.37 71.8119 202.37 72.3564 202.37 72.7778C202.37 73.1642 202.423 73.8842 202.967 74.376C203.599 74.9204 204.477 74.9204 204.635 74.9204C207.551 74.9204 208.552 69.1777 208.552 68.1766Z" fill="#355FB3"/>
<path d="M211.77 73.4686C212.695 73.4686 213.28 74.1477 213.28 75.377C213.28 76.8405 212.449 77.2737 211.829 77.2737C211.185 77.2737 210.307 77.0395 209.897 76.419C210.318 76.419 210.611 76.1497 210.611 75.7634C210.611 75.3887 210.342 75.1194 209.967 75.1194C209.651 75.1194 209.323 75.3185 209.323 75.7868C209.323 76.899 210.517 77.6249 211.852 77.6249C213.409 77.6249 214.498 76.5478 214.498 75.377C214.498 74.4053 213.725 73.5155 212.531 73.2579C213.456 72.9301 214.147 72.1339 214.147 71.1973C214.147 70.2607 213.093 69.5933 211.875 69.5933C210.623 69.5933 209.674 70.2724 209.674 71.1622C209.674 71.5954 209.967 71.7827 210.271 71.7827C210.634 71.7827 210.869 71.5251 210.869 71.1856C210.869 70.7524 210.494 70.5885 210.236 70.5768C210.728 69.9329 211.63 69.8977 211.84 69.8977C212.145 69.8977 213.035 69.9914 213.035 71.1973C213.035 72.0169 212.695 72.5086 212.531 72.6959C212.18 73.0589 211.911 73.0823 211.196 73.1291C210.974 73.1408 210.88 73.1525 210.88 73.3047C210.88 73.4686 210.986 73.4686 211.185 73.4686H211.77Z" fill="#355FB3"/>
<circle cx="208" cy="182" r="14" fill="white" stroke="#355FB3" stroke-width="2"/>
<path d="M208.552 178.177C208.552 177.07 207.99 177 207.849 177C207.428 177 207.041 177.421 207.041 177.773C207.041 177.983 207.164 178.106 207.234 178.177C207.41 178.335 207.867 178.809 207.867 179.722C207.867 180.46 206.813 184.569 204.706 184.569C203.634 184.569 203.424 183.673 203.424 183.024C203.424 182.146 203.827 180.916 204.302 179.652C204.583 178.932 204.653 178.756 204.653 178.405C204.653 177.667 204.126 177 203.265 177C201.65 177 201 179.546 201 179.687C201 179.757 201.07 179.845 201.193 179.845C201.351 179.845 201.369 179.775 201.439 179.529C201.861 178.019 202.545 177.351 203.213 177.351C203.371 177.351 203.669 177.351 203.669 177.931C203.669 178.387 203.476 178.897 203.213 179.564C202.37 181.812 202.37 182.356 202.37 182.778C202.37 183.164 202.423 183.884 202.967 184.376C203.599 184.92 204.477 184.92 204.635 184.92C207.551 184.92 208.552 179.178 208.552 178.177Z" fill="#355FB3"/>
<path d="M213.421 179.804C213.421 179.57 213.421 179.476 213.175 179.476C213.023 179.476 213.011 179.488 212.894 179.652L209.159 185.073V185.459H212.461V186.431C212.461 186.864 212.426 186.993 211.524 186.993H211.255V187.379C212.25 187.344 212.274 187.344 212.941 187.344C213.608 187.344 213.632 187.344 214.627 187.379V186.993H214.358C213.456 186.993 213.421 186.864 213.421 186.431V185.459H214.662V185.073H213.421V179.804ZM212.543 180.752V185.073H209.569L212.543 180.752Z" fill="#355FB3"/>
<circle cx="113" cy="237" r="14" fill="white" stroke="black" stroke-width="2" stroke-dasharray="5 2"/>
<path d="M113.552 233.177C113.552 232.07 112.99 232 112.849 232C112.428 232 112.041 232.421 112.041 232.773C112.041 232.983 112.164 233.106 112.234 233.177C112.41 233.335 112.867 233.809 112.867 234.722C112.867 235.46 111.813 239.569 109.706 239.569C108.634 239.569 108.424 238.673 108.424 238.024C108.424 237.146 108.827 235.916 109.302 234.652C109.583 233.932 109.653 233.756 109.653 233.405C109.653 232.667 109.126 232 108.265 232C106.65 232 106 234.546 106 234.687C106 234.757 106.07 234.845 106.193 234.845C106.351 234.845 106.369 234.775 106.439 234.529C106.861 233.019 107.545 232.351 108.213 232.351C108.371 232.351 108.669 232.351 108.669 232.931C108.669 233.387 108.476 233.897 108.213 234.564C107.37 236.812 107.37 237.356 107.37 237.778C107.37 238.164 107.423 238.884 107.967 239.376C108.599 239.92 109.477 239.92 109.635 239.92C112.551 239.92 113.552 234.178 113.552 233.177Z" fill="black"/>
<path d="M115.447 235.799C115.599 235.846 116.068 235.963 116.559 235.963C118.023 235.963 118.913 234.933 118.913 234.757C118.913 234.628 118.831 234.593 118.772 234.593C118.749 234.593 118.725 234.593 118.62 234.652C118.163 234.828 117.625 234.968 116.993 234.968C116.302 234.968 115.728 234.792 115.365 234.652C115.248 234.593 115.225 234.593 115.213 234.593C115.061 234.593 115.061 234.722 115.061 234.933V238.363C115.061 238.574 115.061 238.715 115.248 238.715C115.342 238.715 115.377 238.668 115.435 238.574C115.576 238.398 116.021 237.801 117.016 237.801C117.672 237.801 117.988 238.34 118.093 238.562C118.292 238.984 118.316 239.522 118.316 239.979C118.316 240.412 118.304 241.044 117.976 241.56C117.754 241.911 117.285 242.274 116.665 242.274C115.904 242.274 115.154 241.794 114.885 241.033C114.92 241.044 114.991 241.044 115.002 241.044C115.33 241.044 115.588 240.834 115.588 240.471C115.588 240.038 115.248 239.885 115.014 239.885C114.803 239.885 114.429 240.002 114.429 240.506C114.429 241.56 115.342 242.625 116.688 242.625C118.152 242.625 119.393 241.489 119.393 240.038C119.393 238.679 118.409 237.473 117.028 237.473C116.442 237.473 115.892 237.661 115.447 238.059V235.799Z" fill="black"/>
<circle cx="18" cy="182" r="14" fill="white" stroke="black" stroke-width="2" stroke-dasharray="5 2"/>
<path d="M18.5516 178.177C18.5516 177.07 17.9896 177 17.8491 177C17.4276 177 17.0413 177.421 17.0413 177.773C17.0413 177.983 17.1642 178.106 17.2344 178.177C17.4101 178.335 17.8667 178.809 17.8667 179.722C17.8667 180.46 16.813 184.569 14.7055 184.569C13.6343 184.569 13.4235 183.673 13.4235 183.024C13.4235 182.146 13.8275 180.916 14.3016 179.652C14.5826 178.932 14.6529 178.756 14.6529 178.405C14.6529 177.667 14.126 177 13.2655 177C11.6498 177 11 179.546 11 179.687C11 179.757 11.0702 179.845 11.1932 179.845C11.3512 179.845 11.3688 179.775 11.439 179.529C11.8605 178.019 12.5454 177.351 13.2128 177.351C13.3709 177.351 13.6694 177.351 13.6694 177.931C13.6694 178.387 13.4762 178.897 13.2128 179.564C12.3698 181.812 12.3698 182.356 12.3698 182.778C12.3698 183.164 12.4225 183.884 12.9669 184.376C13.5991 184.92 14.4772 184.92 14.6353 184.92C17.5506 184.92 18.5516 179.178 18.5516 178.177Z" fill="black"/>
<path d="M20.4238 183.504C20.4238 182.532 20.5057 181.677 20.9272 180.963C21.2785 180.378 21.8756 179.898 22.6132 179.898C22.8473 179.898 23.3859 179.933 23.6552 180.343C23.1283 180.366 23.0815 180.764 23.0815 180.893C23.0815 181.244 23.3508 181.443 23.6318 181.443C23.8425 181.443 24.182 181.314 24.182 180.869C24.182 180.167 23.6552 179.593 22.6015 179.593C20.9741 179.593 19.3232 181.139 19.3232 183.668C19.3232 186.841 20.7984 187.625 21.9341 187.625C22.4961 187.625 23.1049 187.473 23.6318 186.969C24.1001 186.513 24.4981 186.021 24.4981 185.002C24.4981 183.469 23.339 182.392 22.0395 182.392C21.1965 182.392 20.6931 182.93 20.4238 183.504ZM21.9341 187.274C21.3136 187.274 20.9272 186.841 20.7516 186.513C20.4823 185.986 20.4589 185.19 20.4589 184.745C20.4589 183.586 21.0911 182.719 21.9926 182.719C22.578 182.719 22.9293 183.024 23.1517 183.434C23.3976 183.867 23.3976 184.394 23.3976 184.991C23.3976 185.588 23.3976 186.103 23.1634 186.524C22.859 187.063 22.4492 187.274 21.9341 187.274Z" fill="black"/>
<path d="M11 120L18 127M25 120L18 127M25 134L18 127M11 134L18 127" stroke="black" stroke-width="3"/>
<path d="M158 145L160.562 154.562M170.124 152L160.562 154.562M163.124 164.124L160.562 154.562M151 157.124L160.562 154.562" stroke="black" stroke-width="3"/>
</svg>
