<svg width="770" height="250" viewBox="0 0 770 250" fill="none" xmlns="http://www.w3.org/2000/svg">
<rect width="770" height="250" fill="white"/>
<rect x="170.25" y="0.25" width="459.5" height="249.5" rx="1.75" stroke="black" stroke-width="0.5" stroke-dasharray="5 2"/>
<path d="M130 90L120 84.2265V95.7735L130 90ZM70 91H121V89H70V91Z" fill="black"/>
<path d="M389.774 15.5635C388.648 15.2399 387.828 14.8434 387.313 14.374C386.803 13.9001 386.547 13.3167 386.547 12.624C386.547 11.8402 386.86 11.193 387.484 10.6826C388.113 10.1676 388.929 9.91016 389.931 9.91016C390.615 9.91016 391.223 10.0423 391.756 10.3066C392.294 10.571 392.709 10.9355 393.001 11.4004C393.297 11.8652 393.445 12.3734 393.445 12.9248H392.126C392.126 12.3232 391.934 11.8516 391.551 11.5098C391.169 11.1634 390.628 10.9902 389.931 10.9902C389.284 10.9902 388.778 11.1338 388.414 11.4209C388.054 11.7035 387.874 12.0977 387.874 12.6035C387.874 13.0091 388.045 13.3532 388.386 13.6357C388.733 13.9137 389.318 14.1689 390.143 14.4014C390.973 14.6338 391.62 14.8913 392.085 15.1738C392.554 15.4518 392.9 15.7777 393.124 16.1514C393.351 16.5251 393.465 16.9648 393.465 17.4707C393.465 18.2773 393.151 18.9245 392.522 19.4121C391.893 19.8952 391.052 20.1367 390 20.1367C389.316 20.1367 388.678 20.0068 388.086 19.7471C387.493 19.4827 387.035 19.1227 386.711 18.667C386.392 18.2113 386.233 17.694 386.233 17.1152H387.552C387.552 17.7168 387.773 18.193 388.215 18.5439C388.662 18.8903 389.257 19.0635 390 19.0635C390.692 19.0635 391.223 18.9222 391.592 18.6396C391.961 18.3571 392.146 17.972 392.146 17.4844C392.146 16.9967 391.975 16.6208 391.633 16.3564C391.292 16.0876 390.672 15.8232 389.774 15.5635ZM398.449 18.2568L401.293 10.0469H402.728L399.037 20H397.875L394.19 10.0469H395.619L398.449 18.2568ZM405.763 10.0469L409.017 18.168L412.271 10.0469H413.973L413.973 20H412.661L412.661 16.124L412.784 11.9404L409.516 20H408.511L405.251 11.9609L405.38 16.124L405.38 20H404.068L404.068 10.0469H405.763Z" fill="black"/>
<path d="M37 90L37 132M37 90L64 48L10 48L37 90Z" stroke="black" stroke-width="2"/>
<path d="M10 58C15.5228 58 20 53.5228 20 48C20 42.4772 15.5228 38 10 38C4.47715 38 0 42.4772 0 48C0 53.5228 4.47715 58 10 58Z" fill="black"/>
<path d="M64 58C69.5228 58 74 53.5228 74 48C74 42.4772 69.5228 38 64 38C58.4772 38 54 42.4772 54 48C54 53.5228 58.4772 58 64 58Z" fill="black"/>
<path d="M37 100C42.5228 100 47 95.5228 47 90C47 84.4772 42.5228 80 37 80C31.4772 80 27 84.4772 27 90C27 95.5228 31.4772 100 37 100Z" fill="black"/>
<path d="M37 142C42.5228 142 47 137.523 47 132C47 126.477 42.5228 122 37 122C31.4772 122 27 126.477 27 132C27 137.523 31.4772 142 37 142Z" fill="black"/>
<path d="M149.854 51.251C149.637 51.2148 148.858 51.1967 147.519 51.1967C146.12 51.1967 145.312 51.2148 145.094 51.251H144.932V50.4186H145.493C145.734 50.4186 145.897 50.4186 145.981 50.4186C146.066 50.4186 146.168 50.4065 146.289 50.3824C146.409 50.3582 146.494 50.3281 146.542 50.2919C146.59 50.2557 146.633 50.2074 146.669 50.1471C146.681 50.123 146.687 49.7973 146.687 49.1699V48.2651H142V47.4327L144.732 43.2525C146.578 40.4537 147.513 39.0482 147.537 39.0362C147.562 39.012 147.688 39 147.917 39H148.243L148.352 39.1086V47.4327H150.017V48.2651H148.352V49.188C148.352 49.6827 148.352 49.9722 148.352 50.0566C148.352 50.1411 148.388 50.2135 148.46 50.2738C148.557 50.3582 148.901 50.4065 149.492 50.4186H150.017V51.251H149.854ZM146.795 47.4327V41.3887L142.832 47.4146L144.805 47.4327H146.795Z" fill="#355FB3"/>
<path d="M143.068 73.2886C142.742 73.2886 142.483 73.18 142.29 72.9628C142.097 72.7457 142 72.4803 142 72.1666C142 71.3101 142.32 70.5681 142.959 69.9408C143.598 69.3135 144.395 68.9998 145.348 68.9998C146.446 68.9998 147.362 69.3376 148.098 70.0132C148.834 70.6888 149.208 71.5634 149.22 72.6371C149.22 73.1559 149.1 73.6505 148.858 74.121C148.617 74.5915 148.328 75.0017 147.99 75.3515C147.652 75.7014 147.169 76.1477 146.542 76.6906C146.108 77.0646 145.505 77.6195 144.732 78.3555L143.665 79.3688L145.04 79.3869C146.934 79.3869 147.942 79.3568 148.062 79.2964C148.147 79.2723 148.291 78.7355 148.496 77.6859V77.6316H149.22V77.6859C149.208 77.7221 149.13 78.271 148.985 79.3326C148.84 80.3943 148.75 80.9492 148.714 80.9975V81.0518H142V80.7079V80.4908C142 80.4063 142.036 80.3159 142.109 80.2193C142.181 80.1228 142.362 79.9117 142.651 79.586C143.001 79.1999 143.303 78.8621 143.556 78.5726C143.665 78.452 143.87 78.2288 144.172 77.9031C144.473 77.5773 144.678 77.3541 144.787 77.2335C144.895 77.1129 145.07 76.9138 145.312 76.6363C145.553 76.3589 145.722 76.1538 145.818 76.0211C145.915 75.8884 146.054 75.7074 146.234 75.4782C146.415 75.249 146.542 75.0559 146.614 74.8991C146.687 74.7423 146.777 74.5674 146.886 74.3743C146.994 74.1813 147.073 73.9883 147.121 73.7953C147.169 73.6022 147.212 73.4213 147.248 73.2524C147.284 73.0835 147.302 72.8844 147.302 72.6552C147.302 71.8952 147.097 71.2377 146.687 70.6827C146.277 70.1278 145.692 69.8503 144.932 69.8503C144.533 69.8503 144.184 69.9529 143.882 70.158C143.58 70.3631 143.369 70.5621 143.249 70.7551C143.128 70.9482 143.068 71.0628 143.068 71.099C143.068 71.111 143.098 71.1171 143.158 71.1171C143.375 71.1171 143.598 71.2015 143.828 71.3704C144.057 71.5393 144.172 71.8168 144.172 72.2028C144.172 72.5044 144.075 72.7578 143.882 72.9628C143.689 73.1679 143.418 73.2765 143.068 73.2886Z" fill="#B33535"/>
<path d="M145.352 100.593L145.117 100.683C144.948 100.743 144.707 100.804 144.393 100.864C144.08 100.924 143.73 100.966 143.344 100.991H143V100.158H143.344C143.911 100.134 144.436 100.044 144.918 99.8868C145.401 99.7299 145.739 99.5852 145.932 99.4525C146.125 99.3198 146.293 99.1871 146.438 99.0544C146.462 99.0182 146.535 99.0001 146.655 99.0001C146.764 99.0001 146.867 99.0363 146.963 99.1086V104.519L146.981 109.948C147.066 110.033 147.138 110.087 147.198 110.111C147.259 110.135 147.403 110.159 147.633 110.183C147.862 110.208 148.236 110.22 148.755 110.22H149.225V111.052H149.026C148.773 111.016 147.814 110.998 146.149 110.998C144.508 110.998 143.561 111.016 143.308 111.052H143.09V110.22H143.561C143.826 110.22 144.056 110.22 144.249 110.22C144.442 110.22 144.592 110.214 144.701 110.201C144.81 110.189 144.906 110.171 144.991 110.147C145.075 110.123 145.123 110.111 145.135 110.111C145.147 110.111 145.184 110.081 145.244 110.021C145.304 109.96 145.34 109.936 145.352 109.948V100.593Z" fill="#3BB335"/>
<path d="M145.352 130.593L145.117 130.683C144.948 130.743 144.707 130.804 144.393 130.864C144.08 130.924 143.73 130.966 143.344 130.991H143V130.158H143.344C143.911 130.134 144.436 130.044 144.918 129.887C145.401 129.73 145.739 129.585 145.932 129.452C146.125 129.32 146.293 129.187 146.438 129.054C146.462 129.018 146.535 129 146.655 129C146.764 129 146.867 129.036 146.963 129.109V134.519L146.981 139.948C147.066 140.033 147.138 140.087 147.198 140.111C147.259 140.135 147.403 140.159 147.633 140.183C147.862 140.208 148.236 140.22 148.755 140.22H149.225V141.052H149.026C148.773 141.016 147.814 140.998 146.149 140.998C144.508 140.998 143.561 141.016 143.308 141.052H143.09V140.22H143.561C143.826 140.22 144.056 140.22 144.249 140.22C144.442 140.22 144.592 140.214 144.701 140.201C144.81 140.189 144.906 140.171 144.991 140.147C145.075 140.123 145.123 140.111 145.135 140.111C145.147 140.111 145.184 140.081 145.244 140.021C145.304 139.96 145.34 139.936 145.352 139.948V130.593Z" fill="#66571E"/>
<path d="M197.234 47.2168H192.766L191.763 50H190.312L194.385 39.3359H195.615L199.695 50H198.252L197.234 47.2168ZM193.191 46.0596H196.816L195 41.0718L193.191 46.0596Z" fill="#355FB3"/>
<path d="M191.565 80V69.3359H195.051C196.208 69.3359 197.078 69.5752 197.659 70.0537C198.245 70.5322 198.538 71.2402 198.538 72.1777C198.538 72.6758 198.396 73.1177 198.113 73.5034C197.83 73.8843 197.444 74.1797 196.956 74.3896C197.532 74.5508 197.986 74.8584 198.318 75.3125C198.655 75.7617 198.823 76.2988 198.823 76.9238C198.823 77.8809 198.513 78.6328 197.893 79.1797C197.273 79.7266 196.396 80 195.264 80H191.565ZM192.971 75.0122V78.8501H195.293C195.947 78.8501 196.462 78.6816 196.838 78.3447C197.219 78.0029 197.41 77.5342 197.41 76.9385C197.41 75.6543 196.711 75.0122 195.315 75.0122H192.971ZM192.971 73.8843H195.095C195.71 73.8843 196.201 73.7305 196.567 73.4229C196.938 73.1152 197.124 72.6978 197.124 72.1704C197.124 71.5845 196.953 71.1597 196.611 70.896C196.27 70.6274 195.75 70.4932 195.051 70.4932H192.971V73.8843Z" fill="#B33535"/>
<path d="M199.197 106.616C199.065 107.744 198.647 108.616 197.944 109.231C197.246 109.841 196.316 110.146 195.154 110.146C193.894 110.146 192.883 109.695 192.122 108.792C191.365 107.888 190.986 106.68 190.986 105.166V104.141C190.986 103.149 191.162 102.278 191.514 101.526C191.87 100.774 192.373 100.198 193.022 99.7974C193.672 99.3921 194.424 99.1895 195.278 99.1895C196.411 99.1895 197.319 99.5068 198.003 100.142C198.687 100.771 199.084 101.646 199.197 102.764H197.783C197.661 101.914 197.395 101.299 196.985 100.918C196.58 100.537 196.011 100.347 195.278 100.347C194.38 100.347 193.674 100.679 193.162 101.343C192.654 102.007 192.4 102.952 192.4 104.177V105.21C192.4 106.367 192.642 107.288 193.125 107.971C193.608 108.655 194.285 108.997 195.154 108.997C195.935 108.997 196.533 108.821 196.948 108.469C197.368 108.113 197.646 107.495 197.783 106.616H199.197Z" fill="#3BB335"/>
<path d="M191.316 140V129.336H194.326C195.254 129.336 196.074 129.541 196.787 129.951C197.5 130.361 198.049 130.945 198.435 131.702C198.826 132.458 199.023 133.328 199.028 134.309V134.99C199.028 135.996 198.833 136.877 198.442 137.634C198.057 138.391 197.502 138.972 196.78 139.377C196.062 139.783 195.225 139.99 194.268 140H191.316ZM192.722 130.493V138.85H194.202C195.286 138.85 196.128 138.513 196.729 137.839C197.334 137.166 197.637 136.206 197.637 134.961V134.338C197.637 133.127 197.351 132.188 196.78 131.519C196.213 130.845 195.408 130.503 194.363 130.493H192.722Z" fill="#66571E"/>
<path d="M215 50C217.761 50 220 47.7614 220 45C220 42.2386 217.761 40 215 40C212.239 40 210 42.2386 210 45C210 47.7614 212.239 50 215 50Z" fill="#355FB3"/>
<path d="M230 65L215 75L230 85V65Z" stroke="#B33535"/>
<path d="M230 70C232.761 70 235 67.7614 235 65C235 62.2386 232.761 60 230 60C227.239 60 225 62.2386 225 65C225 67.7614 227.239 70 230 70Z" fill="#B33535"/>
<path d="M230 90C232.761 90 235 87.7614 235 85C235 82.2386 232.761 80 230 80C227.239 80 225 82.2386 225 85C225 87.7614 227.239 90 230 90Z" fill="#B33535"/>
<path d="M215 80C217.761 80 220 77.7614 220 75C220 72.2386 217.761 70 215 70C212.239 70 210 72.2386 210 75C210 77.7614 212.239 80 215 80Z" fill="#B33535"/>
<path d="M235 105L250 95V115L235 105ZM235 105H215" stroke="#3BB335"/>
<path d="M250 100C252.761 100 255 97.7614 255 95C255 92.2386 252.761 90 250 90C247.239 90 245 92.2386 245 95C245 97.7614 247.239 100 250 100Z" fill="#3BB335"/>
<path d="M250 120C252.761 120 255 117.761 255 115C255 112.239 252.761 110 250 110C247.239 110 245 112.239 245 115C245 117.761 247.239 120 250 120Z" fill="#3BB335"/>
<path d="M235 110C237.761 110 240 107.761 240 105C240 102.239 237.761 100 235 100C232.239 100 230 102.239 230 105C230 107.761 232.239 110 235 110Z" fill="#3BB335"/>
<path d="M215 110C217.761 110 220 107.761 220 105C220 102.239 217.761 100 215 100C212.239 100 210 102.239 210 105C210 107.761 212.239 110 215 110Z" fill="#3BB335"/>
<path d="M235 135H215" stroke="#B39735"/>
<path d="M235 140C237.761 140 240 137.761 240 135C240 132.239 237.761 130 235 130C232.239 130 230 132.239 230 135C230 137.761 232.239 140 235 140Z" fill="#B39735"/>
<path d="M215 140C217.761 140 220 137.761 220 135C220 132.239 217.761 130 215 130C212.239 130 210 132.239 210 135C210 137.761 212.239 140 215 140Z" fill="#B39735"/>
<path d="M235 50C237.761 50 240 47.7614 240 45C240 42.2386 237.761 40 235 40C232.239 40 230 42.2386 230 45C230 47.7614 232.239 50 235 50Z" fill="#355FB3"/>
<path d="M255 50C257.761 50 260 47.7614 260 45C260 42.2386 257.761 40 255 40C252.239 40 250 42.2386 250 45C250 47.7614 252.239 50 255 50Z" fill="#355FB3"/>
<path d="M275 50C277.761 50 280 47.7614 280 45C280 42.2386 277.761 40 275 40C272.239 40 270 42.2386 270 45C270 47.7614 272.239 50 275 50Z" fill="#355FB3"/>
<path d="M375 205H395V225M375 205L395 225M375 205V225H395" stroke="black"/>
<path d="M395 225H415" stroke="#B39735"/>
<path d="M395 210C397.761 210 400 207.761 400 205C400 202.239 397.761 200 395 200C392.239 200 390 202.239 390 205C390 207.761 392.239 210 395 210Z" fill="black"/>
<path d="M395 230C397.761 230 400 227.761 400 225C400 222.239 397.761 220 395 220C392.239 220 390 222.239 390 225C390 227.761 392.239 230 395 230Z" fill="#B39735"/>
<path d="M415 230C417.761 230 420 227.761 420 225C420 222.239 417.761 220 415 220C412.239 220 410 222.239 410 225C410 227.761 412.239 230 415 230Z" fill="#B39735"/>
<path d="M375 210C377.761 210 380 207.761 380 205C380 202.239 377.761 200 375 200C372.239 200 370 202.239 370 205C370 207.761 372.239 210 375 210Z" fill="black"/>
<path d="M375 230C377.761 230 380 227.761 380 225C380 222.239 377.761 220 375 220C372.239 220 370 222.239 370 225C370 227.761 372.239 230 375 230Z" fill="black"/>
<path d="M235 235L215 235L235 215L235 235Z" stroke="black"/>
<path d="M215 215V235H195" stroke="#B39735"/>
<path d="M235 215L235 195" stroke="#B39735"/>
<path d="M220 215C220 212.239 217.761 210 215 210C212.239 210 210 212.239 210 215C210 217.761 212.239 220 215 220C217.761 220 220 217.761 220 215Z" fill="#B39735"/>
<path d="M200 235C200 232.239 197.761 230 195 230C192.239 230 190 232.239 190 235C190 237.761 192.239 240 195 240C197.761 240 200 237.761 200 235Z" fill="#B39735"/>
<path d="M240 215C240 212.239 237.761 210 235 210C232.239 210 230 212.239 230 215C230 217.761 232.239 220 235 220C237.761 220 240 217.761 240 215Z" fill="#B39735"/>
<path d="M240 195C240 192.239 237.761 190 235 190C232.239 190 230 192.239 230 195C230 197.761 232.239 200 235 200C237.761 200 240 197.761 240 195Z" fill="#B39735"/>
<path d="M220 235C220 232.239 217.761 230 215 230C212.239 230 210 232.239 210 235C210 237.761 212.239 240 215 240C217.761 240 220 237.761 220 235Z" fill="#B39735"/>
<path d="M240 235C240 232.239 237.761 230 235 230C232.239 230 230 232.239 230 235C230 237.761 232.239 240 235 240C237.761 240 240 237.761 240 235Z" fill="black"/>
<path d="M305 210L315 225M305 210L295 225M305 210L305 190M315 225L295 225M315 225L335 235M295 225L275 235M305 190L335 235M305 190L275 235M335 235L275 235" stroke="black"/>
<path d="M310 225C310 227.761 312.239 230 315 230C317.761 230 320 227.761 320 225C320 222.239 317.761 220 315 220C312.239 220 310 222.239 310 225Z" fill="black"/>
<path d="M330 235C330 237.761 332.239 240 335 240C337.761 240 340 237.761 340 235C340 232.239 337.761 230 335 230C332.239 230 330 232.239 330 235Z" fill="black"/>
<path d="M290 225C290 227.761 292.239 230 295 230C297.761 230 300 227.761 300 225C300 222.239 297.761 220 295 220C292.239 220 290 222.239 290 225Z" fill="black"/>
<path d="M270 235C270 237.761 272.239 240 275 240C277.761 240 280 237.761 280 235C280 232.239 277.761 230 275 230C272.239 230 270 232.239 270 235Z" fill="black"/>
<path d="M300 210C300 212.761 302.239 215 305 215C307.761 215 310 212.761 310 210C310 207.239 307.761 205 305 205C302.239 205 300 207.239 300 210Z" fill="black"/>
<path d="M300 190C300 192.761 302.239 195 305 195C307.761 195 310 192.761 310 190C310 187.239 307.761 185 305 185C302.239 185 300 187.239 300 190Z" fill="black"/>
<path d="M453 235C453 237.761 455.239 240 458 240C460.761 240 463 237.761 463 235C463 232.239 460.761 230 458 230C455.239 230 453 232.239 453 235Z" fill="black"/>
<path d="M475 235C475 237.761 477.239 240 480 240C482.761 240 485 237.761 485 235C485 232.239 482.761 230 480 230C477.239 230 475 232.239 475 235Z" fill="black"/>
<path d="M441 219C441 221.761 443.239 224 446 224C448.761 224 451 221.761 451 219C451 216.239 448.761 214 446 214C443.239 214 441 216.239 441 219Z" fill="black"/>
<path d="M487 219C487 221.761 489.239 224 492 224C494.761 224 497 221.761 497 219C497 216.239 494.761 214 492 214C489.239 214 487 216.239 487 219Z" fill="black"/>
<path d="M446 199C446 201.761 448.239 204 451 204C453.761 204 456 201.761 456 199C456 196.239 453.761 194 451 194C448.239 194 446 196.239 446 199Z" fill="black"/>
<path d="M482 199C482 201.761 484.239 204 487 204C489.761 204 492 201.761 492 199C492 196.239 489.761 194 487 194C484.239 194 482 196.239 482 199Z" fill="black"/>
<path d="M464 190C464 192.761 466.239 195 469 195C471.761 195 474 192.761 474 190C474 187.239 471.761 185 469 185C466.239 185 464 187.239 464 190Z" fill="black"/>
<path d="M450.279 198.571L469 189.555L487.721 198.571L492.345 218.828L479.389 235.074H458.611L445.655 218.828L450.279 198.571Z" stroke="black"/>
<path d="M660.391 89.3785C660.391 89.2096 660.481 88.9201 660.662 88.5099C660.843 88.0997 661.133 87.6715 661.531 87.2251C661.929 86.7787 662.376 86.5616 662.87 86.5736C663.365 86.5736 663.763 86.7124 664.064 86.9898C664.366 87.2673 664.523 87.6534 664.535 88.148C664.511 88.3772 664.493 88.5039 664.481 88.528C664.481 88.5642 664.384 88.8417 664.191 89.3604C663.998 89.8792 663.799 90.4643 663.594 91.1157C663.389 91.7672 663.292 92.2859 663.304 92.672C663.304 93.1907 663.389 93.5527 663.558 93.7577C663.727 93.9628 663.98 94.0714 664.318 94.0835C664.595 94.0835 664.855 94.0171 665.096 93.8844C665.337 93.7517 665.524 93.613 665.657 93.4682C665.79 93.3234 665.952 93.1244 666.146 92.871C666.146 92.859 666.176 92.7383 666.236 92.5091C666.296 92.2799 666.381 91.924 666.489 91.4415C666.598 90.9589 666.713 90.5125 666.833 90.1023C667.292 88.2927 667.545 87.3457 667.593 87.2613C667.75 86.9355 668.009 86.7727 668.371 86.7727C668.528 86.7727 668.655 86.8149 668.751 86.8994C668.848 86.9838 668.914 87.0562 668.95 87.1165C668.987 87.1768 668.999 87.2311 668.987 87.2794C668.987 87.4362 668.691 88.7029 668.1 91.0795C667.509 93.4561 667.171 94.7591 667.087 94.9883C666.749 95.9896 666.164 96.7858 665.331 97.3769C664.499 97.9681 663.666 98.2697 662.834 98.2817C662.291 98.2817 661.815 98.149 661.404 97.8836C660.994 97.6182 660.789 97.2201 660.789 96.6893C660.789 96.4239 660.831 96.2007 660.916 96.0197C661 95.8388 661.115 95.7061 661.26 95.6216C661.404 95.5372 661.525 95.4769 661.622 95.4407C661.718 95.4045 661.821 95.3864 661.929 95.3864C662.46 95.3864 662.725 95.6397 662.725 96.1464C662.725 96.3877 662.653 96.5988 662.508 96.7798C662.363 96.9607 662.225 97.0814 662.092 97.1417C661.959 97.202 661.881 97.2322 661.857 97.2322L661.802 97.2503C661.827 97.3106 661.941 97.383 662.146 97.4674C662.351 97.5519 662.556 97.5941 662.762 97.5941H662.906C663.111 97.5941 663.268 97.582 663.377 97.5579C663.775 97.4493 664.143 97.2201 664.481 96.8703C664.818 96.5204 665.078 96.1464 665.259 95.7483C665.44 95.3502 665.579 95.0124 665.675 94.7349C665.772 94.4575 665.82 94.2765 665.82 94.192L665.711 94.2644C665.639 94.3127 665.524 94.379 665.367 94.4635C665.211 94.5479 665.054 94.6203 664.897 94.6806C664.656 94.741 664.42 94.7711 664.191 94.7711C663.636 94.7711 663.148 94.6384 662.725 94.373C662.303 94.1076 662.026 93.6793 661.893 93.0882C661.881 93.0037 661.875 92.8167 661.875 92.5272C661.875 91.8396 662.086 90.9408 662.508 89.8309C662.93 88.721 663.142 88.0153 663.142 87.7137C663.142 87.7016 663.142 87.6895 663.142 87.6775C663.142 87.5689 663.142 87.4965 663.142 87.4603C663.142 87.4241 663.117 87.3819 663.069 87.3337C663.021 87.2854 662.955 87.2613 662.87 87.2613H662.798C662.52 87.2613 662.267 87.3759 662.038 87.6051C661.809 87.8343 661.628 88.0816 661.495 88.347C661.362 88.6124 661.26 88.8658 661.187 89.1071C661.115 89.3483 661.067 89.4811 661.042 89.5052C661.018 89.5293 660.922 89.5414 660.753 89.5414H660.5C660.427 89.469 660.391 89.4147 660.391 89.3785Z" fill="black"/>
<path d="M675.425 90.048C675.425 88.5762 675.92 87.3698 676.909 86.4288C677.898 85.4878 679.068 84.951 680.42 84.8183C680.432 84.8183 680.534 84.8183 680.727 84.8183C680.92 84.8183 681.174 84.8123 681.487 84.8002C681.801 84.7881 682.103 84.7881 682.392 84.8002H684.184C684.365 84.8967 684.455 85.0173 684.455 85.1621C684.455 85.2707 684.377 85.3853 684.22 85.5059L682.338 85.524C680.999 85.5361 680.172 85.5723 679.859 85.6326C679.268 85.7774 678.743 85.9945 678.284 86.2841C677.826 86.5736 677.47 86.8692 677.217 87.1708C676.963 87.4724 676.746 87.8041 676.565 88.166C676.384 88.528 676.276 88.8175 676.239 89.0347C676.203 89.2518 676.173 89.4569 676.149 89.6499V89.6861H684.184C684.365 89.7826 684.455 89.9033 684.455 90.048C684.455 90.1928 684.365 90.3134 684.184 90.4099H676.149V90.4461C676.149 90.6995 676.209 91.0071 676.33 91.369C676.451 91.731 676.65 92.123 676.927 92.5453C677.205 92.9675 677.591 93.3536 678.085 93.7034C678.58 94.0533 679.165 94.3006 679.841 94.4454C680.166 94.5177 680.999 94.56 682.338 94.572H684.22C684.377 94.6927 684.455 94.8133 684.455 94.9339C684.455 95.0787 684.365 95.1994 684.184 95.2959H682.428C682.344 95.2959 682.193 95.2959 681.976 95.2959C681.759 95.2959 681.584 95.3019 681.451 95.314C679.581 95.314 678.103 94.7952 677.018 93.7577C675.956 92.7685 675.425 91.5319 675.425 90.048Z" fill="black"/>
<path d="M698.856 98.7521C698.856 98.909 698.82 99.0236 698.747 99.0959H698.422C696.865 99.0959 695.78 98.6978 695.164 97.9016C695.104 97.8172 695.056 97.7448 695.02 97.6845C694.983 97.6241 694.953 97.5578 694.929 97.4854C694.905 97.413 694.881 97.3346 694.857 97.2502C694.833 97.1657 694.82 97.0752 694.82 96.9787C694.82 96.8822 694.814 96.7495 694.802 96.5806C694.79 96.4117 694.784 96.2488 694.784 96.092C694.784 95.9352 694.784 95.712 694.784 95.4225C694.784 95.1329 694.784 94.8494 694.784 94.5719C694.784 94.3186 694.784 93.9989 694.784 93.6129C694.772 92.5392 694.742 91.936 694.694 91.8033C694.682 91.7912 694.676 91.7791 694.676 91.7671C694.507 91.3328 694.205 90.995 693.771 90.7537C693.337 90.5124 692.908 90.3918 692.486 90.3918C692.353 90.3918 692.269 90.3737 692.233 90.3375C692.197 90.3013 692.178 90.2048 692.178 90.0479C692.178 89.8911 692.197 89.7946 692.233 89.7584C692.269 89.7222 692.353 89.7041 692.486 89.7041C692.896 89.7041 693.318 89.5835 693.753 89.3422C694.187 89.1009 694.495 88.7631 694.676 88.3288C694.736 88.1961 694.766 88.0031 694.766 87.7498C694.766 87.4964 694.772 86.5795 694.784 84.9992V84.0944C694.784 83.4308 694.82 82.9664 694.893 82.701C694.965 82.4356 695.14 82.1822 695.418 81.9409C695.731 81.6273 696.214 81.3739 696.865 81.1809C697.312 81.0844 697.631 81.0301 697.824 81.018C697.849 81.018 697.927 81.018 698.06 81.018C698.192 81.018 698.301 81.012 698.385 80.9999H698.747C698.82 81.0723 698.856 81.1809 698.856 81.3257C698.856 81.4825 698.838 81.579 698.802 81.6152C698.777 81.6514 698.681 81.6695 698.512 81.6695C697.873 81.7057 697.372 81.8505 697.01 82.1038C696.648 82.3571 696.431 82.6105 696.359 82.8638C696.298 83.0207 696.268 83.9134 696.268 85.542V87.0259C696.268 87.5929 696.25 87.979 696.214 88.1841C696.178 88.3891 696.075 88.6244 695.906 88.8898C695.532 89.4086 695.007 89.7644 694.332 89.9575L694.079 90.0479L694.332 90.1384C694.549 90.2108 694.766 90.3013 694.983 90.4099C695.2 90.5184 695.454 90.7235 695.743 91.0251C696.033 91.3267 696.202 91.6826 696.25 92.0928C696.262 92.1652 696.268 92.9855 696.268 94.5539C696.268 96.1825 696.298 97.0752 696.359 97.2321C696.479 97.5578 696.739 97.8292 697.137 98.0464C697.535 98.2635 697.993 98.3902 698.512 98.4264C698.681 98.4264 698.777 98.4445 698.802 98.4807C698.838 98.5169 698.856 98.6074 698.856 98.7521Z" fill="black"/>
<path d="M701.57 90.2832C701.57 90.2832 701.57 90.2048 701.57 90.048C701.57 89.8912 701.655 89.7705 701.824 89.6861H712.337C712.518 89.7826 712.609 89.9032 712.609 90.048C712.609 90.1928 712.518 90.3134 712.337 90.4099H701.824C701.655 90.3255 701.57 90.2048 701.57 90.048V90.2832Z" fill="black"/>
<path d="M717.983 84.1125L717.748 84.203C717.579 84.2633 717.338 84.3237 717.024 84.384C716.711 84.4443 716.361 84.4865 715.975 84.5106H715.631V83.6782H715.975C716.542 83.6541 717.066 83.5636 717.549 83.4068C718.032 83.25 718.369 83.1052 718.562 82.9725C718.755 82.8398 718.924 82.7071 719.069 82.5744C719.093 82.5382 719.166 82.5201 719.286 82.5201C719.395 82.5201 719.497 82.5563 719.594 82.6287V88.0394L719.612 93.4682C719.696 93.5526 719.769 93.6069 719.829 93.631C719.889 93.6552 720.034 93.6793 720.263 93.7034C720.493 93.7275 720.867 93.7396 721.385 93.7396H721.856V94.572H721.657C721.403 94.5358 720.444 94.5177 718.78 94.5177C717.139 94.5177 716.192 94.5358 715.938 94.572H715.721V93.7396H716.192C716.457 93.7396 716.686 93.7396 716.879 93.7396C717.072 93.7396 717.223 93.7336 717.332 93.7215C717.44 93.7094 717.537 93.6913 717.621 93.6672C717.706 93.6431 717.754 93.631 717.766 93.631C717.778 93.631 717.814 93.6009 717.875 93.5405C717.935 93.4802 717.971 93.4561 717.983 93.4682V84.1125Z" fill="black"/>
<path d="M724.588 93.9386C724.588 93.9386 724.588 93.7878 724.588 93.4862C724.588 93.1846 724.685 92.9252 724.878 92.7081C725.071 92.4909 725.33 92.3823 725.656 92.3823C725.994 92.3823 726.295 92.5331 726.561 92.8347C726.826 93.1363 726.965 93.6672 726.977 94.4272C726.977 94.8494 726.923 95.2596 726.814 95.6577C726.706 96.0558 726.579 96.3997 726.434 96.6892C726.289 96.9787 726.133 97.226 725.964 97.4311C725.795 97.6362 725.65 97.7991 725.529 97.9197C725.409 98.0404 725.33 98.0946 725.294 98.0826C725.246 98.0826 725.167 98.0283 725.059 97.9197C724.95 97.8111 724.896 97.7327 724.896 97.6845C724.896 97.6362 724.962 97.5397 725.095 97.3949C725.228 97.2502 725.379 97.0692 725.547 96.8521C725.716 96.6349 725.873 96.3333 726.018 95.9473C726.163 95.5612 726.259 95.1209 726.307 94.6262V94.4091L726.289 94.4272C726.265 94.4393 726.235 94.4513 726.199 94.4634C726.163 94.4754 726.127 94.4935 726.09 94.5177C726.054 94.5418 726 94.5539 725.927 94.5539C725.855 94.5539 725.783 94.5599 725.71 94.572C725.385 94.572 725.119 94.4694 724.914 94.2643L724.588 93.9386Z" fill="black"/>
<path d="M732.236 90.2833C732.236 90.2833 732.236 90.2049 732.236 90.048C732.236 89.8912 732.32 89.7706 732.489 89.6861H737.9V86.9717L737.918 84.2573C738.039 84.1005 738.153 84.0221 738.262 84.0221C738.419 84.0221 738.539 84.1125 738.624 84.2935V89.6861H744.016C744.197 89.7826 744.288 89.9033 744.288 90.048C744.288 90.1928 744.197 90.3134 744.016 90.41H738.624V95.8026C738.527 95.9715 738.419 96.0559 738.298 96.0559H738.262H738.225C738.081 96.0559 737.972 95.9715 737.9 95.8026V90.41H732.489C732.32 90.3255 732.236 90.2049 732.236 90.048V90.2833Z" fill="black"/>
<path d="M749.156 84.1125L748.92 84.203C748.751 84.2633 748.51 84.3237 748.196 84.384C747.883 84.4443 747.533 84.4865 747.147 84.5106H746.803V83.6782H747.147C747.714 83.6541 748.239 83.5636 748.721 83.4068C749.204 83.25 749.542 83.1052 749.735 82.9725C749.928 82.8398 750.097 82.7071 750.241 82.5744C750.265 82.5382 750.338 82.5201 750.458 82.5201C750.567 82.5201 750.67 82.5563 750.766 82.6287V88.0394L750.784 93.4682C750.869 93.5526 750.941 93.6069 751.001 93.631C751.062 93.6552 751.206 93.6793 751.436 93.7034C751.665 93.7275 752.039 93.7396 752.558 93.7396H753.028V94.572H752.829C752.576 94.5358 751.617 94.5177 749.952 94.5177C748.311 94.5177 747.364 94.5358 747.111 94.572H746.894V93.7396H747.364C747.629 93.7396 747.859 93.7396 748.052 93.7396C748.245 93.7396 748.395 93.7336 748.504 93.7215C748.613 93.7094 748.709 93.6913 748.794 93.6672C748.878 93.6431 748.926 93.631 748.938 93.631C748.95 93.631 748.987 93.6009 749.047 93.5405C749.107 93.4802 749.143 93.4561 749.156 93.4682V84.1125Z" fill="black"/>
<path d="M755.525 81.3438C755.525 81.1749 755.543 81.0784 755.58 81.0542C755.616 81.0301 755.736 81.012 755.941 80.9999C756.943 80.9999 757.715 81.1507 758.258 81.4523C758.801 81.7539 759.181 82.0857 759.398 82.4476C759.506 82.701 759.567 82.9121 759.579 83.081C759.591 83.2499 759.603 84.0582 759.615 85.5059C759.627 87.1827 759.639 88.0514 759.651 88.1117C759.808 88.6546 760.122 89.0527 760.592 89.306C761.063 89.5594 761.497 89.6921 761.895 89.7041C762.028 89.7041 762.112 89.7222 762.148 89.7584C762.185 89.7946 762.203 89.8911 762.203 90.0479C762.203 90.2048 762.185 90.3013 762.148 90.3375C762.112 90.3737 762.028 90.3918 761.895 90.3918C761.449 90.3918 761.014 90.5184 760.592 90.7718C760.17 91.0251 759.886 91.3448 759.742 91.7309C759.681 91.8998 759.645 92.1169 759.633 92.3823C759.621 92.6477 759.615 93.5465 759.615 95.0786V96.0015C759.615 96.6651 759.579 97.1295 759.506 97.3949C759.434 97.6603 759.259 97.9137 758.982 98.155C758.33 98.7823 757.323 99.0959 755.96 99.0959C755.742 99.0959 755.616 99.0779 755.58 99.0417C755.543 99.0055 755.525 98.9029 755.525 98.734C755.525 98.6616 755.525 98.6194 755.525 98.6074C755.525 98.5953 755.531 98.5651 755.543 98.5169C755.555 98.4686 755.574 98.4445 755.598 98.4445C755.622 98.4445 755.67 98.4385 755.742 98.4264C755.911 98.4264 756.098 98.4083 756.303 98.3721C756.508 98.3359 756.738 98.2756 756.991 98.1911C757.244 98.1067 757.468 97.968 757.661 97.7749C757.854 97.5819 757.998 97.3527 758.095 97.0873C758.107 97.027 758.119 96.1704 758.131 94.5177L758.149 92.0566C758.306 91.369 758.728 90.82 759.416 90.4099C759.838 90.2048 760.14 90.0841 760.321 90.0479C760.019 89.9635 759.718 89.8429 759.416 89.686C758.752 89.2759 758.342 88.7812 758.185 88.2022L758.149 88.0212L758.131 85.5601C758.119 83.9074 758.107 83.0508 758.095 82.9905C757.95 82.5079 757.63 82.1702 757.136 81.9771C756.641 81.7841 756.177 81.6816 755.742 81.6695C755.634 81.6695 755.574 81.6514 755.561 81.6152C755.549 81.579 755.537 81.4885 755.525 81.3438Z" fill="black"/>
<path d="M185 45.5L180 42.6132V48.3868L185 45.5ZM155 46H180.5V45H155V46Z" fill="#355FB3"/>
<path d="M355 45.5L350 42.6132V48.3868L355 45.5ZM285 46H350.5V45H285V46Z" fill="#355FB3"/>
<path d="M500 45.5V45.5C506.257 45.5 512.109 48.5929 515.633 53.7623L534.046 80.7667C537.771 86.2308 543.957 89.5 550.57 89.5H575" stroke="#355FB3"/>
<path d="M360.38 45.3582C360.38 45.1893 360.471 44.8997 360.652 44.4894C360.833 44.0792 361.122 43.6508 361.52 43.2043C361.919 42.7579 362.365 42.5407 362.86 42.5527C363.354 42.5527 363.753 42.6915 364.054 42.969C364.356 43.2466 364.513 43.6327 364.525 44.1274C364.501 44.3567 364.483 44.4834 364.471 44.5075C364.471 44.5437 364.374 44.8213 364.181 45.3401C363.988 45.859 363.789 46.4442 363.584 47.0958C363.379 47.7474 363.282 48.2662 363.294 48.6524C363.294 49.1712 363.379 49.5332 363.548 49.7384C363.716 49.9435 363.97 50.0521 364.308 50.0642C364.585 50.0642 364.845 49.9978 365.086 49.8651C365.327 49.7323 365.514 49.5936 365.647 49.4488C365.78 49.304 365.943 49.1049 366.136 48.8515C366.136 48.8394 366.166 48.7187 366.226 48.4895C366.287 48.2602 366.371 47.9043 366.48 47.4216C366.588 46.9389 366.703 46.4925 366.824 46.0822C367.282 44.2722 367.536 43.325 367.584 43.2405C367.741 42.9147 368 42.7518 368.362 42.7518C368.519 42.7518 368.646 42.7941 368.742 42.8785C368.839 42.963 368.905 43.0354 368.941 43.0957C368.977 43.1561 368.99 43.2104 368.977 43.2586C368.977 43.4155 368.682 44.6825 368.091 47.0596C367.499 49.4367 367.161 50.7399 367.077 50.9691C366.739 51.9707 366.154 52.7671 365.321 53.3583C364.489 53.9496 363.656 54.2512 362.824 54.2633C362.281 54.2633 361.804 54.1306 361.394 53.8651C360.983 53.5996 360.778 53.2015 360.778 52.6705C360.778 52.4051 360.821 52.1818 360.905 52.0008C360.989 51.8198 361.104 51.6871 361.249 51.6026C361.394 51.5182 361.514 51.4578 361.611 51.4216C361.707 51.3854 361.81 51.3673 361.919 51.3673C362.45 51.3673 362.715 51.6207 362.715 52.1275C362.715 52.3689 362.643 52.58 362.498 52.761C362.353 52.942 362.214 53.0627 362.081 53.123C361.949 53.1834 361.87 53.2135 361.846 53.2135L361.792 53.2316C361.816 53.292 361.931 53.3644 362.136 53.4488C362.341 53.5333 362.546 53.5755 362.751 53.5755H362.896C363.101 53.5755 363.258 53.5634 363.367 53.5393C363.765 53.4307 364.133 53.2015 364.471 52.8515C364.809 52.5016 365.068 52.1275 365.249 51.7293C365.43 51.3311 365.569 50.9933 365.665 50.7157C365.762 50.4382 365.81 50.2572 365.81 50.1728L365.701 50.2452C365.629 50.2934 365.514 50.3598 365.358 50.4443C365.201 50.5287 365.044 50.6011 364.887 50.6614C364.646 50.7218 364.41 50.7519 364.181 50.7519C363.626 50.7519 363.137 50.6192 362.715 50.3538C362.293 50.0883 362.015 49.6599 361.882 49.0687C361.87 48.9842 361.864 48.7972 361.864 48.5076C361.864 47.8198 362.075 46.9208 362.498 45.8107C362.92 44.7006 363.131 43.9947 363.131 43.693C363.131 43.681 363.131 43.6689 363.131 43.6568C363.131 43.5482 363.131 43.4758 363.131 43.4396C363.131 43.4034 363.107 43.3612 363.059 43.3129C363.011 43.2647 362.944 43.2405 362.86 43.2405H362.787C362.51 43.2405 362.256 43.3552 362.027 43.5844C361.798 43.8137 361.617 44.0611 361.484 44.3265C361.351 44.592 361.249 44.8454 361.176 45.0867C361.104 45.328 361.056 45.4608 361.032 45.4849C361.008 45.509 360.911 45.5211 360.742 45.5211H360.489C360.416 45.4487 360.38 45.3944 360.38 45.3582Z" fill="#355FB3"/>
<path d="M371.595 45.8714L371.428 45.9354C371.309 45.9781 371.138 46.0207 370.916 46.0634C370.695 46.106 370.447 46.1359 370.174 46.1529H369.931V45.5643H370.174C370.575 45.5472 370.946 45.4833 371.287 45.3724C371.629 45.2615 371.868 45.1591 372.004 45.0652C372.141 44.9714 372.26 44.8776 372.362 44.7837C372.379 44.7581 372.431 44.7453 372.516 44.7453C372.593 44.7453 372.665 44.7709 372.733 44.8221V48.6483L372.746 52.4872C372.806 52.547 372.857 52.5853 372.9 52.6024C372.942 52.6195 373.045 52.6365 373.207 52.6536C373.369 52.6707 373.633 52.6792 374 52.6792H374.333V53.2678H374.192C374.013 53.2422 373.335 53.2294 372.158 53.2294C370.997 53.2294 370.328 53.2422 370.149 53.2678H369.995V52.6792H370.328C370.515 52.6792 370.677 52.6792 370.814 52.6792C370.95 52.6792 371.057 52.6749 371.134 52.6664C371.211 52.6579 371.279 52.6451 371.339 52.628C371.398 52.6109 371.432 52.6024 371.441 52.6024C371.45 52.6024 371.475 52.5811 371.518 52.5384C371.56 52.4958 371.586 52.4787 371.595 52.4872V45.8714Z" fill="#355FB3"/>
<path d="M382.214 44.2723C382.214 44.1154 382.298 43.9947 382.467 43.9103H393.997C394.178 44.0068 394.268 44.1275 394.268 44.2723C394.268 44.405 394.184 44.5196 394.015 44.6162L388.259 44.6343H382.503C382.31 44.5739 382.214 44.4533 382.214 44.2723ZM382.214 47.7836C382.214 47.6026 382.31 47.482 382.503 47.4216H394.015C394.184 47.5423 394.268 47.663 394.268 47.7836C394.268 47.9405 394.178 48.0612 393.997 48.1456H382.467C382.298 48.0612 382.214 47.9405 382.214 47.7836Z" fill="#355FB3"/>
<path d="M400.69 45.3582C400.69 45.1893 400.781 44.8997 400.962 44.4894C401.143 44.0792 401.432 43.6508 401.83 43.2043C402.229 42.7579 402.675 42.5407 403.17 42.5527C403.665 42.5527 404.063 42.6915 404.364 42.969C404.666 43.2466 404.823 43.6327 404.835 44.1274C404.811 44.3567 404.793 44.4834 404.781 44.5075C404.781 44.5437 404.684 44.8213 404.491 45.3401C404.298 45.859 404.099 46.4442 403.894 47.0958C403.689 47.7474 403.592 48.2662 403.604 48.6524C403.604 49.1712 403.689 49.5332 403.858 49.7384C404.027 49.9435 404.28 50.0521 404.618 50.0642C404.895 50.0642 405.155 49.9978 405.396 49.8651C405.637 49.7323 405.824 49.5936 405.957 49.4488C406.09 49.304 406.253 49.1049 406.446 48.8515C406.446 48.8394 406.476 48.7187 406.536 48.4895C406.597 48.2602 406.681 47.9043 406.79 47.4216C406.898 46.9389 407.013 46.4925 407.134 46.0822C407.592 44.2722 407.846 43.325 407.894 43.2405C408.051 42.9147 408.31 42.7518 408.672 42.7518C408.829 42.7518 408.956 42.7941 409.052 42.8785C409.149 42.963 409.215 43.0354 409.251 43.0957C409.288 43.1561 409.3 43.2104 409.288 43.2586C409.288 43.4155 408.992 44.6825 408.401 47.0596C407.809 49.4367 407.471 50.7399 407.387 50.9691C407.049 51.9707 406.464 52.7671 405.631 53.3583C404.799 53.9496 403.966 54.2512 403.134 54.2633C402.591 54.2633 402.114 54.1306 401.704 53.8651C401.293 53.5996 401.088 53.2015 401.088 52.6705C401.088 52.4051 401.131 52.1818 401.215 52.0008C401.299 51.8198 401.414 51.6871 401.559 51.6026C401.704 51.5182 401.824 51.4578 401.921 51.4216C402.017 51.3854 402.12 51.3673 402.229 51.3673C402.76 51.3673 403.025 51.6207 403.025 52.1275C403.025 52.3689 402.953 52.58 402.808 52.761C402.663 52.942 402.524 53.0627 402.391 53.123C402.259 53.1834 402.18 53.2135 402.156 53.2135L402.102 53.2316C402.126 53.292 402.241 53.3644 402.446 53.4488C402.651 53.5333 402.856 53.5755 403.061 53.5755H403.206C403.411 53.5755 403.568 53.5634 403.677 53.5393C404.075 53.4307 404.443 53.2015 404.781 52.8515C405.119 52.5016 405.378 52.1275 405.559 51.7293C405.74 51.3311 405.879 50.9933 405.975 50.7157C406.072 50.4382 406.12 50.2572 406.12 50.1728L406.011 50.2452C405.939 50.2934 405.824 50.3598 405.668 50.4443C405.511 50.5287 405.354 50.6011 405.197 50.6614C404.956 50.7218 404.72 50.7519 404.491 50.7519C403.936 50.7519 403.447 50.6192 403.025 50.3538C402.603 50.0883 402.325 49.6599 402.192 49.0687C402.18 48.9842 402.174 48.7972 402.174 48.5076C402.174 47.8198 402.385 46.9208 402.808 45.8107C403.23 44.7006 403.441 43.9947 403.441 43.693C403.441 43.681 403.441 43.6689 403.441 43.6568C403.441 43.5482 403.441 43.4758 403.441 43.4396C403.441 43.4034 403.417 43.3612 403.369 43.3129C403.321 43.2647 403.254 43.2405 403.17 43.2405H403.097C402.82 43.2405 402.566 43.3552 402.337 43.5844C402.108 43.8137 401.927 44.0611 401.794 44.3265C401.661 44.592 401.559 44.8454 401.486 45.0867C401.414 45.328 401.366 45.4608 401.342 45.4849C401.318 45.509 401.221 45.5211 401.052 45.5211H400.799C400.726 45.4487 400.69 45.3944 400.69 45.3582Z" fill="#355FB3"/>
<path d="M410.574 47.7781C410.343 47.7781 410.16 47.7013 410.023 47.5478C409.887 47.3942 409.819 47.2065 409.819 46.9847C409.819 46.379 410.045 45.8544 410.497 45.4107C410.949 44.9671 411.512 44.7453 412.186 44.7453C412.962 44.7453 413.611 44.9842 414.131 45.4619C414.652 45.9397 414.916 46.5582 414.925 47.3174C414.925 47.6843 414.839 48.034 414.669 48.3667C414.498 48.6995 414.293 48.9895 414.054 49.2369C413.816 49.4843 413.474 49.8 413.031 50.1839C412.724 50.4483 412.297 50.8407 411.751 51.3611L410.996 52.0777L411.969 52.0905C413.308 52.0905 414.02 52.0692 414.106 52.0266C414.165 52.0095 414.268 51.6299 414.413 50.8877V50.8493H414.925V50.8877C414.916 50.9133 414.861 51.3014 414.758 52.0522C414.656 52.8029 414.592 53.1953 414.566 53.2294V53.2678H409.819V53.0247V52.8711C409.819 52.8114 409.844 52.7474 409.896 52.6792C409.947 52.6109 410.075 52.4616 410.279 52.2313C410.527 51.9583 410.74 51.7194 410.919 51.5147C410.996 51.4294 411.141 51.2716 411.354 51.0412C411.568 50.8109 411.713 50.6531 411.789 50.5678C411.866 50.4824 411.99 50.3417 412.161 50.1455C412.331 49.9493 412.451 49.8042 412.519 49.7104C412.587 49.6165 412.685 49.4886 412.813 49.3265C412.941 49.1644 413.031 49.0279 413.082 48.917C413.133 48.8061 413.197 48.6824 413.274 48.5459C413.351 48.4094 413.406 48.2729 413.44 48.1364C413.474 47.9999 413.504 47.8719 413.53 47.7525C413.555 47.6331 413.568 47.4923 413.568 47.3302C413.568 46.7928 413.423 46.3278 413.133 45.9354C412.843 45.543 412.429 45.3468 411.892 45.3468C411.61 45.3468 411.363 45.4193 411.15 45.5643C410.936 45.7093 410.787 45.8501 410.702 45.9866C410.616 46.1231 410.574 46.2041 410.574 46.2297C410.574 46.2383 410.595 46.2425 410.638 46.2425C410.791 46.2425 410.949 46.3022 411.111 46.4217C411.273 46.5411 411.354 46.7373 411.354 47.0103C411.354 47.2236 411.286 47.4027 411.15 47.5478C411.013 47.6928 410.821 47.7696 410.574 47.7781Z" fill="#355FB3"/>
<path d="M422.524 44.2723C422.524 44.1154 422.608 43.9947 422.777 43.9103H434.307C434.488 44.0068 434.578 44.1275 434.578 44.2723C434.578 44.405 434.494 44.5196 434.325 44.6162L428.569 44.6343H422.813C422.62 44.5739 422.524 44.4533 422.524 44.2723ZM422.524 47.7836C422.524 47.6026 422.62 47.482 422.813 47.4216H434.325C434.494 47.5423 434.578 47.663 434.578 47.7836C434.578 47.9405 434.488 48.0612 434.307 48.1456H422.777C422.608 48.0612 422.524 47.9405 422.524 47.7836Z" fill="#355FB3"/>
<path d="M441 45.3582C441 45.1893 441.091 44.8997 441.272 44.4894C441.453 44.0792 441.742 43.6508 442.14 43.2043C442.539 42.7579 442.985 42.5407 443.48 42.5527C443.975 42.5527 444.373 42.6915 444.674 42.969C444.976 43.2466 445.133 43.6327 445.145 44.1274C445.121 44.3567 445.103 44.4834 445.091 44.5075C445.091 44.5437 444.994 44.8213 444.801 45.3401C444.608 45.859 444.409 46.4442 444.204 47.0958C443.999 47.7474 443.902 48.2662 443.914 48.6524C443.914 49.1712 443.999 49.5332 444.168 49.7384C444.337 49.9435 444.59 50.0521 444.928 50.0642C445.205 50.0642 445.465 49.9978 445.706 49.8651C445.947 49.7323 446.134 49.5936 446.267 49.4488C446.4 49.304 446.563 49.1049 446.756 48.8515C446.756 48.8394 446.786 48.7187 446.846 48.4895C446.907 48.2602 446.991 47.9043 447.1 47.4216C447.208 46.9389 447.323 46.4925 447.444 46.0822C447.902 44.2722 448.156 43.325 448.204 43.2405C448.361 42.9147 448.62 42.7518 448.982 42.7518C449.139 42.7518 449.266 42.7941 449.362 42.8785C449.459 42.963 449.525 43.0354 449.561 43.0957C449.598 43.1561 449.61 43.2104 449.598 43.2586C449.598 43.4155 449.302 44.6825 448.711 47.0596C448.119 49.4367 447.782 50.7399 447.697 50.9691C447.359 51.9707 446.774 52.7671 445.941 53.3583C445.109 53.9496 444.276 54.2512 443.444 54.2633C442.901 54.2633 442.424 54.1306 442.014 53.8651C441.603 53.5996 441.398 53.2015 441.398 52.6705C441.398 52.4051 441.441 52.1818 441.525 52.0008C441.609 51.8198 441.724 51.6871 441.869 51.6026C442.014 51.5182 442.134 51.4578 442.231 51.4216C442.327 51.3854 442.43 51.3673 442.539 51.3673C443.07 51.3673 443.335 51.6207 443.335 52.1275C443.335 52.3689 443.263 52.58 443.118 52.761C442.973 52.942 442.834 53.0627 442.702 53.123C442.569 53.1834 442.49 53.2135 442.466 53.2135L442.412 53.2316C442.436 53.292 442.551 53.3644 442.756 53.4488C442.961 53.5333 443.166 53.5755 443.371 53.5755H443.516C443.721 53.5755 443.878 53.5634 443.987 53.5393C444.385 53.4307 444.753 53.2015 445.091 52.8515C445.429 52.5016 445.688 52.1275 445.869 51.7293C446.05 51.3311 446.189 50.9933 446.285 50.7157C446.382 50.4382 446.43 50.2572 446.43 50.1728L446.321 50.2452C446.249 50.2934 446.134 50.3598 445.978 50.4443C445.821 50.5287 445.664 50.6011 445.507 50.6614C445.266 50.7218 445.03 50.7519 444.801 50.7519C444.246 50.7519 443.757 50.6192 443.335 50.3538C442.913 50.0883 442.635 49.6599 442.502 49.0687C442.49 48.9842 442.484 48.7972 442.484 48.5076C442.484 47.8198 442.695 46.9208 443.118 45.8107C443.54 44.7006 443.751 43.9947 443.751 43.693C443.751 43.681 443.751 43.6689 443.751 43.6568C443.751 43.5482 443.751 43.4758 443.751 43.4396C443.751 43.4034 443.727 43.3612 443.679 43.3129C443.631 43.2647 443.564 43.2405 443.48 43.2405H443.407C443.13 43.2405 442.876 43.3552 442.647 43.5844C442.418 43.8137 442.237 44.0611 442.104 44.3265C441.971 44.592 441.869 44.8454 441.797 45.0867C441.724 45.328 441.676 45.4608 441.652 45.4849C441.628 45.509 441.531 45.5211 441.362 45.5211H441.109C441.036 45.4487 441 45.3944 441 45.3582Z" fill="#355FB3"/>
<path d="M451.114 47.343C450.884 47.343 450.705 47.2705 450.577 47.1255C450.449 46.9804 450.38 46.7927 450.372 46.5624C450.372 46.0932 450.577 45.6752 450.986 45.3083C451.396 44.9415 451.89 44.7581 452.471 44.7581C452.769 44.7581 452.957 44.7624 453.034 44.7709C453.665 44.8733 454.147 45.0993 454.48 45.4491C454.812 45.7989 454.983 46.1785 454.991 46.588C454.991 47.0316 454.846 47.4624 454.556 47.8804C454.266 48.2985 453.865 48.6013 453.353 48.789L453.315 48.8146C453.315 48.8231 453.353 48.8359 453.43 48.853C453.507 48.87 453.631 48.9084 453.801 48.9682C453.972 49.0279 454.134 49.1174 454.288 49.2369C454.987 49.689 455.337 50.2862 455.337 51.0284C455.337 51.7023 455.072 52.291 454.544 52.7943C454.015 53.2977 453.345 53.5493 452.534 53.5493C451.852 53.5493 451.263 53.3659 450.769 52.9991C450.274 52.6322 450.026 52.1673 450.026 51.6042C450.026 51.3654 450.103 51.1734 450.257 51.0284C450.41 50.8834 450.602 50.8066 450.833 50.7981C451.071 50.7981 451.268 50.8748 451.421 51.0284C451.575 51.182 451.652 51.3739 451.652 51.6042C451.652 51.6981 451.639 51.7834 451.613 51.8602C451.588 51.937 451.558 52.0052 451.524 52.0649C451.489 52.1246 451.443 52.1758 451.383 52.2185C451.323 52.2611 451.272 52.2953 451.229 52.3208C451.187 52.3464 451.144 52.3635 451.101 52.372C451.059 52.3806 451.024 52.3934 450.999 52.4104L450.948 52.4232C451.383 52.8071 451.912 52.9991 452.534 52.9991C453.004 52.9991 453.358 52.773 453.597 52.3208C453.742 52.0393 453.814 51.6085 453.814 51.0284V50.7725C453.814 49.962 453.541 49.4203 452.995 49.1473C452.867 49.0961 452.607 49.0663 452.215 49.0577L451.677 49.0449L451.639 49.0193C451.622 48.9937 451.613 48.9255 451.613 48.8146C451.613 48.661 451.647 48.5843 451.716 48.5843C451.954 48.5843 452.202 48.5629 452.458 48.5203C452.748 48.4776 453.012 48.2985 453.251 47.9828C453.49 47.6672 453.609 47.1894 453.609 46.5496V46.4472C453.609 45.961 453.46 45.624 453.162 45.4363C452.974 45.3169 452.773 45.2572 452.56 45.2572C452.287 45.2572 452.035 45.3041 451.805 45.3979C451.575 45.4918 451.413 45.5899 451.319 45.6922C451.225 45.7946 451.178 45.8458 451.178 45.8458H451.216C451.242 45.8543 451.276 45.8629 451.319 45.8714C451.361 45.8799 451.404 45.9012 451.447 45.9354C451.489 45.9695 451.541 45.9994 451.6 46.0249C451.66 46.0505 451.703 46.0975 451.728 46.1657C451.754 46.234 451.788 46.2979 451.831 46.3577C451.873 46.4174 451.886 46.5027 451.869 46.6136C451.869 46.8013 451.809 46.9676 451.69 47.1127C451.57 47.2577 451.379 47.3345 451.114 47.343Z" fill="#355FB3"/>
<path d="M462.834 44.2723C462.834 44.1154 462.918 43.9947 463.087 43.9103H474.617C474.798 44.0068 474.888 44.1275 474.888 44.2723C474.888 44.405 474.804 44.5196 474.635 44.6162L468.879 44.6343H463.123C462.93 44.5739 462.834 44.4533 462.834 44.2723ZM462.834 47.7836C462.834 47.6026 462.93 47.482 463.123 47.4216H474.635C474.804 47.5423 474.888 47.663 474.888 47.7836C474.888 47.9405 474.798 48.0612 474.617 48.1456H463.087C462.918 48.0612 462.834 47.9405 462.834 47.7836Z" fill="#355FB3"/>
<path d="M481.31 45.3582C481.31 45.1893 481.401 44.8997 481.582 44.4894C481.763 44.0792 482.052 43.6508 482.45 43.2043C482.849 42.7579 483.295 42.5407 483.79 42.5527C484.285 42.5527 484.683 42.6915 484.984 42.969C485.286 43.2466 485.443 43.6327 485.455 44.1274C485.431 44.3567 485.413 44.4834 485.401 44.5075C485.401 44.5437 485.304 44.8213 485.111 45.3401C484.918 45.859 484.719 46.4442 484.514 47.0958C484.309 47.7474 484.212 48.2662 484.224 48.6524C484.224 49.1712 484.309 49.5332 484.478 49.7384C484.647 49.9435 484.9 50.0521 485.238 50.0642C485.515 50.0642 485.775 49.9978 486.016 49.8651C486.257 49.7323 486.444 49.5936 486.577 49.4488C486.71 49.304 486.873 49.1049 487.066 48.8515C487.066 48.8394 487.096 48.7187 487.156 48.4895C487.217 48.2602 487.301 47.9043 487.41 47.4216C487.518 46.9389 487.633 46.4925 487.754 46.0822C488.212 44.2722 488.466 43.325 488.514 43.2405C488.671 42.9147 488.93 42.7518 489.292 42.7518C489.449 42.7518 489.576 42.7941 489.672 42.8785C489.769 42.963 489.835 43.0354 489.871 43.0957C489.908 43.1561 489.92 43.2104 489.908 43.2586C489.908 43.4155 489.612 44.6825 489.021 47.0596C488.429 49.4367 488.092 50.7399 488.007 50.9691C487.669 51.9707 487.084 52.7671 486.251 53.3583C485.419 53.9496 484.586 54.2512 483.754 54.2633C483.211 54.2633 482.734 54.1306 482.324 53.8651C481.913 53.5996 481.708 53.2015 481.708 52.6705C481.708 52.4051 481.751 52.1818 481.835 52.0008C481.919 51.8198 482.034 51.6871 482.179 51.6026C482.324 51.5182 482.444 51.4578 482.541 51.4216C482.637 51.3854 482.74 51.3673 482.849 51.3673C483.38 51.3673 483.645 51.6207 483.645 52.1275C483.645 52.3689 483.573 52.58 483.428 52.761C483.283 52.942 483.144 53.0627 483.012 53.123C482.879 53.1834 482.8 53.2135 482.776 53.2135L482.722 53.2316C482.746 53.292 482.861 53.3644 483.066 53.4488C483.271 53.5333 483.476 53.5755 483.681 53.5755H483.826C484.031 53.5755 484.188 53.5634 484.297 53.5393C484.695 53.4307 485.063 53.2015 485.401 52.8515C485.739 52.5016 485.998 52.1275 486.179 51.7293C486.36 51.3311 486.499 50.9933 486.595 50.7157C486.692 50.4382 486.74 50.2572 486.74 50.1728L486.631 50.2452C486.559 50.2934 486.444 50.3598 486.288 50.4443C486.131 50.5287 485.974 50.6011 485.817 50.6614C485.576 50.7218 485.34 50.7519 485.111 50.7519C484.556 50.7519 484.067 50.6192 483.645 50.3538C483.223 50.0883 482.945 49.6599 482.812 49.0687C482.8 48.9842 482.794 48.7972 482.794 48.5076C482.794 47.8198 483.005 46.9208 483.428 45.8107C483.85 44.7006 484.061 43.9947 484.061 43.693C484.061 43.681 484.061 43.6689 484.061 43.6568C484.061 43.5482 484.061 43.4758 484.061 43.4396C484.061 43.4034 484.037 43.3612 483.989 43.3129C483.941 43.2647 483.874 43.2405 483.79 43.2405H483.717C483.44 43.2405 483.186 43.3552 482.957 43.5844C482.728 43.8137 482.547 44.0611 482.414 44.3265C482.281 44.592 482.179 44.8454 482.107 45.0867C482.034 45.328 481.986 45.4608 481.962 45.4849C481.938 45.509 481.841 45.5211 481.672 45.5211H481.419C481.346 45.4487 481.31 45.3944 481.31 45.3582Z" fill="#355FB3"/>
<path d="M495.711 53.2678C495.557 53.2422 495.007 53.2294 494.06 53.2294C493.071 53.2294 492.499 53.2422 492.345 53.2678H492.23V52.6792H492.627C492.798 52.6792 492.913 52.6792 492.972 52.6792C493.032 52.6792 493.105 52.6707 493.19 52.6536C493.275 52.6365 493.335 52.6152 493.369 52.5896C493.403 52.564 493.433 52.5299 493.459 52.4872C493.467 52.4702 493.472 52.2398 493.472 51.7962V51.1564H490.157V50.5678L492.09 47.6118C493.395 45.6326 494.056 44.6387 494.073 44.6302C494.09 44.6131 494.18 44.6046 494.342 44.6046H494.572L494.649 44.6813V50.5678H495.826V51.1564H494.649V51.809C494.649 52.1588 494.649 52.3635 494.649 52.4233C494.649 52.483 494.674 52.5342 494.726 52.5768C494.794 52.6365 495.037 52.6707 495.455 52.6792H495.826V53.2678H495.711ZM493.548 50.5678V46.2937L490.746 50.555L492.141 50.5678H493.548Z" fill="#355FB3"/>
<path d="M185 75.5L180 72.6132V78.3868L185 75.5ZM155 76H180.5V75H155V76Z" fill="#B33535"/>
<path d="M355 75.5L350 72.6132L350 78.3867L355 75.5ZM240 76L350.5 76L350.5 75L240 75L240 76Z" fill="#B33535"/>
<path d="M380 75.5L505.876 75.5C508.597 75.5 511.289 76.0552 513.788 77.1317L538.712 87.8682C541.211 88.9448 543.903 89.5 546.624 89.5L575 89.5" stroke="#B33535"/>
<path d="M185 105.5L180 102.613V108.387L185 105.5ZM155 106H180.5V105H155V106Z" fill="#3BB335"/>
<path d="M355 105.5L350 102.613L350 108.387L355 105.5ZM260 106L350.5 106L350.5 105L260 105L260 106Z" fill="#3BB335"/>
<path d="M380 105.5L505.607 105.5C508.501 105.5 511.361 104.872 513.988 103.659L538.512 92.3408C541.139 91.1281 543.999 90.5 546.893 90.5L575 90.5" stroke="#3BB335"/>
<path d="M185 135.5L180 132.613V138.387L185 135.5ZM155 136H180.5V135H155V136Z" fill="#B39735"/>
<path d="M355 135.5L350 132.613L350 138.387L355 135.5ZM245 136L350.5 136L350.5 135L245 135L245 136Z" fill="#B39735"/>
<path d="M380 135.5L499.296 135.5C505.983 135.5 512.228 132.158 515.937 126.594L534.063 99.406C537.772 93.842 544.017 90.5 550.704 90.5L575 90.5" stroke="#B39735"/>
<path d="M361 74.8062C361 74.6373 361.091 74.3476 361.272 73.9373C361.453 73.527 361.742 73.0986 362.14 72.6521C362.539 72.2056 362.985 71.9883 363.48 72.0004C363.975 72.0004 364.373 72.1392 364.675 72.4167C364.976 72.6943 365.133 73.0805 365.145 73.5753C365.121 73.8046 365.103 73.9313 365.091 73.9554C365.091 73.9916 364.995 74.2692 364.801 74.7881C364.608 75.307 364.409 75.8923 364.204 76.544C363.999 77.1957 363.902 77.7146 363.914 78.1008C363.914 78.6197 363.999 78.9817 364.168 79.1869C364.337 79.3921 364.59 79.5007 364.928 79.5127C365.206 79.5127 365.465 79.4464 365.707 79.3136C365.948 79.1809 366.135 79.0421 366.268 78.8973C366.4 78.7525 366.563 78.5533 366.756 78.2999C366.756 78.2878 366.787 78.1672 366.847 77.9379C366.907 77.7086 366.992 77.3526 367.1 76.8698C367.209 76.3871 367.324 75.9406 367.444 75.5303C367.903 73.7201 368.156 72.7728 368.205 72.6883C368.361 72.3624 368.621 72.1995 368.983 72.1995C369.14 72.1995 369.267 72.2418 369.363 72.3262C369.46 72.4107 369.526 72.4831 369.562 72.5435C369.598 72.6038 369.611 72.6581 369.598 72.7064C369.598 72.8633 369.303 74.1304 368.711 76.5078C368.12 78.8852 367.782 80.1885 367.698 80.4178C367.36 81.4195 366.775 82.216 365.942 82.8073C365.109 83.3986 364.276 83.7003 363.444 83.7124C362.901 83.7124 362.424 83.5797 362.014 83.3142C361.603 83.0487 361.398 82.6504 361.398 82.1194C361.398 81.8539 361.44 81.6307 361.525 81.4497C361.609 81.2686 361.724 81.1359 361.869 81.0514C362.014 80.9669 362.134 80.9066 362.231 80.8704C362.327 80.8342 362.43 80.8161 362.539 80.8161C363.07 80.8161 363.335 81.0695 363.335 81.5764C363.335 81.8177 363.263 82.0289 363.118 82.2099C362.973 82.391 362.834 82.5116 362.702 82.572C362.569 82.6323 362.49 82.6625 362.466 82.6625L362.412 82.6806C362.436 82.7409 362.551 82.8133 362.756 82.8978C362.961 82.9823 363.166 83.0245 363.371 83.0245H363.516C363.721 83.0245 363.878 83.0125 363.987 82.9883C364.385 82.8797 364.753 82.6504 365.091 82.3004C365.429 81.9505 365.688 81.5764 365.869 81.1781C366.05 80.7799 366.189 80.442 366.286 80.1644C366.382 79.8868 366.431 79.7058 366.431 79.6213L366.322 79.6938C366.25 79.742 366.135 79.8084 365.978 79.8929C365.821 79.9774 365.664 80.0498 365.507 80.1101C365.266 80.1704 365.031 80.2006 364.801 80.2006C364.246 80.2006 363.758 80.0679 363.335 79.8024C362.913 79.5369 362.635 79.1085 362.502 78.5171C362.49 78.4326 362.484 78.2456 362.484 77.956C362.484 77.2681 362.696 76.369 363.118 75.2588C363.54 74.1485 363.752 73.4425 363.752 73.1408C363.752 73.1288 363.752 73.1167 363.752 73.1046C363.752 72.996 363.752 72.9236 363.752 72.8874C363.752 72.8512 363.727 72.809 363.679 72.7607C363.631 72.7124 363.564 72.6883 363.48 72.6883H363.408C363.13 72.6883 362.877 72.8029 362.647 73.0322C362.418 73.2615 362.237 73.5089 362.104 73.7744C361.971 74.0399 361.869 74.2933 361.796 74.5347C361.724 74.776 361.676 74.9088 361.652 74.9329C361.628 74.9571 361.531 74.9691 361.362 74.9691H361.109C361.036 74.8967 361 74.8424 361 74.8062Z" fill="#B33535"/>
<path d="M371.589 80.7074C371.589 80.9122 371.52 81.0828 371.384 81.2194C371.247 81.3559 371.081 81.4241 370.885 81.4241H370.795C371.188 82.0982 371.708 82.4352 372.357 82.4352C372.954 82.4352 373.389 82.1792 373.662 81.6673C373.824 81.3857 373.905 80.8397 373.905 80.0291C373.905 79.1503 373.79 78.5573 373.56 78.2502C373.338 77.9686 373.09 77.8279 372.817 77.8279H372.741C372.075 77.8279 371.572 78.1179 371.23 78.6981C371.196 78.7578 371.166 78.792 371.141 78.8005C371.115 78.809 371.051 78.8176 370.949 78.8261C370.804 78.8261 370.723 78.8005 370.706 78.7493C370.689 78.7152 370.68 77.9686 370.68 76.5096V74.8587C370.68 74.4321 370.701 74.2188 370.744 74.2188C370.761 74.2017 370.778 74.1932 370.795 74.1932C370.804 74.1932 370.893 74.2273 371.064 74.2956C371.235 74.3638 371.469 74.4321 371.768 74.5003C372.067 74.5686 372.386 74.6027 372.728 74.6027C373.334 74.6027 373.914 74.4833 374.468 74.2444C374.537 74.2102 374.592 74.1932 374.635 74.1932C374.703 74.1932 374.737 74.27 374.737 74.4236V74.5899C374.037 75.4175 373.163 75.8313 372.113 75.8313C371.849 75.8313 371.61 75.8057 371.397 75.7546L371.269 75.729V77.9302C371.431 77.8108 371.559 77.7169 371.653 77.6487C371.747 77.5804 371.9 77.5122 372.113 77.4439C372.327 77.3757 372.544 77.3415 372.766 77.3415C373.457 77.3415 374.042 77.6188 374.52 78.1734C374.997 78.728 375.236 79.385 375.236 80.1443C375.236 80.9293 374.963 81.599 374.417 82.1536C373.871 82.7082 373.206 82.9898 372.421 82.9983C371.73 82.9983 371.175 82.7679 370.757 82.3072C370.339 81.8465 370.13 81.326 370.13 80.7458C370.13 80.5411 370.177 80.3789 370.271 80.2595C370.364 80.14 370.462 80.0633 370.565 80.0291C370.667 79.995 370.765 79.9779 370.859 79.9779C371.073 79.9779 371.247 80.0505 371.384 80.1955C371.52 80.3405 371.589 80.5112 371.589 80.7074Z" fill="#B33535"/>
<path d="M360 103.806C360 103.637 360.091 103.348 360.272 102.937C360.453 102.527 360.742 102.099 361.14 101.652C361.539 101.206 361.985 100.988 362.48 101C362.975 101 363.373 101.139 363.675 101.417C363.976 101.694 364.133 102.08 364.145 102.575C364.121 102.805 364.103 102.931 364.091 102.955C364.091 102.992 363.995 103.269 363.801 103.788C363.608 104.307 363.409 104.892 363.204 105.544C362.999 106.196 362.902 106.715 362.914 107.101C362.914 107.62 362.999 107.982 363.168 108.187C363.337 108.392 363.59 108.501 363.928 108.513C364.206 108.513 364.465 108.446 364.707 108.314C364.948 108.181 365.135 108.042 365.268 107.897C365.4 107.752 365.563 107.553 365.756 107.3C365.756 107.288 365.787 107.167 365.847 106.938C365.907 106.709 365.992 106.353 366.1 105.87C366.209 105.387 366.324 104.941 366.444 104.53C366.903 102.72 367.156 101.773 367.205 101.688C367.361 101.362 367.621 101.2 367.983 101.2C368.14 101.2 368.267 101.242 368.363 101.326C368.46 101.411 368.526 101.483 368.562 101.543C368.598 101.604 368.611 101.658 368.598 101.706C368.598 101.863 368.303 103.13 367.711 105.508C367.12 107.885 366.782 109.189 366.698 109.418C366.36 110.419 365.775 111.216 364.942 111.807C364.109 112.399 363.276 112.7 362.444 112.712C361.901 112.712 361.424 112.58 361.014 112.314C360.603 112.049 360.398 111.65 360.398 111.119C360.398 110.854 360.44 110.631 360.525 110.45C360.609 110.269 360.724 110.136 360.869 110.051C361.014 109.967 361.134 109.907 361.231 109.87C361.327 109.834 361.43 109.816 361.539 109.816C362.07 109.816 362.335 110.07 362.335 110.576C362.335 110.818 362.263 111.029 362.118 111.21C361.973 111.391 361.834 111.512 361.702 111.572C361.569 111.632 361.49 111.662 361.466 111.662L361.412 111.681C361.436 111.741 361.551 111.813 361.756 111.898C361.961 111.982 362.166 112.025 362.371 112.025H362.516C362.721 112.025 362.878 112.012 362.987 111.988C363.385 111.88 363.753 111.65 364.091 111.3C364.429 110.95 364.688 110.576 364.869 110.178C365.05 109.78 365.189 109.442 365.286 109.164C365.382 108.887 365.431 108.706 365.431 108.621L365.322 108.694C365.25 108.742 365.135 108.808 364.978 108.893C364.821 108.977 364.664 109.05 364.507 109.11C364.266 109.17 364.031 109.201 363.801 109.201C363.246 109.201 362.758 109.068 362.335 108.802C361.913 108.537 361.635 108.108 361.502 107.517C361.49 107.433 361.484 107.246 361.484 106.956C361.484 106.268 361.696 105.369 362.118 104.259C362.54 103.149 362.752 102.443 362.752 102.141C362.752 102.129 362.752 102.117 362.752 102.105C362.752 101.996 362.752 101.924 362.752 101.887C362.752 101.851 362.727 101.809 362.679 101.761C362.631 101.712 362.564 101.688 362.48 101.688H362.408C362.13 101.688 361.877 101.803 361.647 102.032C361.418 102.262 361.237 102.509 361.104 102.774C360.971 103.04 360.869 103.293 360.796 103.535C360.724 103.776 360.676 103.909 360.652 103.933C360.628 103.957 360.531 103.969 360.362 103.969H360.109C360.036 103.897 360 103.842 360 103.806Z" fill="#3BB335"/>
<path d="M369.027 107.711C369.027 106.32 369.373 105.22 370.064 104.409C370.755 103.598 371.523 103.193 372.368 103.193C372.956 103.193 373.379 103.347 373.635 103.654C373.891 103.961 374.019 104.302 374.019 104.678C374.019 104.891 373.959 105.062 373.839 105.19C373.72 105.318 373.554 105.382 373.34 105.382C373.144 105.382 372.982 105.322 372.854 105.202C372.726 105.083 372.662 104.917 372.662 104.703C372.662 104.328 372.863 104.102 373.264 104.025C373.076 103.837 372.811 103.731 372.47 103.705C371.864 103.705 371.365 103.961 370.973 104.473C370.572 105.036 370.371 105.898 370.371 107.058L370.384 107.109C370.427 107.058 370.461 107.003 370.486 106.943C370.836 106.431 371.293 106.175 371.856 106.175H371.907C372.299 106.175 372.645 106.256 372.944 106.418C373.148 106.538 373.353 106.708 373.558 106.93C373.763 107.152 373.929 107.395 374.057 107.66C374.236 108.078 374.326 108.534 374.326 109.029V109.259C374.326 109.456 374.304 109.639 374.262 109.81C374.168 110.313 373.895 110.804 373.443 111.282C372.991 111.759 372.419 111.998 371.728 111.998C371.489 111.998 371.259 111.964 371.037 111.896C370.815 111.828 370.576 111.7 370.32 111.512C370.064 111.324 369.846 111.073 369.667 110.757C369.488 110.441 369.335 110.027 369.207 109.515C369.079 109.004 369.019 108.402 369.027 107.711ZM371.779 106.636C371.523 106.636 371.301 106.708 371.113 106.853C370.926 106.998 370.781 107.19 370.678 107.429C370.576 107.668 370.503 107.911 370.461 108.159C370.418 108.406 370.392 108.671 370.384 108.952C370.384 109.661 370.435 110.168 370.538 110.475C370.64 110.782 370.802 111.03 371.024 111.218C371.229 111.371 371.455 111.448 371.702 111.448C372.137 111.448 372.47 111.286 372.7 110.962C372.811 110.808 372.888 110.616 372.931 110.386C372.973 110.155 372.995 109.707 372.995 109.042C372.995 108.359 372.973 107.903 372.931 107.673C372.888 107.442 372.811 107.25 372.7 107.097C372.47 106.789 372.163 106.636 371.779 106.636Z" fill="#3BB335"/>
<path d="M360 134.806C360 134.637 360.091 134.348 360.272 133.937C360.453 133.527 360.742 133.099 361.14 132.652C361.539 132.206 361.985 131.988 362.48 132C362.975 132 363.373 132.139 363.675 132.417C363.976 132.694 364.133 133.08 364.145 133.575C364.121 133.805 364.103 133.931 364.091 133.955C364.091 133.992 363.995 134.269 363.801 134.788C363.608 135.307 363.409 135.892 363.204 136.544C362.999 137.196 362.902 137.715 362.914 138.101C362.914 138.62 362.999 138.982 363.168 139.187C363.337 139.392 363.59 139.501 363.928 139.513C364.206 139.513 364.465 139.446 364.707 139.314C364.948 139.181 365.135 139.042 365.268 138.897C365.4 138.752 365.563 138.553 365.756 138.3C365.756 138.288 365.787 138.167 365.847 137.938C365.907 137.709 365.992 137.353 366.1 136.87C366.209 136.387 366.324 135.941 366.444 135.53C366.903 133.72 367.156 132.773 367.205 132.688C367.361 132.362 367.621 132.2 367.983 132.2C368.14 132.2 368.267 132.242 368.363 132.326C368.46 132.411 368.526 132.483 368.562 132.543C368.598 132.604 368.611 132.658 368.598 132.706C368.598 132.863 368.303 134.13 367.711 136.508C367.12 138.885 366.782 140.189 366.698 140.418C366.36 141.419 365.775 142.216 364.942 142.807C364.109 143.399 363.276 143.7 362.444 143.712C361.901 143.712 361.424 143.58 361.014 143.314C360.603 143.049 360.398 142.65 360.398 142.119C360.398 141.854 360.44 141.631 360.525 141.45C360.609 141.269 360.724 141.136 360.869 141.051C361.014 140.967 361.134 140.907 361.231 140.87C361.327 140.834 361.43 140.816 361.539 140.816C362.07 140.816 362.335 141.07 362.335 141.576C362.335 141.818 362.263 142.029 362.118 142.21C361.973 142.391 361.834 142.512 361.702 142.572C361.569 142.632 361.49 142.662 361.466 142.662L361.412 142.681C361.436 142.741 361.551 142.813 361.756 142.898C361.961 142.982 362.166 143.025 362.371 143.025H362.516C362.721 143.025 362.878 143.012 362.987 142.988C363.385 142.88 363.753 142.65 364.091 142.3C364.429 141.95 364.688 141.576 364.869 141.178C365.05 140.78 365.189 140.442 365.286 140.164C365.382 139.887 365.431 139.706 365.431 139.621L365.322 139.694C365.25 139.742 365.135 139.808 364.978 139.893C364.821 139.977 364.664 140.05 364.507 140.11C364.266 140.17 364.031 140.201 363.801 140.201C363.246 140.201 362.758 140.068 362.335 139.802C361.913 139.537 361.635 139.108 361.502 138.517C361.49 138.433 361.484 138.246 361.484 137.956C361.484 137.268 361.696 136.369 362.118 135.259C362.54 134.149 362.752 133.443 362.752 133.141C362.752 133.129 362.752 133.117 362.752 133.105C362.752 132.996 362.752 132.924 362.752 132.887C362.752 132.851 362.727 132.809 362.679 132.761C362.631 132.712 362.564 132.688 362.48 132.688H362.408C362.13 132.688 361.877 132.803 361.647 133.032C361.418 133.262 361.237 133.509 361.104 133.774C360.971 134.04 360.869 134.293 360.796 134.535C360.724 134.776 360.676 134.909 360.652 134.933C360.628 134.957 360.531 134.969 360.362 134.969H360.109C360.036 134.897 360 134.842 360 134.806Z" fill="#66571E"/>
<path d="M369.194 136.855C369.202 136.838 369.275 136.373 369.411 135.46L369.616 134.091C369.616 134.074 369.701 134.065 369.872 134.065H370.128V134.116C370.128 134.202 370.192 134.274 370.32 134.334C370.448 134.394 370.67 134.432 370.985 134.449C371.301 134.466 372.022 134.475 373.148 134.475H374.697V134.974L373.827 136.164C373.75 136.266 373.622 136.437 373.443 136.676C373.264 136.915 373.148 137.073 373.097 137.15C373.046 137.226 372.956 137.363 372.828 137.559C372.7 137.755 372.615 137.909 372.572 138.02C372.53 138.131 372.47 138.289 372.393 138.493C372.316 138.698 372.261 138.894 372.227 139.082C372.193 139.27 372.159 139.5 372.125 139.773C372.09 140.046 372.065 140.336 372.048 140.643C372.031 140.951 372.018 141.3 372.009 141.693C372.009 141.812 372.009 141.932 372.009 142.051C372.009 142.171 372.005 142.273 371.997 142.358V142.474C371.962 142.619 371.881 142.742 371.753 142.845C371.625 142.947 371.48 142.998 371.318 142.998C371.224 142.998 371.135 142.985 371.049 142.96C370.964 142.934 370.875 142.853 370.781 142.717C370.687 142.58 370.64 142.41 370.64 142.205C370.64 140.857 371.054 139.457 371.881 138.007C372.052 137.734 372.41 137.218 372.956 136.458L373.545 135.652H372.355C370.87 135.652 370.09 135.678 370.013 135.729C369.962 135.755 369.915 135.857 369.872 136.036C369.829 136.215 369.787 136.399 369.744 136.586L369.706 136.855V136.894H369.194V136.855Z" fill="#66571E"/>
<path d="M266.246 143.66L266.275 144.363C266.74 143.816 267.367 143.543 268.156 143.543C269.043 143.543 269.646 143.883 269.967 144.562C270.178 144.258 270.451 144.012 270.787 143.824C271.127 143.637 271.527 143.543 271.988 143.543C273.379 143.543 274.086 144.279 274.109 145.752V150H273.025V145.816C273.025 145.363 272.922 145.025 272.715 144.803C272.508 144.576 272.16 144.463 271.672 144.463C271.27 144.463 270.936 144.584 270.67 144.826C270.404 145.064 270.25 145.387 270.207 145.793V150H269.117V145.846C269.117 144.924 268.666 144.463 267.764 144.463C267.053 144.463 266.566 144.766 266.305 145.371V150H265.221V143.66H266.246ZM279.664 150C279.602 149.875 279.551 149.652 279.512 149.332C279.008 149.855 278.406 150.117 277.707 150.117C277.082 150.117 276.568 149.941 276.166 149.59C275.768 149.234 275.568 148.785 275.568 148.242C275.568 147.582 275.818 147.07 276.318 146.707C276.822 146.34 277.529 146.156 278.439 146.156H279.494V145.658C279.494 145.279 279.381 144.979 279.154 144.756C278.928 144.529 278.594 144.416 278.152 144.416C277.766 144.416 277.441 144.514 277.18 144.709C276.918 144.904 276.787 145.141 276.787 145.418H275.697C275.697 145.102 275.809 144.797 276.031 144.504C276.258 144.207 276.562 143.973 276.945 143.801C277.332 143.629 277.756 143.543 278.217 143.543C278.947 143.543 279.52 143.727 279.934 144.094C280.348 144.457 280.562 144.959 280.578 145.6V148.518C280.578 149.1 280.652 149.562 280.801 149.906V150H279.664ZM277.865 149.174C278.205 149.174 278.527 149.086 278.832 148.91C279.137 148.734 279.357 148.506 279.494 148.225V146.924H278.645C277.316 146.924 276.652 147.312 276.652 148.09C276.652 148.43 276.766 148.695 276.992 148.887C277.219 149.078 277.51 149.174 277.865 149.174ZM283.396 143.66V150.732C283.396 151.951 282.844 152.561 281.738 152.561C281.5 152.561 281.279 152.525 281.076 152.455V151.588C281.201 151.619 281.365 151.635 281.568 151.635C281.811 151.635 281.994 151.568 282.119 151.436C282.248 151.307 282.312 151.08 282.312 150.756V143.66H283.396ZM282.201 141.979C282.201 141.807 282.254 141.66 282.359 141.539C282.469 141.414 282.627 141.352 282.834 141.352C283.045 141.352 283.205 141.412 283.314 141.533C283.424 141.654 283.479 141.803 283.479 141.979C283.479 142.154 283.424 142.301 283.314 142.418C283.205 142.535 283.045 142.594 282.834 142.594C282.623 142.594 282.465 142.535 282.359 142.418C282.254 142.301 282.201 142.154 282.201 141.979ZM284.861 146.771C284.861 146.15 284.982 145.592 285.225 145.096C285.471 144.6 285.811 144.217 286.244 143.947C286.682 143.678 287.18 143.543 287.738 143.543C288.602 143.543 289.299 143.842 289.83 144.439C290.365 145.037 290.633 145.832 290.633 146.824V146.9C290.633 147.518 290.514 148.072 290.275 148.564C290.041 149.053 289.703 149.434 289.262 149.707C288.824 149.98 288.32 150.117 287.75 150.117C286.891 150.117 286.193 149.818 285.658 149.221C285.127 148.623 284.861 147.832 284.861 146.848V146.771ZM285.951 146.9C285.951 147.604 286.113 148.168 286.438 148.594C286.766 149.02 287.203 149.232 287.75 149.232C288.301 149.232 288.738 149.018 289.062 148.588C289.387 148.154 289.549 147.549 289.549 146.771C289.549 146.076 289.383 145.514 289.051 145.084C288.723 144.65 288.285 144.434 287.738 144.434C287.203 144.434 286.771 144.646 286.443 145.072C286.115 145.498 285.951 146.107 285.951 146.9ZM295.057 144.633C294.893 144.605 294.715 144.592 294.523 144.592C293.812 144.592 293.33 144.895 293.076 145.5V150H291.992V143.66H293.047L293.064 144.393C293.42 143.826 293.924 143.543 294.576 143.543C294.787 143.543 294.947 143.57 295.057 143.625V144.633ZM297.236 150H296.152V143.66H297.236V150ZM296.064 141.979C296.064 141.803 296.117 141.654 296.223 141.533C296.332 141.412 296.492 141.352 296.703 141.352C296.914 141.352 297.074 141.412 297.184 141.533C297.293 141.654 297.348 141.803 297.348 141.979C297.348 142.154 297.293 142.301 297.184 142.418C297.074 142.535 296.914 142.594 296.703 142.594C296.492 142.594 296.332 142.535 296.223 142.418C296.117 142.301 296.064 142.154 296.064 141.979ZM300.447 142.125V143.66H301.631V144.498H300.447V148.43C300.447 148.684 300.5 148.875 300.605 149.004C300.711 149.129 300.891 149.191 301.145 149.191C301.27 149.191 301.441 149.168 301.66 149.121V150C301.375 150.078 301.098 150.117 300.828 150.117C300.344 150.117 299.979 149.971 299.732 149.678C299.486 149.385 299.363 148.969 299.363 148.43V144.498H298.209V143.66H299.363V142.125H300.447ZM304.977 148.412L306.453 143.66H307.613L305.064 150.979C304.67 152.033 304.043 152.561 303.184 152.561L302.979 152.543L302.574 152.467V151.588L302.867 151.611C303.234 151.611 303.52 151.537 303.723 151.389C303.93 151.24 304.1 150.969 304.232 150.574L304.473 149.93L302.211 143.66H303.395L304.977 148.412ZM313.654 148.529L315.225 143.66H316.332L314.059 150H313.232L310.936 143.66H312.043L313.654 148.529ZM316.994 146.771C316.994 146.15 317.115 145.592 317.357 145.096C317.604 144.6 317.943 144.217 318.377 143.947C318.814 143.678 319.312 143.543 319.871 143.543C320.734 143.543 321.432 143.842 321.963 144.439C322.498 145.037 322.766 145.832 322.766 146.824V146.9C322.766 147.518 322.646 148.072 322.408 148.564C322.174 149.053 321.836 149.434 321.395 149.707C320.957 149.98 320.453 150.117 319.883 150.117C319.023 150.117 318.326 149.818 317.791 149.221C317.26 148.623 316.994 147.832 316.994 146.848V146.771ZM318.084 146.9C318.084 147.604 318.246 148.168 318.57 148.594C318.898 149.02 319.336 149.232 319.883 149.232C320.434 149.232 320.871 149.018 321.195 148.588C321.52 148.154 321.682 147.549 321.682 146.771C321.682 146.076 321.516 145.514 321.184 145.084C320.855 144.65 320.418 144.434 319.871 144.434C319.336 144.434 318.904 144.646 318.576 145.072C318.248 145.498 318.084 146.107 318.084 146.9ZM325.596 142.125V143.66H326.779V144.498H325.596V148.43C325.596 148.684 325.648 148.875 325.754 149.004C325.859 149.129 326.039 149.191 326.293 149.191C326.418 149.191 326.59 149.168 326.809 149.121V150C326.523 150.078 326.246 150.117 325.977 150.117C325.492 150.117 325.127 149.971 324.881 149.678C324.635 149.385 324.512 148.969 324.512 148.43V144.498H323.357V143.66H324.512V142.125H325.596ZM330.682 150.117C329.822 150.117 329.123 149.836 328.584 149.273C328.045 148.707 327.775 147.951 327.775 147.006V146.807C327.775 146.178 327.895 145.617 328.133 145.125C328.375 144.629 328.711 144.242 329.141 143.965C329.574 143.684 330.043 143.543 330.547 143.543C331.371 143.543 332.012 143.814 332.469 144.357C332.926 144.9 333.154 145.678 333.154 146.689V147.141H328.859C328.875 147.766 329.057 148.271 329.404 148.658C329.756 149.041 330.201 149.232 330.74 149.232C331.123 149.232 331.447 149.154 331.713 148.998C331.979 148.842 332.211 148.635 332.41 148.377L333.072 148.893C332.541 149.709 331.744 150.117 330.682 150.117ZM330.547 144.434C330.109 144.434 329.742 144.594 329.445 144.914C329.148 145.23 328.965 145.676 328.895 146.25H332.07V146.168C332.039 145.617 331.891 145.191 331.625 144.891C331.359 144.586 331 144.434 330.547 144.434Z" fill="#66571E"/>
<path d="M557.246 96.6602L557.275 97.3633C557.74 96.8164 558.367 96.543 559.156 96.543C560.043 96.543 560.646 96.8828 560.967 97.5625C561.178 97.2578 561.451 97.0117 561.787 96.8242C562.127 96.6367 562.527 96.543 562.988 96.543C564.379 96.543 565.086 97.2793 565.109 98.752V103H564.025V98.8164C564.025 98.3633 563.922 98.0254 563.715 97.8027C563.508 97.5762 563.16 97.4629 562.672 97.4629C562.27 97.4629 561.936 97.584 561.67 97.8262C561.404 98.0645 561.25 98.3867 561.207 98.793V103H560.117V98.8457C560.117 97.9238 559.666 97.4629 558.764 97.4629C558.053 97.4629 557.566 97.7656 557.305 98.3711V103H556.221V96.6602H557.246ZM570.664 103C570.602 102.875 570.551 102.652 570.512 102.332C570.008 102.855 569.406 103.117 568.707 103.117C568.082 103.117 567.568 102.941 567.166 102.59C566.768 102.234 566.568 101.785 566.568 101.242C566.568 100.582 566.818 100.07 567.318 99.707C567.822 99.3398 568.529 99.1562 569.439 99.1562H570.494V98.6582C570.494 98.2793 570.381 97.9785 570.154 97.7559C569.928 97.5293 569.594 97.416 569.152 97.416C568.766 97.416 568.441 97.5137 568.18 97.709C567.918 97.9043 567.787 98.1406 567.787 98.418H566.697C566.697 98.1016 566.809 97.7969 567.031 97.5039C567.258 97.207 567.562 96.9727 567.945 96.8008C568.332 96.6289 568.756 96.543 569.217 96.543C569.947 96.543 570.52 96.7266 570.934 97.0938C571.348 97.457 571.562 97.959 571.578 98.5996V101.518C571.578 102.1 571.652 102.562 571.801 102.906V103H570.664ZM568.865 102.174C569.205 102.174 569.527 102.086 569.832 101.91C570.137 101.734 570.357 101.506 570.494 101.225V99.9238H569.645C568.316 99.9238 567.652 100.312 567.652 101.09C567.652 101.43 567.766 101.695 567.992 101.887C568.219 102.078 568.51 102.174 568.865 102.174ZM574.396 96.6602V103.732C574.396 104.951 573.844 105.561 572.738 105.561C572.5 105.561 572.279 105.525 572.076 105.455V104.588C572.201 104.619 572.365 104.635 572.568 104.635C572.811 104.635 572.994 104.568 573.119 104.436C573.248 104.307 573.312 104.08 573.312 103.756V96.6602H574.396ZM573.201 94.9785C573.201 94.8066 573.254 94.6602 573.359 94.5391C573.469 94.4141 573.627 94.3516 573.834 94.3516C574.045 94.3516 574.205 94.4121 574.314 94.5332C574.424 94.6543 574.479 94.8027 574.479 94.9785C574.479 95.1543 574.424 95.3008 574.314 95.418C574.205 95.5352 574.045 95.5938 573.834 95.5938C573.623 95.5938 573.465 95.5352 573.359 95.418C573.254 95.3008 573.201 95.1543 573.201 94.9785ZM575.861 99.7715C575.861 99.1504 575.982 98.5918 576.225 98.0957C576.471 97.5996 576.811 97.2168 577.244 96.9473C577.682 96.6777 578.18 96.543 578.738 96.543C579.602 96.543 580.299 96.8418 580.83 97.4395C581.365 98.0371 581.633 98.832 581.633 99.8242V99.9004C581.633 100.518 581.514 101.072 581.275 101.564C581.041 102.053 580.703 102.434 580.262 102.707C579.824 102.98 579.32 103.117 578.75 103.117C577.891 103.117 577.193 102.818 576.658 102.221C576.127 101.623 575.861 100.832 575.861 99.8477V99.7715ZM576.951 99.9004C576.951 100.604 577.113 101.168 577.438 101.594C577.766 102.02 578.203 102.232 578.75 102.232C579.301 102.232 579.738 102.018 580.062 101.588C580.387 101.154 580.549 100.549 580.549 99.7715C580.549 99.0762 580.383 98.5137 580.051 98.084C579.723 97.6504 579.285 97.4336 578.738 97.4336C578.203 97.4336 577.771 97.6465 577.443 98.0723C577.115 98.498 576.951 99.1074 576.951 99.9004ZM586.057 97.6328C585.893 97.6055 585.715 97.5918 585.523 97.5918C584.812 97.5918 584.33 97.8945 584.076 98.5V103H582.992V96.6602H584.047L584.064 97.3926C584.42 96.8262 584.924 96.543 585.576 96.543C585.787 96.543 585.947 96.5703 586.057 96.625V97.6328ZM588.236 103H587.152V96.6602H588.236V103ZM587.064 94.9785C587.064 94.8027 587.117 94.6543 587.223 94.5332C587.332 94.4121 587.492 94.3516 587.703 94.3516C587.914 94.3516 588.074 94.4121 588.184 94.5332C588.293 94.6543 588.348 94.8027 588.348 94.9785C588.348 95.1543 588.293 95.3008 588.184 95.418C588.074 95.5352 587.914 95.5938 587.703 95.5938C587.492 95.5938 587.332 95.5352 587.223 95.418C587.117 95.3008 587.064 95.1543 587.064 94.9785ZM591.447 95.125V96.6602H592.631V97.498H591.447V101.43C591.447 101.684 591.5 101.875 591.605 102.004C591.711 102.129 591.891 102.191 592.145 102.191C592.27 102.191 592.441 102.168 592.66 102.121V103C592.375 103.078 592.098 103.117 591.828 103.117C591.344 103.117 590.979 102.971 590.732 102.678C590.486 102.385 590.363 101.969 590.363 101.43V97.498H589.209V96.6602H590.363V95.125H591.447ZM595.977 101.412L597.453 96.6602H598.613L596.064 103.979C595.67 105.033 595.043 105.561 594.184 105.561L593.979 105.543L593.574 105.467V104.588L593.867 104.611C594.234 104.611 594.52 104.537 594.723 104.389C594.93 104.24 595.1 103.969 595.232 103.574L595.473 102.93L593.211 96.6602H594.395L595.977 101.412ZM604.654 101.529L606.225 96.6602H607.332L605.059 103H604.232L601.936 96.6602H603.043L604.654 101.529ZM607.994 99.7715C607.994 99.1504 608.115 98.5918 608.357 98.0957C608.604 97.5996 608.943 97.2168 609.377 96.9473C609.814 96.6777 610.312 96.543 610.871 96.543C611.734 96.543 612.432 96.8418 612.963 97.4395C613.498 98.0371 613.766 98.832 613.766 99.8242V99.9004C613.766 100.518 613.646 101.072 613.408 101.564C613.174 102.053 612.836 102.434 612.395 102.707C611.957 102.98 611.453 103.117 610.883 103.117C610.023 103.117 609.326 102.818 608.791 102.221C608.26 101.623 607.994 100.832 607.994 99.8477V99.7715ZM609.084 99.9004C609.084 100.604 609.246 101.168 609.57 101.594C609.898 102.02 610.336 102.232 610.883 102.232C611.434 102.232 611.871 102.018 612.195 101.588C612.52 101.154 612.682 100.549 612.682 99.7715C612.682 99.0762 612.516 98.5137 612.184 98.084C611.855 97.6504 611.418 97.4336 610.871 97.4336C610.336 97.4336 609.904 97.6465 609.576 98.0723C609.248 98.498 609.084 99.1074 609.084 99.9004ZM616.596 95.125V96.6602H617.779V97.498H616.596V101.43C616.596 101.684 616.648 101.875 616.754 102.004C616.859 102.129 617.039 102.191 617.293 102.191C617.418 102.191 617.59 102.168 617.809 102.121V103C617.523 103.078 617.246 103.117 616.977 103.117C616.492 103.117 616.127 102.971 615.881 102.678C615.635 102.385 615.512 101.969 615.512 101.43V97.498H614.357V96.6602H615.512V95.125H616.596ZM621.682 103.117C620.822 103.117 620.123 102.836 619.584 102.273C619.045 101.707 618.775 100.951 618.775 100.006V99.8066C618.775 99.1777 618.895 98.6172 619.133 98.125C619.375 97.6289 619.711 97.2422 620.141 96.9648C620.574 96.6836 621.043 96.543 621.547 96.543C622.371 96.543 623.012 96.8145 623.469 97.3574C623.926 97.9004 624.154 98.6777 624.154 99.6895V100.141H619.859C619.875 100.766 620.057 101.271 620.404 101.658C620.756 102.041 621.201 102.232 621.74 102.232C622.123 102.232 622.447 102.154 622.713 101.998C622.979 101.842 623.211 101.635 623.41 101.377L624.072 101.893C623.541 102.709 622.744 103.117 621.682 103.117ZM621.547 97.4336C621.109 97.4336 620.742 97.5938 620.445 97.9141C620.148 98.2305 619.965 98.6758 619.895 99.25H623.07V99.168C623.039 98.6172 622.891 98.1914 622.625 97.8906C622.359 97.5859 622 97.4336 621.547 97.4336Z" fill="black"/>
<path d="M542.436 208.125V209.66H543.619V210.498H542.436V214.43C542.436 214.684 542.488 214.875 542.594 215.004C542.699 215.129 542.879 215.191 543.133 215.191C543.258 215.191 543.43 215.168 543.648 215.121V216C543.363 216.078 543.086 216.117 542.816 216.117C542.332 216.117 541.967 215.971 541.721 215.678C541.475 215.385 541.352 214.969 541.352 214.43V210.498H540.197V209.66H541.352V208.125H542.436ZM547.955 210.633C547.791 210.605 547.613 210.592 547.422 210.592C546.711 210.592 546.229 210.895 545.975 211.5V216H544.891V209.66H545.945L545.963 210.393C546.318 209.826 546.822 209.543 547.475 209.543C547.686 209.543 547.846 209.57 547.955 209.625V210.633ZM552.637 216C552.574 215.875 552.523 215.652 552.484 215.332C551.98 215.855 551.379 216.117 550.68 216.117C550.055 216.117 549.541 215.941 549.139 215.59C548.74 215.234 548.541 214.785 548.541 214.242C548.541 213.582 548.791 213.07 549.291 212.707C549.795 212.34 550.502 212.156 551.412 212.156H552.467V211.658C552.467 211.279 552.354 210.979 552.127 210.756C551.9 210.529 551.566 210.416 551.125 210.416C550.738 210.416 550.414 210.514 550.152 210.709C549.891 210.904 549.76 211.141 549.76 211.418H548.67C548.67 211.102 548.781 210.797 549.004 210.504C549.23 210.207 549.535 209.973 549.918 209.801C550.305 209.629 550.729 209.543 551.189 209.543C551.92 209.543 552.492 209.727 552.906 210.094C553.32 210.457 553.535 210.959 553.551 211.6V214.518C553.551 215.1 553.625 215.562 553.773 215.906V216H552.637ZM550.838 215.174C551.178 215.174 551.5 215.086 551.805 214.91C552.109 214.734 552.33 214.506 552.467 214.225V212.924H551.617C550.289 212.924 549.625 213.312 549.625 214.09C549.625 214.43 549.738 214.695 549.965 214.887C550.191 215.078 550.482 215.174 550.838 215.174ZM556.428 216H555.344V209.66H556.428V216ZM555.256 207.979C555.256 207.803 555.309 207.654 555.414 207.533C555.523 207.412 555.684 207.352 555.895 207.352C556.105 207.352 556.266 207.412 556.375 207.533C556.484 207.654 556.539 207.803 556.539 207.979C556.539 208.154 556.484 208.301 556.375 208.418C556.266 208.535 556.105 208.594 555.895 208.594C555.684 208.594 555.523 208.535 555.414 208.418C555.309 208.301 555.256 208.154 555.256 207.979ZM559.193 209.66L559.229 210.457C559.713 209.848 560.346 209.543 561.127 209.543C562.467 209.543 563.143 210.299 563.154 211.811V216H562.07V211.805C562.066 211.348 561.961 211.01 561.754 210.791C561.551 210.572 561.232 210.463 560.799 210.463C560.447 210.463 560.139 210.557 559.873 210.744C559.607 210.932 559.4 211.178 559.252 211.482V216H558.168V209.66H559.193ZM565.967 216H564.883V209.66H565.967V216ZM564.795 207.979C564.795 207.803 564.848 207.654 564.953 207.533C565.062 207.412 565.223 207.352 565.434 207.352C565.645 207.352 565.805 207.412 565.914 207.533C566.023 207.654 566.078 207.803 566.078 207.979C566.078 208.154 566.023 208.301 565.914 208.418C565.805 208.535 565.645 208.594 565.434 208.594C565.223 208.594 565.062 208.535 564.953 208.418C564.848 208.301 564.795 208.154 564.795 207.979ZM568.732 209.66L568.768 210.457C569.252 209.848 569.885 209.543 570.666 209.543C572.006 209.543 572.682 210.299 572.693 211.811V216H571.609V211.805C571.605 211.348 571.5 211.01 571.293 210.791C571.09 210.572 570.771 210.463 570.338 210.463C569.986 210.463 569.678 210.557 569.412 210.744C569.146 210.932 568.939 211.178 568.791 211.482V216H567.707V209.66H568.732ZM574.07 212.777C574.07 211.789 574.299 211.004 574.756 210.422C575.213 209.836 575.818 209.543 576.572 209.543C577.346 209.543 577.949 209.816 578.383 210.363L578.436 209.66H579.426V215.848C579.426 216.668 579.182 217.314 578.693 217.787C578.209 218.26 577.557 218.496 576.736 218.496C576.279 218.496 575.832 218.398 575.395 218.203C574.957 218.008 574.623 217.74 574.393 217.4L574.955 216.75C575.42 217.324 575.988 217.611 576.66 217.611C577.188 217.611 577.598 217.463 577.891 217.166C578.188 216.869 578.336 216.451 578.336 215.912V215.367C577.902 215.867 577.311 216.117 576.561 216.117C575.818 216.117 575.217 215.818 574.756 215.221C574.299 214.623 574.07 213.809 574.07 212.777ZM575.16 212.9C575.16 213.615 575.307 214.178 575.6 214.588C575.893 214.994 576.303 215.197 576.83 215.197C577.514 215.197 578.016 214.887 578.336 214.266V211.371C578.004 210.766 577.506 210.463 576.842 210.463C576.314 210.463 575.902 210.668 575.605 211.078C575.309 211.488 575.16 212.096 575.16 212.9ZM583.785 212.777C583.785 211.789 584.014 211.004 584.471 210.422C584.928 209.836 585.533 209.543 586.287 209.543C587.061 209.543 587.664 209.816 588.098 210.363L588.15 209.66H589.141V215.848C589.141 216.668 588.896 217.314 588.408 217.787C587.924 218.26 587.271 218.496 586.451 218.496C585.994 218.496 585.547 218.398 585.109 218.203C584.672 218.008 584.338 217.74 584.107 217.4L584.67 216.75C585.135 217.324 585.703 217.611 586.375 217.611C586.902 217.611 587.312 217.463 587.605 217.166C587.902 216.869 588.051 216.451 588.051 215.912V215.367C587.617 215.867 587.025 216.117 586.275 216.117C585.533 216.117 584.932 215.818 584.471 215.221C584.014 214.623 583.785 213.809 583.785 212.777ZM584.875 212.9C584.875 213.615 585.021 214.178 585.314 214.588C585.607 214.994 586.018 215.197 586.545 215.197C587.229 215.197 587.73 214.887 588.051 214.266V211.371C587.719 210.766 587.221 210.463 586.557 210.463C586.029 210.463 585.617 210.668 585.32 211.078C585.023 211.488 584.875 212.096 584.875 212.9ZM593.846 210.633C593.682 210.605 593.504 210.592 593.312 210.592C592.602 210.592 592.119 210.895 591.865 211.5V216H590.781V209.66H591.836L591.854 210.393C592.209 209.826 592.713 209.543 593.365 209.543C593.576 209.543 593.736 209.57 593.846 209.625V210.633ZM598.527 216C598.465 215.875 598.414 215.652 598.375 215.332C597.871 215.855 597.27 216.117 596.57 216.117C595.945 216.117 595.432 215.941 595.029 215.59C594.631 215.234 594.432 214.785 594.432 214.242C594.432 213.582 594.682 213.07 595.182 212.707C595.686 212.34 596.393 212.156 597.303 212.156H598.357V211.658C598.357 211.279 598.244 210.979 598.018 210.756C597.791 210.529 597.457 210.416 597.016 210.416C596.629 210.416 596.305 210.514 596.043 210.709C595.781 210.904 595.65 211.141 595.65 211.418H594.561C594.561 211.102 594.672 210.797 594.895 210.504C595.121 210.207 595.426 209.973 595.809 209.801C596.195 209.629 596.619 209.543 597.08 209.543C597.811 209.543 598.383 209.727 598.797 210.094C599.211 210.457 599.426 210.959 599.441 211.6V214.518C599.441 215.1 599.516 215.562 599.664 215.906V216H598.527ZM596.729 215.174C597.068 215.174 597.391 215.086 597.695 214.91C598 214.734 598.221 214.506 598.357 214.225V212.924H597.508C596.18 212.924 595.516 213.312 595.516 214.09C595.516 214.43 595.629 214.695 595.855 214.887C596.082 215.078 596.373 215.174 596.729 215.174ZM606.496 212.9C606.496 213.865 606.275 214.643 605.834 215.232C605.393 215.822 604.795 216.117 604.041 216.117C603.271 216.117 602.666 215.873 602.225 215.385V218.438H601.141V209.66H602.131L602.184 210.363C602.625 209.816 603.238 209.543 604.023 209.543C604.785 209.543 605.387 209.83 605.828 210.404C606.273 210.979 606.496 211.777 606.496 212.801V212.9ZM605.412 212.777C605.412 212.062 605.26 211.498 604.955 211.084C604.65 210.67 604.232 210.463 603.701 210.463C603.045 210.463 602.553 210.754 602.225 211.336V214.365C602.549 214.943 603.045 215.232 603.713 215.232C604.232 215.232 604.645 215.027 604.949 214.617C605.258 214.203 605.412 213.59 605.412 212.777ZM608.963 210.428C609.443 209.838 610.068 209.543 610.838 209.543C612.178 209.543 612.854 210.299 612.865 211.811V216H611.781V211.805C611.777 211.348 611.672 211.01 611.465 210.791C611.262 210.572 610.943 210.463 610.51 210.463C610.158 210.463 609.85 210.557 609.584 210.744C609.318 210.932 609.111 211.178 608.963 211.482V216H607.879V207H608.963V210.428ZM618.18 214.318C618.18 214.025 618.068 213.799 617.846 213.639C617.627 213.475 617.242 213.334 616.691 213.217C616.145 213.1 615.709 212.959 615.385 212.795C615.064 212.631 614.826 212.436 614.67 212.209C614.518 211.982 614.441 211.713 614.441 211.4C614.441 210.881 614.66 210.441 615.098 210.082C615.539 209.723 616.102 209.543 616.785 209.543C617.504 209.543 618.086 209.729 618.531 210.1C618.98 210.471 619.205 210.945 619.205 211.523H618.115C618.115 211.227 617.988 210.971 617.734 210.756C617.484 210.541 617.168 210.434 616.785 210.434C616.391 210.434 616.082 210.52 615.859 210.691C615.637 210.863 615.525 211.088 615.525 211.365C615.525 211.627 615.629 211.824 615.836 211.957C616.043 212.09 616.416 212.217 616.955 212.338C617.498 212.459 617.938 212.604 618.273 212.771C618.609 212.939 618.857 213.143 619.018 213.381C619.182 213.615 619.264 213.902 619.264 214.242C619.264 214.809 619.037 215.264 618.584 215.607C618.131 215.947 617.543 216.117 616.82 216.117C616.312 216.117 615.863 216.027 615.473 215.848C615.082 215.668 614.775 215.418 614.553 215.098C614.334 214.773 614.225 214.424 614.225 214.049H615.309C615.328 214.412 615.473 214.701 615.742 214.916C616.016 215.127 616.375 215.232 616.82 215.232C617.23 215.232 617.559 215.15 617.805 214.986C618.055 214.818 618.18 214.596 618.18 214.318Z" fill="black"/>
<path d="M649 90L639 84.2265V95.7735L649 90ZM550 91H640V89H550V91Z" fill="black"/>
<path d="M510 213.084C510 212.795 510.102 212.542 510.307 212.325C510.512 212.108 510.771 212 511.084 212C511.373 212 511.626 212.096 511.843 212.289C512.06 212.482 512.174 212.741 512.186 213.066C512.186 213.367 512.084 213.626 511.879 213.843C511.674 214.06 511.415 214.168 511.102 214.168C510.789 214.168 510.53 214.066 510.325 213.861C510.12 213.656 510.012 213.397 510 213.084ZM518.076 213.084C518.076 212.795 518.178 212.542 518.383 212.325C518.588 212.108 518.847 212 519.16 212C519.449 212 519.702 212.096 519.919 212.289C520.135 212.482 520.25 212.741 520.262 213.066C520.262 213.367 520.159 213.626 519.955 213.843C519.75 214.06 519.491 214.168 519.178 214.168C518.865 214.168 518.606 214.066 518.401 213.861C518.196 213.656 518.088 213.397 518.076 213.084ZM526.152 213.084C526.152 212.795 526.254 212.542 526.459 212.325C526.663 212.108 526.922 212 527.236 212C527.525 212 527.778 212.096 527.994 212.289C528.211 212.482 528.326 212.741 528.338 213.066C528.338 213.367 528.235 213.626 528.031 213.843C527.826 214.06 527.567 214.168 527.254 214.168C526.941 214.168 526.682 214.066 526.477 213.861C526.272 213.656 526.164 213.397 526.152 213.084Z" fill="black"/>
<path d="M301.94 121.306C302.291 121.306 302.432 121.306 302.432 120.972C302.432 120.797 302.291 120.797 301.975 120.797H300.552C300.886 118.987 301.132 117.739 301.272 117.177C301.378 116.755 301.747 116.351 302.204 116.351C302.573 116.351 302.942 116.51 303.117 116.668C302.432 116.738 302.221 117.247 302.221 117.546C302.221 117.898 302.485 118.108 302.819 118.108C303.17 118.108 303.697 117.81 303.697 117.142C303.697 116.404 302.959 116 302.186 116C301.431 116 300.693 116.562 300.341 117.247C300.025 117.862 299.849 118.495 299.445 120.797H298.268C297.934 120.797 297.758 120.797 297.758 121.113C297.758 121.306 297.864 121.306 298.215 121.306H299.34C299.023 122.94 298.303 126.911 297.899 128.791C297.6 130.319 297.337 131.602 296.458 131.602C296.406 131.602 295.896 131.602 295.58 131.268C296.476 131.198 296.476 130.425 296.476 130.407C296.476 130.056 296.212 129.845 295.878 129.845C295.527 129.845 295 130.144 295 130.811C295 131.567 295.773 131.953 296.458 131.953C298.25 131.953 298.988 128.738 299.182 127.86C299.498 126.507 300.359 121.833 300.447 121.306H301.94Z" fill="#66571E"/>
<path d="M592.979 81.7862C593.067 82.893 593.278 83.7012 593.366 84.035C593.559 84.8257 593.647 85.2122 594.403 85.2122C595.193 85.2122 596.546 84.4216 596.546 84.0702C596.546 83.9823 596.476 83.9472 596.388 83.9472C596.159 83.9472 595.791 84.1405 595.738 84.1756C595.615 84.2459 595.58 84.2459 595.545 84.2459C595.053 84.2459 594.947 83.7715 594.736 82.7173C594.613 82.1375 594.455 81.4348 594.315 79.0278C594.192 77.2357 594.121 75.4436 594.121 73.6515C594.121 73.2299 594.139 72.7731 594.139 72.3514C594.139 72.0703 594.139 72 593.946 72C593.7 72 592.979 72.2987 592.663 72.7731L592.54 72.9663C591.152 75.9355 589.852 78.0614 588.938 79.4846C587.902 81.0834 586.075 83.9472 585.126 83.9472C584.476 83.9472 583.931 83.5255 583.773 82.893C583.755 82.8579 583.72 82.7525 583.65 82.7525C583.387 82.7525 583 83.5958 583 84.0877C583 84.7905 583.755 85.5636 584.581 85.5636C585.794 85.5636 587.814 82.4011 588.201 81.7862H592.979ZM592.628 74.161V75.1801C592.628 76.1991 592.663 77.2181 592.716 78.2371C592.733 78.5885 592.804 79.9062 592.892 80.8198H589.676C589.395 80.8198 589.132 80.8198 588.675 81.101C589.905 79.2035 590.924 77.3762 591.029 77.183C591.908 75.6193 592.382 74.6003 592.61 74.161H592.628Z" fill="black"/>
<path d="M390.5 190V190C390.5 179.23 381.77 170.5 371 170.5H314C305.44 170.5 298.5 163.56 298.5 155V155" stroke="#B39735" stroke-dasharray="3 1"/>
<path d="M520 200V190.5C520 179.454 511.046 170.5 500 170.5H373" stroke="#B39735" stroke-dasharray="3 1"/>
<path d="M220.5 190V190C220.5 179.23 229.23 170.5 240 170.5H283C291.56 170.5 298.5 163.56 298.5 155V155" stroke="#B39735" stroke-dasharray="3 1"/>
</svg>
