<svg width="770" height="280" viewBox="0 0 770 280" fill="none" xmlns="http://www.w3.org/2000/svg">
<rect width="770" height="280" fill="white"/>
<rect x="170.25" y="30.25" width="459.5" height="249.5" rx="1.75" stroke="black" stroke-width="0.5" stroke-dasharray="5 2"/>
<path d="M130 120L120 114.226V125.774L130 120ZM70 121H121V119H70V121Z" fill="black"/>
<path d="M37 120L37 162M37 120L64 78L10 78L37 120Z" stroke="black" stroke-width="2"/>
<path d="M10 88C15.5228 88 20 83.5228 20 78C20 72.4772 15.5228 68 10 68C4.47715 68 0 72.4772 0 78C0 83.5228 4.47715 88 10 88Z" fill="black"/>
<path d="M64 88C69.5228 88 74 83.5228 74 78C74 72.4772 69.5228 68 64 68C58.4772 68 54 72.4772 54 78C54 83.5228 58.4772 88 64 88Z" fill="black"/>
<path d="M37 130C42.5228 130 47 125.523 47 120C47 114.477 42.5228 110 37 110C31.4772 110 27 114.477 27 120C27 125.523 31.4772 130 37 130Z" fill="black"/>
<path d="M37 172C42.5228 172 47 167.523 47 162C47 156.477 42.5228 152 37 152C31.4772 152 27 156.477 27 162C27 167.523 31.4772 172 37 172Z" fill="black"/>
<path d="M149.854 81.251C149.637 81.2148 148.858 81.1967 147.519 81.1967C146.12 81.1967 145.312 81.2148 145.094 81.251H144.932V80.4186H145.493C145.734 80.4186 145.897 80.4186 145.981 80.4186C146.066 80.4186 146.168 80.4065 146.289 80.3824C146.409 80.3582 146.494 80.3281 146.542 80.2919C146.59 80.2557 146.633 80.2074 146.669 80.1471C146.681 80.123 146.687 79.7973 146.687 79.1699V78.2651H142V77.4327L144.732 73.2525C146.578 70.4537 147.513 69.0482 147.537 69.0362C147.562 69.012 147.688 69 147.917 69H148.243L148.352 69.1086V77.4327H150.017V78.2651H148.352V79.188C148.352 79.6827 148.352 79.9722 148.352 80.0566C148.352 80.1411 148.388 80.2135 148.46 80.2738C148.557 80.3582 148.901 80.4065 149.492 80.4186H150.017V81.251H149.854ZM146.795 77.4327V71.3887L142.832 77.4146L144.805 77.4327H146.795Z" fill="#355FB3"/>
<path d="M143.068 103.289C142.742 103.289 142.483 103.18 142.29 102.963C142.097 102.746 142 102.48 142 102.167C142 101.31 142.32 100.568 142.959 99.9409C143.598 99.3136 144.395 98.9999 145.348 98.9999C146.446 98.9999 147.362 99.3377 148.098 100.013C148.834 100.689 149.208 101.564 149.22 102.637C149.22 103.156 149.1 103.651 148.858 104.121C148.617 104.592 148.328 105.002 147.99 105.352C147.652 105.701 147.169 106.148 146.542 106.691C146.108 107.065 145.505 107.62 144.732 108.356L143.665 109.369L145.04 109.387C146.934 109.387 147.942 109.357 148.062 109.297C148.147 109.272 148.291 108.736 148.496 107.686V107.632H149.22V107.686C149.208 107.722 149.13 108.271 148.985 109.333C148.84 110.394 148.75 110.949 148.714 110.998V111.052H142V110.708V110.491C142 110.406 142.036 110.316 142.109 110.219C142.181 110.123 142.362 109.912 142.651 109.586C143.001 109.2 143.303 108.862 143.556 108.573C143.665 108.452 143.87 108.229 144.172 107.903C144.473 107.577 144.678 107.354 144.787 107.234C144.895 107.113 145.07 106.914 145.312 106.636C145.553 106.359 145.722 106.154 145.818 106.021C145.915 105.888 146.054 105.708 146.234 105.478C146.415 105.249 146.542 105.056 146.614 104.899C146.687 104.742 146.777 104.567 146.886 104.374C146.994 104.181 147.073 103.988 147.121 103.795C147.169 103.602 147.212 103.421 147.248 103.253C147.284 103.084 147.302 102.885 147.302 102.655C147.302 101.895 147.097 101.238 146.687 100.683C146.277 100.128 145.692 99.8505 144.932 99.8505C144.533 99.8505 144.184 99.953 143.882 100.158C143.58 100.363 143.369 100.562 143.249 100.755C143.128 100.948 143.068 101.063 143.068 101.099C143.068 101.111 143.098 101.117 143.158 101.117C143.375 101.117 143.598 101.202 143.828 101.371C144.057 101.539 144.172 101.817 144.172 102.203C144.172 102.505 144.075 102.758 143.882 102.963C143.689 103.168 143.418 103.277 143.068 103.289Z" fill="#B33535"/>
<path d="M145.352 130.593L145.117 130.683C144.948 130.743 144.707 130.804 144.393 130.864C144.08 130.924 143.73 130.966 143.344 130.991H143V130.158H143.344C143.911 130.134 144.436 130.044 144.918 129.887C145.401 129.73 145.739 129.585 145.932 129.452C146.125 129.32 146.293 129.187 146.438 129.054C146.462 129.018 146.535 129 146.655 129C146.764 129 146.867 129.036 146.963 129.109V134.519L146.981 139.948C147.066 140.033 147.138 140.087 147.198 140.111C147.259 140.135 147.403 140.159 147.633 140.183C147.862 140.208 148.236 140.22 148.755 140.22H149.225V141.052H149.026C148.773 141.016 147.814 140.998 146.149 140.998C144.508 140.998 143.561 141.016 143.308 141.052H143.09V140.22H143.561C143.826 140.22 144.056 140.22 144.249 140.22C144.442 140.22 144.592 140.214 144.701 140.201C144.81 140.189 144.906 140.171 144.991 140.147C145.075 140.123 145.123 140.111 145.135 140.111C145.147 140.111 145.184 140.081 145.244 140.021C145.304 139.96 145.34 139.936 145.352 139.948V130.593Z" fill="#3BB335"/>
<path d="M145.352 160.593L145.117 160.683C144.948 160.743 144.707 160.804 144.393 160.864C144.08 160.924 143.73 160.966 143.344 160.991H143V160.158H143.344C143.911 160.134 144.436 160.044 144.918 159.887C145.401 159.73 145.739 159.585 145.932 159.452C146.125 159.32 146.293 159.187 146.438 159.054C146.462 159.018 146.535 159 146.655 159C146.764 159 146.867 159.036 146.963 159.109V164.519L146.981 169.948C147.066 170.033 147.138 170.087 147.198 170.111C147.259 170.135 147.403 170.159 147.633 170.183C147.862 170.208 148.236 170.22 148.755 170.22H149.225V171.052H149.026C148.773 171.016 147.814 170.998 146.149 170.998C144.508 170.998 143.561 171.016 143.308 171.052H143.09V170.22H143.561C143.826 170.22 144.056 170.22 144.249 170.22C144.442 170.22 144.592 170.214 144.701 170.201C144.81 170.189 144.906 170.171 144.991 170.147C145.075 170.123 145.123 170.111 145.135 170.111C145.147 170.111 145.184 170.081 145.244 170.021C145.304 169.96 145.34 169.936 145.352 169.948V160.593Z" fill="#66571E"/>
<path d="M660.391 119.378C660.391 119.209 660.481 118.92 660.662 118.51C660.843 118.1 661.133 117.671 661.531 117.225C661.929 116.779 662.376 116.561 662.87 116.574C663.365 116.574 663.763 116.712 664.064 116.99C664.366 117.267 664.523 117.653 664.535 118.148C664.511 118.377 664.493 118.504 664.481 118.528C664.481 118.564 664.384 118.842 664.191 119.36C663.998 119.879 663.799 120.464 663.594 121.116C663.389 121.767 663.292 122.286 663.304 122.672C663.304 123.191 663.389 123.553 663.558 123.758C663.727 123.963 663.98 124.071 664.318 124.083C664.595 124.083 664.855 124.017 665.096 123.884C665.337 123.752 665.524 123.613 665.657 123.468C665.79 123.323 665.952 123.124 666.146 122.871C666.146 122.859 666.176 122.738 666.236 122.509C666.296 122.28 666.381 121.924 666.489 121.441C666.598 120.959 666.713 120.512 666.833 120.102C667.292 118.293 667.545 117.346 667.593 117.261C667.75 116.935 668.009 116.773 668.371 116.773C668.528 116.773 668.655 116.815 668.751 116.899C668.848 116.984 668.914 117.056 668.95 117.116C668.987 117.177 668.999 117.231 668.987 117.279C668.987 117.436 668.691 118.703 668.1 121.079C667.509 123.456 667.171 124.759 667.087 124.988C666.749 125.989 666.164 126.786 665.331 127.377C664.499 127.968 663.666 128.27 662.834 128.282C662.291 128.282 661.815 128.149 661.404 127.884C660.994 127.618 660.789 127.22 660.789 126.689C660.789 126.424 660.831 126.201 660.916 126.02C661 125.839 661.115 125.706 661.26 125.622C661.404 125.537 661.525 125.477 661.622 125.441C661.718 125.404 661.821 125.386 661.929 125.386C662.46 125.386 662.725 125.64 662.725 126.146C662.725 126.388 662.653 126.599 662.508 126.78C662.363 126.961 662.225 127.081 662.092 127.142C661.959 127.202 661.881 127.232 661.857 127.232L661.802 127.25C661.827 127.31 661.941 127.383 662.146 127.467C662.351 127.552 662.556 127.594 662.762 127.594H662.906C663.111 127.594 663.268 127.582 663.377 127.558C663.775 127.449 664.143 127.22 664.481 126.87C664.818 126.52 665.078 126.146 665.259 125.748C665.44 125.35 665.579 125.012 665.675 124.735C665.772 124.457 665.82 124.276 665.82 124.192L665.711 124.264C665.639 124.313 665.524 124.379 665.367 124.463C665.211 124.548 665.054 124.62 664.897 124.681C664.656 124.741 664.42 124.771 664.191 124.771C663.636 124.771 663.148 124.638 662.725 124.373C662.303 124.107 662.026 123.679 661.893 123.088C661.881 123.004 661.875 122.817 661.875 122.527C661.875 121.839 662.086 120.941 662.508 119.831C662.93 118.721 663.142 118.015 663.142 117.714C663.142 117.701 663.142 117.689 663.142 117.677C663.142 117.569 663.142 117.496 663.142 117.46C663.142 117.424 663.117 117.382 663.069 117.334C663.021 117.285 662.955 117.261 662.87 117.261H662.798C662.52 117.261 662.267 117.376 662.038 117.605C661.809 117.834 661.628 118.082 661.495 118.347C661.362 118.612 661.26 118.866 661.187 119.107C661.115 119.348 661.067 119.481 661.042 119.505C661.018 119.529 660.922 119.541 660.753 119.541H660.5C660.427 119.469 660.391 119.415 660.391 119.378Z" fill="black"/>
<path d="M675.425 120.048C675.425 118.576 675.92 117.37 676.909 116.429C677.898 115.488 679.068 114.951 680.42 114.818C680.432 114.818 680.534 114.818 680.727 114.818C680.92 114.818 681.174 114.812 681.487 114.8C681.801 114.788 682.103 114.788 682.392 114.8H684.184C684.365 114.897 684.455 115.017 684.455 115.162C684.455 115.271 684.377 115.385 684.22 115.506L682.338 115.524C680.999 115.536 680.172 115.572 679.859 115.632C679.268 115.777 678.743 115.994 678.284 116.284C677.826 116.573 677.47 116.869 677.217 117.171C676.963 117.472 676.746 117.804 676.565 118.166C676.384 118.528 676.276 118.817 676.239 119.035C676.203 119.252 676.173 119.457 676.149 119.65V119.686H684.184C684.365 119.782 684.455 119.903 684.455 120.048C684.455 120.193 684.365 120.313 684.184 120.41H676.149V120.446C676.149 120.699 676.209 121.007 676.33 121.369C676.451 121.731 676.65 122.123 676.927 122.545C677.205 122.967 677.591 123.353 678.085 123.703C678.58 124.053 679.165 124.3 679.841 124.445C680.166 124.518 680.999 124.56 682.338 124.572H684.22C684.377 124.693 684.455 124.813 684.455 124.934C684.455 125.079 684.365 125.199 684.184 125.296H682.428C682.344 125.296 682.193 125.296 681.976 125.296C681.759 125.296 681.584 125.302 681.451 125.314C679.581 125.314 678.103 124.795 677.018 123.758C675.956 122.768 675.425 121.532 675.425 120.048Z" fill="black"/>
<path d="M698.856 128.752C698.856 128.909 698.82 129.024 698.747 129.096H698.422C696.865 129.096 695.78 128.698 695.164 127.902C695.104 127.817 695.056 127.745 695.02 127.684C694.983 127.624 694.953 127.558 694.929 127.485C694.905 127.413 694.881 127.335 694.857 127.25C694.833 127.166 694.82 127.075 694.82 126.979C694.82 126.882 694.814 126.749 694.802 126.581C694.79 126.412 694.784 126.249 694.784 126.092C694.784 125.935 694.784 125.712 694.784 125.422C694.784 125.133 694.784 124.849 694.784 124.572C694.784 124.319 694.784 123.999 694.784 123.613C694.772 122.539 694.742 121.936 694.694 121.803C694.682 121.791 694.676 121.779 694.676 121.767C694.507 121.333 694.205 120.995 693.771 120.754C693.337 120.512 692.908 120.392 692.486 120.392C692.353 120.392 692.269 120.374 692.233 120.337C692.197 120.301 692.178 120.205 692.178 120.048C692.178 119.891 692.197 119.795 692.233 119.758C692.269 119.722 692.353 119.704 692.486 119.704C692.896 119.704 693.318 119.583 693.753 119.342C694.187 119.101 694.495 118.763 694.676 118.329C694.736 118.196 694.766 118.003 694.766 117.75C694.766 117.496 694.772 116.58 694.784 114.999V114.094C694.784 113.431 694.82 112.966 694.893 112.701C694.965 112.436 695.14 112.182 695.418 111.941C695.731 111.627 696.214 111.374 696.865 111.181C697.312 111.084 697.631 111.03 697.824 111.018C697.849 111.018 697.927 111.018 698.06 111.018C698.192 111.018 698.301 111.012 698.385 111H698.747C698.82 111.072 698.856 111.181 698.856 111.326C698.856 111.483 698.838 111.579 698.802 111.615C698.777 111.651 698.681 111.669 698.512 111.669C697.873 111.706 697.372 111.85 697.01 112.104C696.648 112.357 696.431 112.61 696.359 112.864C696.298 113.021 696.268 113.913 696.268 115.542V117.026C696.268 117.593 696.25 117.979 696.214 118.184C696.178 118.389 696.075 118.624 695.906 118.89C695.532 119.409 695.007 119.764 694.332 119.957L694.079 120.048L694.332 120.138C694.549 120.211 694.766 120.301 694.983 120.41C695.2 120.518 695.454 120.724 695.743 121.025C696.033 121.327 696.202 121.683 696.25 122.093C696.262 122.165 696.268 122.986 696.268 124.554C696.268 126.182 696.298 127.075 696.359 127.232C696.479 127.558 696.739 127.829 697.137 128.046C697.535 128.264 697.993 128.39 698.512 128.426C698.681 128.426 698.777 128.444 698.802 128.481C698.838 128.517 698.856 128.607 698.856 128.752Z" fill="black"/>
<path d="M701.57 120.283C701.57 120.283 701.57 120.205 701.57 120.048C701.57 119.891 701.655 119.771 701.824 119.686H712.337C712.518 119.783 712.609 119.903 712.609 120.048C712.609 120.193 712.518 120.313 712.337 120.41H701.824C701.655 120.325 701.57 120.205 701.57 120.048V120.283Z" fill="black"/>
<path d="M717.983 114.112L717.748 114.203C717.579 114.263 717.338 114.324 717.024 114.384C716.711 114.444 716.361 114.486 715.975 114.511H715.631V113.678H715.975C716.542 113.654 717.066 113.563 717.549 113.407C718.032 113.25 718.369 113.105 718.562 112.972C718.755 112.84 718.924 112.707 719.069 112.574C719.093 112.538 719.166 112.52 719.286 112.52C719.395 112.52 719.497 112.556 719.594 112.629V118.039L719.612 123.468C719.696 123.552 719.769 123.607 719.829 123.631C719.889 123.655 720.034 123.679 720.263 123.703C720.493 123.727 720.867 123.739 721.385 123.739H721.856V124.572H721.657C721.403 124.536 720.444 124.518 718.78 124.518C717.139 124.518 716.192 124.536 715.938 124.572H715.721V123.739H716.192C716.457 123.739 716.686 123.739 716.879 123.739C717.072 123.739 717.223 123.733 717.332 123.721C717.44 123.709 717.537 123.691 717.621 123.667C717.706 123.643 717.754 123.631 717.766 123.631C717.778 123.631 717.814 123.601 717.875 123.54C717.935 123.48 717.971 123.456 717.983 123.468V114.112Z" fill="black"/>
<path d="M724.588 123.939C724.588 123.939 724.588 123.788 724.588 123.486C724.588 123.185 724.685 122.925 724.878 122.708C725.071 122.491 725.33 122.382 725.656 122.382C725.994 122.382 726.295 122.533 726.561 122.835C726.826 123.136 726.965 123.667 726.977 124.427C726.977 124.849 726.923 125.26 726.814 125.658C726.706 126.056 726.579 126.4 726.434 126.689C726.289 126.979 726.133 127.226 725.964 127.431C725.795 127.636 725.65 127.799 725.529 127.92C725.409 128.04 725.33 128.095 725.294 128.083C725.246 128.083 725.167 128.028 725.059 127.92C724.95 127.811 724.896 127.733 724.896 127.684C724.896 127.636 724.962 127.54 725.095 127.395C725.228 127.25 725.379 127.069 725.547 126.852C725.716 126.635 725.873 126.333 726.018 125.947C726.163 125.561 726.259 125.121 726.307 124.626V124.409L726.289 124.427C726.265 124.439 726.235 124.451 726.199 124.463C726.163 124.475 726.127 124.494 726.09 124.518C726.054 124.542 726 124.554 725.927 124.554C725.855 124.554 725.783 124.56 725.71 124.572C725.385 124.572 725.119 124.469 724.914 124.264L724.588 123.939Z" fill="black"/>
<path d="M732.236 120.283C732.236 120.283 732.236 120.205 732.236 120.048C732.236 119.891 732.32 119.77 732.489 119.686H737.9V116.972L737.918 114.257C738.039 114.1 738.153 114.022 738.262 114.022C738.419 114.022 738.539 114.112 738.624 114.293V119.686H744.016C744.197 119.783 744.288 119.903 744.288 120.048C744.288 120.193 744.197 120.313 744.016 120.41H738.624V125.802C738.527 125.971 738.419 126.056 738.298 126.056H738.262H738.225C738.081 126.056 737.972 125.971 737.9 125.802V120.41H732.489C732.32 120.325 732.236 120.205 732.236 120.048V120.283Z" fill="black"/>
<path d="M749.155 114.112L748.92 114.203C748.751 114.263 748.51 114.324 748.196 114.384C747.883 114.444 747.533 114.486 747.147 114.511H746.803V113.678H747.147C747.714 113.654 748.239 113.563 748.721 113.407C749.204 113.25 749.542 113.105 749.735 112.972C749.928 112.84 750.096 112.707 750.241 112.574C750.265 112.538 750.338 112.52 750.458 112.52C750.567 112.52 750.67 112.556 750.766 112.629V118.039L750.784 123.468C750.869 123.552 750.941 123.607 751.001 123.631C751.062 123.655 751.206 123.679 751.436 123.703C751.665 123.727 752.039 123.739 752.558 123.739H753.028V124.572H752.829C752.576 124.536 751.617 124.518 749.952 124.518C748.311 124.518 747.364 124.536 747.111 124.572H746.893V123.739H747.364C747.629 123.739 747.859 123.739 748.052 123.739C748.245 123.739 748.395 123.733 748.504 123.721C748.613 123.709 748.709 123.691 748.794 123.667C748.878 123.643 748.926 123.631 748.938 123.631C748.95 123.631 748.987 123.601 749.047 123.54C749.107 123.48 749.143 123.456 749.155 123.468V114.112Z" fill="black"/>
<path d="M755.525 111.344C755.525 111.175 755.543 111.078 755.58 111.054C755.616 111.03 755.736 111.012 755.942 111C756.943 111 757.715 111.151 758.258 111.452C758.801 111.754 759.181 112.086 759.398 112.448C759.506 112.701 759.567 112.912 759.579 113.081C759.591 113.25 759.603 114.058 759.615 115.506C759.627 117.183 759.639 118.051 759.651 118.112C759.808 118.655 760.122 119.053 760.592 119.306C761.063 119.559 761.497 119.692 761.895 119.704C762.028 119.704 762.112 119.722 762.148 119.758C762.185 119.795 762.203 119.891 762.203 120.048C762.203 120.205 762.185 120.301 762.148 120.337C762.112 120.374 762.028 120.392 761.895 120.392C761.449 120.392 761.014 120.518 760.592 120.772C760.17 121.025 759.886 121.345 759.742 121.731C759.681 121.9 759.645 122.117 759.633 122.382C759.621 122.648 759.615 123.547 759.615 125.079V126.002C759.615 126.665 759.579 127.13 759.506 127.395C759.434 127.66 759.259 127.914 758.982 128.155C758.33 128.782 757.323 129.096 755.96 129.096C755.742 129.096 755.616 129.078 755.58 129.042C755.543 129.005 755.525 128.903 755.525 128.734C755.525 128.662 755.525 128.619 755.525 128.607C755.525 128.595 755.531 128.565 755.543 128.517C755.555 128.469 755.574 128.444 755.598 128.444C755.622 128.444 755.67 128.438 755.742 128.426C755.911 128.426 756.098 128.408 756.303 128.372C756.509 128.336 756.738 128.276 756.991 128.191C757.244 128.107 757.468 127.968 757.661 127.775C757.854 127.582 757.998 127.353 758.095 127.087C758.107 127.027 758.119 126.17 758.131 124.518L758.149 122.057C758.306 121.369 758.728 120.82 759.416 120.41C759.838 120.205 760.14 120.084 760.321 120.048C760.019 119.963 759.718 119.843 759.416 119.686C758.752 119.276 758.342 118.781 758.185 118.202L758.149 118.021L758.131 115.56C758.119 113.907 758.107 113.051 758.095 112.991C757.95 112.508 757.63 112.17 757.136 111.977C756.641 111.784 756.177 111.682 755.742 111.669C755.634 111.669 755.574 111.651 755.561 111.615C755.549 111.579 755.537 111.489 755.525 111.344Z" fill="black"/>
<path d="M170 75.5L165 72.6132V78.3868L170 75.5ZM155 76H165.5V75H155V76Z" fill="#355FB3"/>
<path d="M170 105.5L165 102.613V108.387L170 105.5ZM155 106H165.5V105H155V106Z" fill="#B33535"/>
<path d="M170 135.5L165 132.613V138.387L170 135.5ZM155 136H165.5V135H155V136Z" fill="#3BB335"/>
<path d="M170 165.5L165 162.613V168.387L170 165.5ZM155 166H165.5V165H155V166Z" fill="#B39735"/>
<path d="M649 120L639 114.226V125.774L649 120ZM630 121H640V119H630V121Z" fill="black"/>
<path d="M389.774 45.5635C388.648 45.2399 387.828 44.8434 387.313 44.374C386.803 43.9001 386.547 43.3167 386.547 42.624C386.547 41.8402 386.86 41.193 387.484 40.6826C388.113 40.1676 388.929 39.9102 389.931 39.9102C390.615 39.9102 391.223 40.0423 391.756 40.3066C392.294 40.571 392.709 40.9355 393.001 41.4004C393.297 41.8652 393.445 42.3734 393.445 42.9248H392.126C392.126 42.3232 391.934 41.8516 391.551 41.5098C391.169 41.1634 390.628 40.9902 389.931 40.9902C389.284 40.9902 388.778 41.1338 388.414 41.4209C388.054 41.7035 387.874 42.0977 387.874 42.6035C387.874 43.0091 388.045 43.3532 388.386 43.6357C388.733 43.9137 389.318 44.1689 390.143 44.4014C390.973 44.6338 391.62 44.8913 392.085 45.1738C392.554 45.4518 392.9 45.7777 393.124 46.1514C393.351 46.5251 393.465 46.9648 393.465 47.4707C393.465 48.2773 393.151 48.9245 392.522 49.4121C391.893 49.8952 391.052 50.1367 390 50.1367C389.316 50.1367 388.678 50.0068 388.086 49.7471C387.493 49.4827 387.035 49.1227 386.711 48.667C386.392 48.2113 386.233 47.694 386.233 47.1152H387.552C387.552 47.7168 387.773 48.193 388.215 48.5439C388.662 48.8903 389.257 49.0635 390 49.0635C390.692 49.0635 391.223 48.9222 391.592 48.6396C391.961 48.3571 392.146 47.972 392.146 47.4844C392.146 46.9967 391.975 46.6208 391.633 46.3564C391.292 46.0876 390.672 45.8232 389.774 45.5635ZM398.449 48.2568L401.293 40.0469H402.728L399.037 50H397.875L394.19 40.0469H395.619L398.449 48.2568ZM405.763 40.0469L409.017 48.168L412.271 40.0469H413.973L413.973 50H412.661L412.661 46.124L412.784 41.9404L409.516 50H408.511L405.251 41.9609L405.38 46.124L405.38 50H404.068L404.068 40.0469H405.763Z" fill="black"/>
<path d="M56.7256 14V3.33594H59.7358C60.6636 3.33594 61.4839 3.54102 62.1968 3.95117C62.9097 4.36133 63.459 4.94482 63.8447 5.70166C64.2354 6.4585 64.4331 7.32764 64.438 8.30908V8.99023C64.438 9.99609 64.2427 10.8774 63.8521 11.6343C63.4663 12.3911 62.9121 12.9722 62.1895 13.3774C61.4717 13.7827 60.6343 13.9902 59.6772 14H56.7256ZM58.1318 4.49316V12.8501H59.6113C60.6953 12.8501 61.5376 12.5132 62.1382 11.8394C62.7437 11.1655 63.0464 10.2061 63.0464 8.96094V8.33838C63.0464 7.12744 62.7607 6.1875 62.1895 5.51855C61.623 4.84473 60.8174 4.50293 59.7725 4.49316H58.1318ZM69.6455 14.1465C68.5713 14.1465 67.6973 13.7949 67.0234 13.0918C66.3496 12.3838 66.0127 11.439 66.0127 10.2573V10.0083C66.0127 9.22217 66.1616 8.52148 66.4595 7.90625C66.7622 7.28613 67.1821 6.80273 67.7192 6.45605C68.2612 6.10449 68.8472 5.92871 69.4771 5.92871C70.5073 5.92871 71.3081 6.26807 71.8794 6.94678C72.4507 7.62549 72.7363 8.59717 72.7363 9.86182V10.4258H67.3677C67.3872 11.207 67.6143 11.8394 68.0488 12.3228C68.4883 12.8013 69.0449 13.0405 69.7188 13.0405C70.1973 13.0405 70.6025 12.9429 70.9346 12.7476C71.2666 12.5522 71.5571 12.2935 71.8062 11.9712L72.6338 12.6157C71.9697 13.6362 70.9736 14.1465 69.6455 14.1465ZM69.4771 7.04199C68.9302 7.04199 68.4712 7.24219 68.1001 7.64258C67.729 8.03809 67.4995 8.59473 67.4116 9.3125H71.3813V9.20996C71.3423 8.52148 71.1567 7.98926 70.8247 7.61328C70.4927 7.23242 70.0435 7.04199 69.4771 7.04199ZM77.4897 13.0405C77.9731 13.0405 78.3955 12.894 78.7568 12.6011C79.1182 12.3081 79.3184 11.9419 79.3574 11.5024H80.6392C80.6147 11.9565 80.4585 12.3887 80.1704 12.7988C79.8823 13.209 79.4966 13.5361 79.0132 13.7803C78.5347 14.0244 78.0269 14.1465 77.4897 14.1465C76.4106 14.1465 75.5513 13.7876 74.9116 13.0698C74.2769 12.3472 73.9595 11.3608 73.9595 10.1108V9.88379C73.9595 9.1123 74.1011 8.42627 74.3843 7.82568C74.6675 7.2251 75.0728 6.75879 75.6001 6.42676C76.1323 6.09473 76.7598 5.92871 77.4824 5.92871C78.3711 5.92871 79.1084 6.19482 79.6943 6.72705C80.2852 7.25928 80.6001 7.9502 80.6392 8.7998H79.3574C79.3184 8.28711 79.123 7.86719 78.7715 7.54004C78.4248 7.20801 77.9951 7.04199 77.4824 7.04199C76.7939 7.04199 76.2593 7.29102 75.8784 7.78906C75.5024 8.28223 75.3145 8.99756 75.3145 9.93506V10.1914C75.3145 11.1045 75.5024 11.8076 75.8784 12.3008C76.2544 12.7939 76.7915 13.0405 77.4897 13.0405ZM81.8037 9.96436C81.8037 9.18799 81.9551 8.48975 82.2578 7.86963C82.5654 7.24951 82.9902 6.771 83.5322 6.43408C84.0791 6.09717 84.7017 5.92871 85.3999 5.92871C86.479 5.92871 87.3506 6.30225 88.0146 7.04932C88.6836 7.79639 89.0181 8.79004 89.0181 10.0303V10.1255C89.0181 10.897 88.8691 11.5903 88.5713 12.2056C88.2783 12.8159 87.856 13.292 87.3042 13.6338C86.7573 13.9756 86.1274 14.1465 85.4146 14.1465C84.3403 14.1465 83.4688 13.7729 82.7998 13.0259C82.1357 12.2788 81.8037 11.29 81.8037 10.0596V9.96436ZM83.166 10.1255C83.166 11.0044 83.3687 11.71 83.7739 12.2422C84.1841 12.7744 84.731 13.0405 85.4146 13.0405C86.103 13.0405 86.6499 12.772 87.0552 12.2349C87.4604 11.6929 87.6631 10.936 87.6631 9.96436C87.6631 9.09521 87.4556 8.39209 87.0405 7.85498C86.6304 7.31299 86.0835 7.04199 85.3999 7.04199C84.731 7.04199 84.1914 7.30811 83.7812 7.84033C83.3711 8.37256 83.166 9.13428 83.166 10.1255ZM91.9917 6.0752L92.0283 6.9541C92.6094 6.27051 93.3931 5.92871 94.3794 5.92871C95.4878 5.92871 96.2422 6.35352 96.6426 7.20312C96.9062 6.82227 97.248 6.51465 97.668 6.28027C98.0928 6.0459 98.5933 5.92871 99.1694 5.92871C100.908 5.92871 101.792 6.84912 101.821 8.68994V14H100.466V8.77051C100.466 8.2041 100.336 7.78174 100.078 7.50342C99.8188 7.22021 99.3843 7.07861 98.7739 7.07861C98.271 7.07861 97.8535 7.22998 97.5215 7.53271C97.1895 7.83057 96.9966 8.2334 96.9429 8.74121V14H95.5806V8.80713C95.5806 7.65479 95.0166 7.07861 93.8887 7.07861C93 7.07861 92.3921 7.45703 92.0649 8.21387V14H90.71V6.0752H91.9917ZM110.566 10.1255C110.566 11.3315 110.29 12.3032 109.738 13.0405C109.187 13.7778 108.439 14.1465 107.497 14.1465C106.535 14.1465 105.778 13.8413 105.227 13.231V17.0469H103.872V6.0752H105.109L105.175 6.9541C105.727 6.27051 106.494 5.92871 107.475 5.92871C108.427 5.92871 109.179 6.2876 109.731 7.00537C110.288 7.72314 110.566 8.72168 110.566 10.001V10.1255ZM109.211 9.97168C109.211 9.07812 109.021 8.37256 108.64 7.85498C108.259 7.3374 107.736 7.07861 107.072 7.07861C106.252 7.07861 105.637 7.44238 105.227 8.16992V11.9565C105.632 12.6792 106.252 13.0405 107.087 13.0405C107.736 13.0405 108.251 12.7842 108.632 12.2715C109.018 11.7539 109.211 10.9873 109.211 9.97168ZM111.936 9.96436C111.936 9.18799 112.087 8.48975 112.39 7.86963C112.697 7.24951 113.122 6.771 113.664 6.43408C114.211 6.09717 114.833 5.92871 115.532 5.92871C116.611 5.92871 117.482 6.30225 118.146 7.04932C118.815 7.79639 119.15 8.79004 119.15 10.0303V10.1255C119.15 10.897 119.001 11.5903 118.703 12.2056C118.41 12.8159 117.988 13.292 117.436 13.6338C116.889 13.9756 116.259 14.1465 115.546 14.1465C114.472 14.1465 113.601 13.7729 112.932 13.0259C112.268 12.2788 111.936 11.29 111.936 10.0596V9.96436ZM113.298 10.1255C113.298 11.0044 113.5 11.71 113.906 12.2422C114.316 12.7744 114.863 13.0405 115.546 13.0405C116.235 13.0405 116.782 12.772 117.187 12.2349C117.592 11.6929 117.795 10.936 117.795 9.96436C117.795 9.09521 117.587 8.39209 117.172 7.85498C116.762 7.31299 116.215 7.04199 115.532 7.04199C114.863 7.04199 114.323 7.30811 113.913 7.84033C113.503 8.37256 113.298 9.13428 113.298 10.1255ZM125.463 11.8979C125.463 11.5317 125.324 11.2485 125.046 11.0483C124.772 10.8433 124.292 10.6675 123.603 10.521C122.919 10.3745 122.375 10.1987 121.97 9.99365C121.569 9.78857 121.271 9.54443 121.076 9.26123C120.886 8.97803 120.791 8.64111 120.791 8.25049C120.791 7.60107 121.064 7.05176 121.611 6.60254C122.163 6.15332 122.866 5.92871 123.72 5.92871C124.619 5.92871 125.346 6.16064 125.903 6.62451C126.464 7.08838 126.745 7.68164 126.745 8.4043H125.383C125.383 8.0332 125.224 7.71338 124.907 7.44482C124.594 7.17627 124.199 7.04199 123.72 7.04199C123.227 7.04199 122.841 7.14941 122.563 7.36426C122.285 7.5791 122.146 7.85986 122.146 8.20654C122.146 8.53369 122.275 8.78027 122.534 8.94629C122.792 9.1123 123.259 9.271 123.933 9.42236C124.611 9.57373 125.161 9.75439 125.581 9.96436C126 10.1743 126.311 10.4282 126.511 10.7261C126.716 11.019 126.818 11.3779 126.818 11.8027C126.818 12.5107 126.535 13.0796 125.969 13.5093C125.402 13.9341 124.667 14.1465 123.764 14.1465C123.129 14.1465 122.568 14.0342 122.08 13.8096C121.591 13.585 121.208 13.2725 120.93 12.8721C120.656 12.4668 120.52 12.0298 120.52 11.561H121.875C121.899 12.0151 122.08 12.3765 122.417 12.645C122.758 12.9087 123.208 13.0405 123.764 13.0405C124.277 13.0405 124.687 12.938 124.995 12.7329C125.307 12.5229 125.463 12.2446 125.463 11.8979ZM131.872 14.1465C130.798 14.1465 129.924 13.7949 129.25 13.0918C128.576 12.3838 128.239 11.439 128.239 10.2573V10.0083C128.239 9.22217 128.388 8.52148 128.686 7.90625C128.989 7.28613 129.409 6.80273 129.946 6.45605C130.488 6.10449 131.074 5.92871 131.704 5.92871C132.734 5.92871 133.535 6.26807 134.106 6.94678C134.677 7.62549 134.963 8.59717 134.963 9.86182V10.4258H129.594C129.614 11.207 129.841 11.8394 130.275 12.3228C130.715 12.8013 131.271 13.0405 131.945 13.0405C132.424 13.0405 132.829 12.9429 133.161 12.7476C133.493 12.5522 133.784 12.2935 134.033 11.9712L134.86 12.6157C134.196 13.6362 133.2 14.1465 131.872 14.1465ZM131.704 7.04199C131.157 7.04199 130.698 7.24219 130.327 7.64258C129.956 8.03809 129.726 8.59473 129.638 9.3125H133.608V9.20996C133.569 8.52148 133.383 7.98926 133.051 7.61328C132.719 7.23242 132.27 7.04199 131.704 7.04199Z" fill="black"/>
<path d="M98.779 99.4214C98.779 99.4039 98.8493 99.1756 98.8493 99.158C98.8493 99 98.7088 99 98.6561 99C98.4981 99 98.4805 99.0878 98.4103 99.3512L95.5129 110.976C94.0554 110.8 93.5111 110.063 93.5111 109.009C93.5111 108.623 93.5111 108.219 94.3364 106.042C94.5647 105.409 94.6524 105.181 94.6524 104.865C94.6524 104.075 94.0905 103.443 93.2652 103.443C91.6497 103.443 91 105.989 91 106.129C91 106.2 91.0702 106.287 91.1932 106.287C91.3512 106.287 91.3688 106.217 91.439 105.971C91.8604 104.444 92.5628 103.794 93.2125 103.794C93.3706 103.794 93.6691 103.811 93.6691 104.373C93.6691 104.444 93.6691 104.83 93.3706 105.603C92.4224 108.096 92.4224 108.482 92.4224 108.886C92.4224 110.572 93.8271 111.222 95.4075 111.345C95.2671 111.889 95.1441 112.451 95.0037 112.995C94.7227 114.049 94.5998 114.541 94.5998 114.611C94.5998 114.769 94.7403 114.769 94.7929 114.769C94.8281 114.769 94.8983 114.769 94.9334 114.699C95.0037 114.628 95.7236 111.678 95.7938 111.362C96.4436 111.362 97.8308 111.362 99.4112 109.729C99.9907 109.097 100.517 108.289 100.816 107.534C100.992 107.078 101.413 105.515 101.413 104.619C101.413 103.566 100.886 103.443 100.711 103.443C100.289 103.443 99.9029 103.864 99.9029 104.215C99.9029 104.426 100.026 104.549 100.096 104.619C100.254 104.777 100.728 105.251 100.728 106.164C100.728 106.797 100.377 108.096 99.2531 109.36C97.7781 111.011 96.426 111.011 95.8992 111.011L98.779 99.4214Z" fill="black"/>
<line x1="96.5" y1="21" x2="96.5" y2="95" stroke="black" stroke-dasharray="2 2"/>
</svg>
