<svg width="770" height="250" viewBox="0 0 770 250" fill="none" xmlns="http://www.w3.org/2000/svg">
<rect width="770" height="250" fill="white"/>
<rect x="170.25" y="0.25" width="459.5" height="249.5" rx="1.75" stroke="black" stroke-width="0.5" stroke-dasharray="5 2"/>
<path d="M130 90L120 84.2265V95.7735L130 90ZM70 91H121V89H70V91Z" fill="black"/>
<path d="M37 90L37 132M37 90L64 48L10 48L37 90Z" stroke="black" stroke-width="2"/>
<path d="M10 58C15.5228 58 20 53.5228 20 48C20 42.4772 15.5228 38 10 38C4.47715 38 0 42.4772 0 48C0 53.5228 4.47715 58 10 58Z" fill="black"/>
<path d="M64 58C69.5228 58 74 53.5228 74 48C74 42.4772 69.5228 38 64 38C58.4772 38 54 42.4772 54 48C54 53.5228 58.4772 58 64 58Z" fill="black"/>
<path d="M37 100C42.5228 100 47 95.5228 47 90C47 84.4772 42.5228 80 37 80C31.4772 80 27 84.4772 27 90C27 95.5228 31.4772 100 37 100Z" fill="black"/>
<path d="M37 142C42.5228 142 47 137.523 47 132C47 126.477 42.5228 122 37 122C31.4772 122 27 126.477 27 132C27 137.523 31.4772 142 37 142Z" fill="black"/>
<path d="M149.854 51.251C149.637 51.2148 148.858 51.1967 147.519 51.1967C146.12 51.1967 145.312 51.2148 145.094 51.251H144.932V50.4186H145.493C145.734 50.4186 145.897 50.4186 145.981 50.4186C146.066 50.4186 146.168 50.4065 146.289 50.3824C146.409 50.3582 146.494 50.3281 146.542 50.2919C146.59 50.2557 146.633 50.2074 146.669 50.1471C146.681 50.123 146.687 49.7973 146.687 49.1699V48.2651H142V47.4327L144.732 43.2525C146.578 40.4537 147.513 39.0482 147.537 39.0362C147.562 39.012 147.688 39 147.917 39H148.243L148.352 39.1086V47.4327H150.017V48.2651H148.352V49.188C148.352 49.6827 148.352 49.9722 148.352 50.0566C148.352 50.1411 148.388 50.2135 148.46 50.2738C148.557 50.3582 148.901 50.4065 149.492 50.4186H150.017V51.251H149.854ZM146.795 47.4327V41.3887L142.832 47.4146L144.805 47.4327H146.795Z" fill="#355FB3"/>
<path d="M143.068 73.2887C142.742 73.2887 142.483 73.1801 142.29 72.963C142.097 72.7458 142 72.4804 142 72.1667C142 71.3102 142.32 70.5683 142.959 69.9409C143.598 69.3136 144.395 68.9999 145.348 68.9999C146.446 68.9999 147.362 69.3377 148.098 70.0133C148.834 70.6889 149.208 71.5635 149.22 72.6372C149.22 73.156 149.1 73.6506 148.858 74.1211C148.617 74.5916 148.328 75.0018 147.99 75.3516C147.652 75.7015 147.169 76.1479 146.542 76.6907C146.108 77.0647 145.505 77.6197 144.732 78.3556L143.665 79.369L145.04 79.387C146.934 79.387 147.942 79.3569 148.062 79.2966C148.147 79.2724 148.291 78.7356 148.496 77.686V77.6317H149.22V77.686C149.208 77.7222 149.13 78.2711 148.985 79.3328C148.84 80.3944 148.75 80.9493 148.714 80.9976V81.0519H142V80.7081V80.4909C142 80.4065 142.036 80.316 142.109 80.2195C142.181 80.123 142.362 79.9118 142.651 79.5861C143.001 79.2001 143.303 78.8623 143.556 78.5727C143.665 78.4521 143.87 78.2289 144.172 77.9032C144.473 77.5774 144.678 77.3543 144.787 77.2336C144.895 77.113 145.07 76.9139 145.312 76.6365C145.553 76.359 145.722 76.1539 145.818 76.0212C145.915 75.8885 146.054 75.7075 146.234 75.4783C146.415 75.2491 146.542 75.0561 146.614 74.8992C146.687 74.7424 146.777 74.5675 146.886 74.3745C146.994 74.1814 147.073 73.9884 147.121 73.7954C147.169 73.6024 147.212 73.4214 147.248 73.2525C147.284 73.0836 147.302 72.8846 147.302 72.6553C147.302 71.8953 147.097 71.2378 146.687 70.6829C146.277 70.1279 145.692 69.8505 144.932 69.8505C144.533 69.8505 144.184 69.953 143.882 70.1581C143.58 70.3632 143.369 70.5622 143.249 70.7553C143.128 70.9483 143.068 71.0629 143.068 71.0991C143.068 71.1111 143.098 71.1172 143.158 71.1172C143.375 71.1172 143.598 71.2016 143.828 71.3705C144.057 71.5394 144.172 71.8169 144.172 72.2029C144.172 72.5045 144.075 72.7579 143.882 72.963C143.689 73.1681 143.418 73.2766 143.068 73.2887Z" fill="#B33535"/>
<path d="M145.352 100.593L145.117 100.683C144.948 100.743 144.707 100.804 144.393 100.864C144.08 100.924 143.73 100.966 143.344 100.991H143V100.158H143.344C143.911 100.134 144.436 100.044 144.918 99.8868C145.401 99.7299 145.739 99.5852 145.932 99.4525C146.125 99.3198 146.293 99.1871 146.438 99.0544C146.462 99.0182 146.535 99.0001 146.655 99.0001C146.764 99.0001 146.867 99.0363 146.963 99.1086V104.519L146.981 109.948C147.066 110.033 147.138 110.087 147.198 110.111C147.259 110.135 147.403 110.159 147.633 110.183C147.862 110.208 148.236 110.22 148.755 110.22H149.225V111.052H149.026C148.773 111.016 147.814 110.998 146.149 110.998C144.508 110.998 143.561 111.016 143.308 111.052H143.09V110.22H143.561C143.826 110.22 144.056 110.22 144.249 110.22C144.442 110.22 144.592 110.214 144.701 110.201C144.81 110.189 144.906 110.171 144.991 110.147C145.075 110.123 145.123 110.111 145.135 110.111C145.147 110.111 145.184 110.081 145.244 110.021C145.304 109.96 145.34 109.936 145.352 109.948V100.593Z" fill="#3BB335"/>
<path d="M145.352 130.593L145.117 130.683C144.948 130.743 144.707 130.804 144.393 130.864C144.08 130.924 143.73 130.966 143.344 130.991H143V130.158H143.344C143.911 130.134 144.436 130.044 144.918 129.887C145.401 129.73 145.739 129.585 145.932 129.452C146.125 129.32 146.293 129.187 146.438 129.054C146.462 129.018 146.535 129 146.655 129C146.764 129 146.867 129.036 146.963 129.109V134.519L146.981 139.948C147.066 140.033 147.138 140.087 147.198 140.111C147.259 140.135 147.403 140.159 147.633 140.183C147.862 140.208 148.236 140.22 148.755 140.22H149.225V141.052H149.026C148.773 141.016 147.814 140.998 146.149 140.998C144.508 140.998 143.561 141.016 143.308 141.052H143.09V140.22H143.561C143.826 140.22 144.056 140.22 144.249 140.22C144.442 140.22 144.592 140.214 144.701 140.201C144.81 140.189 144.906 140.171 144.991 140.147C145.075 140.123 145.123 140.111 145.135 140.111C145.147 140.111 145.184 140.081 145.244 140.021C145.304 139.96 145.34 139.936 145.352 139.948V130.593Z" fill="#66571E"/>
<path d="M660.391 89.3784C660.391 89.2095 660.481 88.92 660.662 88.5098C660.843 88.0996 661.133 87.6713 661.531 87.225C661.929 86.7786 662.376 86.5614 662.87 86.5735C663.365 86.5735 663.763 86.7122 664.064 86.9897C664.366 87.2672 664.523 87.6532 664.535 88.1479C664.511 88.3771 664.493 88.5037 664.481 88.5279C664.481 88.5641 664.384 88.8415 664.191 89.3603C663.998 89.879 663.799 90.4641 663.594 91.1156C663.389 91.7671 663.292 92.2858 663.304 92.6719C663.304 93.1906 663.389 93.5525 663.558 93.7576C663.727 93.9627 663.98 94.0713 664.318 94.0833C664.595 94.0833 664.855 94.017 665.096 93.8843C665.337 93.7516 665.524 93.6128 665.657 93.4681C665.79 93.3233 665.952 93.1243 666.146 92.8709C666.146 92.8588 666.176 92.7382 666.236 92.509C666.296 92.2798 666.381 91.9239 666.489 91.4413C666.598 90.9588 666.713 90.5124 666.833 90.1022C667.292 88.2926 667.545 87.3456 667.593 87.2612C667.75 86.9354 668.009 86.7726 668.371 86.7726C668.528 86.7726 668.655 86.8148 668.751 86.8992C668.848 86.9837 668.914 87.0561 668.95 87.1164C668.987 87.1767 668.999 87.231 668.987 87.2792C668.987 87.4361 668.691 88.7028 668.1 91.0794C667.509 93.456 667.171 94.7589 667.087 94.9881C666.749 95.9895 666.164 96.7857 665.331 97.3768C664.499 97.968 663.666 98.2696 662.834 98.2816C662.291 98.2816 661.815 98.1489 661.404 97.8835C660.994 97.6181 660.789 97.22 660.789 96.6892C660.789 96.4238 660.831 96.2006 660.916 96.0196C661 95.8387 661.115 95.706 661.26 95.6215C661.404 95.5371 661.525 95.4767 661.622 95.4405C661.718 95.4044 661.821 95.3863 661.929 95.3863C662.46 95.3863 662.725 95.6396 662.725 96.1463C662.725 96.3876 662.653 96.5987 662.508 96.7796C662.363 96.9606 662.225 97.0812 662.092 97.1416C661.959 97.2019 661.881 97.232 661.857 97.232L661.802 97.2501C661.827 97.3105 661.941 97.3828 662.146 97.4673C662.351 97.5517 662.556 97.594 662.762 97.594H662.906C663.111 97.594 663.268 97.5819 663.377 97.5578C663.775 97.4492 664.143 97.22 664.481 96.8701C664.818 96.5203 665.078 96.1463 665.259 95.7482C665.44 95.3501 665.579 95.0123 665.675 94.7348C665.772 94.4573 665.82 94.2764 665.82 94.1919L665.711 94.2643C665.639 94.3126 665.524 94.3789 665.367 94.4634C665.211 94.5478 665.054 94.6202 664.897 94.6805C664.656 94.7408 664.42 94.771 664.191 94.771C663.636 94.771 663.148 94.6383 662.725 94.3729C662.303 94.1075 662.026 93.6792 661.893 93.0881C661.881 93.0036 661.875 92.8166 661.875 92.5271C661.875 91.8394 662.086 90.9407 662.508 89.8308C662.93 88.7209 663.142 88.0152 663.142 87.7136C663.142 87.7015 663.142 87.6894 663.142 87.6774C663.142 87.5688 663.142 87.4964 663.142 87.4602C663.142 87.424 663.117 87.3818 663.069 87.3335C663.021 87.2853 662.955 87.2612 662.87 87.2612H662.798C662.52 87.2612 662.267 87.3758 662.038 87.605C661.809 87.8342 661.628 88.0815 661.495 88.3469C661.362 88.6123 661.26 88.8657 661.187 89.1069C661.115 89.3482 661.067 89.4809 661.042 89.5051C661.018 89.5292 660.922 89.5412 660.753 89.5412H660.5C660.427 89.4689 660.391 89.4146 660.391 89.3784Z" fill="black"/>
<path d="M675.425 90.0479C675.425 88.5761 675.92 87.3697 676.909 86.4287C677.898 85.4877 679.068 84.9509 680.42 84.8182C680.432 84.8182 680.534 84.8182 680.727 84.8182C680.92 84.8182 681.174 84.8121 681.487 84.8001C681.801 84.788 682.103 84.788 682.392 84.8001H684.184C684.365 84.8966 684.455 85.0172 684.455 85.162C684.455 85.2706 684.377 85.3852 684.22 85.5058L682.338 85.5239C680.999 85.536 680.172 85.5722 679.859 85.6325C679.268 85.7773 678.743 85.9944 678.284 86.2839C677.826 86.5735 677.47 86.869 677.217 87.1706C676.963 87.4722 676.746 87.804 676.565 88.1659C676.384 88.5278 676.276 88.8174 676.239 89.0345C676.203 89.2517 676.173 89.4568 676.149 89.6498V89.686H684.184C684.365 89.7825 684.455 89.9031 684.455 90.0479C684.455 90.1927 684.365 90.3133 684.184 90.4098H676.149V90.446C676.149 90.6994 676.209 91.007 676.33 91.3689C676.451 91.7308 676.65 92.1229 676.927 92.5452C677.205 92.9674 677.591 93.3534 678.085 93.7033C678.58 94.0532 679.165 94.3005 679.841 94.4452C680.166 94.5176 680.999 94.5598 682.338 94.5719H684.22C684.377 94.6925 684.455 94.8132 684.455 94.9338C684.455 95.0786 684.365 95.1992 684.184 95.2957H682.428C682.344 95.2957 682.193 95.2957 681.976 95.2957C681.759 95.2957 681.584 95.3018 681.451 95.3138C679.581 95.3138 678.103 94.7951 677.018 93.7576C675.956 92.7683 675.425 91.5318 675.425 90.0479Z" fill="black"/>
<path d="M698.856 98.7521C698.856 98.909 698.82 99.0236 698.747 99.0959H698.422C696.865 99.0959 695.78 98.6978 695.164 97.9016C695.104 97.8172 695.056 97.7448 695.02 97.6845C694.983 97.6241 694.953 97.5578 694.929 97.4854C694.905 97.413 694.881 97.3346 694.857 97.2502C694.833 97.1657 694.82 97.0752 694.82 96.9787C694.82 96.8822 694.814 96.7495 694.802 96.5806C694.79 96.4117 694.784 96.2488 694.784 96.092C694.784 95.9352 694.784 95.712 694.784 95.4225C694.784 95.1329 694.784 94.8494 694.784 94.5719C694.784 94.3186 694.784 93.9989 694.784 93.6129C694.772 92.5392 694.742 91.936 694.694 91.8033C694.682 91.7912 694.676 91.7791 694.676 91.7671C694.507 91.3328 694.205 90.995 693.771 90.7537C693.337 90.5124 692.908 90.3918 692.486 90.3918C692.353 90.3918 692.269 90.3737 692.233 90.3375C692.197 90.3013 692.178 90.2048 692.178 90.0479C692.178 89.8911 692.197 89.7946 692.233 89.7584C692.269 89.7222 692.353 89.7041 692.486 89.7041C692.896 89.7041 693.318 89.5835 693.753 89.3422C694.187 89.1009 694.495 88.7631 694.676 88.3288C694.736 88.1961 694.766 88.0031 694.766 87.7498C694.766 87.4964 694.772 86.5795 694.784 84.9992V84.0944C694.784 83.4308 694.82 82.9664 694.893 82.701C694.965 82.4356 695.14 82.1822 695.418 81.9409C695.731 81.6273 696.214 81.3739 696.865 81.1809C697.312 81.0844 697.631 81.0301 697.824 81.018C697.849 81.018 697.927 81.018 698.06 81.018C698.192 81.018 698.301 81.012 698.385 80.9999H698.747C698.82 81.0723 698.856 81.1809 698.856 81.3257C698.856 81.4825 698.838 81.579 698.802 81.6152C698.777 81.6514 698.681 81.6695 698.512 81.6695C697.873 81.7057 697.372 81.8505 697.01 82.1038C696.648 82.3571 696.431 82.6105 696.359 82.8638C696.298 83.0207 696.268 83.9134 696.268 85.542V87.0259C696.268 87.5929 696.25 87.979 696.214 88.1841C696.178 88.3891 696.075 88.6244 695.906 88.8898C695.532 89.4086 695.007 89.7644 694.332 89.9575L694.079 90.0479L694.332 90.1384C694.549 90.2108 694.766 90.3013 694.983 90.4099C695.2 90.5184 695.454 90.7235 695.743 91.0251C696.033 91.3267 696.202 91.6826 696.25 92.0928C696.262 92.1652 696.268 92.9855 696.268 94.5539C696.268 96.1825 696.298 97.0752 696.359 97.2321C696.479 97.5578 696.739 97.8292 697.137 98.0464C697.535 98.2635 697.993 98.3902 698.512 98.4264C698.681 98.4264 698.777 98.4445 698.802 98.4807C698.838 98.5169 698.856 98.6074 698.856 98.7521Z" fill="black"/>
<path d="M701.57 90.2832C701.57 90.2832 701.57 90.2048 701.57 90.048C701.57 89.8912 701.655 89.7705 701.824 89.6861H712.337C712.518 89.7826 712.609 89.9032 712.609 90.048C712.609 90.1928 712.518 90.3134 712.337 90.4099H701.824C701.655 90.3255 701.57 90.2048 701.57 90.048V90.2832Z" fill="black"/>
<path d="M717.983 84.1124L717.748 84.2029C717.579 84.2632 717.338 84.3235 717.024 84.3839C716.711 84.4442 716.361 84.4864 715.975 84.5105H715.631V83.6781H715.975C716.542 83.654 717.066 83.5635 717.549 83.4067C718.032 83.2498 718.369 83.1051 718.562 82.9724C718.755 82.8397 718.924 82.707 719.069 82.5743C719.093 82.5381 719.166 82.52 719.286 82.52C719.395 82.52 719.497 82.5562 719.594 82.6285V88.0392L719.612 93.468C719.696 93.5525 719.769 93.6068 719.829 93.6309C719.889 93.655 720.034 93.6792 720.263 93.7033C720.493 93.7274 720.867 93.7395 721.385 93.7395H721.856V94.5719H721.657C721.403 94.5357 720.444 94.5176 718.78 94.5176C717.139 94.5176 716.192 94.5357 715.938 94.5719H715.721V93.7395H716.192C716.457 93.7395 716.686 93.7395 716.879 93.7395C717.072 93.7395 717.223 93.7335 717.332 93.7214C717.44 93.7093 717.537 93.6912 717.621 93.6671C717.706 93.643 717.754 93.6309 717.766 93.6309C717.778 93.6309 717.814 93.6007 717.875 93.5404C717.935 93.4801 717.971 93.456 717.983 93.468V84.1124Z" fill="black"/>
<path d="M724.588 93.9386C724.588 93.9386 724.588 93.7878 724.588 93.4862C724.588 93.1846 724.685 92.9252 724.878 92.7081C725.071 92.4909 725.33 92.3823 725.656 92.3823C725.994 92.3823 726.295 92.5331 726.561 92.8347C726.826 93.1363 726.965 93.6672 726.977 94.4272C726.977 94.8494 726.923 95.2596 726.814 95.6577C726.706 96.0558 726.579 96.3997 726.434 96.6892C726.289 96.9787 726.133 97.226 725.964 97.4311C725.795 97.6362 725.65 97.7991 725.529 97.9197C725.409 98.0404 725.33 98.0946 725.294 98.0826C725.246 98.0826 725.167 98.0283 725.059 97.9197C724.95 97.8111 724.896 97.7327 724.896 97.6845C724.896 97.6362 724.962 97.5397 725.095 97.3949C725.228 97.2502 725.379 97.0692 725.547 96.8521C725.716 96.6349 725.873 96.3333 726.018 95.9473C726.163 95.5612 726.259 95.1209 726.307 94.6262V94.4091L726.289 94.4272C726.265 94.4393 726.235 94.4513 726.199 94.4634C726.163 94.4754 726.127 94.4935 726.09 94.5177C726.054 94.5418 726 94.5539 725.927 94.5539C725.855 94.5539 725.783 94.5599 725.71 94.572C725.385 94.572 725.119 94.4694 724.914 94.2643L724.588 93.9386Z" fill="black"/>
<path d="M732.236 90.2832C732.236 90.2832 732.236 90.2047 732.236 90.0479C732.236 89.8911 732.32 89.7704 732.489 89.686H737.9V86.9716L737.918 84.2572C738.039 84.1004 738.153 84.0219 738.262 84.0219C738.419 84.0219 738.539 84.1124 738.624 84.2934V89.686H744.016C744.197 89.7825 744.288 89.9031 744.288 90.0479C744.288 90.1927 744.197 90.3133 744.016 90.4098H738.624V95.8024C738.527 95.9713 738.419 96.0558 738.298 96.0558H738.262H738.225C738.081 96.0558 737.972 95.9713 737.9 95.8024V90.4098H732.489C732.32 90.3254 732.236 90.2047 732.236 90.0479V90.2832Z" fill="black"/>
<path d="M749.156 84.1124L748.92 84.2029C748.751 84.2632 748.51 84.3235 748.196 84.3839C747.883 84.4442 747.533 84.4864 747.147 84.5105H746.803V83.6781H747.147C747.714 83.654 748.239 83.5635 748.721 83.4067C749.204 83.2498 749.542 83.1051 749.735 82.9724C749.928 82.8397 750.097 82.707 750.241 82.5743C750.265 82.5381 750.338 82.52 750.458 82.52C750.567 82.52 750.67 82.5562 750.766 82.6285V88.0392L750.784 93.468C750.869 93.5525 750.941 93.6068 751.001 93.6309C751.062 93.655 751.206 93.6792 751.436 93.7033C751.665 93.7274 752.039 93.7395 752.558 93.7395H753.028V94.5719H752.829C752.576 94.5357 751.617 94.5176 749.952 94.5176C748.311 94.5176 747.364 94.5357 747.111 94.5719H746.894V93.7395H747.364C747.629 93.7395 747.859 93.7395 748.052 93.7395C748.245 93.7395 748.395 93.7335 748.504 93.7214C748.613 93.7093 748.709 93.6912 748.794 93.6671C748.878 93.643 748.926 93.6309 748.938 93.6309C748.95 93.6309 748.987 93.6007 749.047 93.5404C749.107 93.4801 749.143 93.456 749.156 93.468V84.1124Z" fill="black"/>
<path d="M755.525 81.3438C755.525 81.1749 755.543 81.0784 755.58 81.0542C755.616 81.0301 755.736 81.012 755.941 80.9999C756.943 80.9999 757.715 81.1507 758.258 81.4523C758.801 81.7539 759.181 82.0857 759.398 82.4476C759.506 82.701 759.567 82.9121 759.579 83.081C759.591 83.2499 759.603 84.0582 759.615 85.5059C759.627 87.1827 759.639 88.0514 759.651 88.1117C759.808 88.6546 760.122 89.0527 760.592 89.306C761.063 89.5594 761.497 89.6921 761.895 89.7041C762.028 89.7041 762.112 89.7222 762.148 89.7584C762.185 89.7946 762.203 89.8911 762.203 90.0479C762.203 90.2048 762.185 90.3013 762.148 90.3375C762.112 90.3737 762.028 90.3918 761.895 90.3918C761.449 90.3918 761.014 90.5184 760.592 90.7718C760.17 91.0251 759.886 91.3448 759.742 91.7309C759.681 91.8998 759.645 92.1169 759.633 92.3823C759.621 92.6477 759.615 93.5465 759.615 95.0786V96.0015C759.615 96.6651 759.579 97.1295 759.506 97.3949C759.434 97.6603 759.259 97.9137 758.982 98.155C758.33 98.7823 757.323 99.0959 755.96 99.0959C755.742 99.0959 755.616 99.0779 755.58 99.0417C755.543 99.0055 755.525 98.9029 755.525 98.734C755.525 98.6616 755.525 98.6194 755.525 98.6074C755.525 98.5953 755.531 98.5651 755.543 98.5169C755.555 98.4686 755.574 98.4445 755.598 98.4445C755.622 98.4445 755.67 98.4385 755.742 98.4264C755.911 98.4264 756.098 98.4083 756.303 98.3721C756.508 98.3359 756.738 98.2756 756.991 98.1911C757.244 98.1067 757.468 97.968 757.661 97.7749C757.854 97.5819 757.998 97.3527 758.095 97.0873C758.107 97.027 758.119 96.1704 758.131 94.5177L758.149 92.0566C758.306 91.369 758.728 90.82 759.416 90.4099C759.838 90.2048 760.14 90.0841 760.321 90.0479C760.019 89.9635 759.718 89.8429 759.416 89.686C758.752 89.2759 758.342 88.7812 758.185 88.2022L758.149 88.0212L758.131 85.5601C758.119 83.9074 758.107 83.0508 758.095 82.9905C757.95 82.5079 757.63 82.1702 757.136 81.9771C756.641 81.7841 756.177 81.6816 755.742 81.6695C755.634 81.6695 755.574 81.6514 755.561 81.6152C755.549 81.579 755.537 81.4885 755.525 81.3438Z" fill="black"/>
<path d="M170 45.5L165 42.6132V48.3868L170 45.5ZM155 46H165.5V45H155V46Z" fill="#355FB3"/>
<path d="M170 75.5L165 72.6132V78.3868L170 75.5ZM155 76H165.5V75H155V76Z" fill="#B33535"/>
<path d="M170 105.5L165 102.613V108.387L170 105.5ZM155 106H165.5V105H155V106Z" fill="#3BB335"/>
<path d="M170 135.5L165 132.613V138.387L170 135.5ZM155 136H165.5V135H155V136Z" fill="#B39735"/>
<path d="M649 90L639 84.2265V95.7735L649 90ZM630 91H640V89H630V91Z" fill="black"/>
<path d="M389.774 15.5635C388.648 15.2399 387.828 14.8434 387.313 14.374C386.803 13.9001 386.547 13.3167 386.547 12.624C386.547 11.8402 386.86 11.193 387.484 10.6826C388.113 10.1676 388.929 9.91016 389.931 9.91016C390.615 9.91016 391.223 10.0423 391.756 10.3066C392.294 10.571 392.709 10.9355 393.001 11.4004C393.297 11.8652 393.445 12.3734 393.445 12.9248H392.126C392.126 12.3232 391.934 11.8516 391.551 11.5098C391.169 11.1634 390.628 10.9902 389.931 10.9902C389.284 10.9902 388.778 11.1338 388.414 11.4209C388.054 11.7035 387.874 12.0977 387.874 12.6035C387.874 13.0091 388.045 13.3532 388.386 13.6357C388.733 13.9137 389.318 14.1689 390.143 14.4014C390.973 14.6338 391.62 14.8913 392.085 15.1738C392.554 15.4518 392.9 15.7777 393.124 16.1514C393.351 16.5251 393.465 16.9648 393.465 17.4707C393.465 18.2773 393.151 18.9245 392.522 19.4121C391.893 19.8952 391.052 20.1367 390 20.1367C389.316 20.1367 388.678 20.0068 388.086 19.7471C387.493 19.4827 387.035 19.1227 386.711 18.667C386.392 18.2113 386.233 17.694 386.233 17.1152H387.552C387.552 17.7168 387.773 18.193 388.215 18.5439C388.662 18.8903 389.257 19.0635 390 19.0635C390.692 19.0635 391.223 18.9222 391.592 18.6396C391.961 18.3571 392.146 17.972 392.146 17.4844C392.146 16.9967 391.975 16.6208 391.633 16.3564C391.292 16.0876 390.672 15.8232 389.774 15.5635ZM398.449 18.2568L401.293 10.0469H402.728L399.037 20H397.875L394.19 10.0469H395.619L398.449 18.2568ZM405.763 10.0469L409.017 18.168L412.271 10.0469H413.973L413.973 20H412.661L412.661 16.124L412.784 11.9404L409.516 20H408.511L405.251 11.9609L405.38 16.124L405.38 20H404.068L404.068 10.0469H405.763Z" fill="black"/>
</svg>
