<svg width="1507" height="739" viewBox="0 0 1507 739" fill="none" xmlns="http://www.w3.org/2000/svg">
<g clip-path="url(#clip0)">
<path d="M371.093 724.154L340.013 539.971" stroke="#747474"/>
<path d="M371.093 724.154L535.089 618.388" stroke="#747474"/>
<path d="M371.093 724.154L596.87 266.294" stroke="#747474"/>
<path d="M371.093 724.154L190.245 430.371" stroke="#747474"/>
<path d="M371.093 724.154L446.203 387.272" stroke="#747474"/>
<path d="M340.013 539.971L535.089 618.388" stroke="#747474"/>
<path d="M340.013 539.971L277.194 87.4905" stroke="#747474"/>
<path d="M340.013 539.971L461.549 143.947" stroke="#747474"/>
<path d="M340.013 539.971L37.825 549.087" stroke="#747474"/>
<path d="M535.089 618.388L15.087 350.557" stroke="#747474"/>
<path d="M535.089 618.388L293.66 277.505" stroke="#747474"/>
<path d="M535.089 618.388L446.203 387.272" stroke="#747474"/>
<path d="M535.089 618.388L461.549 143.947" stroke="#747474"/>
<path d="M15.087 350.557L446.203 387.272" stroke="#747474"/>
<path d="M15.087 350.557L630.654 459.28" stroke="#747474"/>
<path d="M15.087 350.557L106.617 188.26" stroke="#747474"/>
<path d="M293.66 277.505L461.549 143.947" stroke="#747474"/>
<path d="M293.66 277.505L106.617 188.26" stroke="#747474"/>
<path d="M293.66 277.505L37.825 549.087" stroke="#747474"/>
<path d="M293.66 277.505L446.203 387.272" stroke="#747474"/>
<path d="M293.66 277.505L177.902 675.424" stroke="#747474"/>
<path d="M293.66 277.505L190.245 430.371" stroke="#747474"/>
<path d="M277.194 87.4905L106.617 188.26" stroke="#747474"/>
<path d="M277.194 87.4905L461.549 143.947" stroke="#747474"/>
<path d="M596.87 266.294L190.245 430.371" stroke="#747474"/>
<path d="M596.87 266.294L106.617 188.26" stroke="#747474"/>
<path d="M596.87 266.294L446.203 387.272" stroke="#747474"/>
<path d="M596.87 266.294L177.902 675.424" stroke="#747474"/>
<path d="M446.203 387.272L106.617 188.26" stroke="#747474"/>
<path d="M177.902 675.424L106.617 188.26" stroke="#747474"/>
<path d="M177.902 675.424L37.825 549.087" stroke="#747474"/>
<path d="M106.617 188.26L190.245 430.371" stroke="#747474"/>
<path d="M190.245 430.371L461.549 143.947" stroke="#747474"/>
<path d="M37.825 549.087L461.549 143.947" stroke="#747474"/>
<path d="M630.654 459.28L461.549 143.947" stroke="#747474"/>
<path d="M371.093 739.154C379.377 739.154 386.093 732.438 386.093 724.154C386.093 715.87 379.377 709.154 371.093 709.154C362.809 709.154 356.093 715.87 356.093 724.154C356.093 732.438 362.809 739.154 371.093 739.154Z" fill="#355FB3"/>
<path d="M340.013 554.971C348.297 554.971 355.013 548.255 355.013 539.971C355.013 531.687 348.297 524.971 340.013 524.971C331.728 524.971 325.013 531.687 325.013 539.971C325.013 548.255 331.728 554.971 340.013 554.971Z" fill="#355FB3"/>
<path d="M535.089 633.388C543.373 633.388 550.089 626.672 550.089 618.388C550.089 610.103 543.373 603.388 535.089 603.388C526.805 603.388 520.089 610.103 520.089 618.388C520.089 626.672 526.805 633.388 535.089 633.388Z" fill="#355FB3"/>
<path d="M15.087 365.557C23.3713 365.557 30.087 358.842 30.087 350.557C30.087 342.273 23.3713 335.557 15.087 335.557C6.80276 335.557 0.0870361 342.273 0.0870361 350.557C0.0870361 358.842 6.80276 365.557 15.087 365.557Z" fill="#355FB3"/>
<path d="M293.66 292.505C301.944 292.505 308.66 285.789 308.66 277.505C308.66 269.22 301.944 262.505 293.66 262.505C285.376 262.505 278.66 269.22 278.66 277.505C278.66 285.789 285.376 292.505 293.66 292.505Z" fill="#355FB3"/>
<path d="M277.194 102.49C285.478 102.49 292.194 95.7747 292.194 87.4905C292.194 79.2062 285.478 72.4905 277.194 72.4905C268.91 72.4905 262.194 79.2062 262.194 87.4905C262.194 95.7747 268.91 102.49 277.194 102.49Z" fill="#355FB3"/>
<path d="M596.87 281.294C605.154 281.294 611.87 274.578 611.87 266.294C611.87 258.009 605.154 251.294 596.87 251.294C588.585 251.294 581.87 258.009 581.87 266.294C581.87 274.578 588.585 281.294 596.87 281.294Z" fill="#355FB3"/>
<path d="M446.203 402.272C454.487 402.272 461.203 395.556 461.203 387.272C461.203 378.987 454.487 372.272 446.203 372.272C437.919 372.272 431.203 378.987 431.203 387.272C431.203 395.556 437.919 402.272 446.203 402.272Z" fill="#B33535"/>
<path d="M177.902 690.424C186.186 690.424 192.902 683.709 192.902 675.424C192.902 667.14 186.186 660.424 177.902 660.424C169.617 660.424 162.902 667.14 162.902 675.424C162.902 683.709 169.617 690.424 177.902 690.424Z" fill="#B33535"/>
<path d="M106.617 203.26C114.901 203.26 121.617 196.545 121.617 188.26C121.617 179.976 114.901 173.26 106.617 173.26C98.3325 173.26 91.6168 179.976 91.6168 188.26C91.6168 196.545 98.3325 203.26 106.617 203.26Z" fill="#B33535"/>
<path d="M190.245 445.371C198.529 445.371 205.245 438.656 205.245 430.371C205.245 422.087 198.529 415.371 190.245 415.371C181.961 415.371 175.245 422.087 175.245 430.371C175.245 438.656 181.961 445.371 190.245 445.371Z" fill="#B33535"/>
<path d="M37.825 564.087C46.1092 564.087 52.825 557.371 52.825 549.087C52.825 540.802 46.1092 534.087 37.825 534.087C29.5407 534.087 22.825 540.802 22.825 549.087C22.825 557.371 29.5407 564.087 37.825 564.087Z" fill="#B33535"/>
<path d="M630.654 474.28C638.939 474.28 645.654 467.564 645.654 459.28C645.654 450.996 638.939 444.28 630.654 444.28C622.37 444.28 615.654 450.996 615.654 459.28C615.654 467.564 622.37 474.28 630.654 474.28Z" fill="#B33535"/>
<path d="M461.549 158.947C469.834 158.947 476.549 152.231 476.549 143.947C476.549 135.663 469.834 128.947 461.549 128.947C453.265 128.947 446.549 135.663 446.549 143.947C446.549 152.231 453.265 158.947 461.549 158.947Z" fill="#B33535"/>
</g>
<path d="M282.797 24.8789C282.48 27.5859 281.479 29.6777 279.791 31.1543C278.115 32.6191 275.883 33.3516 273.094 33.3516C270.07 33.3516 267.645 32.2676 265.816 30.0996C264 27.9316 263.092 25.0312 263.092 21.3984V18.9375C263.092 16.5586 263.514 14.4668 264.357 12.6621C265.213 10.8574 266.42 9.47461 267.979 8.51367C269.537 7.54102 271.342 7.05469 273.393 7.05469C276.111 7.05469 278.291 7.81641 279.932 9.33984C281.572 10.8516 282.527 12.9492 282.797 15.6328H279.404C279.111 13.5938 278.473 12.1172 277.488 11.2031C276.516 10.2891 275.15 9.83203 273.393 9.83203C271.236 9.83203 269.543 10.6289 268.312 12.2227C267.094 13.8164 266.484 16.084 266.484 19.0254V21.5039C266.484 24.2812 267.064 26.4902 268.225 28.1309C269.385 29.7715 271.008 30.5918 273.094 30.5918C274.969 30.5918 276.404 30.1699 277.4 29.3262C278.408 28.4707 279.076 26.9883 279.404 24.8789H282.797ZM290.443 33H287.191V6H290.443V33ZM307.406 33C307.219 32.625 307.066 31.957 306.949 30.9961C305.438 32.5664 303.633 33.3516 301.535 33.3516C299.66 33.3516 298.119 32.8242 296.912 31.7695C295.717 30.7031 295.119 29.3555 295.119 27.7266C295.119 25.7461 295.869 24.2109 297.369 23.1211C298.881 22.0195 301.002 21.4688 303.732 21.4688H306.896V19.9746C306.896 18.8379 306.557 17.9355 305.877 17.2676C305.197 16.5879 304.195 16.248 302.871 16.248C301.711 16.248 300.738 16.541 299.953 17.127C299.168 17.7129 298.775 18.4219 298.775 19.2539H295.506C295.506 18.3047 295.84 17.3906 296.508 16.5117C297.188 15.6211 298.102 14.918 299.25 14.4023C300.41 13.8867 301.682 13.6289 303.064 13.6289C305.256 13.6289 306.973 14.1797 308.215 15.2812C309.457 16.3711 310.102 17.877 310.148 19.7988V28.5527C310.148 30.2988 310.371 31.6875 310.816 32.7188V33H307.406ZM302.01 30.5215C303.029 30.5215 303.996 30.2578 304.91 29.7305C305.824 29.2031 306.486 28.5176 306.896 27.6738V23.7715H304.348C300.363 23.7715 298.371 24.9375 298.371 27.2695C298.371 28.2891 298.711 29.0859 299.391 29.6602C300.07 30.2344 300.943 30.5215 302.01 30.5215ZM326.32 27.9551C326.32 27.0762 325.986 26.3965 325.318 25.916C324.662 25.4238 323.508 25.002 321.855 24.6504C320.215 24.2988 318.908 23.877 317.936 23.3848C316.975 22.8926 316.26 22.3066 315.791 21.627C315.334 20.9473 315.105 20.1387 315.105 19.2012C315.105 17.6426 315.762 16.3242 317.074 15.2461C318.398 14.168 320.086 13.6289 322.137 13.6289C324.293 13.6289 326.039 14.1855 327.375 15.2988C328.723 16.4121 329.396 17.8359 329.396 19.5703H326.127C326.127 18.6797 325.746 17.9121 324.984 17.2676C324.234 16.623 323.285 16.3008 322.137 16.3008C320.953 16.3008 320.027 16.5586 319.359 17.0742C318.691 17.5898 318.357 18.2637 318.357 19.0957C318.357 19.8809 318.668 20.4727 319.289 20.8711C319.91 21.2695 321.029 21.6504 322.646 22.0137C324.275 22.377 325.594 22.8105 326.602 23.3145C327.609 23.8184 328.354 24.4277 328.834 25.1426C329.326 25.8457 329.572 26.707 329.572 27.7266C329.572 29.4258 328.893 30.791 327.533 31.8223C326.174 32.8418 324.41 33.3516 322.242 33.3516C320.719 33.3516 319.371 33.082 318.199 32.543C317.027 32.0039 316.107 31.2539 315.439 30.293C314.783 29.3203 314.455 28.2715 314.455 27.1465H317.707C317.766 28.2363 318.199 29.1035 319.008 29.748C319.828 30.3809 320.906 30.6973 322.242 30.6973C323.473 30.6973 324.457 30.4512 325.195 29.959C325.945 29.4551 326.32 28.7871 326.32 27.9551ZM344.883 27.9551C344.883 27.0762 344.549 26.3965 343.881 25.916C343.225 25.4238 342.07 25.002 340.418 24.6504C338.777 24.2988 337.471 23.877 336.498 23.3848C335.537 22.8926 334.822 22.3066 334.354 21.627C333.896 20.9473 333.668 20.1387 333.668 19.2012C333.668 17.6426 334.324 16.3242 335.637 15.2461C336.961 14.168 338.648 13.6289 340.699 13.6289C342.855 13.6289 344.602 14.1855 345.938 15.2988C347.285 16.4121 347.959 17.8359 347.959 19.5703H344.689C344.689 18.6797 344.309 17.9121 343.547 17.2676C342.797 16.623 341.848 16.3008 340.699 16.3008C339.516 16.3008 338.59 16.5586 337.922 17.0742C337.254 17.5898 336.92 18.2637 336.92 19.0957C336.92 19.8809 337.23 20.4727 337.852 20.8711C338.473 21.2695 339.592 21.6504 341.209 22.0137C342.838 22.377 344.156 22.8105 345.164 23.3145C346.172 23.8184 346.916 24.4277 347.396 25.1426C347.889 25.8457 348.135 26.707 348.135 27.7266C348.135 29.4258 347.455 30.791 346.096 31.8223C344.736 32.8418 342.973 33.3516 340.805 33.3516C339.281 33.3516 337.934 33.082 336.762 32.543C335.59 32.0039 334.67 31.2539 334.002 30.293C333.346 29.3203 333.018 28.2715 333.018 27.1465H336.27C336.328 28.2363 336.762 29.1035 337.57 29.748C338.391 30.3809 339.469 30.6973 340.805 30.6973C342.035 30.6973 343.02 30.4512 343.758 29.959C344.508 29.4551 344.883 28.7871 344.883 27.9551Z" fill="black"/>
<path d="M375.574 27.7266H366.328L364.57 33H358.963L368.49 7.40625H373.377L382.957 33H377.35L375.574 27.7266ZM367.752 23.4551H374.15L370.934 13.875L367.752 23.4551Z" fill="#355FB3"/>
<g clip-path="url(#clip1)">
<path d="M1310.41 406.811L1176.18 539.583" stroke="#747474"/>
<path d="M1310.41 406.811L1442.4 560.144" stroke="#747474"/>
<path d="M1310.41 406.811L1042.27 126.613" stroke="#747474"/>
<path d="M1310.41 406.811L1401.65 194.32" stroke="#747474"/>
<path d="M1310.41 406.811L1492.29 364.896" stroke="#747474"/>
<path d="M1310.41 406.811L1054.31 397.069" stroke="#747474"/>
<path d="M1176.18 539.583L1442.4 560.144" stroke="#747474"/>
<path d="M1176.18 539.583L949.191 598.56" stroke="#747474"/>
<path d="M1176.18 539.583L1054.31 397.069" stroke="#747474"/>
<path d="M1176.18 539.583L1302.66 687.605" stroke="#747474"/>
<path d="M1442.4 560.144L1492.29 364.896" stroke="#747474"/>
<path d="M1442.4 560.144L1054.31 397.069" stroke="#747474"/>
<path d="M1228.83 245.261L907.459 248.763" stroke="#747474"/>
<path d="M1228.83 245.261L1042.27 126.613" stroke="#747474"/>
<path d="M1228.83 245.261L1054.31 397.069" stroke="#747474"/>
<path d="M1228.83 245.261L861.475 434.643" stroke="#747474"/>
<path d="M1228.83 245.261L1492.29 364.896" stroke="#747474"/>
<path d="M1228.83 245.261L1302.66 687.605" stroke="#747474"/>
<path d="M1228.83 245.261L1237.9 87.4349" stroke="#747474"/>
<path d="M1228.83 245.261L1401.65 194.32" stroke="#747474"/>
<path d="M1042.27 126.613L949.191 598.56" stroke="#747474"/>
<path d="M1042.27 126.613L861.475 434.643" stroke="#747474"/>
<path d="M1042.27 126.613L1054.31 397.069" stroke="#747474"/>
<path d="M1042.27 126.613L1237.9 87.4349" stroke="#747474"/>
<path d="M949.191 598.56L907.459 248.763" stroke="#747474"/>
<path d="M949.191 598.56L1302.66 687.605" stroke="#747474"/>
<path d="M949.191 598.56L1099.39 713.21" stroke="#747474"/>
<path d="M949.191 598.56L861.475 434.643" stroke="#747474"/>
<path d="M907.459 248.763L1054.31 397.069" stroke="#747474"/>
<path d="M1401.65 194.32L1492.29 364.896" stroke="#747474"/>
<path d="M1237.9 87.4349L1054.31 397.069" stroke="#747474"/>
<path d="M1492.29 364.896L1054.31 397.069" stroke="#747474"/>
<path d="M1099.39 713.21L1054.31 397.069" stroke="#747474"/>
<path d="M1054.31 397.069L861.475 434.643" stroke="#747474"/>
<path d="M1310.41 421.811C1318.69 421.811 1325.41 415.095 1325.41 406.811C1325.41 398.527 1318.69 391.811 1310.41 391.811C1302.12 391.811 1295.41 398.527 1295.41 406.811C1295.41 415.095 1302.12 421.811 1310.41 421.811Z" fill="#B33535"/>
<path d="M1176.18 554.583C1184.47 554.583 1191.18 547.867 1191.18 539.583C1191.18 531.298 1184.47 524.583 1176.18 524.583C1167.9 524.583 1161.18 531.298 1161.18 539.583C1161.18 547.867 1167.9 554.583 1176.18 554.583Z" fill="#B33535"/>
<path d="M1442.4 575.144C1450.69 575.144 1457.4 568.428 1457.4 560.144C1457.4 551.86 1450.69 545.144 1442.4 545.144C1434.12 545.144 1427.4 551.86 1427.4 560.144C1427.4 568.428 1434.12 575.144 1442.4 575.144Z" fill="#B33535"/>
<path d="M1228.83 260.261C1237.12 260.261 1243.83 253.546 1243.83 245.261C1243.83 236.977 1237.12 230.261 1228.83 230.261C1220.55 230.261 1213.83 236.977 1213.83 245.261C1213.83 253.546 1220.55 260.261 1228.83 260.261Z" fill="#B33535"/>
<path d="M1042.27 141.613C1050.56 141.613 1057.27 134.898 1057.27 126.613C1057.27 118.329 1050.56 111.613 1042.27 111.613C1033.99 111.613 1027.27 118.329 1027.27 126.613C1027.27 134.898 1033.99 141.613 1042.27 141.613Z" fill="#B33535"/>
<path d="M949.191 613.56C957.475 613.56 964.191 606.845 964.191 598.56C964.191 590.276 957.475 583.56 949.191 583.56C940.907 583.56 934.191 590.276 934.191 598.56C934.191 606.845 940.907 613.56 949.191 613.56Z" fill="#B33535"/>
<path d="M907.459 263.763C915.743 263.763 922.459 257.048 922.459 248.763C922.459 240.479 915.743 233.763 907.459 233.763C899.175 233.763 892.459 240.479 892.459 248.763C892.459 257.048 899.175 263.763 907.459 263.763Z" fill="#B33535"/>
<path d="M1401.65 209.32C1409.94 209.32 1416.65 202.604 1416.65 194.32C1416.65 186.036 1409.94 179.32 1401.65 179.32C1393.37 179.32 1386.65 186.036 1386.65 194.32C1386.65 202.604 1393.37 209.32 1401.65 209.32Z" fill="#355FB3"/>
<path d="M1237.9 102.435C1246.19 102.435 1252.9 95.7191 1252.9 87.4349C1252.9 79.1506 1246.19 72.4349 1237.9 72.4349C1229.62 72.4349 1222.9 79.1506 1222.9 87.4349C1222.9 95.7191 1229.62 102.435 1237.9 102.435Z" fill="#355FB3"/>
<path d="M1492.29 379.896C1500.57 379.896 1507.29 373.18 1507.29 364.896C1507.29 356.612 1500.57 349.896 1492.29 349.896C1484.01 349.896 1477.29 356.612 1477.29 364.896C1477.29 373.18 1484.01 379.896 1492.29 379.896Z" fill="#355FB3"/>
<path d="M1099.39 728.21C1107.67 728.21 1114.39 721.494 1114.39 713.21C1114.39 704.926 1107.67 698.21 1099.39 698.21C1091.1 698.21 1084.39 704.926 1084.39 713.21C1084.39 721.494 1091.1 728.21 1099.39 728.21Z" fill="#355FB3"/>
<path d="M1302.66 702.605C1310.95 702.605 1317.66 695.889 1317.66 687.605C1317.66 679.32 1310.95 672.605 1302.66 672.605C1294.38 672.605 1287.66 679.32 1287.66 687.605C1287.66 695.889 1294.38 702.605 1302.66 702.605Z" fill="#355FB3"/>
<path d="M1054.31 412.069C1062.6 412.069 1069.31 405.353 1069.31 397.069C1069.31 388.785 1062.6 382.069 1054.31 382.069C1046.03 382.069 1039.31 388.785 1039.31 397.069C1039.31 405.353 1046.03 412.069 1054.31 412.069Z" fill="#355FB3"/>
<path d="M861.475 449.643C869.76 449.643 876.475 442.927 876.475 434.643C876.475 426.359 869.76 419.643 861.475 419.643C853.191 419.643 846.475 426.359 846.475 434.643C846.475 442.927 853.191 449.643 861.475 449.643Z" fill="#355FB3"/>
</g>
<path d="M1137.8 24.8789C1137.48 27.5859 1136.48 29.6777 1134.79 31.1543C1133.12 32.6191 1130.88 33.3516 1128.09 33.3516C1125.07 33.3516 1122.64 32.2676 1120.82 30.0996C1119 27.9316 1118.09 25.0312 1118.09 21.3984V18.9375C1118.09 16.5586 1118.51 14.4668 1119.36 12.6621C1120.21 10.8574 1121.42 9.47461 1122.98 8.51367C1124.54 7.54102 1126.34 7.05469 1128.39 7.05469C1131.11 7.05469 1133.29 7.81641 1134.93 9.33984C1136.57 10.8516 1137.53 12.9492 1137.8 15.6328H1134.4C1134.11 13.5938 1133.47 12.1172 1132.49 11.2031C1131.52 10.2891 1130.15 9.83203 1128.39 9.83203C1126.24 9.83203 1124.54 10.6289 1123.31 12.2227C1122.09 13.8164 1121.48 16.084 1121.48 19.0254V21.5039C1121.48 24.2812 1122.06 26.4902 1123.22 28.1309C1124.38 29.7715 1126.01 30.5918 1128.09 30.5918C1129.97 30.5918 1131.4 30.1699 1132.4 29.3262C1133.41 28.4707 1134.08 26.9883 1134.4 24.8789H1137.8ZM1145.44 33H1142.19V6H1145.44V33ZM1162.41 33C1162.22 32.625 1162.07 31.957 1161.95 30.9961C1160.44 32.5664 1158.63 33.3516 1156.54 33.3516C1154.66 33.3516 1153.12 32.8242 1151.91 31.7695C1150.72 30.7031 1150.12 29.3555 1150.12 27.7266C1150.12 25.7461 1150.87 24.2109 1152.37 23.1211C1153.88 22.0195 1156 21.4688 1158.73 21.4688H1161.9V19.9746C1161.9 18.8379 1161.56 17.9355 1160.88 17.2676C1160.2 16.5879 1159.2 16.248 1157.87 16.248C1156.71 16.248 1155.74 16.541 1154.95 17.127C1154.17 17.7129 1153.78 18.4219 1153.78 19.2539H1150.51C1150.51 18.3047 1150.84 17.3906 1151.51 16.5117C1152.19 15.6211 1153.1 14.918 1154.25 14.4023C1155.41 13.8867 1156.68 13.6289 1158.06 13.6289C1160.26 13.6289 1161.97 14.1797 1163.21 15.2812C1164.46 16.3711 1165.1 17.877 1165.15 19.7988V28.5527C1165.15 30.2988 1165.37 31.6875 1165.82 32.7188V33H1162.41ZM1157.01 30.5215C1158.03 30.5215 1159 30.2578 1159.91 29.7305C1160.82 29.2031 1161.49 28.5176 1161.9 27.6738V23.7715H1159.35C1155.36 23.7715 1153.37 24.9375 1153.37 27.2695C1153.37 28.2891 1153.71 29.0859 1154.39 29.6602C1155.07 30.2344 1155.94 30.5215 1157.01 30.5215ZM1181.32 27.9551C1181.32 27.0762 1180.99 26.3965 1180.32 25.916C1179.66 25.4238 1178.51 25.002 1176.86 24.6504C1175.21 24.2988 1173.91 23.877 1172.94 23.3848C1171.97 22.8926 1171.26 22.3066 1170.79 21.627C1170.33 20.9473 1170.11 20.1387 1170.11 19.2012C1170.11 17.6426 1170.76 16.3242 1172.07 15.2461C1173.4 14.168 1175.09 13.6289 1177.14 13.6289C1179.29 13.6289 1181.04 14.1855 1182.38 15.2988C1183.72 16.4121 1184.4 17.8359 1184.4 19.5703H1181.13C1181.13 18.6797 1180.75 17.9121 1179.98 17.2676C1179.23 16.623 1178.29 16.3008 1177.14 16.3008C1175.95 16.3008 1175.03 16.5586 1174.36 17.0742C1173.69 17.5898 1173.36 18.2637 1173.36 19.0957C1173.36 19.8809 1173.67 20.4727 1174.29 20.8711C1174.91 21.2695 1176.03 21.6504 1177.65 22.0137C1179.28 22.377 1180.59 22.8105 1181.6 23.3145C1182.61 23.8184 1183.35 24.4277 1183.83 25.1426C1184.33 25.8457 1184.57 26.707 1184.57 27.7266C1184.57 29.4258 1183.89 30.791 1182.53 31.8223C1181.17 32.8418 1179.41 33.3516 1177.24 33.3516C1175.72 33.3516 1174.37 33.082 1173.2 32.543C1172.03 32.0039 1171.11 31.2539 1170.44 30.293C1169.78 29.3203 1169.46 28.2715 1169.46 27.1465H1172.71C1172.77 28.2363 1173.2 29.1035 1174.01 29.748C1174.83 30.3809 1175.91 30.6973 1177.24 30.6973C1178.47 30.6973 1179.46 30.4512 1180.2 29.959C1180.95 29.4551 1181.32 28.7871 1181.32 27.9551ZM1199.88 27.9551C1199.88 27.0762 1199.55 26.3965 1198.88 25.916C1198.22 25.4238 1197.07 25.002 1195.42 24.6504C1193.78 24.2988 1192.47 23.877 1191.5 23.3848C1190.54 22.8926 1189.82 22.3066 1189.35 21.627C1188.9 20.9473 1188.67 20.1387 1188.67 19.2012C1188.67 17.6426 1189.32 16.3242 1190.64 15.2461C1191.96 14.168 1193.65 13.6289 1195.7 13.6289C1197.86 13.6289 1199.6 14.1855 1200.94 15.2988C1202.29 16.4121 1202.96 17.8359 1202.96 19.5703H1199.69C1199.69 18.6797 1199.31 17.9121 1198.55 17.2676C1197.8 16.623 1196.85 16.3008 1195.7 16.3008C1194.52 16.3008 1193.59 16.5586 1192.92 17.0742C1192.25 17.5898 1191.92 18.2637 1191.92 19.0957C1191.92 19.8809 1192.23 20.4727 1192.85 20.8711C1193.47 21.2695 1194.59 21.6504 1196.21 22.0137C1197.84 22.377 1199.16 22.8105 1200.16 23.3145C1201.17 23.8184 1201.92 24.4277 1202.4 25.1426C1202.89 25.8457 1203.13 26.707 1203.13 27.7266C1203.13 29.4258 1202.46 30.791 1201.1 31.8223C1199.74 32.8418 1197.97 33.3516 1195.8 33.3516C1194.28 33.3516 1192.93 33.082 1191.76 32.543C1190.59 32.0039 1189.67 31.2539 1189 30.293C1188.35 29.3203 1188.02 28.2715 1188.02 27.1465H1191.27C1191.33 28.2363 1191.76 29.1035 1192.57 29.748C1193.39 30.3809 1194.47 30.6973 1195.8 30.6973C1197.04 30.6973 1198.02 30.4512 1198.76 29.959C1199.51 29.4551 1199.88 28.7871 1199.88 27.9551Z" fill="black"/>
<path d="M1216.12 33V7.40625H1225.09C1228.2 7.40625 1230.55 8.00391 1232.16 9.19922C1233.76 10.3828 1234.56 12.123 1234.56 14.4199C1234.56 15.6738 1234.24 16.7812 1233.6 17.7422C1232.95 18.6914 1232.06 19.3887 1230.91 19.834C1232.22 20.1621 1233.25 20.8242 1234 21.8203C1234.76 22.8164 1235.14 24.0352 1235.14 25.4766C1235.14 27.9375 1234.36 29.8008 1232.79 31.0664C1231.22 32.332 1228.98 32.9766 1226.07 33H1216.12ZM1221.4 21.8555V28.7637H1225.92C1227.16 28.7637 1228.12 28.4707 1228.82 27.8848C1229.52 27.2871 1229.87 26.4668 1229.87 25.4238C1229.87 23.0801 1228.66 21.8906 1226.23 21.8555H1221.4ZM1221.4 18.1289H1225.3C1227.96 18.082 1229.29 17.0215 1229.29 14.9473C1229.29 13.7871 1228.95 12.9551 1228.27 12.4512C1227.6 11.9355 1226.54 11.6777 1225.09 11.6777H1221.4V18.1289Z" fill="#B33535"/>
<defs>
<clipPath id="clip0">
<rect y="72" width="646" height="667" fill="white"/>
</clipPath>
<clipPath id="clip1">
<rect x="846" y="72" width="661" height="656" fill="white"/>
</clipPath>
</defs>
</svg>
