<svg width="646" height="1508" viewBox="0 0 646 1508" fill="none" xmlns="http://www.w3.org/2000/svg">
<g clip-path="url(#clip0)">
<path d="M371.093 652.154L340.013 467.971" stroke="#355FB3" stroke-width="4"/>
<path d="M371.093 652.154L535.089 546.388" stroke="#355FB3" stroke-width="4"/>
<path d="M371.093 652.154L596.87 194.294" stroke="#747474"/>
<path d="M371.093 652.154L190.245 358.371" stroke="#747474"/>
<path d="M371.093 652.154L446.203 315.272" stroke="#747474"/>
<path d="M340.013 467.971L535.089 546.388" stroke="#355FB3" stroke-width="4"/>
<path d="M340.013 467.971L277.194 15.4905" stroke="#747474"/>
<path d="M340.013 467.971L461.549 71.9471" stroke="#747474"/>
<path d="M340.013 467.971L37.825 477.087" stroke="#747474"/>
<path d="M535.089 546.388L15.087 278.557" stroke="#747474"/>
<path d="M535.089 546.388L293.66 205.505" stroke="#747474"/>
<path d="M535.089 546.388L446.203 315.272" stroke="#747474"/>
<path d="M535.089 546.388L461.549 71.9471" stroke="#747474"/>
<path d="M15.087 278.557L446.203 315.272" stroke="#747474"/>
<path d="M15.087 278.557L630.654 387.28" stroke="#747474"/>
<path d="M15.087 278.557L106.617 116.26" stroke="#747474"/>
<path d="M293.66 205.505L461.549 71.9471" stroke="#747474"/>
<path d="M293.66 205.505L106.617 116.26" stroke="#747474"/>
<path d="M293.66 205.505L37.825 477.087" stroke="#747474"/>
<path d="M293.66 205.505L446.203 315.272" stroke="#747474"/>
<path d="M293.66 205.505L177.902 603.424" stroke="#747474"/>
<path d="M293.66 205.505L190.245 358.371" stroke="#747474"/>
<path d="M277.194 15.4905L106.617 116.26" stroke="#747474"/>
<path d="M277.194 15.4905L461.549 71.9471" stroke="#747474"/>
<path d="M596.87 194.294L190.245 358.371" stroke="#747474"/>
<path d="M596.87 194.294L106.617 116.26" stroke="#747474"/>
<path d="M596.87 194.294L446.203 315.272" stroke="#747474"/>
<path d="M596.87 194.294L177.902 603.424" stroke="#747474"/>
<path d="M446.203 315.272L106.617 116.26" stroke="#747474"/>
<path d="M177.902 603.424L106.617 116.26" stroke="#747474"/>
<path d="M177.902 603.424L37.825 477.087" stroke="#747474"/>
<path d="M106.617 116.26L190.245 358.371" stroke="#747474"/>
<path d="M190.245 358.371L461.549 71.9471" stroke="#747474"/>
<path d="M37.825 477.087L461.549 71.9471" stroke="#747474"/>
<path d="M630.654 387.28L461.549 71.9471" stroke="#747474"/>
<path d="M371.006 667.154C379.29 667.154 386.006 660.438 386.006 652.154C386.006 643.87 379.29 637.154 371.006 637.154C362.722 637.154 356.006 643.87 356.006 652.154C356.006 660.438 362.722 667.154 371.006 667.154Z" fill="#355FB3"/>
<path d="M339.926 482.971C348.21 482.971 354.926 476.255 354.926 467.971C354.926 459.687 348.21 452.971 339.926 452.971C331.642 452.971 324.926 459.687 324.926 467.971C324.926 476.255 331.642 482.971 339.926 482.971Z" fill="#355FB3"/>
<path d="M535.002 561.388C543.286 561.388 550.002 554.672 550.002 546.388C550.002 538.103 543.286 531.388 535.002 531.388C526.718 531.388 520.002 538.103 520.002 546.388C520.002 554.672 526.718 561.388 535.002 561.388Z" fill="#355FB3"/>
<path d="M15 293.557C23.2843 293.557 30 286.842 30 278.557C30 270.273 23.2843 263.557 15 263.557C6.71573 263.557 0 270.273 0 278.557C0 286.842 6.71573 293.557 15 293.557Z" fill="#355FB3"/>
<path d="M293.573 220.505C301.857 220.505 308.573 213.789 308.573 205.505C308.573 197.22 301.857 190.505 293.573 190.505C285.288 190.505 278.573 197.22 278.573 205.505C278.573 213.789 285.288 220.505 293.573 220.505Z" fill="#355FB3"/>
<path d="M277.107 30.4905C285.391 30.4905 292.107 23.7747 292.107 15.4905C292.107 7.20621 285.391 0.490479 277.107 0.490479C268.823 0.490479 262.107 7.20621 262.107 15.4905C262.107 23.7747 268.823 30.4905 277.107 30.4905Z" fill="#355FB3"/>
<path d="M596.783 209.294C605.067 209.294 611.783 202.578 611.783 194.294C611.783 186.009 605.067 179.294 596.783 179.294C588.498 179.294 581.783 186.009 581.783 194.294C581.783 202.578 588.498 209.294 596.783 209.294Z" fill="#355FB3"/>
<path d="M446.116 330.272C454.4 330.272 461.116 323.556 461.116 315.272C461.116 306.987 454.4 300.272 446.116 300.272C437.832 300.272 431.116 306.987 431.116 315.272C431.116 323.556 437.832 330.272 446.116 330.272Z" fill="#B33535"/>
<path d="M177.815 618.424C186.099 618.424 192.815 611.709 192.815 603.424C192.815 595.14 186.099 588.424 177.815 588.424C169.53 588.424 162.815 595.14 162.815 603.424C162.815 611.709 169.53 618.424 177.815 618.424Z" fill="#B33535"/>
<path d="M106.53 131.26C114.814 131.26 121.53 124.545 121.53 116.26C121.53 107.976 114.814 101.26 106.53 101.26C98.2455 101.26 91.5298 107.976 91.5298 116.26C91.5298 124.545 98.2455 131.26 106.53 131.26Z" fill="#B33535"/>
<path d="M190.158 373.371C198.442 373.371 205.158 366.656 205.158 358.371C205.158 350.087 198.442 343.371 190.158 343.371C181.874 343.371 175.158 350.087 175.158 358.371C175.158 366.656 181.874 373.371 190.158 373.371Z" fill="#B33535"/>
<path d="M37.7379 492.087C46.0222 492.087 52.7379 485.371 52.7379 477.087C52.7379 468.802 46.0222 462.087 37.7379 462.087C29.4536 462.087 22.7379 468.802 22.7379 477.087C22.7379 485.371 29.4536 492.087 37.7379 492.087Z" fill="#B33535"/>
<path d="M630.567 402.28C638.852 402.28 645.567 395.564 645.567 387.28C645.567 378.996 638.852 372.28 630.567 372.28C622.283 372.28 615.567 378.996 615.567 387.28C615.567 395.564 622.283 402.28 630.567 402.28Z" fill="#B33535"/>
<path d="M461.462 86.9471C469.747 86.9471 476.462 80.2314 476.462 71.9471C476.462 63.6629 469.747 56.9471 461.462 56.9471C453.178 56.9471 446.462 63.6629 446.462 71.9471C446.462 80.2314 453.178 86.9471 461.462 86.9471Z" fill="#B33535"/>
</g>
<path d="M256.08 1028.18L225 844" stroke="#355FB3" stroke-width="4"/>
<path d="M256.08 1028.18L420.076 922.417" stroke="#355FB3" stroke-width="4"/>
<path d="M225 844L420.076 922.416" stroke="#355FB3" stroke-width="4"/>
<path d="M256.08 1043.18C264.365 1043.18 271.08 1036.47 271.08 1028.18C271.08 1019.9 264.365 1013.18 256.08 1013.18C247.796 1013.18 241.08 1019.9 241.08 1028.18C241.08 1036.47 247.796 1043.18 256.08 1043.18Z" fill="#355FB3"/>
<path d="M225 859C233.284 859 240 852.284 240 844C240 835.716 233.284 829 225 829C216.716 829 210 835.716 210 844C210 852.284 216.716 859 225 859Z" fill="#355FB3"/>
<path d="M420.076 937.417C428.361 937.417 435.076 930.701 435.076 922.417C435.076 914.132 428.361 907.417 420.076 907.417C411.792 907.417 405.076 914.132 405.076 922.417C405.076 930.701 411.792 937.417 420.076 937.417Z" fill="#355FB3"/>
<path d="M323 853L346.094 813L299.906 813L323 853ZM319 703L319 817L327 817L327 703L319 703Z" fill="black"/>
<path d="M338 1163L361.094 1123L314.906 1123L338 1163ZM334 1013L334 1127L342 1127L342 1013L334 1013Z" fill="black"/>
<path d="M334 1418L357.094 1378L310.906 1378L334 1418ZM330 1268L330 1382L338 1382L338 1268L330 1268Z" fill="black"/>
<path d="M403.835 726.104C403.835 726.016 404.186 724.877 404.186 724.789C404.186 724 403.485 724 403.222 724C402.433 724 402.345 724.438 401.994 725.753L387.53 783.787C380.254 782.911 377.536 779.229 377.536 773.969C377.536 772.04 377.536 770.024 381.656 759.154C382.796 755.998 383.234 754.858 383.234 753.28C383.234 749.335 380.429 746.179 376.309 746.179C368.244 746.179 365 758.891 365 759.592C365 759.943 365.351 760.381 365.964 760.381C366.753 760.381 366.841 760.03 367.192 758.803C369.296 751.176 372.802 747.932 376.046 747.932C376.835 747.932 378.325 748.02 378.325 750.825C378.325 751.176 378.325 753.105 376.835 756.962C372.101 769.41 372.101 771.339 372.101 773.355C372.101 781.771 379.114 785.015 387.004 785.628C386.303 788.346 385.689 791.151 384.988 793.869C383.585 799.129 382.971 801.583 382.971 801.934C382.971 802.723 383.673 802.723 383.936 802.723C384.111 802.723 384.462 802.723 384.637 802.372C384.988 802.022 388.582 787.294 388.932 785.716C392.176 785.716 399.102 785.716 406.991 777.563C409.884 774.407 412.514 770.375 414.005 766.605C414.881 764.326 416.985 756.524 416.985 752.053C416.985 746.793 414.355 746.179 413.479 746.179C411.375 746.179 409.446 748.283 409.446 750.036C409.446 751.088 410.06 751.702 410.41 752.053C411.199 752.842 413.566 755.209 413.566 759.767C413.566 762.923 411.813 769.41 406.202 775.722C398.839 783.963 392.088 783.963 389.458 783.963L403.835 726.104Z" fill="black"/>
<path d="M408.821 1339.86C409.259 1345.38 410.312 1349.42 410.75 1351.08C411.715 1355.03 412.154 1356.96 415.925 1356.96C419.872 1356.96 426.626 1353.01 426.626 1351.26C426.626 1350.82 426.275 1350.64 425.837 1350.64C424.696 1350.64 422.854 1351.61 422.591 1351.78C421.977 1352.14 421.802 1352.14 421.626 1352.14C419.17 1352.14 418.644 1349.77 417.592 1344.5C416.978 1341.61 416.188 1338.1 415.487 1326.08C414.873 1317.14 414.522 1308.19 414.522 1299.24C414.522 1297.14 414.61 1294.86 414.61 1292.75C414.61 1291.35 414.61 1291 413.645 1291C412.417 1291 408.821 1292.49 407.242 1294.86L406.628 1295.82C399.698 1310.65 393.208 1321.26 388.647 1328.37C383.472 1336.35 374.35 1350.64 369.613 1350.64C366.368 1350.64 363.649 1348.54 362.859 1345.38C362.772 1345.21 362.596 1344.68 362.245 1344.68C360.93 1344.68 359 1348.89 359 1351.35C359 1354.85 362.772 1358.71 366.894 1358.71C372.946 1358.71 383.033 1342.93 384.963 1339.86H408.821ZM407.066 1301.79V1306.88C407.066 1311.96 407.242 1317.05 407.505 1322.14C407.593 1323.89 407.943 1330.47 408.382 1335.03H392.331C390.927 1335.03 389.612 1335.03 387.331 1336.43C393.471 1326.96 398.558 1317.84 399.084 1316.88C403.47 1309.07 405.838 1303.98 406.979 1301.79H407.066Z" fill="black"/>
<path d="M408.647 1054.49C410.401 1054.49 411.103 1054.49 411.103 1052.82C411.103 1051.95 410.401 1051.95 408.822 1051.95H401.718C403.384 1042.91 404.612 1036.68 405.314 1033.88C405.84 1031.77 407.682 1029.75 409.963 1029.75C411.805 1029.75 413.647 1030.54 414.524 1031.33C411.103 1031.68 410.05 1034.23 410.05 1035.72C410.05 1037.47 411.366 1038.53 413.033 1038.53C414.787 1038.53 417.418 1037.03 417.418 1033.7C417.418 1030.02 413.734 1028 409.875 1028C406.103 1028 402.419 1030.81 400.665 1034.23C399.086 1037.3 398.209 1040.46 396.192 1051.95H390.315C388.648 1051.95 387.771 1051.95 387.771 1053.52C387.771 1054.49 388.297 1054.49 390.052 1054.49H395.665C394.086 1062.65 390.49 1082.47 388.473 1091.86C386.982 1099.49 385.666 1105.89 381.28 1105.89C381.017 1105.89 378.473 1105.89 376.895 1104.22C381.368 1103.87 381.368 1100.01 381.368 1099.93C381.368 1098.17 380.052 1097.12 378.386 1097.12C376.631 1097.12 374 1098.61 374 1101.94C374 1105.71 377.859 1107.64 381.28 1107.64C390.227 1107.64 393.911 1091.59 394.876 1087.21C396.455 1080.45 400.753 1057.12 401.191 1054.49H408.647Z" fill="black"/>
<path d="M267.75 1222.56C267.188 1227.38 265.406 1231.09 262.406 1233.72C259.427 1236.32 255.458 1237.62 250.5 1237.62C245.125 1237.62 240.812 1235.7 237.562 1231.84C234.333 1227.99 232.719 1222.83 232.719 1216.38V1212C232.719 1207.77 233.469 1204.05 234.969 1200.84C236.49 1197.64 238.635 1195.18 241.406 1193.47C244.177 1191.74 247.385 1190.88 251.031 1190.88C255.865 1190.88 259.74 1192.23 262.656 1194.94C265.573 1197.62 267.271 1201.35 267.75 1206.12H261.719C261.198 1202.5 260.062 1199.88 258.312 1198.25C256.583 1196.62 254.156 1195.81 251.031 1195.81C247.198 1195.81 244.188 1197.23 242 1200.06C239.833 1202.9 238.75 1206.93 238.75 1212.16V1216.56C238.75 1221.5 239.781 1225.43 241.844 1228.34C243.906 1231.26 246.792 1232.72 250.5 1232.72C253.833 1232.72 256.385 1231.97 258.156 1230.47C259.948 1228.95 261.135 1226.31 261.719 1222.56H267.75ZM281.344 1237H275.562V1189H281.344V1237ZM311.5 1237C311.167 1236.33 310.896 1235.15 310.688 1233.44C308 1236.23 304.792 1237.62 301.062 1237.62C297.729 1237.62 294.99 1236.69 292.844 1234.81C290.719 1232.92 289.656 1230.52 289.656 1227.62C289.656 1224.1 290.99 1221.38 293.656 1219.44C296.344 1217.48 300.115 1216.5 304.969 1216.5H310.594V1213.84C310.594 1211.82 309.99 1210.22 308.781 1209.03C307.573 1207.82 305.792 1207.22 303.438 1207.22C301.375 1207.22 299.646 1207.74 298.25 1208.78C296.854 1209.82 296.156 1211.08 296.156 1212.56H290.344C290.344 1210.88 290.938 1209.25 292.125 1207.69C293.333 1206.1 294.958 1204.85 297 1203.94C299.062 1203.02 301.323 1202.56 303.781 1202.56C307.677 1202.56 310.729 1203.54 312.938 1205.5C315.146 1207.44 316.292 1210.11 316.375 1213.53V1229.09C316.375 1232.2 316.771 1234.67 317.562 1236.5V1237H311.5ZM301.906 1232.59C303.719 1232.59 305.438 1232.12 307.062 1231.19C308.688 1230.25 309.865 1229.03 310.594 1227.53V1220.59H306.062C298.979 1220.59 295.438 1222.67 295.438 1226.81C295.438 1228.62 296.042 1230.04 297.25 1231.06C298.458 1232.08 300.01 1232.59 301.906 1232.59ZM345.125 1228.03C345.125 1226.47 344.531 1225.26 343.344 1224.41C342.177 1223.53 340.125 1222.78 337.188 1222.16C334.271 1221.53 331.948 1220.78 330.219 1219.91C328.51 1219.03 327.24 1217.99 326.406 1216.78C325.594 1215.57 325.188 1214.14 325.188 1212.47C325.188 1209.7 326.354 1207.35 328.688 1205.44C331.042 1203.52 334.042 1202.56 337.688 1202.56C341.521 1202.56 344.625 1203.55 347 1205.53C349.396 1207.51 350.594 1210.04 350.594 1213.12H344.781C344.781 1211.54 344.104 1210.18 342.75 1209.03C341.417 1207.89 339.729 1207.31 337.688 1207.31C335.583 1207.31 333.938 1207.77 332.75 1208.69C331.562 1209.6 330.969 1210.8 330.969 1212.28C330.969 1213.68 331.521 1214.73 332.625 1215.44C333.729 1216.15 335.719 1216.82 338.594 1217.47C341.49 1218.11 343.833 1218.89 345.625 1219.78C347.417 1220.68 348.74 1221.76 349.594 1223.03C350.469 1224.28 350.906 1225.81 350.906 1227.62C350.906 1230.65 349.698 1233.07 347.281 1234.91C344.865 1236.72 341.729 1237.62 337.875 1237.62C335.167 1237.62 332.771 1237.15 330.688 1236.19C328.604 1235.23 326.969 1233.9 325.781 1232.19C324.615 1230.46 324.031 1228.59 324.031 1226.59H329.812C329.917 1228.53 330.688 1230.07 332.125 1231.22C333.583 1232.34 335.5 1232.91 337.875 1232.91C340.062 1232.91 341.812 1232.47 343.125 1231.59C344.458 1230.7 345.125 1229.51 345.125 1228.03ZM378.125 1228.03C378.125 1226.47 377.531 1225.26 376.344 1224.41C375.177 1223.53 373.125 1222.78 370.188 1222.16C367.271 1221.53 364.948 1220.78 363.219 1219.91C361.51 1219.03 360.24 1217.99 359.406 1216.78C358.594 1215.57 358.188 1214.14 358.188 1212.47C358.188 1209.7 359.354 1207.35 361.688 1205.44C364.042 1203.52 367.042 1202.56 370.688 1202.56C374.521 1202.56 377.625 1203.55 380 1205.53C382.396 1207.51 383.594 1210.04 383.594 1213.12H377.781C377.781 1211.54 377.104 1210.18 375.75 1209.03C374.417 1207.89 372.729 1207.31 370.688 1207.31C368.583 1207.31 366.938 1207.77 365.75 1208.69C364.562 1209.6 363.969 1210.8 363.969 1212.28C363.969 1213.68 364.521 1214.73 365.625 1215.44C366.729 1216.15 368.719 1216.82 371.594 1217.47C374.49 1218.11 376.833 1218.89 378.625 1219.78C380.417 1220.68 381.74 1221.76 382.594 1223.03C383.469 1224.28 383.906 1225.81 383.906 1227.62C383.906 1230.65 382.698 1233.07 380.281 1234.91C377.865 1236.72 374.729 1237.62 370.875 1237.62C368.167 1237.62 365.771 1237.15 363.688 1236.19C361.604 1235.23 359.969 1233.9 358.781 1232.19C357.615 1230.46 357.031 1228.59 357.031 1226.59H362.812C362.917 1228.53 363.688 1230.07 365.125 1231.22C366.583 1232.34 368.5 1232.91 370.875 1232.91C373.062 1232.91 374.812 1232.47 376.125 1231.59C377.458 1230.7 378.125 1229.51 378.125 1228.03Z" fill="black"/>
<path d="M432.688 1227.62H416.25L413.125 1237H403.156L420.094 1191.5H428.781L445.812 1237H435.844L432.688 1227.62ZM418.781 1220.03H430.156L424.438 1203L418.781 1220.03Z" fill="#355FB3"/>
<path d="M267.75 1477.56C267.188 1482.38 265.406 1486.09 262.406 1488.72C259.427 1491.32 255.458 1492.62 250.5 1492.62C245.125 1492.62 240.812 1490.7 237.562 1486.84C234.333 1482.99 232.719 1477.83 232.719 1471.38V1467C232.719 1462.77 233.469 1459.05 234.969 1455.84C236.49 1452.64 238.635 1450.18 241.406 1448.47C244.177 1446.74 247.385 1445.88 251.031 1445.88C255.865 1445.88 259.74 1447.23 262.656 1449.94C265.573 1452.62 267.271 1456.35 267.75 1461.12H261.719C261.198 1457.5 260.062 1454.88 258.312 1453.25C256.583 1451.62 254.156 1450.81 251.031 1450.81C247.198 1450.81 244.188 1452.23 242 1455.06C239.833 1457.9 238.75 1461.93 238.75 1467.16V1471.56C238.75 1476.5 239.781 1480.43 241.844 1483.34C243.906 1486.26 246.792 1487.72 250.5 1487.72C253.833 1487.72 256.385 1486.97 258.156 1485.47C259.948 1483.95 261.135 1481.31 261.719 1477.56H267.75ZM281.344 1492H275.562V1444H281.344V1492ZM311.5 1492C311.167 1491.33 310.896 1490.15 310.688 1488.44C308 1491.23 304.792 1492.62 301.062 1492.62C297.729 1492.62 294.99 1491.69 292.844 1489.81C290.719 1487.92 289.656 1485.52 289.656 1482.62C289.656 1479.1 290.99 1476.38 293.656 1474.44C296.344 1472.48 300.115 1471.5 304.969 1471.5H310.594V1468.84C310.594 1466.82 309.99 1465.22 308.781 1464.03C307.573 1462.82 305.792 1462.22 303.438 1462.22C301.375 1462.22 299.646 1462.74 298.25 1463.78C296.854 1464.82 296.156 1466.08 296.156 1467.56H290.344C290.344 1465.88 290.938 1464.25 292.125 1462.69C293.333 1461.1 294.958 1459.85 297 1458.94C299.062 1458.02 301.323 1457.56 303.781 1457.56C307.677 1457.56 310.729 1458.54 312.938 1460.5C315.146 1462.44 316.292 1465.11 316.375 1468.53V1484.09C316.375 1487.2 316.771 1489.67 317.562 1491.5V1492H311.5ZM301.906 1487.59C303.719 1487.59 305.438 1487.12 307.062 1486.19C308.688 1485.25 309.865 1484.03 310.594 1482.53V1475.59H306.062C298.979 1475.59 295.438 1477.67 295.438 1481.81C295.438 1483.62 296.042 1485.04 297.25 1486.06C298.458 1487.08 300.01 1487.59 301.906 1487.59ZM345.125 1483.03C345.125 1481.47 344.531 1480.26 343.344 1479.41C342.177 1478.53 340.125 1477.78 337.188 1477.16C334.271 1476.53 331.948 1475.78 330.219 1474.91C328.51 1474.03 327.24 1472.99 326.406 1471.78C325.594 1470.57 325.188 1469.14 325.188 1467.47C325.188 1464.7 326.354 1462.35 328.688 1460.44C331.042 1458.52 334.042 1457.56 337.688 1457.56C341.521 1457.56 344.625 1458.55 347 1460.53C349.396 1462.51 350.594 1465.04 350.594 1468.12H344.781C344.781 1466.54 344.104 1465.18 342.75 1464.03C341.417 1462.89 339.729 1462.31 337.688 1462.31C335.583 1462.31 333.938 1462.77 332.75 1463.69C331.562 1464.6 330.969 1465.8 330.969 1467.28C330.969 1468.68 331.521 1469.73 332.625 1470.44C333.729 1471.15 335.719 1471.82 338.594 1472.47C341.49 1473.11 343.833 1473.89 345.625 1474.78C347.417 1475.68 348.74 1476.76 349.594 1478.03C350.469 1479.28 350.906 1480.81 350.906 1482.62C350.906 1485.65 349.698 1488.07 347.281 1489.91C344.865 1491.72 341.729 1492.62 337.875 1492.62C335.167 1492.62 332.771 1492.15 330.688 1491.19C328.604 1490.23 326.969 1488.9 325.781 1487.19C324.615 1485.46 324.031 1483.59 324.031 1481.59H329.812C329.917 1483.53 330.688 1485.07 332.125 1486.22C333.583 1487.34 335.5 1487.91 337.875 1487.91C340.062 1487.91 341.812 1487.47 343.125 1486.59C344.458 1485.7 345.125 1484.51 345.125 1483.03ZM378.125 1483.03C378.125 1481.47 377.531 1480.26 376.344 1479.41C375.177 1478.53 373.125 1477.78 370.188 1477.16C367.271 1476.53 364.948 1475.78 363.219 1474.91C361.51 1474.03 360.24 1472.99 359.406 1471.78C358.594 1470.57 358.188 1469.14 358.188 1467.47C358.188 1464.7 359.354 1462.35 361.688 1460.44C364.042 1458.52 367.042 1457.56 370.688 1457.56C374.521 1457.56 377.625 1458.55 380 1460.53C382.396 1462.51 383.594 1465.04 383.594 1468.12H377.781C377.781 1466.54 377.104 1465.18 375.75 1464.03C374.417 1462.89 372.729 1462.31 370.688 1462.31C368.583 1462.31 366.938 1462.77 365.75 1463.69C364.562 1464.6 363.969 1465.8 363.969 1467.28C363.969 1468.68 364.521 1469.73 365.625 1470.44C366.729 1471.15 368.719 1471.82 371.594 1472.47C374.49 1473.11 376.833 1473.89 378.625 1474.78C380.417 1475.68 381.74 1476.76 382.594 1478.03C383.469 1479.28 383.906 1480.81 383.906 1482.62C383.906 1485.65 382.698 1488.07 380.281 1489.91C377.865 1491.72 374.729 1492.62 370.875 1492.62C368.167 1492.62 365.771 1492.15 363.688 1491.19C361.604 1490.23 359.969 1488.9 358.781 1487.19C357.615 1485.46 357.031 1483.59 357.031 1481.59H362.812C362.917 1483.53 363.688 1485.07 365.125 1486.22C366.583 1487.34 368.5 1487.91 370.875 1487.91C373.062 1487.91 374.812 1487.47 376.125 1486.59C377.458 1485.7 378.125 1484.51 378.125 1483.03Z" fill="black"/>
<path d="M432.688 1482.62H416.25L413.125 1492H403.156L420.094 1446.5H428.781L445.812 1492H435.844L432.688 1482.62ZM418.781 1475.03H430.156L424.438 1458L418.781 1475.03Z" fill="#355FB3"/>
<defs>
<clipPath id="clip0">
<rect width="646" height="667" fill="white"/>
</clipPath>
</defs>
</svg>
