<svg width="655" height="254" viewBox="0 0 655 254" fill="none" xmlns="http://www.w3.org/2000/svg">
<rect width="655" height="254" fill="white"/>
<line x1="253.25" y1="1.09278e-08" x2="253.25" y2="254" stroke="black" stroke-width="0.5"/>
<line x1="483" y1="57.25" x2="311" y2="57.25" stroke="black" stroke-width="0.5" stroke-dasharray="5 3"/>
<line x1="618" y1="127.25" x2="311" y2="127.25" stroke="black" stroke-width="0.5" stroke-dasharray="5 3"/>
<path d="M488 57L488.283 56.3055L488 56.1901L487.717 56.3055L488 57ZM488 110L492.33 102.5H483.67L488 110ZM618 110L612.69 103.159L609.42 111.178L618 110ZM358 110L366.58 111.178L363.31 103.159L358 110ZM487.25 57V103.25H488.75V57H487.25ZM487.717 57.6945L611.466 108.146L612.033 106.757L488.283 56.3055L487.717 57.6945ZM487.717 56.3055L363.967 106.757L364.534 108.146L488.283 57.6945L487.717 56.3055Z" fill="#B33535"/>
<path d="M208.263 72L113 17L17.7372 72M208.263 72V182L113 237M208.263 72H17.7372M208.263 72L113 237M113 237L17.7372 182V72" stroke="black" stroke-width="2"/>
<path d="M95.5 18.9997L87.0147 17.2678L89.7575 25.4823L95.5 18.9997ZM17.4999 70.9999C18.0636 71.4946 18.0637 71.4945 18.0638 71.4944C18.0639 71.4942 18.0641 71.494 18.0644 71.4937C18.065 71.493 18.066 71.492 18.0672 71.4905C18.0697 71.4877 18.0735 71.4834 18.0785 71.4776C18.0887 71.4661 18.104 71.4487 18.1243 71.4257C18.165 71.3796 18.2259 71.3108 18.3063 71.2204C18.4669 71.0396 18.7053 70.7726 19.0151 70.4287C19.6348 69.7409 20.5403 68.7458 21.6819 67.5185C23.9653 65.0637 27.1918 61.6814 30.9634 57.9722C38.5188 50.5417 48.2163 41.8448 56.8859 36.6431L56.1141 35.3568C47.2837 40.6551 37.4812 49.4582 29.9116 56.9027C26.1206 60.631 22.8783 64.0299 20.5836 66.4969C19.4361 67.7306 18.5252 68.7315 17.9007 69.4246C17.5885 69.7712 17.3479 70.0407 17.185 70.224C17.1036 70.3156 17.0417 70.3856 16.9999 70.4329C16.9791 70.4565 16.9633 70.4744 16.9526 70.4865C16.9473 70.4926 16.9432 70.4972 16.9405 70.5003C16.9391 70.5019 16.9381 70.503 16.9374 70.5039C16.937 70.5043 16.9367 70.5046 16.9365 70.5048C16.9363 70.505 16.9362 70.5052 17.4999 70.9999ZM56.8859 36.6431C68.3976 29.7359 81.6685 24.5603 89.3477 21.8446L88.8475 20.4304C81.1351 23.1578 67.7539 28.3729 56.1141 35.3568L56.8859 36.6431Z" fill="#B33535"/>
<path d="M191 69L184.015 63.8805L183.074 72.4894L191 69ZM17.5 70.9999C17.5872 71.7448 17.5874 71.7448 17.5878 71.7447C17.5882 71.7447 17.5888 71.7446 17.5897 71.7445C17.5913 71.7443 17.5938 71.744 17.5971 71.7437C17.6038 71.7429 17.6138 71.7417 17.6271 71.7402C17.6538 71.7371 17.6937 71.7324 17.7467 71.7263C17.8526 71.714 18.0105 71.6958 18.2184 71.672C18.6341 71.6245 19.2493 71.5548 20.0468 71.466C21.642 71.2884 23.9665 71.0347 26.8826 70.7302C32.715 70.1213 40.9134 69.3092 50.3766 68.4972C69.3078 66.8728 93.2825 65.25 113.5 65.25L113.5 63.75C93.2176 63.75 69.1922 65.3772 50.2484 67.0027C40.7741 67.8157 32.5663 68.6286 26.7268 69.2384C23.807 69.5432 21.4791 69.7973 19.8809 69.9752C19.0818 70.0642 18.4651 70.1341 18.048 70.1818C17.8394 70.2056 17.6808 70.2239 17.5742 70.2362C17.5209 70.2424 17.4806 70.2471 17.4536 70.2502C17.4401 70.2518 17.43 70.253 17.4231 70.2538C17.4197 70.2542 17.4172 70.2545 17.4154 70.2547C17.4146 70.2548 17.4139 70.2549 17.4135 70.2549C17.413 70.255 17.4128 70.255 17.5 70.9999ZM113.5 65.25C143.6 65.2499 171.769 67.7388 184.216 69.0128L184.369 67.5206C171.898 66.2441 143.672 63.7499 113.5 63.75L113.5 65.25Z" fill="#B33535"/>
<path d="M24.5 166L29.5657 158.976L20.9498 158.101L24.5 166ZM17.5 71C16.7819 71.2165 16.782 71.2166 16.782 71.2168C16.7821 71.217 16.7822 71.2173 16.7823 71.2177C16.7826 71.2186 16.783 71.2199 16.7835 71.2218C16.7846 71.2254 16.7863 71.231 16.7885 71.2384C16.793 71.2533 16.7997 71.2757 16.8086 71.3054C16.8263 71.3649 16.8528 71.4539 16.8873 71.5711C16.9565 71.8054 17.0581 72.1525 17.1875 72.602C17.4463 73.501 17.8163 74.8098 18.2606 76.4464C19.1491 79.7199 20.3338 84.3031 21.5185 89.5404C23.8912 100.03 26.25 113.088 26.25 123.5L27.75 123.5C27.75 112.912 25.3588 99.7196 22.9815 89.2095C21.7912 83.9468 20.6009 79.3425 19.7082 76.0535C19.2618 74.4088 18.8896 73.0927 18.6289 72.187C18.4986 71.7342 18.3961 71.384 18.326 71.1466C18.291 71.028 18.2641 70.9375 18.2459 70.8765C18.2368 70.846 18.2299 70.8229 18.2253 70.8074C18.2229 70.7996 18.2211 70.7937 18.2199 70.7897C18.2193 70.7877 18.2189 70.7862 18.2186 70.7851C18.2184 70.7846 18.2183 70.7842 18.2182 70.7839C18.2181 70.7836 18.2181 70.7834 17.5 71ZM26.25 123.5C26.25 137.255 25.1745 151.233 24.4352 159.215L25.9288 159.354C26.6699 151.352 27.75 137.322 27.75 123.5L26.25 123.5Z" fill="#B33535"/>
<path d="M284.251 59.93C283.777 58.4724 283.882 58.6129 283.443 57.3835C282.899 55.8731 282.758 55.7502 282.512 55.5043C282.196 55.2233 281.599 55.0126 280.985 55.0126C280.001 55.0126 279.527 55.9258 279.527 56.1541C279.527 56.2595 279.615 56.3122 279.72 56.3122C279.861 56.3122 279.896 56.2244 279.913 56.1541C280.177 55.4692 280.721 55.3638 280.879 55.3638C281.388 55.3638 281.88 56.6283 282.196 57.4713C282.618 58.5426 282.829 59.2802 283.303 60.9838L279.158 65.6905C279 65.8837 279 65.9539 279 65.9715C279 66.112 279.088 66.1471 279.158 66.1471C279.228 66.1471 279.281 66.112 279.334 66.0593C279.825 65.5675 280.914 64.2679 281.371 63.741L283.408 61.4228C284.269 64.1274 284.269 64.1625 284.532 64.8123C284.813 65.4797 285.182 66.3403 286.675 66.3403C287.676 66.3403 288.132 65.4446 288.132 65.1987C288.132 65.0758 288.027 65.0407 287.939 65.0407C287.799 65.0407 287.781 65.1109 287.728 65.2514C287.535 65.7432 287.079 65.989 286.798 65.989C286.569 65.989 286.288 65.989 285.516 64.0396C285.059 62.8629 284.655 61.4579 284.357 60.3691L288.519 55.6273C288.659 55.4692 288.677 55.4516 288.677 55.3814C288.677 55.2584 288.589 55.2058 288.501 55.2058C288.449 55.2058 288.396 55.2058 288.22 55.3989L284.251 59.93Z" fill="black"/>
<path d="M293.087 56.7082C293.181 56.7082 293.321 56.7082 293.321 56.5677C293.321 56.5209 293.31 56.5092 293.157 56.357C291.553 54.8466 291.155 52.6689 291.155 50.8541C291.155 47.4821 292.549 45.9015 293.146 45.3629C293.31 45.2107 293.321 45.199 293.321 45.1405C293.321 45.082 293.275 45 293.157 45C292.97 45 292.385 45.5971 292.291 45.7025C290.722 47.3416 290.394 49.4491 290.394 50.8541C290.394 53.4767 291.495 55.5842 293.087 56.7082Z" fill="black"/>
<path d="M297.685 46.3232C297.685 46.007 297.661 45.9953 297.345 45.9953C296.865 46.4637 296.244 46.7446 295.132 46.7446V47.131C295.448 47.131 296.081 47.131 296.76 46.8149V52.8212C296.76 53.2544 296.725 53.3949 295.612 53.3949H295.202V53.7813C295.682 53.7462 296.689 53.7462 297.216 53.7462C297.743 53.7462 298.762 53.7462 299.242 53.7813V53.3949H298.832C297.72 53.3949 297.685 53.2544 297.685 52.8212V46.3232Z" fill="black"/>
<path d="M303.823 50.8541C303.823 49.7418 303.635 48.4071 302.91 47.0255C302.336 45.9484 301.27 45 301.06 45C300.943 45 300.907 45.082 300.907 45.1405C300.907 45.1873 300.907 45.2107 301.048 45.3512C302.687 46.9084 303.062 49.051 303.062 50.8541C303.062 54.2144 301.668 55.8067 301.071 56.3452C300.919 56.4975 300.907 56.5092 300.907 56.5677C300.907 56.6263 300.943 56.7082 301.06 56.7082C301.247 56.7082 301.832 56.1111 301.926 56.0057C303.495 54.3666 303.823 52.2591 303.823 50.8541Z" fill="black"/>
<path d="M298.52 59.5925C298.531 59.5456 298.555 59.4754 298.555 59.4168C298.555 59.3349 298.485 59.2763 298.403 59.2763C298.321 59.2763 298.286 59.3115 298.192 59.4168L297.372 60.3184C296.834 59.569 296.073 59.2763 295.277 59.2763C292.537 59.2763 289.809 61.8053 289.809 64.4865C289.809 66.4418 291.261 67.7648 293.251 67.7648C294.516 67.7648 295.452 67.3082 295.885 66.8047C296.026 67.1794 296.307 67.5072 296.424 67.5072C296.471 67.5072 296.529 67.4838 296.553 67.437C296.623 67.2379 296.904 66.0437 296.986 65.7159C297.091 65.2475 297.173 64.9197 297.244 64.826C297.349 64.6855 297.571 64.6738 297.923 64.6738C297.981 64.6738 298.157 64.6738 298.157 64.4631C298.157 64.346 298.075 64.2875 297.981 64.2875C297.899 64.2875 297.759 64.3226 296.623 64.3226C296.33 64.3226 295.932 64.3226 295.757 64.3109C295.581 64.2992 295.113 64.2875 294.937 64.2875C294.867 64.2875 294.691 64.2875 294.691 64.5099C294.691 64.6738 294.82 64.6738 295.124 64.6738C295.37 64.6738 295.815 64.6738 296.096 64.7792C296.108 64.8026 296.12 64.8729 296.12 64.9197C296.12 64.9782 296.049 65.2358 296.014 65.388C295.944 65.6924 295.815 66.1842 295.768 66.3013C295.394 67.0857 294.258 67.3784 293.45 67.3784C292.291 67.3784 290.933 66.7696 290.933 64.8612C290.933 63.8894 291.331 62.2034 292.361 61.0794C293.485 59.8618 294.75 59.6627 295.359 59.6627C296.787 59.6627 297.443 60.7867 297.443 61.9692C297.443 62.1331 297.396 62.3439 297.396 62.4844C297.396 62.6366 297.548 62.6366 297.595 62.6366C297.747 62.6366 297.77 62.5898 297.817 62.379L298.52 59.5925Z" fill="black"/>
<path d="M301.035 67.3432C301.035 68.1042 300.871 68.7716 300.145 69.4975C300.098 69.5326 300.075 69.556 300.075 69.6146C300.075 69.7082 300.169 69.7785 300.251 69.7785C300.391 69.7785 301.363 68.8535 301.363 67.4837C301.363 66.7343 301.082 66.2192 300.567 66.2192C300.157 66.2192 299.923 66.547 299.923 66.8631C299.923 67.191 300.145 67.5188 300.578 67.5188C300.859 67.5188 301.035 67.3549 301.035 67.3432Z" fill="black"/>
<path d="M305.965 60.0606C305.965 59.7445 305.941 59.7328 305.625 59.7328C305.145 60.2011 304.525 60.4821 303.412 60.4821V60.8685C303.729 60.8685 304.361 60.8685 305.04 60.5523V66.5586C305.04 66.9918 305.005 67.1323 303.892 67.1323H303.483V67.5187C303.963 67.4836 304.97 67.4836 305.496 67.4836C306.023 67.4836 307.042 67.4836 307.522 67.5187V67.1323H307.112C306 67.1323 305.965 66.9918 305.965 66.5586V60.0606Z" fill="black"/>
<circle cx="18" cy="72" r="14" fill="white" stroke="#B33535" stroke-width="2"/>
<path d="M18.5516 68.1766C18.5516 67.0702 17.9896 67 17.8491 67C17.4276 67 17.0413 67.4215 17.0413 67.7727C17.0413 67.9835 17.1642 68.1064 17.2344 68.1766C17.4101 68.3347 17.8667 68.8089 17.8667 69.7221C17.8667 70.4597 16.813 74.5692 14.7055 74.5692C13.6343 74.5692 13.4235 73.6735 13.4235 73.0237C13.4235 72.1456 13.8275 70.9163 14.3016 69.6518C14.5826 68.9318 14.6529 68.7562 14.6529 68.4049C14.6529 67.6674 14.126 67 13.2655 67C11.6498 67 11 69.5465 11 69.687C11 69.7572 11.0702 69.845 11.1932 69.845C11.3512 69.845 11.3688 69.7748 11.439 69.5289C11.8605 68.0186 12.5454 67.3512 13.2128 67.3512C13.3709 67.3512 13.6694 67.3512 13.6694 67.9308C13.6694 68.3874 13.4762 68.8967 13.2128 69.564C12.3698 71.8119 12.3698 72.3564 12.3698 72.7778C12.3698 73.1642 12.4225 73.8842 12.9669 74.376C13.5991 74.9204 14.4772 74.9204 14.6353 74.9204C17.5506 74.9204 18.5516 69.1777 18.5516 68.1766Z" fill="#B33535"/>
<path d="M22.4844 69.9211C22.4844 69.605 22.4609 69.5933 22.1448 69.5933C21.6648 70.0616 21.0443 70.3426 19.932 70.3426V70.729C20.2482 70.729 20.8804 70.729 21.5594 70.4129V76.419C21.5594 76.8522 21.5243 76.9927 20.4121 76.9927H20.0023V77.3791C20.4823 77.3439 21.4892 77.3439 22.016 77.3439C22.5429 77.3439 23.5615 77.3439 24.0415 77.3791V76.9927H23.6317C22.5195 76.9927 22.4844 76.8522 22.4844 76.419V69.9211Z" fill="#B33535"/>
<circle cx="488" cy="57" r="14" fill="white" stroke="#B33535" stroke-width="2"/>
<path d="M488.552 53.1766C488.552 52.0702 487.99 52 487.849 52C487.428 52 487.041 52.4215 487.041 52.7727C487.041 52.9835 487.164 53.1064 487.234 53.1766C487.41 53.3347 487.867 53.8089 487.867 54.7221C487.867 55.4597 486.813 59.5692 484.706 59.5692C483.634 59.5692 483.424 58.6735 483.424 58.0237C483.424 57.1456 483.827 55.9163 484.302 54.6518C484.583 53.9318 484.653 53.7562 484.653 53.4049C484.653 52.6674 484.126 52 483.265 52C481.65 52 481 54.5465 481 54.687C481 54.7572 481.07 54.845 481.193 54.845C481.351 54.845 481.369 54.7748 481.439 54.5289C481.861 53.0186 482.545 52.3512 483.213 52.3512C483.371 52.3512 483.669 52.3512 483.669 52.9308C483.669 53.3874 483.476 53.8967 483.213 54.564C482.37 56.8119 482.37 57.3564 482.37 57.7778C482.37 58.1642 482.423 58.8842 482.967 59.376C483.599 59.9204 484.477 59.9204 484.635 59.9204C487.551 59.9204 488.552 54.1777 488.552 53.1766Z" fill="#B33535"/>
<path d="M492.484 54.9211C492.484 54.605 492.461 54.5933 492.145 54.5933C491.665 55.0616 491.044 55.3426 489.932 55.3426V55.729C490.248 55.729 490.88 55.729 491.559 55.4129V61.419C491.559 61.8522 491.524 61.9927 490.412 61.9927H490.002V62.3791C490.482 62.3439 491.489 62.3439 492.016 62.3439C492.543 62.3439 493.561 62.3439 494.041 62.3791V61.9927H493.632C492.519 61.9927 492.484 61.8522 492.484 61.419V54.9211Z" fill="#B33535"/>
<circle cx="113" cy="17" r="14" fill="white" stroke="#355FB3" stroke-width="2"/>
<path d="M113.552 13.1766C113.552 12.0702 112.99 12 112.849 12C112.428 12 112.041 12.4215 112.041 12.7727C112.041 12.9835 112.164 13.1064 112.234 13.1766C112.41 13.3347 112.867 13.8089 112.867 14.7221C112.867 15.4597 111.813 19.5692 109.706 19.5692C108.634 19.5692 108.424 18.6735 108.424 18.0237C108.424 17.1456 108.827 15.9163 109.302 14.6518C109.583 13.9318 109.653 13.7562 109.653 13.4049C109.653 12.6674 109.126 12 108.265 12C106.65 12 106 14.5465 106 14.687C106 14.7572 106.07 14.845 106.193 14.845C106.351 14.845 106.369 14.7748 106.439 14.5289C106.861 13.0186 107.545 12.3512 108.213 12.3512C108.371 12.3512 108.669 12.3512 108.669 12.9308C108.669 13.3874 108.476 13.8967 108.213 14.564C107.37 16.8119 107.37 17.3564 107.37 17.7778C107.37 18.1642 107.423 18.8842 107.967 19.376C108.599 19.9204 109.477 19.9204 109.635 19.9204C112.551 19.9204 113.552 14.1777 113.552 13.1766Z" fill="#355FB3"/>
<path d="M117.11 19.9907C117.297 19.815 117.789 19.4287 117.976 19.2648C118.702 18.5974 119.393 17.9535 119.393 16.8881C119.393 15.4948 118.222 14.5933 116.758 14.5933C115.353 14.5933 114.429 15.6587 114.429 16.7007C114.429 17.2744 114.885 17.3564 115.049 17.3564C115.295 17.3564 115.658 17.1808 115.658 16.7359C115.658 16.127 115.073 16.127 114.932 16.127C115.272 15.2724 116.056 14.9797 116.63 14.9797C117.718 14.9797 118.28 15.9046 118.28 16.8881C118.28 18.1057 117.426 18.9955 116.044 20.4121L114.569 21.9342C114.429 22.0629 114.429 22.0864 114.429 22.3791H119.053L119.393 20.2834H119.03C118.995 20.5175 118.901 21.1029 118.76 21.3254C118.69 21.419 117.8 21.419 117.613 21.419H115.529L117.11 19.9907Z" fill="#355FB3"/>
<circle cx="358" cy="127" r="14" fill="white" stroke="#355FB3" stroke-width="2"/>
<path d="M358.552 123.177C358.552 122.07 357.99 122 357.849 122C357.428 122 357.041 122.421 357.041 122.773C357.041 122.983 357.164 123.106 357.234 123.177C357.41 123.335 357.867 123.809 357.867 124.722C357.867 125.46 356.813 129.569 354.706 129.569C353.634 129.569 353.424 128.673 353.424 128.024C353.424 127.146 353.827 125.916 354.302 124.652C354.583 123.932 354.653 123.756 354.653 123.405C354.653 122.667 354.126 122 353.265 122C351.65 122 351 124.546 351 124.687C351 124.757 351.07 124.845 351.193 124.845C351.351 124.845 351.369 124.775 351.439 124.529C351.861 123.019 352.545 122.351 353.213 122.351C353.371 122.351 353.669 122.351 353.669 122.931C353.669 123.387 353.476 123.897 353.213 124.564C352.37 126.812 352.37 127.356 352.37 127.778C352.37 128.164 352.423 128.884 352.967 129.376C353.599 129.92 354.477 129.92 354.635 129.92C357.551 129.92 358.552 124.178 358.552 123.177Z" fill="#355FB3"/>
<path d="M362.11 129.991C362.297 129.815 362.789 129.429 362.976 129.265C363.702 128.597 364.393 127.953 364.393 126.888C364.393 125.495 363.222 124.593 361.758 124.593C360.353 124.593 359.429 125.659 359.429 126.701C359.429 127.274 359.885 127.356 360.049 127.356C360.295 127.356 360.658 127.181 360.658 126.736C360.658 126.127 360.073 126.127 359.932 126.127C360.272 125.272 361.056 124.98 361.63 124.98C362.718 124.98 363.28 125.905 363.28 126.888C363.28 128.106 362.426 128.995 361.044 130.412L359.569 131.934C359.429 132.063 359.429 132.086 359.429 132.379H364.053L364.393 130.283H364.03C363.995 130.518 363.901 131.103 363.76 131.325C363.69 131.419 362.8 131.419 362.613 131.419H360.529L362.11 129.991Z" fill="#355FB3"/>
<circle cx="208" cy="72" r="14" fill="white" stroke="#355FB3" stroke-width="2"/>
<path d="M208.552 68.1766C208.552 67.0702 207.99 67 207.849 67C207.428 67 207.041 67.4215 207.041 67.7727C207.041 67.9835 207.164 68.1064 207.234 68.1766C207.41 68.3347 207.867 68.8089 207.867 69.7221C207.867 70.4597 206.813 74.5692 204.706 74.5692C203.634 74.5692 203.424 73.6735 203.424 73.0237C203.424 72.1456 203.827 70.9163 204.302 69.6518C204.583 68.9318 204.653 68.7562 204.653 68.4049C204.653 67.6674 204.126 67 203.265 67C201.65 67 201 69.5465 201 69.687C201 69.7572 201.07 69.845 201.193 69.845C201.351 69.845 201.369 69.7748 201.439 69.5289C201.861 68.0186 202.545 67.3512 203.213 67.3512C203.371 67.3512 203.669 67.3512 203.669 67.9308C203.669 68.3874 203.476 68.8967 203.213 69.564C202.37 71.8119 202.37 72.3564 202.37 72.7778C202.37 73.1642 202.423 73.8842 202.967 74.376C203.599 74.9204 204.477 74.9204 204.635 74.9204C207.551 74.9204 208.552 69.1777 208.552 68.1766Z" fill="#355FB3"/>
<path d="M211.77 73.4686C212.695 73.4686 213.28 74.1477 213.28 75.377C213.28 76.8405 212.449 77.2737 211.829 77.2737C211.185 77.2737 210.307 77.0395 209.897 76.419C210.318 76.419 210.611 76.1497 210.611 75.7634C210.611 75.3887 210.342 75.1194 209.967 75.1194C209.651 75.1194 209.323 75.3185 209.323 75.7868C209.323 76.899 210.517 77.6249 211.852 77.6249C213.409 77.6249 214.498 76.5478 214.498 75.377C214.498 74.4053 213.725 73.5155 212.531 73.2579C213.456 72.9301 214.147 72.1339 214.147 71.1973C214.147 70.2607 213.093 69.5933 211.875 69.5933C210.623 69.5933 209.674 70.2724 209.674 71.1622C209.674 71.5954 209.967 71.7827 210.271 71.7827C210.634 71.7827 210.869 71.5251 210.869 71.1856C210.869 70.7524 210.494 70.5885 210.236 70.5768C210.728 69.9328 211.63 69.8977 211.84 69.8977C212.145 69.8977 213.035 69.9914 213.035 71.1973C213.035 72.0169 212.695 72.5086 212.531 72.6959C212.18 73.0589 211.911 73.0823 211.196 73.1291C210.974 73.1408 210.88 73.1525 210.88 73.3047C210.88 73.4686 210.986 73.4686 211.185 73.4686H211.77Z" fill="#355FB3"/>
<circle cx="488" cy="127" r="14" fill="white" stroke="#355FB3" stroke-width="2"/>
<path d="M488.552 123.177C488.552 122.07 487.99 122 487.849 122C487.428 122 487.041 122.421 487.041 122.773C487.041 122.983 487.164 123.106 487.234 123.177C487.41 123.335 487.867 123.809 487.867 124.722C487.867 125.46 486.813 129.569 484.706 129.569C483.634 129.569 483.424 128.673 483.424 128.024C483.424 127.146 483.827 125.916 484.302 124.652C484.583 123.932 484.653 123.756 484.653 123.405C484.653 122.667 484.126 122 483.265 122C481.65 122 481 124.546 481 124.687C481 124.757 481.07 124.845 481.193 124.845C481.351 124.845 481.369 124.775 481.439 124.529C481.861 123.019 482.545 122.351 483.213 122.351C483.371 122.351 483.669 122.351 483.669 122.931C483.669 123.387 483.476 123.897 483.213 124.564C482.37 126.812 482.37 127.356 482.37 127.778C482.37 128.164 482.423 128.884 482.967 129.376C483.599 129.92 484.477 129.92 484.635 129.92C487.551 129.92 488.552 124.178 488.552 123.177Z" fill="#355FB3"/>
<path d="M491.77 128.469C492.695 128.469 493.28 129.148 493.28 130.377C493.28 131.84 492.449 132.274 491.829 132.274C491.185 132.274 490.307 132.04 489.897 131.419C490.318 131.419 490.611 131.15 490.611 130.763C490.611 130.389 490.342 130.119 489.967 130.119C489.651 130.119 489.323 130.318 489.323 130.787C489.323 131.899 490.517 132.625 491.852 132.625C493.409 132.625 494.498 131.548 494.498 130.377C494.498 129.405 493.725 128.515 492.531 128.258C493.456 127.93 494.147 127.134 494.147 126.197C494.147 125.261 493.093 124.593 491.875 124.593C490.623 124.593 489.674 125.272 489.674 126.162C489.674 126.595 489.967 126.783 490.272 126.783C490.634 126.783 490.869 126.525 490.869 126.186C490.869 125.752 490.494 125.588 490.236 125.577C490.728 124.933 491.63 124.898 491.84 124.898C492.145 124.898 493.035 124.991 493.035 126.197C493.035 127.017 492.695 127.509 492.531 127.696C492.18 128.059 491.911 128.082 491.196 128.129C490.974 128.141 490.88 128.153 490.88 128.305C490.88 128.469 490.986 128.469 491.185 128.469H491.77Z" fill="#355FB3"/>
<circle cx="208" cy="182" r="14" fill="white" stroke="black" stroke-width="2"/>
<path d="M208.552 178.177C208.552 177.07 207.99 177 207.849 177C207.428 177 207.041 177.421 207.041 177.773C207.041 177.983 207.164 178.106 207.234 178.177C207.41 178.335 207.867 178.809 207.867 179.722C207.867 180.46 206.813 184.569 204.706 184.569C203.634 184.569 203.424 183.673 203.424 183.024C203.424 182.146 203.827 180.916 204.302 179.652C204.583 178.932 204.653 178.756 204.653 178.405C204.653 177.667 204.126 177 203.265 177C201.65 177 201 179.546 201 179.687C201 179.757 201.07 179.845 201.193 179.845C201.351 179.845 201.369 179.775 201.439 179.529C201.861 178.019 202.545 177.351 203.213 177.351C203.371 177.351 203.669 177.351 203.669 177.931C203.669 178.387 203.476 178.897 203.213 179.564C202.37 181.812 202.37 182.356 202.37 182.778C202.37 183.164 202.423 183.884 202.967 184.376C203.599 184.92 204.477 184.92 204.635 184.92C207.551 184.92 208.552 179.178 208.552 178.177Z" fill="black"/>
<path d="M213.421 179.804C213.421 179.57 213.421 179.476 213.175 179.476C213.023 179.476 213.011 179.488 212.894 179.652L209.159 185.073V185.459H212.461V186.431C212.461 186.864 212.426 186.993 211.524 186.993H211.255V187.379C212.25 187.344 212.274 187.344 212.941 187.344C213.608 187.344 213.632 187.344 214.627 187.379V186.993H214.358C213.456 186.993 213.421 186.864 213.421 186.431V185.459H214.662V185.073H213.421V179.804ZM212.543 180.752V185.073H209.569L212.543 180.752Z" fill="black"/>
<circle cx="113" cy="237" r="14" fill="white" stroke="black" stroke-width="2"/>
<path d="M113.552 233.177C113.552 232.07 112.99 232 112.849 232C112.428 232 112.041 232.421 112.041 232.773C112.041 232.983 112.164 233.106 112.234 233.177C112.41 233.335 112.867 233.809 112.867 234.722C112.867 235.46 111.813 239.569 109.706 239.569C108.634 239.569 108.424 238.673 108.424 238.024C108.424 237.146 108.827 235.916 109.302 234.652C109.583 233.932 109.653 233.756 109.653 233.405C109.653 232.667 109.126 232 108.265 232C106.65 232 106 234.546 106 234.687C106 234.757 106.07 234.845 106.193 234.845C106.351 234.845 106.369 234.775 106.439 234.529C106.861 233.019 107.545 232.351 108.213 232.351C108.371 232.351 108.669 232.351 108.669 232.931C108.669 233.387 108.476 233.897 108.213 234.564C107.37 236.812 107.37 237.356 107.37 237.778C107.37 238.164 107.423 238.884 107.967 239.376C108.599 239.92 109.477 239.92 109.635 239.92C112.551 239.92 113.552 234.178 113.552 233.177Z" fill="black"/>
<path d="M115.447 235.799C115.599 235.846 116.068 235.963 116.559 235.963C118.023 235.963 118.913 234.933 118.913 234.757C118.913 234.628 118.831 234.593 118.772 234.593C118.749 234.593 118.725 234.593 118.62 234.652C118.163 234.828 117.625 234.968 116.993 234.968C116.302 234.968 115.728 234.792 115.365 234.652C115.248 234.593 115.225 234.593 115.213 234.593C115.061 234.593 115.061 234.722 115.061 234.933V238.363C115.061 238.574 115.061 238.715 115.248 238.715C115.342 238.715 115.377 238.668 115.435 238.574C115.576 238.398 116.021 237.801 117.016 237.801C117.672 237.801 117.988 238.34 118.093 238.562C118.292 238.984 118.316 239.522 118.316 239.979C118.316 240.412 118.304 241.044 117.976 241.56C117.754 241.911 117.285 242.274 116.665 242.274C115.904 242.274 115.154 241.794 114.885 241.033C114.92 241.044 114.991 241.044 115.002 241.044C115.33 241.044 115.588 240.834 115.588 240.471C115.588 240.038 115.248 239.885 115.014 239.885C114.803 239.885 114.429 240.002 114.429 240.506C114.429 241.56 115.342 242.625 116.688 242.625C118.152 242.625 119.393 241.489 119.393 240.038C119.393 238.679 118.409 237.473 117.028 237.473C116.442 237.473 115.892 237.661 115.447 238.059V235.799Z" fill="black"/>
<circle cx="18" cy="182" r="14" fill="white" stroke="#355FB3" stroke-width="2"/>
<path d="M18.5516 178.177C18.5516 177.07 17.9896 177 17.8491 177C17.4276 177 17.0413 177.421 17.0413 177.773C17.0413 177.983 17.1642 178.106 17.2344 178.177C17.4101 178.335 17.8667 178.809 17.8667 179.722C17.8667 180.46 16.813 184.569 14.7055 184.569C13.6343 184.569 13.4235 183.673 13.4235 183.024C13.4235 182.146 13.8275 180.916 14.3016 179.652C14.5826 178.932 14.6529 178.756 14.6529 178.405C14.6529 177.667 14.126 177 13.2655 177C11.6498 177 11 179.546 11 179.687C11 179.757 11.0702 179.845 11.1932 179.845C11.3512 179.845 11.3688 179.775 11.439 179.529C11.8605 178.019 12.5454 177.351 13.2128 177.351C13.3709 177.351 13.6694 177.351 13.6694 177.931C13.6694 178.387 13.4762 178.897 13.2128 179.564C12.3698 181.812 12.3698 182.356 12.3698 182.778C12.3698 183.164 12.4225 183.884 12.9669 184.376C13.5991 184.92 14.4772 184.92 14.6353 184.92C17.5506 184.92 18.5516 179.178 18.5516 178.177Z" fill="#355FB3"/>
<path d="M20.4238 183.504C20.4238 182.532 20.5057 181.677 20.9272 180.963C21.2785 180.378 21.8756 179.898 22.6132 179.898C22.8473 179.898 23.3859 179.933 23.6552 180.343C23.1283 180.366 23.0815 180.764 23.0815 180.893C23.0815 181.244 23.3508 181.443 23.6318 181.443C23.8425 181.443 24.182 181.314 24.182 180.869C24.182 180.167 23.6552 179.593 22.6015 179.593C20.9741 179.593 19.3232 181.139 19.3232 183.668C19.3232 186.84 20.7984 187.625 21.9341 187.625C22.4961 187.625 23.1049 187.473 23.6318 186.969C24.1001 186.513 24.4981 186.021 24.4981 185.002C24.4981 183.469 23.339 182.391 22.0395 182.391C21.1965 182.391 20.6931 182.93 20.4238 183.504ZM21.9341 187.274C21.3136 187.274 20.9272 186.84 20.7516 186.513C20.4823 185.986 20.4589 185.19 20.4589 184.745C20.4589 183.586 21.0911 182.719 21.9926 182.719C22.578 182.719 22.9293 183.024 23.1517 183.434C23.3976 183.867 23.3976 184.394 23.3976 184.991C23.3976 185.588 23.3976 186.103 23.1634 186.524C22.859 187.063 22.4492 187.274 21.9341 187.274Z" fill="#355FB3"/>
<circle cx="618" cy="127" r="14" fill="white" stroke="#355FB3" stroke-width="2"/>
<path d="M618.552 123.177C618.552 122.07 617.99 122 617.849 122C617.428 122 617.041 122.421 617.041 122.773C617.041 122.983 617.164 123.106 617.234 123.177C617.41 123.335 617.867 123.809 617.867 124.722C617.867 125.46 616.813 129.569 614.706 129.569C613.634 129.569 613.424 128.673 613.424 128.024C613.424 127.146 613.827 125.916 614.302 124.652C614.583 123.932 614.653 123.756 614.653 123.405C614.653 122.667 614.126 122 613.265 122C611.65 122 611 124.546 611 124.687C611 124.757 611.07 124.845 611.193 124.845C611.351 124.845 611.369 124.775 611.439 124.529C611.861 123.019 612.545 122.351 613.213 122.351C613.371 122.351 613.669 122.351 613.669 122.931C613.669 123.387 613.476 123.897 613.213 124.564C612.37 126.812 612.37 127.356 612.37 127.778C612.37 128.164 612.423 128.884 612.967 129.376C613.599 129.92 614.477 129.92 614.635 129.92C617.551 129.92 618.552 124.178 618.552 123.177Z" fill="#355FB3"/>
<path d="M620.424 128.504C620.424 127.532 620.506 126.677 620.927 125.963C621.278 125.378 621.876 124.898 622.613 124.898C622.847 124.898 623.386 124.933 623.655 125.343C623.128 125.366 623.081 125.764 623.081 125.893C623.081 126.244 623.351 126.443 623.632 126.443C623.842 126.443 624.182 126.314 624.182 125.869C624.182 125.167 623.655 124.593 622.601 124.593C620.974 124.593 619.323 126.139 619.323 128.668C619.323 131.84 620.798 132.625 621.934 132.625C622.496 132.625 623.105 132.473 623.632 131.969C624.1 131.513 624.498 131.021 624.498 130.002C624.498 128.469 623.339 127.391 622.039 127.391C621.197 127.391 620.693 127.93 620.424 128.504ZM621.934 132.274C621.314 132.274 620.927 131.84 620.752 131.513C620.482 130.986 620.459 130.19 620.459 129.745C620.459 128.586 621.091 127.719 621.993 127.719C622.578 127.719 622.929 128.024 623.152 128.434C623.398 128.867 623.398 129.394 623.398 129.991C623.398 130.588 623.398 131.103 623.163 131.524C622.859 132.063 622.449 132.274 621.934 132.274Z" fill="#355FB3"/>
<path d="M284.251 129.93C283.777 128.472 283.882 128.613 283.443 127.383C282.899 125.873 282.758 125.75 282.512 125.504C282.196 125.223 281.599 125.013 280.985 125.013C280.001 125.013 279.527 125.926 279.527 126.154C279.527 126.26 279.615 126.312 279.72 126.312C279.861 126.312 279.896 126.224 279.913 126.154C280.177 125.469 280.721 125.364 280.879 125.364C281.388 125.364 281.88 126.628 282.196 127.471C282.618 128.543 282.829 129.28 283.303 130.984L279.158 135.69C279 135.884 279 135.954 279 135.971C279 136.112 279.088 136.147 279.158 136.147C279.228 136.147 279.281 136.112 279.334 136.059C279.825 135.568 280.914 134.268 281.371 133.741L283.408 131.423C284.269 134.127 284.269 134.163 284.532 134.812C284.813 135.48 285.182 136.34 286.675 136.34C287.676 136.34 288.132 135.445 288.132 135.199C288.132 135.076 288.027 135.041 287.939 135.041C287.799 135.041 287.781 135.111 287.728 135.251C287.535 135.743 287.079 135.989 286.798 135.989C286.569 135.989 286.288 135.989 285.516 134.04C285.059 132.863 284.655 131.458 284.357 130.369L288.519 125.627C288.659 125.469 288.677 125.452 288.677 125.381C288.677 125.258 288.589 125.206 288.501 125.206C288.449 125.206 288.396 125.206 288.22 125.399L284.251 129.93Z" fill="black"/>
<path d="M293.087 126.708C293.181 126.708 293.321 126.708 293.321 126.568C293.321 126.521 293.31 126.509 293.157 126.357C291.553 124.847 291.155 122.669 291.155 120.854C291.155 117.482 292.549 115.902 293.146 115.363C293.31 115.211 293.321 115.199 293.321 115.14C293.321 115.082 293.275 115 293.157 115C292.97 115 292.385 115.597 292.291 115.702C290.722 117.342 290.394 119.449 290.394 120.854C290.394 123.477 291.495 125.584 293.087 126.708Z" fill="black"/>
<path d="M299.733 120.046C299.733 118.794 299.605 118.033 299.218 117.283C298.703 116.253 297.755 115.995 297.111 115.995C295.636 115.995 295.097 117.096 294.933 117.424C294.512 118.278 294.488 119.438 294.488 120.046C294.488 120.819 294.523 122.002 295.085 122.938C295.624 123.805 296.49 124.027 297.111 124.027C297.673 124.027 298.68 123.852 299.265 122.692C299.698 121.849 299.733 120.807 299.733 120.046ZM297.111 123.699C296.713 123.699 295.905 123.512 295.659 122.283C295.53 121.615 295.53 120.515 295.53 119.906C295.53 119.098 295.53 118.278 295.659 117.634C295.905 116.44 296.818 116.323 297.111 116.323C297.509 116.323 298.317 116.522 298.551 117.588C298.691 118.232 298.691 119.11 298.691 119.906C298.691 120.597 298.691 121.65 298.551 122.306C298.305 123.535 297.497 123.699 297.111 123.699Z" fill="black"/>
<path d="M303.823 120.854C303.823 119.742 303.635 118.407 302.91 117.026C302.336 115.948 301.27 115 301.06 115C300.943 115 300.907 115.082 300.907 115.14C300.907 115.187 300.907 115.211 301.048 115.351C302.687 116.908 303.062 119.051 303.062 120.854C303.062 124.214 301.668 125.807 301.071 126.345C300.919 126.497 300.907 126.509 300.907 126.568C300.907 126.626 300.943 126.708 301.06 126.708C301.247 126.708 301.832 126.111 301.926 126.006C303.495 124.367 303.823 122.259 303.823 120.854Z" fill="black"/>
<path d="M298.52 129.592C298.531 129.546 298.555 129.475 298.555 129.417C298.555 129.335 298.485 129.276 298.403 129.276C298.321 129.276 298.286 129.311 298.192 129.417L297.372 130.318C296.834 129.569 296.073 129.276 295.277 129.276C292.537 129.276 289.809 131.805 289.809 134.486C289.809 136.442 291.261 137.765 293.251 137.765C294.516 137.765 295.452 137.308 295.885 136.805C296.026 137.179 296.307 137.507 296.424 137.507C296.471 137.507 296.529 137.484 296.553 137.437C296.623 137.238 296.904 136.044 296.986 135.716C297.091 135.248 297.173 134.92 297.244 134.826C297.349 134.686 297.571 134.674 297.923 134.674C297.981 134.674 298.157 134.674 298.157 134.463C298.157 134.346 298.075 134.287 297.981 134.287C297.899 134.287 297.759 134.323 296.623 134.323C296.33 134.323 295.932 134.323 295.757 134.311C295.581 134.299 295.113 134.287 294.937 134.287C294.867 134.287 294.691 134.287 294.691 134.51C294.691 134.674 294.82 134.674 295.124 134.674C295.37 134.674 295.815 134.674 296.096 134.779C296.108 134.803 296.12 134.873 296.12 134.92C296.12 134.978 296.049 135.236 296.014 135.388C295.944 135.692 295.815 136.184 295.768 136.301C295.394 137.086 294.258 137.378 293.45 137.378C292.291 137.378 290.933 136.77 290.933 134.861C290.933 133.889 291.331 132.203 292.361 131.079C293.485 129.862 294.75 129.663 295.359 129.663C296.787 129.663 297.443 130.787 297.443 131.969C297.443 132.133 297.396 132.344 297.396 132.484C297.396 132.637 297.548 132.637 297.595 132.637C297.747 132.637 297.77 132.59 297.817 132.379L298.52 129.592Z" fill="black"/>
<path d="M301.035 137.343C301.035 138.104 300.871 138.772 300.145 139.497C300.098 139.533 300.075 139.556 300.075 139.615C300.075 139.708 300.169 139.778 300.251 139.778C300.391 139.778 301.363 138.854 301.363 137.484C301.363 136.734 301.082 136.219 300.567 136.219C300.157 136.219 299.923 136.547 299.923 136.863C299.923 137.191 300.145 137.519 300.578 137.519C300.859 137.519 301.035 137.355 301.035 137.343Z" fill="black"/>
<path d="M305.965 130.061C305.965 129.744 305.941 129.733 305.625 129.733C305.145 130.201 304.525 130.482 303.412 130.482V130.868C303.729 130.868 304.361 130.868 305.04 130.552V136.559C305.04 136.992 305.005 137.132 303.892 137.132H303.483V137.519C303.963 137.484 304.97 137.484 305.496 137.484C306.023 137.484 307.042 137.484 307.522 137.519V137.132H307.112C306 137.132 305.965 136.992 305.965 136.559V130.061Z" fill="black"/>
</svg>
