<svg width="655" height="254" viewBox="0 0 655 254" fill="none" xmlns="http://www.w3.org/2000/svg">
<rect width="655" height="254" fill="white"/>
<line x1="253.25" y1="1.09278e-08" x2="253.25" y2="254" stroke="black" stroke-width="0.5"/>
<line x1="483" y1="57.25" x2="311" y2="57.25" stroke="black" stroke-width="0.5" stroke-dasharray="5 3"/>
<path d="M208.263 72L113 17L17.7372 72M208.263 72V182L113 237M208.263 72H17.7372M208.263 72L113 237M113 237L17.7372 182V72" stroke="black" stroke-width="2"/>
<circle cx="18" cy="72" r="14" fill="white" stroke="#B33535" stroke-width="2"/>
<path d="M18.5516 68.1766C18.5516 67.0702 17.9896 67 17.8491 67C17.4276 67 17.0413 67.4215 17.0413 67.7727C17.0413 67.9835 17.1642 68.1064 17.2344 68.1766C17.4101 68.3347 17.8667 68.8089 17.8667 69.7221C17.8667 70.4597 16.813 74.5692 14.7055 74.5692C13.6343 74.5692 13.4235 73.6735 13.4235 73.0237C13.4235 72.1456 13.8275 70.9163 14.3016 69.6518C14.5826 68.9318 14.6529 68.7562 14.6529 68.4049C14.6529 67.6674 14.126 67 13.2655 67C11.6498 67 11 69.5465 11 69.687C11 69.7572 11.0702 69.845 11.1932 69.845C11.3512 69.845 11.3688 69.7748 11.439 69.5289C11.8605 68.0186 12.5454 67.3512 13.2128 67.3512C13.3709 67.3512 13.6694 67.3512 13.6694 67.9308C13.6694 68.3874 13.4762 68.8967 13.2128 69.564C12.3698 71.8119 12.3698 72.3564 12.3698 72.7778C12.3698 73.1642 12.4225 73.8842 12.9669 74.376C13.5991 74.9204 14.4772 74.9204 14.6353 74.9204C17.5506 74.9204 18.5516 69.1777 18.5516 68.1766Z" fill="#B33535"/>
<path d="M22.4844 69.9211C22.4844 69.605 22.4609 69.5933 22.1448 69.5933C21.6648 70.0616 21.0443 70.3426 19.932 70.3426V70.729C20.2482 70.729 20.8804 70.729 21.5594 70.4129V76.419C21.5594 76.8522 21.5243 76.9927 20.4121 76.9927H20.0023V77.3791C20.4823 77.3439 21.4892 77.3439 22.016 77.3439C22.5429 77.3439 23.5615 77.3439 24.0415 77.3791V76.9927H23.6317C22.5195 76.9927 22.4844 76.8522 22.4844 76.419V69.9211Z" fill="#B33535"/>
<circle cx="488" cy="57" r="14" fill="white" stroke="#B33535" stroke-width="2"/>
<path d="M488.552 53.1766C488.552 52.0702 487.99 52 487.849 52C487.428 52 487.041 52.4215 487.041 52.7727C487.041 52.9835 487.164 53.1064 487.234 53.1766C487.41 53.3347 487.867 53.8089 487.867 54.7221C487.867 55.4597 486.813 59.5692 484.706 59.5692C483.634 59.5692 483.424 58.6735 483.424 58.0237C483.424 57.1456 483.827 55.9163 484.302 54.6518C484.583 53.9318 484.653 53.7562 484.653 53.4049C484.653 52.6674 484.126 52 483.265 52C481.65 52 481 54.5465 481 54.687C481 54.7572 481.07 54.845 481.193 54.845C481.351 54.845 481.369 54.7748 481.439 54.5289C481.861 53.0186 482.545 52.3512 483.213 52.3512C483.371 52.3512 483.669 52.3512 483.669 52.9308C483.669 53.3874 483.476 53.8967 483.213 54.564C482.37 56.8119 482.37 57.3564 482.37 57.7778C482.37 58.1642 482.423 58.8842 482.967 59.376C483.599 59.9204 484.477 59.9204 484.635 59.9204C487.551 59.9204 488.552 54.1777 488.552 53.1766Z" fill="#B33535"/>
<path d="M492.484 54.9211C492.484 54.605 492.461 54.5933 492.145 54.5933C491.665 55.0616 491.044 55.3426 489.932 55.3426V55.729C490.248 55.729 490.88 55.729 491.559 55.4129V61.419C491.559 61.8522 491.524 61.9927 490.412 61.9927H490.002V62.3791C490.482 62.3439 491.489 62.3439 492.016 62.3439C492.543 62.3439 493.561 62.3439 494.041 62.3791V61.9927H493.632C492.519 61.9927 492.484 61.8522 492.484 61.419V54.9211Z" fill="#B33535"/>
<circle cx="113" cy="17" r="14" fill="white" stroke="black" stroke-width="2"/>
<path d="M113.552 13.1766C113.552 12.0702 112.99 12 112.849 12C112.428 12 112.041 12.4215 112.041 12.7727C112.041 12.9835 112.164 13.1064 112.234 13.1766C112.41 13.3347 112.867 13.8089 112.867 14.7221C112.867 15.4597 111.813 19.5692 109.706 19.5692C108.634 19.5692 108.424 18.6735 108.424 18.0237C108.424 17.1456 108.827 15.9163 109.302 14.6518C109.583 13.9318 109.653 13.7562 109.653 13.4049C109.653 12.6674 109.126 12 108.265 12C106.65 12 106 14.5465 106 14.687C106 14.7572 106.07 14.845 106.193 14.845C106.351 14.845 106.369 14.7748 106.439 14.5289C106.861 13.0186 107.545 12.3512 108.213 12.3512C108.371 12.3512 108.669 12.3512 108.669 12.9308C108.669 13.3874 108.476 13.8967 108.213 14.564C107.37 16.8119 107.37 17.3564 107.37 17.7778C107.37 18.1642 107.423 18.8842 107.967 19.376C108.599 19.9204 109.477 19.9204 109.635 19.9204C112.551 19.9204 113.552 14.1777 113.552 13.1766Z" fill="black"/>
<path d="M117.11 19.9907C117.297 19.815 117.789 19.4287 117.976 19.2648C118.702 18.5974 119.393 17.9535 119.393 16.8881C119.393 15.4948 118.222 14.5933 116.758 14.5933C115.353 14.5933 114.429 15.6587 114.429 16.7007C114.429 17.2744 114.885 17.3564 115.049 17.3564C115.295 17.3564 115.658 17.1808 115.658 16.7359C115.658 16.127 115.073 16.127 114.932 16.127C115.272 15.2724 116.056 14.9797 116.63 14.9797C117.718 14.9797 118.28 15.9046 118.28 16.8881C118.28 18.1057 117.426 18.9955 116.044 20.4121L114.569 21.9342C114.429 22.0629 114.429 22.0864 114.429 22.3791H119.053L119.393 20.2834H119.03C118.995 20.5175 118.901 21.1029 118.76 21.3254C118.69 21.419 117.8 21.419 117.613 21.419H115.529L117.11 19.9907Z" fill="black"/>
<circle cx="208" cy="72" r="14" fill="white" stroke="black" stroke-width="2"/>
<path d="M208.552 68.1766C208.552 67.0702 207.99 67 207.849 67C207.428 67 207.041 67.4215 207.041 67.7727C207.041 67.9835 207.164 68.1064 207.234 68.1766C207.41 68.3347 207.867 68.8089 207.867 69.7221C207.867 70.4597 206.813 74.5692 204.706 74.5692C203.634 74.5692 203.424 73.6735 203.424 73.0237C203.424 72.1456 203.827 70.9163 204.302 69.6518C204.583 68.9318 204.653 68.7562 204.653 68.4049C204.653 67.6674 204.126 67 203.265 67C201.65 67 201 69.5465 201 69.687C201 69.7572 201.07 69.845 201.193 69.845C201.351 69.845 201.369 69.7748 201.439 69.5289C201.861 68.0186 202.545 67.3512 203.213 67.3512C203.371 67.3512 203.669 67.3512 203.669 67.9308C203.669 68.3874 203.476 68.8967 203.213 69.564C202.37 71.8119 202.37 72.3564 202.37 72.7778C202.37 73.1642 202.423 73.8842 202.967 74.376C203.599 74.9204 204.477 74.9204 204.635 74.9204C207.551 74.9204 208.552 69.1777 208.552 68.1766Z" fill="black"/>
<path d="M211.77 73.4686C212.695 73.4686 213.28 74.1477 213.28 75.377C213.28 76.8405 212.449 77.2737 211.829 77.2737C211.185 77.2737 210.307 77.0395 209.897 76.419C210.318 76.419 210.611 76.1497 210.611 75.7634C210.611 75.3887 210.342 75.1194 209.967 75.1194C209.651 75.1194 209.323 75.3185 209.323 75.7868C209.323 76.899 210.517 77.6249 211.852 77.6249C213.409 77.6249 214.498 76.5478 214.498 75.377C214.498 74.4053 213.725 73.5155 212.531 73.2579C213.456 72.9301 214.147 72.1339 214.147 71.1973C214.147 70.2607 213.093 69.5933 211.875 69.5933C210.623 69.5933 209.674 70.2724 209.674 71.1622C209.674 71.5954 209.967 71.7827 210.271 71.7827C210.634 71.7827 210.869 71.5251 210.869 71.1856C210.869 70.7524 210.494 70.5885 210.236 70.5768C210.728 69.9328 211.63 69.8977 211.84 69.8977C212.145 69.8977 213.035 69.9914 213.035 71.1973C213.035 72.0169 212.695 72.5086 212.531 72.6959C212.18 73.0589 211.911 73.0823 211.196 73.1291C210.974 73.1408 210.88 73.1525 210.88 73.3047C210.88 73.4686 210.986 73.4686 211.185 73.4686H211.77Z" fill="black"/>
<circle cx="208" cy="182" r="14" fill="white" stroke="black" stroke-width="2"/>
<path d="M208.552 178.177C208.552 177.07 207.99 177 207.849 177C207.428 177 207.041 177.421 207.041 177.773C207.041 177.983 207.164 178.106 207.234 178.177C207.41 178.335 207.867 178.809 207.867 179.722C207.867 180.46 206.813 184.569 204.706 184.569C203.634 184.569 203.424 183.673 203.424 183.024C203.424 182.146 203.827 180.916 204.302 179.652C204.583 178.932 204.653 178.756 204.653 178.405C204.653 177.667 204.126 177 203.265 177C201.65 177 201 179.546 201 179.687C201 179.757 201.07 179.845 201.193 179.845C201.351 179.845 201.369 179.775 201.439 179.529C201.861 178.019 202.545 177.351 203.213 177.351C203.371 177.351 203.669 177.351 203.669 177.931C203.669 178.387 203.476 178.897 203.213 179.564C202.37 181.812 202.37 182.356 202.37 182.778C202.37 183.164 202.423 183.884 202.967 184.376C203.599 184.92 204.477 184.92 204.635 184.92C207.551 184.92 208.552 179.178 208.552 178.177Z" fill="black"/>
<path d="M213.421 179.804C213.421 179.57 213.421 179.476 213.175 179.476C213.023 179.476 213.011 179.488 212.894 179.652L209.159 185.073V185.459H212.461V186.431C212.461 186.864 212.426 186.993 211.524 186.993H211.255V187.379C212.25 187.344 212.274 187.344 212.941 187.344C213.608 187.344 213.632 187.344 214.627 187.379V186.993H214.358C213.456 186.993 213.421 186.864 213.421 186.431V185.459H214.662V185.073H213.421V179.804ZM212.543 180.752V185.073H209.569L212.543 180.752Z" fill="black"/>
<circle cx="113" cy="237" r="14" fill="white" stroke="black" stroke-width="2"/>
<path d="M113.552 233.177C113.552 232.07 112.99 232 112.849 232C112.428 232 112.041 232.421 112.041 232.773C112.041 232.983 112.164 233.106 112.234 233.177C112.41 233.335 112.867 233.809 112.867 234.722C112.867 235.46 111.813 239.569 109.706 239.569C108.634 239.569 108.424 238.673 108.424 238.024C108.424 237.146 108.827 235.916 109.302 234.652C109.583 233.932 109.653 233.756 109.653 233.405C109.653 232.667 109.126 232 108.265 232C106.65 232 106 234.546 106 234.687C106 234.757 106.07 234.845 106.193 234.845C106.351 234.845 106.369 234.775 106.439 234.529C106.861 233.019 107.545 232.351 108.213 232.351C108.371 232.351 108.669 232.351 108.669 232.931C108.669 233.387 108.476 233.897 108.213 234.564C107.37 236.812 107.37 237.356 107.37 237.778C107.37 238.164 107.423 238.884 107.967 239.376C108.599 239.92 109.477 239.92 109.635 239.92C112.551 239.92 113.552 234.178 113.552 233.177Z" fill="black"/>
<path d="M115.447 235.799C115.599 235.846 116.068 235.963 116.559 235.963C118.023 235.963 118.913 234.933 118.913 234.757C118.913 234.628 118.831 234.593 118.772 234.593C118.749 234.593 118.725 234.593 118.62 234.652C118.163 234.828 117.625 234.968 116.993 234.968C116.302 234.968 115.728 234.792 115.365 234.652C115.248 234.593 115.225 234.593 115.213 234.593C115.061 234.593 115.061 234.722 115.061 234.933V238.363C115.061 238.574 115.061 238.715 115.248 238.715C115.342 238.715 115.377 238.668 115.435 238.574C115.576 238.398 116.021 237.801 117.016 237.801C117.672 237.801 117.988 238.34 118.093 238.562C118.292 238.984 118.316 239.522 118.316 239.979C118.316 240.412 118.304 241.044 117.976 241.56C117.754 241.911 117.285 242.274 116.665 242.274C115.904 242.274 115.154 241.794 114.885 241.033C114.92 241.044 114.991 241.044 115.002 241.044C115.33 241.044 115.588 240.834 115.588 240.471C115.588 240.038 115.248 239.885 115.014 239.885C114.803 239.885 114.429 240.002 114.429 240.506C114.429 241.56 115.342 242.625 116.688 242.625C118.152 242.625 119.393 241.489 119.393 240.038C119.393 238.679 118.409 237.473 117.028 237.473C116.442 237.473 115.892 237.661 115.447 238.059V235.799Z" fill="black"/>
<circle cx="18" cy="182" r="14" fill="white" stroke="black" stroke-width="2"/>
<path d="M18.5516 178.177C18.5516 177.07 17.9896 177 17.8491 177C17.4276 177 17.0413 177.421 17.0413 177.773C17.0413 177.983 17.1642 178.106 17.2344 178.177C17.4101 178.335 17.8667 178.809 17.8667 179.722C17.8667 180.46 16.813 184.569 14.7055 184.569C13.6343 184.569 13.4235 183.673 13.4235 183.024C13.4235 182.146 13.8275 180.916 14.3016 179.652C14.5826 178.932 14.6529 178.756 14.6529 178.405C14.6529 177.667 14.126 177 13.2655 177C11.6498 177 11 179.546 11 179.687C11 179.757 11.0702 179.845 11.1932 179.845C11.3512 179.845 11.3688 179.775 11.439 179.529C11.8605 178.019 12.5454 177.351 13.2128 177.351C13.3709 177.351 13.6694 177.351 13.6694 177.931C13.6694 178.387 13.4762 178.897 13.2128 179.564C12.3698 181.812 12.3698 182.356 12.3698 182.778C12.3698 183.164 12.4225 183.884 12.9669 184.376C13.5991 184.92 14.4772 184.92 14.6353 184.92C17.5506 184.92 18.5516 179.178 18.5516 178.177Z" fill="black"/>
<path d="M20.4238 183.504C20.4238 182.532 20.5057 181.677 20.9272 180.963C21.2785 180.378 21.8756 179.898 22.6132 179.898C22.8473 179.898 23.3859 179.933 23.6552 180.343C23.1283 180.366 23.0815 180.764 23.0815 180.893C23.0815 181.244 23.3508 181.443 23.6318 181.443C23.8425 181.443 24.182 181.314 24.182 180.869C24.182 180.167 23.6552 179.593 22.6015 179.593C20.9741 179.593 19.3232 181.139 19.3232 183.668C19.3232 186.84 20.7984 187.625 21.9341 187.625C22.4961 187.625 23.1049 187.473 23.6318 186.969C24.1001 186.513 24.4981 186.021 24.4981 185.002C24.4981 183.469 23.339 182.391 22.0395 182.391C21.1965 182.391 20.6931 182.93 20.4238 183.504ZM21.9341 187.274C21.3136 187.274 20.9272 186.84 20.7516 186.513C20.4823 185.986 20.4589 185.19 20.4589 184.745C20.4589 183.586 21.0911 182.719 21.9926 182.719C22.578 182.719 22.9293 183.024 23.1517 183.434C23.3976 183.867 23.3976 184.394 23.3976 184.991C23.3976 185.588 23.3976 186.103 23.1634 186.524C22.859 187.063 22.4492 187.274 21.9341 187.274Z" fill="black"/>
<path d="M284.251 59.93C283.777 58.4724 283.882 58.6129 283.443 57.3835C282.899 55.8731 282.758 55.7502 282.512 55.5043C282.196 55.2233 281.599 55.0126 280.985 55.0126C280.001 55.0126 279.527 55.9258 279.527 56.1541C279.527 56.2595 279.615 56.3122 279.72 56.3122C279.861 56.3122 279.896 56.2244 279.913 56.1541C280.177 55.4692 280.721 55.3638 280.879 55.3638C281.388 55.3638 281.88 56.6283 282.196 57.4713C282.618 58.5426 282.829 59.2802 283.303 60.9838L279.158 65.6905C279 65.8837 279 65.9539 279 65.9715C279 66.112 279.088 66.1471 279.158 66.1471C279.228 66.1471 279.281 66.112 279.334 66.0593C279.825 65.5675 280.914 64.2679 281.371 63.741L283.408 61.4228C284.269 64.1274 284.269 64.1625 284.532 64.8123C284.813 65.4797 285.182 66.3403 286.675 66.3403C287.676 66.3403 288.132 65.4446 288.132 65.1987C288.132 65.0758 288.027 65.0407 287.939 65.0407C287.799 65.0407 287.781 65.1109 287.728 65.2514C287.535 65.7432 287.079 65.989 286.798 65.989C286.569 65.989 286.288 65.989 285.516 64.0396C285.059 62.8629 284.655 61.4579 284.357 60.3691L288.519 55.6273C288.659 55.4692 288.677 55.4516 288.677 55.3814C288.677 55.2584 288.589 55.2058 288.501 55.2058C288.449 55.2058 288.396 55.2058 288.22 55.3989L284.251 59.93Z" fill="black"/>
<path d="M293.087 56.7082C293.181 56.7082 293.321 56.7082 293.321 56.5677C293.321 56.5209 293.31 56.5092 293.157 56.357C291.553 54.8466 291.155 52.6689 291.155 50.8541C291.155 47.4821 292.549 45.9015 293.146 45.3629C293.31 45.2107 293.321 45.199 293.321 45.1405C293.321 45.082 293.275 45 293.157 45C292.97 45 292.385 45.5971 292.291 45.7025C290.722 47.3416 290.394 49.4491 290.394 50.8541C290.394 53.4767 291.495 55.5842 293.087 56.7082Z" fill="black"/>
<path d="M299.733 50.0463C299.733 48.7936 299.605 48.0325 299.218 47.2832C298.703 46.2529 297.755 45.9953 297.111 45.9953C295.636 45.9953 295.097 47.0959 294.933 47.4237C294.512 48.2784 294.488 49.4375 294.488 50.0463C294.488 50.8191 294.523 52.0016 295.085 52.9383C295.624 53.8047 296.49 54.0271 297.111 54.0271C297.673 54.0271 298.68 53.8515 299.265 52.6924C299.698 51.8494 299.733 50.8074 299.733 50.0463ZM297.111 53.6993C296.713 53.6993 295.905 53.512 295.659 52.2826C295.53 51.6152 295.53 50.5147 295.53 49.9058C295.53 49.098 295.53 48.2784 295.659 47.6344C295.905 46.4402 296.818 46.3231 297.111 46.3231C297.509 46.3231 298.317 46.5222 298.551 47.5876C298.691 48.2316 298.691 49.1097 298.691 49.9058C298.691 50.5966 298.691 51.6504 298.551 52.306C298.305 53.5354 297.497 53.6993 297.111 53.6993Z" fill="black"/>
<path d="M303.823 50.8541C303.823 49.7418 303.635 48.4071 302.91 47.0255C302.336 45.9484 301.27 45 301.06 45C300.943 45 300.907 45.082 300.907 45.1405C300.907 45.1873 300.907 45.2107 301.048 45.3512C302.687 46.9084 303.062 49.051 303.062 50.8541C303.062 54.2144 301.668 55.8067 301.071 56.3452C300.919 56.4975 300.907 56.5092 300.907 56.5677C300.907 56.6263 300.943 56.7082 301.06 56.7082C301.247 56.7082 301.832 56.1111 301.926 56.0057C303.495 54.3666 303.823 52.2591 303.823 50.8541Z" fill="black"/>
<path d="M298.52 59.5925C298.531 59.5457 298.555 59.4754 298.555 59.4169C298.555 59.3349 298.485 59.2764 298.403 59.2764C298.321 59.2764 298.286 59.3115 298.192 59.4169L297.372 60.3184C296.834 59.5691 296.073 59.2764 295.277 59.2764C292.537 59.2764 289.809 61.8053 289.809 64.4865C289.809 66.4418 291.261 67.7648 293.251 67.7648C294.516 67.7648 295.452 67.3082 295.885 66.8048C296.026 67.1794 296.307 67.5072 296.424 67.5072C296.471 67.5072 296.529 67.4838 296.553 67.437C296.623 67.238 296.904 66.0437 296.986 65.7159C297.091 65.2476 297.173 64.9197 297.244 64.8261C297.349 64.6856 297.571 64.6739 297.923 64.6739C297.981 64.6739 298.157 64.6739 298.157 64.4631C298.157 64.346 298.075 64.2875 297.981 64.2875C297.899 64.2875 297.759 64.3226 296.623 64.3226C296.33 64.3226 295.932 64.3226 295.757 64.3109C295.581 64.2992 295.113 64.2875 294.937 64.2875C294.867 64.2875 294.691 64.2875 294.691 64.5099C294.691 64.6739 294.82 64.6739 295.124 64.6739C295.37 64.6739 295.815 64.6739 296.096 64.7792C296.108 64.8026 296.12 64.8729 296.12 64.9197C296.12 64.9783 296.049 65.2359 296.014 65.3881C295.944 65.6925 295.815 66.1842 295.768 66.3013C295.394 67.0857 294.258 67.3785 293.45 67.3785C292.291 67.3785 290.933 66.7696 290.933 64.8612C290.933 63.8894 291.331 62.2034 292.361 61.0794C293.485 59.8618 294.75 59.6627 295.359 59.6627C296.787 59.6627 297.443 60.7867 297.443 61.9693C297.443 62.1332 297.396 62.3439 297.396 62.4844C297.396 62.6366 297.548 62.6366 297.595 62.6366C297.747 62.6366 297.77 62.5898 297.817 62.379L298.52 59.5925Z" fill="black"/>
<path d="M301.035 67.3432C301.035 68.1042 300.871 68.7716 300.145 69.4975C300.098 69.5326 300.075 69.556 300.075 69.6146C300.075 69.7082 300.169 69.7785 300.251 69.7785C300.391 69.7785 301.363 68.8535 301.363 67.4837C301.363 66.7343 301.082 66.2192 300.567 66.2192C300.157 66.2192 299.923 66.547 299.923 66.8631C299.923 67.191 300.145 67.5188 300.578 67.5188C300.859 67.5188 301.035 67.3549 301.035 67.3432Z" fill="black"/>
<path d="M305.965 60.0606C305.965 59.7444 305.941 59.7327 305.625 59.7327C305.145 60.201 304.525 60.482 303.412 60.482V60.8684C303.729 60.8684 304.361 60.8684 305.04 60.5523V66.5586C305.04 66.9918 305.005 67.1323 303.892 67.1323H303.483V67.5187C303.963 67.4836 304.97 67.4836 305.496 67.4836C306.023 67.4836 307.042 67.4836 307.522 67.5187V67.1323H307.112C306 67.1323 305.965 66.9918 305.965 66.5586V60.0606Z" fill="black"/>
</svg>
