<svg width="1060" height="288" viewBox="0 0 1060 288" fill="none" xmlns="http://www.w3.org/2000/svg">
<path d="M112.263 51L207.526 106V216L112.263 271L17 216V106L112.263 51Z" stroke="black" stroke-width="2"/>
<circle cx="112" cy="51" r="16" fill="#8EA7D7" stroke="white" stroke-width="2"/>
<path d="M114.234 53.2168H109.766L108.763 56H107.312L111.385 45.3359H112.615L116.695 56H115.252L114.234 53.2168ZM110.191 52.0596H113.816L112 47.0718L110.191 52.0596Z" fill="black"/>
<circle cx="206" cy="106" r="16" fill="#8EA7D7" stroke="white" stroke-width="2"/>
<path d="M208.234 108.217H203.766L202.763 111H201.312L205.385 100.336H206.615L210.695 111H209.252L208.234 108.217ZM204.191 107.06H207.816L206 102.072L204.191 107.06Z" fill="black"/>
<circle cx="112" cy="271" r="16" fill="#8EA7D7" stroke="white" stroke-width="2"/>
<path d="M114.234 273.217H109.766L108.763 276H107.312L111.385 265.336H112.615L116.695 276H115.252L114.234 273.217ZM110.191 272.06H113.816L112 267.072L110.191 272.06Z" fill="black"/>
<circle cx="17" cy="106" r="16" fill="#8EA7D7" stroke="white" stroke-width="2"/>
<path d="M19.2339 108.217H14.7661L13.7627 111H12.3125L16.3848 100.336H17.6152L21.6948 111H20.252L19.2339 108.217ZM15.1909 107.06H18.8164L17 102.072L15.1909 107.06Z" fill="black"/>
<circle cx="206" cy="216" r="16" fill="#8EA7D7" stroke="white" stroke-width="2"/>
<path d="M208.234 218.217H203.766L202.763 221H201.312L205.385 210.336H206.615L210.695 221H209.252L208.234 218.217ZM204.191 217.06H207.816L206 212.072L204.191 217.06Z" fill="black"/>
<circle cx="17" cy="216" r="16" fill="#8EA7D7" stroke="white" stroke-width="2"/>
<path d="M19.2339 218.217H14.7661L13.7627 221H12.3125L16.3848 210.336H17.6152L21.6948 221H20.252L19.2339 218.217ZM15.1909 217.06H18.8164L17 212.072L15.1909 217.06Z" fill="black"/>
<path d="M764.526 106L669.263 51L574 106H764.526Z" stroke="black" stroke-width="2"/>
<path d="M669.263 271L764.526 216H574L669.263 271Z" stroke="black" stroke-width="2"/>
<circle cx="670" cy="51" r="16" fill="#8EA7D7" stroke="white" stroke-width="2"/>
<path d="M672.234 53.2168H667.766L666.763 56H665.312L669.385 45.3359H670.615L674.695 56H673.252L672.234 53.2168ZM668.191 52.0596H671.816L670 47.0718L668.191 52.0596Z" fill="black"/>
<circle cx="764" cy="106" r="16" fill="#8EA7D7" stroke="white" stroke-width="2"/>
<path d="M766.234 108.217H761.766L760.763 111H759.312L763.385 100.336H764.615L768.695 111H767.252L766.234 108.217ZM762.191 107.06H765.816L764 102.072L762.191 107.06Z" fill="black"/>
<circle cx="670" cy="271" r="16" fill="#8EA7D7" stroke="white" stroke-width="2"/>
<path d="M672.234 273.217H667.766L666.763 276H665.312L669.385 265.336H670.615L674.695 276H673.252L672.234 273.217ZM668.191 272.06H671.816L670 267.072L668.191 272.06Z" fill="black"/>
<circle cx="575" cy="106" r="16" fill="#8EA7D7" stroke="white" stroke-width="2"/>
<path d="M577.234 108.217H572.766L571.763 111H570.312L574.385 100.336H575.615L579.695 111H578.252L577.234 108.217ZM573.191 107.06H576.816L575 102.072L573.191 107.06Z" fill="black"/>
<circle cx="764" cy="216" r="16" fill="#8EA7D7" stroke="white" stroke-width="2"/>
<path d="M766.234 218.217H761.766L760.763 221H759.312L763.385 210.336H764.615L768.695 221H767.252L766.234 218.217ZM762.191 217.06H765.816L764 212.072L762.191 217.06Z" fill="black"/>
<circle cx="575" cy="216" r="16" fill="#8EA7D7" stroke="white" stroke-width="2"/>
<path d="M577.234 218.217H572.766L571.763 221H570.312L574.385 210.336H575.615L579.695 221H578.252L577.234 218.217ZM573.191 217.06H576.816L575 212.072L573.191 217.06Z" fill="black"/>
<path d="M436.106 108.217H431.638L430.635 111H429.185L433.257 100.336H434.487L438.567 111H437.124L436.106 108.217ZM432.063 107.06H435.688L433.872 102.072L432.063 107.06ZM439.746 113.124L438.977 112.597C439.436 111.957 439.675 111.298 439.695 110.619V109.396H441.021V110.458C441.021 110.951 440.898 111.444 440.654 111.938C440.415 112.431 440.112 112.826 439.746 113.124ZM452.556 108.217H448.088L447.085 111H445.635L449.707 100.336H450.938L455.017 111H453.574L452.556 108.217ZM448.513 107.06H452.139L450.322 102.072L448.513 107.06ZM462.341 108.217H457.874L456.87 111H455.42L459.492 100.336H460.723L464.802 111H463.359L462.341 108.217ZM458.298 107.06H461.924L460.107 102.072L458.298 107.06Z" fill="#355FB3"/>
<path d="M1004.11 129.217H999.638L998.635 132H997.185L1001.26 121.336H1002.49L1006.57 132H1005.12L1004.11 129.217ZM1000.06 128.06H1003.69L1001.87 123.072L1000.06 128.06ZM1007.75 134.124L1006.98 133.597C1007.44 132.957 1007.68 132.298 1007.69 131.619V130.396H1009.02V131.458C1009.02 131.951 1008.9 132.444 1008.65 132.938C1008.42 133.431 1008.11 133.826 1007.75 134.124ZM1020.56 129.217H1016.09L1015.08 132H1013.63L1017.71 121.336H1018.94L1023.02 132H1021.57L1020.56 129.217ZM1016.51 128.06H1020.14L1018.32 123.072L1016.51 128.06ZM1030.34 129.217H1025.87L1024.87 132H1023.42L1027.49 121.336H1028.72L1032.8 132H1031.36L1030.34 129.217ZM1026.3 128.06H1029.92L1028.11 123.072L1026.3 128.06Z" fill="#355FB3"/>
<path d="M323.126 108.217H318.659L317.655 111H316.205L320.277 100.336H321.508L325.587 111H324.145L323.126 108.217ZM319.083 107.06H322.709L320.893 102.072L319.083 107.06ZM326.767 113.124L325.998 112.597C326.457 111.957 326.696 111.298 326.715 110.619V109.396H328.041V110.458C328.041 110.951 327.919 111.444 327.675 111.938C327.436 112.431 327.133 112.826 326.767 113.124ZM339.577 108.217H335.109L334.105 111H332.655L336.728 100.336H337.958L342.038 111H340.595L339.577 108.217ZM335.534 107.06H339.159L337.343 102.072L335.534 107.06ZM349.362 108.217H344.894L343.891 111H342.44L346.513 100.336H347.743L351.823 111H350.38L349.362 108.217ZM345.319 107.06H348.944L347.128 102.072L345.319 107.06Z" fill="#355FB3"/>
<path d="M871.616 129.217H867.148L866.145 132H864.695L868.767 121.336H869.998L874.077 132H872.634L871.616 129.217ZM867.573 128.06H871.199L869.382 123.072L867.573 128.06ZM875.256 134.124L874.487 133.597C874.946 132.957 875.186 132.298 875.205 131.619V130.396H876.531V131.458C876.531 131.951 876.409 132.444 876.165 132.938C875.925 133.431 875.623 133.826 875.256 134.124ZM888.066 129.217H883.599L882.595 132H881.145L885.217 121.336H886.448L890.527 132H889.084L888.066 129.217ZM884.023 128.06H887.649L885.833 123.072L884.023 128.06ZM897.852 129.217H893.384L892.38 132H890.93L895.002 121.336H896.233L900.312 132H898.87L897.852 129.217ZM893.809 128.06H897.434L895.618 123.072L893.809 128.06Z" fill="#355FB3"/>
<path d="M379.616 79.2168H375.148L374.145 82H372.695L376.767 71.3359H377.998L382.077 82H380.634L379.616 79.2168ZM375.573 78.0596H379.199L377.382 73.0718L375.573 78.0596ZM383.256 84.124L382.487 83.5967C382.946 82.957 383.186 82.2979 383.205 81.6191V80.396H384.531V81.458C384.531 81.9512 384.409 82.4443 384.165 82.9375C383.925 83.4307 383.623 83.8262 383.256 84.124ZM396.066 79.2168H391.599L390.595 82H389.145L393.217 71.3359H394.448L398.527 82H397.084L396.066 79.2168ZM392.023 78.0596H395.649L393.833 73.0718L392.023 78.0596ZM405.852 79.2168H401.384L400.38 82H398.93L403.002 71.3359H404.233L408.312 82H406.87L405.852 79.2168ZM401.809 78.0596H405.434L403.618 73.0718L401.809 78.0596Z" fill="#355FB3"/>
<path d="M937.616 79.2168H933.148L932.145 82H930.695L934.767 71.3359H935.998L940.077 82H938.634L937.616 79.2168ZM933.573 78.0596H937.199L935.382 73.0718L933.573 78.0596ZM941.256 84.124L940.487 83.5967C940.946 82.957 941.186 82.2979 941.205 81.6191V80.396H942.531V81.458C942.531 81.9512 942.409 82.4443 942.165 82.9375C941.925 83.4307 941.623 83.8262 941.256 84.124ZM954.066 79.2168H949.599L948.595 82H947.145L951.217 71.3359H952.448L956.527 82H955.084L954.066 79.2168ZM950.023 78.0596H953.649L951.833 73.0718L950.023 78.0596ZM963.852 79.2168H959.384L958.38 82H956.93L961.002 71.3359H962.233L966.312 82H964.87L963.852 79.2168ZM959.809 78.0596H963.434L961.618 73.0718L959.809 78.0596Z" fill="#355FB3"/>
<path d="M379.616 248.217H375.148L374.145 251H372.695L376.767 240.336H377.998L382.077 251H380.634L379.616 248.217ZM375.573 247.06H379.199L377.382 242.072L375.573 247.06ZM383.256 253.124L382.487 252.597C382.946 251.957 383.186 251.298 383.205 250.619V249.396H384.531V250.458C384.531 250.951 384.409 251.444 384.165 251.938C383.925 252.431 383.623 252.826 383.256 253.124ZM396.066 248.217H391.599L390.595 251H389.145L393.217 240.336H394.448L398.527 251H397.084L396.066 248.217ZM392.023 247.06H395.649L393.833 242.072L392.023 247.06ZM405.852 248.217H401.384L400.38 251H398.93L403.002 240.336H404.233L408.312 251H406.87L405.852 248.217ZM401.809 247.06H405.434L403.618 242.072L401.809 247.06Z" fill="#355FB3"/>
<path d="M937.616 248.217H933.148L932.145 251H930.695L934.767 240.336H935.998L940.077 251H938.634L937.616 248.217ZM933.573 247.06H937.199L935.382 242.072L933.573 247.06ZM941.256 253.124L940.487 252.597C940.946 251.957 941.186 251.298 941.205 250.619V249.396H942.531V250.458C942.531 250.951 942.409 251.444 942.165 251.938C941.925 252.431 941.623 252.826 941.256 253.124ZM954.066 248.217H949.599L948.595 251H947.145L951.217 240.336H952.448L956.527 251H955.084L954.066 248.217ZM950.023 247.06H953.649L951.833 242.072L950.023 247.06ZM963.852 248.217H959.384L958.38 251H956.93L961.002 240.336H962.233L966.312 251H964.87L963.852 248.217ZM959.809 247.06H963.434L961.618 242.072L959.809 247.06Z" fill="#355FB3"/>
<path d="M323.126 218.217H318.659L317.655 221H316.205L320.277 210.336H321.508L325.587 221H324.145L323.126 218.217ZM319.083 217.06H322.709L320.893 212.072L319.083 217.06ZM326.767 223.124L325.998 222.597C326.457 221.957 326.696 221.298 326.715 220.619V219.396H328.041V220.458C328.041 220.951 327.919 221.444 327.675 221.938C327.436 222.431 327.133 222.826 326.767 223.124ZM339.577 218.217H335.109L334.105 221H332.655L336.728 210.336H337.958L342.038 221H340.595L339.577 218.217ZM335.534 217.06H339.159L337.343 212.072L335.534 217.06ZM349.362 218.217H344.894L343.891 221H342.44L346.513 210.336H347.743L351.823 221H350.38L349.362 218.217ZM345.319 217.06H348.944L347.128 212.072L345.319 217.06Z" fill="#355FB3"/>
<path d="M871.616 198.217H867.148L866.145 201H864.695L868.767 190.336H869.998L874.077 201H872.634L871.616 198.217ZM867.573 197.06H871.199L869.382 192.072L867.573 197.06ZM875.256 203.124L874.487 202.597C874.946 201.957 875.186 201.298 875.205 200.619V199.396H876.531V200.458C876.531 200.951 876.409 201.444 876.165 201.938C875.925 202.431 875.623 202.826 875.256 203.124ZM888.066 198.217H883.599L882.595 201H881.145L885.217 190.336H886.448L890.527 201H889.084L888.066 198.217ZM884.023 197.06H887.649L885.833 192.072L884.023 197.06ZM897.852 198.217H893.384L892.38 201H890.93L895.002 190.336H896.233L900.312 201H898.87L897.852 198.217ZM893.809 197.06H897.434L895.618 192.072L893.809 197.06Z" fill="#355FB3"/>
<path d="M436.106 218.217H431.638L430.635 221H429.185L433.257 210.336H434.487L438.567 221H437.124L436.106 218.217ZM432.063 217.06H435.688L433.872 212.072L432.063 217.06ZM439.746 223.124L438.977 222.597C439.436 221.957 439.675 221.298 439.695 220.619V219.396H441.021V220.458C441.021 220.951 440.898 221.444 440.654 221.938C440.415 222.431 440.112 222.826 439.746 223.124ZM452.556 218.217H448.088L447.085 221H445.635L449.707 210.336H450.938L455.017 221H453.574L452.556 218.217ZM448.513 217.06H452.139L450.322 212.072L448.513 217.06ZM462.341 218.217H457.874L456.87 221H455.42L459.492 210.336H460.723L464.802 221H463.359L462.341 218.217ZM458.298 217.06H461.924L460.107 212.072L458.298 217.06Z" fill="#355FB3"/>
<path d="M1004.11 198.217H999.638L998.635 201H997.185L1001.26 190.336H1002.49L1006.57 201H1005.12L1004.11 198.217ZM1000.06 197.06H1003.69L1001.87 192.072L1000.06 197.06ZM1007.75 203.124L1006.98 202.597C1007.44 201.957 1007.68 201.298 1007.69 200.619V199.396H1009.02V200.458C1009.02 200.951 1008.9 201.444 1008.65 201.938C1008.42 202.431 1008.11 202.826 1007.75 203.124ZM1020.56 198.217H1016.09L1015.08 201H1013.63L1017.71 190.336H1018.94L1023.02 201H1021.57L1020.56 198.217ZM1016.51 197.06H1020.14L1018.32 192.072L1016.51 197.06ZM1030.34 198.217H1025.87L1024.87 201H1023.42L1027.49 190.336H1028.72L1032.8 201H1031.36L1030.34 198.217ZM1026.3 197.06H1029.92L1028.11 192.072L1026.3 197.06Z" fill="#355FB3"/>
<path d="M391.263 51L486.526 106V216L391.263 271L296 216V106L391.263 51Z" stroke="black" stroke-width="2"/>
<circle cx="391" cy="51" r="16" fill="#DC8989" stroke="white" stroke-width="2"/>
<path d="M387.565 56V45.3359H391.051C392.208 45.3359 393.078 45.5752 393.659 46.0537C394.245 46.5322 394.538 47.2402 394.538 48.1777C394.538 48.6758 394.396 49.1177 394.113 49.5034C393.83 49.8843 393.444 50.1797 392.956 50.3896C393.532 50.5508 393.986 50.8584 394.318 51.3125C394.655 51.7617 394.823 52.2988 394.823 52.9238C394.823 53.8809 394.513 54.6328 393.893 55.1797C393.273 55.7266 392.396 56 391.264 56H387.565ZM388.971 51.0122V54.8501H391.293C391.947 54.8501 392.462 54.6816 392.838 54.3447C393.219 54.0029 393.41 53.5342 393.41 52.9385C393.41 51.6543 392.711 51.0122 391.315 51.0122H388.971ZM388.971 49.8843H391.095C391.71 49.8843 392.201 49.7305 392.567 49.4229C392.938 49.1152 393.124 48.6978 393.124 48.1704C393.124 47.5845 392.953 47.1597 392.611 46.896C392.27 46.6274 391.75 46.4932 391.051 46.4932H388.971V49.8843Z" fill="black"/>
<circle cx="485" cy="106" r="16" fill="#DC8989" stroke="white" stroke-width="2"/>
<path d="M481.565 111V100.336H485.051C486.208 100.336 487.078 100.575 487.659 101.054C488.245 101.532 488.538 102.24 488.538 103.178C488.538 103.676 488.396 104.118 488.113 104.503C487.83 104.884 487.444 105.18 486.956 105.39C487.532 105.551 487.986 105.858 488.318 106.312C488.655 106.762 488.823 107.299 488.823 107.924C488.823 108.881 488.513 109.633 487.893 110.18C487.273 110.727 486.396 111 485.264 111H481.565ZM482.971 106.012V109.85H485.293C485.947 109.85 486.462 109.682 486.838 109.345C487.219 109.003 487.41 108.534 487.41 107.938C487.41 106.654 486.711 106.012 485.315 106.012H482.971ZM482.971 104.884H485.095C485.71 104.884 486.201 104.73 486.567 104.423C486.938 104.115 487.124 103.698 487.124 103.17C487.124 102.584 486.953 102.16 486.611 101.896C486.27 101.627 485.75 101.493 485.051 101.493H482.971V104.884Z" fill="black"/>
<circle cx="391" cy="271" r="16" fill="#DC8989" stroke="white" stroke-width="2"/>
<path d="M387.565 276V265.336H391.051C392.208 265.336 393.078 265.575 393.659 266.054C394.245 266.532 394.538 267.24 394.538 268.178C394.538 268.676 394.396 269.118 394.113 269.503C393.83 269.884 393.444 270.18 392.956 270.39C393.532 270.551 393.986 270.858 394.318 271.312C394.655 271.762 394.823 272.299 394.823 272.924C394.823 273.881 394.513 274.633 393.893 275.18C393.273 275.727 392.396 276 391.264 276H387.565ZM388.971 271.012V274.85H391.293C391.947 274.85 392.462 274.682 392.838 274.345C393.219 274.003 393.41 273.534 393.41 272.938C393.41 271.654 392.711 271.012 391.315 271.012H388.971ZM388.971 269.884H391.095C391.71 269.884 392.201 269.73 392.567 269.423C392.938 269.115 393.124 268.698 393.124 268.17C393.124 267.584 392.953 267.16 392.611 266.896C392.27 266.627 391.75 266.493 391.051 266.493H388.971V269.884Z" fill="black"/>
<circle cx="296" cy="106" r="16" fill="#DC8989" stroke="white" stroke-width="2"/>
<path d="M292.565 111V100.336H296.051C297.208 100.336 298.078 100.575 298.659 101.054C299.245 101.532 299.538 102.24 299.538 103.178C299.538 103.676 299.396 104.118 299.113 104.503C298.83 104.884 298.444 105.18 297.956 105.39C298.532 105.551 298.986 105.858 299.318 106.312C299.655 106.762 299.823 107.299 299.823 107.924C299.823 108.881 299.513 109.633 298.893 110.18C298.273 110.727 297.396 111 296.264 111H292.565ZM293.971 106.012V109.85H296.293C296.947 109.85 297.462 109.682 297.838 109.345C298.219 109.003 298.41 108.534 298.41 107.938C298.41 106.654 297.711 106.012 296.315 106.012H293.971ZM293.971 104.884H296.095C296.71 104.884 297.201 104.73 297.567 104.423C297.938 104.115 298.124 103.698 298.124 103.17C298.124 102.584 297.953 102.16 297.611 101.896C297.27 101.627 296.75 101.493 296.051 101.493H293.971V104.884Z" fill="black"/>
<circle cx="485" cy="216" r="16" fill="#DC8989" stroke="white" stroke-width="2"/>
<path d="M481.565 221V210.336H485.051C486.208 210.336 487.078 210.575 487.659 211.054C488.245 211.532 488.538 212.24 488.538 213.178C488.538 213.676 488.396 214.118 488.113 214.503C487.83 214.884 487.444 215.18 486.956 215.39C487.532 215.551 487.986 215.858 488.318 216.312C488.655 216.762 488.823 217.299 488.823 217.924C488.823 218.881 488.513 219.633 487.893 220.18C487.273 220.727 486.396 221 485.264 221H481.565ZM482.971 216.012V219.85H485.293C485.947 219.85 486.462 219.682 486.838 219.345C487.219 219.003 487.41 218.534 487.41 217.938C487.41 216.654 486.711 216.012 485.315 216.012H482.971ZM482.971 214.884H485.095C485.71 214.884 486.201 214.73 486.567 214.423C486.938 214.115 487.124 213.698 487.124 213.17C487.124 212.584 486.953 212.16 486.611 211.896C486.27 211.627 485.75 211.493 485.051 211.493H482.971V214.884Z" fill="black"/>
<circle cx="296" cy="216" r="16" fill="#DC8989" stroke="white" stroke-width="2"/>
<path d="M292.565 221V210.336H296.051C297.208 210.336 298.078 210.575 298.659 211.054C299.245 211.532 299.538 212.24 299.538 213.178C299.538 213.676 299.396 214.118 299.113 214.503C298.83 214.884 298.444 215.18 297.956 215.39C298.532 215.551 298.986 215.858 299.318 216.312C299.655 216.762 299.823 217.299 299.823 217.924C299.823 218.881 299.513 219.633 298.893 220.18C298.273 220.727 297.396 221 296.264 221H292.565ZM293.971 216.012V219.85H296.293C296.947 219.85 297.462 219.682 297.838 219.345C298.219 219.003 298.41 218.534 298.41 217.938C298.41 216.654 297.711 216.012 296.315 216.012H293.971ZM293.971 214.884H296.095C296.71 214.884 297.201 214.73 297.567 214.423C297.938 214.115 298.124 213.698 298.124 213.17C298.124 212.584 297.953 212.16 297.611 211.896C297.27 211.627 296.75 211.493 296.051 211.493H293.971V214.884Z" fill="black"/>
<path d="M1043.53 106L948.263 51L853 106H1043.53Z" stroke="black" stroke-width="2"/>
<path d="M948.263 271L1043.53 216H853L948.263 271Z" stroke="black" stroke-width="2"/>
<circle cx="949" cy="51" r="16" fill="#DC8989" stroke="white" stroke-width="2"/>
<path d="M945.565 56V45.3359H949.051C950.208 45.3359 951.078 45.5752 951.659 46.0537C952.245 46.5322 952.538 47.2402 952.538 48.1777C952.538 48.6758 952.396 49.1177 952.113 49.5034C951.83 49.8843 951.444 50.1797 950.956 50.3896C951.532 50.5508 951.986 50.8584 952.318 51.3125C952.655 51.7617 952.823 52.2988 952.823 52.9238C952.823 53.8809 952.513 54.6328 951.893 55.1797C951.273 55.7266 950.396 56 949.264 56H945.565ZM946.971 51.0122V54.8501H949.293C949.947 54.8501 950.462 54.6816 950.838 54.3447C951.219 54.0029 951.41 53.5342 951.41 52.9385C951.41 51.6543 950.711 51.0122 949.315 51.0122H946.971ZM946.971 49.8843H949.095C949.71 49.8843 950.201 49.7305 950.567 49.4229C950.938 49.1152 951.124 48.6978 951.124 48.1704C951.124 47.5845 950.953 47.1597 950.611 46.896C950.27 46.6274 949.75 46.4932 949.051 46.4932H946.971V49.8843Z" fill="black"/>
<circle cx="1043" cy="106" r="16" fill="#DC8989" stroke="white" stroke-width="2"/>
<path d="M1039.56 111V100.336H1043.05C1044.21 100.336 1045.08 100.575 1045.66 101.054C1046.24 101.532 1046.54 102.24 1046.54 103.178C1046.54 103.676 1046.4 104.118 1046.11 104.503C1045.83 104.884 1045.44 105.18 1044.96 105.39C1045.53 105.551 1045.99 105.858 1046.32 106.312C1046.65 106.762 1046.82 107.299 1046.82 107.924C1046.82 108.881 1046.51 109.633 1045.89 110.18C1045.27 110.727 1044.4 111 1043.26 111H1039.56ZM1040.97 106.012V109.85H1043.29C1043.95 109.85 1044.46 109.682 1044.84 109.345C1045.22 109.003 1045.41 108.534 1045.41 107.938C1045.41 106.654 1044.71 106.012 1043.31 106.012H1040.97ZM1040.97 104.884H1043.1C1043.71 104.884 1044.2 104.73 1044.57 104.423C1044.94 104.115 1045.12 103.698 1045.12 103.17C1045.12 102.584 1044.95 102.16 1044.61 101.896C1044.27 101.627 1043.75 101.493 1043.05 101.493H1040.97V104.884Z" fill="black"/>
<circle cx="949" cy="271" r="16" fill="#DC8989" stroke="white" stroke-width="2"/>
<path d="M945.565 276V265.336H949.051C950.208 265.336 951.078 265.575 951.659 266.054C952.245 266.532 952.538 267.24 952.538 268.178C952.538 268.676 952.396 269.118 952.113 269.503C951.83 269.884 951.444 270.18 950.956 270.39C951.532 270.551 951.986 270.858 952.318 271.312C952.655 271.762 952.823 272.299 952.823 272.924C952.823 273.881 952.513 274.633 951.893 275.18C951.273 275.727 950.396 276 949.264 276H945.565ZM946.971 271.012V274.85H949.293C949.947 274.85 950.462 274.682 950.838 274.345C951.219 274.003 951.41 273.534 951.41 272.938C951.41 271.654 950.711 271.012 949.315 271.012H946.971ZM946.971 269.884H949.095C949.71 269.884 950.201 269.73 950.567 269.423C950.938 269.115 951.124 268.698 951.124 268.17C951.124 267.584 950.953 267.16 950.611 266.896C950.27 266.627 949.75 266.493 949.051 266.493H946.971V269.884Z" fill="black"/>
<circle cx="854" cy="106" r="16" fill="#DC8989" stroke="white" stroke-width="2"/>
<path d="M850.565 111V100.336H854.051C855.208 100.336 856.078 100.575 856.659 101.054C857.245 101.532 857.538 102.24 857.538 103.178C857.538 103.676 857.396 104.118 857.113 104.503C856.83 104.884 856.444 105.18 855.956 105.39C856.532 105.551 856.986 105.858 857.318 106.312C857.655 106.762 857.823 107.299 857.823 107.924C857.823 108.881 857.513 109.633 856.893 110.18C856.273 110.727 855.396 111 854.264 111H850.565ZM851.971 106.012V109.85H854.293C854.947 109.85 855.462 109.682 855.838 109.345C856.219 109.003 856.41 108.534 856.41 107.938C856.41 106.654 855.711 106.012 854.315 106.012H851.971ZM851.971 104.884H854.095C854.71 104.884 855.201 104.73 855.567 104.423C855.938 104.115 856.124 103.698 856.124 103.17C856.124 102.584 855.953 102.16 855.611 101.896C855.27 101.627 854.75 101.493 854.051 101.493H851.971V104.884Z" fill="black"/>
<circle cx="1043" cy="216" r="16" fill="#DC8989" stroke="white" stroke-width="2"/>
<path d="M1039.56 221V210.336H1043.05C1044.21 210.336 1045.08 210.575 1045.66 211.054C1046.24 211.532 1046.54 212.24 1046.54 213.178C1046.54 213.676 1046.4 214.118 1046.11 214.503C1045.83 214.884 1045.44 215.18 1044.96 215.39C1045.53 215.551 1045.99 215.858 1046.32 216.312C1046.65 216.762 1046.82 217.299 1046.82 217.924C1046.82 218.881 1046.51 219.633 1045.89 220.18C1045.27 220.727 1044.4 221 1043.26 221H1039.56ZM1040.97 216.012V219.85H1043.29C1043.95 219.85 1044.46 219.682 1044.84 219.345C1045.22 219.003 1045.41 218.534 1045.41 217.938C1045.41 216.654 1044.71 216.012 1043.31 216.012H1040.97ZM1040.97 214.884H1043.1C1043.71 214.884 1044.2 214.73 1044.57 214.423C1044.94 214.115 1045.12 213.698 1045.12 213.17C1045.12 212.584 1044.95 212.16 1044.61 211.896C1044.27 211.627 1043.75 211.493 1043.05 211.493H1040.97V214.884Z" fill="black"/>
<circle cx="854" cy="216" r="16" fill="#DC8989" stroke="white" stroke-width="2"/>
<path d="M850.565 221V210.336H854.051C855.208 210.336 856.078 210.575 856.659 211.054C857.245 211.532 857.538 212.24 857.538 213.178C857.538 213.676 857.396 214.118 857.113 214.503C856.83 214.884 856.444 215.18 855.956 215.39C856.532 215.551 856.986 215.858 857.318 216.312C857.655 216.762 857.823 217.299 857.823 217.924C857.823 218.881 857.513 219.633 856.893 220.18C856.273 220.727 855.396 221 854.264 221H850.565ZM851.971 216.012V219.85H854.293C854.947 219.85 855.462 219.682 855.838 219.345C856.219 219.003 856.41 218.534 856.41 217.938C856.41 216.654 855.711 216.012 854.315 216.012H851.971ZM851.971 214.884H854.095C854.71 214.884 855.201 214.73 855.567 214.423C855.938 214.115 856.124 213.698 856.124 213.17C856.124 212.584 855.953 212.16 855.611 211.896C855.27 211.627 854.75 211.493 854.051 211.493H851.971V214.884Z" fill="black"/>
<path d="M281 161L271 155.226V166.774L281 161ZM221 162H272V160H221V162Z" fill="black"/>
<path d="M839 161L829 155.226V166.774L839 161ZM779 162H830V160H779V162Z" fill="black"/>
<path d="M98.3506 17H96.7246V7.49023H98.3506V17ZM96.5928 4.96777C96.5928 4.7041 96.6719 4.48145 96.8301 4.2998C96.9941 4.11816 97.2344 4.02734 97.5508 4.02734C97.8672 4.02734 98.1074 4.11816 98.2715 4.2998C98.4355 4.48145 98.5176 4.7041 98.5176 4.96777C98.5176 5.23145 98.4355 5.45117 98.2715 5.62695C98.1074 5.80273 97.8672 5.89062 97.5508 5.89062C97.2344 5.89062 96.9941 5.80273 96.8301 5.62695C96.6719 5.45117 96.5928 5.23145 96.5928 4.96777ZM112.861 9.8457H105.531V8.43066H112.861V9.8457ZM112.861 13.4932H105.531V12.0869H112.861V13.4932ZM127.627 11.542C127.627 13.4463 127.302 14.8613 126.651 15.7871C126.001 16.7129 124.984 17.1758 123.602 17.1758C122.236 17.1758 121.226 16.7246 120.569 15.8223C119.913 14.9141 119.573 13.5605 119.55 11.7617V9.59082C119.55 7.70996 119.875 6.3125 120.525 5.39844C121.176 4.48438 122.195 4.02734 123.584 4.02734C124.961 4.02734 125.975 4.46973 126.625 5.35449C127.275 6.2334 127.609 7.59277 127.627 9.43262V11.542ZM126.001 9.31836C126.001 7.94141 125.808 6.93945 125.421 6.3125C125.034 5.67969 124.422 5.36328 123.584 5.36328C122.752 5.36328 122.146 5.67676 121.765 6.30371C121.384 6.93066 121.188 7.89453 121.176 9.19531V11.7969C121.176 13.1797 121.375 14.2021 121.773 14.8643C122.178 15.5205 122.787 15.8486 123.602 15.8486C124.404 15.8486 124.999 15.5381 125.386 14.917C125.778 14.2959 125.983 13.3174 126.001 11.9814V9.31836Z" fill="black"/>
<path d="M656.351 17H654.725V7.49023H656.351V17ZM654.593 4.96777C654.593 4.7041 654.672 4.48145 654.83 4.2998C654.994 4.11816 655.234 4.02734 655.551 4.02734C655.867 4.02734 656.107 4.11816 656.271 4.2998C656.436 4.48145 656.518 4.7041 656.518 4.96777C656.518 5.23145 656.436 5.45117 656.271 5.62695C656.107 5.80273 655.867 5.89062 655.551 5.89062C655.234 5.89062 654.994 5.80273 654.83 5.62695C654.672 5.45117 654.593 5.23145 654.593 4.96777ZM670.861 9.8457H663.531V8.43066H670.861V9.8457ZM670.861 13.4932H663.531V12.0869H670.861V13.4932ZM685.627 11.542C685.627 13.4463 685.302 14.8613 684.651 15.7871C684.001 16.7129 682.984 17.1758 681.602 17.1758C680.236 17.1758 679.226 16.7246 678.569 15.8223C677.913 14.9141 677.573 13.5605 677.55 11.7617V9.59082C677.55 7.70996 677.875 6.3125 678.525 5.39844C679.176 4.48438 680.195 4.02734 681.584 4.02734C682.961 4.02734 683.975 4.46973 684.625 5.35449C685.275 6.2334 685.609 7.59277 685.627 9.43262V11.542ZM684.001 9.31836C684.001 7.94141 683.808 6.93945 683.421 6.3125C683.034 5.67969 682.422 5.36328 681.584 5.36328C680.752 5.36328 680.146 5.67676 679.765 6.30371C679.384 6.93066 679.188 7.89453 679.176 9.19531V11.7969C679.176 13.1797 679.375 14.2021 679.773 14.8643C680.178 15.5205 680.787 15.8486 681.602 15.8486C682.404 15.8486 682.999 15.5381 683.386 14.917C683.778 14.2959 683.983 13.3174 684.001 11.9814V9.31836Z" fill="black"/>
<path d="M377.351 17H375.725V7.49023H377.351V17ZM375.593 4.96777C375.593 4.7041 375.672 4.48145 375.83 4.2998C375.994 4.11816 376.234 4.02734 376.551 4.02734C376.867 4.02734 377.107 4.11816 377.271 4.2998C377.436 4.48145 377.518 4.7041 377.518 4.96777C377.518 5.23145 377.436 5.45117 377.271 5.62695C377.107 5.80273 376.867 5.89062 376.551 5.89062C376.234 5.89062 375.994 5.80273 375.83 5.62695C375.672 5.45117 375.593 5.23145 375.593 4.96777ZM391.861 9.8457H384.531V8.43066H391.861V9.8457ZM391.861 13.4932H384.531V12.0869H391.861V13.4932ZM403.946 17H402.312V6.16309L399.033 7.36719V5.89062L403.691 4.1416H403.946V17Z" fill="black"/>
<path d="M935.351 17H933.725V7.49023H935.351V17ZM933.593 4.96777C933.593 4.7041 933.672 4.48145 933.83 4.2998C933.994 4.11816 934.234 4.02734 934.551 4.02734C934.867 4.02734 935.107 4.11816 935.271 4.2998C935.436 4.48145 935.518 4.7041 935.518 4.96777C935.518 5.23145 935.436 5.45117 935.271 5.62695C935.107 5.80273 934.867 5.89062 934.551 5.89062C934.234 5.89062 933.994 5.80273 933.83 5.62695C933.672 5.45117 933.593 5.23145 933.593 4.96777ZM949.861 9.8457H942.531V8.43066H949.861V9.8457ZM949.861 13.4932H942.531V12.0869H949.861V13.4932ZM961.946 17H960.312V6.16309L957.033 7.36719V5.89062L961.691 4.1416H961.946V17Z" fill="black"/>
<line x1="530.5" y1="2.18557e-08" x2="530.5" y2="288" stroke="#747474"/>
</svg>
