<svg width="683" height="278" viewBox="0 0 683 278" fill="none" xmlns="http://www.w3.org/2000/svg">
<path d="M62 121L62 191M62 121L107 51L17 51L62 121ZM62 191L17 261M62 191L107 261" stroke="black" stroke-width="2"/>
<circle cx="62" cy="121" r="16" fill="#8EA7D7" stroke="white" stroke-width="2"/>
<path d="M64.2339 123.217H59.7661L58.7627 126H57.3125L61.3848 115.336H62.6152L66.6948 126H65.252L64.2339 123.217ZM60.1909 122.06H63.8164L62 117.072L60.1909 122.06Z" fill="black"/>
<circle cx="107" cy="51" r="16" fill="#8EA7D7" stroke="white" stroke-width="2"/>
<path d="M109.234 53.2168H104.766L103.763 56H102.312L106.385 45.3359H107.615L111.695 56H110.252L109.234 53.2168ZM105.191 52.0596H108.816L107 47.0718L105.191 52.0596Z" fill="black"/>
<circle cx="107" cy="261" r="16" fill="#8EA7D7" stroke="white" stroke-width="2"/>
<path d="M109.234 263.217H104.766L103.763 266H102.312L106.385 255.336H107.615L111.695 266H110.252L109.234 263.217ZM105.191 262.06H108.816L107 257.072L105.191 262.06Z" fill="black"/>
<circle cx="62" cy="191" r="16" fill="#8EA7D7" stroke="white" stroke-width="2"/>
<path d="M64.2339 193.217H59.7661L58.7627 196H57.3125L61.3848 185.336H62.6152L66.6948 196H65.252L64.2339 193.217ZM60.1909 192.06H63.8164L62 187.072L60.1909 192.06Z" fill="black"/>
<circle cx="17" cy="51" r="16" fill="#8EA7D7" stroke="white" stroke-width="2"/>
<path d="M19.2339 53.2168H14.7661L13.7627 56H12.3125L16.3848 45.3359H17.6152L21.6948 56H20.252L19.2339 53.2168ZM15.1909 52.0596H18.8164L17 47.0718L15.1909 52.0596Z" fill="black"/>
<circle cx="17" cy="261" r="16" fill="#8EA7D7" stroke="white" stroke-width="2"/>
<path d="M19.2339 263.217H14.7661L13.7627 266H12.3125L16.3848 255.336H17.6152L21.6948 266H20.252L19.2339 263.217ZM15.1909 262.06H18.8164L17 257.072L15.1909 262.06Z" fill="black"/>
<path d="M322 121L322 191M322 121L367 51L277 51L322 121ZM322 191L277 261M322 191L367 261" stroke="black" stroke-width="2"/>
<circle cx="322" cy="121" r="16" fill="#8EA7D7" stroke="white" stroke-width="2"/>
<path d="M318.565 126V115.336H322.051C323.208 115.336 324.078 115.575 324.659 116.054C325.245 116.532 325.538 117.24 325.538 118.178C325.538 118.676 325.396 119.118 325.113 119.503C324.83 119.884 324.444 120.18 323.956 120.39C324.532 120.551 324.986 120.858 325.318 121.312C325.655 121.762 325.823 122.299 325.823 122.924C325.823 123.881 325.513 124.633 324.893 125.18C324.273 125.727 323.396 126 322.264 126H318.565ZM319.971 121.012V124.85H322.293C322.947 124.85 323.462 124.682 323.838 124.345C324.219 124.003 324.41 123.534 324.41 122.938C324.41 121.654 323.711 121.012 322.315 121.012H319.971ZM319.971 119.884H322.095C322.71 119.884 323.201 119.73 323.567 119.423C323.938 119.115 324.124 118.698 324.124 118.17C324.124 117.584 323.953 117.16 323.611 116.896C323.27 116.627 322.75 116.493 322.051 116.493H319.971V119.884Z" fill="black"/>
<circle cx="367" cy="51" r="16" fill="#DC8989" stroke="white" stroke-width="2"/>
<path d="M371.197 52.6162C371.065 53.7441 370.647 54.6157 369.944 55.231C369.246 55.8413 368.316 56.1465 367.154 56.1465C365.894 56.1465 364.883 55.6948 364.122 54.7915C363.365 53.8882 362.986 52.6797 362.986 51.166V50.1406C362.986 49.1494 363.162 48.2778 363.514 47.5259C363.87 46.7739 364.373 46.1978 365.022 45.7974C365.672 45.3921 366.424 45.1895 367.278 45.1895C368.411 45.1895 369.319 45.5068 370.003 46.1416C370.687 46.7715 371.084 47.6455 371.197 48.7637H369.783C369.661 47.9141 369.395 47.2988 368.985 46.918C368.58 46.5371 368.011 46.3467 367.278 46.3467C366.38 46.3467 365.674 46.6787 365.162 47.3428C364.654 48.0068 364.4 48.9517 364.4 50.1772V51.21C364.4 52.3672 364.642 53.2876 365.125 53.9712C365.608 54.6548 366.285 54.9966 367.154 54.9966C367.935 54.9966 368.533 54.8208 368.948 54.4692C369.368 54.1128 369.646 53.4951 369.783 52.6162H371.197Z" fill="black"/>
<circle cx="367" cy="261" r="16" fill="#8DDC89" stroke="white" stroke-width="2"/>
<path d="M363.316 266V255.336H366.326C367.254 255.336 368.074 255.541 368.787 255.951C369.5 256.361 370.049 256.945 370.435 257.702C370.826 258.458 371.023 259.328 371.028 260.309V260.99C371.028 261.996 370.833 262.877 370.442 263.634C370.057 264.391 369.502 264.972 368.78 265.377C368.062 265.783 367.225 265.99 366.268 266H363.316ZM364.722 256.493V264.85H366.202C367.286 264.85 368.128 264.513 368.729 263.839C369.334 263.166 369.637 262.206 369.637 260.961V260.338C369.637 259.127 369.351 258.188 368.78 257.519C368.213 256.845 367.408 256.503 366.363 256.493H364.722Z" fill="black"/>
<circle cx="322" cy="191" r="16" fill="#8EA7D7" stroke="white" stroke-width="2"/>
<path d="M318.565 196V185.336H322.051C323.208 185.336 324.078 185.575 324.659 186.054C325.245 186.532 325.538 187.24 325.538 188.178C325.538 188.676 325.396 189.118 325.113 189.503C324.83 189.884 324.444 190.18 323.956 190.39C324.532 190.551 324.986 190.858 325.318 191.312C325.655 191.762 325.823 192.299 325.823 192.924C325.823 193.881 325.513 194.633 324.893 195.18C324.273 195.727 323.396 196 322.264 196H318.565ZM319.971 191.012V194.85H322.293C322.947 194.85 323.462 194.682 323.838 194.345C324.219 194.003 324.41 193.534 324.41 192.938C324.41 191.654 323.711 191.012 322.315 191.012H319.971ZM319.971 189.884H322.095C322.71 189.884 323.201 189.73 323.567 189.423C323.938 189.115 324.124 188.698 324.124 188.17C324.124 187.584 323.953 187.16 323.611 186.896C323.27 186.627 322.75 186.493 322.051 186.493H319.971V189.884Z" fill="black"/>
<circle cx="277" cy="51" r="16" fill="#DC8989" stroke="white" stroke-width="2"/>
<path d="M281.197 52.6162C281.065 53.7441 280.647 54.6157 279.944 55.231C279.246 55.8413 278.316 56.1465 277.154 56.1465C275.894 56.1465 274.883 55.6948 274.122 54.7915C273.365 53.8882 272.986 52.6797 272.986 51.166V50.1406C272.986 49.1494 273.162 48.2778 273.514 47.5259C273.87 46.7739 274.373 46.1978 275.022 45.7974C275.672 45.3921 276.424 45.1895 277.278 45.1895C278.411 45.1895 279.319 45.5068 280.003 46.1416C280.687 46.7715 281.084 47.6455 281.197 48.7637H279.783C279.661 47.9141 279.395 47.2988 278.985 46.918C278.58 46.5371 278.011 46.3467 277.278 46.3467C276.38 46.3467 275.674 46.6787 275.162 47.3428C274.654 48.0068 274.4 48.9517 274.4 50.1772V51.21C274.4 52.3672 274.642 53.2876 275.125 53.9712C275.608 54.6548 276.285 54.9966 277.154 54.9966C277.935 54.9966 278.533 54.8208 278.948 54.4692C279.368 54.1128 279.646 53.4951 279.783 52.6162H281.197Z" fill="black"/>
<circle cx="277" cy="261" r="16" fill="#8DDC89" stroke="white" stroke-width="2"/>
<path d="M273.316 266V255.336H276.326C277.254 255.336 278.074 255.541 278.787 255.951C279.5 256.361 280.049 256.945 280.435 257.702C280.826 258.458 281.023 259.328 281.028 260.309V260.99C281.028 261.996 280.833 262.877 280.442 263.634C280.057 264.391 279.502 264.972 278.78 265.377C278.062 265.783 277.225 265.99 276.268 266H273.316ZM274.722 256.493V264.85H276.202C277.286 264.85 278.128 264.513 278.729 263.839C279.334 263.166 279.637 262.206 279.637 260.961V260.338C279.637 259.127 279.351 258.188 278.78 257.519C278.213 256.845 277.408 256.503 276.363 256.493H274.722Z" fill="black"/>
<path d="M349.126 123.217H344.659L343.655 126H342.205L346.277 115.336H347.508L351.587 126H350.145L349.126 123.217ZM345.083 122.06H348.709L346.893 117.072L345.083 122.06ZM352.767 128.124L351.998 127.597C352.457 126.957 352.696 126.298 352.715 125.619V124.396H354.041V125.458C354.041 125.951 353.919 126.444 353.675 126.938C353.436 127.431 353.133 127.826 352.767 128.124ZM365.577 123.217H361.109L360.105 126H358.655L362.728 115.336H363.958L368.038 126H366.595L365.577 123.217ZM361.534 122.06H365.159L363.343 117.072L361.534 122.06ZM375.362 123.217H370.894L369.891 126H368.44L372.513 115.336H373.743L377.823 126H376.38L375.362 123.217ZM371.319 122.06H374.944L373.128 117.072L371.319 122.06ZM385.147 123.217H380.679L379.676 126H378.226L382.298 115.336H383.528L387.608 126H386.165L385.147 123.217ZM381.104 122.06H384.729L382.913 117.072L381.104 122.06Z" fill="#355FB3"/>
<path d="M349.126 193.217H344.659L343.655 196H342.205L346.277 185.336H347.508L351.587 196H350.145L349.126 193.217ZM345.083 192.06H348.709L346.893 187.072L345.083 192.06ZM352.767 198.124L351.998 197.597C352.457 196.957 352.696 196.298 352.715 195.619V194.396H354.041V195.458C354.041 195.951 353.919 196.444 353.675 196.938C353.436 197.431 353.133 197.826 352.767 198.124ZM365.577 193.217H361.109L360.105 196H358.655L362.728 185.336H363.958L368.038 196H366.595L365.577 193.217ZM361.534 192.06H365.159L363.343 187.072L361.534 192.06ZM375.362 193.217H370.894L369.891 196H368.44L372.513 185.336H373.743L377.823 196H376.38L375.362 193.217ZM371.319 192.06H374.944L373.128 187.072L371.319 192.06ZM385.147 193.217H380.679L379.676 196H378.226L382.298 185.336H383.528L387.608 196H386.165L385.147 193.217ZM381.104 192.06H384.729L382.913 187.072L381.104 192.06Z" fill="#355FB3"/>
<path d="M394.126 263.217H389.659L388.655 266H387.205L391.277 255.336H392.508L396.587 266H395.145L394.126 263.217ZM390.083 262.06H393.709L391.893 257.072L390.083 262.06ZM397.767 268.124L396.998 267.597C397.457 266.957 397.696 266.298 397.715 265.619V264.396H399.041V265.458C399.041 265.951 398.919 266.444 398.675 266.938C398.436 267.431 398.133 267.826 397.767 268.124ZM410.577 263.217H406.109L405.105 266H403.655L407.728 255.336H408.958L413.038 266H411.595L410.577 263.217ZM406.534 262.06H410.159L408.343 257.072L406.534 262.06Z" fill="#355FB3"/>
<path d="M394.126 53.2168H389.659L388.655 56H387.205L391.277 45.3359H392.508L396.587 56H395.145L394.126 53.2168ZM390.083 52.0596H393.709L391.893 47.0718L390.083 52.0596ZM397.767 58.124L396.998 57.5967C397.457 56.957 397.696 56.2979 397.715 55.6191V54.396H399.041V55.458C399.041 55.9512 398.919 56.4443 398.675 56.9375C398.436 57.4307 398.133 57.8262 397.767 58.124ZM410.577 53.2168H406.109L405.105 56H403.655L407.728 45.3359H408.958L413.038 56H411.595L410.577 53.2168ZM406.534 52.0596H410.159L408.343 47.0718L406.534 52.0596ZM420.362 53.2168H415.894L414.891 56H413.44L417.513 45.3359H418.743L422.823 56H421.38L420.362 53.2168ZM416.319 52.0596H419.944L418.128 47.0718L416.319 52.0596Z" fill="#355FB3"/>
<path d="M237.891 263.217H233.423L232.42 266H230.97L235.042 255.336H236.272L240.352 266H238.909L237.891 263.217ZM233.848 262.06H237.474L235.657 257.072L233.848 262.06ZM241.531 268.124L240.762 267.597C241.221 266.957 241.46 266.298 241.48 265.619V264.396H242.806V265.458C242.806 265.951 242.684 266.444 242.439 266.938C242.2 267.431 241.897 267.826 241.531 268.124ZM254.341 263.217H249.874L248.87 266H247.42L251.492 255.336H252.723L256.802 266H255.359L254.341 263.217ZM250.298 262.06H253.924L252.107 257.072L250.298 262.06Z" fill="#355FB3"/>
<path d="M228.106 53.2168H223.638L222.635 56H221.185L225.257 45.3359H226.487L230.567 56H229.124L228.106 53.2168ZM224.063 52.0596H227.688L225.872 47.0718L224.063 52.0596ZM231.746 58.124L230.977 57.5967C231.436 56.957 231.675 56.2979 231.695 55.6191V54.396H233.021V55.458C233.021 55.9512 232.898 56.4443 232.654 56.9375C232.415 57.4307 232.112 57.8262 231.746 58.124ZM244.556 53.2168H240.088L239.085 56H237.635L241.707 45.3359H242.938L247.017 56H245.574L244.556 53.2168ZM240.513 52.0596H244.139L242.322 47.0718L240.513 52.0596ZM254.341 53.2168H249.874L248.87 56H247.42L251.492 45.3359H252.723L256.802 56H255.359L254.341 53.2168ZM250.298 52.0596H253.924L252.107 47.0718L250.298 52.0596Z" fill="#355FB3"/>
<path d="M48.3506 17H46.7246V7.49023H48.3506V17ZM46.5928 4.96777C46.5928 4.7041 46.6719 4.48145 46.8301 4.2998C46.9941 4.11816 47.2344 4.02734 47.5508 4.02734C47.8672 4.02734 48.1074 4.11816 48.2715 4.2998C48.4355 4.48145 48.5176 4.7041 48.5176 4.96777C48.5176 5.23145 48.4355 5.45117 48.2715 5.62695C48.1074 5.80273 47.8672 5.89062 47.5508 5.89062C47.2344 5.89062 46.9941 5.80273 46.8301 5.62695C46.6719 5.45117 46.5928 5.23145 46.5928 4.96777ZM62.8613 9.8457H55.5312V8.43066H62.8613V9.8457ZM62.8613 13.4932H55.5312V12.0869H62.8613V13.4932ZM77.627 11.542C77.627 13.4463 77.3018 14.8613 76.6514 15.7871C76.001 16.7129 74.9844 17.1758 73.6016 17.1758C72.2363 17.1758 71.2256 16.7246 70.5693 15.8223C69.9131 14.9141 69.5732 13.5605 69.5498 11.7617V9.59082C69.5498 7.70996 69.875 6.3125 70.5254 5.39844C71.1758 4.48438 72.1953 4.02734 73.584 4.02734C74.9609 4.02734 75.9746 4.46973 76.625 5.35449C77.2754 6.2334 77.6094 7.59277 77.627 9.43262V11.542ZM76.001 9.31836C76.001 7.94141 75.8076 6.93945 75.4209 6.3125C75.0342 5.67969 74.4219 5.36328 73.584 5.36328C72.752 5.36328 72.1455 5.67676 71.7646 6.30371C71.3838 6.93066 71.1875 7.89453 71.1758 9.19531V11.7969C71.1758 13.1797 71.375 14.2021 71.7734 14.8643C72.1777 15.5205 72.7871 15.8486 73.6016 15.8486C74.4043 15.8486 74.999 15.5381 75.3857 14.917C75.7783 14.2959 75.9834 13.3174 76.001 11.9814V9.31836Z" fill="black"/>
<path d="M308.351 17H306.725V7.49023H308.351V17ZM306.593 4.96777C306.593 4.7041 306.672 4.48145 306.83 4.2998C306.994 4.11816 307.234 4.02734 307.551 4.02734C307.867 4.02734 308.107 4.11816 308.271 4.2998C308.436 4.48145 308.518 4.7041 308.518 4.96777C308.518 5.23145 308.436 5.45117 308.271 5.62695C308.107 5.80273 307.867 5.89062 307.551 5.89062C307.234 5.89062 306.994 5.80273 306.83 5.62695C306.672 5.45117 306.593 5.23145 306.593 4.96777ZM322.861 9.8457H315.531V8.43066H322.861V9.8457ZM322.861 13.4932H315.531V12.0869H322.861V13.4932ZM334.946 17H333.312V6.16309L330.033 7.36719V5.89062L334.691 4.1416H334.946V17Z" fill="black"/>
<path d="M568.351 17H566.725V7.49023H568.351V17ZM566.593 4.96777C566.593 4.7041 566.672 4.48145 566.83 4.2998C566.994 4.11816 567.234 4.02734 567.551 4.02734C567.867 4.02734 568.107 4.11816 568.271 4.2998C568.436 4.48145 568.518 4.7041 568.518 4.96777C568.518 5.23145 568.436 5.45117 568.271 5.62695C568.107 5.80273 567.867 5.89062 567.551 5.89062C567.234 5.89062 566.994 5.80273 566.83 5.62695C566.672 5.45117 566.593 5.23145 566.593 4.96777ZM582.861 9.8457H575.531V8.43066H582.861V9.8457ZM582.861 13.4932H575.531V12.0869H582.861V13.4932ZM597.987 17H589.603V15.8311L594.032 10.9092C594.688 10.165 595.14 9.56152 595.386 9.09863C595.638 8.62988 595.764 8.14648 595.764 7.64844C595.764 6.98047 595.562 6.43262 595.157 6.00488C594.753 5.57715 594.214 5.36328 593.54 5.36328C592.731 5.36328 592.102 5.59473 591.65 6.05762C591.205 6.51465 590.982 7.15332 590.982 7.97363H589.356C589.356 6.7959 589.734 5.84375 590.49 5.11719C591.252 4.39062 592.269 4.02734 593.54 4.02734C594.729 4.02734 595.67 4.34082 596.361 4.96777C597.053 5.58887 597.398 6.41797 597.398 7.45508C597.398 8.71484 596.596 10.2148 594.99 11.9551L591.562 15.6729H597.987V17Z" fill="black"/>
<path d="M582 121L582 191M582 121L627 51L537 51L582 121ZM582 191L537 261M582 191L627 261" stroke="black" stroke-width="2"/>
<circle cx="582" cy="121" r="16" fill="#8EA7D7" stroke="white" stroke-width="2"/>
<path d="M585.003 121.071H580.381V124.85H585.75V126H578.975V115.336H585.677V116.493H580.381V119.921H585.003V121.071Z" fill="black"/>
<circle cx="627" cy="51" r="16" fill="#DC8989" stroke="white" stroke-width="2"/>
<path d="M630.999 54.6011C630.638 55.1187 630.132 55.5068 629.483 55.7656C628.838 56.0195 628.086 56.1465 627.227 56.1465C626.358 56.1465 625.586 55.9438 624.913 55.5386C624.239 55.1284 623.716 54.5474 623.345 53.7954C622.979 53.0435 622.791 52.1719 622.781 51.1807V50.2505C622.781 48.644 623.155 47.3989 623.902 46.5151C624.654 45.6313 625.708 45.1895 627.066 45.1895C628.179 45.1895 629.075 45.4751 629.754 46.0464C630.433 46.6128 630.848 47.4185 630.999 48.4634H629.593C629.329 47.0522 628.489 46.3467 627.073 46.3467C626.131 46.3467 625.416 46.6787 624.927 47.3428C624.444 48.002 624.2 48.959 624.195 50.2139V51.0854C624.195 52.2817 624.468 53.2339 625.015 53.9419C625.562 54.645 626.302 54.9966 627.234 54.9966C627.762 54.9966 628.223 54.938 628.619 54.8208C629.014 54.7036 629.341 54.5059 629.6 54.2275V51.8325H627.132V50.6899H630.999V54.6011Z" fill="black"/>
<circle cx="627" cy="261" r="16" fill="#8DDC89" stroke="white" stroke-width="2"/>
<path d="M631.087 266H629.673V261.071H624.297V266H622.891V255.336H624.297V259.921H629.673V255.336H631.087V266Z" fill="black"/>
<circle cx="582" cy="191" r="16" fill="#DCCA89" stroke="white" stroke-width="2"/>
<path d="M584.974 191.291H580.499V196H579.092V185.336H585.699V186.493H580.499V190.141H584.974V191.291Z" fill="black"/>
<circle cx="537" cy="51" r="16" fill="#DC8989" stroke="white" stroke-width="2"/>
<path d="M540.999 54.6011C540.638 55.1187 540.132 55.5068 539.483 55.7656C538.838 56.0195 538.086 56.1465 537.227 56.1465C536.358 56.1465 535.586 55.9438 534.913 55.5386C534.239 55.1284 533.716 54.5474 533.345 53.7954C532.979 53.0435 532.791 52.1719 532.781 51.1807V50.2505C532.781 48.644 533.155 47.3989 533.902 46.5151C534.654 45.6313 535.708 45.1895 537.066 45.1895C538.179 45.1895 539.075 45.4751 539.754 46.0464C540.433 46.6128 540.848 47.4185 540.999 48.4634H539.593C539.329 47.0522 538.489 46.3467 537.073 46.3467C536.131 46.3467 535.416 46.6787 534.927 47.3428C534.444 48.002 534.2 48.959 534.195 50.2139V51.0854C534.195 52.2817 534.468 53.2339 535.015 53.9419C535.562 54.645 536.302 54.9966 537.234 54.9966C537.762 54.9966 538.223 54.938 538.619 54.8208C539.014 54.7036 539.341 54.5059 539.6 54.2275V51.8325H537.132V50.6899H540.999V54.6011Z" fill="black"/>
<circle cx="537" cy="261" r="16" fill="#8DDC89" stroke="white" stroke-width="2"/>
<path d="M541.087 266H539.673V261.071H534.297V266H532.891V255.336H534.297V259.921H539.673V255.336H541.087V266Z" fill="black"/>
<path d="M603.238 126V115.336H606.724C607.881 115.336 608.75 115.575 609.332 116.054C609.917 116.532 610.21 117.24 610.21 118.178C610.21 118.676 610.069 119.118 609.786 119.503C609.502 119.884 609.117 120.18 608.628 120.39C609.205 120.551 609.659 120.858 609.991 121.312C610.328 121.762 610.496 122.299 610.496 122.924C610.496 123.881 610.186 124.633 609.566 125.18C608.946 125.727 608.069 126 606.937 126H603.238ZM604.644 121.012V124.85H606.966C607.62 124.85 608.135 124.682 608.511 124.345C608.892 124.003 609.083 123.534 609.083 122.938C609.083 121.654 608.384 121.012 606.988 121.012H604.644ZM604.644 119.884H606.768C607.383 119.884 607.874 119.73 608.24 119.423C608.611 119.115 608.797 118.698 608.797 118.17C608.797 117.584 608.626 117.16 608.284 116.896C607.942 116.627 607.422 116.493 606.724 116.493H604.644V119.884ZM612.327 128.124L611.558 127.597C612.017 126.957 612.256 126.298 612.276 125.619V124.396H613.602V125.458C613.602 125.951 613.479 126.444 613.235 126.938C612.996 127.431 612.693 127.826 612.327 128.124ZM619.249 126V115.336H622.735C623.892 115.336 624.761 115.575 625.342 116.054C625.928 116.532 626.221 117.24 626.221 118.178C626.221 118.676 626.08 119.118 625.796 119.503C625.513 119.884 625.127 120.18 624.639 120.39C625.215 120.551 625.669 120.858 626.001 121.312C626.338 121.762 626.507 122.299 626.507 122.924C626.507 123.881 626.197 124.633 625.577 125.18C624.957 125.727 624.08 126 622.947 126H619.249ZM620.655 121.012V124.85H622.977C623.631 124.85 624.146 124.682 624.522 124.345C624.903 124.003 625.093 123.534 625.093 122.938C625.093 121.654 624.395 121.012 622.999 121.012H620.655ZM620.655 119.884H622.779C623.394 119.884 623.885 119.73 624.251 119.423C624.622 119.115 624.808 118.698 624.808 118.17C624.808 117.584 624.637 117.16 624.295 116.896C623.953 116.627 623.433 116.493 622.735 116.493H620.655V119.884Z" fill="#355FB3"/>
<path d="M636.438 122.616C636.307 123.744 635.889 124.616 635.186 125.231C634.488 125.841 633.558 126.146 632.396 126.146C631.136 126.146 630.125 125.695 629.363 124.792C628.606 123.888 628.228 122.68 628.228 121.166V120.141C628.228 119.149 628.404 118.278 628.755 117.526C629.112 116.774 629.615 116.198 630.264 115.797C630.914 115.392 631.666 115.189 632.52 115.189C633.653 115.189 634.561 115.507 635.245 116.142C635.928 116.771 636.326 117.646 636.438 118.764H635.025C634.903 117.914 634.637 117.299 634.227 116.918C633.821 116.537 633.252 116.347 632.52 116.347C631.622 116.347 630.916 116.679 630.403 117.343C629.896 118.007 629.642 118.952 629.642 120.177V121.21C629.642 122.367 629.883 123.288 630.367 123.971C630.85 124.655 631.526 124.997 632.396 124.997C633.177 124.997 633.775 124.821 634.19 124.469C634.61 124.113 634.888 123.495 635.025 122.616H636.438ZM646.209 122.616C646.077 123.744 645.66 124.616 644.957 125.231C644.258 125.841 643.328 126.146 642.166 126.146C640.906 126.146 639.896 125.695 639.134 124.792C638.377 123.888 637.999 122.68 637.999 121.166V120.141C637.999 119.149 638.174 118.278 638.526 117.526C638.882 116.774 639.385 116.198 640.035 115.797C640.684 115.392 641.436 115.189 642.291 115.189C643.423 115.189 644.332 115.507 645.015 116.142C645.699 116.771 646.097 117.646 646.209 118.764H644.795C644.673 117.914 644.407 117.299 643.997 116.918C643.592 116.537 643.023 116.347 642.291 116.347C641.392 116.347 640.687 116.679 640.174 117.343C639.666 118.007 639.412 118.952 639.412 120.177V121.21C639.412 122.367 639.654 123.288 640.137 123.971C640.621 124.655 641.297 124.997 642.166 124.997C642.947 124.997 643.545 124.821 643.96 124.469C644.38 124.113 644.659 123.495 644.795 122.616H646.209Z" fill="#B33535"/>
<path d="M603.238 196V185.336H606.724C607.881 185.336 608.75 185.575 609.332 186.054C609.917 186.532 610.21 187.24 610.21 188.178C610.21 188.676 610.069 189.118 609.786 189.503C609.502 189.884 609.117 190.18 608.628 190.39C609.205 190.551 609.659 190.858 609.991 191.312C610.328 191.762 610.496 192.299 610.496 192.924C610.496 193.881 610.186 194.633 609.566 195.18C608.946 195.727 608.069 196 606.937 196H603.238ZM604.644 191.012V194.85H606.966C607.62 194.85 608.135 194.682 608.511 194.345C608.892 194.003 609.083 193.534 609.083 192.938C609.083 191.654 608.384 191.012 606.988 191.012H604.644ZM604.644 189.884H606.768C607.383 189.884 607.874 189.73 608.24 189.423C608.611 189.115 608.797 188.698 608.797 188.17C608.797 187.584 608.626 187.16 608.284 186.896C607.942 186.627 607.422 186.493 606.724 186.493H604.644V189.884ZM612.327 198.124L611.558 197.597C612.017 196.957 612.256 196.298 612.276 195.619V194.396H613.602V195.458C613.602 195.951 613.479 196.444 613.235 196.938C612.996 197.431 612.693 197.826 612.327 198.124ZM619.249 196V185.336H622.735C623.892 185.336 624.761 185.575 625.342 186.054C625.928 186.532 626.221 187.24 626.221 188.178C626.221 188.676 626.08 189.118 625.796 189.503C625.513 189.884 625.127 190.18 624.639 190.39C625.215 190.551 625.669 190.858 626.001 191.312C626.338 191.762 626.507 192.299 626.507 192.924C626.507 193.881 626.197 194.633 625.577 195.18C624.957 195.727 624.08 196 622.947 196H619.249ZM620.655 191.012V194.85H622.977C623.631 194.85 624.146 194.682 624.522 194.345C624.903 194.003 625.093 193.534 625.093 192.938C625.093 191.654 624.395 191.012 622.999 191.012H620.655ZM620.655 189.884H622.779C623.394 189.884 623.885 189.73 624.251 189.423C624.622 189.115 624.808 188.698 624.808 188.17C624.808 187.584 624.637 187.16 624.295 186.896C623.953 186.627 623.433 186.493 622.735 186.493H620.655V189.884Z" fill="#355FB3"/>
<path d="M628.594 196V185.336H631.604C632.532 185.336 633.353 185.541 634.065 185.951C634.778 186.361 635.328 186.945 635.713 187.702C636.104 188.458 636.302 189.328 636.307 190.309V190.99C636.307 191.996 636.111 192.877 635.721 193.634C635.335 194.391 634.781 194.972 634.058 195.377C633.34 195.783 632.503 195.99 631.546 196H628.594ZM630 186.493V194.85H631.48C632.564 194.85 633.406 194.513 634.007 193.839C634.612 193.166 634.915 192.206 634.915 190.961V190.338C634.915 189.127 634.629 188.188 634.058 187.519C633.492 186.845 632.686 186.503 631.641 186.493H630ZM638.438 196V185.336H641.448C642.376 185.336 643.196 185.541 643.909 185.951C644.622 186.361 645.171 186.945 645.557 187.702C645.948 188.458 646.146 189.328 646.15 190.309V190.99C646.15 191.996 645.955 192.877 645.564 193.634C645.179 194.391 644.625 194.972 643.902 195.377C643.184 195.783 642.347 195.99 641.39 196H638.438ZM639.844 186.493V194.85H641.324C642.408 194.85 643.25 194.513 643.851 193.839C644.456 193.166 644.759 192.206 644.759 190.961V190.338C644.759 189.127 644.473 188.188 643.902 187.519C643.335 186.845 642.53 186.503 641.485 186.493H639.844Z" fill="#22661E"/>
<path d="M648.238 266V255.336H651.248C652.176 255.336 652.996 255.541 653.709 255.951C654.422 256.361 654.971 256.945 655.357 257.702C655.748 258.458 655.945 259.328 655.95 260.309V260.99C655.95 261.996 655.755 262.877 655.364 263.634C654.979 264.391 654.424 264.972 653.702 265.377C652.984 265.783 652.146 265.99 651.189 266H648.238ZM649.644 256.493V264.85H651.124C652.208 264.85 653.05 264.513 653.65 263.839C654.256 263.166 654.559 262.206 654.559 260.961V260.338C654.559 259.127 654.273 258.188 653.702 257.519C653.135 256.845 652.33 256.503 651.285 256.493H649.644ZM657.825 268.124L657.056 267.597C657.515 266.957 657.754 266.298 657.774 265.619V264.396H659.1V265.458C659.1 265.951 658.978 266.444 658.733 266.938C658.494 267.431 658.191 267.826 657.825 268.124Z" fill="#22661E"/>
<path d="M664.747 266V255.336H668.233C669.39 255.336 670.259 255.575 670.84 256.054C671.426 256.532 671.719 257.24 671.719 258.178C671.719 258.676 671.578 259.118 671.294 259.503C671.011 259.884 670.625 260.18 670.137 260.39C670.713 260.551 671.167 260.858 671.5 261.312C671.836 261.762 672.005 262.299 672.005 262.924C672.005 263.881 671.695 264.633 671.075 265.18C670.455 265.727 669.578 266 668.445 266H664.747ZM666.153 261.012V264.85H668.475C669.129 264.85 669.644 264.682 670.02 264.345C670.401 264.003 670.591 263.534 670.591 262.938C670.591 261.654 669.893 261.012 668.497 261.012H666.153ZM666.153 259.884H668.277C668.892 259.884 669.383 259.73 669.749 259.423C670.12 259.115 670.306 258.698 670.306 258.17C670.306 257.584 670.135 257.16 669.793 256.896C669.451 256.627 668.931 256.493 668.233 256.493H666.153V259.884Z" fill="#355FB3"/>
<path d="M656.082 52.6162C655.95 53.7441 655.533 54.6157 654.83 55.231C654.131 55.8413 653.201 56.1465 652.039 56.1465C650.779 56.1465 649.769 55.6948 649.007 54.7915C648.25 53.8882 647.872 52.6797 647.872 51.166V50.1406C647.872 49.1494 648.047 48.2778 648.399 47.5259C648.755 46.7739 649.258 46.1978 649.908 45.7974C650.557 45.3921 651.309 45.1895 652.164 45.1895C653.296 45.1895 654.205 45.5068 654.888 46.1416C655.572 46.7715 655.97 47.6455 656.082 48.7637H654.668C654.546 47.9141 654.28 47.2988 653.87 46.918C653.465 46.5371 652.896 46.3467 652.164 46.3467C651.265 46.3467 650.56 46.6787 650.047 47.3428C649.539 48.0068 649.285 48.9517 649.285 50.1772V51.21C649.285 52.3672 649.527 53.2876 650.01 53.9712C650.494 54.6548 651.17 54.9966 652.039 54.9966C652.82 54.9966 653.418 54.8208 653.833 54.4692C654.253 54.1128 654.532 53.4951 654.668 52.6162H656.082ZM657.752 58.124L656.983 57.5967C657.442 56.957 657.681 56.2979 657.701 55.6191V54.396H659.026V55.458C659.026 55.9512 658.904 56.4443 658.66 56.9375C658.421 57.4307 658.118 57.8262 657.752 58.124ZM681.863 52.6162C681.731 53.7441 681.314 54.6157 680.611 55.231C679.913 55.8413 678.982 56.1465 677.82 56.1465C676.561 56.1465 675.55 55.6948 674.788 54.7915C674.031 53.8882 673.653 52.6797 673.653 51.166V50.1406C673.653 49.1494 673.829 48.2778 674.18 47.5259C674.537 46.7739 675.04 46.1978 675.689 45.7974C676.338 45.3921 677.09 45.1895 677.945 45.1895C679.078 45.1895 679.986 45.5068 680.669 46.1416C681.353 46.7715 681.751 47.6455 681.863 48.7637H680.45C680.328 47.9141 680.062 47.2988 679.651 46.918C679.246 46.5371 678.677 46.3467 677.945 46.3467C677.046 46.3467 676.341 46.6787 675.828 47.3428C675.32 48.0068 675.066 48.9517 675.066 50.1772V51.21C675.066 52.3672 675.308 53.2876 675.792 53.9712C676.275 54.6548 676.951 54.9966 677.82 54.9966C678.602 54.9966 679.2 54.8208 679.615 54.4692C680.035 54.1128 680.313 53.4951 680.45 52.6162H681.863Z" fill="#B33535"/>
<path d="M664.673 56V45.3359H668.16C669.317 45.3359 670.186 45.5752 670.767 46.0537C671.353 46.5322 671.646 47.2402 671.646 48.1777C671.646 48.6758 671.504 49.1177 671.221 49.5034C670.938 49.8843 670.552 50.1797 670.064 50.3896C670.64 50.5508 671.094 50.8584 671.426 51.3125C671.763 51.7617 671.932 52.2988 671.932 52.9238C671.932 53.8809 671.622 54.6328 671.001 55.1797C670.381 55.7266 669.505 56 668.372 56H664.673ZM666.08 51.0122V54.8501H668.401C669.056 54.8501 669.571 54.6816 669.947 54.3447C670.328 54.0029 670.518 53.5342 670.518 52.9385C670.518 51.6543 669.82 51.0122 668.423 51.0122H666.08ZM666.08 49.8843H668.204C668.819 49.8843 669.31 49.7305 669.676 49.4229C670.047 49.1152 670.232 48.6978 670.232 48.1704C670.232 47.5845 670.062 47.1597 669.72 46.896C669.378 46.6274 668.858 46.4932 668.16 46.4932H666.08V49.8843Z" fill="#355FB3"/>
<path d="M493.13 266V255.336H496.141C497.068 255.336 497.889 255.541 498.602 255.951C499.314 256.361 499.864 256.945 500.25 257.702C500.64 258.458 500.838 259.328 500.843 260.309V260.99C500.843 261.996 500.647 262.877 500.257 263.634C499.871 264.391 499.317 264.972 498.594 265.377C497.876 265.783 497.039 265.99 496.082 266H493.13ZM494.537 256.493V264.85H496.016C497.1 264.85 497.942 264.513 498.543 263.839C499.148 263.166 499.451 262.206 499.451 260.961V260.338C499.451 259.127 499.166 258.188 498.594 257.519C498.028 256.845 497.222 256.503 496.177 256.493H494.537ZM501.971 268.124L501.202 267.597C501.661 266.957 501.9 266.298 501.919 265.619V264.396H503.245V265.458C503.245 265.951 503.123 266.444 502.879 266.938C502.64 267.431 502.337 267.826 501.971 268.124Z" fill="#22661E"/>
<path d="M508.892 266V255.336H512.378C513.536 255.336 514.405 255.575 514.986 256.054C515.572 256.532 515.865 257.24 515.865 258.178C515.865 258.676 515.723 259.118 515.44 259.503C515.157 259.884 514.771 260.18 514.283 260.39C514.859 260.551 515.313 260.858 515.645 261.312C515.982 261.762 516.15 262.299 516.15 262.924C516.15 263.881 515.84 264.633 515.22 265.18C514.6 265.727 513.724 266 512.591 266H508.892ZM510.298 261.012V264.85H512.62C513.274 264.85 513.79 264.682 514.166 264.345C514.546 264.003 514.737 263.534 514.737 262.938C514.737 261.654 514.039 261.012 512.642 261.012H510.298ZM510.298 259.884H512.422C513.038 259.884 513.528 259.73 513.895 259.423C514.266 259.115 514.451 258.698 514.451 258.17C514.451 257.584 514.28 257.16 513.938 256.896C513.597 256.627 513.077 256.493 512.378 256.493H510.298V259.884Z" fill="#355FB3"/>
<path d="M490.53 52.6162C490.398 53.7441 489.981 54.6157 489.278 55.231C488.58 55.8413 487.649 56.1465 486.487 56.1465C485.228 56.1465 484.217 55.6948 483.455 54.7915C482.698 53.8882 482.32 52.6797 482.32 51.166V50.1406C482.32 49.1494 482.496 48.2778 482.847 47.5259C483.204 46.7739 483.707 46.1978 484.356 45.7974C485.005 45.3921 485.757 45.1895 486.612 45.1895C487.745 45.1895 488.653 45.5068 489.336 46.1416C490.02 46.7715 490.418 47.6455 490.53 48.7637H489.117C488.995 47.9141 488.729 47.2988 488.318 46.918C487.913 46.5371 487.344 46.3467 486.612 46.3467C485.713 46.3467 485.008 46.6787 484.495 47.3428C483.987 48.0068 483.733 48.9517 483.733 50.1772V51.21C483.733 52.3672 483.975 53.2876 484.458 53.9712C484.942 54.6548 485.618 54.9966 486.487 54.9966C487.269 54.9966 487.867 54.8208 488.282 54.4692C488.702 54.1128 488.98 53.4951 489.117 52.6162H490.53ZM492.2 58.124L491.431 57.5967C491.89 56.957 492.129 56.2979 492.149 55.6191V54.396H493.475V55.458C493.475 55.9512 493.353 56.4443 493.108 56.9375C492.869 57.4307 492.566 57.8262 492.2 58.124ZM516.312 52.6162C516.18 53.7441 515.762 54.6157 515.059 55.231C514.361 55.8413 513.431 56.1465 512.269 56.1465C511.009 56.1465 509.998 55.6948 509.236 54.7915C508.479 53.8882 508.101 52.6797 508.101 51.166V50.1406C508.101 49.1494 508.277 48.2778 508.628 47.5259C508.985 46.7739 509.488 46.1978 510.137 45.7974C510.787 45.3921 511.539 45.1895 512.393 45.1895C513.526 45.1895 514.434 45.5068 515.118 46.1416C515.801 46.7715 516.199 47.6455 516.312 48.7637H514.898C514.776 47.9141 514.51 47.2988 514.1 46.918C513.694 46.5371 513.125 46.3467 512.393 46.3467C511.495 46.3467 510.789 46.6787 510.276 47.3428C509.769 48.0068 509.515 48.9517 509.515 50.1772V51.21C509.515 52.3672 509.756 53.2876 510.24 53.9712C510.723 54.6548 511.399 54.9966 512.269 54.9966C513.05 54.9966 513.648 54.8208 514.063 54.4692C514.483 54.1128 514.761 53.4951 514.898 52.6162H516.312Z" fill="#B33535"/>
<path d="M499.122 56V45.3359H502.608C503.765 45.3359 504.634 45.5752 505.215 46.0537C505.801 46.5322 506.094 47.2402 506.094 48.1777C506.094 48.6758 505.953 49.1177 505.669 49.5034C505.386 49.8843 505 50.1797 504.512 50.3896C505.088 50.5508 505.542 50.8584 505.875 51.3125C506.211 51.7617 506.38 52.2988 506.38 52.9238C506.38 53.8809 506.07 54.6328 505.45 55.1797C504.83 55.7266 503.953 56 502.82 56H499.122ZM500.528 51.0122V54.8501H502.85C503.504 54.8501 504.019 54.6816 504.395 54.3447C504.776 54.0029 504.966 53.5342 504.966 52.9385C504.966 51.6543 504.268 51.0122 502.872 51.0122H500.528ZM500.528 49.8843H502.652C503.267 49.8843 503.758 49.7305 504.124 49.4229C504.495 49.1152 504.681 48.6978 504.681 48.1704C504.681 47.5845 504.51 47.1597 504.168 46.896C503.826 46.6274 503.306 46.4932 502.608 46.4932H500.528V49.8843Z" fill="#355FB3"/>
<path d="M222 156L212 150.226V161.774L222 156ZM162 157H213V155H162V157Z" fill="black"/>
<path d="M482 156L472 150.226V161.774L482 156ZM422 157H473V155H422V157Z" fill="black"/>
</svg>
