<svg width="170" height="190" viewBox="0 0 170 190" fill="none" xmlns="http://www.w3.org/2000/svg">
<path d="M65 15L15 115L135 175" stroke="black" stroke-width="2"/>
<circle cx="15" cy="115" r="14" fill="white" stroke="#355FB3" stroke-width="2"/>
<path d="M16.5517 111.177C16.5517 110.07 15.9897 110 15.8492 110C15.4277 110 15.0414 110.421 15.0414 110.773C15.0414 110.983 15.1643 111.106 15.2345 111.177C15.4102 111.335 15.8668 111.809 15.8668 112.722C15.8668 113.46 14.8131 117.569 12.7056 117.569C11.6343 117.569 11.4236 116.674 11.4236 116.024C11.4236 115.146 11.8275 113.916 12.3017 112.652C12.5827 111.932 12.6529 111.756 12.6529 111.405C12.6529 110.667 12.1261 110 11.2655 110C9.6498 110 9 112.547 9 112.687C9 112.757 9.07025 112.845 9.19318 112.845C9.35124 112.845 9.3688 112.775 9.43905 112.529C9.86054 111.019 10.5455 110.351 11.2128 110.351C11.3709 110.351 11.6694 110.351 11.6694 110.931C11.6694 111.387 11.4763 111.897 11.2128 112.564C10.3698 114.812 10.3698 115.356 10.3698 115.778C10.3698 116.164 10.4225 116.884 10.967 117.376C11.5992 117.921 12.4773 117.921 12.6354 117.921C15.5507 117.921 16.5517 112.178 16.5517 111.177Z" fill="#355FB3"/>
<path d="M20.2972 113.073C20.2972 112.816 20.1099 112.628 19.8406 112.628C19.5362 112.628 19.1966 112.909 19.1966 113.261C19.1966 113.518 19.3839 113.706 19.6532 113.706C19.9577 113.706 20.2972 113.425 20.2972 113.073ZM18.5878 117.37L17.9556 118.986C17.897 119.162 17.8385 119.302 17.8385 119.501C17.8385 120.075 18.2834 120.496 18.9039 120.496C20.0396 120.496 20.5196 118.857 20.5196 118.705C20.5196 118.588 20.426 118.553 20.344 118.553C20.2035 118.553 20.1801 118.635 20.145 118.752C19.8757 119.688 19.3957 120.168 18.9273 120.168C18.7868 120.168 18.6464 120.11 18.6464 119.794C18.6464 119.513 18.7283 119.302 18.8805 118.939C18.9976 118.623 19.1147 118.307 19.2435 117.991L19.6064 117.042C19.7118 116.773 19.8523 116.41 19.8523 116.211C19.8523 115.626 19.3839 115.216 18.7868 115.216C17.6512 115.216 17.1594 116.855 17.1594 117.007C17.1594 117.113 17.2414 117.159 17.335 117.159C17.4873 117.159 17.499 117.089 17.5341 116.972C17.8619 115.86 18.4005 115.544 18.7517 115.544C18.9156 115.544 19.0327 115.602 19.0327 115.93C19.0327 116.047 19.021 116.211 18.9039 116.562L18.5878 117.37Z" fill="#355FB3"/>
<circle cx="65" cy="15" r="14" fill="white" stroke="#3BB335" stroke-width="2"/>
<path d="M66.5517 11.1767C66.5517 10.0702 65.9897 10 65.8492 10C65.4277 10 65.0414 10.4215 65.0414 10.7727C65.0414 10.9835 65.1643 11.1064 65.2345 11.1767C65.4102 11.3347 65.8668 11.8089 65.8668 12.7221C65.8668 13.4597 64.8131 17.5693 62.7056 17.5693C61.6343 17.5693 61.4236 16.6736 61.4236 16.0238C61.4236 15.1457 61.8275 13.9163 62.3017 12.6519C62.5827 11.9318 62.6529 11.7562 62.6529 11.405C62.6529 10.6674 62.1261 10 61.2655 10C59.6498 10 59 12.5465 59 12.687C59 12.7572 59.0702 12.8451 59.1932 12.8451C59.3512 12.8451 59.3688 12.7748 59.4391 12.529C59.8605 11.0186 60.5455 10.3512 61.2128 10.3512C61.3709 10.3512 61.6694 10.3512 61.6694 10.9308C61.6694 11.3874 61.4763 11.8967 61.2128 12.5641C60.3698 14.812 60.3698 15.3564 60.3698 15.7779C60.3698 16.1643 60.4225 16.8843 60.967 17.3761C61.5992 17.9205 62.4773 17.9205 62.6354 17.9205C65.5507 17.9205 66.5517 12.1777 66.5517 11.1767Z" fill="#22661E"/>
<path d="M69.8757 12.6052C69.8874 12.5817 69.9226 12.4295 69.9226 12.4178C69.9226 12.3593 69.8757 12.2539 69.7352 12.2539L68.5527 12.3476C68.1195 12.3827 68.0259 12.3944 68.0259 12.6052C68.0259 12.7691 68.1898 12.7691 68.3303 12.7691C68.8923 12.7691 68.8923 12.8393 68.8923 12.9447C68.8923 12.9798 68.8923 13.0032 68.8337 13.214L67.3819 19.0212C67.3351 19.2085 67.3351 19.3841 67.3351 19.3958C67.3351 20.1217 67.9322 20.4964 68.5176 20.4964C69.021 20.4964 69.2903 20.0983 69.4191 19.8407C69.6299 19.4544 69.8055 18.7636 69.8055 18.705C69.8055 18.6348 69.7704 18.5528 69.6182 18.5528C69.5128 18.5528 69.4777 18.6114 69.4777 18.6231C69.4542 18.6582 69.3957 18.869 69.3606 18.9978C69.185 19.6768 68.9625 20.1686 68.541 20.1686C68.26 20.1686 68.1781 19.8993 68.1781 19.6183C68.1781 19.3958 68.2132 19.267 68.2483 19.1148L69.8757 12.6052Z" fill="#22661E"/>
<path d="M55 96L59.9285 92.9928L54.86 90.2282L55 96ZM57.5428 92.3823L59.8805 88.0966L59.0026 87.6177L56.665 91.9034L57.5428 92.3823ZM60.8156 86.3823L63.1532 82.0966L62.2753 81.6177L59.9377 85.9034L60.8156 86.3823ZM64.0883 80.3823L66.426 76.0966L65.5481 75.6177L63.2104 79.9034L64.0883 80.3823ZM67.361 74.3823L69.6987 70.0966L68.8208 69.6177L66.4831 73.9034L67.361 74.3823ZM70.6338 68.3823L72.9714 64.0966L72.0935 63.6177L69.7559 67.9034L70.6338 68.3823ZM73.9065 62.3823L76.2441 58.0966L75.3662 57.6177L73.0286 61.9034L73.9065 62.3823ZM77.1792 56.3823L79.5169 52.0966L78.639 51.6177L76.3013 55.9034L77.1792 56.3823ZM80.4519 50.3823L82.7896 46.0966L81.9117 45.6177L79.574 49.9034L80.4519 50.3823ZM83.7247 44.3823L86.0623 40.0966L85.1844 39.6177L82.8468 43.9034L83.7247 44.3823ZM86.9974 38.3823L89.3351 34.0966L88.4572 33.6177L86.1195 37.9034L86.9974 38.3823ZM90.2701 32.3823L91.4389 30.2394L90.5611 29.7606L89.3922 31.9034L90.2701 32.3823Z" fill="black"/>
<path d="M70 124L73.2584 128.766L75.7568 123.561L70 124ZM73.8015 126.379L78.2658 128.522L78.6985 127.621L74.2342 125.478L73.8015 126.379ZM80.0515 129.379L84.5158 131.522L84.9485 130.621L80.4842 128.478L80.0515 129.379ZM86.3015 132.379L90.7658 134.522L91.1985 133.621L86.7342 131.478L86.3015 132.379ZM92.5515 135.379L97.0158 137.522L97.4485 136.621L92.9842 134.478L92.5515 135.379ZM98.8015 138.379L103.266 140.522L103.699 139.621L99.2342 137.478L98.8015 138.379ZM105.051 141.379L109.516 143.522L109.949 142.621L105.484 140.478L105.051 141.379ZM111.301 144.379L115.766 146.522L116.199 145.621L111.734 143.478L111.301 144.379ZM117.551 147.379L119.784 148.451L120.216 147.549L117.984 146.478L117.551 147.379Z" fill="black"/>
<path d="M35 116.336C35 116.21 35.0253 116.096 35.076 115.994C35.076 115.986 36.1952 114.723 38.4334 112.206C40.6717 109.689 41.7993 108.418 41.8162 108.393L41.6895 108.367C41.5966 108.367 41.284 108.367 40.7519 108.367H40.5999H40.2958C40.0087 108.367 39.7722 108.376 39.5863 108.393C39.4005 108.41 39.1682 108.456 38.8895 108.532C38.6108 108.608 38.3827 108.718 38.2054 108.861C38.028 109.005 37.838 109.216 37.6352 109.495C37.4325 109.774 37.2721 110.107 37.1538 110.496C37.1454 110.521 37.1369 110.546 37.1285 110.572C37.12 110.597 37.1116 110.618 37.1031 110.635C37.0947 110.652 37.0905 110.673 37.0905 110.698C37.0905 110.724 37.0862 110.736 37.0778 110.736L37.0651 110.762C37.0398 110.804 36.9595 110.825 36.8244 110.825C36.6808 110.825 36.5964 110.783 36.571 110.698L36.9764 109.33C37.0947 108.95 37.2087 108.57 37.3185 108.19C37.3861 107.953 37.4368 107.827 37.4705 107.81C37.4959 107.793 38.4841 107.785 40.4352 107.785H43.3618C43.4041 107.827 43.4252 107.861 43.4252 107.886C43.4252 107.903 43.3998 108.013 43.3492 108.215C38.8895 113.241 36.6555 115.762 36.647 115.779L36.609 115.817H37.7366C38.539 115.808 38.974 115.8 39.0416 115.792C39.675 115.716 40.1945 115.509 40.5999 115.171C41.0053 114.833 41.3389 114.212 41.6008 113.308C41.6684 113.097 41.7148 112.971 41.7401 112.928C41.7655 112.886 41.8204 112.865 41.9049 112.865H41.9555C42.1329 112.865 42.2216 112.911 42.2216 113.004C41.5374 115.251 41.17 116.387 41.1193 116.412C41.094 116.429 40.0762 116.438 38.066 116.438H35.8362C35.2787 116.438 35 116.404 35 116.336Z" fill="#355FB3"/>
<path d="M43.7604 107.479C43.7604 107.067 43.7902 106.675 43.8499 106.305C43.9097 105.935 43.9783 105.616 44.056 105.347C44.1336 105.078 44.2441 104.815 44.3874 104.559C44.5307 104.302 44.6442 104.102 44.7278 103.958C44.8114 103.815 44.9368 103.66 45.104 103.493C45.2712 103.325 45.3697 103.224 45.3996 103.188C45.4294 103.152 45.5041 103.09 45.6235 103H45.7399H45.7758C45.8594 103 45.9012 103.027 45.9012 103.081C45.9012 103.099 45.8504 103.161 45.7489 103.269C45.6474 103.376 45.525 103.534 45.3816 103.743C45.2383 103.952 45.092 104.209 44.9427 104.514C44.7935 104.818 44.668 105.23 44.5665 105.75C44.465 106.269 44.4143 106.846 44.4143 107.479C44.4143 108.112 44.465 108.685 44.5665 109.198C44.668 109.712 44.7905 110.127 44.9338 110.443C45.0771 110.76 45.2234 111.017 45.3727 111.214C45.522 111.411 45.6474 111.569 45.7489 111.689C45.8504 111.808 45.9012 111.871 45.9012 111.877C45.9012 111.93 45.8564 111.957 45.7668 111.957H45.7399H45.6235L45.3727 111.742C44.8114 111.235 44.4023 110.602 44.1455 109.843C43.8888 109.085 43.7604 108.297 43.7604 107.479Z" fill="#355FB3"/>
<path d="M46.6357 106.269C46.5939 106.228 46.573 106.198 46.573 106.18C46.573 106.156 46.582 106.108 46.5999 106.036C46.6178 105.965 46.6327 105.923 46.6447 105.911C46.6566 105.881 46.6835 105.866 46.7253 105.866C46.7671 105.866 46.9193 105.863 47.1821 105.857H47.6568L47.827 105.141C47.8449 105.075 47.8658 104.988 47.8897 104.881C47.9136 104.773 47.9345 104.696 47.9524 104.648C47.9703 104.6 47.9883 104.541 48.0062 104.469C48.0241 104.397 48.048 104.346 48.0778 104.317C48.1077 104.287 48.1375 104.251 48.1674 104.209C48.1973 104.167 48.2391 104.14 48.2928 104.129C48.3465 104.117 48.4003 104.111 48.454 104.111C48.5615 104.117 48.6362 104.149 48.678 104.209C48.7198 104.269 48.7407 104.326 48.7407 104.379C48.7407 104.421 48.7138 104.561 48.66 104.8C48.6063 105.039 48.5466 105.275 48.4809 105.508L48.3913 105.839C48.3913 105.851 48.5406 105.857 48.8392 105.857H49.296C49.3378 105.899 49.3587 105.932 49.3587 105.956C49.3587 106.087 49.3199 106.192 49.2423 106.269H48.2838L47.9614 107.568C47.7285 108.524 47.612 109.037 47.612 109.109C47.612 109.36 47.6927 109.485 47.8539 109.485C48.0629 109.485 48.2659 109.383 48.463 109.18C48.66 108.977 48.8183 108.727 48.9377 108.428C48.9497 108.392 48.9646 108.371 48.9825 108.365C49.0004 108.359 49.0452 108.353 49.1169 108.347H49.1527C49.2423 108.347 49.2871 108.371 49.2871 108.419C49.2871 108.437 49.2781 108.473 49.2602 108.527C49.2303 108.622 49.1766 108.736 49.099 108.867C49.0213 108.998 48.9198 109.139 48.7944 109.288C48.669 109.437 48.5167 109.563 48.3376 109.664C48.1584 109.766 47.9763 109.816 47.7912 109.816C47.612 109.816 47.4419 109.772 47.2806 109.682C47.1194 109.592 47.0029 109.437 46.9313 109.216C46.9193 109.168 46.9134 109.088 46.9134 108.974V108.813L47.2269 107.559C47.4359 106.717 47.5434 106.293 47.5493 106.287C47.5493 106.275 47.3971 106.269 47.0925 106.269H46.6357Z" fill="#355FB3"/>
<path d="M50.3888 107.595C50.3888 107.595 50.3888 107.556 50.3888 107.479C50.3888 107.401 50.4306 107.341 50.5142 107.299H55.7184C55.808 107.347 55.8527 107.407 55.8527 107.479C55.8527 107.55 55.808 107.61 55.7184 107.658H50.5142C50.4306 107.616 50.3888 107.556 50.3888 107.479V107.595Z" fill="#355FB3"/>
<path d="M58.5131 104.54L58.3966 104.585C58.313 104.615 58.1936 104.645 58.0383 104.675C57.8831 104.705 57.7099 104.726 57.5188 104.738H57.3486V104.325H57.5188C57.7995 104.314 58.0592 104.269 58.2981 104.191C58.537 104.113 58.7042 104.042 58.7997 103.976C58.8953 103.91 58.9789 103.845 59.0505 103.779C59.0625 103.761 59.0983 103.752 59.158 103.752C59.2118 103.752 59.2625 103.77 59.3103 103.806V106.484L59.3192 109.171C59.361 109.213 59.3969 109.24 59.4267 109.252C59.4566 109.264 59.5282 109.276 59.6417 109.288C59.7552 109.3 59.9403 109.306 60.1971 109.306H60.4299V109.718H60.3314C60.206 109.7 59.7313 109.691 58.9072 109.691C58.0951 109.691 57.6263 109.7 57.5009 109.718H57.3934V109.306H57.6263C57.7577 109.306 57.8711 109.306 57.9667 109.306C58.0622 109.306 58.1369 109.303 58.1906 109.297C58.2444 109.291 58.2921 109.282 58.3339 109.27C58.3757 109.258 58.3996 109.252 58.4056 109.252C58.4116 109.252 58.4295 109.237 58.4593 109.207C58.4892 109.177 58.5071 109.165 58.5131 109.171V104.54Z" fill="#355FB3"/>
<path d="M61.6212 103.009L61.657 103C61.6869 103 61.7167 103 61.7466 103H61.8541L62.1049 103.215C62.6662 103.723 63.0753 104.356 63.332 105.114C63.5888 105.872 63.7172 106.661 63.7172 107.479C63.7172 107.885 63.6874 108.276 63.6276 108.652C63.5679 109.028 63.4993 109.348 63.4216 109.61C63.344 109.873 63.2335 110.136 63.0902 110.399C62.9469 110.661 62.8334 110.861 62.7498 110.999C62.6662 111.136 62.5438 111.288 62.3826 111.456C62.2213 111.623 62.1258 111.721 62.0959 111.751C62.0661 111.781 61.9974 111.838 61.8899 111.921C61.872 111.939 61.8601 111.951 61.8541 111.957H61.7466C61.6988 111.957 61.666 111.957 61.6481 111.957C61.6302 111.957 61.6152 111.948 61.6033 111.93C61.5913 111.912 61.5824 111.886 61.5764 111.85C61.5824 111.844 61.6152 111.805 61.6749 111.733C62.6005 110.772 63.0633 109.354 63.0633 107.479C63.0633 105.604 62.6005 104.185 61.6749 103.224C61.6152 103.152 61.5824 103.113 61.5764 103.107C61.5764 103.06 61.5913 103.027 61.6212 103.009Z" fill="#355FB3"/>
<path d="M43.3663 118.297C43.3663 117.61 43.5664 116.95 43.9665 116.317C44.3666 115.684 44.8712 115.183 45.4803 114.813C46.0894 114.442 46.6984 114.254 47.3075 114.248C47.845 114.248 48.2719 114.4 48.5884 114.705C48.6422 114.765 48.687 114.816 48.7228 114.857C48.7586 114.899 48.7825 114.929 48.7945 114.947L48.8034 114.974C48.8213 114.974 48.9019 114.896 49.0453 114.741C49.0871 114.705 49.1319 114.663 49.1796 114.615C49.2274 114.568 49.2752 114.52 49.3229 114.472C49.3707 114.424 49.4006 114.392 49.4125 114.374L49.5469 114.239H49.6006C49.6842 114.239 49.726 114.26 49.726 114.302C49.726 114.326 49.6305 114.735 49.4394 115.529C49.2244 116.359 49.1169 116.777 49.1169 116.783C49.105 116.813 49.09 116.831 49.0721 116.837C49.0542 116.843 49.0005 116.849 48.9109 116.855H48.7676C48.7318 116.819 48.7138 116.792 48.7138 116.774C48.7138 116.768 48.7168 116.747 48.7228 116.711C48.7288 116.676 48.7347 116.616 48.7407 116.532C48.7467 116.449 48.7497 116.353 48.7497 116.246C48.7497 115.822 48.6541 115.451 48.463 115.135C48.2719 114.819 47.9465 114.657 47.4867 114.651C47.3792 114.651 47.2628 114.66 47.1374 114.678C47.012 114.696 46.8537 114.735 46.6626 114.795C46.4715 114.854 46.2894 114.938 46.1162 115.045C45.9431 115.153 45.7549 115.296 45.5519 115.475C45.3489 115.655 45.1757 115.867 45.0324 116.111C44.8891 116.356 44.7487 116.661 44.6114 117.025C44.4741 117.389 44.3815 117.789 44.3337 118.225C44.3218 118.333 44.3158 118.449 44.3158 118.575C44.3158 118.861 44.3576 119.115 44.4412 119.336C44.5248 119.557 44.6323 119.727 44.7637 119.847C44.895 119.966 45.0443 120.067 45.2115 120.151C45.3787 120.235 45.534 120.285 45.6773 120.303C45.8206 120.321 45.955 120.333 46.0804 120.339C46.4029 120.339 46.6984 120.271 46.9672 120.133C47.2359 119.996 47.421 119.82 47.5225 119.605C47.5404 119.557 47.5852 119.393 47.6569 119.112C47.7285 118.831 47.7644 118.673 47.7644 118.637C47.7644 118.59 47.7256 118.56 47.6479 118.548C47.5703 118.536 47.3911 118.527 47.1105 118.521H46.7791C46.7432 118.485 46.7253 118.461 46.7253 118.449C46.7253 118.437 46.7313 118.381 46.7432 118.279C46.7671 118.201 46.797 118.145 46.8328 118.109H46.9851C47.2239 118.121 47.642 118.127 48.2391 118.127C48.478 118.127 48.672 118.127 48.8213 118.127C48.9706 118.127 49.0781 118.124 49.1438 118.118C49.2095 118.112 49.2453 118.112 49.2513 118.118C49.3349 118.118 49.3767 118.145 49.3767 118.198C49.3767 118.21 49.3707 118.252 49.3588 118.324C49.3289 118.437 49.2991 118.5 49.2692 118.512C49.2513 118.518 49.2065 118.521 49.1348 118.521C49.0154 118.521 48.893 118.53 48.7676 118.548C48.7258 118.566 48.6959 118.593 48.678 118.628C48.6601 118.664 48.6183 118.816 48.5526 119.085C48.4989 119.282 48.4541 119.449 48.4183 119.587C48.269 120.196 48.1854 120.509 48.1674 120.527C48.1555 120.539 48.1406 120.545 48.1227 120.545C48.0629 120.545 47.9793 120.485 47.8719 120.366C47.7644 120.247 47.6957 120.154 47.6658 120.088C47.6658 120.082 47.6599 120.082 47.6479 120.088C47.636 120.094 47.6181 120.109 47.5942 120.133C47.1523 120.545 46.5551 120.751 45.8027 120.751C45.0802 120.751 44.495 120.521 44.0471 120.062C43.5992 119.602 43.3723 119.014 43.3663 118.297Z" fill="#355FB3"/>
<path d="M66.7002 119.605V106.936H68.4359V107.442H67.207V119.098H68.4359V119.605H66.7002Z" fill="#355FB3"/>
<path d="M70.9192 111.623C70.9192 111.412 70.8389 111.307 70.6784 111.307C70.4757 111.307 70.2646 111.429 70.045 111.674C69.8254 111.919 69.6438 112.295 69.5002 112.802C69.4917 112.81 69.4833 112.823 69.4748 112.84C69.4664 112.857 69.4622 112.869 69.4622 112.878C69.4622 112.886 69.4537 112.895 69.4368 112.903C69.4199 112.911 69.4073 112.916 69.3988 112.916C69.3904 112.916 69.3735 112.916 69.3482 112.916C69.3228 112.916 69.289 112.916 69.2468 112.916H69.0694C69.0187 112.865 68.9934 112.827 68.9934 112.802C68.9934 112.743 69.0272 112.62 69.0948 112.434C69.1623 112.248 69.2637 112.029 69.3988 111.775C69.534 111.522 69.7198 111.307 69.9563 111.129C70.1928 110.952 70.4588 110.859 70.7545 110.851C71.1092 110.851 71.3837 110.952 71.578 111.155C71.7722 111.357 71.8736 111.594 71.882 111.864C71.882 112.008 71.8694 112.118 71.844 112.194C71.844 112.244 71.7807 112.43 71.654 112.751C71.5273 113.072 71.3964 113.448 71.2612 113.879C71.1261 114.309 71.0501 114.685 71.0332 115.006C71.0332 115.234 71.0543 115.42 71.0965 115.564C71.2063 115.927 71.4724 116.108 71.8947 116.108C72.2072 116.108 72.4986 115.965 72.7689 115.678C73.0392 115.39 73.2503 115.057 73.4024 114.677C73.5544 114.297 73.6769 113.946 73.7698 113.625C73.8627 113.304 73.9092 113.072 73.9092 112.928C73.9092 112.734 73.8754 112.565 73.8078 112.422C73.7402 112.278 73.6642 112.168 73.5798 112.092C73.4953 112.016 73.4193 111.94 73.3517 111.864C73.2841 111.788 73.2503 111.695 73.2503 111.585C73.2503 111.4 73.3306 111.226 73.4911 111.066C73.6515 110.905 73.8247 110.825 74.0105 110.825C74.171 110.825 74.3146 110.901 74.4413 111.053C74.568 111.205 74.6355 111.45 74.644 111.788C74.644 112.016 74.5933 112.367 74.492 112.84C74.3906 113.313 74.2343 113.841 74.0232 114.423C73.812 115.006 73.5122 115.509 73.1237 115.931C72.7351 116.353 72.2875 116.569 71.7807 116.577C71.2401 116.577 70.8094 116.438 70.4884 116.159C70.1759 115.889 70.0196 115.488 70.0196 114.955C70.0196 114.694 70.0534 114.423 70.121 114.145C70.1886 113.866 70.3617 113.372 70.6404 112.662C70.8263 112.122 70.9192 111.775 70.9192 111.623Z" fill="#355FB3"/>
<path d="M76.5201 112.964C76.5201 112.821 76.5768 112.695 76.6903 112.588C76.8037 112.48 76.9351 112.423 77.0844 112.417C77.1919 112.417 77.2815 112.453 77.3531 112.525C77.4248 112.597 77.4636 112.686 77.4696 112.794C77.4696 112.931 77.4099 113.056 77.2904 113.17C77.171 113.283 77.0396 113.343 76.8963 113.349C76.8067 113.349 76.7231 113.319 76.6455 113.259C76.5679 113.2 76.5261 113.101 76.5201 112.964ZM75.0601 115.767C75.0601 115.72 75.0869 115.627 75.1407 115.49C75.1944 115.352 75.2661 115.2 75.3556 115.033C75.4452 114.866 75.5766 114.714 75.7498 114.576C75.9229 114.439 76.1021 114.373 76.2872 114.379C76.5201 114.379 76.7142 114.448 76.8694 114.585C77.0247 114.722 77.1053 114.908 77.1113 115.14C77.1113 115.242 77.0695 115.409 76.9859 115.642C76.9023 115.875 76.7828 116.188 76.6276 116.583C76.4723 116.977 76.3469 117.314 76.2514 117.595C76.2215 117.726 76.2066 117.822 76.2066 117.881C76.2066 118.031 76.2574 118.105 76.3589 118.105C76.4126 118.105 76.4693 118.096 76.5291 118.078C76.5888 118.061 76.6574 118.019 76.7351 117.953C76.8127 117.887 76.8933 117.783 76.9769 117.64C77.0605 117.496 77.1352 117.32 77.2009 117.111C77.2188 117.039 77.2337 116.998 77.2456 116.986C77.2576 116.974 77.3083 116.968 77.3979 116.968C77.5173 116.968 77.5771 116.998 77.5771 117.057C77.5771 117.105 77.5502 117.198 77.4964 117.335C77.4427 117.472 77.3681 117.625 77.2725 117.792C77.177 117.959 77.0426 118.108 76.8694 118.24C76.6963 118.371 76.5111 118.437 76.3141 118.437C76.123 118.437 75.9468 118.374 75.7856 118.249C75.6244 118.123 75.5408 117.932 75.5348 117.675C75.5348 117.574 75.5497 117.478 75.5796 117.389C75.6094 117.299 75.7378 116.959 75.9647 116.368C76.1917 115.765 76.323 115.403 76.3589 115.284C76.3947 115.164 76.4156 115.048 76.4216 114.934C76.4216 114.791 76.3708 114.719 76.2693 114.719H76.2514C76.0722 114.719 75.908 114.818 75.7587 115.015C75.6094 115.212 75.496 115.463 75.4184 115.767C75.4124 115.773 75.4064 115.782 75.4004 115.794C75.3945 115.806 75.3915 115.815 75.3915 115.821C75.3915 115.827 75.3855 115.833 75.3736 115.839C75.3616 115.845 75.3527 115.848 75.3467 115.848C75.3407 115.848 75.3288 115.848 75.3109 115.848C75.2929 115.848 75.2691 115.848 75.2392 115.848H75.1138C75.078 115.812 75.0601 115.785 75.0601 115.767Z" fill="#355FB3"/>
<path d="M78.8743 107.442V106.936H80.61V119.605H78.8743V119.098H80.1032V107.442H78.8743Z" fill="#355FB3"/>
<path d="M124 153.336C124 153.21 124.025 153.096 124.076 152.994C124.076 152.986 125.195 151.723 127.433 149.206C129.672 146.689 130.799 145.418 130.816 145.393L130.689 145.367C130.597 145.367 130.284 145.367 129.752 145.367H129.6H129.296C129.009 145.367 128.772 145.376 128.586 145.393C128.401 145.41 128.168 145.456 127.89 145.532C127.611 145.608 127.383 145.718 127.205 145.861C127.028 146.005 126.838 146.216 126.635 146.495C126.433 146.774 126.272 147.107 126.154 147.496C126.145 147.521 126.137 147.546 126.128 147.572C126.12 147.597 126.112 147.618 126.103 147.635C126.095 147.652 126.09 147.673 126.09 147.698C126.09 147.724 126.086 147.736 126.078 147.736L126.065 147.762C126.04 147.804 125.96 147.825 125.824 147.825C125.681 147.825 125.596 147.783 125.571 147.698L125.976 146.33C126.095 145.95 126.209 145.57 126.319 145.19C126.386 144.953 126.437 144.827 126.471 144.81C126.496 144.793 127.484 144.785 129.435 144.785H132.362C132.404 144.827 132.425 144.861 132.425 144.886C132.425 144.903 132.4 145.013 132.349 145.215C127.89 150.241 125.655 152.762 125.647 152.779L125.609 152.817H126.737C127.539 152.808 127.974 152.8 128.042 152.792C128.675 152.716 129.194 152.509 129.6 152.171C130.005 151.833 130.339 151.212 130.601 150.308C130.668 150.097 130.715 149.971 130.74 149.928C130.765 149.886 130.82 149.865 130.905 149.865H130.956C131.133 149.865 131.222 149.911 131.222 150.004C130.537 152.251 130.17 153.387 130.119 153.412C130.094 153.429 129.076 153.438 127.066 153.438H124.836C124.279 153.438 124 153.404 124 153.336Z" fill="#B33535"/>
<path d="M132.76 144.479C132.76 144.067 132.79 143.675 132.85 143.305C132.91 142.935 132.978 142.616 133.056 142.347C133.134 142.078 133.244 141.815 133.387 141.559C133.531 141.302 133.644 141.102 133.728 140.958C133.811 140.815 133.937 140.66 134.104 140.493C134.271 140.325 134.37 140.224 134.4 140.188C134.429 140.152 134.504 140.09 134.623 140H134.74H134.776C134.859 140 134.901 140.027 134.901 140.081C134.901 140.099 134.85 140.161 134.749 140.269C134.647 140.376 134.525 140.534 134.382 140.743C134.238 140.952 134.092 141.209 133.943 141.514C133.793 141.818 133.668 142.23 133.567 142.75C133.465 143.269 133.414 143.846 133.414 144.479C133.414 145.112 133.465 145.685 133.567 146.198C133.668 146.712 133.79 147.127 133.934 147.443C134.077 147.76 134.223 148.017 134.373 148.214C134.522 148.411 134.647 148.569 134.749 148.689C134.85 148.808 134.901 148.871 134.901 148.877C134.901 148.93 134.856 148.957 134.767 148.957H134.74H134.623L134.373 148.742C133.811 148.235 133.402 147.602 133.146 146.843C132.889 146.085 132.76 145.297 132.76 144.479Z" fill="#B33535"/>
<path d="M135.636 143.269C135.594 143.228 135.573 143.198 135.573 143.18C135.573 143.156 135.582 143.108 135.6 143.036C135.618 142.965 135.633 142.923 135.645 142.911C135.657 142.881 135.683 142.866 135.725 142.866C135.767 142.866 135.919 142.863 136.182 142.857H136.657L136.827 142.141C136.845 142.075 136.866 141.988 136.89 141.881C136.914 141.773 136.935 141.696 136.952 141.648C136.97 141.6 136.988 141.541 137.006 141.469C137.024 141.397 137.048 141.346 137.078 141.317C137.108 141.287 137.138 141.251 137.167 141.209C137.197 141.167 137.239 141.14 137.293 141.129C137.347 141.117 137.4 141.111 137.454 141.111C137.562 141.117 137.636 141.149 137.678 141.209C137.72 141.269 137.741 141.326 137.741 141.379C137.741 141.421 137.714 141.561 137.66 141.8C137.606 142.039 137.547 142.275 137.481 142.508L137.391 142.839C137.391 142.851 137.541 142.857 137.839 142.857H138.296C138.338 142.899 138.359 142.932 138.359 142.956C138.359 143.087 138.32 143.192 138.242 143.269H137.284L136.961 144.568C136.728 145.524 136.612 146.037 136.612 146.109C136.612 146.36 136.693 146.485 136.854 146.485C137.063 146.485 137.266 146.383 137.463 146.18C137.66 145.977 137.818 145.727 137.938 145.428C137.95 145.392 137.965 145.371 137.983 145.365C138 145.359 138.045 145.353 138.117 145.347H138.153C138.242 145.347 138.287 145.371 138.287 145.419C138.287 145.437 138.278 145.473 138.26 145.527C138.23 145.622 138.177 145.736 138.099 145.867C138.021 145.998 137.92 146.139 137.794 146.288C137.669 146.437 137.517 146.563 137.338 146.664C137.158 146.766 136.976 146.816 136.791 146.816C136.612 146.816 136.442 146.772 136.281 146.682C136.119 146.592 136.003 146.437 135.931 146.216C135.919 146.168 135.913 146.088 135.913 145.974V145.813L136.227 144.559C136.436 143.717 136.543 143.293 136.549 143.287C136.549 143.275 136.397 143.269 136.093 143.269H135.636Z" fill="#B33535"/>
<path d="M139.389 144.595C139.389 144.595 139.389 144.556 139.389 144.479C139.389 144.401 139.431 144.341 139.514 144.299H144.718C144.808 144.347 144.853 144.407 144.853 144.479C144.853 144.55 144.808 144.61 144.718 144.658H139.514C139.431 144.616 139.389 144.556 139.389 144.479V144.595Z" fill="#B33535"/>
<path d="M147.513 141.54L147.397 141.585C147.313 141.615 147.194 141.645 147.038 141.675C146.883 141.705 146.71 141.726 146.519 141.738H146.349V141.325H146.519C146.799 141.314 147.059 141.269 147.298 141.191C147.537 141.113 147.704 141.042 147.8 140.976C147.895 140.91 147.979 140.845 148.051 140.779C148.062 140.761 148.098 140.752 148.158 140.752C148.212 140.752 148.263 140.77 148.31 140.806V143.484L148.319 146.171C148.361 146.213 148.397 146.24 148.427 146.252C148.457 146.264 148.528 146.276 148.642 146.288C148.755 146.3 148.94 146.306 149.197 146.306H149.43V146.718H149.331C149.206 146.7 148.731 146.691 147.907 146.691C147.095 146.691 146.626 146.7 146.501 146.718H146.393V146.306H146.626C146.758 146.306 146.871 146.306 146.967 146.306C147.062 146.306 147.137 146.303 147.191 146.297C147.244 146.291 147.292 146.282 147.334 146.27C147.376 146.258 147.4 146.252 147.406 146.252C147.412 146.252 147.429 146.237 147.459 146.207C147.489 146.177 147.507 146.165 147.513 146.171V141.54Z" fill="#B33535"/>
<path d="M150.621 140.009L150.657 140C150.687 140 150.717 140 150.747 140H150.854L151.105 140.215C151.666 140.723 152.075 141.356 152.332 142.114C152.589 142.872 152.717 143.661 152.717 144.479C152.717 144.885 152.687 145.276 152.628 145.652C152.568 146.028 152.499 146.348 152.422 146.61C152.344 146.873 152.234 147.136 152.09 147.399C151.947 147.661 151.833 147.861 151.75 147.999C151.666 148.136 151.544 148.288 151.383 148.456C151.221 148.623 151.126 148.721 151.096 148.751C151.066 148.781 150.997 148.838 150.89 148.921C150.872 148.939 150.86 148.951 150.854 148.957H150.747C150.699 148.957 150.666 148.957 150.648 148.957C150.63 148.957 150.615 148.948 150.603 148.93C150.591 148.912 150.582 148.886 150.576 148.85C150.582 148.844 150.615 148.805 150.675 148.733C151.601 147.772 152.063 146.354 152.063 144.479C152.063 142.604 151.601 141.185 150.675 140.224C150.615 140.152 150.582 140.113 150.576 140.107C150.576 140.06 150.591 140.027 150.621 140.009Z" fill="#B33535"/>
<path d="M132.366 155.297C132.366 154.61 132.566 153.95 132.966 153.317C133.367 152.684 133.871 152.183 134.48 151.813C135.089 151.442 135.698 151.254 136.308 151.248C136.845 151.248 137.272 151.4 137.588 151.705C137.642 151.765 137.687 151.816 137.723 151.857C137.759 151.899 137.783 151.929 137.794 151.947L137.803 151.974C137.821 151.974 137.902 151.896 138.045 151.741C138.087 151.705 138.132 151.663 138.18 151.615C138.227 151.568 138.275 151.52 138.323 151.472C138.371 151.424 138.401 151.392 138.413 151.374L138.547 151.239H138.601C138.684 151.239 138.726 151.26 138.726 151.302C138.726 151.326 138.63 151.735 138.439 152.529C138.224 153.359 138.117 153.777 138.117 153.783C138.105 153.813 138.09 153.831 138.072 153.837C138.054 153.843 138 153.849 137.911 153.855H137.768C137.732 153.819 137.714 153.792 137.714 153.774C137.714 153.768 137.717 153.747 137.723 153.711C137.729 153.676 137.735 153.616 137.741 153.532C137.747 153.449 137.75 153.353 137.75 153.246C137.75 152.822 137.654 152.451 137.463 152.135C137.272 151.819 136.947 151.657 136.487 151.651C136.379 151.651 136.263 151.66 136.137 151.678C136.012 151.696 135.854 151.735 135.663 151.795C135.472 151.854 135.289 151.938 135.116 152.045C134.943 152.153 134.755 152.296 134.552 152.475C134.349 152.655 134.176 152.867 134.032 153.111C133.889 153.356 133.749 153.661 133.611 154.025C133.474 154.389 133.381 154.789 133.334 155.225C133.322 155.333 133.316 155.449 133.316 155.575C133.316 155.861 133.358 156.115 133.441 156.336C133.525 156.557 133.632 156.727 133.764 156.847C133.895 156.966 134.044 157.067 134.212 157.151C134.379 157.235 134.534 157.285 134.677 157.303C134.821 157.321 134.955 157.333 135.08 157.339C135.403 157.339 135.698 157.271 135.967 157.133C136.236 156.996 136.421 156.82 136.523 156.605C136.54 156.557 136.585 156.393 136.657 156.112C136.729 155.831 136.764 155.673 136.764 155.637C136.764 155.59 136.726 155.56 136.648 155.548C136.57 155.536 136.391 155.527 136.11 155.521H135.779C135.743 155.485 135.725 155.461 135.725 155.449C135.725 155.437 135.731 155.381 135.743 155.279C135.767 155.201 135.797 155.145 135.833 155.109H135.985C136.224 155.121 136.642 155.127 137.239 155.127C137.478 155.127 137.672 155.127 137.821 155.127C137.971 155.127 138.078 155.124 138.144 155.118C138.209 155.112 138.245 155.112 138.251 155.118C138.335 155.118 138.377 155.145 138.377 155.198C138.377 155.21 138.371 155.252 138.359 155.324C138.329 155.437 138.299 155.5 138.269 155.512C138.251 155.518 138.206 155.521 138.135 155.521C138.015 155.521 137.893 155.53 137.768 155.548C137.726 155.566 137.696 155.593 137.678 155.628C137.66 155.664 137.618 155.816 137.553 156.085C137.499 156.282 137.454 156.449 137.418 156.587C137.269 157.196 137.185 157.509 137.167 157.527C137.156 157.539 137.141 157.545 137.123 157.545C137.063 157.545 136.979 157.485 136.872 157.366C136.764 157.247 136.696 157.154 136.666 157.088C136.666 157.082 136.66 157.082 136.648 157.088C136.636 157.094 136.618 157.109 136.594 157.133C136.152 157.545 135.555 157.751 134.803 157.751C134.08 157.751 133.495 157.521 133.047 157.062C132.599 156.602 132.372 156.014 132.366 155.297Z" fill="#B33535"/>
<path d="M155.7 156.605V143.936H157.436V144.442H156.207V156.098H157.436V156.605H155.7Z" fill="#B33535"/>
<path d="M159.919 148.623C159.919 148.412 159.839 148.307 159.678 148.307C159.476 148.307 159.265 148.429 159.045 148.674C158.825 148.919 158.644 149.295 158.5 149.802C158.492 149.81 158.483 149.823 158.475 149.84C158.466 149.857 158.462 149.869 158.462 149.878C158.462 149.886 158.454 149.895 158.437 149.903C158.42 149.911 158.407 149.916 158.399 149.916C158.39 149.916 158.373 149.916 158.348 149.916C158.323 149.916 158.289 149.916 158.247 149.916H158.069C158.019 149.865 157.993 149.827 157.993 149.802C157.993 149.743 158.027 149.62 158.095 149.434C158.162 149.248 158.264 149.029 158.399 148.775C158.534 148.522 158.72 148.307 158.956 148.129C159.193 147.952 159.459 147.859 159.754 147.851C160.109 147.851 160.384 147.952 160.578 148.155C160.772 148.357 160.874 148.594 160.882 148.864C160.882 149.008 160.869 149.118 160.844 149.194C160.844 149.244 160.781 149.43 160.654 149.751C160.527 150.072 160.396 150.448 160.261 150.879C160.126 151.309 160.05 151.685 160.033 152.006C160.033 152.234 160.054 152.42 160.097 152.564C160.206 152.927 160.472 153.108 160.895 153.108C161.207 153.108 161.499 152.965 161.769 152.678C162.039 152.39 162.25 152.057 162.402 151.677C162.554 151.297 162.677 150.946 162.77 150.625C162.863 150.304 162.909 150.072 162.909 149.928C162.909 149.734 162.875 149.565 162.808 149.422C162.74 149.278 162.664 149.168 162.58 149.092C162.495 149.016 162.419 148.94 162.352 148.864C162.284 148.788 162.25 148.695 162.25 148.585C162.25 148.4 162.331 148.226 162.491 148.066C162.652 147.905 162.825 147.825 163.011 147.825C163.171 147.825 163.315 147.901 163.441 148.053C163.568 148.205 163.636 148.45 163.644 148.788C163.644 149.016 163.593 149.367 163.492 149.84C163.391 150.313 163.234 150.841 163.023 151.423C162.812 152.006 162.512 152.509 162.124 152.931C161.735 153.353 161.287 153.569 160.781 153.577C160.24 153.577 159.809 153.438 159.488 153.159C159.176 152.889 159.02 152.488 159.02 151.955C159.02 151.694 159.053 151.423 159.121 151.145C159.189 150.866 159.362 150.372 159.64 149.662C159.826 149.122 159.919 148.775 159.919 148.623Z" fill="#B33535"/>
<path d="M165.963 150C165.963 149.815 166.026 149.672 166.151 149.57C166.276 149.469 166.405 149.418 166.536 149.418C166.638 149.418 166.721 149.448 166.787 149.507C166.853 149.567 166.894 149.651 166.912 149.758C166.912 149.925 166.856 150.066 166.742 150.179C166.629 150.293 166.497 150.349 166.348 150.349C166.241 150.349 166.151 150.32 166.079 150.26C166.008 150.2 165.969 150.114 165.963 150ZM165.882 151.971C165.882 151.798 165.805 151.711 165.649 151.711C165.518 151.711 165.393 151.747 165.273 151.819C165.154 151.89 165.049 151.983 164.96 152.096C164.87 152.21 164.798 152.32 164.745 152.428C164.691 152.535 164.64 152.631 164.592 152.714L164.53 152.84C164.518 152.846 164.47 152.849 164.386 152.849H164.261C164.225 152.813 164.207 152.789 164.207 152.777C164.207 152.765 164.219 152.726 164.243 152.661C164.368 152.368 164.545 152.093 164.771 151.836C164.998 151.58 165.261 151.43 165.56 151.389C165.566 151.389 165.59 151.389 165.631 151.389C165.673 151.389 165.709 151.386 165.739 151.38C165.882 151.386 166.014 151.415 166.133 151.469C166.282 151.553 166.396 151.645 166.473 151.747C166.551 151.848 166.59 152.007 166.59 152.222V152.365L166.151 154.148C165.846 155.342 165.685 155.963 165.667 156.011C165.56 156.309 165.351 156.575 165.04 156.808C164.73 157.041 164.374 157.16 163.974 157.166C163.676 157.166 163.473 157.104 163.365 156.978C163.258 156.853 163.201 156.715 163.195 156.566C163.195 156.405 163.252 156.268 163.365 156.154C163.479 156.041 163.616 155.981 163.777 155.975C163.879 155.975 163.965 156.005 164.037 156.064C164.109 156.124 164.147 156.217 164.153 156.342C164.153 156.557 164.058 156.721 163.867 156.835C163.903 156.841 163.944 156.844 163.992 156.844C164.195 156.844 164.38 156.76 164.548 156.593C164.715 156.426 164.843 156.229 164.933 156.002L165.031 155.626C165.097 155.369 165.175 155.058 165.264 154.694C165.354 154.33 165.449 153.956 165.551 153.574C165.652 153.192 165.733 152.861 165.793 152.58C165.852 152.299 165.885 152.129 165.891 152.069C165.891 152.028 165.888 151.995 165.882 151.971Z" fill="#B33535"/>
<path d="M167.874 144.442V143.936H169.61V156.605H167.874V156.098H169.103V144.442H167.874Z" fill="#B33535"/>
<path d="M85 19.3364C85 19.2097 85.0253 19.0957 85.076 18.9943C85.076 18.9859 86.1952 17.7231 88.4334 15.2061C90.6717 12.6891 91.7993 11.418 91.8162 11.3926L91.6895 11.3673C91.5966 11.3673 91.284 11.3673 90.7519 11.3673H90.5999H90.2958C90.0087 11.3673 89.7722 11.3757 89.5863 11.3926C89.4005 11.4095 89.1682 11.456 88.8895 11.532C88.6108 11.608 88.3827 11.7178 88.2054 11.8614C88.028 12.005 87.838 12.2162 87.6352 12.4949C87.4325 12.7736 87.2721 13.1072 87.1538 13.4958C87.1454 13.5211 87.1369 13.5464 87.1285 13.5718C87.12 13.5971 87.1116 13.6182 87.1031 13.6351C87.0947 13.652 87.0905 13.6731 87.0905 13.6985C87.0905 13.7238 87.0862 13.7365 87.0778 13.7365L87.0651 13.7618C87.0398 13.8041 86.9595 13.8252 86.8244 13.8252C86.6808 13.8252 86.5964 13.7829 86.571 13.6985L86.9764 12.3302C87.0947 11.9501 87.2087 11.57 87.3185 11.1899C87.3861 10.9534 87.4368 10.8267 87.4705 10.8098C87.4959 10.793 88.4841 10.7845 90.4352 10.7845H93.3618C93.4041 10.8267 93.4252 10.8605 93.4252 10.8859C93.4252 10.9028 93.3998 11.0126 93.3492 11.2153C88.8895 16.2408 86.6555 18.762 86.647 18.7789L86.609 18.8169H87.7366C88.539 18.8085 88.974 18.8 89.0416 18.7916C89.675 18.7156 90.1945 18.5087 90.5999 18.1708C91.0053 17.8329 91.3389 17.2121 91.6008 16.3084C91.6684 16.0972 91.7148 15.9705 91.7401 15.9283C91.7655 15.8861 91.8204 15.865 91.9049 15.865H91.9555C92.1329 15.865 92.2216 15.9114 92.2216 16.0043C91.5374 18.251 91.17 19.3871 91.1193 19.4124C91.094 19.4293 90.0762 19.4377 88.066 19.4377H85.8362C85.2787 19.4377 85 19.404 85 19.3364Z" fill="#22661E"/>
<path d="M93.7604 10.4786C93.7604 10.0666 93.7902 9.67545 93.8499 9.30522C93.9097 8.93498 93.9783 8.6155 94.056 8.34678C94.1336 8.07807 94.2441 7.81532 94.3874 7.55854C94.5307 7.30177 94.6442 7.10172 94.7278 6.9584C94.8114 6.81509 94.9368 6.65983 95.104 6.49262C95.2712 6.32542 95.3697 6.2239 95.3996 6.18807C95.4294 6.15225 95.5041 6.08954 95.6235 5.99997H95.7399H95.7758C95.8594 5.99997 95.9012 6.02684 95.9012 6.08059C95.9012 6.0985 95.8504 6.1612 95.7489 6.26869C95.6474 6.37618 95.525 6.53442 95.3816 6.74343C95.2383 6.95243 95.092 7.20921 94.9427 7.51376C94.7935 7.8183 94.668 8.23034 94.5665 8.74986C94.465 9.26939 94.4143 9.84564 94.4143 10.4786C94.4143 11.1116 94.465 11.6849 94.5665 12.1984C94.668 12.712 94.7905 13.127 94.9338 13.4435C95.0771 13.76 95.2234 14.0168 95.3727 14.2138C95.522 14.4109 95.6474 14.5691 95.7489 14.6886C95.8504 14.808 95.9012 14.8707 95.9012 14.8767C95.9012 14.9304 95.8564 14.9573 95.7668 14.9573H95.7399H95.6235L95.3727 14.7423C94.8114 14.2347 94.4023 13.6017 94.1455 12.8434C93.8888 12.085 93.7604 11.2967 93.7604 10.4786Z" fill="#22661E"/>
<path d="M96.6357 9.26931C96.5939 9.22751 96.573 9.19766 96.573 9.17974C96.573 9.15585 96.582 9.10808 96.5999 9.03642C96.6178 8.96477 96.6327 8.92296 96.6447 8.91102C96.6566 8.88116 96.6835 8.86624 96.7253 8.86624C96.7671 8.86624 96.9193 8.86325 97.1821 8.85728H97.6568L97.827 8.14069C97.8449 8.07501 97.8658 7.98842 97.8897 7.88093C97.9136 7.77344 97.9345 7.69581 97.9524 7.64804C97.9703 7.60027 97.9883 7.54055 98.0062 7.4689C98.0241 7.39724 98.048 7.34648 98.0778 7.31662C98.1077 7.28676 98.1375 7.25093 98.1674 7.20913C98.1973 7.16733 98.2391 7.14046 98.2928 7.12852C98.3465 7.11658 98.4003 7.1106 98.454 7.1106C98.5615 7.11658 98.6362 7.14942 98.678 7.20913C98.7198 7.26885 98.7407 7.32558 98.7407 7.37932C98.7407 7.42112 98.7138 7.56145 98.66 7.80032C98.6063 8.03918 98.5466 8.27505 98.4809 8.50794L98.3913 8.83936C98.3913 8.85131 98.5406 8.85728 98.8392 8.85728H99.296C99.3378 8.89908 99.3587 8.93192 99.3587 8.95581C99.3587 9.08718 99.3199 9.19168 99.2423 9.26931H98.2838L97.9614 10.5681C97.7285 11.5236 97.612 12.0371 97.612 12.1088C97.612 12.3596 97.6927 12.485 97.8539 12.485C98.0629 12.485 98.2659 12.3835 98.463 12.1804C98.66 11.9774 98.8183 11.7266 98.9377 11.428C98.9497 11.3922 98.9646 11.3713 98.9825 11.3653C99.0004 11.3594 99.0452 11.3534 99.1169 11.3474H99.1527C99.2423 11.3474 99.2871 11.3713 99.2871 11.4191C99.2871 11.437 99.2781 11.4728 99.2602 11.5266C99.2303 11.6221 99.1766 11.7356 99.099 11.8669C99.0213 11.9983 98.9198 12.1386 98.7944 12.2879C98.669 12.4372 98.5167 12.5626 98.3376 12.6641C98.1584 12.7656 97.9763 12.8164 97.7912 12.8164C97.612 12.8164 97.4419 12.7716 97.2806 12.682C97.1194 12.5925 97.0029 12.4372 96.9313 12.2163C96.9193 12.1685 96.9134 12.0879 96.9134 11.9744V11.8132L97.2269 10.5592C97.4359 9.71718 97.5434 9.2932 97.5493 9.28723C97.5493 9.27529 97.3971 9.26931 97.0925 9.26931H96.6357Z" fill="#22661E"/>
<path d="M100.389 10.595C100.389 10.595 100.389 10.5562 100.389 10.4786C100.389 10.4009 100.431 10.3412 100.514 10.2994H105.718C105.808 10.3472 105.853 10.4069 105.853 10.4786C105.853 10.5502 105.808 10.6099 105.718 10.6577H100.514C100.431 10.6159 100.389 10.5562 100.389 10.4786V10.595Z" fill="#22661E"/>
<path d="M108.513 7.54045L108.397 7.58524C108.313 7.6151 108.194 7.64495 108.038 7.67481C107.883 7.70467 107.71 7.72557 107.519 7.73751H107.349V7.32548H107.519C107.799 7.31353 108.059 7.26875 108.298 7.19112C108.537 7.11349 108.704 7.04183 108.8 6.97614C108.895 6.91045 108.979 6.84477 109.051 6.77908C109.062 6.76117 109.098 6.75221 109.158 6.75221C109.212 6.75221 109.263 6.77012 109.31 6.80595V9.48419L109.319 12.1714C109.361 12.2132 109.397 12.2401 109.427 12.252C109.457 12.2639 109.528 12.2759 109.642 12.2878C109.755 12.2998 109.94 12.3057 110.197 12.3057H110.43V12.7178H110.331C110.206 12.6999 109.731 12.6909 108.907 12.6909C108.095 12.6909 107.626 12.6999 107.501 12.7178H107.393V12.3057H107.626C107.758 12.3057 107.871 12.3057 107.967 12.3057C108.062 12.3057 108.137 12.3028 108.191 12.2968C108.244 12.2908 108.292 12.2819 108.334 12.2699C108.376 12.258 108.4 12.252 108.406 12.252C108.412 12.252 108.429 12.2371 108.459 12.2072C108.489 12.1773 108.507 12.1654 108.513 12.1714V7.54045Z" fill="#22661E"/>
<path d="M111.621 6.00893L111.657 5.99997C111.687 5.99997 111.717 5.99997 111.747 5.99997H111.854L112.105 6.21495C112.666 6.72253 113.075 7.35551 113.332 8.1139C113.589 8.87228 113.717 9.66052 113.717 10.4786C113.717 10.8847 113.687 11.2758 113.628 11.652C113.568 12.0282 113.499 12.3477 113.422 12.6105C113.344 12.8732 113.234 13.136 113.09 13.3987C112.947 13.6615 112.833 13.8615 112.75 13.9988C112.666 14.1362 112.544 14.2885 112.383 14.4557C112.221 14.6229 112.126 14.7214 112.096 14.7513C112.066 14.7811 111.997 14.8378 111.89 14.9214C111.872 14.9394 111.86 14.9513 111.854 14.9573H111.747C111.699 14.9573 111.666 14.9573 111.648 14.9573C111.63 14.9573 111.615 14.9483 111.603 14.9304C111.591 14.9125 111.582 14.8856 111.576 14.8498C111.582 14.8438 111.615 14.805 111.675 14.7333C112.601 13.7719 113.063 12.3537 113.063 10.4786C113.063 8.60356 112.601 7.18532 111.675 6.2239C111.615 6.15225 111.582 6.11343 111.576 6.10746C111.576 6.05969 111.591 6.02684 111.621 6.00893Z" fill="#22661E"/>
<path d="M93.3663 21.2969C93.3663 20.6102 93.5664 19.9503 93.9665 19.3174C94.3666 18.6844 94.8712 18.1828 95.4803 17.8125C96.0894 17.4423 96.6984 17.2542 97.3075 17.2482C97.845 17.2482 98.2719 17.4005 98.5884 17.705C98.6422 17.7648 98.687 17.8155 98.7228 17.8573C98.7586 17.8991 98.7825 17.929 98.7945 17.9469L98.8034 17.9738C98.8213 17.9738 98.9019 17.8961 99.0453 17.7409C99.0871 17.705 99.1319 17.6632 99.1796 17.6155C99.2274 17.5677 99.2752 17.5199 99.3229 17.4722C99.3707 17.4244 99.4006 17.3915 99.4125 17.3736L99.5469 17.2393H99.6006C99.6842 17.2393 99.726 17.2602 99.726 17.302C99.726 17.3258 99.6305 17.7349 99.4394 18.5291C99.2244 19.3592 99.1169 19.7772 99.1169 19.7831C99.105 19.813 99.09 19.8309 99.0721 19.8369C99.0542 19.8429 99.0005 19.8488 98.9109 19.8548H98.7676C98.7318 19.819 98.7138 19.7921 98.7138 19.7742C98.7138 19.7682 98.7168 19.7473 98.7228 19.7115C98.7288 19.6756 98.7347 19.6159 98.7407 19.5323C98.7467 19.4487 98.7497 19.3532 98.7497 19.2457C98.7497 18.8217 98.6541 18.4515 98.463 18.135C98.2719 17.8185 97.9465 17.6573 97.4867 17.6513C97.3792 17.6513 97.2628 17.6603 97.1374 17.6782C97.012 17.6961 96.8537 17.7349 96.6626 17.7946C96.4715 17.8543 96.2894 17.9379 96.1162 18.0454C95.9431 18.1529 95.7549 18.2962 95.5519 18.4754C95.3489 18.6545 95.1757 18.8665 95.0324 19.1113C94.8891 19.3562 94.7487 19.6607 94.6114 20.025C94.4741 20.3892 94.3815 20.7893 94.3337 21.2253C94.3218 21.3327 94.3158 21.4492 94.3158 21.5746C94.3158 21.8612 94.3576 22.115 94.4412 22.336C94.5248 22.5569 94.6323 22.7271 94.7637 22.8465C94.895 22.966 95.0443 23.0675 95.2115 23.1511C95.3787 23.2347 95.534 23.2854 95.6773 23.3034C95.8206 23.3213 95.955 23.3332 96.0804 23.3392C96.4029 23.3392 96.6984 23.2705 96.9672 23.1332C97.2359 22.9958 97.421 22.8197 97.5225 22.6047C97.5404 22.5569 97.5852 22.3927 97.6569 22.112C97.7285 21.8314 97.7644 21.6731 97.7644 21.6373C97.7644 21.5895 97.7256 21.5597 97.6479 21.5477C97.5703 21.5358 97.3911 21.5268 97.1105 21.5209H96.7791C96.7432 21.485 96.7253 21.4611 96.7253 21.4492C96.7253 21.4373 96.7313 21.3805 96.7432 21.279C96.7671 21.2014 96.797 21.1446 96.8328 21.1088H96.9851C97.2239 21.1208 97.642 21.1267 98.2391 21.1267C98.478 21.1267 98.672 21.1267 98.8213 21.1267C98.9706 21.1267 99.0781 21.1237 99.1438 21.1178C99.2095 21.1118 99.2453 21.1118 99.2513 21.1178C99.3349 21.1178 99.3767 21.1446 99.3767 21.1984C99.3767 21.2103 99.3707 21.2521 99.3588 21.3238C99.3289 21.4373 99.2991 21.5 99.2692 21.5119C99.2513 21.5179 99.2065 21.5209 99.1348 21.5209C99.0154 21.5209 98.893 21.5298 98.7676 21.5477C98.7258 21.5656 98.6959 21.5925 98.678 21.6283C98.6601 21.6642 98.6183 21.8164 98.5526 22.0852C98.4989 22.2822 98.4541 22.4494 98.4183 22.5868C98.269 23.1959 98.1854 23.5094 98.1674 23.5273C98.1555 23.5392 98.1406 23.5452 98.1227 23.5452C98.0629 23.5452 97.9793 23.4855 97.8719 23.3661C97.7644 23.2466 97.6957 23.1541 97.6658 23.0884C97.6658 23.0824 97.6599 23.0824 97.6479 23.0884C97.636 23.0944 97.6181 23.1093 97.5942 23.1332C97.1523 23.5452 96.5551 23.7512 95.8027 23.7512C95.0802 23.7512 94.495 23.5213 94.0471 23.0615C93.5992 22.6017 93.3723 22.0135 93.3663 21.2969Z" fill="#22661E"/>
<path d="M116.7 22.605V9.93553H118.436V10.4423H117.207V22.0982H118.436V22.605H116.7Z" fill="#22661E"/>
<path d="M120.919 14.6234C120.919 14.4122 120.839 14.3067 120.678 14.3067C120.476 14.3067 120.265 14.4291 120.045 14.6741C119.825 14.919 119.644 15.2949 119.5 15.8017C119.492 15.8101 119.483 15.8228 119.475 15.8397C119.466 15.8566 119.462 15.8692 119.462 15.8777C119.462 15.8861 119.454 15.8946 119.437 15.903C119.42 15.9115 119.407 15.9157 119.399 15.9157C119.39 15.9157 119.373 15.9157 119.348 15.9157C119.323 15.9157 119.289 15.9157 119.247 15.9157H119.069C119.019 15.865 118.993 15.827 118.993 15.8017C118.993 15.7425 119.027 15.6201 119.095 15.4342C119.162 15.2484 119.264 15.0288 119.399 14.7754C119.534 14.522 119.72 14.3067 119.956 14.1293C120.193 13.9519 120.459 13.859 120.754 13.8506C121.109 13.8506 121.384 13.9519 121.578 14.1546C121.772 14.3573 121.874 14.5938 121.882 14.8641C121.882 15.0077 121.869 15.1175 121.844 15.1935C121.844 15.2442 121.781 15.43 121.654 15.751C121.527 16.0719 121.396 16.4478 121.261 16.8786C121.126 17.3093 121.05 17.6852 121.033 18.0061C121.033 18.2342 121.054 18.42 121.097 18.5636C121.206 18.9268 121.472 19.1084 121.895 19.1084C122.207 19.1084 122.499 18.9648 122.769 18.6776C123.039 18.3904 123.25 18.0568 123.402 17.6767C123.554 17.2966 123.677 16.9461 123.77 16.6252C123.863 16.3042 123.909 16.0719 123.909 15.9283C123.909 15.7341 123.875 15.5652 123.808 15.4216C123.74 15.278 123.664 15.1682 123.58 15.0922C123.495 15.0161 123.419 14.9401 123.352 14.8641C123.284 14.7881 123.25 14.6952 123.25 14.5854C123.25 14.3996 123.331 14.2264 123.491 14.0659C123.652 13.9055 123.825 13.8252 124.011 13.8252C124.171 13.8252 124.315 13.9012 124.441 14.0533C124.568 14.2053 124.636 14.4502 124.644 14.7881C124.644 15.0161 124.593 15.3667 124.492 15.8397C124.391 16.3127 124.234 16.8405 124.023 17.4233C123.812 18.0061 123.512 18.5087 123.124 18.931C122.735 19.3533 122.287 19.5687 121.781 19.5771C121.24 19.5771 120.809 19.4378 120.488 19.1591C120.176 18.8888 120.02 18.4876 120.02 17.9555C120.02 17.6936 120.053 17.4233 120.121 17.1446C120.189 16.8659 120.362 16.3718 120.64 15.6623C120.826 15.1217 120.919 14.7754 120.919 14.6234Z" fill="#22661E"/>
<path d="M125.92 20.8098C125.92 21.0068 125.995 21.1054 126.144 21.1054C126.365 21.1054 126.553 20.7919 126.708 20.1648C126.744 20.0454 126.774 19.9827 126.798 19.9767C126.81 19.9708 126.84 19.9678 126.887 19.9678H126.923C126.977 19.9678 127.013 19.9678 127.031 19.9678C127.049 19.9678 127.064 19.9738 127.076 19.9857C127.087 19.9976 127.093 20.0185 127.093 20.0484C127.087 20.0842 127.079 20.132 127.067 20.1917C127.055 20.2514 127.022 20.3649 126.968 20.5321C126.914 20.6993 126.855 20.8396 126.789 20.9531C126.723 21.0665 126.631 21.177 126.511 21.2845C126.392 21.392 126.254 21.4428 126.099 21.4368C125.884 21.4368 125.684 21.3711 125.499 21.2397C125.314 21.1083 125.218 20.8874 125.212 20.5769C125.212 20.5052 125.215 20.4545 125.221 20.4246L125.804 18.1136C126.18 16.5909 126.368 15.8056 126.368 15.7579C126.368 15.7399 126.365 15.725 126.359 15.7131C126.353 15.7011 126.341 15.6892 126.323 15.6772C126.305 15.6653 126.29 15.6593 126.278 15.6593C126.266 15.6593 126.242 15.6563 126.207 15.6504C126.171 15.6444 126.147 15.6414 126.135 15.6414C126.123 15.6414 126.096 15.6384 126.054 15.6325C126.013 15.6265 125.983 15.6265 125.965 15.6325C125.905 15.6325 125.866 15.6325 125.848 15.6325C125.83 15.6325 125.807 15.6295 125.777 15.6235C125.747 15.6175 125.729 15.6086 125.723 15.5966C125.717 15.5847 125.714 15.5668 125.714 15.5429C125.714 15.5309 125.72 15.4891 125.732 15.4175C125.762 15.304 125.795 15.2413 125.83 15.2294C125.866 15.2174 126.081 15.1995 126.475 15.1756C126.565 15.1697 126.666 15.1637 126.78 15.1577C126.893 15.1517 126.983 15.1428 127.049 15.1308C127.114 15.1189 127.147 15.1159 127.147 15.1219C127.219 15.1219 127.255 15.1458 127.255 15.1935C127.255 15.2592 127.037 16.155 126.601 17.8807C126.165 19.6065 125.941 20.5112 125.929 20.5948C125.929 20.6067 125.929 20.6306 125.929 20.6665C125.929 20.7023 125.926 20.7321 125.92 20.756V20.8098Z" fill="#22661E"/>
<path d="M128.454 10.4423V9.93553H130.189V22.605H128.454V22.0982H129.683V10.4423H128.454Z" fill="#22661E"/>
<circle cx="135" cy="175" r="14" fill="white" stroke="#B33535" stroke-width="2"/>
<path d="M136.552 171.177C136.552 170.07 135.99 170 135.849 170C135.428 170 135.041 170.421 135.041 170.773C135.041 170.983 135.164 171.106 135.235 171.177C135.41 171.335 135.867 171.809 135.867 172.722C135.867 173.46 134.813 177.569 132.706 177.569C131.634 177.569 131.424 176.674 131.424 176.024C131.424 175.146 131.827 173.916 132.302 172.652C132.583 171.932 132.653 171.756 132.653 171.405C132.653 170.667 132.126 170 131.266 170C129.65 170 129 172.547 129 172.687C129 172.757 129.07 172.845 129.193 172.845C129.351 172.845 129.369 172.775 129.439 172.529C129.861 171.019 130.545 170.351 131.213 170.351C131.371 170.351 131.669 170.351 131.669 170.931C131.669 171.387 131.476 171.897 131.213 172.564C130.37 174.812 130.37 175.356 130.37 175.778C130.37 176.164 130.423 176.884 130.967 177.376C131.599 177.921 132.477 177.921 132.635 177.921C135.551 177.921 136.552 172.178 136.552 171.177Z" fill="#B33535"/>
<path d="M141.644 173.073C141.644 172.851 141.468 172.628 141.187 172.628C140.836 172.628 140.531 172.956 140.531 173.261C140.531 173.483 140.707 173.706 140.988 173.706C141.339 173.706 141.644 173.378 141.644 173.073ZM139.197 180.965C139.021 181.679 138.447 182.44 137.733 182.44C137.546 182.44 137.37 182.393 137.347 182.381C137.71 182.206 137.757 181.889 137.757 181.784C137.757 181.503 137.546 181.351 137.3 181.351C136.96 181.351 136.644 181.644 136.644 182.03C136.644 182.475 137.077 182.768 137.745 182.768C138.459 182.768 139.747 182.323 140.098 180.918L141.152 176.726C141.187 176.586 141.21 176.492 141.21 176.316C141.21 175.673 140.695 175.216 140.016 175.216C138.775 175.216 138.049 176.855 138.049 177.007C138.049 177.113 138.131 177.159 138.225 177.159C138.354 177.159 138.365 177.124 138.447 176.949C138.799 176.141 139.396 175.544 139.981 175.544C140.227 175.544 140.367 175.708 140.367 176.094C140.367 176.258 140.332 176.422 140.297 176.586L139.197 180.965Z" fill="#B33535"/>
</svg>
