<svg width="200" height="200" viewBox="0 0 200 200" fill="none" xmlns="http://www.w3.org/2000/svg">
<circle cx="25" cy="25" r="25" fill="#8EA7D7"/>
<circle cx="175" cy="25" r="20" fill="#DC8989"/>
<circle cx="25" cy="175" r="20" fill="#8DDC89"/>
<path d="M175 175V25M175 25H25V175L175 25Z" stroke="black" stroke-width="2"/>
<circle cx="25" cy="175" r="13" fill="white" stroke="black" stroke-width="2"/>
<circle cx="25" cy="25" r="13" fill="white" stroke="black" stroke-width="2"/>
<circle cx="175" cy="25" r="13" fill="white" stroke="black" stroke-width="2"/>
<circle cx="175" cy="175" r="13" fill="white" stroke="black" stroke-width="2"/>
<path d="M25.5521 21.1767C25.5521 20.0703 24.9901 20 24.8496 20C24.4281 20 24.0417 20.4215 24.0417 20.7728C24.0417 20.9835 24.1646 21.1065 24.2349 21.1767C24.4105 21.3348 24.8672 21.809 24.8672 22.7223C24.8672 23.4599 23.8134 27.5697 21.7058 27.5697C20.6345 27.5697 20.4237 26.674 20.4237 26.0241C20.4237 25.146 20.8277 23.9166 21.3019 22.652C21.5829 21.9319 21.6531 21.7563 21.6531 21.405C21.6531 20.6674 21.1262 20 20.2656 20C18.6498 20 18 22.5467 18 22.6872C18 22.7574 18.0703 22.8452 18.1932 22.8452C18.3513 22.8452 18.3688 22.775 18.4391 22.5291C18.8606 21.0187 19.5455 20.3513 20.213 20.3513C20.371 20.3513 20.6696 20.3513 20.6696 20.9308C20.6696 21.3875 20.4764 21.8968 20.213 22.5642C19.3699 24.8123 19.3699 25.3568 19.3699 25.7783C19.3699 26.1646 19.4226 26.8847 19.9671 27.3765C20.5993 27.921 21.4775 27.921 21.6356 27.921C24.551 27.921 25.5521 22.1778 25.5521 21.1767Z" fill="black"/>
<path d="M29.4852 22.9214C29.4852 22.6053 29.4617 22.5936 29.1456 22.5936C28.6656 23.0619 28.045 23.3429 26.9327 23.3429V23.7293C27.2488 23.7293 27.8811 23.7293 28.5602 23.4132V29.4198C28.5602 29.853 28.5251 29.9935 27.4127 29.9935H27.0029V30.3799C27.483 30.3447 28.4899 30.3447 29.0168 30.3447C29.5437 30.3447 30.5624 30.3447 31.0424 30.3799V29.9935H30.6326C29.5203 29.9935 29.4852 29.853 29.4852 29.4198V22.9214Z" fill="black"/>
<path d="M175.552 21.1767C175.552 20.0703 174.99 20 174.85 20C174.428 20 174.042 20.4215 174.042 20.7728C174.042 20.9835 174.165 21.1065 174.235 21.1767C174.411 21.3348 174.867 21.809 174.867 22.7223C174.867 23.4599 173.813 27.5697 171.706 27.5697C170.634 27.5697 170.424 26.674 170.424 26.0241C170.424 25.146 170.828 23.9166 171.302 22.652C171.583 21.9319 171.653 21.7563 171.653 21.405C171.653 20.6674 171.126 20 170.266 20C168.65 20 168 22.5467 168 22.6872C168 22.7574 168.07 22.8452 168.193 22.8452C168.351 22.8452 168.369 22.775 168.439 22.5291C168.861 21.0187 169.546 20.3513 170.213 20.3513C170.371 20.3513 170.67 20.3513 170.67 20.9308C170.67 21.3875 170.476 21.8968 170.213 22.5642C169.37 24.8123 169.37 25.3568 169.37 25.7783C169.37 26.1646 169.423 26.8847 169.967 27.3765C170.599 27.921 171.477 27.921 171.636 27.921C174.551 27.921 175.552 22.1778 175.552 21.1767Z" fill="black"/>
<path d="M179.11 27.9913C179.298 27.8157 179.79 27.4293 179.977 27.2653C180.703 26.5979 181.394 25.954 181.394 24.8885C181.394 23.4951 180.223 22.5936 178.759 22.5936C177.354 22.5936 176.429 23.6591 176.429 24.7011C176.429 25.2749 176.886 25.3568 177.05 25.3568C177.296 25.3568 177.659 25.1812 177.659 24.7363C177.659 24.1274 177.073 24.1274 176.933 24.1274C177.272 23.2727 178.057 22.98 178.63 22.98C179.719 22.98 180.281 23.9049 180.281 24.8885C180.281 26.1062 179.427 26.9961 178.045 28.4128L176.57 29.9349C176.429 30.0637 176.429 30.0872 176.429 30.3799H181.054L181.394 28.284H181.031C180.996 28.5182 180.902 29.1036 180.761 29.3261C180.691 29.4198 179.801 29.4198 179.614 29.4198H177.53L179.11 27.9913Z" fill="black"/>
<path d="M25.5521 171.177C25.5521 170.07 24.9901 170 24.8496 170C24.4281 170 24.0417 170.422 24.0417 170.773C24.0417 170.984 24.1646 171.106 24.2349 171.177C24.4105 171.335 24.8672 171.809 24.8672 172.722C24.8672 173.46 23.8134 177.57 21.7058 177.57C20.6345 177.57 20.4237 176.674 20.4237 176.024C20.4237 175.146 20.8277 173.917 21.3019 172.652C21.5829 171.932 21.6531 171.756 21.6531 171.405C21.6531 170.667 21.1262 170 20.2656 170C18.6498 170 18 172.547 18 172.687C18 172.757 18.0703 172.845 18.1932 172.845C18.3513 172.845 18.3688 172.775 18.4391 172.529C18.8606 171.019 19.5455 170.351 20.213 170.351C20.371 170.351 20.6696 170.351 20.6696 170.931C20.6696 171.387 20.4764 171.897 20.213 172.564C19.3699 174.812 19.3699 175.357 19.3699 175.778C19.3699 176.165 19.4226 176.885 19.9671 177.377C20.5993 177.921 21.4775 177.921 21.6356 177.921C24.551 177.921 25.5521 172.178 25.5521 171.177Z" fill="black"/>
<path d="M28.7709 176.469C29.6959 176.469 30.2814 177.148 30.2814 178.378C30.2814 179.841 29.45 180.274 28.8295 180.274C28.1855 180.274 27.3073 180.04 26.8975 179.42C27.319 179.42 27.6118 179.15 27.6118 178.764C27.6118 178.389 27.3425 178.12 26.9678 178.12C26.6517 178.12 26.3238 178.319 26.3238 178.787C26.3238 179.9 27.5181 180.626 28.8529 180.626C30.4102 180.626 31.4991 179.549 31.4991 178.378C31.4991 177.406 30.7263 176.516 29.532 176.258C30.457 175.931 31.1478 175.134 31.1478 174.198C31.1478 173.261 30.094 172.594 28.8763 172.594C27.6235 172.594 26.6751 173.273 26.6751 174.163C26.6751 174.596 26.9678 174.783 27.2722 174.783C27.6352 174.783 27.8694 174.525 27.8694 174.186C27.8694 173.753 27.4947 173.589 27.2371 173.577C27.7289 172.933 28.6304 172.898 28.8412 172.898C29.1456 172.898 30.0355 172.992 30.0355 174.198C30.0355 175.017 29.6959 175.509 29.532 175.696C29.1807 176.059 28.9114 176.083 28.1972 176.13C27.9747 176.141 27.8811 176.153 27.8811 176.305C27.8811 176.469 27.9864 176.469 28.1855 176.469H28.7709Z" fill="black"/>
<path d="M175.552 171.177C175.552 170.07 174.99 170 174.85 170C174.428 170 174.042 170.422 174.042 170.773C174.042 170.984 174.165 171.106 174.235 171.177C174.411 171.335 174.867 171.809 174.867 172.722C174.867 173.46 173.813 177.57 171.706 177.57C170.634 177.57 170.424 176.674 170.424 176.024C170.424 175.146 170.828 173.917 171.302 172.652C171.583 171.932 171.653 171.756 171.653 171.405C171.653 170.667 171.126 170 170.266 170C168.65 170 168 172.547 168 172.687C168 172.757 168.07 172.845 168.193 172.845C168.351 172.845 168.369 172.775 168.439 172.529C168.861 171.019 169.546 170.351 170.213 170.351C170.371 170.351 170.67 170.351 170.67 170.931C170.67 171.387 170.476 171.897 170.213 172.564C169.37 174.812 169.37 175.357 169.37 175.778C169.37 176.165 169.423 176.885 169.967 177.377C170.599 177.921 171.477 177.921 171.636 177.921C174.551 177.921 175.552 172.178 175.552 171.177Z" fill="black"/>
<path d="M180.422 172.804C180.422 172.57 180.422 172.476 180.176 172.476C180.024 172.476 180.012 172.488 179.895 172.652L176.16 178.073V178.46H179.462V179.431C179.462 179.865 179.427 179.993 178.525 179.993H178.256V180.38C179.251 180.345 179.274 180.345 179.942 180.345C180.609 180.345 180.633 180.345 181.628 180.38V179.993H181.359C180.457 179.993 180.422 179.865 180.422 179.431V178.46H181.663V178.073H180.422V172.804ZM179.544 173.753V178.073H176.57L179.544 173.753Z" fill="black"/>
</svg>
