<svg width="477" height="240" viewBox="0 0 477 240" fill="none" xmlns="http://www.w3.org/2000/svg">
<path d="M466.526 65L371.263 10L276 65H466.526Z" stroke="#B33535" stroke-width="2"/>
<path d="M371.263 230L466.526 175H276L371.263 230Z" stroke="#B33535" stroke-width="2"/>
<path d="M371 20C376.523 20 381 15.5228 381 10C381 4.47715 376.523 0 371 0C365.477 0 361 4.47715 361 10C361 15.5228 365.477 20 371 20Z" fill="#B33535"/>
<path d="M371 240C376.523 240 381 235.523 381 230C381 224.477 376.523 220 371 220C365.477 220 361 224.477 361 230C361 235.523 365.477 240 371 240Z" fill="#B33535"/>
<path d="M467 75C472.523 75 477 70.5228 477 65C477 59.4772 472.523 55 467 55C461.477 55 457 59.4772 457 65C457 70.5228 461.477 75 467 75Z" fill="#B33535"/>
<path d="M467 185C472.523 185 477 180.523 477 175C477 169.477 472.523 165 467 165C461.477 165 457 169.477 457 175C457 180.523 461.477 185 467 185Z" fill="#B33535"/>
<path d="M275 75C280.523 75 285 70.5228 285 65C285 59.4772 280.523 55 275 55C269.477 55 265 59.4772 265 65C265 70.5228 269.477 75 275 75Z" fill="#B33535"/>
<path d="M275 185C280.523 185 285 180.523 285 175C285 169.477 280.523 165 275 165C269.477 165 265 169.477 265 175C265 180.523 269.477 185 275 185Z" fill="#B33535"/>
<path d="M106.263 10L201.526 65V175L106.263 230L11 175V65L106.263 10Z" stroke="#355FB3" stroke-width="2"/>
<path d="M106 20C111.523 20 116 15.5228 116 10C116 4.47715 111.523 0 106 0C100.477 0 96 4.47715 96 10C96 15.5228 100.477 20 106 20Z" fill="#355FB3"/>
<path d="M106 240C111.523 240 116 235.523 116 230C116 224.477 111.523 220 106 220C100.477 220 96 224.477 96 230C96 235.523 100.477 240 106 240Z" fill="#355FB3"/>
<path d="M202 75C207.523 75 212 70.5228 212 65C212 59.4772 207.523 55 202 55C196.477 55 192 59.4772 192 65C192 70.5228 196.477 75 202 75Z" fill="#355FB3"/>
<path d="M202 185C207.523 185 212 180.523 212 175C212 169.477 207.523 165 202 165C196.477 165 192 169.477 192 175C192 180.523 196.477 185 202 185Z" fill="#355FB3"/>
<path d="M10 75C15.5228 75 20 70.5228 20 65C20 59.4772 15.5228 55 10 55C4.47715 55 0 59.4772 0 65C0 70.5228 4.47715 75 10 75Z" fill="#355FB3"/>
<path d="M10 185C15.5228 185 20 180.523 20 175C20 169.477 15.5228 165 10 165C4.47715 165 0 169.477 0 175C0 180.523 4.47715 185 10 185Z" fill="#355FB3"/>
</svg>
