<svg width="86" height="130" viewBox="0 0 86 130" fill="none" xmlns="http://www.w3.org/2000/svg">
<path d="M15 115L15 15" stroke="black" stroke-width="2"/>
<circle cx="15" cy="115" r="14" fill="white" stroke="#B33535" stroke-width="2"/>
<path d="M16.5517 111.177C16.5517 110.07 15.9897 110 15.8492 110C15.4277 110 15.0414 110.421 15.0414 110.773C15.0414 110.983 15.1643 111.106 15.2345 111.177C15.4102 111.335 15.8668 111.809 15.8668 112.722C15.8668 113.46 14.8131 117.569 12.7056 117.569C11.6343 117.569 11.4236 116.674 11.4236 116.024C11.4236 115.146 11.8275 113.916 12.3017 112.652C12.5827 111.932 12.6529 111.756 12.6529 111.405C12.6529 110.667 12.1261 110 11.2655 110C9.6498 110 9 112.547 9 112.687C9 112.757 9.07025 112.845 9.19318 112.845C9.35124 112.845 9.3688 112.775 9.43905 112.529C9.86054 111.019 10.5455 110.351 11.2128 110.351C11.3709 110.351 11.6694 110.351 11.6694 110.931C11.6694 111.387 11.4763 111.897 11.2128 112.564C10.3698 114.812 10.3698 115.356 10.3698 115.778C10.3698 116.164 10.4225 116.884 10.967 117.376C11.5992 117.921 12.4773 117.921 12.6354 117.921C15.5507 117.921 16.5517 112.178 16.5517 111.177Z" fill="#B33535"/>
<path d="M20.2972 113.073C20.2972 112.816 20.1099 112.628 19.8406 112.628C19.5362 112.628 19.1966 112.909 19.1966 113.261C19.1966 113.518 19.3839 113.706 19.6532 113.706C19.9577 113.706 20.2972 113.425 20.2972 113.073ZM18.5878 117.37L17.9556 118.986C17.897 119.162 17.8385 119.302 17.8385 119.501C17.8385 120.075 18.2834 120.496 18.9039 120.496C20.0396 120.496 20.5196 118.857 20.5196 118.705C20.5196 118.588 20.426 118.553 20.344 118.553C20.2035 118.553 20.1801 118.635 20.145 118.752C19.8757 119.688 19.3957 120.168 18.9273 120.168C18.7868 120.168 18.6464 120.11 18.6464 119.794C18.6464 119.513 18.7283 119.302 18.8805 118.939C18.9976 118.623 19.1147 118.307 19.2435 117.991L19.6064 117.042C19.7118 116.773 19.8523 116.41 19.8523 116.211C19.8523 115.626 19.3839 115.216 18.7868 115.216C17.6512 115.216 17.1594 116.855 17.1594 117.007C17.1594 117.113 17.2414 117.159 17.335 117.159C17.4873 117.159 17.499 117.089 17.5341 116.972C17.8619 115.86 18.4005 115.544 18.7517 115.544C18.9156 115.544 19.0327 115.602 19.0327 115.93C19.0327 116.047 19.021 116.211 18.9039 116.562L18.5878 117.37Z" fill="#B33535"/>
<circle cx="15" cy="15" r="14" fill="white" stroke="#3BB335" stroke-width="2"/>
<path d="M16.5517 11.1767C16.5517 10.0702 15.9897 10 15.8492 10C15.4277 10 15.0414 10.4215 15.0414 10.7727C15.0414 10.9835 15.1643 11.1064 15.2345 11.1767C15.4102 11.3347 15.8668 11.8089 15.8668 12.7221C15.8668 13.4597 14.8131 17.5693 12.7056 17.5693C11.6343 17.5693 11.4236 16.6736 11.4236 16.0238C11.4236 15.1457 11.8275 13.9163 12.3017 12.6519C12.5827 11.9318 12.6529 11.7562 12.6529 11.405C12.6529 10.6674 12.1261 10 11.2655 10C9.6498 10 9 12.5465 9 12.687C9 12.7572 9.07025 12.8451 9.19318 12.8451C9.35124 12.8451 9.3688 12.7748 9.43905 12.529C9.86054 11.0186 10.5455 10.3512 11.2128 10.3512C11.3709 10.3512 11.6694 10.3512 11.6694 10.9308C11.6694 11.3874 11.4763 11.8967 11.2128 12.5641C10.3698 14.812 10.3698 15.3564 10.3698 15.7779C10.3698 16.1643 10.4225 16.8843 10.967 17.3761C11.5992 17.9205 12.4773 17.9205 12.6354 17.9205C15.5507 17.9205 16.5517 12.1777 16.5517 11.1767Z" fill="#22661E"/>
<path d="M19.8757 12.6052C19.8874 12.5817 19.9226 12.4295 19.9226 12.4178C19.9226 12.3593 19.8757 12.2539 19.7352 12.2539L18.5527 12.3476C18.1195 12.3827 18.0259 12.3944 18.0259 12.6052C18.0259 12.7691 18.1898 12.7691 18.3303 12.7691C18.8923 12.7691 18.8923 12.8393 18.8923 12.9447C18.8923 12.9798 18.8923 13.0032 18.8337 13.214L17.3819 19.0212C17.3351 19.2085 17.3351 19.3841 17.3351 19.3958C17.3351 20.1217 17.9322 20.4964 18.5176 20.4964C19.021 20.4964 19.2903 20.0983 19.4191 19.8407C19.6299 19.4544 19.8055 18.7636 19.8055 18.705C19.8055 18.6348 19.7704 18.5528 19.6182 18.5528C19.5128 18.5528 19.4777 18.6114 19.4777 18.6231C19.4542 18.6582 19.3957 18.869 19.3606 18.9978C19.185 19.6768 18.9625 20.1686 18.541 20.1686C18.26 20.1686 18.1781 19.8993 18.1781 19.6183C18.1781 19.3958 18.2132 19.267 18.2483 19.1148L19.8757 12.6052Z" fill="#22661E"/>
<path d="M63 100L65.8868 95L60.1133 95L63 100ZM62.5 30L62.5 32.5L63.5 32.5L63.5 30L62.5 30ZM62.5 34.5L62.5 39.5L63.5 39.5L63.5 34.5L62.5 34.5ZM62.5 41.5L62.5 46.5L63.5 46.5L63.5 41.5L62.5 41.5ZM62.5 48.5L62.5 53.5L63.5 53.5L63.5 48.5L62.5 48.5ZM62.5 55.5L62.5 60.5L63.5 60.5L63.5 55.5L62.5 55.5ZM62.5 62.5L62.5 67.5L63.5 67.5L63.5 62.5L62.5 62.5ZM62.5 69.5L62.5 74.5L63.5 74.5L63.5 69.5L62.5 69.5ZM62.5 76.5L62.5 81.5L63.5 81.5L63.5 76.5L62.5 76.5ZM62.5 83.5L62.5 88.5L63.5 88.5L63.5 83.5L62.5 83.5ZM62.5 90.5L62.5 95.5L63.5 95.5L63.5 90.5L62.5 90.5Z" fill="black"/>
<path d="M40 119.336C40 119.21 40.0253 119.096 40.076 118.994C40.076 118.986 41.1952 117.723 43.4334 115.206C45.6717 112.689 46.7993 111.418 46.8162 111.393L46.6895 111.367C46.5966 111.367 46.284 111.367 45.7519 111.367H45.5999H45.2958C45.0087 111.367 44.7722 111.376 44.5863 111.393C44.4005 111.41 44.1682 111.456 43.8895 111.532C43.6108 111.608 43.3827 111.718 43.2054 111.861C43.028 112.005 42.838 112.216 42.6352 112.495C42.4325 112.774 42.2721 113.107 42.1538 113.496C42.1454 113.521 42.1369 113.546 42.1285 113.572C42.12 113.597 42.1116 113.618 42.1031 113.635C42.0947 113.652 42.0905 113.673 42.0905 113.698C42.0905 113.724 42.0862 113.736 42.0778 113.736L42.0651 113.762C42.0398 113.804 41.9595 113.825 41.8244 113.825C41.6808 113.825 41.5964 113.783 41.571 113.698L41.9764 112.33C42.0947 111.95 42.2087 111.57 42.3185 111.19C42.3861 110.953 42.4368 110.827 42.4705 110.81C42.4959 110.793 43.4841 110.785 45.4352 110.785H48.3618C48.4041 110.827 48.4252 110.861 48.4252 110.886C48.4252 110.903 48.3998 111.013 48.3492 111.215C43.8895 116.241 41.6555 118.762 41.647 118.779L41.609 118.817H42.7366C43.539 118.808 43.974 118.8 44.0416 118.792C44.675 118.716 45.1945 118.509 45.5999 118.171C46.0053 117.833 46.3389 117.212 46.6008 116.308C46.6684 116.097 46.7148 115.971 46.7401 115.928C46.7655 115.886 46.8204 115.865 46.9049 115.865H46.9555C47.1329 115.865 47.2216 115.911 47.2216 116.004C46.5374 118.251 46.17 119.387 46.1193 119.412C46.094 119.429 45.0762 119.438 43.066 119.438H40.8362C40.2787 119.438 40 119.404 40 119.336Z" fill="#B33535"/>
<path d="M48.7604 110.479C48.7604 110.067 48.7902 109.675 48.8499 109.305C48.9097 108.935 48.9783 108.616 49.056 108.347C49.1336 108.078 49.2441 107.815 49.3874 107.559C49.5307 107.302 49.6442 107.102 49.7278 106.958C49.8114 106.815 49.9368 106.66 50.104 106.493C50.2712 106.325 50.3697 106.224 50.3996 106.188C50.4294 106.152 50.5041 106.09 50.6235 106H50.7399H50.7758C50.8594 106 50.9012 106.027 50.9012 106.081C50.9012 106.099 50.8504 106.161 50.7489 106.269C50.6474 106.376 50.525 106.534 50.3816 106.743C50.2383 106.952 50.092 107.209 49.9427 107.514C49.7935 107.818 49.668 108.23 49.5665 108.75C49.465 109.269 49.4143 109.846 49.4143 110.479C49.4143 111.112 49.465 111.685 49.5665 112.198C49.668 112.712 49.7905 113.127 49.9338 113.443C50.0771 113.76 50.2234 114.017 50.3727 114.214C50.522 114.411 50.6474 114.569 50.7489 114.689C50.8504 114.808 50.9012 114.871 50.9012 114.877C50.9012 114.93 50.8564 114.957 50.7668 114.957H50.7399H50.6235L50.3727 114.742C49.8114 114.235 49.4023 113.602 49.1455 112.843C48.8888 112.085 48.7604 111.297 48.7604 110.479Z" fill="#B33535"/>
<path d="M51.6357 109.269C51.5939 109.228 51.573 109.198 51.573 109.18C51.573 109.156 51.582 109.108 51.5999 109.036C51.6178 108.965 51.6327 108.923 51.6447 108.911C51.6566 108.881 51.6835 108.866 51.7253 108.866C51.7671 108.866 51.9193 108.863 52.1821 108.857H52.6568L52.827 108.141C52.8449 108.075 52.8658 107.988 52.8897 107.881C52.9136 107.773 52.9345 107.696 52.9524 107.648C52.9703 107.6 52.9883 107.541 53.0062 107.469C53.0241 107.397 53.048 107.346 53.0778 107.317C53.1077 107.287 53.1375 107.251 53.1674 107.209C53.1973 107.167 53.2391 107.14 53.2928 107.129C53.3465 107.117 53.4003 107.111 53.454 107.111C53.5615 107.117 53.6362 107.149 53.678 107.209C53.7198 107.269 53.7407 107.326 53.7407 107.379C53.7407 107.421 53.7138 107.561 53.66 107.8C53.6063 108.039 53.5466 108.275 53.4809 108.508L53.3913 108.839C53.3913 108.851 53.5406 108.857 53.8392 108.857H54.296C54.3378 108.899 54.3587 108.932 54.3587 108.956C54.3587 109.087 54.3199 109.192 54.2423 109.269H53.2838L52.9614 110.568C52.7285 111.524 52.612 112.037 52.612 112.109C52.612 112.36 52.6927 112.485 52.8539 112.485C53.0629 112.485 53.2659 112.383 53.463 112.18C53.66 111.977 53.8183 111.727 53.9377 111.428C53.9497 111.392 53.9646 111.371 53.9825 111.365C54.0004 111.359 54.0452 111.353 54.1169 111.347H54.1527C54.2423 111.347 54.2871 111.371 54.2871 111.419C54.2871 111.437 54.2781 111.473 54.2602 111.527C54.2303 111.622 54.1766 111.736 54.099 111.867C54.0213 111.998 53.9198 112.139 53.7944 112.288C53.669 112.437 53.5167 112.563 53.3376 112.664C53.1584 112.766 52.9763 112.816 52.7912 112.816C52.612 112.816 52.4419 112.772 52.2806 112.682C52.1194 112.592 52.0029 112.437 51.9313 112.216C51.9193 112.168 51.9134 112.088 51.9134 111.974V111.813L52.2269 110.559C52.4359 109.717 52.5434 109.293 52.5493 109.287C52.5493 109.275 52.3971 109.269 52.0925 109.269H51.6357Z" fill="#B33535"/>
<path d="M55.3888 110.595C55.3888 110.595 55.3888 110.556 55.3888 110.479C55.3888 110.401 55.4306 110.341 55.5142 110.299H60.7184C60.808 110.347 60.8527 110.407 60.8527 110.479C60.8527 110.55 60.808 110.61 60.7184 110.658H55.5142C55.4306 110.616 55.3888 110.556 55.3888 110.479V110.595Z" fill="#B33535"/>
<path d="M63.5131 107.54L63.3966 107.585C63.313 107.615 63.1936 107.645 63.0383 107.675C62.8831 107.705 62.7099 107.726 62.5188 107.738H62.3486V107.325H62.5188C62.7995 107.314 63.0592 107.269 63.2981 107.191C63.537 107.113 63.7042 107.042 63.7997 106.976C63.8953 106.91 63.9789 106.845 64.0505 106.779C64.0625 106.761 64.0983 106.752 64.158 106.752C64.2118 106.752 64.2625 106.77 64.3103 106.806V109.484L64.3192 112.171C64.361 112.213 64.3969 112.24 64.4267 112.252C64.4566 112.264 64.5282 112.276 64.6417 112.288C64.7552 112.3 64.9403 112.306 65.1971 112.306H65.4299V112.718H65.3314C65.206 112.7 64.7313 112.691 63.9072 112.691C63.0951 112.691 62.6263 112.7 62.5009 112.718H62.3934V112.306H62.6263C62.7577 112.306 62.8711 112.306 62.9667 112.306C63.0622 112.306 63.1369 112.303 63.1906 112.297C63.2444 112.291 63.2921 112.282 63.3339 112.27C63.3757 112.258 63.3996 112.252 63.4056 112.252C63.4116 112.252 63.4295 112.237 63.4593 112.207C63.4892 112.177 63.5071 112.165 63.5131 112.171V107.54Z" fill="#B33535"/>
<path d="M66.6212 106.009L66.657 106C66.6869 106 66.7167 106 66.7466 106H66.8541L67.1049 106.215C67.6662 106.723 68.0753 107.356 68.332 108.114C68.5888 108.872 68.7172 109.661 68.7172 110.479C68.7172 110.885 68.6874 111.276 68.6276 111.652C68.5679 112.028 68.4993 112.348 68.4216 112.61C68.344 112.873 68.2335 113.136 68.0902 113.399C67.9469 113.661 67.8334 113.861 67.7498 113.999C67.6662 114.136 67.5438 114.288 67.3826 114.456C67.2213 114.623 67.1258 114.721 67.0959 114.751C67.0661 114.781 66.9974 114.838 66.8899 114.921C66.872 114.939 66.8601 114.951 66.8541 114.957H66.7466C66.6988 114.957 66.666 114.957 66.6481 114.957C66.6302 114.957 66.6152 114.948 66.6033 114.93C66.5913 114.912 66.5824 114.886 66.5764 114.85C66.5824 114.844 66.6152 114.805 66.6749 114.733C67.6005 113.772 68.0633 112.354 68.0633 110.479C68.0633 108.604 67.6005 107.185 66.6749 106.224C66.6152 106.152 66.5824 106.113 66.5764 106.107C66.5764 106.06 66.5913 106.027 66.6212 106.009Z" fill="#B33535"/>
<path d="M48.3663 121.297C48.3663 120.61 48.5664 119.95 48.9665 119.317C49.3666 118.684 49.8712 118.183 50.4803 117.813C51.0894 117.442 51.6984 117.254 52.3075 117.248C52.845 117.248 53.2719 117.4 53.5884 117.705C53.6422 117.765 53.687 117.816 53.7228 117.857C53.7586 117.899 53.7825 117.929 53.7945 117.947L53.8034 117.974C53.8213 117.974 53.9019 117.896 54.0453 117.741C54.0871 117.705 54.1319 117.663 54.1796 117.615C54.2274 117.568 54.2752 117.52 54.3229 117.472C54.3707 117.424 54.4006 117.392 54.4125 117.374L54.5469 117.239H54.6006C54.6842 117.239 54.726 117.26 54.726 117.302C54.726 117.326 54.6305 117.735 54.4394 118.529C54.2244 119.359 54.1169 119.777 54.1169 119.783C54.105 119.813 54.09 119.831 54.0721 119.837C54.0542 119.843 54.0005 119.849 53.9109 119.855H53.7676C53.7318 119.819 53.7138 119.792 53.7138 119.774C53.7138 119.768 53.7168 119.747 53.7228 119.711C53.7288 119.676 53.7347 119.616 53.7407 119.532C53.7467 119.449 53.7497 119.353 53.7497 119.246C53.7497 118.822 53.6541 118.451 53.463 118.135C53.2719 117.819 52.9465 117.657 52.4867 117.651C52.3792 117.651 52.2628 117.66 52.1374 117.678C52.012 117.696 51.8537 117.735 51.6626 117.795C51.4715 117.854 51.2894 117.938 51.1162 118.045C50.9431 118.153 50.7549 118.296 50.5519 118.475C50.3489 118.655 50.1757 118.867 50.0324 119.111C49.8891 119.356 49.7487 119.661 49.6114 120.025C49.4741 120.389 49.3815 120.789 49.3337 121.225C49.3218 121.333 49.3158 121.449 49.3158 121.575C49.3158 121.861 49.3576 122.115 49.4412 122.336C49.5248 122.557 49.6323 122.727 49.7637 122.847C49.895 122.966 50.0443 123.067 50.2115 123.151C50.3787 123.235 50.534 123.285 50.6773 123.303C50.8206 123.321 50.955 123.333 51.0804 123.339C51.4029 123.339 51.6984 123.271 51.9672 123.133C52.2359 122.996 52.421 122.82 52.5225 122.605C52.5404 122.557 52.5852 122.393 52.6569 122.112C52.7285 121.831 52.7644 121.673 52.7644 121.637C52.7644 121.59 52.7256 121.56 52.6479 121.548C52.5703 121.536 52.3911 121.527 52.1105 121.521H51.7791C51.7432 121.485 51.7253 121.461 51.7253 121.449C51.7253 121.437 51.7313 121.381 51.7432 121.279C51.7671 121.201 51.797 121.145 51.8328 121.109H51.9851C52.2239 121.121 52.642 121.127 53.2391 121.127C53.478 121.127 53.672 121.127 53.8213 121.127C53.9706 121.127 54.0781 121.124 54.1438 121.118C54.2095 121.112 54.2453 121.112 54.2513 121.118C54.3349 121.118 54.3767 121.145 54.3767 121.198C54.3767 121.21 54.3707 121.252 54.3588 121.324C54.3289 121.437 54.2991 121.5 54.2692 121.512C54.2513 121.518 54.2065 121.521 54.1348 121.521C54.0154 121.521 53.893 121.53 53.7676 121.548C53.7258 121.566 53.6959 121.593 53.678 121.628C53.6601 121.664 53.6183 121.816 53.5526 122.085C53.4989 122.282 53.4541 122.449 53.4183 122.587C53.269 123.196 53.1854 123.509 53.1674 123.527C53.1555 123.539 53.1406 123.545 53.1227 123.545C53.0629 123.545 52.9793 123.485 52.8719 123.366C52.7644 123.247 52.6957 123.154 52.6658 123.088C52.6658 123.082 52.6599 123.082 52.6479 123.088C52.636 123.094 52.6181 123.109 52.5942 123.133C52.1523 123.545 51.5551 123.751 50.8027 123.751C50.0802 123.751 49.495 123.521 49.0471 123.062C48.5992 122.602 48.3723 122.014 48.3663 121.297Z" fill="#B33535"/>
<path d="M71.7002 122.605V109.936H73.4359V110.442H72.207V122.098H73.4359V122.605H71.7002Z" fill="#B33535"/>
<path d="M75.9192 114.623C75.9192 114.412 75.8389 114.307 75.6784 114.307C75.4757 114.307 75.2646 114.429 75.045 114.674C74.8254 114.919 74.6438 115.295 74.5002 115.802C74.4917 115.81 74.4833 115.823 74.4748 115.84C74.4664 115.857 74.4622 115.869 74.4622 115.878C74.4622 115.886 74.4537 115.895 74.4368 115.903C74.4199 115.911 74.4073 115.916 74.3988 115.916C74.3904 115.916 74.3735 115.916 74.3482 115.916C74.3228 115.916 74.289 115.916 74.2468 115.916H74.0694C74.0187 115.865 73.9934 115.827 73.9934 115.802C73.9934 115.743 74.0272 115.62 74.0948 115.434C74.1623 115.248 74.2637 115.029 74.3988 114.775C74.534 114.522 74.7198 114.307 74.9563 114.129C75.1928 113.952 75.4588 113.859 75.7545 113.851C76.1092 113.851 76.3837 113.952 76.578 114.155C76.7722 114.357 76.8736 114.594 76.882 114.864C76.882 115.008 76.8694 115.118 76.844 115.194C76.844 115.244 76.7807 115.43 76.654 115.751C76.5273 116.072 76.3964 116.448 76.2612 116.879C76.1261 117.309 76.0501 117.685 76.0332 118.006C76.0332 118.234 76.0543 118.42 76.0965 118.564C76.2063 118.927 76.4724 119.108 76.8947 119.108C77.2072 119.108 77.4986 118.965 77.7689 118.678C78.0392 118.39 78.2503 118.057 78.4024 117.677C78.5544 117.297 78.6769 116.946 78.7698 116.625C78.8627 116.304 78.9092 116.072 78.9092 115.928C78.9092 115.734 78.8754 115.565 78.8078 115.422C78.7402 115.278 78.6642 115.168 78.5798 115.092C78.4953 115.016 78.4193 114.94 78.3517 114.864C78.2841 114.788 78.2503 114.695 78.2503 114.585C78.2503 114.4 78.3306 114.226 78.4911 114.066C78.6515 113.905 78.8247 113.825 79.0105 113.825C79.171 113.825 79.3146 113.901 79.4413 114.053C79.568 114.205 79.6355 114.45 79.644 114.788C79.644 115.016 79.5933 115.367 79.492 115.84C79.3906 116.313 79.2343 116.841 79.0232 117.423C78.812 118.006 78.5122 118.509 78.1237 118.931C77.7351 119.353 77.2875 119.569 76.7807 119.577C76.2401 119.577 75.8094 119.438 75.4884 119.159C75.1759 118.889 75.0196 118.488 75.0196 117.955C75.0196 117.694 75.0534 117.423 75.121 117.145C75.1886 116.866 75.3617 116.372 75.6404 115.662C75.8263 115.122 75.9192 114.775 75.9192 114.623Z" fill="#B33535"/>
<path d="M81.5201 115.964C81.5201 115.821 81.5768 115.695 81.6903 115.588C81.8037 115.48 81.9351 115.423 82.0844 115.417C82.1919 115.417 82.2815 115.453 82.3531 115.525C82.4248 115.597 82.4636 115.686 82.4696 115.794C82.4696 115.931 82.4099 116.056 82.2904 116.17C82.171 116.283 82.0396 116.343 81.8963 116.349C81.8067 116.349 81.7231 116.319 81.6455 116.259C81.5679 116.2 81.5261 116.101 81.5201 115.964ZM80.0601 118.767C80.0601 118.72 80.0869 118.627 80.1407 118.49C80.1944 118.352 80.2661 118.2 80.3556 118.033C80.4452 117.866 80.5766 117.714 80.7498 117.576C80.9229 117.439 81.1021 117.373 81.2872 117.379C81.5201 117.379 81.7142 117.448 81.8694 117.585C82.0247 117.722 82.1053 117.908 82.1113 118.14C82.1113 118.242 82.0695 118.409 81.9859 118.642C81.9023 118.875 81.7828 119.188 81.6276 119.583C81.4723 119.977 81.3469 120.314 81.2514 120.595C81.2215 120.726 81.2066 120.822 81.2066 120.881C81.2066 121.031 81.2574 121.105 81.3589 121.105C81.4126 121.105 81.4693 121.096 81.5291 121.078C81.5888 121.061 81.6574 121.019 81.7351 120.953C81.8127 120.887 81.8933 120.783 81.9769 120.64C82.0605 120.496 82.1352 120.32 82.2009 120.111C82.2188 120.039 82.2337 119.998 82.2456 119.986C82.2576 119.974 82.3083 119.968 82.3979 119.968C82.5173 119.968 82.5771 119.998 82.5771 120.057C82.5771 120.105 82.5502 120.198 82.4964 120.335C82.4427 120.472 82.3681 120.625 82.2725 120.792C82.177 120.959 82.0426 121.108 81.8694 121.24C81.6963 121.371 81.5111 121.437 81.3141 121.437C81.123 121.437 80.9468 121.374 80.7856 121.249C80.6244 121.123 80.5408 120.932 80.5348 120.675C80.5348 120.574 80.5497 120.478 80.5796 120.389C80.6094 120.299 80.7378 119.959 80.9647 119.368C81.1917 118.765 81.323 118.403 81.3589 118.284C81.3947 118.164 81.4156 118.048 81.4216 117.934C81.4216 117.791 81.3708 117.719 81.2693 117.719H81.2514C81.0722 117.719 80.908 117.818 80.7587 118.015C80.6094 118.212 80.496 118.463 80.4184 118.767C80.4124 118.773 80.4064 118.782 80.4004 118.794C80.3945 118.806 80.3915 118.815 80.3915 118.821C80.3915 118.827 80.3855 118.833 80.3736 118.839C80.3616 118.845 80.3527 118.848 80.3467 118.848C80.3407 118.848 80.3288 118.848 80.3109 118.848C80.2929 118.848 80.2691 118.848 80.2392 118.848H80.1138C80.078 118.812 80.0601 118.785 80.0601 118.767Z" fill="#B33535"/>
<path d="M83.8743 110.442V109.936H85.61V122.605H83.8743V122.098H85.1032V110.442H83.8743Z" fill="#B33535"/>
<path d="M40 19.3364C40 19.2097 40.0253 19.0957 40.076 18.9943C40.076 18.9859 41.1952 17.7231 43.4334 15.2061C45.6717 12.6891 46.7993 11.418 46.8162 11.3926L46.6895 11.3673C46.5966 11.3673 46.284 11.3673 45.7519 11.3673H45.5999H45.2958C45.0087 11.3673 44.7722 11.3757 44.5863 11.3926C44.4005 11.4095 44.1682 11.456 43.8895 11.532C43.6108 11.608 43.3827 11.7178 43.2054 11.8614C43.028 12.005 42.838 12.2162 42.6352 12.4949C42.4325 12.7736 42.2721 13.1072 42.1538 13.4958C42.1454 13.5211 42.1369 13.5464 42.1285 13.5718C42.12 13.5971 42.1116 13.6182 42.1031 13.6351C42.0947 13.652 42.0905 13.6731 42.0905 13.6985C42.0905 13.7238 42.0862 13.7365 42.0778 13.7365L42.0651 13.7618C42.0398 13.8041 41.9595 13.8252 41.8244 13.8252C41.6808 13.8252 41.5964 13.7829 41.571 13.6985L41.9764 12.3302C42.0947 11.9501 42.2087 11.57 42.3185 11.1899C42.3861 10.9534 42.4368 10.8267 42.4705 10.8098C42.4959 10.793 43.4841 10.7845 45.4352 10.7845H48.3618C48.4041 10.8267 48.4252 10.8605 48.4252 10.8859C48.4252 10.9028 48.3998 11.0126 48.3492 11.2153C43.8895 16.2408 41.6555 18.762 41.647 18.7789L41.609 18.8169H42.7366C43.539 18.8085 43.974 18.8 44.0416 18.7916C44.675 18.7156 45.1945 18.5087 45.5999 18.1708C46.0053 17.8329 46.3389 17.2121 46.6008 16.3084C46.6684 16.0972 46.7148 15.9705 46.7401 15.9283C46.7655 15.8861 46.8204 15.865 46.9049 15.865H46.9555C47.1329 15.865 47.2216 15.9114 47.2216 16.0043C46.5374 18.251 46.17 19.3871 46.1193 19.4124C46.094 19.4293 45.0762 19.4377 43.066 19.4377H40.8362C40.2787 19.4377 40 19.404 40 19.3364Z" fill="#22661E"/>
<path d="M48.7604 10.4786C48.7604 10.0666 48.7902 9.67545 48.8499 9.30522C48.9097 8.93498 48.9783 8.6155 49.056 8.34678C49.1336 8.07807 49.2441 7.81532 49.3874 7.55854C49.5307 7.30177 49.6442 7.10172 49.7278 6.9584C49.8114 6.81509 49.9368 6.65983 50.104 6.49262C50.2712 6.32542 50.3697 6.2239 50.3996 6.18807C50.4294 6.15225 50.5041 6.08954 50.6235 5.99997H50.7399H50.7758C50.8594 5.99997 50.9012 6.02684 50.9012 6.08059C50.9012 6.0985 50.8504 6.1612 50.7489 6.26869C50.6474 6.37618 50.525 6.53442 50.3816 6.74343C50.2383 6.95243 50.092 7.20921 49.9427 7.51376C49.7935 7.8183 49.668 8.23034 49.5665 8.74986C49.465 9.26939 49.4143 9.84564 49.4143 10.4786C49.4143 11.1116 49.465 11.6849 49.5665 12.1984C49.668 12.712 49.7905 13.127 49.9338 13.4435C50.0771 13.76 50.2234 14.0168 50.3727 14.2138C50.522 14.4109 50.6474 14.5691 50.7489 14.6886C50.8504 14.808 50.9012 14.8707 50.9012 14.8767C50.9012 14.9304 50.8564 14.9573 50.7668 14.9573H50.7399H50.6235L50.3727 14.7423C49.8114 14.2347 49.4023 13.6017 49.1455 12.8434C48.8888 12.085 48.7604 11.2967 48.7604 10.4786Z" fill="#22661E"/>
<path d="M51.6357 9.26931C51.5939 9.22751 51.573 9.19766 51.573 9.17974C51.573 9.15585 51.582 9.10808 51.5999 9.03642C51.6178 8.96477 51.6327 8.92296 51.6447 8.91102C51.6566 8.88116 51.6835 8.86624 51.7253 8.86624C51.7671 8.86624 51.9193 8.86325 52.1821 8.85728H52.6568L52.827 8.14069C52.8449 8.07501 52.8658 7.98842 52.8897 7.88093C52.9136 7.77344 52.9345 7.69581 52.9524 7.64804C52.9703 7.60027 52.9883 7.54055 53.0062 7.4689C53.0241 7.39724 53.048 7.34648 53.0778 7.31662C53.1077 7.28676 53.1375 7.25093 53.1674 7.20913C53.1973 7.16733 53.2391 7.14046 53.2928 7.12852C53.3465 7.11658 53.4003 7.1106 53.454 7.1106C53.5615 7.11658 53.6362 7.14942 53.678 7.20913C53.7198 7.26885 53.7407 7.32558 53.7407 7.37932C53.7407 7.42112 53.7138 7.56145 53.66 7.80032C53.6063 8.03918 53.5466 8.27505 53.4809 8.50794L53.3913 8.83936C53.3913 8.85131 53.5406 8.85728 53.8392 8.85728H54.296C54.3378 8.89908 54.3587 8.93192 54.3587 8.95581C54.3587 9.08718 54.3199 9.19168 54.2423 9.26931H53.2838L52.9614 10.5681C52.7285 11.5236 52.612 12.0371 52.612 12.1088C52.612 12.3596 52.6927 12.485 52.8539 12.485C53.0629 12.485 53.2659 12.3835 53.463 12.1804C53.66 11.9774 53.8183 11.7266 53.9377 11.428C53.9497 11.3922 53.9646 11.3713 53.9825 11.3653C54.0004 11.3594 54.0452 11.3534 54.1169 11.3474H54.1527C54.2423 11.3474 54.2871 11.3713 54.2871 11.4191C54.2871 11.437 54.2781 11.4728 54.2602 11.5266C54.2303 11.6221 54.1766 11.7356 54.099 11.8669C54.0213 11.9983 53.9198 12.1386 53.7944 12.2879C53.669 12.4372 53.5167 12.5626 53.3376 12.6641C53.1584 12.7656 52.9763 12.8164 52.7912 12.8164C52.612 12.8164 52.4419 12.7716 52.2806 12.682C52.1194 12.5925 52.0029 12.4372 51.9313 12.2163C51.9193 12.1685 51.9134 12.0879 51.9134 11.9744V11.8132L52.2269 10.5592C52.4359 9.71718 52.5434 9.2932 52.5493 9.28723C52.5493 9.27529 52.3971 9.26931 52.0925 9.26931H51.6357Z" fill="#22661E"/>
<path d="M55.3888 10.595C55.3888 10.595 55.3888 10.5562 55.3888 10.4786C55.3888 10.4009 55.4306 10.3412 55.5142 10.2994H60.7184C60.808 10.3472 60.8527 10.4069 60.8527 10.4786C60.8527 10.5502 60.808 10.6099 60.7184 10.6577H55.5142C55.4306 10.6159 55.3888 10.5562 55.3888 10.4786V10.595Z" fill="#22661E"/>
<path d="M63.5131 7.54045L63.3966 7.58524C63.313 7.6151 63.1936 7.64495 63.0383 7.67481C62.8831 7.70467 62.7099 7.72557 62.5188 7.73751H62.3486V7.32548H62.5188C62.7995 7.31353 63.0592 7.26875 63.2981 7.19112C63.537 7.11349 63.7042 7.04183 63.7997 6.97614C63.8953 6.91045 63.9789 6.84477 64.0505 6.77908C64.0625 6.76117 64.0983 6.75221 64.158 6.75221C64.2118 6.75221 64.2625 6.77012 64.3103 6.80595V9.48419L64.3192 12.1714C64.361 12.2132 64.3969 12.2401 64.4267 12.252C64.4566 12.2639 64.5282 12.2759 64.6417 12.2878C64.7552 12.2998 64.9403 12.3057 65.1971 12.3057H65.4299V12.7178H65.3314C65.206 12.6999 64.7313 12.6909 63.9072 12.6909C63.0951 12.6909 62.6263 12.6999 62.5009 12.7178H62.3934V12.3057H62.6263C62.7577 12.3057 62.8711 12.3057 62.9667 12.3057C63.0622 12.3057 63.1369 12.3028 63.1906 12.2968C63.2444 12.2908 63.2921 12.2819 63.3339 12.2699C63.3757 12.258 63.3996 12.252 63.4056 12.252C63.4116 12.252 63.4295 12.2371 63.4593 12.2072C63.4892 12.1773 63.5071 12.1654 63.5131 12.1714V7.54045Z" fill="#22661E"/>
<path d="M66.6212 6.00893L66.657 5.99997C66.6869 5.99997 66.7167 5.99997 66.7466 5.99997H66.8541L67.1049 6.21495C67.6662 6.72253 68.0753 7.35551 68.332 8.1139C68.5888 8.87228 68.7172 9.66052 68.7172 10.4786C68.7172 10.8847 68.6874 11.2758 68.6276 11.652C68.5679 12.0282 68.4993 12.3477 68.4216 12.6105C68.344 12.8732 68.2335 13.136 68.0902 13.3987C67.9469 13.6615 67.8334 13.8615 67.7498 13.9988C67.6662 14.1362 67.5438 14.2885 67.3826 14.4557C67.2213 14.6229 67.1258 14.7214 67.0959 14.7513C67.0661 14.7811 66.9974 14.8378 66.8899 14.9214C66.872 14.9394 66.8601 14.9513 66.8541 14.9573H66.7466C66.6988 14.9573 66.666 14.9573 66.6481 14.9573C66.6302 14.9573 66.6152 14.9483 66.6033 14.9304C66.5913 14.9125 66.5824 14.8856 66.5764 14.8498C66.5824 14.8438 66.6152 14.805 66.6749 14.7333C67.6005 13.7719 68.0633 12.3537 68.0633 10.4786C68.0633 8.60356 67.6005 7.18532 66.6749 6.2239C66.6152 6.15225 66.5824 6.11343 66.5764 6.10746C66.5764 6.05969 66.5913 6.02684 66.6212 6.00893Z" fill="#22661E"/>
<path d="M48.3663 21.2969C48.3663 20.6102 48.5664 19.9503 48.9665 19.3174C49.3666 18.6844 49.8712 18.1828 50.4803 17.8125C51.0894 17.4423 51.6984 17.2542 52.3075 17.2482C52.845 17.2482 53.2719 17.4005 53.5884 17.705C53.6422 17.7648 53.687 17.8155 53.7228 17.8573C53.7586 17.8991 53.7825 17.929 53.7945 17.9469L53.8034 17.9738C53.8213 17.9738 53.9019 17.8961 54.0453 17.7409C54.0871 17.705 54.1319 17.6632 54.1796 17.6155C54.2274 17.5677 54.2752 17.5199 54.3229 17.4722C54.3707 17.4244 54.4006 17.3915 54.4125 17.3736L54.5469 17.2393H54.6006C54.6842 17.2393 54.726 17.2602 54.726 17.302C54.726 17.3258 54.6305 17.7349 54.4394 18.5291C54.2244 19.3592 54.1169 19.7772 54.1169 19.7831C54.105 19.813 54.09 19.8309 54.0721 19.8369C54.0542 19.8429 54.0005 19.8488 53.9109 19.8548H53.7676C53.7318 19.819 53.7138 19.7921 53.7138 19.7742C53.7138 19.7682 53.7168 19.7473 53.7228 19.7115C53.7288 19.6756 53.7347 19.6159 53.7407 19.5323C53.7467 19.4487 53.7497 19.3532 53.7497 19.2457C53.7497 18.8217 53.6541 18.4515 53.463 18.135C53.2719 17.8185 52.9465 17.6573 52.4867 17.6513C52.3792 17.6513 52.2628 17.6603 52.1374 17.6782C52.012 17.6961 51.8537 17.7349 51.6626 17.7946C51.4715 17.8543 51.2894 17.9379 51.1162 18.0454C50.9431 18.1529 50.7549 18.2962 50.5519 18.4754C50.3489 18.6545 50.1757 18.8665 50.0324 19.1113C49.8891 19.3562 49.7487 19.6607 49.6114 20.025C49.4741 20.3892 49.3815 20.7893 49.3337 21.2253C49.3218 21.3327 49.3158 21.4492 49.3158 21.5746C49.3158 21.8612 49.3576 22.115 49.4412 22.336C49.5248 22.5569 49.6323 22.7271 49.7637 22.8465C49.895 22.966 50.0443 23.0675 50.2115 23.1511C50.3787 23.2347 50.534 23.2854 50.6773 23.3034C50.8206 23.3213 50.955 23.3332 51.0804 23.3392C51.4029 23.3392 51.6984 23.2705 51.9672 23.1332C52.2359 22.9958 52.421 22.8197 52.5225 22.6047C52.5404 22.5569 52.5852 22.3927 52.6569 22.112C52.7285 21.8314 52.7644 21.6731 52.7644 21.6373C52.7644 21.5895 52.7256 21.5597 52.6479 21.5477C52.5703 21.5358 52.3911 21.5268 52.1105 21.5209H51.7791C51.7432 21.485 51.7253 21.4611 51.7253 21.4492C51.7253 21.4373 51.7313 21.3805 51.7432 21.279C51.7671 21.2014 51.797 21.1446 51.8328 21.1088H51.9851C52.2239 21.1208 52.642 21.1267 53.2391 21.1267C53.478 21.1267 53.672 21.1267 53.8213 21.1267C53.9706 21.1267 54.0781 21.1237 54.1438 21.1178C54.2095 21.1118 54.2453 21.1118 54.2513 21.1178C54.3349 21.1178 54.3767 21.1446 54.3767 21.1984C54.3767 21.2103 54.3707 21.2521 54.3588 21.3238C54.3289 21.4373 54.2991 21.5 54.2692 21.5119C54.2513 21.5179 54.2065 21.5209 54.1348 21.5209C54.0154 21.5209 53.893 21.5298 53.7676 21.5477C53.7258 21.5656 53.6959 21.5925 53.678 21.6283C53.6601 21.6642 53.6183 21.8164 53.5526 22.0852C53.4989 22.2822 53.4541 22.4494 53.4183 22.5868C53.269 23.1959 53.1854 23.5094 53.1674 23.5273C53.1555 23.5392 53.1406 23.5452 53.1227 23.5452C53.0629 23.5452 52.9793 23.4855 52.8719 23.3661C52.7644 23.2466 52.6957 23.1541 52.6658 23.0884C52.6658 23.0824 52.6599 23.0824 52.6479 23.0884C52.636 23.0944 52.6181 23.1093 52.5942 23.1332C52.1523 23.5452 51.5551 23.7512 50.8027 23.7512C50.0802 23.7512 49.495 23.5213 49.0471 23.0615C48.5992 22.6017 48.3723 22.0135 48.3663 21.2969Z" fill="#22661E"/>
<path d="M71.7002 22.605V9.93553H73.4359V10.4423H72.207V22.0982H73.4359V22.605H71.7002Z" fill="#22661E"/>
<path d="M75.9192 14.6234C75.9192 14.4122 75.8389 14.3067 75.6784 14.3067C75.4757 14.3067 75.2646 14.4291 75.045 14.6741C74.8254 14.919 74.6438 15.2949 74.5002 15.8017C74.4917 15.8101 74.4833 15.8228 74.4748 15.8397C74.4664 15.8566 74.4622 15.8692 74.4622 15.8777C74.4622 15.8861 74.4537 15.8946 74.4368 15.903C74.4199 15.9115 74.4073 15.9157 74.3988 15.9157C74.3904 15.9157 74.3735 15.9157 74.3482 15.9157C74.3228 15.9157 74.289 15.9157 74.2468 15.9157H74.0694C74.0187 15.865 73.9934 15.827 73.9934 15.8017C73.9934 15.7425 74.0272 15.6201 74.0948 15.4342C74.1623 15.2484 74.2637 15.0288 74.3988 14.7754C74.534 14.522 74.7198 14.3067 74.9563 14.1293C75.1928 13.9519 75.4588 13.859 75.7545 13.8506C76.1092 13.8506 76.3837 13.9519 76.578 14.1546C76.7722 14.3573 76.8736 14.5938 76.882 14.8641C76.882 15.0077 76.8694 15.1175 76.844 15.1935C76.844 15.2442 76.7807 15.43 76.654 15.751C76.5273 16.0719 76.3964 16.4478 76.2612 16.8786C76.1261 17.3093 76.0501 17.6852 76.0332 18.0061C76.0332 18.2342 76.0543 18.42 76.0965 18.5636C76.2063 18.9268 76.4724 19.1084 76.8947 19.1084C77.2072 19.1084 77.4986 18.9648 77.7689 18.6776C78.0392 18.3904 78.2503 18.0568 78.4024 17.6767C78.5544 17.2966 78.6769 16.9461 78.7698 16.6252C78.8627 16.3042 78.9092 16.0719 78.9092 15.9283C78.9092 15.7341 78.8754 15.5652 78.8078 15.4216C78.7402 15.278 78.6642 15.1682 78.5798 15.0922C78.4953 15.0161 78.4193 14.9401 78.3517 14.8641C78.2841 14.7881 78.2503 14.6952 78.2503 14.5854C78.2503 14.3996 78.3306 14.2264 78.4911 14.0659C78.6515 13.9055 78.8247 13.8252 79.0105 13.8252C79.171 13.8252 79.3146 13.9012 79.4413 14.0533C79.568 14.2053 79.6355 14.4502 79.644 14.7881C79.644 15.0161 79.5933 15.3667 79.492 15.8397C79.3906 16.3127 79.2343 16.8405 79.0232 17.4233C78.812 18.0061 78.5122 18.5087 78.1237 18.931C77.7351 19.3533 77.2875 19.5687 76.7807 19.5771C76.2401 19.5771 75.8094 19.4378 75.4884 19.1591C75.1759 18.8888 75.0196 18.4876 75.0196 17.9555C75.0196 17.6936 75.0534 17.4233 75.121 17.1446C75.1886 16.8659 75.3617 16.3718 75.6404 15.6623C75.8263 15.1217 75.9192 14.7754 75.9192 14.6234Z" fill="#22661E"/>
<path d="M80.92 20.8098C80.92 21.0068 80.9947 21.1054 81.144 21.1054C81.3649 21.1054 81.553 20.7919 81.7083 20.1648C81.7441 20.0454 81.774 19.9827 81.7978 19.9767C81.8098 19.9708 81.8396 19.9678 81.8874 19.9678H81.9232C81.977 19.9678 82.0128 19.9678 82.0307 19.9678C82.0486 19.9678 82.0636 19.9738 82.0755 19.9857C82.0875 19.9976 82.0934 20.0185 82.0934 20.0484C82.0875 20.0842 82.0785 20.132 82.0666 20.1917C82.0546 20.2514 82.0218 20.3649 81.968 20.5321C81.9143 20.6993 81.8546 20.8396 81.7889 20.9531C81.7232 21.0665 81.6306 21.177 81.5112 21.2845C81.3918 21.392 81.2544 21.4428 81.0992 21.4368C80.8842 21.4368 80.6842 21.3711 80.499 21.2397C80.3139 21.1083 80.2184 20.8874 80.2124 20.5769C80.2124 20.5052 80.2154 20.4545 80.2214 20.4246L80.8036 18.1136C81.1798 16.5909 81.3679 15.8056 81.3679 15.7579C81.3679 15.7399 81.3649 15.725 81.3589 15.7131C81.353 15.7011 81.341 15.6892 81.3231 15.6772C81.3052 15.6653 81.2903 15.6593 81.2783 15.6593C81.2664 15.6593 81.2425 15.6563 81.2067 15.6504C81.1708 15.6444 81.1469 15.6414 81.135 15.6414C81.1231 15.6414 81.0962 15.6384 81.0544 15.6325C81.0126 15.6265 80.9827 15.6265 80.9648 15.6325C80.9051 15.6325 80.8663 15.6325 80.8484 15.6325C80.8305 15.6325 80.8066 15.6295 80.7767 15.6235C80.7469 15.6175 80.7289 15.6086 80.723 15.5966C80.717 15.5847 80.714 15.5668 80.714 15.5429C80.714 15.5309 80.72 15.4891 80.7319 15.4175C80.7618 15.304 80.7946 15.2413 80.8305 15.2294C80.8663 15.2174 81.0813 15.1995 81.4754 15.1756C81.565 15.1697 81.6665 15.1637 81.7799 15.1577C81.8934 15.1517 81.983 15.1428 82.0486 15.1308C82.1143 15.1189 82.1472 15.1159 82.1472 15.1219C82.2188 15.1219 82.2547 15.1458 82.2547 15.1935C82.2547 15.2592 82.0367 16.155 81.6008 17.8807C81.1649 19.6065 80.9409 20.5112 80.929 20.5948C80.929 20.6067 80.929 20.6306 80.929 20.6665C80.929 20.7023 80.926 20.7321 80.92 20.756V20.8098Z" fill="#22661E"/>
<path d="M83.4536 10.4423V9.93553H85.1893V22.605H83.4536V22.0982H84.6826V10.4423H83.4536Z" fill="#22661E"/>
</svg>
