<svg width="230" height="130" viewBox="0 0 230 130" fill="none" xmlns="http://www.w3.org/2000/svg">
<path d="M15 115L215 115" stroke="#B33535" stroke-width="4"/>
<path d="M15 115L115 15" stroke="#3BB335" stroke-width="4"/>
<path d="M215 115L115 15" stroke="#3BB335" stroke-width="4"/>
<circle cx="15" cy="115" r="14" fill="white" stroke="black" stroke-width="2"/>
<path d="M16.5517 111.177C16.5517 110.07 15.9897 110 15.8492 110C15.4277 110 15.0414 110.421 15.0414 110.773C15.0414 110.983 15.1643 111.106 15.2345 111.177C15.4102 111.335 15.8668 111.809 15.8668 112.722C15.8668 113.46 14.8131 117.569 12.7056 117.569C11.6343 117.569 11.4236 116.674 11.4236 116.024C11.4236 115.146 11.8275 113.916 12.3017 112.652C12.5827 111.932 12.6529 111.756 12.6529 111.405C12.6529 110.667 12.1261 110 11.2655 110C9.6498 110 9 112.547 9 112.687C9 112.757 9.07025 112.845 9.19318 112.845C9.35124 112.845 9.3688 112.775 9.43905 112.529C9.86054 111.019 10.5455 110.351 11.2128 110.351C11.3709 110.351 11.6694 110.351 11.6694 110.931C11.6694 111.387 11.4763 111.897 11.2128 112.564C10.3698 114.812 10.3698 115.356 10.3698 115.778C10.3698 116.164 10.4225 116.884 10.967 117.376C11.5992 117.921 12.4773 117.921 12.6354 117.921C15.5507 117.921 16.5517 112.178 16.5517 111.177Z" fill="black"/>
<path d="M20.2972 113.073C20.2972 112.816 20.1099 112.628 19.8406 112.628C19.5362 112.628 19.1966 112.909 19.1966 113.261C19.1966 113.518 19.3839 113.706 19.6532 113.706C19.9577 113.706 20.2972 113.425 20.2972 113.073ZM18.5878 117.37L17.9556 118.986C17.897 119.162 17.8385 119.302 17.8385 119.501C17.8385 120.075 18.2834 120.496 18.9039 120.496C20.0396 120.496 20.5196 118.857 20.5196 118.705C20.5196 118.588 20.426 118.553 20.344 118.553C20.2035 118.553 20.1801 118.635 20.145 118.752C19.8757 119.688 19.3957 120.168 18.9273 120.168C18.7868 120.168 18.6464 120.11 18.6464 119.794C18.6464 119.513 18.7283 119.302 18.8805 118.939C18.9976 118.623 19.1147 118.307 19.2435 117.991L19.6064 117.042C19.7118 116.773 19.8523 116.41 19.8523 116.211C19.8523 115.626 19.3839 115.216 18.7868 115.216C17.6512 115.216 17.1594 116.855 17.1594 117.007C17.1594 117.113 17.2414 117.159 17.335 117.159C17.4873 117.159 17.499 117.089 17.5341 116.972C17.8619 115.86 18.4005 115.544 18.7517 115.544C18.9156 115.544 19.0327 115.602 19.0327 115.93C19.0327 116.047 19.021 116.211 18.9039 116.562L18.5878 117.37Z" fill="black"/>
<circle cx="115" cy="15" r="14" fill="white" stroke="black" stroke-width="2"/>
<path d="M116.552 11.1767C116.552 10.0702 115.99 10 115.849 10C115.428 10 115.041 10.4215 115.041 10.7727C115.041 10.9835 115.164 11.1064 115.235 11.1767C115.41 11.3347 115.867 11.8089 115.867 12.7221C115.867 13.4597 114.813 17.5693 112.706 17.5693C111.634 17.5693 111.424 16.6736 111.424 16.0238C111.424 15.1457 111.827 13.9163 112.302 12.6519C112.583 11.9318 112.653 11.7562 112.653 11.405C112.653 10.6674 112.126 10 111.266 10C109.65 10 109 12.5465 109 12.687C109 12.7572 109.07 12.8451 109.193 12.8451C109.351 12.8451 109.369 12.7748 109.439 12.529C109.861 11.0186 110.545 10.3512 111.213 10.3512C111.371 10.3512 111.669 10.3512 111.669 10.9308C111.669 11.3874 111.476 11.8967 111.213 12.5641C110.37 14.812 110.37 15.3564 110.37 15.7779C110.37 16.1643 110.423 16.8843 110.967 17.3761C111.599 17.9205 112.477 17.9205 112.635 17.9205C115.551 17.9205 116.552 12.1777 116.552 11.1767Z" fill="black"/>
<path d="M119.876 12.6052C119.887 12.5817 119.923 12.4295 119.923 12.4178C119.923 12.3593 119.876 12.2539 119.735 12.2539L118.553 12.3476C118.12 12.3827 118.026 12.3944 118.026 12.6052C118.026 12.7691 118.19 12.7691 118.33 12.7691C118.892 12.7691 118.892 12.8393 118.892 12.9447C118.892 12.9798 118.892 13.0032 118.834 13.214L117.382 19.0212C117.335 19.2085 117.335 19.3841 117.335 19.3958C117.335 20.1217 117.932 20.4964 118.518 20.4964C119.021 20.4964 119.29 20.0983 119.419 19.8407C119.63 19.4544 119.805 18.7636 119.805 18.705C119.805 18.6348 119.77 18.5528 119.618 18.5528C119.513 18.5528 119.478 18.6114 119.478 18.6231C119.454 18.6582 119.396 18.869 119.361 18.9978C119.185 19.6768 118.963 20.1686 118.541 20.1686C118.26 20.1686 118.178 19.8993 118.178 19.6183C118.178 19.3958 118.213 19.267 118.248 19.1148L119.876 12.6052Z" fill="black"/>
<circle cx="215" cy="115" r="14" fill="white" stroke="black" stroke-width="2"/>
<path d="M216.552 111.177C216.552 110.07 215.99 110 215.849 110C215.428 110 215.041 110.421 215.041 110.773C215.041 110.983 215.164 111.106 215.235 111.177C215.41 111.335 215.867 111.809 215.867 112.722C215.867 113.46 214.813 117.569 212.706 117.569C211.634 117.569 211.424 116.674 211.424 116.024C211.424 115.146 211.827 113.916 212.302 112.652C212.583 111.932 212.653 111.756 212.653 111.405C212.653 110.667 212.126 110 211.266 110C209.65 110 209 112.547 209 112.687C209 112.757 209.07 112.845 209.193 112.845C209.351 112.845 209.369 112.775 209.439 112.529C209.861 111.019 210.545 110.351 211.213 110.351C211.371 110.351 211.669 110.351 211.669 110.931C211.669 111.387 211.476 111.897 211.213 112.564C210.37 114.812 210.37 115.356 210.37 115.778C210.37 116.164 210.423 116.884 210.967 117.376C211.599 117.921 212.477 117.921 212.635 117.921C215.551 117.921 216.552 112.178 216.552 111.177Z" fill="black"/>
<path d="M221.644 113.073C221.644 112.851 221.468 112.628 221.187 112.628C220.836 112.628 220.531 112.956 220.531 113.261C220.531 113.483 220.707 113.706 220.988 113.706C221.339 113.706 221.644 113.378 221.644 113.073ZM219.197 120.965C219.021 121.679 218.447 122.44 217.733 122.44C217.546 122.44 217.37 122.393 217.347 122.381C217.71 122.206 217.757 121.889 217.757 121.784C217.757 121.503 217.546 121.351 217.3 121.351C216.96 121.351 216.644 121.644 216.644 122.03C216.644 122.475 217.077 122.768 217.745 122.768C218.459 122.768 219.747 122.323 220.098 120.918L221.152 116.726C221.187 116.586 221.21 116.492 221.21 116.316C221.21 115.673 220.695 115.216 220.016 115.216C218.775 115.216 218.049 116.855 218.049 117.007C218.049 117.113 218.131 117.159 218.225 117.159C218.354 117.159 218.365 117.124 218.447 116.949C218.799 116.141 219.396 115.544 219.981 115.544C220.227 115.544 220.367 115.708 220.367 116.094C220.367 116.258 220.332 116.422 220.297 116.586L219.197 120.965Z" fill="black"/>
<path d="M114.5 100L117.387 95H111.613L114.5 100ZM91 66.5C91.8714 66.5 92.7313 66.5484 93.5771 66.6427L93.6879 65.6489C92.8053 65.5505 91.9085 65.5 91 65.5L91 66.5ZM95.6154 66.9631C97.3249 67.3113 98.9655 67.8491 100.514 68.5537L100.928 67.6435C99.3118 66.9081 97.5993 66.3467 95.8149 65.9832L95.6154 66.9631ZM102.352 69.4921C103.854 70.3462 105.251 71.3646 106.517 72.5229L107.192 71.785C105.871 70.5766 104.414 69.5141 102.847 68.6228L102.352 69.4921ZM107.977 73.9826C109.135 75.2492 110.154 76.6458 111.008 78.1477L111.877 77.6534C110.986 76.0861 109.923 74.6291 108.715 73.3078L107.977 73.9826ZM111.946 79.9858C112.651 81.5345 113.189 83.1751 113.537 84.8846L114.517 84.685C114.153 82.9006 113.592 81.1882 112.856 79.5717L111.946 79.9858ZM113.857 86.9228C113.952 87.7687 114 88.6286 114 89.4999H115C115 88.5915 114.95 87.6946 114.851 86.812L113.857 86.9228ZM114 89.4999V91.375H115V89.4999H114ZM114 92.875V96.625H115V92.875H114Z" fill="black"/>
<path d="M114.5 100L111.613 95H117.387L114.5 100ZM138 66.5C137.129 66.5 136.269 66.5484 135.423 66.6427L135.312 65.6489C136.195 65.5505 137.092 65.5 138 65.5L138 66.5ZM133.385 66.9631C131.675 67.3113 130.035 67.8491 128.486 68.5537L128.072 67.6435C129.688 66.9081 131.401 66.3467 133.185 65.9832L133.385 66.9631ZM126.648 69.4921C125.146 70.3462 123.749 71.3646 122.483 72.5229L121.808 71.785C123.129 70.5766 124.586 69.5141 126.153 68.6228L126.648 69.4921ZM121.023 73.9826C119.865 75.2492 118.846 76.6458 117.992 78.1477L117.123 77.6534C118.014 76.0861 119.077 74.6291 120.285 73.3078L121.023 73.9826ZM117.054 79.9858C116.349 81.5345 115.811 83.1751 115.463 84.8846L114.483 84.685C114.847 82.9006 115.408 81.1882 116.144 79.5717L117.054 79.9858ZM115.143 86.9228C115.048 87.7687 115 88.6286 115 89.4999H114C114 88.5915 114.05 87.6946 114.149 86.812L115.143 86.9228ZM115 89.4999V91.375H114V89.4999H115ZM115 92.875V96.625H114V92.875H115Z" fill="black"/>
<rect x="90" y="104" width="51" height="22" fill="white"/>
<rect x="152" y="55" width="26" height="19" fill="white"/>
<rect x="50" y="55" width="28" height="20" fill="white"/>
<path d="M41 69.3371C41 69.2104 41.0253 69.0964 41.076 68.995C41.076 68.9866 42.1952 67.7238 44.4336 65.2067C46.6719 62.6896 47.7996 61.4184 47.8165 61.393L47.6898 61.3677C47.5968 61.3677 47.2843 61.3677 46.7522 61.3677H46.6001H46.2961C46.0089 61.3677 45.7724 61.3761 45.5865 61.393C45.4007 61.4099 45.1684 61.4564 44.8897 61.5324C44.6109 61.6084 44.3829 61.7182 44.2055 61.8618C44.0281 62.0054 43.8381 62.2166 43.6354 62.4953C43.4326 62.7741 43.2722 63.1077 43.1539 63.4962C43.1455 63.5216 43.137 63.5469 43.1286 63.5723C43.1201 63.5976 43.1117 63.6187 43.1032 63.6356C43.0948 63.6525 43.0905 63.6736 43.0905 63.699C43.0905 63.7243 43.0863 63.737 43.0779 63.737L43.0652 63.7623C43.0399 63.8046 42.9596 63.8257 42.8245 63.8257C42.6809 63.8257 42.5964 63.7834 42.5711 63.699L42.9765 62.3306C43.0948 61.9505 43.2088 61.5704 43.3186 61.1903C43.3862 60.9538 43.4369 60.8271 43.4706 60.8102C43.496 60.7933 44.4842 60.7849 46.4354 60.7849H49.3622C49.4044 60.8271 49.4255 60.8609 49.4255 60.8862C49.4255 60.9031 49.4002 61.0129 49.3495 61.2157C44.8897 66.2414 42.6555 68.7627 42.6471 68.7796L42.6091 68.8176H43.7367C44.5392 68.8092 44.9742 68.8008 45.0417 68.7923C45.6752 68.7163 46.1947 68.5093 46.6001 68.1715C47.0056 67.8336 47.3392 67.2128 47.6011 66.309C47.6686 66.0978 47.7151 65.9711 47.7404 65.9289C47.7658 65.8867 47.8207 65.8655 47.9051 65.8655H47.9558C48.1332 65.8655 48.2219 65.912 48.2219 66.0049C47.5377 68.2517 47.1703 69.3878 47.1196 69.4131C47.0943 69.43 46.0764 69.4385 44.0661 69.4385H41.8362C41.2787 69.4385 41 69.4047 41 69.3371Z" fill="#22661E"/>
<path d="M49.7607 60.4789C49.7607 60.0669 49.7906 59.6757 49.8503 59.3055C49.91 58.9352 49.9787 58.6157 50.0563 58.347C50.134 58.0783 50.2445 57.8155 50.3878 57.5587C50.5311 57.3019 50.6446 57.1019 50.7282 56.9586C50.8118 56.8152 50.9372 56.66 51.1044 56.4928C51.2716 56.3255 51.3701 56.224 51.4 56.1882C51.4299 56.1524 51.5045 56.0897 51.6239 56.0001H51.7404H51.7762C51.8598 56.0001 51.9016 56.027 51.9016 56.0807C51.9016 56.0986 51.8509 56.1613 51.7493 56.2688C51.6478 56.3763 51.5254 56.5346 51.3821 56.7436C51.2388 56.9526 51.0925 57.2094 50.9432 57.5139C50.7939 57.8185 50.6685 58.2305 50.5669 58.7501C50.4654 59.2696 50.4147 59.8459 50.4147 60.4789C50.4147 61.1119 50.4654 61.6852 50.5669 62.1988C50.6685 62.7124 50.7909 63.1274 50.9342 63.4439C51.0775 63.7604 51.2238 64.0172 51.3731 64.2143C51.5224 64.4113 51.6478 64.5696 51.7493 64.689C51.8509 64.8085 51.9016 64.8712 51.9016 64.8771C51.9016 64.9309 51.8568 64.9578 51.7673 64.9578H51.7404H51.6239L51.3731 64.7428C50.8118 64.2352 50.4027 63.6022 50.1459 62.8437C49.8891 62.0853 49.7607 61.2971 49.7607 60.4789Z" fill="#22661E"/>
<path d="M52.6362 59.2694C52.5944 59.2276 52.5735 59.1977 52.5735 59.1798C52.5735 59.1559 52.5824 59.1082 52.6004 59.0365C52.6183 58.9648 52.6332 58.923 52.6451 58.9111C52.6571 58.8812 52.684 58.8663 52.7258 58.8663C52.7676 58.8663 52.9199 58.8633 53.1826 58.8574H53.6574L53.8276 58.1407C53.8455 58.075 53.8664 57.9885 53.8903 57.881C53.9142 57.7735 53.9351 57.6958 53.953 57.6481C53.9709 57.6003 53.9888 57.5406 54.0067 57.4689C54.0246 57.3973 54.0485 57.3465 54.0784 57.3166C54.1082 57.2868 54.1381 57.2509 54.168 57.2091C54.1978 57.1673 54.2396 57.1405 54.2934 57.1285C54.3471 57.1166 54.4009 57.1106 54.4546 57.1106C54.5621 57.1166 54.6367 57.1494 54.6785 57.2091C54.7203 57.2689 54.7412 57.3256 54.7412 57.3793C54.7412 57.4211 54.7144 57.5615 54.6606 57.8003C54.6069 58.0392 54.5472 58.2751 54.4815 58.508L54.3919 58.8394C54.3919 58.8514 54.5412 58.8574 54.8398 58.8574H55.2966C55.3384 58.8992 55.3593 58.932 55.3593 58.9559C55.3593 59.0873 55.3205 59.1918 55.2429 59.2694H54.2844L53.9619 60.5683C53.729 61.5238 53.6126 62.0373 53.6126 62.109C53.6126 62.3598 53.6932 62.4852 53.8544 62.4852C54.0634 62.4852 54.2665 62.3837 54.4636 62.1807C54.6606 61.9776 54.8189 61.7268 54.9383 61.4282C54.9503 61.3924 54.9652 61.3715 54.9831 61.3655C55.001 61.3595 55.0458 61.3536 55.1175 61.3476H55.1533C55.2429 61.3476 55.2877 61.3715 55.2877 61.4193C55.2877 61.4372 55.2787 61.473 55.2608 61.5267C55.2309 61.6223 55.1772 61.7358 55.0996 61.8671C55.0219 61.9985 54.9204 62.1389 54.795 62.2881C54.6696 62.4374 54.5173 62.5628 54.3382 62.6644C54.159 62.7659 53.9769 62.8167 53.7917 62.8167C53.6126 62.8167 53.4424 62.7719 53.2811 62.6823C53.1199 62.5927 53.0035 62.4374 52.9318 62.2165C52.9199 62.1687 52.9139 62.0881 52.9139 61.9746V61.8134L53.2274 60.5593C53.4364 59.7173 53.5439 59.2933 53.5499 59.2873C53.5499 59.2754 53.3976 59.2694 53.093 59.2694H52.6362Z" fill="#22661E"/>
<path d="M56.3894 60.5953C56.3894 60.5953 56.3894 60.5564 56.3894 60.4788C56.3894 60.4012 56.4312 60.3415 56.5148 60.2997H61.7192C61.8088 60.3474 61.8536 60.4071 61.8536 60.4788C61.8536 60.5505 61.8088 60.6102 61.7192 60.658H56.5148C56.4312 60.6162 56.3894 60.5564 56.3894 60.4788V60.5953Z" fill="#22661E"/>
<path d="M64.5141 57.5407L64.3977 57.5855C64.3141 57.6154 64.1946 57.6452 64.0394 57.6751C63.8841 57.7049 63.7109 57.7258 63.5198 57.7378H63.3496V57.3257H63.5198C63.8005 57.3138 64.0603 57.269 64.2991 57.1914C64.538 57.1137 64.7052 57.0421 64.8008 56.9764C64.8963 56.9107 64.9799 56.845 65.0516 56.7793C65.0635 56.7614 65.0993 56.7524 65.1591 56.7524C65.2128 56.7524 65.2636 56.7704 65.3113 56.8062V59.4845L65.3203 62.1718C65.3621 62.2136 65.3979 62.2405 65.4278 62.2525C65.4577 62.2644 65.5293 62.2763 65.6428 62.2883C65.7562 62.3002 65.9414 62.3062 66.1982 62.3062H66.4311V62.7183H66.3325C66.2071 62.7003 65.7324 62.6914 64.9082 62.6914C64.0961 62.6914 63.6273 62.7003 63.5019 62.7183H63.3944V62.3062H63.6273C63.7587 62.3062 63.8721 62.3062 63.9677 62.3062C64.0632 62.3062 64.1379 62.3032 64.1916 62.2973C64.2454 62.2913 64.2932 62.2823 64.335 62.2704C64.3768 62.2584 64.4006 62.2525 64.4066 62.2525C64.4126 62.2525 64.4305 62.2375 64.4604 62.2077C64.4902 62.1778 64.5081 62.1659 64.5141 62.1718V57.5407Z" fill="#22661E"/>
<path d="M67.6224 56.009L67.6583 56.0001C67.6881 56.0001 67.718 56.0001 67.7478 56.0001H67.8553L68.1061 56.2151C68.6675 56.7227 69.0766 57.3557 69.3333 58.1141C69.5901 58.8725 69.7185 59.6608 69.7185 60.4789C69.7185 60.885 69.6887 61.2762 69.6289 61.6524C69.5692 62.0286 69.5006 62.3481 69.4229 62.6108C69.3453 62.8736 69.2348 63.1364 69.0915 63.3991C68.9482 63.6619 68.8347 63.8619 68.7511 63.9993C68.6675 64.1366 68.5451 64.2889 68.3838 64.4561C68.2226 64.6233 68.127 64.7219 68.0972 64.7517C68.0673 64.7816 67.9986 64.8383 67.8912 64.9219C67.8732 64.9398 67.8613 64.9518 67.8553 64.9578H67.7478C67.7001 64.9578 67.6672 64.9578 67.6493 64.9578C67.6314 64.9578 67.6165 64.9488 67.6045 64.9309C67.5926 64.913 67.5836 64.8861 67.5776 64.8503C67.5836 64.8443 67.6165 64.8055 67.6762 64.7338C68.6018 63.7724 69.0646 62.3541 69.0646 60.4789C69.0646 58.6038 68.6018 57.1855 67.6762 56.224C67.6165 56.1524 67.5836 56.1135 67.5776 56.1076C67.5776 56.0598 67.5926 56.027 67.6224 56.009Z" fill="#22661E"/>
<path d="M49.3666 71.2975C49.3666 70.6108 49.5667 69.9509 49.9668 69.3179C50.3669 68.6849 50.8715 68.1833 51.4807 67.813C52.0898 67.4428 52.6989 67.2546 53.308 67.2487C53.8455 67.2487 54.2725 67.401 54.589 67.7055C54.6427 67.7652 54.6875 67.816 54.7233 67.8578C54.7592 67.8996 54.7831 67.9295 54.795 67.9474L54.804 67.9742C54.8219 67.9742 54.9025 67.8966 55.0458 67.7413C55.0876 67.7055 55.1324 67.6637 55.1802 67.6159C55.228 67.5682 55.2757 67.5204 55.3235 67.4726C55.3713 67.4248 55.4011 67.392 55.4131 67.3741L55.5474 67.2397H55.6012C55.6848 67.2397 55.7266 67.2606 55.7266 67.3024C55.7266 67.3263 55.631 67.7354 55.4399 68.5296C55.225 69.3597 55.1175 69.7777 55.1175 69.7837C55.1055 69.8136 55.0906 69.8315 55.0727 69.8374C55.0548 69.8434 55.001 69.8494 54.9114 69.8554H54.7681C54.7323 69.8195 54.7144 69.7927 54.7144 69.7747C54.7144 69.7688 54.7174 69.7479 54.7233 69.712C54.7293 69.6762 54.7353 69.6165 54.7412 69.5329C54.7472 69.4493 54.7502 69.3537 54.7502 69.2462C54.7502 68.8222 54.6547 68.452 54.4636 68.1355C54.2725 67.819 53.947 67.6577 53.4872 67.6518C53.3797 67.6518 53.2632 67.6607 53.1378 67.6786C53.0124 67.6966 52.8542 67.7354 52.6631 67.7951C52.472 67.8548 52.2898 67.9384 52.1166 68.0459C51.9435 68.1534 51.7554 68.2967 51.5523 68.4759C51.3493 68.655 51.1761 68.867 51.0328 69.1119C50.8894 69.3567 50.7491 69.6613 50.6118 70.0256C50.4744 70.3898 50.3818 70.7899 50.3341 71.2259C50.3221 71.3334 50.3162 71.4498 50.3162 71.5752C50.3162 71.8619 50.358 72.1157 50.4416 72.3366C50.5252 72.5576 50.6327 72.7278 50.764 72.8472C50.8954 72.9667 51.0447 73.0682 51.2119 73.1518C51.3791 73.2354 51.5344 73.2862 51.6777 73.3041C51.821 73.322 51.9554 73.3339 52.0808 73.3399C52.4033 73.3399 52.6989 73.2712 52.9676 73.1339C53.2364 72.9965 53.4215 72.8204 53.523 72.6054C53.5409 72.5576 53.5857 72.3934 53.6574 72.1127C53.729 71.832 53.7649 71.6738 53.7649 71.6379C53.7649 71.5902 53.726 71.5603 53.6484 71.5484C53.5708 71.5364 53.3916 71.5275 53.111 71.5215H52.7795C52.7437 71.4857 52.7258 71.4618 52.7258 71.4498C52.7258 71.4379 52.7317 71.3812 52.7437 71.2796C52.7676 71.202 52.7974 71.1453 52.8333 71.1094H52.9855C53.2244 71.1214 53.6424 71.1274 54.2396 71.1274C54.4785 71.1274 54.6726 71.1274 54.8219 71.1274C54.9712 71.1274 55.0787 71.1244 55.1443 71.1184C55.21 71.1124 55.2459 71.1124 55.2518 71.1184C55.3354 71.1184 55.3772 71.1453 55.3772 71.199C55.3772 71.211 55.3713 71.2528 55.3593 71.3244C55.3295 71.4379 55.2996 71.5006 55.2698 71.5125C55.2518 71.5185 55.207 71.5215 55.1354 71.5215C55.016 71.5215 54.8935 71.5304 54.7681 71.5484C54.7263 71.5663 54.6965 71.5932 54.6785 71.629C54.6606 71.6648 54.6188 71.8171 54.5531 72.0858C54.4994 72.2829 54.4546 72.4501 54.4188 72.5875C54.2695 73.1966 54.1859 73.5101 54.168 73.528C54.156 73.54 54.1411 73.5459 54.1232 73.5459C54.0635 73.5459 53.9798 73.4862 53.8724 73.3668C53.7649 73.2473 53.6962 73.1548 53.6663 73.0891C53.6663 73.0831 53.6604 73.0831 53.6484 73.0891C53.6365 73.0951 53.6186 73.11 53.5947 73.1339C53.1528 73.5459 52.5556 73.752 51.8031 73.752C51.0805 73.752 50.4953 73.522 50.0474 73.0622C49.5995 72.6024 49.3726 72.0142 49.3666 71.2975Z" fill="#22661E"/>
<path d="M72.7015 72.606V59.936H74.4373V60.4428H73.2083V72.0992H74.4373V72.606H72.7015Z" fill="#22661E"/>
<path d="M75.2229 67.3097C75.2229 66.8282 75.3031 66.389 75.4636 65.992C75.6241 65.595 75.8311 65.2656 76.0845 65.0038C76.3379 64.7419 76.6208 64.5223 76.9333 64.3449C77.2459 64.1675 77.5415 64.0366 77.8202 63.9522C78.099 63.8677 78.3651 63.8297 78.6185 63.8381H78.6565C79.0366 63.8381 79.366 63.931 79.6447 64.1169C79.9235 64.3027 80.0628 64.5772 80.0628 64.9404C80.0628 65.7006 79.594 66.199 78.6565 66.4355C78.2426 66.5453 77.6767 66.6044 76.9587 66.6129C76.6462 66.6129 76.4857 66.6213 76.4772 66.6382C76.4772 66.6551 76.4519 66.8029 76.4012 67.0816C76.3505 67.3604 76.321 67.6053 76.3125 67.8165C76.3125 68.2135 76.4012 68.526 76.5786 68.7541C76.756 68.9821 77.022 69.1004 77.3768 69.1088C77.7316 69.1173 78.1243 69.0371 78.5551 68.8681C78.9859 68.6992 79.3744 68.4204 79.7207 68.0319C79.7968 67.9474 79.8474 67.9052 79.8728 67.9052C79.9066 67.9052 79.9615 67.9432 80.0375 68.0192C80.1135 68.0952 80.1558 68.1544 80.1642 68.1966C80.1726 68.2388 80.1346 68.3064 80.0502 68.3993C79.9657 68.4922 79.839 68.6063 79.6701 68.7414C79.5011 68.8766 79.3069 69.0075 79.0872 69.1342C78.8676 69.2609 78.6016 69.3665 78.289 69.4509C77.9765 69.5354 77.6555 69.5776 77.3261 69.5776C76.6588 69.5776 76.1436 69.3538 75.7804 68.9061C75.4172 68.4585 75.2313 67.9263 75.2229 67.3097ZM79.4547 64.9658C79.404 64.5265 79.1168 64.3069 78.5931 64.3069C78.3144 64.3069 78.0568 64.366 77.8202 64.4843C77.5837 64.6026 77.3937 64.7461 77.2501 64.9151C77.1065 65.084 76.984 65.2572 76.8827 65.4345C76.7813 65.6119 76.7137 65.764 76.6799 65.8907C76.6462 66.0174 76.625 66.0976 76.6166 66.1314C76.6166 66.1398 76.7011 66.1441 76.87 66.1441C77.8245 66.1441 78.4918 66.0427 78.8719 65.84C79.252 65.6373 79.4462 65.3459 79.4547 64.9658Z" fill="#22661E"/>
<path d="M82.2811 65.9639C82.2811 65.8205 82.3379 65.6951 82.4513 65.5876C82.5648 65.4802 82.6962 65.4234 82.8455 65.4174C82.953 65.4174 83.0426 65.4533 83.1142 65.5249C83.1859 65.5966 83.2247 65.6862 83.2307 65.7937C83.2307 65.931 83.1709 66.0564 83.0515 66.1699C82.9321 66.2834 82.8007 66.3431 82.6574 66.349C82.5678 66.349 82.4842 66.3192 82.4066 66.2595C82.3289 66.1998 82.2871 66.1012 82.2811 65.9639ZM80.821 68.7676C80.821 68.7198 80.8479 68.6273 80.9017 68.4899C80.9554 68.3526 81.0271 68.2003 81.1166 68.0331C81.2062 67.8659 81.3376 67.7136 81.5108 67.5762C81.684 67.4389 81.8631 67.3732 82.0482 67.3792C82.2811 67.3792 82.4752 67.4479 82.6305 67.5852C82.7858 67.7226 82.8664 67.9077 82.8724 68.1406C82.8724 68.2421 82.8306 68.4093 82.7469 68.6422C82.6633 68.8751 82.5439 69.1886 82.3886 69.5828C82.2334 69.9769 82.108 70.3143 82.0124 70.595C81.9826 70.7264 81.9676 70.8219 81.9676 70.8816C81.9676 71.0309 82.0184 71.1056 82.1199 71.1056C82.1737 71.1056 82.2304 71.0966 82.2901 71.0787C82.3498 71.0608 82.4185 71.019 82.4961 70.9533C82.5738 70.8876 82.6544 70.7831 82.738 70.6398C82.8216 70.4965 82.8962 70.3203 82.9619 70.1113C82.9798 70.0396 82.9948 69.9978 83.0067 69.9859C83.0187 69.9739 83.0694 69.968 83.159 69.968C83.2784 69.968 83.3382 69.9978 83.3382 70.0575C83.3382 70.1053 83.3113 70.1979 83.2575 70.3352C83.2038 70.4726 83.1291 70.6248 83.0336 70.7921C82.938 70.9593 82.8037 71.1086 82.6305 71.2399C82.4573 71.3713 82.2722 71.437 82.0751 71.437C81.884 71.437 81.7079 71.3743 81.5466 71.2489C81.3854 71.1235 81.3018 70.9324 81.2958 70.6756C81.2958 70.5741 81.3107 70.4785 81.3406 70.389C81.3704 70.2994 81.4988 69.959 81.7258 69.3678C81.9527 68.7646 82.0841 68.4033 82.1199 68.2839C82.1557 68.1645 82.1766 68.048 82.1826 67.9346C82.1826 67.7912 82.1319 67.7196 82.0303 67.7196H82.0124C81.8333 67.7196 81.669 67.8181 81.5197 68.0152C81.3704 68.2122 81.257 68.4631 81.1794 68.7676C81.1734 68.7736 81.1674 68.7826 81.1614 68.7945C81.1555 68.8064 81.1525 68.8154 81.1525 68.8214C81.1525 68.8273 81.1465 68.8333 81.1346 68.8393C81.1226 68.8453 81.1137 68.8482 81.1077 68.8482C81.1017 68.8482 81.0898 68.8482 81.0719 68.8482C81.0539 68.8482 81.0301 68.8482 81.0002 68.8482H80.8748C80.839 68.8124 80.821 68.7855 80.821 68.7676Z" fill="#22661E"/>
<path d="M84.7714 70.8102C84.7714 71.0073 84.846 71.1058 84.9953 71.1058C85.2163 71.1058 85.4044 70.7923 85.5597 70.1653C85.5955 70.0458 85.6253 69.9831 85.6492 69.9772C85.6612 69.9712 85.691 69.9682 85.7388 69.9682H85.7746C85.8284 69.9682 85.8642 69.9682 85.8821 69.9682C85.9 69.9682 85.915 69.9742 85.9269 69.9861C85.9389 69.9981 85.9448 70.019 85.9448 70.0488C85.9389 70.0847 85.9299 70.1324 85.918 70.1922C85.906 70.2519 85.8732 70.3653 85.8194 70.5325C85.7657 70.6998 85.706 70.8401 85.6403 70.9536C85.5746 71.067 85.482 71.1775 85.3626 71.285C85.2431 71.3925 85.1058 71.4432 84.9505 71.4373C84.7355 71.4373 84.5355 71.3716 84.3504 71.2402C84.1652 71.1088 84.0697 70.8879 84.0637 70.5773C84.0637 70.5057 84.0667 70.4549 84.0727 70.4251L84.6549 68.114C85.0312 66.5912 85.2193 65.8059 85.2193 65.7581C85.2193 65.7402 85.2163 65.7253 85.2103 65.7133C85.2043 65.7014 85.1924 65.6894 85.1745 65.6775C85.1566 65.6655 85.1416 65.6596 85.1297 65.6596C85.1177 65.6596 85.0939 65.6566 85.058 65.6506C85.0222 65.6446 84.9983 65.6417 84.9864 65.6417C84.9744 65.6417 84.9475 65.6387 84.9057 65.6327C84.8639 65.6267 84.8341 65.6267 84.8162 65.6327C84.7564 65.6327 84.7176 65.6327 84.6997 65.6327C84.6818 65.6327 84.6579 65.6297 84.6281 65.6237C84.5982 65.6178 84.5803 65.6088 84.5743 65.5969C84.5683 65.5849 84.5654 65.567 84.5654 65.5431C84.5654 65.5312 84.5713 65.4894 84.5833 65.4177C84.6131 65.3042 84.646 65.2415 84.6818 65.2296C84.7176 65.2177 84.9326 65.1997 85.3268 65.1759C85.4163 65.1699 85.5179 65.1639 85.6313 65.1579C85.7448 65.152 85.8344 65.143 85.9 65.1311C85.9657 65.1191 85.9986 65.1161 85.9986 65.1221C86.0702 65.1221 86.1061 65.146 86.1061 65.1938C86.1061 65.2595 85.8881 66.1552 85.4522 67.8811C85.0162 69.6069 84.7923 70.5116 84.7803 70.5953C84.7803 70.6072 84.7803 70.6311 84.7803 70.6669C84.7803 70.7027 84.7773 70.7326 84.7714 70.7565V70.8102Z" fill="#22661E"/>
<path d="M87.3051 60.4428V59.936H89.0408V72.606H87.3051V72.0992H88.534V60.4428H87.3051Z" fill="#22661E"/>
<path d="M140 69.3371C140 69.2104 140.025 69.0964 140.076 68.995C140.076 68.9866 141.195 67.7238 143.434 65.2067C145.672 62.6896 146.8 61.4184 146.816 61.393L146.69 61.3677C146.597 61.3677 146.284 61.3677 145.752 61.3677H145.6H145.296C145.009 61.3677 144.772 61.3761 144.587 61.393C144.401 61.4099 144.168 61.4564 143.89 61.5324C143.611 61.6084 143.383 61.7182 143.206 61.8618C143.028 62.0054 142.838 62.2166 142.635 62.4953C142.433 62.7741 142.272 63.1077 142.154 63.4962C142.145 63.5216 142.137 63.5469 142.129 63.5723C142.12 63.5976 142.112 63.6187 142.103 63.6356C142.095 63.6525 142.091 63.6736 142.091 63.699C142.091 63.7243 142.086 63.737 142.078 63.737L142.065 63.7623C142.04 63.8046 141.96 63.8257 141.824 63.8257C141.681 63.8257 141.596 63.7834 141.571 63.699L141.977 62.3306C142.095 61.9505 142.209 61.5704 142.319 61.1903C142.386 60.9538 142.437 60.8271 142.471 60.8102C142.496 60.7933 143.484 60.7849 145.435 60.7849H148.362C148.404 60.8271 148.426 60.8609 148.426 60.8862C148.426 60.9031 148.4 61.0129 148.35 61.2157C143.89 66.2414 141.656 68.7627 141.647 68.7796L141.609 68.8176H142.737C143.539 68.8092 143.974 68.8008 144.042 68.7923C144.675 68.7163 145.195 68.5093 145.6 68.1715C146.006 67.8336 146.339 67.2128 146.601 66.309C146.669 66.0978 146.715 65.9711 146.74 65.9289C146.766 65.8867 146.821 65.8655 146.905 65.8655H146.956C147.133 65.8655 147.222 65.912 147.222 66.0049C146.538 68.2517 146.17 69.3878 146.12 69.4131C146.094 69.43 145.076 69.4385 143.066 69.4385H140.836C140.279 69.4385 140 69.4047 140 69.3371Z" fill="#22661E"/>
<path d="M148.761 60.4789C148.761 60.0669 148.791 59.6757 148.85 59.3055C148.91 58.9352 148.979 58.6157 149.056 58.347C149.134 58.0783 149.244 57.8155 149.388 57.5587C149.531 57.3019 149.645 57.1019 149.728 56.9586C149.812 56.8152 149.937 56.66 150.104 56.4928C150.272 56.3255 150.37 56.224 150.4 56.1882C150.43 56.1524 150.505 56.0897 150.624 56.0001H150.74H150.776C150.86 56.0001 150.902 56.027 150.902 56.0807C150.902 56.0986 150.851 56.1613 150.749 56.2688C150.648 56.3763 150.525 56.5346 150.382 56.7436C150.239 56.9526 150.092 57.2094 149.943 57.5139C149.794 57.8185 149.668 58.2305 149.567 58.7501C149.465 59.2696 149.415 59.8459 149.415 60.4789C149.415 61.1119 149.465 61.6852 149.567 62.1988C149.668 62.7124 149.791 63.1274 149.934 63.4439C150.078 63.7604 150.224 64.0172 150.373 64.2143C150.522 64.4113 150.648 64.5696 150.749 64.689C150.851 64.8085 150.902 64.8712 150.902 64.8771C150.902 64.9309 150.857 64.9578 150.767 64.9578H150.74H150.624L150.373 64.7428C149.812 64.2352 149.403 63.6022 149.146 62.8437C148.889 62.0853 148.761 61.2971 148.761 60.4789Z" fill="#22661E"/>
<path d="M151.636 59.2694C151.594 59.2276 151.573 59.1977 151.573 59.1798C151.573 59.1559 151.582 59.1082 151.6 59.0365C151.618 58.9648 151.633 58.923 151.645 58.9111C151.657 58.8812 151.684 58.8663 151.726 58.8663C151.768 58.8663 151.92 58.8633 152.183 58.8574H152.657L152.828 58.1407C152.845 58.075 152.866 57.9885 152.89 57.881C152.914 57.7735 152.935 57.6958 152.953 57.6481C152.971 57.6003 152.989 57.5406 153.007 57.4689C153.025 57.3973 153.049 57.3465 153.078 57.3166C153.108 57.2868 153.138 57.2509 153.168 57.2091C153.198 57.1673 153.24 57.1405 153.293 57.1285C153.347 57.1166 153.401 57.1106 153.455 57.1106C153.562 57.1166 153.637 57.1494 153.679 57.2091C153.72 57.2689 153.741 57.3256 153.741 57.3793C153.741 57.4211 153.714 57.5615 153.661 57.8003C153.607 58.0392 153.547 58.2751 153.481 58.508L153.392 58.8394C153.392 58.8514 153.541 58.8574 153.84 58.8574H154.297C154.338 58.8992 154.359 58.932 154.359 58.9559C154.359 59.0873 154.321 59.1918 154.243 59.2694H153.284L152.962 60.5683C152.729 61.5238 152.613 62.0373 152.613 62.109C152.613 62.3598 152.693 62.4852 152.854 62.4852C153.063 62.4852 153.266 62.3837 153.464 62.1807C153.661 61.9776 153.819 61.7268 153.938 61.4282C153.95 61.3924 153.965 61.3715 153.983 61.3655C154.001 61.3595 154.046 61.3536 154.117 61.3476H154.153C154.243 61.3476 154.288 61.3715 154.288 61.4193C154.288 61.4372 154.279 61.473 154.261 61.5267C154.231 61.6223 154.177 61.7358 154.1 61.8671C154.022 61.9985 153.92 62.1389 153.795 62.2881C153.67 62.4374 153.517 62.5628 153.338 62.6644C153.159 62.7659 152.977 62.8167 152.792 62.8167C152.613 62.8167 152.442 62.7719 152.281 62.6823C152.12 62.5927 152.003 62.4374 151.932 62.2165C151.92 62.1687 151.914 62.0881 151.914 61.9746V61.8134L152.227 60.5593C152.436 59.7173 152.544 59.2933 152.55 59.2873C152.55 59.2754 152.398 59.2694 152.093 59.2694H151.636Z" fill="#22661E"/>
<path d="M155.389 60.5953C155.389 60.5953 155.389 60.5564 155.389 60.4788C155.389 60.4012 155.431 60.3415 155.515 60.2997H160.719C160.809 60.3474 160.854 60.4071 160.854 60.4788C160.854 60.5505 160.809 60.6102 160.719 60.658H155.515C155.431 60.6162 155.389 60.5564 155.389 60.4788V60.5953Z" fill="#22661E"/>
<path d="M163.514 57.5407L163.398 57.5855C163.314 57.6154 163.195 57.6452 163.039 57.6751C162.884 57.7049 162.711 57.7258 162.52 57.7378H162.35V57.3257H162.52C162.8 57.3138 163.06 57.269 163.299 57.1914C163.538 57.1137 163.705 57.0421 163.801 56.9764C163.896 56.9107 163.98 56.845 164.052 56.7793C164.064 56.7614 164.099 56.7524 164.159 56.7524C164.213 56.7524 164.264 56.7704 164.311 56.8062V59.4845L164.32 62.1718C164.362 62.2136 164.398 62.2405 164.428 62.2525C164.458 62.2644 164.529 62.2763 164.643 62.2883C164.756 62.3002 164.941 62.3062 165.198 62.3062H165.431V62.7183H165.333C165.207 62.7003 164.732 62.6914 163.908 62.6914C163.096 62.6914 162.627 62.7003 162.502 62.7183H162.394V62.3062H162.627C162.759 62.3062 162.872 62.3062 162.968 62.3062C163.063 62.3062 163.138 62.3032 163.192 62.2973C163.245 62.2913 163.293 62.2823 163.335 62.2704C163.377 62.2584 163.401 62.2525 163.407 62.2525C163.413 62.2525 163.431 62.2375 163.46 62.2077C163.49 62.1778 163.508 62.1659 163.514 62.1718V57.5407Z" fill="#22661E"/>
<path d="M166.622 56.009L166.658 56.0001C166.688 56.0001 166.718 56.0001 166.748 56.0001H166.855L167.106 56.2151C167.667 56.7227 168.077 57.3557 168.333 58.1141C168.59 58.8725 168.719 59.6608 168.719 60.4789C168.719 60.885 168.689 61.2762 168.629 61.6524C168.569 62.0286 168.501 62.3481 168.423 62.6108C168.345 62.8736 168.235 63.1364 168.091 63.3991C167.948 63.6619 167.835 63.8619 167.751 63.9993C167.667 64.1366 167.545 64.2889 167.384 64.4561C167.223 64.6233 167.127 64.7219 167.097 64.7517C167.067 64.7816 166.999 64.8383 166.891 64.9219C166.873 64.9398 166.861 64.9518 166.855 64.9578H166.748C166.7 64.9578 166.667 64.9578 166.649 64.9578C166.631 64.9578 166.616 64.9488 166.605 64.9309C166.593 64.913 166.584 64.8861 166.578 64.8503C166.584 64.8443 166.616 64.8055 166.676 64.7338C167.602 63.7724 168.065 62.3541 168.065 60.4789C168.065 58.6038 167.602 57.1855 166.676 56.224C166.616 56.1524 166.584 56.1135 166.578 56.1076C166.578 56.0598 166.593 56.027 166.622 56.009Z" fill="#22661E"/>
<path d="M148.367 71.2975C148.367 70.6108 148.567 69.9509 148.967 69.3179C149.367 68.6849 149.871 68.1833 150.481 67.813C151.09 67.4428 151.699 67.2546 152.308 67.2487C152.845 67.2487 153.272 67.401 153.589 67.7055C153.643 67.7652 153.687 67.816 153.723 67.8578C153.759 67.8996 153.783 67.9295 153.795 67.9474L153.804 67.9742C153.822 67.9742 153.902 67.8966 154.046 67.7413C154.088 67.7055 154.132 67.6637 154.18 67.6159C154.228 67.5682 154.276 67.5204 154.323 67.4726C154.371 67.4248 154.401 67.392 154.413 67.3741L154.547 67.2397H154.601C154.685 67.2397 154.727 67.2606 154.727 67.3024C154.727 67.3263 154.631 67.7354 154.44 68.5296C154.225 69.3597 154.117 69.7777 154.117 69.7837C154.105 69.8136 154.091 69.8315 154.073 69.8374C154.055 69.8434 154.001 69.8494 153.911 69.8554H153.768C153.732 69.8195 153.714 69.7927 153.714 69.7747C153.714 69.7688 153.717 69.7479 153.723 69.712C153.729 69.6762 153.735 69.6165 153.741 69.5329C153.747 69.4493 153.75 69.3537 153.75 69.2462C153.75 68.8222 153.655 68.452 153.463 68.1355C153.272 67.819 152.947 67.6577 152.487 67.6518C152.38 67.6518 152.263 67.6607 152.138 67.6786C152.012 67.6966 151.854 67.7354 151.663 67.7951C151.472 67.8548 151.29 67.9384 151.117 68.0459C150.943 68.1534 150.755 68.2967 150.552 68.4759C150.349 68.655 150.176 68.867 150.033 69.1119C149.889 69.3567 149.749 69.6613 149.612 70.0256C149.474 70.3898 149.382 70.7899 149.334 71.2259C149.322 71.3334 149.316 71.4498 149.316 71.5752C149.316 71.8619 149.358 72.1157 149.441 72.3366C149.525 72.5576 149.633 72.7278 149.764 72.8472C149.895 72.9667 150.045 73.0682 150.212 73.1518C150.379 73.2354 150.534 73.2862 150.678 73.3041C150.821 73.322 150.955 73.3339 151.081 73.3399C151.403 73.3399 151.699 73.2712 151.968 73.1339C152.236 72.9965 152.421 72.8204 152.523 72.6054C152.541 72.5576 152.586 72.3934 152.657 72.1127C152.729 71.832 152.765 71.6738 152.765 71.6379C152.765 71.5902 152.726 71.5603 152.648 71.5484C152.571 71.5364 152.392 71.5275 152.111 71.5215H151.779C151.744 71.4857 151.726 71.4618 151.726 71.4498C151.726 71.4379 151.732 71.3812 151.744 71.2796C151.768 71.202 151.797 71.1453 151.833 71.1094H151.985C152.224 71.1214 152.642 71.1274 153.24 71.1274C153.478 71.1274 153.673 71.1274 153.822 71.1274C153.971 71.1274 154.079 71.1244 154.144 71.1184C154.21 71.1124 154.246 71.1124 154.252 71.1184C154.335 71.1184 154.377 71.1453 154.377 71.199C154.377 71.211 154.371 71.2528 154.359 71.3244C154.329 71.4379 154.3 71.5006 154.27 71.5125C154.252 71.5185 154.207 71.5215 154.135 71.5215C154.016 71.5215 153.893 71.5304 153.768 71.5484C153.726 71.5663 153.696 71.5932 153.678 71.629C153.661 71.6648 153.619 71.8171 153.553 72.0858C153.499 72.2829 153.455 72.4501 153.419 72.5875C153.269 73.1966 153.186 73.5101 153.168 73.528C153.156 73.54 153.141 73.5459 153.123 73.5459C153.063 73.5459 152.98 73.4862 152.872 73.3668C152.765 73.2473 152.696 73.1548 152.666 73.0891C152.666 73.0831 152.66 73.0831 152.648 73.0891C152.636 73.0951 152.618 73.11 152.595 73.1339C152.153 73.5459 151.556 73.752 150.803 73.752C150.08 73.752 149.495 73.522 149.047 73.0622C148.599 72.6024 148.373 72.0142 148.367 71.2975Z" fill="#22661E"/>
<path d="M171.702 72.606V59.936H173.437V60.4428H172.208V72.0992H173.437V72.606H171.702Z" fill="#22661E"/>
<path d="M174.223 67.31C174.223 66.8285 174.303 66.3893 174.464 65.9923C174.624 65.5953 174.831 65.2659 175.084 65.004C175.338 64.7422 175.621 64.5226 175.933 64.3452C176.246 64.1678 176.542 64.0369 176.82 63.9524C177.099 63.8679 177.365 63.8299 177.618 63.8384H177.656C178.037 63.8384 178.366 63.9313 178.645 64.1171C178.923 64.3029 179.063 64.5775 179.063 64.9407C179.063 65.7009 178.594 66.1992 177.656 66.4357C177.243 66.5455 176.677 66.6047 175.959 66.6131C175.646 66.6131 175.486 66.6215 175.477 66.6384C175.477 66.6553 175.452 66.8032 175.401 67.0819C175.351 67.3606 175.321 67.6056 175.313 67.8168C175.313 68.2137 175.401 68.5263 175.579 68.7543C175.756 68.9824 176.022 69.1006 176.377 69.1091C176.732 69.1175 177.124 69.0373 177.555 68.8684C177.986 68.6994 178.374 68.4207 178.721 68.0321C178.797 67.9477 178.847 67.9054 178.873 67.9054C178.907 67.9054 178.961 67.9435 179.037 68.0195C179.114 68.0955 179.156 68.1546 179.164 68.1969C179.173 68.2391 179.135 68.3067 179.05 68.3996C178.966 68.4925 178.839 68.6065 178.67 68.7417C178.501 68.8768 178.307 69.0077 178.087 69.1344C177.868 69.2611 177.602 69.3667 177.289 69.4512C176.977 69.5356 176.656 69.5779 176.326 69.5779C175.659 69.5779 175.144 69.354 174.78 68.9064C174.417 68.4587 174.231 67.9266 174.223 67.31ZM178.455 64.966C178.404 64.5268 178.117 64.3072 177.593 64.3072C177.314 64.3072 177.057 64.3663 176.82 64.4845C176.584 64.6028 176.394 64.7464 176.25 64.9153C176.107 65.0843 175.984 65.2574 175.883 65.4348C175.781 65.6122 175.714 65.7642 175.68 65.8909C175.646 66.0176 175.625 66.0979 175.617 66.1316C175.617 66.1401 175.701 66.1443 175.87 66.1443C176.824 66.1443 177.492 66.043 177.872 65.8402C178.252 65.6375 178.446 65.3461 178.455 64.966Z" fill="#22661E"/>
<path d="M180.681 70.8105C180.681 71.0075 180.756 71.1061 180.905 71.1061C181.126 71.1061 181.314 70.7926 181.469 70.1655C181.505 70.0461 181.535 69.9834 181.559 69.9774C181.571 69.9714 181.601 69.9685 181.648 69.9685H181.684C181.738 69.9685 181.774 69.9685 181.792 69.9685C181.81 69.9685 181.825 69.9744 181.837 69.9864C181.849 69.9983 181.855 70.0192 181.855 70.0491C181.849 70.0849 181.84 70.1327 181.828 70.1924C181.816 70.2521 181.783 70.3656 181.729 70.5328C181.675 70.7 181.616 70.8403 181.55 70.9538C181.484 71.0673 181.392 71.1777 181.272 71.2852C181.153 71.3927 181.015 71.4435 180.86 71.4375C180.645 71.4375 180.445 71.3718 180.26 71.2404C180.075 71.1091 179.979 70.8881 179.973 70.5776C179.973 70.5059 179.976 70.4552 179.982 70.4253L180.565 68.1142C180.941 66.5914 181.129 65.8061 181.129 65.7583C181.129 65.7404 181.126 65.7255 181.12 65.7136C181.114 65.7016 181.102 65.6897 181.084 65.6777C181.066 65.6658 181.051 65.6598 181.039 65.6598C181.027 65.6598 181.004 65.6568 180.968 65.6509C180.932 65.6449 180.908 65.6419 180.896 65.6419C180.884 65.6419 180.857 65.6389 180.815 65.6329C180.774 65.627 180.744 65.627 180.726 65.6329C180.666 65.6329 180.627 65.6329 180.609 65.6329C180.591 65.6329 180.568 65.63 180.538 65.624C180.508 65.618 180.49 65.609 180.484 65.5971C180.478 65.5852 180.475 65.5672 180.475 65.5434C180.475 65.5314 180.481 65.4896 180.493 65.418C180.523 65.3045 180.556 65.2418 180.591 65.2298C180.627 65.2179 180.842 65.2 181.236 65.1761C181.326 65.1701 181.428 65.1642 181.541 65.1582C181.654 65.1522 181.744 65.1433 181.81 65.1313C181.875 65.1194 181.908 65.1164 181.908 65.1223C181.98 65.1223 182.016 65.1462 182.016 65.194C182.016 65.2597 181.798 66.1555 181.362 67.8813C180.926 69.6072 180.702 70.5119 180.69 70.5955C180.69 70.6074 180.69 70.6313 180.69 70.6672C180.69 70.703 180.687 70.7328 180.681 70.7567V70.8105Z" fill="#22661E"/>
<path d="M184.963 66.0001C184.963 65.815 185.026 65.6717 185.151 65.5701C185.276 65.4686 185.405 65.4179 185.536 65.4179C185.638 65.4179 185.721 65.4477 185.787 65.5074C185.853 65.5672 185.894 65.6508 185.912 65.7583C185.912 65.9255 185.856 66.0658 185.742 66.1793C185.629 66.2927 185.497 66.3495 185.348 66.3495C185.241 66.3495 185.151 66.3196 185.079 66.2599C185.008 66.2002 184.969 66.1136 184.963 66.0001ZM184.882 67.9708C184.882 67.7976 184.805 67.711 184.649 67.711C184.518 67.711 184.393 67.7469 184.273 67.8185C184.154 67.8902 184.049 67.9827 183.96 68.0962C183.87 68.2097 183.798 68.3202 183.745 68.4276C183.691 68.5351 183.64 68.6307 183.592 68.7143L183.53 68.8397C183.518 68.8457 183.47 68.8487 183.386 68.8487H183.261C183.225 68.8128 183.207 68.7889 183.207 68.777C183.207 68.7651 183.219 68.7262 183.243 68.6605C183.368 68.3679 183.545 68.0932 183.771 67.8364C183.998 67.5797 184.261 67.4304 184.56 67.3886C184.566 67.3886 184.59 67.3886 184.631 67.3886C184.673 67.3886 184.709 67.3856 184.739 67.3796C184.882 67.3856 185.014 67.4154 185.133 67.4692C185.282 67.5528 185.396 67.6453 185.473 67.7469C185.551 67.8484 185.59 68.0066 185.59 68.2216V68.3649L185.151 70.1475C184.846 71.3419 184.685 71.9629 184.667 72.0107C184.56 72.3093 184.351 72.5751 184.04 72.808C183.73 73.0409 183.374 73.1603 182.974 73.1663C182.676 73.1663 182.473 73.1036 182.365 72.9781C182.258 72.8527 182.201 72.7154 182.195 72.5661C182.195 72.4049 182.252 72.2675 182.365 72.154C182.479 72.0406 182.616 71.9809 182.777 71.9749C182.879 71.9749 182.965 72.0047 183.037 72.0645C183.109 72.1242 183.147 72.2167 183.153 72.3422C183.153 72.5571 183.058 72.7214 182.867 72.8348C182.903 72.8408 182.944 72.8438 182.992 72.8438C183.195 72.8438 183.38 72.7602 183.548 72.593C183.715 72.4258 183.843 72.2287 183.933 72.0018L184.031 71.6255C184.097 71.3688 184.175 71.0582 184.264 70.6939C184.354 70.3297 184.449 69.9564 184.551 69.5742C184.652 69.192 184.733 68.8606 184.793 68.5799C184.852 68.2993 184.885 68.1291 184.891 68.0693C184.891 68.0275 184.888 67.9947 184.882 67.9708Z" fill="#22661E"/>
<path d="M186.906 60.4428V59.936H188.641V72.606H186.906V72.0992H188.135V60.4428H186.906Z" fill="#22661E"/>
<path d="M91 119.337C91 119.21 91.0253 119.096 91.076 118.995C91.076 118.987 92.1952 117.724 94.4336 115.207C96.6719 112.69 97.7995 111.418 97.8164 111.393L97.6897 111.368C97.5968 111.368 97.2843 111.368 96.7521 111.368H96.6001H96.296C96.0088 111.368 95.7723 111.376 95.5865 111.393C95.4007 111.41 95.1684 111.456 94.8897 111.532C94.6109 111.608 94.3829 111.718 94.2055 111.862C94.0281 112.005 93.8381 112.217 93.6353 112.495C93.4326 112.774 93.2721 113.108 93.1539 113.496C93.1454 113.522 93.137 113.547 93.1285 113.572C93.1201 113.598 93.1117 113.619 93.1032 113.636C93.0948 113.653 93.0905 113.674 93.0905 113.699C93.0905 113.724 93.0863 113.737 93.0779 113.737L93.0652 113.762C93.0399 113.805 92.9596 113.826 92.8245 113.826C92.6809 113.826 92.5964 113.783 92.5711 113.699L92.9765 112.331C93.0948 111.951 93.2088 111.57 93.3186 111.19C93.3862 110.954 93.4368 110.827 93.4706 110.81C93.496 110.793 94.4842 110.785 96.4354 110.785H99.3622C99.4044 110.827 99.4255 110.861 99.4255 110.886C99.4255 110.903 99.4002 111.013 99.3495 111.216C94.8897 116.241 92.6555 118.763 92.6471 118.78L92.6091 118.818H93.7367C94.5391 118.809 94.9741 118.801 95.0417 118.792C95.6752 118.716 96.1947 118.509 96.6001 118.171C97.0055 117.834 97.3392 117.213 97.601 116.309C97.6686 116.098 97.7151 115.971 97.7404 115.929C97.7657 115.887 97.8206 115.866 97.9051 115.866H97.9558C98.1332 115.866 98.2219 115.912 98.2219 116.005C97.5377 118.252 97.1703 119.388 97.1196 119.413C97.0942 119.43 96.0764 119.438 94.0661 119.438H91.8362C91.2787 119.438 91 119.405 91 119.337Z" fill="#B33535"/>
<path d="M99.7607 110.479C99.7607 110.067 99.7906 109.676 99.8503 109.305C99.91 108.935 99.9787 108.616 100.056 108.347C100.134 108.078 100.244 107.816 100.388 107.559C100.531 107.302 100.645 107.102 100.728 106.959C100.812 106.815 100.937 106.66 101.104 106.493C101.272 106.326 101.37 106.224 101.4 106.188C101.43 106.152 101.504 106.09 101.624 106H101.74H101.776C101.86 106 101.902 106.027 101.902 106.081C101.902 106.099 101.851 106.161 101.749 106.269C101.648 106.376 101.525 106.535 101.382 106.744C101.239 106.953 101.092 107.209 100.943 107.514C100.794 107.819 100.668 108.231 100.567 108.75C100.465 109.27 100.415 109.846 100.415 110.479C100.415 111.112 100.465 111.685 100.567 112.199C100.668 112.712 100.791 113.127 100.934 113.444C101.078 113.76 101.224 114.017 101.373 114.214C101.522 114.411 101.648 114.57 101.749 114.689C101.851 114.808 101.902 114.871 101.902 114.877C101.902 114.931 101.857 114.958 101.767 114.958H101.74H101.624L101.373 114.743C100.812 114.235 100.403 113.602 100.146 112.844C99.8891 112.085 99.7607 111.297 99.7607 110.479Z" fill="#B33535"/>
<path d="M102.636 109.27C102.594 109.228 102.573 109.198 102.573 109.18C102.573 109.156 102.582 109.108 102.6 109.037C102.618 108.965 102.633 108.923 102.645 108.911C102.657 108.882 102.684 108.867 102.726 108.867C102.768 108.867 102.92 108.864 103.183 108.858H103.657L103.828 108.141C103.845 108.075 103.866 107.989 103.89 107.881C103.914 107.774 103.935 107.696 103.953 107.648C103.971 107.601 103.989 107.541 104.007 107.469C104.025 107.398 104.049 107.347 104.078 107.317C104.108 107.287 104.138 107.251 104.168 107.209C104.198 107.168 104.24 107.141 104.293 107.129C104.347 107.117 104.401 107.111 104.455 107.111C104.562 107.117 104.637 107.15 104.679 107.209C104.72 107.269 104.741 107.326 104.741 107.38C104.741 107.421 104.714 107.562 104.661 107.801C104.607 108.039 104.547 108.275 104.481 108.508L104.392 108.84C104.392 108.852 104.541 108.858 104.84 108.858H105.297C105.338 108.899 105.359 108.932 105.359 108.956C105.359 109.088 105.32 109.192 105.243 109.27H104.284L103.962 110.569C103.729 111.524 103.613 112.038 103.613 112.109C103.613 112.36 103.693 112.485 103.854 112.485C104.063 112.485 104.266 112.384 104.464 112.181C104.661 111.978 104.819 111.727 104.938 111.428C104.95 111.393 104.965 111.372 104.983 111.366C105.001 111.36 105.046 111.354 105.117 111.348H105.153C105.243 111.348 105.288 111.372 105.288 111.42C105.288 111.437 105.279 111.473 105.261 111.527C105.231 111.623 105.177 111.736 105.1 111.867C105.022 111.999 104.92 112.139 104.795 112.288C104.67 112.438 104.517 112.563 104.338 112.665C104.159 112.766 103.977 112.817 103.792 112.817C103.613 112.817 103.442 112.772 103.281 112.683C103.12 112.593 103.003 112.438 102.932 112.217C102.92 112.169 102.914 112.088 102.914 111.975V111.814L103.227 110.56C103.436 109.718 103.544 109.294 103.55 109.288C103.55 109.276 103.398 109.27 103.093 109.27H102.636Z" fill="#B33535"/>
<path d="M106.389 110.595C106.389 110.595 106.389 110.557 106.389 110.479C106.389 110.401 106.431 110.342 106.515 110.3H111.719C111.809 110.348 111.854 110.407 111.854 110.479C111.854 110.551 111.809 110.61 111.719 110.658H106.515C106.431 110.616 106.389 110.557 106.389 110.479V110.595Z" fill="#B33535"/>
<path d="M114.514 107.541L114.398 107.586C114.314 107.615 114.194 107.645 114.039 107.675C113.884 107.705 113.711 107.726 113.52 107.738H113.349V107.326H113.52C113.8 107.314 114.06 107.269 114.299 107.191C114.538 107.114 114.705 107.042 114.801 106.976C114.896 106.911 114.98 106.845 115.051 106.779C115.063 106.761 115.099 106.752 115.159 106.752C115.213 106.752 115.263 106.77 115.311 106.806V109.485L115.32 112.172C115.362 112.214 115.398 112.241 115.428 112.252C115.458 112.264 115.529 112.276 115.643 112.288C115.756 112.3 115.941 112.306 116.198 112.306H116.431V112.718H116.332C116.207 112.7 115.732 112.691 114.908 112.691C114.096 112.691 113.627 112.7 113.502 112.718H113.394V112.306H113.627C113.759 112.306 113.872 112.306 113.968 112.306C114.063 112.306 114.138 112.303 114.192 112.297C114.245 112.291 114.293 112.282 114.335 112.27C114.377 112.258 114.401 112.252 114.406 112.252C114.412 112.252 114.43 112.238 114.46 112.208C114.49 112.178 114.508 112.166 114.514 112.172V107.541Z" fill="#B33535"/>
<path d="M117.622 106.009L117.658 106C117.688 106 117.718 106 117.748 106H117.855L118.106 106.215C118.667 106.723 119.076 107.356 119.333 108.114C119.59 108.873 119.718 109.661 119.718 110.479C119.718 110.885 119.689 111.276 119.629 111.652C119.569 112.029 119.5 112.348 119.423 112.611C119.345 112.874 119.235 113.136 119.091 113.399C118.948 113.662 118.835 113.862 118.751 113.999C118.667 114.137 118.545 114.289 118.384 114.456C118.222 114.623 118.127 114.722 118.097 114.752C118.067 114.782 117.999 114.838 117.891 114.922C117.873 114.94 117.861 114.952 117.855 114.958H117.748C117.7 114.958 117.667 114.958 117.649 114.958C117.631 114.958 117.616 114.949 117.604 114.931C117.592 114.913 117.583 114.886 117.578 114.85C117.583 114.844 117.616 114.805 117.676 114.734C118.602 113.772 119.064 112.354 119.064 110.479C119.064 108.604 118.602 107.186 117.676 106.224C117.616 106.152 117.583 106.114 117.578 106.108C117.578 106.06 117.592 106.027 117.622 106.009Z" fill="#B33535"/>
<path d="M99.3666 121.298C99.3666 120.611 99.5666 119.951 99.9667 119.318C100.367 118.685 100.871 118.183 101.481 117.813C102.09 117.443 102.699 117.255 103.308 117.249C103.845 117.249 104.272 117.401 104.589 117.706C104.643 117.765 104.687 117.816 104.723 117.858C104.759 117.9 104.783 117.929 104.795 117.947L104.804 117.974C104.822 117.974 104.902 117.897 105.046 117.741C105.088 117.706 105.132 117.664 105.18 117.616C105.228 117.568 105.276 117.52 105.323 117.473C105.371 117.425 105.401 117.392 105.413 117.374L105.547 117.24H105.601C105.685 117.24 105.727 117.261 105.727 117.302C105.727 117.326 105.631 117.735 105.44 118.53C105.225 119.36 105.117 119.778 105.117 119.784C105.105 119.814 105.091 119.831 105.073 119.837C105.055 119.843 105.001 119.849 104.911 119.855H104.768C104.732 119.82 104.714 119.793 104.714 119.775C104.714 119.769 104.717 119.748 104.723 119.712C104.729 119.676 104.735 119.617 104.741 119.533C104.747 119.449 104.75 119.354 104.75 119.246C104.75 118.822 104.655 118.452 104.463 118.136C104.272 117.819 103.947 117.658 103.487 117.652C103.38 117.652 103.263 117.661 103.138 117.679C103.012 117.697 102.854 117.735 102.663 117.795C102.472 117.855 102.29 117.938 102.117 118.046C101.943 118.153 101.755 118.297 101.552 118.476C101.349 118.655 101.176 118.867 101.033 119.112C100.889 119.357 100.749 119.661 100.612 120.026C100.474 120.39 100.382 120.79 100.334 121.226C100.322 121.333 100.316 121.45 100.316 121.575C100.316 121.862 100.358 122.116 100.441 122.337C100.525 122.558 100.633 122.728 100.764 122.847C100.895 122.967 101.045 123.068 101.212 123.152C101.379 123.235 101.534 123.286 101.678 123.304C101.821 123.322 101.955 123.334 102.081 123.34C102.403 123.34 102.699 123.271 102.968 123.134C103.236 122.997 103.421 122.82 103.523 122.605C103.541 122.558 103.586 122.393 103.657 122.113C103.729 121.832 103.765 121.674 103.765 121.638C103.765 121.59 103.726 121.56 103.648 121.548C103.571 121.536 103.392 121.527 103.111 121.522H102.779C102.744 121.486 102.726 121.462 102.726 121.45C102.726 121.438 102.732 121.381 102.744 121.28C102.767 121.202 102.797 121.145 102.833 121.109H102.985C103.224 121.121 103.642 121.127 104.24 121.127C104.478 121.127 104.672 121.127 104.822 121.127C104.971 121.127 105.079 121.124 105.144 121.118C105.21 121.112 105.246 121.112 105.252 121.118C105.335 121.118 105.377 121.145 105.377 121.199C105.377 121.211 105.371 121.253 105.359 121.324C105.329 121.438 105.3 121.501 105.27 121.513C105.252 121.519 105.207 121.522 105.135 121.522C105.016 121.522 104.893 121.53 104.768 121.548C104.726 121.566 104.696 121.593 104.678 121.629C104.661 121.665 104.619 121.817 104.553 122.086C104.499 122.283 104.455 122.45 104.419 122.587C104.269 123.197 104.186 123.51 104.168 123.528C104.156 123.54 104.141 123.546 104.123 123.546C104.063 123.546 103.98 123.486 103.872 123.367C103.765 123.247 103.696 123.155 103.666 123.089C103.666 123.083 103.66 123.083 103.648 123.089C103.636 123.095 103.618 123.11 103.595 123.134C103.153 123.546 102.555 123.752 101.803 123.752C101.08 123.752 100.495 123.522 100.047 123.062C99.5995 122.602 99.3725 122.014 99.3666 121.298Z" fill="#B33535"/>
<path d="M122.701 122.606V109.936H124.437V110.443H123.208V122.099H124.437V122.606H122.701Z" fill="#B33535"/>
<path d="M125.223 117.31C125.223 116.828 125.303 116.389 125.464 115.992C125.624 115.595 125.831 115.266 126.084 115.004C126.338 114.742 126.621 114.522 126.933 114.345C127.246 114.168 127.541 114.037 127.82 113.952C128.099 113.868 128.365 113.83 128.618 113.838H128.656C129.036 113.838 129.366 113.931 129.645 114.117C129.923 114.303 130.063 114.577 130.063 114.94C130.063 115.701 129.594 116.199 128.656 116.435C128.242 116.545 127.677 116.604 126.959 116.613C126.646 116.613 126.486 116.621 126.477 116.638C126.477 116.655 126.452 116.803 126.401 117.082C126.35 117.36 126.321 117.605 126.312 117.817C126.312 118.214 126.401 118.526 126.578 118.754C126.756 118.982 127.022 119.1 127.377 119.109C127.731 119.117 128.124 119.037 128.555 118.868C128.986 118.699 129.374 118.42 129.721 118.032C129.797 117.947 129.847 117.905 129.873 117.905C129.906 117.905 129.961 117.943 130.037 118.019C130.113 118.095 130.156 118.154 130.164 118.197C130.172 118.239 130.134 118.306 130.05 118.399C129.966 118.492 129.839 118.606 129.67 118.741C129.501 118.877 129.307 119.007 129.087 119.134C128.867 119.261 128.601 119.366 128.289 119.451C127.976 119.535 127.655 119.578 127.326 119.578C126.659 119.578 126.143 119.354 125.78 118.906C125.417 118.458 125.231 117.926 125.223 117.31ZM129.455 114.966C129.404 114.527 129.117 114.307 128.593 114.307C128.314 114.307 128.057 114.366 127.82 114.484C127.584 114.603 127.394 114.746 127.25 114.915C127.106 115.084 126.984 115.257 126.883 115.435C126.781 115.612 126.714 115.764 126.68 115.891C126.646 116.017 126.625 116.098 126.616 116.131C126.616 116.14 126.701 116.144 126.87 116.144C127.824 116.144 128.492 116.043 128.872 115.84C129.252 115.637 129.446 115.346 129.455 114.966Z" fill="#B33535"/>
<path d="M132.281 115.964C132.281 115.821 132.338 115.695 132.451 115.588C132.565 115.48 132.696 115.424 132.845 115.418C132.953 115.418 133.042 115.454 133.114 115.525C133.186 115.597 133.225 115.686 133.231 115.794C133.231 115.931 133.171 116.057 133.051 116.17C132.932 116.284 132.801 116.343 132.657 116.349C132.568 116.349 132.484 116.319 132.406 116.26C132.329 116.2 132.287 116.101 132.281 115.964ZM130.821 118.768C130.821 118.72 130.848 118.628 130.902 118.49C130.955 118.353 131.027 118.201 131.117 118.033C131.206 117.866 131.337 117.714 131.511 117.577C131.684 117.439 131.863 117.373 132.048 117.379C132.281 117.379 132.475 117.448 132.63 117.585C132.786 117.723 132.866 117.908 132.872 118.141C132.872 118.242 132.83 118.41 132.747 118.642C132.663 118.875 132.544 119.189 132.389 119.583C132.233 119.977 132.108 120.315 132.012 120.595C131.982 120.727 131.968 120.822 131.968 120.882C131.968 121.031 132.018 121.106 132.12 121.106C132.174 121.106 132.23 121.097 132.29 121.079C132.35 121.061 132.418 121.019 132.496 120.954C132.574 120.888 132.654 120.783 132.738 120.64C132.821 120.497 132.896 120.321 132.962 120.112C132.98 120.04 132.995 119.998 133.007 119.986C133.019 119.974 133.069 119.968 133.159 119.968C133.278 119.968 133.338 119.998 133.338 120.058C133.338 120.106 133.311 120.198 133.257 120.335C133.204 120.473 133.129 120.625 133.033 120.792C132.938 120.96 132.804 121.109 132.63 121.24C132.457 121.372 132.272 121.437 132.075 121.437C131.884 121.437 131.708 121.375 131.546 121.249C131.385 121.124 131.302 120.933 131.296 120.676C131.296 120.574 131.311 120.479 131.34 120.389C131.37 120.3 131.499 119.959 131.726 119.368C131.953 118.765 132.084 118.404 132.12 118.284C132.156 118.165 132.177 118.048 132.182 117.935C132.182 117.791 132.132 117.72 132.03 117.72H132.012C131.833 117.72 131.669 117.818 131.52 118.015C131.37 118.213 131.257 118.463 131.179 118.768C131.173 118.774 131.167 118.783 131.161 118.795C131.155 118.807 131.152 118.816 131.152 118.822C131.152 118.828 131.146 118.834 131.134 118.84C131.122 118.846 131.114 118.848 131.108 118.848C131.102 118.848 131.09 118.848 131.072 118.848C131.054 118.848 131.03 118.848 131 118.848H130.875C130.839 118.813 130.821 118.786 130.821 118.768Z" fill="#B33535"/>
<path d="M136.384 116C136.384 115.815 136.446 115.671 136.572 115.57C136.697 115.468 136.826 115.418 136.957 115.418C137.058 115.418 137.142 115.448 137.208 115.507C137.273 115.567 137.315 115.651 137.333 115.758C137.333 115.925 137.276 116.066 137.163 116.179C137.049 116.293 136.918 116.349 136.769 116.349C136.661 116.349 136.572 116.319 136.5 116.26C136.428 116.2 136.39 116.113 136.384 116ZM136.303 117.971C136.303 117.797 136.225 117.711 136.07 117.711C135.939 117.711 135.813 117.747 135.694 117.818C135.574 117.89 135.47 117.983 135.38 118.096C135.291 118.209 135.219 118.32 135.165 118.427C135.112 118.535 135.061 118.63 135.013 118.714L134.95 118.839C134.938 118.845 134.891 118.848 134.807 118.848H134.682C134.646 118.813 134.628 118.789 134.628 118.777C134.628 118.765 134.64 118.726 134.664 118.66C134.789 118.368 134.965 118.093 135.192 117.836C135.419 117.579 135.682 117.43 135.981 117.388C135.987 117.388 136.01 117.388 136.052 117.388C136.094 117.388 136.13 117.385 136.16 117.379C136.303 117.385 136.434 117.415 136.554 117.469C136.703 117.553 136.817 117.645 136.894 117.747C136.972 117.848 137.011 118.006 137.011 118.221V118.365L136.572 120.147C136.267 121.342 136.106 121.963 136.088 122.01C135.981 122.309 135.772 122.575 135.461 122.808C135.15 123.041 134.795 123.16 134.395 123.166C134.096 123.166 133.893 123.103 133.786 122.978C133.678 122.852 133.622 122.715 133.616 122.566C133.616 122.405 133.672 122.267 133.786 122.154C133.899 122.04 134.037 121.981 134.198 121.975C134.299 121.975 134.386 122.005 134.458 122.064C134.529 122.124 134.568 122.217 134.574 122.342C134.574 122.557 134.479 122.721 134.288 122.835C134.323 122.841 134.365 122.844 134.413 122.844C134.616 122.844 134.801 122.76 134.968 122.593C135.136 122.426 135.264 122.228 135.354 122.002L135.452 121.625C135.518 121.369 135.595 121.058 135.685 120.694C135.775 120.329 135.87 119.956 135.972 119.574C136.073 119.192 136.154 118.86 136.213 118.58C136.273 118.299 136.306 118.129 136.312 118.069C136.312 118.027 136.309 117.994 136.303 117.971Z" fill="#B33535"/>
<path d="M138.327 110.443V109.936H140.063V122.606H138.327V122.099H139.556V110.443H138.327Z" fill="#B33535"/>
</svg>
