<svg width="1060" height="288" viewBox="0 0 1060 288" fill="none" xmlns="http://www.w3.org/2000/svg">
<path d="M281 162L271 156.226V167.774L281 162ZM221 163H272V161H221V163Z" fill="black"/>
<path d="M839 162L829 156.226V167.774L839 162ZM779 163H830V161H779V163Z" fill="black"/>
<path d="M949.263 52V272M949.263 52L854 217M949.263 52L1044.53 217M1044.53 107L854 217M1044.53 107L949.263 272M1044.53 107V217M1044.53 217L854 107M949.263 272L854 107M854 217V107" stroke="#3BB335" stroke-width="3" stroke-linejoin="round" stroke-dasharray="8 3"/>
<path d="M1044.53 107L949.263 52L854 107H1044.53Z" stroke="#B33535" stroke-width="6" stroke-linejoin="round"/>
<path d="M949.263 272L1044.53 217H854L949.263 272Z" stroke="#B33535" stroke-width="6" stroke-linejoin="round"/>
<circle cx="949" cy="52" r="8" fill="#444444" stroke="white" stroke-width="2"/>
<circle cx="1044" cy="107" r="8" fill="#444444" stroke="white" stroke-width="2"/>
<circle cx="1044" cy="217" r="8" fill="#444444" stroke="white" stroke-width="2"/>
<circle cx="949" cy="272" r="8" fill="#444444" stroke="white" stroke-width="2"/>
<circle cx="854" cy="217" r="8" fill="#444444" stroke="white" stroke-width="2"/>
<circle cx="854" cy="107" r="8" fill="#444444" stroke="white" stroke-width="2"/>
<path d="M880.719 74V56.9375H885.969C887.469 56.9375 888.809 57.2773 889.988 57.957C891.176 58.6289 892.102 59.5898 892.766 60.8398C893.43 62.082 893.762 63.4961 893.762 65.082V65.8672C893.762 67.4531 893.434 68.8633 892.777 70.0977C892.129 71.332 891.211 72.2891 890.023 72.9688C888.836 73.6484 887.496 73.9922 886.004 74H880.719ZM884.234 59.7852V71.1758H885.934C887.309 71.1758 888.359 70.7266 889.086 69.8281C889.812 68.9297 890.184 67.6445 890.199 65.9727V65.0703C890.199 63.3359 889.84 62.0234 889.121 61.1328C888.402 60.2344 887.352 59.7852 885.969 59.7852H884.234Z" fill="#B33535"/>
<path d="M993.039 162.605H986.289V167.176H994.211V170H982.773V152.938H994.188V155.785H986.289V159.852H993.039V162.605Z" fill="#22661E"/>
<path d="M391.263 52L296 217H486.526L391.263 52ZM486.526 107H296L391.263 272L486.526 107Z" stroke="#B39735" stroke-width="3" stroke-linejoin="round" stroke-dasharray="4 2"/>
<path d="M391.263 52V272M486.526 107L296 217M486.526 217L296 107" stroke="#3BB335" stroke-width="3" stroke-linejoin="round" stroke-dasharray="8 3"/>
<path d="M391.263 52L486.526 107V217L391.263 272L296 217V107L391.263 52Z" stroke="#355FB3" stroke-width="6" stroke-linejoin="round"/>
<circle cx="391" cy="52" r="8" fill="#444444" stroke="white" stroke-width="2"/>
<circle cx="486" cy="107" r="8" fill="#444444" stroke="white" stroke-width="2"/>
<circle cx="486" cy="217" r="8" fill="#444444" stroke="white" stroke-width="2"/>
<circle cx="391" cy="272" r="8" fill="#444444" stroke="white" stroke-width="2"/>
<circle cx="296" cy="217" r="8" fill="#444444" stroke="white" stroke-width="2"/>
<circle cx="296" cy="107" r="8" fill="#444444" stroke="white" stroke-width="2"/>
<path d="M336.066 68.3164C335.934 70.1523 335.254 71.5977 334.027 72.6523C332.809 73.707 331.199 74.2344 329.199 74.2344C327.012 74.2344 325.289 73.5 324.031 72.0312C322.781 70.5547 322.156 68.5312 322.156 65.9609V64.918C322.156 63.2773 322.445 61.832 323.023 60.582C323.602 59.332 324.426 58.375 325.496 57.7109C326.574 57.0391 327.824 56.7031 329.246 56.7031C331.215 56.7031 332.801 57.2305 334.004 58.2852C335.207 59.3398 335.902 60.8203 336.09 62.7266H332.574C332.488 61.625 332.18 60.8281 331.648 60.3359C331.125 59.8359 330.324 59.5859 329.246 59.5859C328.074 59.5859 327.195 60.0078 326.609 60.8516C326.031 61.6875 325.734 62.9883 325.719 64.7539V66.043C325.719 67.8867 325.996 69.2344 326.551 70.0859C327.113 70.9375 327.996 71.3633 329.199 71.3633C330.285 71.3633 331.094 71.1172 331.625 70.625C332.164 70.125 332.473 69.3555 332.551 68.3164H336.066Z" fill="#355FB3"/>
<path d="M408.039 139.605H401.289V144.176H409.211V147H397.773V129.938H409.188V132.785H401.289V136.852H408.039V139.605Z" fill="#22661E"/>
<path d="M438.215 233.027H431.465V240H427.949V222.938H439.059V225.785H431.465V230.191H438.215V233.027Z" fill="#66571E"/>
<path d="M111.263 52V272M111.263 52L16 217M111.263 52L206.526 217M206.526 107H16M206.526 107L16 217M206.526 107L111.263 272M206.526 217H16M206.526 217L16 107M111.263 272L16 107" stroke="#B33535" stroke-width="3" stroke-linejoin="round" stroke-dasharray="4 2"/>
<path d="M111.263 52L206.526 107V217L111.263 272L16 217V107L111.263 52Z" stroke="#355FB3" stroke-width="6" stroke-linejoin="round"/>
<circle cx="111" cy="52" r="8" fill="#444444" stroke="white" stroke-width="2"/>
<circle cx="206" cy="107" r="8" fill="#444444" stroke="white" stroke-width="2"/>
<circle cx="206" cy="217" r="8" fill="#444444" stroke="white" stroke-width="2"/>
<circle cx="111" cy="272" r="8" fill="#444444" stroke="white" stroke-width="2"/>
<circle cx="16" cy="217" r="8" fill="#444444" stroke="white" stroke-width="2"/>
<circle cx="16" cy="107" r="8" fill="#444444" stroke="white" stroke-width="2"/>
<path d="M52.582 70.4844H46.418L45.2461 74H41.5078L47.8594 56.9375H51.1172L57.5039 74H53.7656L52.582 70.4844ZM47.3672 67.6367H51.6328L49.4883 61.25L47.3672 67.6367Z" fill="#355FB3"/>
<path d="M144.859 170V152.938H150.836C152.906 152.938 154.477 153.336 155.547 154.133C156.617 154.922 157.152 156.082 157.152 157.613C157.152 158.449 156.938 159.188 156.508 159.828C156.078 160.461 155.48 160.926 154.715 161.223C155.59 161.441 156.277 161.883 156.777 162.547C157.285 163.211 157.539 164.023 157.539 164.984C157.539 166.625 157.016 167.867 155.969 168.711C154.922 169.555 153.43 169.984 151.492 170H144.859ZM148.375 162.57V167.176H151.387C152.215 167.176 152.859 166.98 153.32 166.59C153.789 166.191 154.023 165.645 154.023 164.949C154.023 163.387 153.215 162.594 151.598 162.57H148.375ZM148.375 160.086H150.977C152.75 160.055 153.637 159.348 153.637 157.965C153.637 157.191 153.41 156.637 152.957 156.301C152.512 155.957 151.805 155.785 150.836 155.785H148.375V160.086Z" fill="#B33535"/>
<path d="M669.263 52V272M669.263 52L574 217M669.263 52L764.526 217M764.526 107L574 217M764.526 107L669.263 272M764.526 107V217M764.526 217L574 107M669.263 272L574 107M574 217V107" stroke="#B33535" stroke-width="3" stroke-linejoin="round" stroke-dasharray="4 2"/>
<path d="M764.526 107L669.263 52L574 107H764.526Z" stroke="#355FB3" stroke-width="6" stroke-linejoin="round"/>
<path d="M669.263 272L764.526 217H574L669.263 272Z" stroke="#355FB3" stroke-width="6" stroke-linejoin="round"/>
<circle cx="669" cy="52" r="8" fill="#444444" stroke="white" stroke-width="2"/>
<circle cx="764" cy="107" r="8" fill="#444444" stroke="white" stroke-width="2"/>
<circle cx="764" cy="217" r="8" fill="#444444" stroke="white" stroke-width="2"/>
<circle cx="669" cy="272" r="8" fill="#444444" stroke="white" stroke-width="2"/>
<circle cx="574" cy="217" r="8" fill="#444444" stroke="white" stroke-width="2"/>
<circle cx="574" cy="107" r="8" fill="#444444" stroke="white" stroke-width="2"/>
<path d="M610.582 70.4844H604.418L603.246 74H599.508L605.859 56.9375H609.117L615.504 74H611.766L610.582 70.4844ZM605.367 67.6367H609.633L607.488 61.25L605.367 67.6367Z" fill="#355FB3"/>
<path d="M702.859 170V152.938H708.836C710.906 152.938 712.477 153.336 713.547 154.133C714.617 154.922 715.152 156.082 715.152 157.613C715.152 158.449 714.938 159.188 714.508 159.828C714.078 160.461 713.48 160.926 712.715 161.223C713.59 161.441 714.277 161.883 714.777 162.547C715.285 163.211 715.539 164.023 715.539 164.984C715.539 166.625 715.016 167.867 713.969 168.711C712.922 169.555 711.43 169.984 709.492 170H702.859ZM706.375 162.57V167.176H709.387C710.215 167.176 710.859 166.98 711.32 166.59C711.789 166.191 712.023 165.645 712.023 164.949C712.023 163.387 711.215 162.594 709.598 162.57H706.375ZM706.375 160.086H708.977C710.75 160.055 711.637 159.348 711.637 157.965C711.637 157.191 711.41 156.637 710.957 156.301C710.512 155.957 709.805 155.785 708.836 155.785H706.375V160.086Z" fill="#B33535"/>
<line x1="530.5" y1="2.18557e-08" x2="530.5" y2="288" stroke="#747474"/>
<path d="M98.3506 17H96.7246V7.49023H98.3506V17ZM96.5928 4.96777C96.5928 4.7041 96.6719 4.48145 96.8301 4.2998C96.9941 4.11816 97.2344 4.02734 97.5508 4.02734C97.8672 4.02734 98.1074 4.11816 98.2715 4.2998C98.4355 4.48145 98.5176 4.7041 98.5176 4.96777C98.5176 5.23145 98.4355 5.45117 98.2715 5.62695C98.1074 5.80273 97.8672 5.89062 97.5508 5.89062C97.2344 5.89062 96.9941 5.80273 96.8301 5.62695C96.6719 5.45117 96.5928 5.23145 96.5928 4.96777ZM112.861 9.8457H105.531V8.43066H112.861V9.8457ZM112.861 13.4932H105.531V12.0869H112.861V13.4932ZM127.627 11.542C127.627 13.4463 127.302 14.8613 126.651 15.7871C126.001 16.7129 124.984 17.1758 123.602 17.1758C122.236 17.1758 121.226 16.7246 120.569 15.8223C119.913 14.9141 119.573 13.5605 119.55 11.7617V9.59082C119.55 7.70996 119.875 6.3125 120.525 5.39844C121.176 4.48438 122.195 4.02734 123.584 4.02734C124.961 4.02734 125.975 4.46973 126.625 5.35449C127.275 6.2334 127.609 7.59277 127.627 9.43262V11.542ZM126.001 9.31836C126.001 7.94141 125.808 6.93945 125.421 6.3125C125.034 5.67969 124.422 5.36328 123.584 5.36328C122.752 5.36328 122.146 5.67676 121.765 6.30371C121.384 6.93066 121.188 7.89453 121.176 9.19531V11.7969C121.176 13.1797 121.375 14.2021 121.773 14.8643C122.178 15.5205 122.787 15.8486 123.602 15.8486C124.404 15.8486 124.999 15.5381 125.386 14.917C125.778 14.2959 125.983 13.3174 126.001 11.9814V9.31836Z" fill="black"/>
<path d="M656.351 17H654.725V7.49023H656.351V17ZM654.593 4.96777C654.593 4.7041 654.672 4.48145 654.83 4.2998C654.994 4.11816 655.234 4.02734 655.551 4.02734C655.867 4.02734 656.107 4.11816 656.271 4.2998C656.436 4.48145 656.518 4.7041 656.518 4.96777C656.518 5.23145 656.436 5.45117 656.271 5.62695C656.107 5.80273 655.867 5.89062 655.551 5.89062C655.234 5.89062 654.994 5.80273 654.83 5.62695C654.672 5.45117 654.593 5.23145 654.593 4.96777ZM670.861 9.8457H663.531V8.43066H670.861V9.8457ZM670.861 13.4932H663.531V12.0869H670.861V13.4932ZM685.627 11.542C685.627 13.4463 685.302 14.8613 684.651 15.7871C684.001 16.7129 682.984 17.1758 681.602 17.1758C680.236 17.1758 679.226 16.7246 678.569 15.8223C677.913 14.9141 677.573 13.5605 677.55 11.7617V9.59082C677.55 7.70996 677.875 6.3125 678.525 5.39844C679.176 4.48438 680.195 4.02734 681.584 4.02734C682.961 4.02734 683.975 4.46973 684.625 5.35449C685.275 6.2334 685.609 7.59277 685.627 9.43262V11.542ZM684.001 9.31836C684.001 7.94141 683.808 6.93945 683.421 6.3125C683.034 5.67969 682.422 5.36328 681.584 5.36328C680.752 5.36328 680.146 5.67676 679.765 6.30371C679.384 6.93066 679.188 7.89453 679.176 9.19531V11.7969C679.176 13.1797 679.375 14.2021 679.773 14.8643C680.178 15.5205 680.787 15.8486 681.602 15.8486C682.404 15.8486 682.999 15.5381 683.386 14.917C683.778 14.2959 683.983 13.3174 684.001 11.9814V9.31836Z" fill="black"/>
<path d="M377.351 17H375.725V7.49023H377.351V17ZM375.593 4.96777C375.593 4.7041 375.672 4.48145 375.83 4.2998C375.994 4.11816 376.234 4.02734 376.551 4.02734C376.867 4.02734 377.107 4.11816 377.271 4.2998C377.436 4.48145 377.518 4.7041 377.518 4.96777C377.518 5.23145 377.436 5.45117 377.271 5.62695C377.107 5.80273 376.867 5.89062 376.551 5.89062C376.234 5.89062 375.994 5.80273 375.83 5.62695C375.672 5.45117 375.593 5.23145 375.593 4.96777ZM391.861 9.8457H384.531V8.43066H391.861V9.8457ZM391.861 13.4932H384.531V12.0869H391.861V13.4932ZM403.946 17H402.312V6.16309L399.033 7.36719V5.89062L403.691 4.1416H403.946V17Z" fill="black"/>
<path d="M935.351 17H933.725V7.49023H935.351V17ZM933.593 4.96777C933.593 4.7041 933.672 4.48145 933.83 4.2998C933.994 4.11816 934.234 4.02734 934.551 4.02734C934.867 4.02734 935.107 4.11816 935.271 4.2998C935.436 4.48145 935.518 4.7041 935.518 4.96777C935.518 5.23145 935.436 5.45117 935.271 5.62695C935.107 5.80273 934.867 5.89062 934.551 5.89062C934.234 5.89062 933.994 5.80273 933.83 5.62695C933.672 5.45117 933.593 5.23145 933.593 4.96777ZM949.861 9.8457H942.531V8.43066H949.861V9.8457ZM949.861 13.4932H942.531V12.0869H949.861V13.4932ZM961.946 17H960.312V6.16309L957.033 7.36719V5.89062L961.691 4.1416H961.946V17Z" fill="black"/>
</svg>
