<svg width="181" height="43" viewBox="0 0 181 43" fill="none" xmlns="http://www.w3.org/2000/svg">
<path d="M0 33.0479C0 32.2155 0.06032 31.4253 0.18096 30.6774C0.3016 29.9294 0.440336 29.284 0.597168 28.7411C0.754 28.1982 0.977184 27.6674 1.26672 27.1487C1.55626 26.6299 1.78547 26.2258 1.95437 25.9362C2.12326 25.6467 2.37661 25.333 2.7144 24.9952C3.05219 24.6574 3.25125 24.4523 3.31157 24.38C3.37189 24.3076 3.52269 24.1809 3.76397 23.9999H3.99922H4.0716C4.2405 23.9999 4.32494 24.0542 4.32494 24.1628C4.32494 24.199 4.2224 24.3257 4.01731 24.5428C3.81222 24.76 3.56491 25.0797 3.27538 25.5019C2.98584 25.9242 2.69027 26.4429 2.38867 27.0582C2.08707 27.6734 1.83373 28.5059 1.62864 29.5554C1.42355 30.605 1.32101 31.7692 1.32101 33.0479C1.32101 34.3267 1.42355 35.4849 1.62864 36.5224C1.83373 37.5599 2.08104 38.3983 2.37058 39.0377C2.66011 39.6771 2.95568 40.1959 3.25728 40.594C3.55888 40.9921 3.81222 41.3118 4.01731 41.5531C4.2224 41.7943 4.32494 41.921 4.32494 41.9331C4.32494 42.0417 4.23446 42.0959 4.0535 42.0959H3.99922H3.76397L3.25728 41.6616C2.12326 40.6362 1.29688 39.3574 0.778128 37.8253C0.259376 36.2932 0 34.7007 0 33.0479Z" fill="black"/>
<path d="M10.6223 31.9079C10.6223 29.9415 11.1109 28.3852 12.0881 27.2392C13.0653 26.0931 14.1511 25.52 15.3454 25.52C16.1778 25.52 16.775 25.7372 17.1369 26.1715C17.4988 26.6058 17.6798 27.0884 17.6798 27.6192C17.6798 27.9208 17.5953 28.1621 17.4264 28.343C17.2575 28.524 17.0223 28.6145 16.7207 28.6145C16.4432 28.6145 16.214 28.53 16.0331 28.3611C15.8521 28.1922 15.7616 27.957 15.7616 27.6554C15.7616 27.1246 16.0451 26.8049 16.6121 26.6963C16.3467 26.4309 15.9727 26.2801 15.4902 26.2439C14.6336 26.2439 13.9279 26.6058 13.3729 27.3296C12.8059 28.1259 12.5224 29.3443 12.5224 30.985L12.5405 31.0574C12.6008 30.985 12.6491 30.9066 12.6853 30.8222C13.1799 30.0983 13.8253 29.7364 14.6216 29.7364H14.6939C15.2489 29.7364 15.7375 29.851 16.1597 30.0802C16.4493 30.2491 16.7388 30.4904 17.0283 30.8041C17.3179 31.1177 17.5531 31.4616 17.7341 31.8355C17.9874 32.4267 18.1141 33.0721 18.1141 33.7718V34.0975C18.1141 34.375 18.0839 34.6344 18.0236 34.8757C17.8909 35.5875 17.5049 36.2811 16.8655 36.9567C16.2261 37.6323 15.4178 37.9701 14.4406 37.9701C14.1028 37.9701 13.7771 37.9218 13.4634 37.8253C13.1498 37.7288 12.812 37.5479 12.45 37.2824C12.0881 37.017 11.7805 36.6611 11.5271 36.2148C11.2738 35.7684 11.0567 35.1833 10.8757 34.4595C10.6947 33.7356 10.6103 32.8851 10.6223 31.9079ZM14.513 30.3879C14.1511 30.3879 13.8374 30.4904 13.572 30.6955C13.3066 30.9006 13.1015 31.172 12.9567 31.5098C12.812 31.8476 12.7094 32.1914 12.6491 32.5413C12.5888 32.8911 12.5526 33.2651 12.5405 33.6632C12.5405 34.6646 12.6129 35.3824 12.7577 35.8167C12.9024 36.251 13.1317 36.6008 13.4453 36.8662C13.7349 37.0834 14.0546 37.192 14.4044 37.192C15.0197 37.192 15.4902 36.9627 15.8159 36.5043C15.9727 36.2872 16.0813 36.0157 16.1416 35.69C16.2019 35.3643 16.2321 34.7309 16.2321 33.7899C16.2321 32.8248 16.2019 32.1794 16.1416 31.8536C16.0813 31.5279 15.9727 31.2565 15.8159 31.0393C15.4902 30.605 15.0559 30.3879 14.513 30.3879Z" fill="#355FB3"/>
<path d="M20.3218 36.9386C20.3218 36.9386 20.3218 36.7878 20.3218 36.4862C20.3218 36.1846 20.4183 35.9252 20.6113 35.7081C20.8044 35.4909 21.0637 35.3823 21.3895 35.3823C21.7273 35.3823 22.0289 35.5331 22.2943 35.8347C22.5597 36.1363 22.6984 36.6672 22.7105 37.4272C22.7105 37.8494 22.6562 38.2596 22.5476 38.6577C22.439 39.0558 22.3124 39.3997 22.1676 39.6892C22.0228 39.9787 21.866 40.226 21.6971 40.4311C21.5282 40.6362 21.3834 40.7991 21.2628 40.9197C21.1422 41.0404 21.0637 41.0946 21.0276 41.0826C20.9793 41.0826 20.9009 41.0283 20.7923 40.9197C20.6837 40.8111 20.6294 40.7327 20.6294 40.6845C20.6294 40.6362 20.6958 40.5397 20.8285 40.3949C20.9612 40.2502 21.112 40.0692 21.2809 39.8521C21.4498 39.6349 21.6066 39.3333 21.7514 38.9473C21.8962 38.5612 21.9927 38.1209 22.0409 37.6262V37.4091L22.0228 37.4272C21.9987 37.4393 21.9685 37.4513 21.9324 37.4634C21.8962 37.4754 21.86 37.4935 21.8238 37.5177C21.7876 37.5418 21.7333 37.5539 21.6609 37.5539C21.5885 37.5539 21.5161 37.5599 21.4438 37.572C21.118 37.572 20.8526 37.4694 20.6475 37.2643L20.3218 36.9386Z" fill="black"/>
<path d="M33.4541 29.8088C33.1283 29.8088 32.869 29.7003 32.6759 29.4831C32.4829 29.266 32.3864 29.0005 32.3864 28.6869C32.3864 27.8303 32.7061 27.0884 33.3455 26.4611C33.9849 25.8337 34.7811 25.5201 35.7342 25.5201C36.832 25.5201 37.7489 25.8579 38.4848 26.5335C39.2207 27.209 39.5947 28.0837 39.6067 29.1574C39.6067 29.6761 39.4861 30.1708 39.2448 30.6413C39.0035 31.1117 38.714 31.5219 38.3762 31.8718C38.0384 32.2216 37.5558 32.668 36.9285 33.2109C36.4942 33.5849 35.891 34.1398 35.1189 34.8757L34.0512 35.8891L35.4265 35.9072C37.3206 35.9072 38.3279 35.877 38.4486 35.8167C38.533 35.7926 38.6778 35.2557 38.8829 34.2062V34.1519H39.6067V34.2062C39.5947 34.2424 39.5162 34.7913 39.3715 35.8529C39.2267 36.9145 39.1362 37.4695 39.1 37.5177V37.572H32.3864V37.2282V37.011C32.3864 36.9266 32.4226 36.8361 32.495 36.7396C32.5674 36.6431 32.7483 36.432 33.0379 36.1062C33.3877 35.7202 33.6893 35.3824 33.9427 35.0929C34.0512 34.9722 34.2563 34.749 34.5579 34.4233C34.8595 34.0976 35.0646 33.8744 35.1732 33.7538C35.2818 33.6331 35.4567 33.4341 35.698 33.1566C35.9393 32.8791 36.1082 32.674 36.2047 32.5413C36.3012 32.4086 36.4399 32.2277 36.6209 31.9985C36.8018 31.7692 36.9285 31.5762 37.0009 31.4194C37.0733 31.2625 37.1638 31.0876 37.2723 30.8946C37.3809 30.7016 37.4593 30.5085 37.5076 30.3155C37.5558 30.1225 37.5981 29.9415 37.6343 29.7726C37.6704 29.6037 37.6885 29.4047 37.6885 29.1755C37.6885 28.4154 37.4835 27.758 37.0733 27.203C36.6631 26.6481 36.078 26.3706 35.318 26.3706C34.9199 26.3706 34.57 26.4731 34.2684 26.6782C33.9668 26.8833 33.7557 27.0824 33.635 27.2754C33.5144 27.4684 33.4541 27.583 33.4541 27.6192C33.4541 27.6313 33.4842 27.6373 33.5446 27.6373C33.7617 27.6373 33.9849 27.7218 34.2141 27.8907C34.4433 28.0596 34.5579 28.337 34.5579 28.7231C34.5579 29.0247 34.4614 29.278 34.2684 29.4831C34.0754 29.6882 33.8039 29.7968 33.4541 29.8088Z" fill="#355FB3"/>
<path d="M41.9411 36.9386C41.9411 36.9386 41.9411 36.7878 41.9411 36.4862C41.9411 36.1846 42.0376 35.9252 42.2306 35.7081C42.4237 35.4909 42.683 35.3823 43.0088 35.3823C43.3466 35.3823 43.6482 35.5331 43.9136 35.8347C44.179 36.1363 44.3177 36.6672 44.3298 37.4272C44.3298 37.8494 44.2755 38.2596 44.1669 38.6577C44.0583 39.0558 43.9317 39.3997 43.7869 39.6892C43.6421 39.9787 43.4853 40.226 43.3164 40.4311C43.1475 40.6362 43.0027 40.7991 42.8821 40.9197C42.7615 41.0404 42.683 41.0946 42.6468 41.0826C42.5986 41.0826 42.5202 41.0283 42.4116 40.9197C42.303 40.8111 42.2487 40.7327 42.2487 40.6845C42.2487 40.6362 42.3151 40.5397 42.4478 40.3949C42.5805 40.2502 42.7313 40.0692 42.9002 39.8521C43.0691 39.6349 43.2259 39.3333 43.3707 38.9473C43.5155 38.5612 43.612 38.1209 43.6602 37.6262V37.4091L43.6421 37.4272C43.618 37.4393 43.5878 37.4513 43.5516 37.4634C43.5155 37.4754 43.4793 37.4935 43.4431 37.5177C43.4069 37.5418 43.3526 37.5539 43.2802 37.5539C43.2078 37.5539 43.1354 37.5599 43.0631 37.572C42.7373 37.572 42.4719 37.4694 42.2668 37.2643L41.9411 36.9386Z" fill="black"/>
<path d="M55.0716 29.8088C54.7458 29.8088 54.4865 29.7003 54.2934 29.4831C54.1004 29.266 54.0039 29.0005 54.0039 28.6869C54.0039 27.8303 54.3236 27.0884 54.963 26.4611C55.6024 25.8337 56.3986 25.5201 57.3517 25.5201C58.4495 25.5201 59.3664 25.8579 60.1023 26.5335C60.8382 27.209 61.2121 28.0837 61.2242 29.1574C61.2242 29.6761 61.1036 30.1708 60.8623 30.6413C60.621 31.1117 60.3315 31.5219 59.9937 31.8718C59.6559 32.2216 59.1733 32.668 58.546 33.2109C58.1117 33.5849 57.5085 34.1398 56.7364 34.8757L55.6687 35.8891L57.044 35.9072C58.9381 35.9072 59.9454 35.877 60.0661 35.8167C60.1505 35.7926 60.2953 35.2557 60.5004 34.2062V34.1519H61.2242V34.2062C61.2121 34.2424 61.1337 34.7913 60.989 35.8529C60.8442 36.9145 60.7537 37.4695 60.7175 37.5177V37.572H54.0039V37.2282V37.011C54.0039 36.9266 54.0401 36.8361 54.1125 36.7396C54.1849 36.6431 54.3658 36.432 54.6554 36.1062C55.0052 35.7202 55.3068 35.3824 55.5602 35.0929C55.6687 34.9722 55.8738 34.749 56.1754 34.4233C56.477 34.0976 56.6821 33.8744 56.7907 33.7538C56.8993 33.6331 57.0742 33.4341 57.3155 33.1566C57.5568 32.8791 57.7257 32.674 57.8222 32.5413C57.9187 32.4086 58.0574 32.2277 58.2384 31.9985C58.4193 31.7692 58.546 31.5762 58.6184 31.4194C58.6908 31.2625 58.7813 31.0876 58.8898 30.8946C58.9984 30.7016 59.0768 30.5085 59.1251 30.3155C59.1733 30.1225 59.2156 29.9415 59.2517 29.7726C59.2879 29.6037 59.306 29.4047 59.306 29.1755C59.306 28.4154 59.1009 27.758 58.6908 27.203C58.2806 26.6481 57.6955 26.3706 56.9355 26.3706C56.5373 26.3706 56.1875 26.4731 55.8859 26.6782C55.5843 26.8833 55.3732 27.0824 55.2525 27.2754C55.1319 27.4684 55.0716 27.583 55.0716 27.6192C55.0716 27.6313 55.1017 27.6373 55.1621 27.6373C55.3792 27.6373 55.6024 27.7218 55.8316 27.8907C56.0608 28.0596 56.1754 28.337 56.1754 28.7231C56.1754 29.0247 56.0789 29.278 55.8859 29.4831C55.6929 29.6882 55.4214 29.7968 55.0716 29.8088Z" fill="#B33535"/>
<path d="M63.5586 36.9386C63.5586 36.9386 63.5586 36.7878 63.5586 36.4862C63.5586 36.1846 63.6551 35.9252 63.8481 35.7081C64.0412 35.4909 64.3005 35.3823 64.6263 35.3823C64.964 35.3823 65.2656 35.5331 65.5311 35.8347C65.7965 36.1363 65.9352 36.6672 65.9473 37.4272C65.9473 37.8494 65.893 38.2596 65.7844 38.6577C65.6758 39.0558 65.5492 39.3997 65.4044 39.6892C65.2596 39.9787 65.1028 40.226 64.9339 40.4311C64.765 40.6362 64.6202 40.7991 64.4996 40.9197C64.3789 41.0404 64.3005 41.0946 64.2643 41.0826C64.2161 41.0826 64.1377 41.0283 64.0291 40.9197C63.9205 40.8111 63.8662 40.7327 63.8662 40.6845C63.8662 40.6362 63.9326 40.5397 64.0653 40.3949C64.198 40.2502 64.3488 40.0692 64.5177 39.8521C64.6866 39.6349 64.8434 39.3333 64.9882 38.9473C65.1329 38.5612 65.2295 38.1209 65.2777 37.6262V37.4091L65.2596 37.4272C65.2355 37.4393 65.2053 37.4513 65.1691 37.4634C65.1329 37.4754 65.0968 37.4935 65.0606 37.5177C65.0244 37.5418 64.9701 37.5539 64.8977 37.5539C64.8253 37.5539 64.7529 37.5599 64.6805 37.572C64.3548 37.572 64.0894 37.4694 63.8843 37.2643L63.5586 36.9386Z" fill="black"/>
<path d="M76.6908 29.8088C76.3651 29.8088 76.1057 29.7003 75.9127 29.4831C75.7197 29.266 75.6232 29.0005 75.6232 28.6869C75.6232 27.8303 75.9429 27.0884 76.5823 26.4611C77.2216 25.8337 78.0179 25.5201 78.9709 25.5201C80.0688 25.5201 80.9856 25.8579 81.7215 26.5335C82.4574 27.209 82.8314 28.0837 82.8435 29.1574C82.8435 29.6761 82.7228 30.1708 82.4816 30.6413C82.2403 31.1117 81.9507 31.5219 81.6129 31.8718C81.2752 32.2216 80.7926 32.668 80.1653 33.2109C79.731 33.5849 79.1278 34.1398 78.3557 34.8757L77.288 35.8891L78.6633 35.9072C80.5573 35.9072 81.5647 35.877 81.6853 35.8167C81.7698 35.7926 81.9145 35.2557 82.1196 34.2062V34.1519H82.8435V34.2062C82.8314 34.2424 82.753 34.7913 82.6082 35.8529C82.4635 36.9145 82.373 37.4695 82.3368 37.5177V37.572H75.6232V37.2282V37.011C75.6232 36.9266 75.6594 36.8361 75.7317 36.7396C75.8041 36.6431 75.9851 36.432 76.2746 36.1062C76.6245 35.7202 76.9261 35.3824 77.1794 35.0929C77.288 34.9722 77.4931 34.749 77.7947 34.4233C78.0963 34.0976 78.3014 33.8744 78.41 33.7538C78.5185 33.6331 78.6935 33.4341 78.9347 33.1566C79.176 32.8791 79.3449 32.674 79.4414 32.5413C79.5379 32.4086 79.6767 32.2277 79.8576 31.9985C80.0386 31.7692 80.1653 31.5762 80.2376 31.4194C80.31 31.2625 80.4005 31.0876 80.5091 30.8946C80.6177 30.7016 80.6961 30.5085 80.7443 30.3155C80.7926 30.1225 80.8348 29.9415 80.871 29.7726C80.9072 29.6037 80.9253 29.4047 80.9253 29.1755C80.9253 28.4154 80.7202 27.758 80.31 27.203C79.8999 26.6481 79.3148 26.3706 78.5547 26.3706C78.1566 26.3706 77.8068 26.4731 77.5052 26.6782C77.2036 26.8833 76.9924 27.0824 76.8718 27.2754C76.7512 27.4684 76.6908 27.583 76.6908 27.6192C76.6908 27.6313 76.721 27.6373 76.7813 27.6373C76.9985 27.6373 77.2216 27.7218 77.4509 27.8907C77.6801 28.0596 77.7947 28.337 77.7947 28.7231C77.7947 29.0247 77.6982 29.278 77.5052 29.4831C77.3121 29.6882 77.0407 29.7968 76.6908 29.8088Z" fill="#3BB335"/>
<path d="M85.1779 36.9386C85.1779 36.9386 85.1779 36.7878 85.1779 36.4862C85.1779 36.1846 85.2744 35.9252 85.4674 35.7081C85.6604 35.4909 85.9198 35.3823 86.2455 35.3823C86.5833 35.3823 86.8849 35.5331 87.1503 35.8347C87.4157 36.1363 87.5545 36.6672 87.5665 37.4272C87.5665 37.8494 87.5122 38.2596 87.4037 38.6577C87.2951 39.0558 87.1684 39.3997 87.0236 39.6892C86.8789 39.9787 86.722 40.226 86.5532 40.4311C86.3843 40.6362 86.2395 40.7991 86.1188 40.9197C85.9982 41.0404 85.9198 41.0946 85.8836 41.0826C85.8353 41.0826 85.7569 41.0283 85.6484 40.9197C85.5398 40.8111 85.4855 40.7327 85.4855 40.6845C85.4855 40.6362 85.5518 40.5397 85.6845 40.3949C85.8172 40.2502 85.968 40.0692 86.1369 39.8521C86.3058 39.6349 86.4627 39.3333 86.6074 38.9473C86.7522 38.5612 86.8487 38.1209 86.897 37.6262V37.4091L86.8789 37.4272C86.8548 37.4393 86.8246 37.4513 86.7884 37.4634C86.7522 37.4754 86.716 37.4935 86.6798 37.5177C86.6436 37.5418 86.5893 37.5539 86.517 37.5539C86.4446 37.5539 86.3722 37.5599 86.2998 37.572C85.9741 37.572 85.7087 37.4694 85.5036 37.2643L85.1779 36.9386Z" fill="black"/>
<path d="M100.192 27.1125L99.9569 27.203C99.788 27.2633 99.5467 27.3237 99.233 27.384C98.9194 27.4443 98.5695 27.4865 98.1835 27.5106H97.8396V26.6782H98.1835C98.7505 26.6541 99.2753 26.5636 99.7578 26.4068C100.24 26.25 100.578 26.1052 100.771 25.9725C100.964 25.8398 101.133 25.7071 101.278 25.5744C101.302 25.5382 101.374 25.5201 101.495 25.5201C101.604 25.5201 101.706 25.5563 101.803 25.6287V31.0394L101.821 36.4682C101.905 36.5526 101.978 36.6069 102.038 36.631C102.098 36.6552 102.243 36.6793 102.472 36.7034C102.701 36.7275 103.075 36.7396 103.594 36.7396H104.065V37.572H103.866C103.612 37.5358 102.653 37.5177 100.988 37.5177C99.3476 37.5177 98.4006 37.5358 98.1473 37.572H97.9301V36.7396H98.4006C98.666 36.7396 98.8952 36.7396 99.0883 36.7396C99.2813 36.7396 99.4321 36.7336 99.5407 36.7215C99.6492 36.7094 99.7458 36.6913 99.8302 36.6672C99.9147 36.6431 99.9629 36.631 99.975 36.631C99.987 36.631 100.023 36.6009 100.084 36.5405C100.144 36.4802 100.18 36.4561 100.192 36.4682V27.1125Z" fill="#355FB3"/>
<path d="M106.797 36.9386C106.797 36.9386 106.797 36.7878 106.797 36.4862C106.797 36.1846 106.894 35.9252 107.087 35.7081C107.28 35.4909 107.539 35.3823 107.865 35.3823C108.203 35.3823 108.504 35.5331 108.77 35.8347C109.035 36.1363 109.174 36.6672 109.186 37.4272C109.186 37.8494 109.132 38.2596 109.023 38.6577C108.914 39.0558 108.788 39.3997 108.643 39.6892C108.498 39.9787 108.341 40.226 108.172 40.4311C108.004 40.6362 107.859 40.7991 107.738 40.9197C107.618 41.0404 107.539 41.0946 107.503 41.0826C107.455 41.0826 107.376 41.0283 107.268 40.9197C107.159 40.8111 107.105 40.7327 107.105 40.6845C107.105 40.6362 107.171 40.5397 107.304 40.3949C107.437 40.2502 107.587 40.0692 107.756 39.8521C107.925 39.6349 108.082 39.3333 108.227 38.9473C108.372 38.5612 108.468 38.1209 108.516 37.6262V37.4091L108.498 37.4272C108.474 37.4393 108.444 37.4513 108.408 37.4634C108.372 37.4754 108.335 37.4935 108.299 37.5177C108.263 37.5418 108.209 37.5539 108.136 37.5539C108.064 37.5539 107.992 37.5599 107.919 37.572C107.593 37.572 107.328 37.4694 107.123 37.2643L106.797 36.9386Z" fill="black"/>
<path d="M121.81 27.1125L121.574 27.203C121.405 27.2633 121.164 27.3237 120.851 27.384C120.537 27.4443 120.187 27.4865 119.801 27.5106H119.457V26.6782H119.801C120.368 26.6541 120.893 26.5636 121.375 26.4068C121.858 26.25 122.196 26.1052 122.389 25.9725C122.582 25.8398 122.751 25.7071 122.895 25.5744C122.919 25.5382 122.992 25.5201 123.113 25.5201C123.221 25.5201 123.324 25.5563 123.42 25.6287V31.0394L123.438 36.4682C123.523 36.5526 123.595 36.6069 123.655 36.631C123.716 36.6552 123.86 36.6793 124.09 36.7034C124.319 36.7275 124.693 36.7396 125.212 36.7396H125.682V37.572H125.483C125.23 37.5358 124.271 37.5177 122.606 37.5177C120.965 37.5177 120.018 37.5358 119.765 37.572H119.548V36.7396H120.018C120.284 36.7396 120.513 36.7396 120.706 36.7396C120.899 36.7396 121.05 36.7336 121.158 36.7215C121.267 36.7094 121.363 36.6913 121.448 36.6672C121.532 36.6431 121.58 36.631 121.592 36.631C121.605 36.631 121.641 36.6009 121.701 36.5405C121.761 36.4802 121.798 36.4561 121.81 36.4682V27.1125Z" fill="#B39735"/>
<path d="M128.415 36.9386C128.415 36.9386 128.415 36.7878 128.415 36.4862C128.415 36.1846 128.511 35.9252 128.704 35.7081C128.897 35.4909 129.157 35.3823 129.482 35.3823C129.82 35.3823 130.122 35.5331 130.387 35.8347C130.653 36.1363 130.791 36.6672 130.803 37.4272C130.803 37.8494 130.749 38.2596 130.64 38.6577C130.532 39.0558 130.405 39.3997 130.26 39.6892C130.116 39.9787 129.959 40.226 129.79 40.4311C129.621 40.6362 129.476 40.7991 129.356 40.9197C129.235 41.0404 129.157 41.0946 129.12 41.0826C129.072 41.0826 128.994 41.0283 128.885 40.9197C128.777 40.8111 128.722 40.7327 128.722 40.6845C128.722 40.6362 128.789 40.5397 128.921 40.3949C129.054 40.2502 129.205 40.0692 129.374 39.8521C129.543 39.6349 129.699 39.3333 129.844 38.9473C129.989 38.5612 130.086 38.1209 130.134 37.6262V37.4091L130.116 37.4272C130.092 37.4393 130.061 37.4513 130.025 37.4634C129.989 37.4754 129.953 37.4935 129.917 37.5177C129.88 37.5418 129.826 37.5539 129.754 37.5539C129.681 37.5539 129.609 37.5599 129.537 37.572C129.211 37.572 128.945 37.4694 128.74 37.2643L128.415 36.9386Z" fill="black"/>
<path d="M141.547 29.8088C141.221 29.8088 140.962 29.7003 140.769 29.4831C140.576 29.266 140.479 29.0005 140.479 28.6869C140.479 27.8303 140.799 27.0884 141.438 26.4611C142.078 25.8337 142.874 25.5201 143.827 25.5201C144.925 25.5201 145.842 25.8579 146.578 26.5335C147.314 27.209 147.687 28.0837 147.7 29.1574C147.7 29.6761 147.579 30.1708 147.338 30.6413C147.096 31.1117 146.807 31.5219 146.469 31.8718C146.131 32.2216 145.649 32.668 145.021 33.2109C144.587 33.5849 143.984 34.1398 143.212 34.8757L142.144 35.8891L143.519 35.9072C145.413 35.9072 146.421 35.877 146.541 35.8167C146.626 35.7926 146.771 35.2557 146.976 34.2062V34.1519H147.7V34.2062C147.687 34.2424 147.609 34.7913 147.464 35.8529C147.32 36.9145 147.229 37.4695 147.193 37.5177V37.572H140.479V37.2282V37.011C140.479 36.9266 140.515 36.8361 140.588 36.7396C140.66 36.6431 140.841 36.432 141.131 36.1062C141.481 35.7202 141.782 35.3824 142.036 35.0929C142.144 34.9722 142.349 34.749 142.651 34.4233C142.952 34.0976 143.157 33.8744 143.266 33.7538C143.375 33.6331 143.55 33.4341 143.791 33.1566C144.032 32.8791 144.201 32.674 144.298 32.5413C144.394 32.4086 144.533 32.2277 144.714 31.9985C144.895 31.7692 145.021 31.5762 145.094 31.4194C145.166 31.2625 145.257 31.0876 145.365 30.8946C145.474 30.7016 145.552 30.5085 145.6 30.3155C145.649 30.1225 145.691 29.9415 145.727 29.7726C145.763 29.6037 145.781 29.4047 145.781 29.1755C145.781 28.4154 145.576 27.758 145.166 27.203C144.756 26.6481 144.171 26.3706 143.411 26.3706C143.013 26.3706 142.663 26.4731 142.361 26.6782C142.06 26.8833 141.849 27.0824 141.728 27.2754C141.607 27.4684 141.547 27.583 141.547 27.6192C141.547 27.6313 141.577 27.6373 141.637 27.6373C141.855 27.6373 142.078 27.7218 142.307 27.8907C142.536 28.0596 142.651 28.337 142.651 28.7231C142.651 29.0247 142.554 29.278 142.361 29.4831C142.168 29.6882 141.897 29.7968 141.547 29.8088Z" fill="#B33535"/>
<path d="M150.034 36.9386C150.034 36.9386 150.034 36.7878 150.034 36.4862C150.034 36.1846 150.13 35.9252 150.323 35.7081C150.516 35.4909 150.776 35.3823 151.102 35.3823C151.439 35.3823 151.741 35.5331 152.006 35.8347C152.272 36.1363 152.411 36.6672 152.423 37.4272C152.423 37.8494 152.368 38.2596 152.26 38.6577C152.151 39.0558 152.024 39.3997 151.88 39.6892C151.735 39.9787 151.578 40.226 151.409 40.4311C151.24 40.6362 151.096 40.7991 150.975 40.9197C150.854 41.0404 150.776 41.0946 150.74 41.0826C150.691 41.0826 150.613 41.0283 150.504 40.9197C150.396 40.8111 150.342 40.7327 150.342 40.6845C150.342 40.6362 150.408 40.5397 150.541 40.3949C150.673 40.2502 150.824 40.0692 150.993 39.8521C151.162 39.6349 151.319 39.3333 151.464 38.9473C151.608 38.5612 151.705 38.1209 151.753 37.6262V37.4091L151.735 37.4272C151.711 37.4393 151.681 37.4513 151.644 37.4634C151.608 37.4754 151.572 37.4935 151.536 37.5177C151.5 37.5418 151.445 37.5539 151.373 37.5539C151.301 37.5539 151.228 37.5599 151.156 37.572C150.83 37.572 150.565 37.4694 150.36 37.2643L150.034 36.9386Z" fill="black"/>
<path d="M163.166 29.8088C162.84 29.8088 162.581 29.7003 162.388 29.4831C162.195 29.266 162.099 29.0005 162.099 28.6869C162.099 27.8303 162.418 27.0884 163.058 26.4611C163.697 25.8337 164.493 25.5201 165.446 25.5201C166.544 25.5201 167.461 25.8579 168.197 26.5335C168.933 27.209 169.307 28.0837 169.319 29.1574C169.319 29.6761 169.198 30.1708 168.957 30.6413C168.716 31.1117 168.426 31.5219 168.088 31.8718C167.751 32.2216 167.268 32.668 166.641 33.2109C166.206 33.5849 165.603 34.1398 164.831 34.8757L163.763 35.8891L165.139 35.9072C167.033 35.9072 168.04 35.877 168.161 35.8167C168.245 35.7926 168.39 35.2557 168.595 34.2062V34.1519H169.319V34.2062C169.307 34.2424 169.228 34.7913 169.084 35.8529C168.939 36.9145 168.848 37.4695 168.812 37.5177V37.572H162.099V37.2282V37.011C162.099 36.9266 162.135 36.8361 162.207 36.7396C162.28 36.6431 162.46 36.432 162.75 36.1062C163.1 35.7202 163.401 35.3824 163.655 35.0929C163.763 34.9722 163.968 34.749 164.27 34.4233C164.572 34.0976 164.777 33.8744 164.885 33.7538C164.994 33.6331 165.169 33.4341 165.41 33.1566C165.651 32.8791 165.82 32.674 165.917 32.5413C166.013 32.4086 166.152 32.2277 166.333 31.9985C166.514 31.7692 166.641 31.5762 166.713 31.4194C166.785 31.2625 166.876 31.0876 166.984 30.8946C167.093 30.7016 167.171 30.5085 167.22 30.3155C167.268 30.1225 167.31 29.9415 167.346 29.7726C167.383 29.6037 167.401 29.4047 167.401 29.1755C167.401 28.4154 167.196 27.758 166.785 27.203C166.375 26.6481 165.79 26.3706 165.03 26.3706C164.632 26.3706 164.282 26.4731 163.981 26.6782C163.679 26.8833 163.468 27.0824 163.347 27.2754C163.227 27.4684 163.166 27.583 163.166 27.6192C163.166 27.6313 163.196 27.6373 163.257 27.6373C163.474 27.6373 163.697 27.7218 163.926 27.8907C164.155 28.0596 164.27 28.337 164.27 28.7231C164.27 29.0247 164.174 29.278 163.981 29.4831C163.788 29.6882 163.516 29.7968 163.166 29.8088Z" fill="#3BB335"/>
<path d="M175.851 24.018L175.924 23.9999C175.984 23.9999 176.045 23.9999 176.105 23.9999H176.322L176.829 24.4343C177.963 25.4597 178.789 26.7385 179.308 28.2706C179.827 29.8027 180.086 31.3952 180.086 33.0479C180.086 33.8683 180.026 34.6585 179.905 35.4185C179.784 36.1786 179.646 36.824 179.489 37.3548C179.332 37.8856 179.109 38.4164 178.819 38.9472C178.53 39.4781 178.3 39.8822 178.132 40.1597C177.963 40.4371 177.715 40.7448 177.39 41.0826C177.064 41.4204 176.871 41.6194 176.811 41.6797C176.75 41.7401 176.612 41.8547 176.394 42.0236C176.358 42.0598 176.334 42.0839 176.322 42.0959H176.105C176.008 42.0959 175.942 42.0959 175.906 42.0959C175.87 42.0959 175.839 42.0779 175.815 42.0417C175.791 42.0055 175.773 41.9512 175.761 41.8788C175.773 41.8667 175.839 41.7883 175.96 41.6435C177.83 39.7012 178.765 36.836 178.765 33.0479C178.765 29.2599 177.83 26.3947 175.96 24.4523C175.839 24.3076 175.773 24.2292 175.761 24.2171C175.761 24.1206 175.791 24.0542 175.851 24.018Z" fill="black"/>
<path d="M16.2339 11.2168H11.7661L10.7627 14H9.3125L13.3848 3.33594H14.6152L18.6948 14H17.252L16.2339 11.2168ZM12.1909 10.0596H15.8164L14 5.07178L12.1909 10.0596Z" fill="#355FB3"/>
<path d="M32.5649 14V3.33594H36.0513C37.2085 3.33594 38.0776 3.5752 38.6587 4.05371C39.2446 4.53223 39.5376 5.24023 39.5376 6.17773C39.5376 6.67578 39.396 7.11768 39.1128 7.50342C38.8296 7.88428 38.4438 8.17969 37.9556 8.38965C38.5317 8.55078 38.9858 8.8584 39.3179 9.3125C39.6548 9.76172 39.8232 10.2988 39.8232 10.9238C39.8232 11.8809 39.5132 12.6328 38.8931 13.1797C38.2729 13.7266 37.3965 14 36.2637 14H32.5649ZM33.9712 9.01221V12.8501H36.293C36.9473 12.8501 37.4624 12.6816 37.8384 12.3447C38.2192 12.0029 38.4097 11.5342 38.4097 10.9385C38.4097 9.6543 37.7114 9.01221 36.3149 9.01221H33.9712ZM33.9712 7.88428H36.0952C36.7104 7.88428 37.2012 7.73047 37.5674 7.42285C37.9385 7.11523 38.124 6.69775 38.124 6.17041C38.124 5.58447 37.9531 5.15967 37.6113 4.896C37.2695 4.62744 36.7495 4.49316 36.0513 4.49316H33.9712V7.88428Z" fill="#355FB3"/>
<path d="M62.1968 10.6162C62.0649 11.7441 61.6475 12.6157 60.9443 13.231C60.2461 13.8413 59.3159 14.1465 58.1538 14.1465C56.894 14.1465 55.8833 13.6948 55.1216 12.7915C54.3647 11.8882 53.9863 10.6797 53.9863 9.16602V8.14062C53.9863 7.14941 54.1621 6.27783 54.5137 5.52588C54.8701 4.77393 55.373 4.19775 56.0225 3.79736C56.6719 3.39209 57.4238 3.18945 58.2783 3.18945C59.4111 3.18945 60.3193 3.50684 61.0029 4.1416C61.6865 4.77148 62.0845 5.64551 62.1968 6.76367H60.7832C60.6611 5.91406 60.395 5.29883 59.9849 4.91797C59.5796 4.53711 59.0107 4.34668 58.2783 4.34668C57.3799 4.34668 56.6743 4.67871 56.1616 5.34277C55.6538 6.00684 55.3999 6.95166 55.3999 8.17725V9.20996C55.3999 10.3672 55.6416 11.2876 56.125 11.9712C56.6084 12.6548 57.2847 12.9966 58.1538 12.9966C58.9351 12.9966 59.5332 12.8208 59.9482 12.4692C60.3682 12.1128 60.6465 11.4951 60.7832 10.6162H62.1968Z" fill="#B33535"/>
<path d="M75.3159 14V3.33594H78.3262C79.2539 3.33594 80.0742 3.54102 80.7871 3.95117C81.5 4.36133 82.0493 4.94482 82.4351 5.70166C82.8257 6.4585 83.0234 7.32764 83.0283 8.30908V8.99023C83.0283 9.99609 82.833 10.8774 82.4424 11.6343C82.0566 12.3911 81.5024 12.9722 80.7798 13.3774C80.062 13.7827 79.2246 13.9902 78.2676 14H75.3159ZM76.7222 4.49316V12.8501H78.2017C79.2856 12.8501 80.1279 12.5132 80.7285 11.8394C81.334 11.1655 81.6367 10.2061 81.6367 8.96094V8.33838C81.6367 7.12744 81.3511 6.1875 80.7798 5.51855C80.2134 4.84473 79.4077 4.50293 78.3628 4.49316H76.7222Z" fill="#3BB335"/>
<path d="M103.503 9.0708H98.8813V12.8501H104.25V14H97.4751V3.33594H104.177V4.49316H98.8813V7.9209H103.503V9.0708Z" fill="#355FB3"/>
<path d="M125.474 9.29053H120.999V14H119.592V3.33594H126.199V4.49316H120.999V8.14062H125.474V9.29053Z" fill="#B39735"/>
<path d="M147.499 12.6011C147.138 13.1187 146.632 13.5068 145.983 13.7656C145.338 14.0195 144.586 14.1465 143.727 14.1465C142.858 14.1465 142.086 13.9438 141.413 13.5386C140.739 13.1284 140.216 12.5474 139.845 11.7954C139.479 11.0435 139.291 10.1719 139.281 9.18066V8.25049C139.281 6.64404 139.655 5.39893 140.402 4.51514C141.154 3.63135 142.208 3.18945 143.566 3.18945C144.679 3.18945 145.575 3.4751 146.254 4.04639C146.933 4.61279 147.348 5.41846 147.499 6.46338H146.093C145.829 5.05225 144.989 4.34668 143.573 4.34668C142.631 4.34668 141.916 4.67871 141.427 5.34277C140.944 6.00195 140.7 6.95898 140.695 8.21387V9.08545C140.695 10.2817 140.968 11.2339 141.515 11.9419C142.062 12.645 142.802 12.9966 143.734 12.9966C144.262 12.9966 144.723 12.938 145.119 12.8208C145.514 12.7036 145.841 12.5059 146.1 12.2275V9.83252H143.632V8.68994H147.499V12.6011Z" fill="#B33535"/>
<path d="M169.587 14H168.173V9.0708H162.797V14H161.391V3.33594H162.797V7.9209H168.173V3.33594H169.587V14Z" fill="#3BB335"/>
</svg>
