<svg width="554" height="207" viewBox="0 0 554 207" fill="none" xmlns="http://www.w3.org/2000/svg">
<path d="M208 119.5C208 167.192 165.775 206 113.5 206C61.2249 206 19 167.192 19 119.5C19 71.8079 61.2249 33 113.5 33C165.775 33 208 71.8079 208 119.5Z" stroke="#B33535" stroke-width="2"/>
<circle cx="111" cy="119" r="15" fill="#DC8989"/>
<circle cx="61" cy="81" r="15" fill="#DC8989"/>
<circle cx="50" cy="136" r="15" fill="#DC8989"/>
<circle cx="93" cy="174" r="15" fill="#DC8989"/>
<circle cx="146" cy="178" r="15" fill="#DC8989"/>
<circle cx="175" cy="139" r="15" fill="#DC8989"/>
<circle cx="162" cy="88" r="15" fill="#DC8989"/>
<circle cx="122" cy="56" r="15" fill="#DC8989"/>
<path d="M498.145 124.962C497.671 125.63 496.986 126.227 496.125 126.227C495.914 126.227 495.071 126.192 494.808 125.384C494.861 125.401 494.948 125.401 494.983 125.401C495.51 125.401 495.862 124.945 495.862 124.541C495.862 124.137 495.528 123.996 495.264 123.996C494.983 123.996 494.369 124.207 494.369 125.068C494.369 125.963 495.124 126.578 496.125 126.578C497.881 126.578 499.655 124.962 500.147 123.013L501.868 116.163C501.886 116.076 501.921 115.97 501.921 115.865C501.921 115.601 501.71 115.426 501.446 115.426C501.288 115.426 500.92 115.496 500.779 116.023L499.479 121.186C499.392 121.502 499.392 121.537 499.251 121.731C498.9 122.222 498.32 122.82 497.477 122.82C496.494 122.82 496.406 121.854 496.406 121.379C496.406 120.378 496.88 119.026 497.354 117.762C497.548 117.252 497.653 117.006 497.653 116.655C497.653 115.918 497.126 115.25 496.266 115.25C494.65 115.25 494 117.797 494 117.937C494 118.007 494.07 118.095 494.193 118.095C494.351 118.095 494.369 118.025 494.439 117.779C494.861 116.304 495.528 115.601 496.213 115.601C496.371 115.601 496.67 115.601 496.67 116.181C496.67 116.638 496.476 117.147 496.213 117.814C495.352 120.115 495.352 120.694 495.352 121.116C495.352 122.784 496.547 123.171 497.425 123.171C497.934 123.171 498.566 123.013 499.181 122.363L499.198 122.38C498.935 123.417 498.759 124.102 498.145 124.962Z" fill="black"/>
<path d="M517.012 118.956C517.311 118.956 517.627 118.956 517.627 118.605C517.627 118.253 517.311 118.253 517.012 118.253H509.565C509.776 115.9 511.796 114.214 514.272 114.214H517.012C517.311 114.214 517.627 114.214 517.627 113.863C517.627 113.511 517.311 113.511 517.012 113.511H514.237C511.234 113.511 508.845 115.795 508.845 118.605C508.845 121.415 511.234 123.698 514.237 123.698H517.012C517.311 123.698 517.627 123.698 517.627 123.346C517.627 122.995 517.311 122.995 517.012 122.995H514.272C511.796 122.995 509.776 121.309 509.565 118.956H517.012Z" fill="black"/>
<path d="M531.096 121.292C531.149 120.624 531.166 119.676 531.166 119.184C531.166 117.34 531.079 111 527.408 111C526.196 111 525.125 112.071 525.125 112.335C525.125 112.475 525.265 112.475 525.301 112.475C525.406 112.475 525.95 112.387 526.337 111.878C527.882 111.896 528.883 113.037 529.41 115.25C529.744 116.655 529.867 118.218 529.867 119.816C529.867 120.87 529.797 122.082 529.779 122.31C529.761 122.451 529.761 122.486 529.726 122.503C529.691 122.539 527.935 124.014 527.074 124.014C526.934 124.014 525.511 124.014 525.178 122.556C525.142 122.433 525.125 122.328 525.02 122.328C524.809 122.328 524.475 122.925 524.475 123.364C524.475 124.084 525.142 125.366 526.635 125.366C527.97 125.366 530.868 122.784 532.396 121.011C535.908 116.971 536.523 113.95 536.523 113.037C536.523 111.544 535.522 111 534.855 111C534.345 111 534.187 111.878 534.187 112.054C534.187 112.317 534.257 112.335 534.521 112.37C535.557 112.493 535.82 113.318 535.82 113.828C535.82 114.372 534.995 117.498 531.096 121.292Z" fill="black"/>
<path d="M9.816 121.67C9.816 121.396 9.56488 121.396 9.33661 121.396C8.97137 121.396 8.94853 121.419 8.8344 121.693C8.6746 122.127 8.05825 123.656 5.95809 123.656C2.73935 123.656 2.73935 120.186 2.73935 119.159C2.73935 117.812 2.76217 114.822 5.75263 114.822C5.91242 114.822 7.25927 114.867 7.25927 114.982C7.25927 115.004 7.23643 115.027 7.19078 115.05C7.12231 115.119 6.82554 115.461 6.82554 116.032C6.82554 116.99 7.60169 117.379 8.17239 117.379C8.65178 117.379 9.51923 117.082 9.51923 116.009C9.51923 114.137 6.89403 114 5.66132 114C1.59796 114 0 116.648 0 119.273C0 122.378 2.16866 124.478 5.52436 124.478C9.10833 124.478 9.816 121.83 9.816 121.67Z" fill="#B33535"/>
<path d="M61.8351 76.5797C61.273 76.6851 61.0622 77.1068 61.0622 77.4405C61.0622 77.8622 61.396 78.0027 61.6419 78.0027C62.1689 78.0027 62.5379 77.546 62.5379 77.0716C62.5379 76.3338 61.6946 76 60.9568 76C59.8851 76 59.2878 77.0541 59.1297 77.3878C58.7257 76.0703 57.6365 76 57.3203 76C55.5284 76 54.5797 78.3014 54.5797 78.6878C54.5797 78.7581 54.65 78.846 54.773 78.846C54.9135 78.846 54.9486 78.7405 54.9838 78.6703C55.5811 76.7203 56.7581 76.3513 57.2676 76.3513C58.0581 76.3513 58.2162 77.0892 58.2162 77.5108C58.2162 77.8973 58.1108 78.3014 57.9 79.1446L57.3027 81.5514C57.0392 82.6054 56.5297 83.5716 55.5987 83.5716C55.5108 83.5716 55.0716 83.5716 54.7027 83.3433C55.3351 83.2203 55.4757 82.6933 55.4757 82.4824C55.4757 82.1311 55.2122 81.9203 54.8784 81.9203C54.4568 81.9203 54 82.2892 54 82.8514C54 83.5892 54.8257 83.923 55.5811 83.923C56.4243 83.923 57.0216 83.2554 57.3905 82.5351C57.6716 83.5716 58.55 83.923 59.2 83.923C60.9919 83.923 61.9405 81.6216 61.9405 81.2351C61.9405 81.1473 61.8703 81.077 61.7649 81.077C61.6068 81.077 61.5892 81.1649 61.5365 81.3054C61.0622 82.8514 60.0432 83.5716 59.2527 83.5716C58.6378 83.5716 58.3041 83.1149 58.3041 82.3946C58.3041 82.0081 58.3743 81.727 58.6554 80.5676L59.2703 78.1784C59.5338 77.1243 60.1311 76.3513 60.9392 76.3513C60.9743 76.3513 61.4662 76.3513 61.8351 76.5797Z" fill="black"/>
<path d="M66.5492 83.9933C66.7366 83.8176 67.2285 83.4311 67.4159 83.2671C68.142 82.5996 68.833 81.9554 68.833 80.8897C68.833 79.496 67.6618 78.5942 66.1979 78.5942C64.7925 78.5942 63.8672 79.6599 63.8672 80.7023C63.8672 81.2762 64.324 81.3581 64.488 81.3581C64.7339 81.3581 65.097 81.1825 65.097 80.7374C65.097 80.1284 64.5114 80.1284 64.3709 80.1284C64.7105 79.2734 65.4952 78.9807 66.0691 78.9807C67.1582 78.9807 67.7204 79.9059 67.7204 80.8897C67.7204 82.1077 66.8654 82.9978 65.4835 84.4149L64.0078 85.9374C63.8672 86.0662 63.8672 86.0897 63.8672 86.3825H68.4934L68.833 84.2861H68.47C68.4348 84.5203 68.3411 85.1059 68.2006 85.3284C68.1303 85.4221 67.2402 85.4221 67.0528 85.4221H64.9682L66.5492 83.9933Z" fill="black"/>
<path d="M162.834 83.5797C162.272 83.6851 162.062 84.1067 162.062 84.4404C162.062 84.862 162.395 85.0025 162.641 85.0025C163.168 85.0025 163.537 84.5458 163.537 84.0715C163.537 83.3338 162.694 83 161.956 83C160.885 83 160.287 84.054 160.129 84.3877C159.725 83.0703 158.636 83 158.32 83C156.528 83 155.58 85.3011 155.58 85.6876C155.58 85.7579 155.65 85.8457 155.773 85.8457C155.913 85.8457 155.949 85.7403 155.984 85.67C156.581 83.7202 157.758 83.3513 158.267 83.3513C159.058 83.3513 159.216 84.0891 159.216 84.5107C159.216 84.8971 159.11 85.3011 158.9 86.1443L158.302 88.5508C158.039 89.6048 157.53 90.5709 156.599 90.5709C156.511 90.5709 156.072 90.5709 155.703 90.3426C156.335 90.2196 156.476 89.6926 156.476 89.4818C156.476 89.1305 156.212 88.9197 155.878 88.9197C155.457 88.9197 155 89.2886 155 89.8507C155 90.5885 155.826 90.9223 156.581 90.9223C157.424 90.9223 158.021 90.2547 158.39 89.5345C158.671 90.5709 159.55 90.9223 160.2 90.9223C161.991 90.9223 162.94 88.6211 162.94 88.2347C162.94 88.1468 162.87 88.0766 162.764 88.0766C162.606 88.0766 162.589 88.1644 162.536 88.3049C162.062 89.8507 161.043 90.5709 160.252 90.5709C159.637 90.5709 159.304 90.1142 159.304 89.394C159.304 89.0076 159.374 88.7265 159.655 87.5671L160.27 85.1782C160.533 84.1242 161.131 83.3513 161.939 83.3513C161.974 83.3513 162.466 83.3513 162.834 83.5797Z" fill="black"/>
<path d="M167.208 89.4701C168.134 89.4701 168.719 90.1494 168.719 91.379C168.719 92.8428 167.888 93.2761 167.267 93.2761C166.623 93.2761 165.745 93.0419 165.335 92.4212C165.756 92.4212 166.049 92.1519 166.049 91.7654C166.049 91.3907 165.78 91.1214 165.405 91.1214C165.089 91.1214 164.761 91.3204 164.761 91.7889C164.761 92.9014 165.955 93.6274 167.29 93.6274C168.848 93.6274 169.937 92.5501 169.937 91.379C169.937 90.407 169.164 89.517 167.97 89.2594C168.895 88.9315 169.586 88.1351 169.586 87.1983C169.586 86.2614 168.532 85.5939 167.314 85.5939C166.061 85.5939 165.112 86.2731 165.112 87.1632C165.112 87.5964 165.405 87.7838 165.709 87.7838C166.073 87.7838 166.307 87.5262 166.307 87.1866C166.307 86.7533 165.932 86.5893 165.674 86.5776C166.166 85.9335 167.068 85.8984 167.279 85.8984C167.583 85.8984 168.473 85.9921 168.473 87.1983C168.473 88.018 168.134 88.5099 167.97 88.6973C167.618 89.0603 167.349 89.0837 166.635 89.1305C166.412 89.1423 166.318 89.154 166.318 89.3062C166.318 89.4701 166.424 89.4701 166.623 89.4701H167.208Z" fill="black"/>
<path d="M110.83 114.579C110.268 114.685 110.058 115.106 110.058 115.44C110.058 115.861 110.391 116.001 110.637 116.001C111.164 116.001 111.533 115.545 111.533 115.071C111.533 114.334 110.69 114 109.952 114C108.882 114 108.285 115.053 108.127 115.387C107.723 114.07 106.634 114 106.318 114C104.527 114 103.579 116.3 103.579 116.686C103.579 116.756 103.65 116.844 103.772 116.844C103.913 116.844 103.948 116.739 103.983 116.669C104.58 114.72 105.756 114.351 106.266 114.351C107.056 114.351 107.214 115.089 107.214 115.51C107.214 115.896 107.108 116.3 106.898 117.143L106.301 119.548C106.037 120.601 105.528 121.567 104.598 121.567C104.51 121.567 104.071 121.567 103.702 121.339C104.334 121.216 104.475 120.689 104.475 120.478C104.475 120.127 104.211 119.917 103.878 119.917C103.456 119.917 103 120.285 103 120.847C103 121.585 103.825 121.918 104.58 121.918C105.423 121.918 106.02 121.251 106.388 120.531C106.669 121.567 107.547 121.918 108.197 121.918C109.988 121.918 110.936 119.618 110.936 119.232C110.936 119.144 110.865 119.074 110.76 119.074C110.602 119.074 110.585 119.162 110.532 119.302C110.058 120.847 109.04 121.567 108.249 121.567C107.635 121.567 107.301 121.11 107.301 120.391C107.301 120.004 107.372 119.723 107.653 118.565L108.267 116.177C108.53 115.124 109.127 114.351 109.935 114.351C109.97 114.351 110.462 114.351 110.83 114.579Z" fill="black"/>
<path d="M116.852 116.803C116.852 116.569 116.852 116.476 116.607 116.476C116.454 116.476 116.443 116.487 116.326 116.651L112.592 122.07V122.457H115.893V123.428C115.893 123.861 115.857 123.99 114.956 123.99H114.687V124.376C115.682 124.341 115.705 124.341 116.372 124.341C117.04 124.341 117.063 124.341 118.058 124.376V123.99H117.789C116.887 123.99 116.852 123.861 116.852 123.428V122.457H118.093V122.07H116.852V116.803ZM115.975 117.751V122.07H113.002L115.975 117.751Z" fill="black"/>
<path d="M50.8352 131.58C50.273 131.685 50.0622 132.107 50.0622 132.441C50.0622 132.862 50.396 133.003 50.6419 133.003C51.1689 133.003 51.5379 132.546 51.5379 132.072C51.5379 131.334 50.6946 131 49.9568 131C48.8852 131 48.2879 132.054 48.1297 132.388C47.7257 131.07 46.6365 131 46.3203 131C44.5284 131 43.5797 133.301 43.5797 133.688C43.5797 133.758 43.65 133.846 43.773 133.846C43.9135 133.846 43.9487 133.741 43.9838 133.67C44.5811 131.72 45.7581 131.351 46.2676 131.351C47.0581 131.351 47.2162 132.089 47.2162 132.511C47.2162 132.897 47.1108 133.301 46.9 134.145L46.3027 136.551C46.0392 137.605 45.5297 138.572 44.5987 138.572C44.5108 138.572 44.0716 138.572 43.7027 138.343C44.3351 138.22 44.4757 137.693 44.4757 137.482C44.4757 137.131 44.2122 136.92 43.8784 136.92C43.4568 136.92 43 137.289 43 137.851C43 138.589 43.8257 138.923 44.5811 138.923C45.4243 138.923 46.0216 138.255 46.3905 137.535C46.6716 138.572 47.55 138.923 48.2 138.923C49.9919 138.923 50.9406 136.622 50.9406 136.235C50.9406 136.147 50.8703 136.077 50.7649 136.077C50.6068 136.077 50.5892 136.165 50.5365 136.305C50.0622 137.851 49.0433 138.572 48.2527 138.572C47.6379 138.572 47.3041 138.115 47.3041 137.395C47.3041 137.008 47.3743 136.727 47.6554 135.568L48.2703 133.178C48.5338 132.124 49.1311 131.351 49.9392 131.351C49.9744 131.351 50.4662 131.351 50.8352 131.58Z" fill="black"/>
<path d="M53.8862 134.8C54.0384 134.847 54.5069 134.964 54.9988 134.964C56.4628 134.964 57.3529 133.934 57.3529 133.758C57.3529 133.629 57.2709 133.594 57.2123 133.594C57.1889 133.594 57.1655 133.594 57.0601 133.653C56.6033 133.828 56.0646 133.969 55.4321 133.969C54.7411 133.969 54.1673 133.793 53.8042 133.653C53.6871 133.594 53.6636 133.594 53.6519 133.594C53.4997 133.594 53.4997 133.723 53.4997 133.934V137.365C53.4997 137.576 53.4997 137.717 53.6871 137.717C53.7808 137.717 53.8159 137.67 53.8745 137.576C54.015 137.4 54.46 136.803 55.4555 136.803C56.1114 136.803 56.4276 137.342 56.533 137.564C56.7321 137.986 56.7555 138.525 56.7555 138.982C56.7555 139.415 56.7438 140.047 56.4159 140.563C56.1934 140.914 55.7249 141.277 55.1042 141.277C54.3429 141.277 53.5934 140.797 53.324 140.036C53.3591 140.047 53.4294 140.047 53.4411 140.047C53.769 140.047 54.0267 139.837 54.0267 139.473C54.0267 139.04 53.6871 138.888 53.4528 138.888C53.242 138.888 52.8672 139.005 52.8672 139.509C52.8672 140.563 53.7808 141.628 55.1276 141.628C56.5916 141.628 57.833 140.492 57.833 139.04C57.833 137.682 56.8492 136.475 55.4673 136.475C54.8817 136.475 54.3312 136.663 53.8862 137.061V134.8Z" fill="black"/>
<path d="M122.833 51.5796C122.271 51.6849 122.06 52.1065 122.06 52.4401C122.06 52.8617 122.394 53.0022 122.64 53.0022C123.167 53.0022 123.536 52.5455 123.536 52.0713C123.536 51.3337 122.693 51 121.955 51C120.884 51 120.286 52.0538 120.128 52.3875C119.724 51.0703 118.635 51 118.319 51C116.528 51 115.58 53.3007 115.58 53.6871C115.58 53.7574 115.65 53.8452 115.773 53.8452C115.913 53.8452 115.948 53.7398 115.984 53.6696C116.581 51.7201 117.757 51.3513 118.267 51.3513C119.057 51.3513 119.215 52.0889 119.215 52.5104C119.215 52.8968 119.11 53.3007 118.899 54.1438L118.302 56.5498C118.038 57.6036 117.529 58.5696 116.598 58.5696C116.51 58.5696 116.071 58.5696 115.703 58.3413C116.335 58.2183 116.475 57.6914 116.475 57.4807C116.475 57.1294 116.212 56.9187 115.878 56.9187C115.457 56.9187 115 57.2875 115 57.8495C115 58.5871 115.825 58.9208 116.581 58.9208C117.424 58.9208 118.021 58.2534 118.39 57.5334C118.671 58.5696 119.549 58.9208 120.199 58.9208C121.99 58.9208 122.938 56.6201 122.938 56.2337C122.938 56.1459 122.868 56.0756 122.763 56.0756C122.605 56.0756 122.587 56.1635 122.534 56.304C122.06 57.8495 121.042 58.5696 120.251 58.5696C119.637 58.5696 119.303 58.1129 119.303 57.3929C119.303 57.0065 119.373 56.7255 119.654 55.5663L120.269 53.1778C120.532 52.124 121.129 51.3513 121.937 51.3513C121.972 51.3513 122.464 51.3513 122.833 51.5796Z" fill="black"/>
<path d="M127.921 53.9213C127.921 53.6052 127.897 53.5935 127.581 53.5935C127.101 54.0618 126.48 54.3428 125.368 54.3428V54.7292C125.684 54.7292 126.316 54.7292 126.996 54.4131V60.4195C126.996 60.8528 126.96 60.9933 125.848 60.9933H125.438V61.3797C125.918 61.3445 126.925 61.3445 127.452 61.3445C127.979 61.3445 128.998 61.3445 129.478 61.3797V60.9933H129.068C127.956 60.9933 127.921 60.8528 127.921 60.4195V53.9213Z" fill="black"/>
<path d="M175.833 134.58C175.271 134.685 175.06 135.106 175.06 135.44C175.06 135.862 175.394 136.002 175.64 136.002C176.167 136.002 176.536 135.546 176.536 135.071C176.536 134.334 175.693 134 174.955 134C173.884 134 173.286 135.054 173.128 135.387C172.724 134.07 171.635 134 171.319 134C169.528 134 168.58 136.301 168.58 136.687C168.58 136.757 168.65 136.845 168.773 136.845C168.913 136.845 168.948 136.74 168.984 136.67C169.581 134.72 170.757 134.351 171.267 134.351C172.057 134.351 172.215 135.089 172.215 135.51C172.215 135.897 172.11 136.301 171.899 137.144L171.302 139.55C171.038 140.604 170.529 141.57 169.598 141.57C169.51 141.57 169.071 141.57 168.703 141.341C169.335 141.218 169.475 140.691 169.475 140.481C169.475 140.129 169.212 139.919 168.878 139.919C168.457 139.919 168 140.287 168 140.849C168 141.587 168.825 141.921 169.581 141.921C170.424 141.921 171.021 141.253 171.39 140.533C171.671 141.57 172.549 141.921 173.199 141.921C174.99 141.921 175.938 139.62 175.938 139.234C175.938 139.146 175.868 139.076 175.763 139.076C175.605 139.076 175.587 139.163 175.534 139.304C175.06 140.849 174.042 141.57 173.251 141.57C172.637 141.57 172.303 141.113 172.303 140.393C172.303 140.006 172.373 139.725 172.654 138.566L173.269 136.178C173.532 135.124 174.129 134.351 174.937 134.351C174.972 134.351 175.464 134.351 175.833 134.58Z" fill="black"/>
<path d="M178.86 140.504C178.86 139.532 178.942 138.678 179.363 137.963C179.715 137.378 180.312 136.898 181.049 136.898C181.283 136.898 181.822 136.933 182.091 137.343C181.564 137.366 181.518 137.764 181.518 137.893C181.518 138.244 181.787 138.443 182.068 138.443C182.279 138.443 182.618 138.315 182.618 137.87C182.618 137.167 182.091 136.593 181.038 136.593C179.41 136.593 177.759 138.139 177.759 140.668C177.759 143.841 179.234 144.626 180.37 144.626C180.932 144.626 181.541 144.473 182.068 143.97C182.536 143.513 182.934 143.021 182.934 142.003C182.934 140.469 181.775 139.392 180.476 139.392C179.633 139.392 179.129 139.93 178.86 140.504ZM180.37 144.274C179.75 144.274 179.363 143.841 179.188 143.513C178.918 142.986 178.895 142.19 178.895 141.745C178.895 140.586 179.527 139.72 180.429 139.72C181.014 139.72 181.365 140.024 181.588 140.434C181.834 140.867 181.834 141.394 181.834 141.991C181.834 142.588 181.834 143.103 181.6 143.525C181.295 144.064 180.885 144.274 180.37 144.274Z" fill="black"/>
<path d="M92.833 169.58C92.271 169.685 92.0602 170.106 92.0602 170.44C92.0602 170.862 92.3939 171.002 92.6398 171.002C93.1667 171.002 93.5355 170.546 93.5355 170.071C93.5355 169.334 92.6925 169 91.9549 169C90.8835 169 90.2864 170.054 90.1283 170.387C89.7244 169.07 88.6355 169 88.3194 169C86.528 169 85.5796 171.301 85.5796 171.687C85.5796 171.757 85.6498 171.845 85.7728 171.845C85.9133 171.845 85.9484 171.74 85.9835 171.67C86.5807 169.72 87.7574 169.351 88.2667 169.351C89.057 169.351 89.2151 170.089 89.2151 170.51C89.2151 170.897 89.1097 171.301 88.8989 172.144L88.3018 174.55C88.0384 175.604 87.529 176.57 86.5982 176.57C86.5104 176.57 86.0713 176.57 85.7025 176.341C86.3348 176.218 86.4753 175.691 86.4753 175.481C86.4753 175.129 86.2118 174.919 85.8781 174.919C85.4566 174.919 85 175.287 85 175.849C85 176.587 85.8255 176.921 86.5807 176.921C87.4237 176.921 88.0208 176.253 88.3896 175.533C88.6706 176.57 89.5488 176.921 90.1986 176.921C91.99 176.921 92.9384 174.62 92.9384 174.234C92.9384 174.146 92.8681 174.076 92.7628 174.076C92.6047 174.076 92.5871 174.163 92.5344 174.304C92.0602 175.849 91.0416 176.57 90.2513 176.57C89.6366 176.57 89.3029 176.113 89.3029 175.393C89.3029 175.006 89.3731 174.725 89.6541 173.566L90.2689 171.178C90.5323 170.124 91.1294 169.351 91.9373 169.351C91.9724 169.351 92.4642 169.351 92.833 169.58Z" fill="black"/>
<path d="M100.169 172.249C100.274 172.12 100.274 172.097 100.274 171.839H97.2999C97.0072 171.839 96.6443 171.828 96.3515 171.804C95.7427 171.757 95.731 171.652 95.6959 171.465H95.3329L94.9348 173.935H95.2978C95.3212 173.76 95.45 172.952 95.6139 172.858C95.7427 172.799 96.6208 172.799 96.7965 172.799H99.2787L98.0727 174.415C96.7379 176.195 96.4569 178.045 96.4569 178.97C96.4569 179.087 96.4569 179.626 97.0072 179.626C97.5575 179.626 97.5575 179.099 97.5575 178.958V178.396C97.5575 176.71 97.8385 175.329 98.4123 174.567L100.169 172.249Z" fill="black"/>
<path d="M146.833 173.58C146.271 173.685 146.06 174.106 146.06 174.44C146.06 174.862 146.394 175.002 146.64 175.002C147.167 175.002 147.536 174.546 147.536 174.071C147.536 173.334 146.693 173 145.955 173C144.884 173 144.286 174.054 144.128 174.387C143.724 173.07 142.635 173 142.319 173C140.528 173 139.58 175.301 139.58 175.687C139.58 175.757 139.65 175.845 139.773 175.845C139.913 175.845 139.948 175.74 139.984 175.67C140.581 173.72 141.757 173.351 142.267 173.351C143.057 173.351 143.215 174.089 143.215 174.51C143.215 174.897 143.11 175.301 142.899 176.144L142.302 178.55C142.038 179.604 141.529 180.57 140.598 180.57C140.51 180.57 140.071 180.57 139.703 180.341C140.335 180.218 140.475 179.691 140.475 179.481C140.475 179.129 140.212 178.919 139.878 178.919C139.457 178.919 139 179.287 139 179.849C139 180.587 139.825 180.921 140.581 180.921C141.424 180.921 142.021 180.253 142.39 179.533C142.671 180.57 143.549 180.921 144.199 180.921C145.99 180.921 146.938 178.62 146.938 178.234C146.938 178.146 146.868 178.076 146.763 178.076C146.605 178.076 146.587 178.163 146.534 178.304C146.06 179.849 145.042 180.57 144.251 180.57C143.637 180.57 143.303 180.113 143.303 179.393C143.303 179.006 143.373 178.725 143.654 177.566L144.269 175.178C144.532 174.124 145.129 173.351 145.937 173.351C145.972 173.351 146.464 173.351 146.833 173.58Z" fill="black"/>
<path d="M152.131 179.153C152.787 178.837 153.583 178.251 153.583 177.338C153.583 176.226 152.447 175.593 151.359 175.593C150.117 175.593 149.11 176.448 149.11 177.549C149.11 177.982 149.263 178.38 149.555 178.72C149.754 178.966 149.801 178.989 150.527 179.446C149.075 180.09 148.759 180.944 148.759 181.6C148.759 182.888 150.059 183.626 151.335 183.626C152.775 183.626 153.934 182.654 153.934 181.413C153.934 180.675 153.536 180.183 153.349 179.984C153.15 179.797 153.138 179.785 152.131 179.153ZM150.316 178.052C149.977 177.853 149.696 177.514 149.696 177.104C149.696 176.366 150.504 175.898 151.335 175.898C152.248 175.898 152.998 176.518 152.998 177.338C152.998 178.017 152.471 178.591 151.78 178.93L150.316 178.052ZM150.89 179.656C150.937 179.68 152.272 180.499 152.471 180.628C152.658 180.734 153.267 181.108 153.267 181.811C153.267 182.712 152.319 183.274 151.359 183.274C150.316 183.274 149.427 182.56 149.427 181.6C149.427 180.722 150.082 180.031 150.89 179.656Z" fill="black"/>
</svg>
