<svg width="384" height="174" viewBox="0 0 384 174" fill="none" xmlns="http://www.w3.org/2000/svg">
<path d="M49 69L9 125.5M49 69L129 102.018M49 69L6 26.5M49 69L91.8191 24.1598" stroke="#355FB3" stroke-width="2"/>
<circle cx="49" cy="69" r="9" fill="#8EA7D7"/>
<circle cx="91" cy="24" r="6" fill="#DC8989"/>
<circle cx="129" cy="102" r="6" fill="#DC8989"/>
<circle cx="9" cy="126" r="6" fill="#DC8989"/>
<circle cx="6" cy="28" r="6" fill="#DC8989"/>
<path d="M39.3896 170H38.0273V160.969L35.2954 161.973V160.742L39.1772 159.285H39.3896V170ZM46.3184 166.023H42.7441V164.917H46.3184V166.023ZM47.3145 165.972C47.3145 164.756 47.6025 163.779 48.1787 163.042C48.7549 162.3 49.5093 161.929 50.4419 161.929C51.3696 161.929 52.1045 162.246 52.6465 162.881V158.75H54.0015V170H52.7563L52.6904 169.15C52.1484 169.814 51.394 170.146 50.4272 170.146C49.5093 170.146 48.7598 169.771 48.1787 169.019C47.6025 168.267 47.3145 167.285 47.3145 166.074V165.972ZM48.6694 166.125C48.6694 167.024 48.855 167.727 49.2261 168.235C49.5972 168.743 50.1099 168.997 50.7642 168.997C51.6235 168.997 52.251 168.611 52.6465 167.839V164.199C52.2412 163.452 51.6187 163.079 50.7788 163.079C50.1147 163.079 49.5972 163.335 49.2261 163.848C48.855 164.36 48.6694 165.12 48.6694 166.125ZM57.583 170H56.228V162.075H57.583V170ZM56.1182 159.973C56.1182 159.753 56.1841 159.568 56.3159 159.417C56.4526 159.265 56.6528 159.189 56.9165 159.189C57.1802 159.189 57.3804 159.265 57.5171 159.417C57.6538 159.568 57.7222 159.753 57.7222 159.973C57.7222 160.193 57.6538 160.376 57.5171 160.522C57.3804 160.669 57.1802 160.742 56.9165 160.742C56.6528 160.742 56.4526 160.669 56.3159 160.522C56.1841 160.376 56.1182 160.193 56.1182 159.973ZM61.0327 162.075L61.0693 162.954C61.6504 162.271 62.4341 161.929 63.4204 161.929C64.5288 161.929 65.2832 162.354 65.6836 163.203C65.9473 162.822 66.2891 162.515 66.709 162.28C67.1338 162.046 67.6343 161.929 68.2104 161.929C69.9487 161.929 70.8325 162.849 70.8618 164.69V170H69.5068V164.771C69.5068 164.204 69.3774 163.782 69.1187 163.503C68.8599 163.22 68.4253 163.079 67.8149 163.079C67.312 163.079 66.8945 163.23 66.5625 163.533C66.2305 163.831 66.0376 164.233 65.9839 164.741V170H64.6216V164.807C64.6216 163.655 64.0576 163.079 62.9297 163.079C62.041 163.079 61.4331 163.457 61.106 164.214V170H59.751V162.075H61.0327ZM72.9419 169.29C72.9419 169.055 73.0103 168.86 73.147 168.704C73.2886 168.547 73.4985 168.469 73.7769 168.469C74.0552 168.469 74.2651 168.547 74.4067 168.704C74.5532 168.86 74.6265 169.055 74.6265 169.29C74.6265 169.514 74.5532 169.702 74.4067 169.854C74.2651 170.005 74.0552 170.081 73.7769 170.081C73.4985 170.081 73.2886 170.005 73.147 169.854C73.0103 169.702 72.9419 169.514 72.9419 169.29ZM83.1006 166.638L83.3057 168.044L83.606 166.777L85.7153 159.336H86.9019L88.96 166.777L89.2529 168.066L89.48 166.631L91.1353 159.336H92.5488L89.9634 170H88.6816L86.4844 162.229L86.3159 161.416L86.1475 162.229L83.8696 170H82.5879L80.0098 159.336H81.416L83.1006 166.638ZM95.5298 168.85H100.583V170H94.1162V159.336H95.5298V168.85Z" fill="black"/>
<path d="M257 71H331" stroke="#355FB3" stroke-width="4"/>
<path d="M257.484 71.04L378 138.12L331.204 71.04M257.484 71.04L211 145L331.204 71.04M257.484 71.04L218.747 16.86L331.204 71.04M257.484 71.04L350.5 6L331.204 71.04" stroke="#B33535" stroke-width="2"/>
<circle cx="331" cy="70" r="9" fill="#8EA7D7"/>
<circle cx="257" cy="70" r="9" fill="#8EA7D7"/>
<circle cx="351" cy="6" r="6" fill="#DC8989"/>
<circle cx="378" cy="138" r="6" fill="#DC8989"/>
<circle cx="211" cy="145" r="6" fill="#DC8989"/>
<circle cx="220" cy="18" r="6" fill="#DC8989"/>
<path d="M264.924 170H257.937V169.026L261.628 164.924C262.175 164.304 262.551 163.801 262.756 163.416C262.966 163.025 263.071 162.622 263.071 162.207C263.071 161.65 262.902 161.194 262.565 160.837C262.229 160.481 261.779 160.303 261.218 160.303C260.544 160.303 260.019 160.496 259.643 160.881C259.272 161.262 259.086 161.794 259.086 162.478H257.731C257.731 161.497 258.046 160.703 258.676 160.098C259.311 159.492 260.158 159.189 261.218 159.189C262.209 159.189 262.993 159.451 263.569 159.973C264.145 160.491 264.433 161.182 264.433 162.046C264.433 163.096 263.764 164.346 262.426 165.796L259.57 168.894H264.924V170ZM269.318 166.023H265.744V164.917H269.318V166.023ZM270.314 165.972C270.314 164.756 270.603 163.779 271.179 163.042C271.755 162.3 272.509 161.929 273.442 161.929C274.37 161.929 275.104 162.246 275.646 162.881V158.75H277.001V170H275.756L275.69 169.15C275.148 169.814 274.394 170.146 273.427 170.146C272.509 170.146 271.76 169.771 271.179 169.019C270.603 168.267 270.314 167.285 270.314 166.074V165.972ZM271.669 166.125C271.669 167.024 271.855 167.727 272.226 168.235C272.597 168.743 273.11 168.997 273.764 168.997C274.624 168.997 275.251 168.611 275.646 167.839V164.199C275.241 163.452 274.619 163.079 273.779 163.079C273.115 163.079 272.597 163.335 272.226 163.848C271.855 164.36 271.669 165.12 271.669 166.125ZM280.583 170H279.228V162.075H280.583V170ZM279.118 159.973C279.118 159.753 279.184 159.568 279.316 159.417C279.453 159.265 279.653 159.189 279.917 159.189C280.18 159.189 280.38 159.265 280.517 159.417C280.654 159.568 280.722 159.753 280.722 159.973C280.722 160.193 280.654 160.376 280.517 160.522C280.38 160.669 280.18 160.742 279.917 160.742C279.653 160.742 279.453 160.669 279.316 160.522C279.184 160.376 279.118 160.193 279.118 159.973ZM284.033 162.075L284.069 162.954C284.65 162.271 285.434 161.929 286.42 161.929C287.529 161.929 288.283 162.354 288.684 163.203C288.947 162.822 289.289 162.515 289.709 162.28C290.134 162.046 290.634 161.929 291.21 161.929C292.949 161.929 293.833 162.849 293.862 164.69V170H292.507V164.771C292.507 164.204 292.377 163.782 292.119 163.503C291.86 163.22 291.425 163.079 290.815 163.079C290.312 163.079 289.895 163.23 289.562 163.533C289.23 163.831 289.038 164.233 288.984 164.741V170H287.622V164.807C287.622 163.655 287.058 163.079 285.93 163.079C285.041 163.079 284.433 163.457 284.106 164.214V170H282.751V162.075H284.033ZM295.942 169.29C295.942 169.055 296.01 168.86 296.147 168.704C296.289 168.547 296.499 168.469 296.777 168.469C297.055 168.469 297.265 168.547 297.407 168.704C297.553 168.86 297.626 169.055 297.626 169.29C297.626 169.514 297.553 169.702 297.407 169.854C297.265 170.005 297.055 170.081 296.777 170.081C296.499 170.081 296.289 170.005 296.147 169.854C296.01 169.702 295.942 169.514 295.942 169.29ZM306.101 166.638L306.306 168.044L306.606 166.777L308.715 159.336H309.902L311.96 166.777L312.253 168.066L312.48 166.631L314.135 159.336H315.549L312.963 170H311.682L309.484 162.229L309.316 161.416L309.147 162.229L306.87 170H305.588L303.01 159.336H304.416L306.101 166.638ZM318.53 168.85H323.583V170H317.116V159.336H318.53V168.85Z" fill="black"/>
</svg>
