<svg width="651" height="250" viewBox="0 0 651 250" fill="none" xmlns="http://www.w3.org/2000/svg">
<rect width="651" height="250" fill="white"/>
<path d="M206.263 70L111 15L15.7372 70M206.263 70V180L111 235M206.263 70H15.7372M206.263 70L111 235M111 235L15.7372 180V70" stroke="#747474" stroke-width="2"/>
<circle cx="111" cy="15" r="15" fill="#B3B3B3"/>
<path d="M114.162 20H107.175V19.0259L110.866 14.9243C111.413 14.3042 111.789 13.8013 111.994 13.4155C112.204 13.0249 112.309 12.6221 112.309 12.207C112.309 11.6504 112.141 11.1938 111.804 10.8374C111.467 10.481 111.018 10.3027 110.456 10.3027C109.782 10.3027 109.257 10.4956 108.881 10.8813C108.51 11.2622 108.325 11.7944 108.325 12.478H106.97C106.97 11.4966 107.285 10.7031 107.915 10.0977C108.549 9.49219 109.396 9.18945 110.456 9.18945C111.447 9.18945 112.231 9.45068 112.807 9.97314C113.383 10.4907 113.671 11.1816 113.671 12.0459C113.671 13.0957 113.002 14.3457 111.665 15.7959L108.808 18.894H114.162V20Z" fill="black"/>
<circle cx="206" cy="70" r="15" fill="#B3B3B3"/>
<path d="M204.145 69.0088H205.163C205.803 68.999 206.306 68.8306 206.672 68.5034C207.038 68.1763 207.221 67.7344 207.221 67.1777C207.221 65.9277 206.599 65.3027 205.354 65.3027C204.768 65.3027 204.299 65.4712 203.947 65.8081C203.601 66.1401 203.427 66.582 203.427 67.1338H202.072C202.072 66.2891 202.38 65.5884 202.995 65.0317C203.615 64.4702 204.401 64.1895 205.354 64.1895C206.359 64.1895 207.148 64.4556 207.719 64.9878C208.291 65.52 208.576 66.2598 208.576 67.207C208.576 67.6709 208.425 68.1201 208.122 68.5547C207.824 68.9893 207.417 69.314 206.899 69.5288C207.485 69.7144 207.937 70.022 208.254 70.4517C208.576 70.8813 208.737 71.4062 208.737 72.0264C208.737 72.9834 208.425 73.7427 207.8 74.3042C207.175 74.8657 206.362 75.1465 205.361 75.1465C204.36 75.1465 203.544 74.8755 202.915 74.3335C202.29 73.7915 201.977 73.0762 201.977 72.1875H203.339C203.339 72.749 203.522 73.1982 203.889 73.5352C204.255 73.8721 204.746 74.0405 205.361 74.0405C206.015 74.0405 206.516 73.8696 206.862 73.5278C207.209 73.186 207.382 72.6953 207.382 72.0557C207.382 71.4355 207.192 70.9595 206.811 70.6274C206.43 70.2954 205.881 70.1245 205.163 70.1147H204.145V69.0088Z" fill="black"/>
<circle cx="206" cy="180" r="15" fill="#B3B3B3"/>
<path d="M207.895 181.418H209.375V182.524H207.895V185H206.533V182.524H201.677V181.726L206.452 174.336H207.895V181.418ZM203.215 181.418H206.533V176.189L206.372 176.482L203.215 181.418Z" fill="black"/>
<circle cx="111" cy="235" r="15" fill="#B3B3B3"/>
<path d="M107.797 234.653L108.339 229.336H113.803V230.588H109.489L109.167 233.496C109.689 233.188 110.283 233.035 110.947 233.035C111.918 233.035 112.69 233.357 113.261 234.001C113.833 234.641 114.118 235.508 114.118 236.602C114.118 237.7 113.82 238.567 113.225 239.202C112.634 239.832 111.806 240.146 110.742 240.146C109.799 240.146 109.03 239.885 108.435 239.363C107.839 238.84 107.5 238.118 107.417 237.195H108.698C108.781 237.805 108.999 238.267 109.35 238.579C109.702 238.887 110.166 239.041 110.742 239.041C111.372 239.041 111.865 238.826 112.221 238.396C112.583 237.966 112.763 237.373 112.763 236.616C112.763 235.903 112.568 235.332 112.177 234.902C111.792 234.468 111.276 234.25 110.632 234.25C110.041 234.25 109.577 234.38 109.24 234.639L108.881 234.932L107.797 234.653Z" fill="black"/>
<circle cx="16" cy="180" r="15" fill="#B3B3B3"/>
<path d="M17.4922 174.329V175.479H17.2432C16.1885 175.498 15.3486 175.811 14.7236 176.416C14.0986 177.021 13.7373 177.874 13.6396 178.972C14.2012 178.328 14.9678 178.005 15.9395 178.005C16.8672 178.005 17.6069 178.333 18.1587 178.987C18.7153 179.641 18.9937 180.486 18.9937 181.521C18.9937 182.62 18.6934 183.499 18.0928 184.158C17.4971 184.817 16.6963 185.146 15.6904 185.146C14.6699 185.146 13.8423 184.756 13.2075 183.975C12.5728 183.188 12.2554 182.178 12.2554 180.942V180.422C12.2554 178.459 12.6729 176.96 13.5078 175.925C14.3477 174.885 15.5952 174.353 17.2505 174.329H17.4922ZM15.7124 179.133C15.2485 179.133 14.8213 179.272 14.4307 179.551C14.04 179.829 13.769 180.178 13.6177 180.598V181.096C13.6177 181.975 13.8154 182.683 14.2109 183.22C14.6064 183.757 15.0996 184.026 15.6904 184.026C16.3008 184.026 16.7793 183.801 17.126 183.352C17.4775 182.903 17.6533 182.314 17.6533 181.587C17.6533 180.854 17.4751 180.264 17.1187 179.814C16.7671 179.36 16.2983 179.133 15.7124 179.133Z" fill="black"/>
<circle cx="16" cy="70" r="15" fill="#8EA7D7"/>
<path d="M16.6279 75H15.2656V65.9692L12.5337 66.9727V65.7422L16.4155 64.2847H16.6279V75Z" fill="black"/>
<circle cx="486" cy="40" r="15" fill="#8EA7D7"/>
<path d="M486.628 45H485.266V35.9692L482.534 36.9727V35.7422L486.416 34.2847H486.628V45Z" fill="black"/>
</svg>
