<svg width="651" height="250" viewBox="0 0 651 250" fill="none" xmlns="http://www.w3.org/2000/svg">
<rect width="651" height="250" fill="white"/>
<path d="M206.263 70L111 15L15.7372 70M206.263 70V180L111 235M206.263 70H15.7372M206.263 70L111 235M111 235L15.7372 180V70" stroke="#747474" stroke-width="2"/>
<circle cx="111" cy="15" r="15" fill="#B3B3B3"/>
<path d="M114.162 20H107.175V19.0259L110.866 14.9243C111.413 14.3042 111.789 13.8013 111.994 13.4155C112.204 13.0249 112.309 12.6221 112.309 12.207C112.309 11.6504 112.141 11.1938 111.804 10.8374C111.467 10.481 111.018 10.3027 110.456 10.3027C109.782 10.3027 109.257 10.4956 108.881 10.8813C108.51 11.2622 108.325 11.7944 108.325 12.478H106.97C106.97 11.4966 107.285 10.7031 107.915 10.0977C108.549 9.49219 109.396 9.18945 110.456 9.18945C111.447 9.18945 112.231 9.45068 112.807 9.97314C113.383 10.4907 113.671 11.1816 113.671 12.0459C113.671 13.0957 113.002 14.3457 111.665 15.7959L108.808 18.894H114.162V20Z" fill="black"/>
<circle cx="206" cy="70" r="15" fill="#B3B3B3"/>
<path d="M204.145 69.0088H205.163C205.803 68.999 206.306 68.8306 206.672 68.5034C207.038 68.1763 207.221 67.7344 207.221 67.1777C207.221 65.9277 206.599 65.3027 205.354 65.3027C204.768 65.3027 204.299 65.4712 203.947 65.8081C203.601 66.1401 203.427 66.582 203.427 67.1338H202.072C202.072 66.2891 202.38 65.5884 202.995 65.0317C203.615 64.4702 204.401 64.1895 205.354 64.1895C206.359 64.1895 207.148 64.4556 207.719 64.9878C208.291 65.52 208.576 66.2598 208.576 67.207C208.576 67.6709 208.425 68.1201 208.122 68.5547C207.824 68.9893 207.417 69.314 206.899 69.5288C207.485 69.7144 207.937 70.022 208.254 70.4517C208.576 70.8813 208.737 71.4062 208.737 72.0264C208.737 72.9834 208.425 73.7427 207.8 74.3042C207.175 74.8657 206.362 75.1465 205.361 75.1465C204.36 75.1465 203.544 74.8755 202.915 74.3335C202.29 73.7915 201.977 73.0762 201.977 72.1875H203.339C203.339 72.749 203.522 73.1982 203.889 73.5352C204.255 73.8721 204.746 74.0405 205.361 74.0405C206.015 74.0405 206.516 73.8696 206.862 73.5278C207.209 73.186 207.382 72.6953 207.382 72.0557C207.382 71.4355 207.192 70.9595 206.811 70.6274C206.43 70.2954 205.881 70.1245 205.163 70.1147H204.145V69.0088Z" fill="black"/>
<circle cx="206" cy="180" r="15" fill="#B3B3B3"/>
<path d="M207.895 181.418H209.375V182.524H207.895V185H206.533V182.524H201.677V181.726L206.452 174.336H207.895V181.418ZM203.215 181.418H206.533V176.189L206.372 176.482L203.215 181.418Z" fill="black"/>
<circle cx="111" cy="235" r="15" fill="#B3B3B3"/>
<path d="M107.797 234.653L108.339 229.336H113.803V230.588H109.489L109.167 233.496C109.689 233.188 110.283 233.035 110.947 233.035C111.918 233.035 112.69 233.357 113.261 234.001C113.833 234.641 114.118 235.508 114.118 236.602C114.118 237.7 113.82 238.567 113.225 239.202C112.634 239.832 111.806 240.146 110.742 240.146C109.799 240.146 109.03 239.885 108.435 239.363C107.839 238.84 107.5 238.118 107.417 237.195H108.698C108.781 237.805 108.999 238.267 109.35 238.579C109.702 238.887 110.166 239.041 110.742 239.041C111.372 239.041 111.865 238.826 112.221 238.396C112.583 237.966 112.763 237.373 112.763 236.616C112.763 235.903 112.568 235.332 112.177 234.902C111.792 234.468 111.276 234.25 110.632 234.25C110.041 234.25 109.577 234.38 109.24 234.639L108.881 234.932L107.797 234.653Z" fill="black"/>
<circle cx="16" cy="180" r="15" fill="#B3B3B3"/>
<path d="M17.4922 174.329V175.479H17.2432C16.1885 175.498 15.3486 175.811 14.7236 176.416C14.0986 177.021 13.7373 177.874 13.6396 178.972C14.2012 178.328 14.9678 178.005 15.9395 178.005C16.8672 178.005 17.6069 178.333 18.1587 178.987C18.7153 179.641 18.9937 180.486 18.9937 181.521C18.9937 182.62 18.6934 183.499 18.0928 184.158C17.4971 184.817 16.6963 185.146 15.6904 185.146C14.6699 185.146 13.8423 184.756 13.2075 183.975C12.5728 183.188 12.2554 182.178 12.2554 180.942V180.422C12.2554 178.459 12.6729 176.96 13.5078 175.925C14.3477 174.885 15.5952 174.353 17.2505 174.329H17.4922ZM15.7124 179.133C15.2485 179.133 14.8213 179.272 14.4307 179.551C14.04 179.829 13.769 180.178 13.6177 180.598V181.096C13.6177 181.975 13.8154 182.683 14.2109 183.22C14.6064 183.757 15.0996 184.026 15.6904 184.026C16.3008 184.026 16.7793 183.801 17.126 183.352C17.4775 182.903 17.6533 182.314 17.6533 181.587C17.6533 180.854 17.4751 180.264 17.1187 179.814C16.7671 179.36 16.2983 179.133 15.7124 179.133Z" fill="black"/>
<path d="M486 40L486.39 39.079L486 38.9142L485.61 39.079L486 40ZM486 95L491.774 85H480.226L486 95ZM616 95L609.04 85.7864L604.541 96.4208L616 95ZM356 95L367.459 96.4208L362.96 85.7864L356 95ZM485 40V86H487V40H485ZM485.61 40.921L607.322 92.4142L608.101 90.5723L486.39 39.079L485.61 40.921ZM485.61 39.079L363.899 90.5723L364.678 92.4142L486.39 40.921L485.61 39.079Z" fill="#355FB3"/>
<circle cx="356" cy="110" r="15" fill="#DC8989"/>
<path d="M359.162 115H352.175V114.026L355.866 109.924C356.413 109.304 356.789 108.801 356.994 108.416C357.204 108.025 357.309 107.622 357.309 107.207C357.309 106.65 357.141 106.194 356.804 105.837C356.467 105.481 356.018 105.303 355.456 105.303C354.782 105.303 354.257 105.496 353.881 105.881C353.51 106.262 353.325 106.794 353.325 107.478H351.97C351.97 106.497 352.285 105.703 352.915 105.098C353.549 104.492 354.396 104.189 355.456 104.189C356.447 104.189 357.231 104.451 357.807 104.973C358.383 105.491 358.671 106.182 358.671 107.046C358.671 108.096 358.002 109.346 356.665 110.796L353.808 113.894H359.162V115Z" fill="black"/>
<circle cx="486" cy="110" r="15" fill="#DC8989"/>
<path d="M484.145 109.009H485.163C485.803 108.999 486.306 108.831 486.672 108.503C487.038 108.176 487.221 107.734 487.221 107.178C487.221 105.928 486.599 105.303 485.354 105.303C484.768 105.303 484.299 105.471 483.947 105.808C483.601 106.14 483.427 106.582 483.427 107.134H482.072C482.072 106.289 482.38 105.588 482.995 105.032C483.615 104.47 484.401 104.189 485.354 104.189C486.359 104.189 487.148 104.456 487.719 104.988C488.291 105.52 488.576 106.26 488.576 107.207C488.576 107.671 488.425 108.12 488.122 108.555C487.824 108.989 487.417 109.314 486.899 109.529C487.485 109.714 487.937 110.022 488.254 110.452C488.576 110.881 488.737 111.406 488.737 112.026C488.737 112.983 488.425 113.743 487.8 114.304C487.175 114.866 486.362 115.146 485.361 115.146C484.36 115.146 483.544 114.875 482.915 114.333C482.29 113.792 481.977 113.076 481.977 112.188H483.339C483.339 112.749 483.522 113.198 483.889 113.535C484.255 113.872 484.746 114.041 485.361 114.041C486.015 114.041 486.516 113.87 486.862 113.528C487.209 113.186 487.382 112.695 487.382 112.056C487.382 111.436 487.192 110.959 486.811 110.627C486.43 110.295 485.881 110.125 485.163 110.115H484.145V109.009Z" fill="black"/>
<circle cx="616" cy="110" r="15" fill="#DC8989"/>
<path d="M617.492 104.329V105.479H617.243C616.188 105.498 615.349 105.811 614.724 106.416C614.099 107.021 613.737 107.874 613.64 108.972C614.201 108.328 614.968 108.005 615.939 108.005C616.867 108.005 617.607 108.333 618.159 108.987C618.715 109.641 618.994 110.486 618.994 111.521C618.994 112.62 618.693 113.499 618.093 114.158C617.497 114.817 616.696 115.146 615.69 115.146C614.67 115.146 613.842 114.756 613.208 113.975C612.573 113.188 612.255 112.178 612.255 110.942V110.422C612.255 108.459 612.673 106.96 613.508 105.925C614.348 104.885 615.595 104.353 617.25 104.329H617.492ZM615.712 109.133C615.249 109.133 614.821 109.272 614.431 109.551C614.04 109.829 613.769 110.178 613.618 110.598V111.096C613.618 111.975 613.815 112.683 614.211 113.22C614.606 113.757 615.1 114.026 615.69 114.026C616.301 114.026 616.779 113.801 617.126 113.352C617.478 112.903 617.653 112.314 617.653 111.587C617.653 110.854 617.475 110.264 617.119 109.814C616.767 109.36 616.298 109.133 615.712 109.133Z" fill="black"/>
<path d="M96.0001 16.5L84.7048 14.1019L88.2757 25.0829L96.0001 16.5ZM15.5 68.9999C16.2516 69.6595 16.2516 69.6595 16.2517 69.6594C16.2519 69.6592 16.2521 69.659 16.2524 69.6587C16.2529 69.658 16.2538 69.657 16.255 69.6556C16.2575 69.6528 16.2612 69.6486 16.2663 69.6429C16.2763 69.6314 16.2915 69.6142 16.3118 69.5912C16.3523 69.5453 16.4131 69.4767 16.4932 69.3865C16.6535 69.2061 16.8915 68.9395 17.2009 68.5961C17.8198 67.9092 18.7244 66.9151 19.865 65.6888C22.1465 63.2361 25.3704 59.8565 29.1387 56.1505C36.6918 48.7223 46.3718 40.0432 55.0146 34.8575L53.9856 33.1425C45.1283 38.4569 35.3083 47.2777 27.7363 54.7245C23.9422 58.456 20.6973 61.8576 18.4006 64.3267C17.2521 65.5614 16.3403 66.5634 15.7151 67.2573C15.4024 67.6043 15.1614 67.8743 14.9982 68.058C14.9166 68.1498 14.8545 68.22 14.8126 68.2675C14.7916 68.2912 14.7758 68.3092 14.765 68.3214C14.7596 68.3275 14.7556 68.3322 14.7528 68.3353C14.7514 68.3369 14.7503 68.3381 14.7496 68.3389C14.7492 68.3394 14.7489 68.3397 14.7487 68.3399C14.7485 68.3402 14.7484 68.3403 15.5 68.9999ZM55.0146 34.8575C65.844 28.3598 79.2162 23.1975 87.7692 20.2279L87.1132 18.3385C78.5237 21.3209 64.9952 26.5367 53.9856 33.1425L55.0146 34.8575Z" fill="#355FB3"/>
<path d="M191.5 67L182.134 60.246L180.968 71.734L191.5 67ZM15.4999 68.9999C15.6163 69.9931 15.6164 69.9931 15.6168 69.9931C15.6172 69.993 15.6178 69.993 15.6186 69.9929C15.6203 69.9927 15.6227 69.9924 15.6261 69.992C15.6327 69.9912 15.6427 69.9901 15.656 69.9885C15.6826 69.9854 15.7225 69.9808 15.7754 69.9747C15.8812 69.9624 16.039 69.9442 16.2467 69.9205C16.6622 69.873 17.2771 69.8033 18.0744 69.7145C19.6691 69.537 21.993 69.2833 24.9085 68.9789C30.7397 68.3701 38.9365 67.5582 48.398 66.7463C67.327 65.1221 91.2933 63.5 111.5 63.5L111.5 61.5C91.2067 61.5 67.1729 63.128 48.227 64.7537C38.7509 65.5668 30.5415 66.3799 24.7008 66.9897C21.7804 67.2947 19.4519 67.5488 17.8532 67.7268C17.0538 67.8158 16.4369 67.8857 16.0195 67.9334C15.8109 67.9573 15.6521 67.9756 15.5454 67.9879C15.4921 67.9941 15.4517 67.9988 15.4247 68.0019C15.4111 68.0035 15.4009 68.0047 15.3941 68.0055C15.3907 68.0059 15.3881 68.0062 15.3863 68.0064C15.3855 68.0065 15.3848 68.0066 15.3843 68.0066C15.3839 68.0067 15.3836 68.0067 15.4999 68.9999ZM111.5 63.5C140.261 63.4999 168.527 65.7734 182.455 67.0868L182.642 65.0956C168.688 63.7798 140.352 61.4999 111.5 61.5L111.5 63.5Z" fill="#355FB3"/>
<path d="M21 165.5L28.1936 156.468L16.7744 154.754L21 165.5ZM15.5 69C14.5426 69.2887 14.5426 69.2888 14.5426 69.2889C14.5427 69.2891 14.5428 69.2894 14.5429 69.2898C14.5432 69.2907 14.5436 69.292 14.5441 69.2938C14.5452 69.2974 14.5468 69.3029 14.5491 69.3103C14.5535 69.325 14.5602 69.3473 14.569 69.3769C14.5867 69.4362 14.6131 69.5249 14.6476 69.6419C14.7165 69.8757 14.818 70.2222 14.9472 70.6712C15.2057 71.5691 15.5754 72.8767 16.0193 74.512C16.9071 77.7829 18.091 82.3625 19.2746 87.5956C21.6466 98.0822 24 111.117 24 121.5L26 121.5C26 110.883 23.6034 97.6678 21.2254 87.1544C20.034 81.8875 18.8429 77.2796 17.9495 73.988C17.5027 72.342 17.1302 71.0246 16.8692 70.1179C16.7387 69.6645 16.636 69.3138 16.5658 69.0759C16.5307 68.957 16.5038 68.8663 16.4855 68.8051C16.4764 68.7745 16.4694 68.7513 16.4647 68.7356C16.4624 68.7277 16.4606 68.7218 16.4593 68.7177C16.4587 68.7157 16.4583 68.7141 16.4579 68.713C16.4578 68.7125 16.4576 68.7121 16.4576 68.7118C16.4575 68.7115 16.4574 68.7113 15.5 69ZM24 121.5C24 134.3 22.5054 147.865 21.3445 156.466L23.3266 156.734C24.492 148.099 26 134.431 26 121.5L24 121.5Z" fill="#355FB3"/>
<circle cx="111" cy="15" r="15" fill="#DC8989"/>
<path d="M114.162 20H107.175V19.0259L110.866 14.9243C111.413 14.3042 111.789 13.8013 111.994 13.4155C112.204 13.0249 112.309 12.6221 112.309 12.207C112.309 11.6504 112.141 11.1938 111.804 10.8374C111.467 10.481 111.018 10.3027 110.456 10.3027C109.782 10.3027 109.257 10.4956 108.881 10.8813C108.51 11.2622 108.325 11.7944 108.325 12.478H106.97C106.97 11.4966 107.285 10.7031 107.915 10.0977C108.549 9.49219 109.396 9.18945 110.456 9.18945C111.447 9.18945 112.231 9.45068 112.807 9.97314C113.383 10.4907 113.671 11.1816 113.671 12.0459C113.671 13.0957 113.002 14.3457 111.665 15.7959L108.808 18.894H114.162V20Z" fill="black"/>
<circle cx="206" cy="70" r="15" fill="#DC8989"/>
<path d="M204.145 69.0088H205.163C205.803 68.999 206.306 68.8306 206.672 68.5034C207.038 68.1763 207.221 67.7344 207.221 67.1777C207.221 65.9277 206.599 65.3027 205.354 65.3027C204.768 65.3027 204.299 65.4712 203.947 65.8081C203.601 66.1401 203.427 66.582 203.427 67.1338H202.072C202.072 66.2891 202.38 65.5884 202.995 65.0317C203.615 64.4702 204.401 64.1895 205.354 64.1895C206.359 64.1895 207.148 64.4556 207.719 64.9878C208.291 65.52 208.576 66.2598 208.576 67.207C208.576 67.6709 208.425 68.1201 208.122 68.5547C207.824 68.9893 207.417 69.314 206.899 69.5288C207.485 69.7144 207.937 70.022 208.254 70.4517C208.576 70.8813 208.737 71.4062 208.737 72.0264C208.737 72.9834 208.425 73.7427 207.8 74.3042C207.175 74.8657 206.362 75.1465 205.361 75.1465C204.36 75.1465 203.544 74.8755 202.915 74.3335C202.29 73.7915 201.977 73.0762 201.977 72.1875H203.339C203.339 72.749 203.522 73.1982 203.889 73.5352C204.255 73.8721 204.746 74.0405 205.361 74.0405C206.015 74.0405 206.516 73.8696 206.862 73.5278C207.209 73.186 207.382 72.6953 207.382 72.0557C207.382 71.4355 207.192 70.9595 206.811 70.6274C206.43 70.2954 205.881 70.1245 205.163 70.1147H204.145V69.0088Z" fill="black"/>
<circle cx="16" cy="180" r="15" fill="#DC8989"/>
<path d="M17.4922 174.329V175.479H17.2432C16.1885 175.498 15.3486 175.811 14.7236 176.416C14.0986 177.021 13.7373 177.874 13.6396 178.972C14.2012 178.328 14.9678 178.005 15.9395 178.005C16.8672 178.005 17.6069 178.333 18.1587 178.987C18.7153 179.641 18.9937 180.486 18.9937 181.521C18.9937 182.62 18.6934 183.499 18.0928 184.158C17.4971 184.817 16.6963 185.146 15.6904 185.146C14.6699 185.146 13.8423 184.756 13.2075 183.975C12.5728 183.188 12.2554 182.178 12.2554 180.942V180.422C12.2554 178.459 12.6729 176.96 13.5078 175.925C14.3477 174.885 15.5952 174.353 17.2505 174.329H17.4922ZM15.7124 179.133C15.2485 179.133 14.8213 179.272 14.4307 179.551C14.04 179.829 13.769 180.178 13.6177 180.598V181.096C13.6177 181.975 13.8154 182.683 14.2109 183.22C14.6064 183.757 15.0996 184.026 15.6904 184.026C16.3008 184.026 16.7793 183.801 17.126 183.352C17.4775 182.903 17.6533 182.314 17.6533 181.587C17.6533 180.854 17.4751 180.264 17.1187 179.814C16.7671 179.36 16.2983 179.133 15.7124 179.133Z" fill="black"/>
<circle cx="486" cy="40" r="15" fill="#8EA7D7"/>
<path d="M486.628 45H485.266V35.9692L482.534 36.9727V35.7422L486.416 34.2847H486.628V45Z" fill="black"/>
<circle cx="16" cy="70" r="15" fill="#8EA7D7"/>
<path d="M16.6279 75H15.2656V65.9692L12.5337 66.9727V65.7422L16.4155 64.2847H16.6279V75Z" fill="black"/>
</svg>
