<svg width="441" height="226" viewBox="0 0 441 226" fill="none" xmlns="http://www.w3.org/2000/svg">
<rect width="441" height="226" fill="white"/>
<path d="M97.2628 3L192.526 58V168L97.2628 223L2 168V58L97.2628 3Z" stroke="#B33535" stroke-width="4"/>
<path d="M433.526 58L338.263 3L243 58H433.526Z" stroke="#3BB335" stroke-width="4"/>
<path d="M338.263 223L433.526 168H243L338.263 223Z" stroke="#3BB335" stroke-width="4"/>
<path d="M90.6465 115.455H82.0684V112.801H90.6465V115.455ZM104.182 125H100.912V103.326L94.3555 105.734V102.781L103.672 99.2832H104.182V125Z" fill="#B33535"/>
<path d="M328.957 111.271H336.094V114.348H328.957V122.434H325.688V114.348H318.551V111.271H325.688V103.801H328.957V111.271ZM350.42 125H347.15V103.326L340.594 105.734V102.781L349.91 99.2832H350.42V125Z" fill="#3BB335"/>
</svg>
