<svg width="672" height="190" viewBox="0 0 672 190" fill="none" xmlns="http://www.w3.org/2000/svg">
<rect width="672" height="190" fill="white"/>
<path d="M504 102L494 96.2265V107.774L504 102ZM444 103H495V101H444V103Z" fill="#355FB3"/>
<path d="M443 102.5C443 150.192 400.775 189 348.5 189C296.225 189 254 150.192 254 102.5C254 54.8079 296.225 16 348.5 16C400.775 16 443 54.8079 443 102.5Z" stroke="#355FB3" stroke-width="2"/>
<path d="M513.145 107.962C512.671 108.63 511.986 109.227 511.125 109.227C510.914 109.227 510.071 109.192 509.808 108.384C509.861 108.401 509.948 108.401 509.983 108.401C510.51 108.401 510.862 107.945 510.862 107.541C510.862 107.137 510.528 106.996 510.264 106.996C509.983 106.996 509.369 107.207 509.369 108.068C509.369 108.963 510.124 109.578 511.125 109.578C512.881 109.578 514.655 107.962 515.147 106.013L516.868 99.1634C516.886 99.0756 516.921 98.9702 516.921 98.8648C516.921 98.6014 516.71 98.4257 516.446 98.4257C516.288 98.4257 515.92 98.496 515.779 99.0229L514.479 104.186C514.392 104.502 514.392 104.537 514.251 104.731C513.9 105.222 513.32 105.82 512.477 105.82C511.494 105.82 511.406 104.854 511.406 104.379C511.406 103.378 511.88 102.026 512.354 100.762C512.548 100.252 512.653 100.006 512.653 99.6551C512.653 98.9175 512.126 98.2501 511.266 98.2501C509.65 98.2501 509 100.797 509 100.937C509 101.007 509.07 101.095 509.193 101.095C509.351 101.095 509.369 101.025 509.439 100.779C509.861 99.3039 510.528 98.6014 511.213 98.6014C511.371 98.6014 511.67 98.6014 511.67 99.1809C511.67 99.6376 511.476 100.147 511.213 100.814C510.352 103.115 510.352 103.694 510.352 104.116C510.352 105.784 511.547 106.171 512.425 106.171C512.934 106.171 513.566 106.013 514.181 105.363L514.198 105.38C513.935 106.417 513.759 107.102 513.145 107.962Z" fill="black"/>
<path d="M532.012 101.956C532.311 101.956 532.627 101.956 532.627 101.605C532.627 101.253 532.311 101.253 532.012 101.253H524.565C524.776 98.9 526.796 97.214 529.272 97.214H532.012C532.311 97.214 532.627 97.214 532.627 96.8627C532.627 96.5115 532.311 96.5115 532.012 96.5115H529.237C526.234 96.5115 523.845 98.7946 523.845 101.605C523.845 104.415 526.234 106.698 529.237 106.698H532.012C532.311 106.698 532.627 106.698 532.627 106.346C532.627 105.995 532.311 105.995 532.012 105.995H529.272C526.796 105.995 524.776 104.309 524.565 101.956H532.012Z" fill="black"/>
<path d="M546.096 104.292C546.149 103.624 546.166 102.676 546.166 102.184C546.166 100.34 546.079 94 542.408 94C541.196 94 540.125 95.0713 540.125 95.3347C540.125 95.4752 540.265 95.4752 540.301 95.4752C540.406 95.4752 540.95 95.3874 541.337 94.8781C542.882 94.8957 543.883 96.0372 544.41 98.2501C544.744 99.6551 544.867 101.218 544.867 102.816C544.867 103.87 544.797 105.082 544.779 105.31C544.761 105.451 544.761 105.486 544.726 105.503C544.691 105.539 542.935 107.014 542.074 107.014C541.934 107.014 540.511 107.014 540.178 105.556C540.142 105.433 540.125 105.328 540.02 105.328C539.809 105.328 539.475 105.925 539.475 106.364C539.475 107.084 540.142 108.366 541.635 108.366C542.97 108.366 545.868 105.784 547.396 104.011C550.908 99.9712 551.523 96.9505 551.523 96.0372C551.523 94.5444 550.522 94 549.855 94C549.345 94 549.187 94.8781 549.187 95.0537C549.187 95.3172 549.257 95.3347 549.521 95.3699C550.557 95.4928 550.82 96.3182 550.82 96.8276C550.82 97.372 549.995 100.498 546.096 104.292Z" fill="black"/>
<rect x="4.5" y="0.5" width="210" height="112" rx="14.5" fill="#8EA7D7" fill-opacity="0.09" stroke="#355FB3"/>
<circle cx="346" cy="102" r="15" fill="#8EA7D7"/>
<circle cx="296" cy="64" r="15" fill="#8EA7D7"/>
<circle cx="285" cy="119" r="15" fill="#8EA7D7"/>
<circle cx="328" cy="157" r="15" fill="#8EA7D7"/>
<circle cx="381" cy="161" r="15" fill="#8EA7D7"/>
<circle cx="410" cy="122" r="15" fill="#8EA7D7"/>
<circle cx="397" cy="71" r="15" fill="#8EA7D7"/>
<circle cx="357" cy="39" r="15" fill="#8EA7D7"/>
<path d="M293.143 67.7079C292.669 68.375 291.984 68.9719 291.124 68.9719C290.913 68.9719 290.071 68.9368 289.808 68.1293C289.86 68.1468 289.948 68.1468 289.983 68.1468C290.51 68.1468 290.861 67.6904 290.861 67.2866C290.861 66.8828 290.527 66.7424 290.264 66.7424C289.983 66.7424 289.369 66.9531 289.369 67.8133C289.369 68.7086 290.124 69.323 291.124 69.323C292.88 69.323 294.653 67.7079 295.144 65.7593L296.865 58.9129C296.882 58.8251 296.917 58.7198 296.917 58.6144C296.917 58.3511 296.707 58.1755 296.443 58.1755C296.285 58.1755 295.917 58.2458 295.776 58.7724L294.477 63.9336C294.389 64.2496 294.389 64.2847 294.249 64.4778C293.898 64.9694 293.319 65.5662 292.476 65.5662C291.493 65.5662 291.405 64.6007 291.405 64.1267C291.405 63.1261 291.879 61.7743 292.353 60.5104C292.546 60.0013 292.651 59.7555 292.651 59.4044C292.651 58.6671 292.125 58 291.265 58C289.65 58 289 60.5455 289 60.6859C289 60.7561 289.07 60.8439 289.193 60.8439C289.351 60.8439 289.369 60.7737 289.439 60.5279C289.86 59.0533 290.527 58.3511 291.212 58.3511C291.37 58.3511 291.668 58.3511 291.668 58.9304C291.668 59.3869 291.475 59.8959 291.212 60.563C290.352 62.8627 290.352 63.4421 290.352 63.8634C290.352 65.5311 291.545 65.9173 292.423 65.9173C292.932 65.9173 293.564 65.7593 294.179 65.1098L294.196 65.1274C293.933 66.1631 293.757 66.8477 293.143 67.7079Z" fill="black"/>
<path d="M300.551 60.92C300.551 60.604 300.527 60.5923 300.211 60.5923C299.731 61.0604 299.111 61.3413 297.999 61.3413V61.7275C298.315 61.7275 298.947 61.7275 299.626 61.4115V67.4153C299.626 67.8484 299.591 67.9888 298.479 67.9888H298.07V68.375C298.549 68.3399 299.556 68.3399 300.083 68.3399C300.609 68.3399 301.627 68.3399 302.107 68.375V67.9888H301.698C300.586 67.9888 300.551 67.8484 300.551 67.4153V60.92Z" fill="black"/>
<path d="M354.143 42.7079C353.669 43.375 352.984 43.9719 352.124 43.9719C351.913 43.9719 351.071 43.9368 350.808 43.1293C350.86 43.1468 350.948 43.1468 350.983 43.1468C351.51 43.1468 351.861 42.6904 351.861 42.2866C351.861 41.8828 351.527 41.7424 351.264 41.7424C350.983 41.7424 350.369 41.9531 350.369 42.8133C350.369 43.7086 351.124 44.323 352.124 44.323C353.88 44.323 355.653 42.7079 356.144 40.7593L357.865 33.9129C357.882 33.8251 357.917 33.7198 357.917 33.6144C357.917 33.3511 357.707 33.1755 357.443 33.1755C357.285 33.1755 356.917 33.2458 356.776 33.7724L355.477 38.9336C355.389 39.2496 355.389 39.2847 355.249 39.4778C354.898 39.9694 354.319 40.5662 353.476 40.5662C352.493 40.5662 352.405 39.6007 352.405 39.1267C352.405 38.1261 352.879 36.7743 353.353 35.5104C353.546 35.0013 353.651 34.7555 353.651 34.4044C353.651 33.6671 353.125 33 352.265 33C350.65 33 350 35.5455 350 35.6859C350 35.7561 350.07 35.8439 350.193 35.8439C350.351 35.8439 350.369 35.7737 350.439 35.5279C350.86 34.0533 351.527 33.3511 352.212 33.3511C352.37 33.3511 352.668 33.3511 352.668 33.9304C352.668 34.3869 352.475 34.8959 352.212 35.563C351.352 37.8627 351.352 38.4421 351.352 38.8634C351.352 40.5311 352.545 40.9173 353.423 40.9173C353.932 40.9173 354.564 40.7593 355.179 40.1098L355.196 40.1274C354.933 41.1631 354.757 41.8477 354.143 42.7079Z" fill="black"/>
<path d="M361.176 40.9875C361.363 40.812 361.855 40.4258 362.042 40.2619C362.768 39.5948 363.458 38.9511 363.458 37.8861C363.458 36.4934 362.288 35.5923 360.825 35.5923C359.421 35.5923 358.496 36.6573 358.496 37.6989C358.496 38.2723 358.953 38.3543 359.116 38.3543C359.362 38.3543 359.725 38.1787 359.725 37.734C359.725 37.1254 359.14 37.1254 358.999 37.1254C359.339 36.2711 360.123 35.9785 360.696 35.9785C361.785 35.9785 362.346 36.9031 362.346 37.8861C362.346 39.1033 361.492 39.9927 360.111 41.4088L358.637 42.9303C358.496 43.059 358.496 43.0824 358.496 43.375H363.119L363.458 41.2801H363.096C363.06 41.5142 362.967 42.0993 362.826 42.3217C362.756 42.4153 361.867 42.4153 361.679 42.4153H359.596L361.176 40.9875Z" fill="black"/>
<path d="M394.143 74.7079C393.669 75.375 392.984 75.9719 392.124 75.9719C391.913 75.9719 391.071 75.9368 390.808 75.1293C390.86 75.1468 390.948 75.1468 390.983 75.1468C391.51 75.1468 391.861 74.6904 391.861 74.2866C391.861 73.8828 391.527 73.7424 391.264 73.7424C390.983 73.7424 390.369 73.9531 390.369 74.8133C390.369 75.7086 391.124 76.323 392.124 76.323C393.88 76.323 395.653 74.7079 396.144 72.7593L397.865 65.9129C397.882 65.8251 397.917 65.7198 397.917 65.6144C397.917 65.3511 397.707 65.1755 397.443 65.1755C397.285 65.1755 396.917 65.2458 396.776 65.7724L395.477 70.9336C395.389 71.2496 395.389 71.2847 395.249 71.4778C394.898 71.9694 394.319 72.5662 393.476 72.5662C392.493 72.5662 392.405 71.6007 392.405 71.1267C392.405 70.1261 392.879 68.7743 393.353 67.5104C393.546 67.0013 393.651 66.7555 393.651 66.4044C393.651 65.6671 393.125 65 392.265 65C390.65 65 390 67.5455 390 67.6859C390 67.7561 390.07 67.8439 390.193 67.8439C390.351 67.8439 390.369 67.7737 390.439 67.5279C390.86 66.0533 391.527 65.3511 392.212 65.3511C392.37 65.3511 392.668 65.3511 392.668 65.9304C392.668 66.3869 392.475 66.8959 392.212 67.563C391.352 69.8627 391.352 70.4421 391.352 70.8634C391.352 72.5311 392.545 72.9173 393.423 72.9173C393.932 72.9173 394.564 72.7593 395.179 72.1098L395.196 72.1274C394.933 73.1631 394.757 73.8477 394.143 74.7079Z" fill="black"/>
<path d="M400.837 71.4661C401.761 71.4661 402.346 72.1449 402.346 73.3737C402.346 74.8367 401.516 75.2697 400.895 75.2697C400.252 75.2697 399.374 75.0356 398.964 74.4153C399.386 74.4153 399.678 74.1462 399.678 73.7599C399.678 73.3854 399.409 73.1163 399.034 73.1163C398.718 73.1163 398.391 73.3152 398.391 73.7834C398.391 74.8952 399.584 75.6208 400.919 75.6208C402.475 75.6208 403.564 74.5441 403.564 73.3737C403.564 72.4024 402.791 71.5129 401.597 71.2554C402.522 70.9277 403.213 70.1319 403.213 69.1956C403.213 68.2594 402.159 67.5923 400.942 67.5923C399.69 67.5923 398.742 68.2711 398.742 69.1605C398.742 69.5935 399.034 69.7808 399.339 69.7808C399.702 69.7808 399.936 69.5233 399.936 69.1839C399.936 68.7509 399.561 68.5871 399.304 68.5754C399.795 67.9317 400.696 67.8966 400.907 67.8966C401.211 67.8966 402.101 67.9902 402.101 69.1956C402.101 70.0149 401.761 70.5064 401.597 70.6937C401.246 71.0565 400.977 71.0799 400.263 71.1267C400.041 71.1384 399.947 71.1501 399.947 71.3022C399.947 71.4661 400.053 71.4661 400.252 71.4661H400.837Z" fill="black"/>
<path d="M343.143 105.708C342.669 106.375 341.984 106.972 341.124 106.972C340.913 106.972 340.071 106.937 339.808 106.129C339.86 106.147 339.948 106.147 339.983 106.147C340.51 106.147 340.861 105.69 340.861 105.287C340.861 104.883 340.527 104.742 340.264 104.742C339.983 104.742 339.369 104.953 339.369 105.813C339.369 106.709 340.124 107.323 341.124 107.323C342.88 107.323 344.653 105.708 345.144 103.759L346.865 96.9129C346.882 96.8251 346.917 96.7198 346.917 96.6144C346.917 96.3511 346.707 96.1755 346.443 96.1755C346.285 96.1755 345.917 96.2458 345.776 96.7724L344.477 101.934C344.389 102.25 344.389 102.285 344.249 102.478C343.898 102.969 343.319 103.566 342.476 103.566C341.493 103.566 341.405 102.601 341.405 102.127C341.405 101.126 341.879 99.7743 342.353 98.5104C342.546 98.0013 342.651 97.7555 342.651 97.4044C342.651 96.6671 342.125 96 341.265 96C339.65 96 339 98.5455 339 98.6859C339 98.7561 339.07 98.8439 339.193 98.8439C339.351 98.8439 339.369 98.7737 339.439 98.5279C339.86 97.0533 340.527 96.3511 341.212 96.3511C341.37 96.3511 341.668 96.3511 341.668 96.9304C341.668 97.3869 341.475 97.8959 341.212 98.563C340.352 100.863 340.352 101.442 340.352 101.863C340.352 103.531 341.545 103.917 342.423 103.917C342.932 103.917 343.564 103.759 344.179 103.11L344.196 103.127C343.933 104.163 343.757 104.848 343.143 105.708Z" fill="black"/>
<path d="M351.487 98.803C351.487 98.569 351.487 98.4753 351.241 98.4753C351.089 98.4753 351.077 98.487 350.96 98.6509L347.227 104.07V104.456H350.527V105.427C350.527 105.86 350.492 105.989 349.591 105.989H349.322V106.375C350.317 106.34 350.34 106.34 351.007 106.34C351.674 106.34 351.698 106.34 352.692 106.375V105.989H352.423C351.522 105.989 351.487 105.86 351.487 105.427V104.456H352.727V104.07H351.487V98.803ZM350.609 99.751V104.07H347.636L350.609 99.751Z" fill="black"/>
<path d="M282.143 122.708C281.669 123.375 280.984 123.972 280.124 123.972C279.913 123.972 279.071 123.937 278.808 123.129C278.86 123.147 278.948 123.147 278.983 123.147C279.51 123.147 279.861 122.69 279.861 122.287C279.861 121.883 279.527 121.742 279.264 121.742C278.983 121.742 278.369 121.953 278.369 122.813C278.369 123.709 279.124 124.323 280.124 124.323C281.88 124.323 283.653 122.708 284.144 120.759L285.865 113.913C285.882 113.825 285.917 113.72 285.917 113.614C285.917 113.351 285.707 113.176 285.443 113.176C285.285 113.176 284.917 113.246 284.776 113.772L283.477 118.934C283.389 119.25 283.389 119.285 283.249 119.478C282.898 119.969 282.319 120.566 281.476 120.566C280.493 120.566 280.405 119.601 280.405 119.127C280.405 118.126 280.879 116.774 281.353 115.51C281.546 115.001 281.651 114.756 281.651 114.404C281.651 113.667 281.125 113 280.265 113C278.65 113 278 115.545 278 115.686C278 115.756 278.07 115.844 278.193 115.844C278.351 115.844 278.369 115.774 278.439 115.528C278.86 114.053 279.527 113.351 280.212 113.351C280.37 113.351 280.668 113.351 280.668 113.93C280.668 114.387 280.475 114.896 280.212 115.563C279.352 117.863 279.352 118.442 279.352 118.863C279.352 120.531 280.545 120.917 281.423 120.917C281.932 120.917 282.564 120.759 283.179 120.11L283.196 120.127C282.933 121.163 282.757 121.848 282.143 122.708Z" fill="black"/>
<path d="M287.514 116.798C287.666 116.845 288.135 116.962 288.626 116.962C290.089 116.962 290.978 115.932 290.978 115.756C290.978 115.627 290.897 115.592 290.838 115.592C290.815 115.592 290.791 115.592 290.686 115.651C290.229 115.826 289.691 115.967 289.059 115.967C288.369 115.967 287.795 115.791 287.432 115.651C287.315 115.592 287.292 115.592 287.28 115.592C287.128 115.592 287.128 115.721 287.128 115.932V119.361C287.128 119.571 287.128 119.712 287.315 119.712C287.409 119.712 287.444 119.665 287.503 119.571C287.643 119.396 288.088 118.799 289.083 118.799C289.738 118.799 290.054 119.337 290.159 119.56C290.358 119.981 290.382 120.519 290.382 120.976C290.382 121.409 290.37 122.041 290.042 122.556C289.82 122.907 289.352 123.27 288.731 123.27C287.971 123.27 287.222 122.79 286.953 122.029C286.988 122.041 287.058 122.041 287.07 122.041C287.397 122.041 287.655 121.83 287.655 121.467C287.655 121.034 287.315 120.882 287.081 120.882C286.871 120.882 286.496 120.999 286.496 121.502C286.496 122.556 287.409 123.621 288.755 123.621C290.218 123.621 291.458 122.486 291.458 121.034C291.458 119.677 290.475 118.471 289.094 118.471C288.509 118.471 287.959 118.659 287.514 119.056V116.798Z" fill="black"/>
<path d="M407.143 125.708C406.669 126.375 405.984 126.972 405.124 126.972C404.913 126.972 404.071 126.937 403.808 126.129C403.86 126.147 403.948 126.147 403.983 126.147C404.51 126.147 404.861 125.69 404.861 125.287C404.861 124.883 404.527 124.742 404.264 124.742C403.983 124.742 403.369 124.953 403.369 125.813C403.369 126.709 404.124 127.323 405.124 127.323C406.88 127.323 408.653 125.708 409.144 123.759L410.865 116.913C410.882 116.825 410.917 116.72 410.917 116.614C410.917 116.351 410.707 116.176 410.443 116.176C410.285 116.176 409.917 116.246 409.776 116.772L408.477 121.934C408.389 122.25 408.389 122.285 408.249 122.478C407.898 122.969 407.319 123.566 406.476 123.566C405.493 123.566 405.405 122.601 405.405 122.127C405.405 121.126 405.879 119.774 406.353 118.51C406.546 118.001 406.651 117.756 406.651 117.404C406.651 116.667 406.125 116 405.265 116C403.65 116 403 118.545 403 118.686C403 118.756 403.07 118.844 403.193 118.844C403.351 118.844 403.369 118.774 403.439 118.528C403.86 117.053 404.527 116.351 405.212 116.351C405.37 116.351 405.668 116.351 405.668 116.93C405.668 117.387 405.475 117.896 405.212 118.563C404.352 120.863 404.352 121.442 404.352 121.863C404.352 123.531 405.545 123.917 406.423 123.917C406.932 123.917 407.564 123.759 408.179 123.11L408.196 123.127C407.933 124.163 407.757 124.848 407.143 125.708Z" fill="black"/>
<path d="M412.491 122.501C412.491 121.53 412.573 120.675 412.994 119.962C413.345 119.376 413.942 118.897 414.679 118.897C414.913 118.897 415.452 118.932 415.721 119.341C415.194 119.365 415.148 119.763 415.148 119.891C415.148 120.242 415.417 120.441 415.698 120.441C415.908 120.441 416.248 120.313 416.248 119.868C416.248 119.166 415.721 118.592 414.668 118.592C413.041 118.592 411.391 120.137 411.391 122.665C411.391 125.837 412.865 126.621 414.001 126.621C414.562 126.621 415.171 126.469 415.698 125.965C416.166 125.509 416.564 125.017 416.564 123.999C416.564 122.466 415.405 121.389 414.106 121.389C413.263 121.389 412.76 121.928 412.491 122.501ZM414.001 126.27C413.38 126.27 412.994 125.837 412.819 125.509C412.549 124.982 412.526 124.186 412.526 123.742C412.526 122.583 413.158 121.717 414.059 121.717C414.644 121.717 414.995 122.021 415.218 122.431C415.464 122.864 415.464 123.391 415.464 123.988C415.464 124.584 415.464 125.099 415.229 125.521C414.925 126.059 414.516 126.27 414.001 126.27Z" fill="black"/>
<path d="M325.143 160.708C324.669 161.375 323.984 161.972 323.124 161.972C322.913 161.972 322.071 161.937 321.808 161.129C321.86 161.147 321.948 161.147 321.983 161.147C322.51 161.147 322.861 160.69 322.861 160.287C322.861 159.883 322.527 159.742 322.264 159.742C321.983 159.742 321.369 159.953 321.369 160.813C321.369 161.709 322.124 162.323 323.124 162.323C324.88 162.323 326.653 160.708 327.144 158.759L328.865 151.913C328.882 151.825 328.917 151.72 328.917 151.614C328.917 151.351 328.707 151.176 328.443 151.176C328.285 151.176 327.917 151.246 327.776 151.772L326.477 156.934C326.389 157.25 326.389 157.285 326.249 157.478C325.898 157.969 325.319 158.566 324.476 158.566C323.493 158.566 323.405 157.601 323.405 157.127C323.405 156.126 323.879 154.774 324.353 153.51C324.546 153.001 324.651 152.756 324.651 152.404C324.651 151.667 324.125 151 323.265 151C321.65 151 321 153.545 321 153.686C321 153.756 321.07 153.844 321.193 153.844C321.351 153.844 321.369 153.774 321.439 153.528C321.86 152.053 322.527 151.351 323.212 151.351C323.37 151.351 323.668 151.351 323.668 151.93C323.668 152.387 323.475 152.896 323.212 153.563C322.352 155.863 322.352 156.442 322.352 156.863C322.352 158.531 323.545 158.917 324.423 158.917C324.932 158.917 325.564 158.759 326.179 158.11L326.196 158.127C325.933 159.163 325.757 159.848 325.143 160.708Z" fill="black"/>
<path d="M334.798 154.248C334.903 154.119 334.903 154.096 334.903 153.838H331.93C331.638 153.838 331.275 153.826 330.982 153.803C330.374 153.756 330.362 153.651 330.327 153.464H329.964L329.566 155.933H329.929C329.952 155.757 330.081 154.95 330.245 154.856C330.374 154.798 331.252 154.798 331.427 154.798H333.908L332.703 156.413C331.369 158.192 331.088 160.041 331.088 160.965C331.088 161.083 331.088 161.621 331.638 161.621C332.188 161.621 332.188 161.094 332.188 160.954V160.392C332.188 158.707 332.469 157.326 333.042 156.565L334.798 154.248Z" fill="black"/>
<path d="M378.143 164.708C377.669 165.375 376.984 165.972 376.124 165.972C375.913 165.972 375.071 165.937 374.808 165.129C374.86 165.147 374.948 165.147 374.983 165.147C375.51 165.147 375.861 164.69 375.861 164.287C375.861 163.883 375.527 163.742 375.264 163.742C374.983 163.742 374.369 163.953 374.369 164.813C374.369 165.709 375.124 166.323 376.124 166.323C377.88 166.323 379.653 164.708 380.144 162.759L381.865 155.913C381.882 155.825 381.917 155.72 381.917 155.614C381.917 155.351 381.707 155.176 381.443 155.176C381.285 155.176 380.917 155.246 380.776 155.772L379.477 160.934C379.389 161.25 379.389 161.285 379.249 161.478C378.898 161.969 378.319 162.566 377.476 162.566C376.493 162.566 376.405 161.601 376.405 161.127C376.405 160.126 376.879 158.774 377.353 157.51C377.546 157.001 377.651 156.756 377.651 156.404C377.651 155.667 377.125 155 376.265 155C374.65 155 374 157.545 374 157.686C374 157.756 374.07 157.844 374.193 157.844C374.351 157.844 374.369 157.774 374.439 157.528C374.86 156.053 375.527 155.351 376.212 155.351C376.37 155.351 376.668 155.351 376.668 155.93C376.668 156.387 376.475 156.896 376.212 157.563C375.352 159.863 375.352 160.442 375.352 160.863C375.352 162.531 376.545 162.917 377.423 162.917C377.932 162.917 378.564 162.759 379.179 162.11L379.196 162.127C378.933 163.163 378.757 163.848 378.143 164.708Z" fill="black"/>
<path d="M385.761 161.15C386.417 160.834 387.213 160.249 387.213 159.336C387.213 158.224 386.077 157.592 384.989 157.592C383.748 157.592 382.742 158.447 382.742 159.547C382.742 159.98 382.894 160.378 383.187 160.717C383.386 160.963 383.432 160.986 384.158 161.443C382.707 162.086 382.391 162.941 382.391 163.596C382.391 164.883 383.69 165.621 384.965 165.621C386.405 165.621 387.564 164.649 387.564 163.409C387.564 162.672 387.166 162.18 386.978 161.981C386.78 161.794 386.768 161.782 385.761 161.15ZM383.947 160.05C383.608 159.851 383.327 159.512 383.327 159.102C383.327 158.365 384.135 157.897 384.965 157.897C385.878 157.897 386.627 158.517 386.627 159.336C386.627 160.015 386.101 160.588 385.41 160.928L383.947 160.05ZM384.521 161.653C384.568 161.677 385.902 162.496 386.101 162.625C386.288 162.73 386.897 163.105 386.897 163.807C386.897 164.708 385.949 165.27 384.989 165.27C383.947 165.27 383.058 164.556 383.058 163.596C383.058 162.718 383.713 162.028 384.521 161.653Z" fill="black"/>
<rect x="451" y="15" width="35" height="175" rx="4" fill="#8EA7D7"/>
<path d="M469.825 145.024H474V146.431H463.336V142.498C463.336 141.331 463.634 140.417 464.229 139.758C464.825 139.094 465.614 138.762 466.595 138.762C467.63 138.762 468.429 139.087 468.99 139.736C469.547 140.381 469.825 141.306 469.825 142.512V145.024ZM468.675 145.024V142.498C468.675 141.746 468.5 141.169 468.148 140.769C467.792 140.369 467.279 140.168 466.61 140.168C465.975 140.168 465.467 140.369 465.086 140.769C464.706 141.169 464.508 141.719 464.493 142.417V145.024H468.675ZM469.964 137.642C469.188 137.642 468.49 137.49 467.87 137.188C467.25 136.88 466.771 136.455 466.434 135.913C466.097 135.366 465.929 134.744 465.929 134.045C465.929 132.966 466.302 132.095 467.049 131.431C467.796 130.762 468.79 130.427 470.03 130.427H470.125C470.897 130.427 471.59 130.576 472.206 130.874C472.816 131.167 473.292 131.589 473.634 132.141C473.976 132.688 474.146 133.318 474.146 134.031C474.146 135.105 473.773 135.977 473.026 136.646C472.279 137.31 471.29 137.642 470.06 137.642H469.964ZM470.125 136.279C471.004 136.279 471.71 136.077 472.242 135.671C472.774 135.261 473.041 134.714 473.041 134.031C473.041 133.342 472.772 132.795 472.235 132.39C471.693 131.985 470.936 131.782 469.964 131.782C469.095 131.782 468.392 131.99 467.855 132.405C467.313 132.815 467.042 133.362 467.042 134.045C467.042 134.714 467.308 135.254 467.84 135.664C468.373 136.074 469.134 136.279 470.125 136.279ZM469.964 129.087C469.188 129.087 468.49 128.936 467.87 128.633C467.25 128.325 466.771 127.9 466.434 127.358C466.097 126.812 465.929 126.189 465.929 125.491C465.929 124.412 466.302 123.54 467.049 122.876C467.796 122.207 468.79 121.873 470.03 121.873H470.125C470.897 121.873 471.59 122.021 472.206 122.319C472.816 122.612 473.292 123.035 473.634 123.586C473.976 124.133 474.146 124.763 474.146 125.476C474.146 126.55 473.773 127.422 473.026 128.091C472.279 128.755 471.29 129.087 470.06 129.087H469.964ZM470.125 127.725C471.004 127.725 471.71 127.522 472.242 127.117C472.774 126.707 473.041 126.16 473.041 125.476C473.041 124.788 472.772 124.241 472.235 123.835C471.693 123.43 470.936 123.228 469.964 123.228C469.095 123.228 468.392 123.435 467.855 123.85C467.313 124.26 467.042 124.807 467.042 125.491C467.042 126.16 467.308 126.699 467.84 127.109C468.373 127.52 469.134 127.725 470.125 127.725ZM474 118.701V120.056H462.75V118.701H474ZM474 115.054V116.409H466.075V115.054H474ZM463.973 116.519C463.753 116.519 463.568 116.453 463.417 116.321C463.265 116.184 463.189 115.984 463.189 115.72C463.189 115.457 463.265 115.256 463.417 115.12C463.568 114.983 463.753 114.915 463.973 114.915C464.193 114.915 464.376 114.983 464.522 115.12C464.669 115.256 464.742 115.457 464.742 115.72C464.742 115.984 464.669 116.184 464.522 116.321C464.376 116.453 464.193 116.519 463.973 116.519ZM466.075 111.597L467.071 111.553C466.31 110.947 465.929 110.156 465.929 109.18C465.929 107.505 466.874 106.66 468.763 106.646H474V108H468.756C468.185 108.005 467.762 108.137 467.489 108.396C467.215 108.65 467.079 109.048 467.079 109.59C467.079 110.029 467.196 110.415 467.43 110.747C467.665 111.079 467.972 111.338 468.353 111.523H474V112.878H466.075V111.597ZM469.972 104.924C468.736 104.924 467.755 104.639 467.027 104.067C466.295 103.496 465.929 102.739 465.929 101.797C465.929 100.83 466.271 100.076 466.954 99.5337L466.075 99.4678V98.23H473.81C474.835 98.23 475.643 98.5352 476.234 99.1455C476.825 99.751 477.12 100.566 477.12 101.592C477.12 102.163 476.998 102.722 476.754 103.269C476.51 103.816 476.175 104.233 475.75 104.521L474.938 103.818C475.655 103.237 476.014 102.527 476.014 101.687C476.014 101.028 475.829 100.515 475.458 100.149C475.086 99.7778 474.564 99.5923 473.89 99.5923H473.209C473.834 100.134 474.146 100.874 474.146 101.812C474.146 102.739 473.773 103.491 473.026 104.067C472.279 104.639 471.261 104.924 469.972 104.924ZM470.125 103.562C471.019 103.562 471.722 103.379 472.235 103.013C472.743 102.646 472.997 102.134 472.997 101.475C472.997 100.62 472.608 99.9927 471.832 99.5923H468.214C467.457 100.007 467.079 100.63 467.079 101.46C467.079 102.119 467.335 102.634 467.848 103.005C468.36 103.376 469.12 103.562 470.125 103.562ZM472.85 90.8325V85.7788H474V92.2461H463.336V90.8325H472.85ZM474 79.4946C473.844 79.5728 473.565 79.6362 473.165 79.6851C473.819 80.3149 474.146 81.0669 474.146 81.9409C474.146 82.7222 473.927 83.3643 473.487 83.8672C473.043 84.3652 472.481 84.6143 471.803 84.6143C470.978 84.6143 470.338 84.3018 469.884 83.6768C469.425 83.0469 469.195 82.1631 469.195 81.0254V79.707H468.573C468.099 79.707 467.723 79.8486 467.445 80.1318C467.162 80.415 467.02 80.8325 467.02 81.3843C467.02 81.8677 467.142 82.2729 467.386 82.6001C467.63 82.9272 467.926 83.0908 468.272 83.0908V84.4531C467.877 84.4531 467.496 84.314 467.13 84.0356C466.759 83.7524 466.466 83.3716 466.251 82.8931C466.036 82.4097 465.929 81.8799 465.929 81.3037C465.929 80.3906 466.158 79.6753 466.617 79.1577C467.071 78.6401 467.699 78.3716 468.5 78.3521H472.147C472.875 78.3521 473.453 78.2593 473.883 78.0737H474V79.4946ZM472.967 81.7432C472.967 81.3184 472.857 80.9155 472.638 80.5347C472.418 80.1538 472.132 79.8779 471.781 79.707H470.155V80.769C470.155 82.4292 470.641 83.2593 471.612 83.2593C472.037 83.2593 472.369 83.1177 472.608 82.8345C472.848 82.5513 472.967 82.1875 472.967 81.7432ZM472.015 73.7524L466.075 71.9067V70.4565L475.223 73.6426C476.542 74.1357 477.201 74.9194 477.201 75.9937L477.179 76.25L477.083 76.7554H475.985L476.014 76.3892C476.014 75.9302 475.921 75.5737 475.736 75.3198C475.55 75.061 475.211 74.8486 474.718 74.6826L473.912 74.3823L466.075 77.2095V75.73L472.015 73.7524ZM474.146 66.0547C474.146 67.1289 473.795 68.0029 473.092 68.6768C472.384 69.3506 471.439 69.6875 470.257 69.6875H470.008C469.222 69.6875 468.521 69.5386 467.906 69.2407C467.286 68.938 466.803 68.5181 466.456 67.981C466.104 67.439 465.929 66.853 465.929 66.2231C465.929 65.1929 466.268 64.3921 466.947 63.8208C467.625 63.2495 468.597 62.9639 469.862 62.9639H470.426V68.3325C471.207 68.313 471.839 68.0859 472.323 67.6514C472.801 67.2119 473.041 66.6553 473.041 65.9814C473.041 65.5029 472.943 65.0977 472.748 64.7656C472.552 64.4336 472.293 64.1431 471.971 63.894L472.616 63.0664C473.636 63.7305 474.146 64.7266 474.146 66.0547ZM467.042 66.2231C467.042 66.77 467.242 67.229 467.643 67.6001C468.038 67.9712 468.595 68.2007 469.312 68.2886V64.3188H469.21C468.521 64.3579 467.989 64.5435 467.613 64.8755C467.232 65.2075 467.042 65.6567 467.042 66.2231ZM467.291 57.5586C467.257 57.7637 467.24 57.9858 467.24 58.2251C467.24 59.1138 467.618 59.7168 468.375 60.0342H474V61.3892H466.075V60.0708L466.991 60.0488C466.283 59.6045 465.929 58.9746 465.929 58.1592C465.929 57.8955 465.963 57.6953 466.031 57.5586H467.291Z" fill="black"/>
<path d="M110 56L110.676 55.2628L110 54.6434L109.324 55.2628L110 56ZM98 89L106.843 81.5751L95.9915 77.629L98 89ZM146 89L142.53 77.9868L134.727 86.4987L146 89ZM74 89L85.2728 86.4987L77.4702 77.9868L74 89ZM122 89L124.008 77.629L113.157 81.5751L122 89ZM109.06 55.6583L100.136 80.2001L102.015 80.8836L110.94 56.3417L109.06 55.6583ZM109.324 56.7372L138.69 83.6556L140.041 82.1813L110.676 55.2628L109.324 56.7372ZM109.324 55.2628L79.9587 82.1813L81.3101 83.6556L110.676 56.7372L109.324 55.2628ZM109.06 56.3417L117.985 80.8836L119.864 80.2001L110.94 55.6583L109.06 56.3417Z" fill="#B33535"/>
<path d="M188 56L188.94 55.6583L188 53.0738L187.06 55.6583L188 56ZM176 89L184.843 81.5751L173.992 77.629L176 89ZM200 89L202.008 77.629L191.157 81.5751L200 89ZM187.06 55.6583L178.136 80.2001L180.015 80.8836L188.94 56.3417L187.06 55.6583ZM187.06 56.3417L195.985 80.8836L197.864 80.2001L188.94 55.6583L187.06 56.3417Z" fill="#B33535"/>
<path d="M32 56L32.9398 55.6583L32 53.0738L31.0602 55.6583L32 56ZM20 89L28.8433 81.5751L17.9915 77.629L20 89ZM44 89L46.0085 77.629L35.1567 81.5751L44 89ZM31.0602 55.6583L22.1359 80.2001L24.0155 80.8836L32.9398 56.3417L31.0602 55.6583ZM31.0602 56.3417L39.9845 80.8836L41.8641 80.2001L32.9398 55.6583L31.0602 56.3417Z" fill="#B33535"/>
<circle cx="98" cy="98" r="9" fill="#DC8989"/>
<path d="M100.386 102.6H95.2615V101.886L97.9686 98.8778C98.3696 98.4231 98.6453 98.0542 98.7957 97.7714C98.9497 97.4849 99.0267 97.1895 99.0267 96.8851C99.0267 96.4769 98.9031 96.1421 98.6561 95.8807C98.409 95.6193 98.0796 95.4886 97.6678 95.4886C97.1736 95.4886 96.7887 95.6301 96.513 95.913C96.2409 96.1923 96.1048 96.5826 96.1048 97.0839H95.1111C95.1111 96.3641 95.3421 95.7823 95.804 95.3383C96.2695 94.8942 96.8908 94.6722 97.6678 94.6722C98.3947 94.6722 98.9694 94.8638 99.3919 95.2469C99.8144 95.6265 100.026 96.1332 100.026 96.767C100.026 97.5368 99.5351 98.4535 98.554 99.517L96.4593 101.789H100.386V102.6Z" fill="black"/>
<circle cx="44" cy="98" r="9" fill="#DC8989"/>
<path d="M42.7063 98.2064H43.4529C43.922 98.1993 44.2908 98.0757 44.5594 97.8358C44.8279 97.5959 44.9622 97.2719 44.9622 96.8636C44.9622 95.947 44.5057 95.4886 43.5926 95.4886C43.1629 95.4886 42.8191 95.6122 42.5613 95.8593C42.3071 96.1027 42.18 96.4268 42.18 96.8314H41.1863C41.1863 96.212 41.4119 95.6981 41.8631 95.2899C42.3178 94.8781 42.8943 94.6722 43.5926 94.6722C44.3302 94.6722 44.9085 94.8674 45.3274 95.2577C45.7464 95.648 45.9559 96.1905 45.9559 96.8851C45.9559 97.2253 45.8449 97.5547 45.6229 97.8734C45.4044 98.1921 45.1054 98.4302 44.7259 98.5878C45.1556 98.7238 45.4868 98.9494 45.7195 99.2645C45.9559 99.5796 46.074 99.9646 46.074 100.419C46.074 101.121 45.8449 101.678 45.3865 102.09C44.9282 102.502 44.332 102.707 43.5979 102.707C42.8639 102.707 42.2659 102.509 41.804 102.111C41.3457 101.714 41.1165 101.189 41.1165 100.537H42.1155C42.1155 100.949 42.2498 101.279 42.5184 101.526C42.7869 101.773 43.1468 101.896 43.5979 101.896C44.0778 101.896 44.4448 101.771 44.699 101.52C44.9533 101.27 45.0804 100.91 45.0804 100.441C45.0804 99.986 44.9407 99.6369 44.6614 99.3934C44.3821 99.1499 43.9793 99.0246 43.4529 99.0175H42.7063V98.2064Z" fill="black"/>
<circle cx="122" cy="98" r="9" fill="#8DDC89"/>
<path d="M123.456 99.9735H124.541V100.785H123.456V102.6H122.457V100.785H118.896V100.199L122.398 94.7797H123.456V99.9735ZM120.024 99.9735H122.457V96.1385L122.339 96.3534L120.024 99.9735Z" fill="black"/>
<circle cx="200" cy="98" r="9" fill="#8DDC89"/>
<path d="M197.718 98.6791L198.116 94.7797H202.122V95.6981H198.959L198.722 97.8304C199.106 97.6049 199.541 97.4921 200.028 97.4921C200.74 97.4921 201.306 97.7284 201.725 98.201C202.144 98.6701 202.353 99.3057 202.353 100.108C202.353 100.913 202.135 101.549 201.698 102.015C201.265 102.476 200.658 102.707 199.877 102.707C199.186 102.707 198.622 102.516 198.185 102.133C197.749 101.75 197.5 101.22 197.439 100.543H198.379C198.44 100.99 198.599 101.329 198.857 101.558C199.115 101.784 199.455 101.896 199.877 101.896C200.339 101.896 200.701 101.739 200.962 101.424C201.227 101.109 201.36 100.674 201.36 100.119C201.36 99.5957 201.216 99.1768 200.93 98.8617C200.647 98.543 200.269 98.3837 199.797 98.3837C199.363 98.3837 199.023 98.4786 198.776 98.6683L198.513 98.8832L197.718 98.6791Z" fill="black"/>
<circle cx="146" cy="98" r="9" fill="#8DDC89"/>
<path d="M143.718 98.6791L144.116 94.7797H148.122V95.6981H144.959L144.722 97.8304C145.106 97.6049 145.541 97.4921 146.028 97.4921C146.74 97.4921 147.306 97.7284 147.725 98.201C148.144 98.6701 148.353 99.3057 148.353 100.108C148.353 100.913 148.135 101.549 147.698 102.015C147.265 102.476 146.658 102.707 145.877 102.707C145.186 102.707 144.622 102.516 144.185 102.133C143.749 101.75 143.5 101.22 143.439 100.543H144.379C144.44 100.99 144.599 101.329 144.857 101.558C145.115 101.784 145.455 101.896 145.877 101.896C146.339 101.896 146.701 101.739 146.962 101.424C147.227 101.109 147.36 100.674 147.36 100.119C147.36 99.5957 147.216 99.1768 146.93 98.8617C146.647 98.543 146.269 98.3837 145.797 98.3837C145.363 98.3837 145.023 98.4786 144.776 98.6683L144.513 98.8832L143.718 98.6791Z" fill="black"/>
<circle cx="176" cy="98" r="9" fill="#8EA7D7"/>
<path d="M176.527 102.6H175.528V95.9774L173.525 96.7133V95.8109L176.371 94.7421H176.527V102.6Z" fill="black"/>
<circle cx="74" cy="98" r="9" fill="#8EA7D7"/>
<path d="M74.5271 102.6H73.5281V95.9774L71.5247 96.7133V95.8109L74.3714 94.7421H74.5271V102.6Z" fill="black"/>
<circle cx="20" cy="98" r="9" fill="#8EA7D7"/>
<path d="M20.5271 102.6H19.5281V95.9774L17.5247 96.7133V95.8109L20.3714 94.7421H20.5271V102.6Z" fill="black"/>
<path d="M110 14L110.39 13.079L110 12.9142L109.61 13.079L110 14ZM110 47L115.774 37H104.227L110 47ZM188 47L181.04 37.7864L176.541 48.4208L188 47ZM32 47L43.4593 48.4208L38.9601 37.7864L32 47ZM109 14V38H111V14H109ZM109.61 14.921L179.322 44.4142L180.101 42.5723L110.39 13.079L109.61 14.921ZM109.61 13.079L39.8991 42.5723L40.6783 44.4142L110.39 14.921L109.61 13.079Z" fill="#355FB3"/>
<circle cx="32" cy="56" r="9" fill="#DC8989"/>
<path d="M34.3855 60.6H29.2615V59.8856L31.9686 56.8778C32.3696 56.4231 32.6453 56.0542 32.7957 55.7714C32.9497 55.4849 33.0267 55.1895 33.0267 54.8851C33.0267 54.4769 32.9031 54.1421 32.6561 53.8807C32.409 53.6193 32.0796 53.4886 31.6678 53.4886C31.1736 53.4886 30.7887 53.6301 30.513 53.913C30.2409 54.1923 30.1048 54.5826 30.1048 55.0839H29.1111C29.1111 54.3641 29.3421 53.7823 29.804 53.3383C30.2695 52.8942 30.8908 52.6722 31.6678 52.6722C32.3947 52.6722 32.9694 52.8638 33.3919 53.2469C33.8144 53.6265 34.0257 54.1332 34.0257 54.767C34.0257 55.5368 33.5351 56.4535 32.554 57.517L30.4593 59.7889H34.3855V60.6Z" fill="black"/>
<circle cx="110" cy="56" r="9" fill="#DC8989"/>
<path d="M108.706 56.2064H109.453C109.922 56.1993 110.291 56.0757 110.559 55.8358C110.828 55.5959 110.962 55.2719 110.962 54.8636C110.962 53.947 110.506 53.4886 109.593 53.4886C109.163 53.4886 108.819 53.6122 108.561 53.8593C108.307 54.1027 108.18 54.4268 108.18 54.8314H107.186C107.186 54.212 107.412 53.6981 107.863 53.2899C108.318 52.8781 108.894 52.6722 109.593 52.6722C110.33 52.6722 110.908 52.8674 111.327 53.2577C111.746 53.648 111.956 54.1905 111.956 54.8851C111.956 55.2253 111.845 55.5547 111.623 55.8734C111.404 56.1921 111.105 56.4302 110.726 56.5878C111.156 56.7238 111.487 56.9494 111.72 57.2645C111.956 57.5796 112.074 57.9646 112.074 58.4193C112.074 59.1211 111.845 59.6779 111.387 60.0897C110.928 60.5015 110.332 60.7074 109.598 60.7074C108.864 60.7074 108.266 60.5087 107.804 60.1112C107.346 59.7137 107.117 59.1892 107.117 58.5375H108.116C108.116 58.9493 108.25 59.2787 108.518 59.5258C108.787 59.7728 109.147 59.8964 109.598 59.8964C110.078 59.8964 110.445 59.771 110.699 59.5204C110.953 59.2697 111.08 58.9099 111.08 58.4408C111.08 57.986 110.941 57.6369 110.661 57.3934C110.382 57.1499 109.979 57.0246 109.453 57.0175H108.706V56.2064Z" fill="black"/>
<circle cx="188" cy="56" r="9" fill="#DC8989"/>
<path d="M189.161 52.7743V53.6176H188.978C188.205 53.6319 187.589 53.861 187.131 54.3051C186.672 54.7491 186.407 55.3739 186.336 56.1796C186.748 55.7069 187.31 55.4706 188.022 55.4706C188.703 55.4706 189.245 55.7105 189.65 56.1903C190.058 56.6701 190.262 57.2896 190.262 58.0487C190.262 58.8544 190.042 59.4989 189.601 59.9823C189.165 60.4657 188.577 60.7074 187.84 60.7074C187.091 60.7074 186.484 60.4209 186.019 59.848C185.553 59.2715 185.321 58.5303 185.321 57.6244V57.243C185.321 55.8036 185.627 54.7043 186.239 53.9452C186.855 53.1825 187.77 52.7922 188.984 52.7743H189.161ZM187.856 56.2977C187.516 56.2977 187.202 56.3998 186.916 56.6039C186.629 56.808 186.431 57.064 186.32 57.3719V57.7372C186.32 58.3817 186.465 58.9009 186.755 59.2948C187.045 59.6887 187.406 59.8856 187.84 59.8856C188.287 59.8856 188.638 59.7209 188.892 59.3915C189.15 59.0621 189.279 58.6306 189.279 58.097C189.279 57.5599 189.148 57.1267 188.887 56.7972C188.629 56.4642 188.285 56.2977 187.856 56.2977Z" fill="black"/>
<circle cx="110" cy="14" r="9" fill="#8EA7D7"/>
<path d="M110.527 18.6H109.528V11.9774L107.525 12.7133V11.8109L110.371 10.7421H110.527V18.6Z" fill="black"/>
<path d="M296.5 49L209 3M209 110L296.5 78.5" stroke="#355FB3" stroke-dasharray="4 2"/>
<path d="M51.04 129.898C51.04 129.532 50.9009 129.249 50.6226 129.048C50.3491 128.843 49.8682 128.667 49.1797 128.521C48.4961 128.375 47.9517 128.199 47.5464 127.994C47.146 127.789 46.8481 127.544 46.6528 127.261C46.4624 126.978 46.3672 126.641 46.3672 126.25C46.3672 125.601 46.6406 125.052 47.1875 124.603C47.7393 124.153 48.4424 123.929 49.2969 123.929C50.1953 123.929 50.9229 124.161 51.4795 124.625C52.041 125.088 52.3218 125.682 52.3218 126.404H50.9595C50.9595 126.033 50.8008 125.713 50.4834 125.445C50.1709 125.176 49.7754 125.042 49.2969 125.042C48.8037 125.042 48.418 125.149 48.1396 125.364C47.8613 125.579 47.7222 125.86 47.7222 126.207C47.7222 126.534 47.8516 126.78 48.1104 126.946C48.3691 127.112 48.8354 127.271 49.5093 127.422C50.188 127.574 50.7373 127.754 51.1572 127.964C51.5771 128.174 51.8872 128.428 52.0874 128.726C52.2925 129.019 52.395 129.378 52.395 129.803C52.395 130.511 52.1118 131.08 51.5454 131.509C50.979 131.934 50.2441 132.146 49.3408 132.146C48.7061 132.146 48.1445 132.034 47.6562 131.81C47.168 131.585 46.7847 131.272 46.5063 130.872C46.2329 130.467 46.0962 130.03 46.0962 129.561H47.4512C47.4756 130.015 47.6562 130.376 47.9932 130.645C48.335 130.909 48.7842 131.041 49.3408 131.041C49.8535 131.041 50.2637 130.938 50.5713 130.733C50.8838 130.523 51.04 130.245 51.04 129.898ZM59.0527 131.216C58.5254 131.836 57.7515 132.146 56.731 132.146C55.8862 132.146 55.2417 131.902 54.7974 131.414C54.3579 130.921 54.1357 130.193 54.1309 129.231V124.075H55.4858V129.195C55.4858 130.396 55.9741 130.997 56.9507 130.997C57.9858 130.997 58.6743 130.611 59.0161 129.839V124.075H60.3711V132H59.082L59.0527 131.216ZM69.1455 128.125C69.1455 129.336 68.8672 130.311 68.3105 131.048C67.7539 131.78 67.0068 132.146 66.0693 132.146C65.0684 132.146 64.2944 131.792 63.7476 131.084L63.6816 132H62.4365V120.75H63.7915V124.947C64.3384 124.268 65.0928 123.929 66.0547 123.929C67.0166 123.929 67.771 124.292 68.3179 125.02C68.8696 125.748 69.1455 126.744 69.1455 128.008V128.125ZM67.7905 127.972C67.7905 127.049 67.6123 126.336 67.2559 125.833C66.8994 125.33 66.3867 125.079 65.7178 125.079C64.8242 125.079 64.1821 125.494 63.7915 126.324V129.751C64.2065 130.582 64.8535 130.997 65.7324 130.997C66.3818 130.997 66.8872 130.745 67.2485 130.242C67.6099 129.739 67.7905 128.982 67.7905 127.972ZM72.6978 122.156V124.075H74.1772V125.123H72.6978V130.037C72.6978 130.354 72.7637 130.594 72.8955 130.755C73.0273 130.911 73.252 130.989 73.5693 130.989C73.7256 130.989 73.9404 130.96 74.2139 130.901V132C73.8574 132.098 73.5107 132.146 73.1738 132.146C72.5684 132.146 72.1118 131.963 71.8042 131.597C71.4966 131.231 71.3428 130.711 71.3428 130.037V125.123H69.8999V124.075H71.3428V122.156H72.6978ZM79.5972 125.291C79.3921 125.257 79.1699 125.24 78.9307 125.24C78.042 125.24 77.439 125.618 77.1216 126.375V132H75.7666V124.075H77.085L77.1069 124.991C77.5513 124.283 78.1812 123.929 78.9966 123.929C79.2603 123.929 79.4604 123.963 79.5972 124.031V125.291ZM83.9917 132.146C82.9175 132.146 82.0435 131.795 81.3696 131.092C80.6958 130.384 80.3589 129.439 80.3589 128.257V128.008C80.3589 127.222 80.5078 126.521 80.8057 125.906C81.1084 125.286 81.5283 124.803 82.0654 124.456C82.6074 124.104 83.1934 123.929 83.8232 123.929C84.8535 123.929 85.6543 124.268 86.2256 124.947C86.7969 125.625 87.0825 126.597 87.0825 127.862V128.426H81.7139C81.7334 129.207 81.9604 129.839 82.395 130.323C82.8345 130.801 83.3911 131.041 84.0649 131.041C84.5435 131.041 84.9487 130.943 85.2808 130.748C85.6128 130.552 85.9033 130.293 86.1523 129.971L86.98 130.616C86.3159 131.636 85.3198 132.146 83.9917 132.146ZM83.8232 125.042C83.2764 125.042 82.8174 125.242 82.4463 125.643C82.0752 126.038 81.8457 126.595 81.7578 127.312H85.7275V127.21C85.6885 126.521 85.5029 125.989 85.1709 125.613C84.8389 125.232 84.3896 125.042 83.8232 125.042ZM91.9458 132.146C90.8716 132.146 89.9976 131.795 89.3237 131.092C88.6499 130.384 88.313 129.439 88.313 128.257V128.008C88.313 127.222 88.4619 126.521 88.7598 125.906C89.0625 125.286 89.4824 124.803 90.0195 124.456C90.5615 124.104 91.1475 123.929 91.7773 123.929C92.8076 123.929 93.6084 124.268 94.1797 124.947C94.751 125.625 95.0366 126.597 95.0366 127.862V128.426H89.668C89.6875 129.207 89.9146 129.839 90.3491 130.323C90.7886 130.801 91.3452 131.041 92.019 131.041C92.4976 131.041 92.9028 130.943 93.2349 130.748C93.5669 130.552 93.8574 130.293 94.1064 129.971L94.9341 130.616C94.27 131.636 93.2739 132.146 91.9458 132.146ZM91.7773 125.042C91.2305 125.042 90.7715 125.242 90.4004 125.643C90.0293 126.038 89.7998 126.595 89.7119 127.312H93.6816V127.21C93.6426 126.521 93.457 125.989 93.125 125.613C92.793 125.232 92.3438 125.042 91.7773 125.042ZM103.511 131.041C103.994 131.041 104.417 130.894 104.778 130.601C105.139 130.308 105.339 129.942 105.378 129.502H106.66C106.636 129.957 106.479 130.389 106.191 130.799C105.903 131.209 105.518 131.536 105.034 131.78C104.556 132.024 104.048 132.146 103.511 132.146C102.432 132.146 101.572 131.788 100.933 131.07C100.298 130.347 99.9805 129.361 99.9805 128.111V127.884C99.9805 127.112 100.122 126.426 100.405 125.826C100.688 125.225 101.094 124.759 101.621 124.427C102.153 124.095 102.781 123.929 103.503 123.929C104.392 123.929 105.129 124.195 105.715 124.727C106.306 125.259 106.621 125.95 106.66 126.8H105.378C105.339 126.287 105.144 125.867 104.792 125.54C104.446 125.208 104.016 125.042 103.503 125.042C102.815 125.042 102.28 125.291 101.899 125.789C101.523 126.282 101.335 126.998 101.335 127.935V128.191C101.335 129.104 101.523 129.808 101.899 130.301C102.275 130.794 102.812 131.041 103.511 131.041ZM107.825 127.964C107.825 127.188 107.976 126.49 108.279 125.87C108.586 125.25 109.011 124.771 109.553 124.434C110.1 124.097 110.723 123.929 111.421 123.929C112.5 123.929 113.372 124.302 114.036 125.049C114.705 125.796 115.039 126.79 115.039 128.03V128.125C115.039 128.897 114.89 129.59 114.592 130.206C114.299 130.816 113.877 131.292 113.325 131.634C112.778 131.976 112.148 132.146 111.436 132.146C110.361 132.146 109.49 131.773 108.821 131.026C108.157 130.279 107.825 129.29 107.825 128.06V127.964ZM109.187 128.125C109.187 129.004 109.39 129.71 109.795 130.242C110.205 130.774 110.752 131.041 111.436 131.041C112.124 131.041 112.671 130.772 113.076 130.235C113.481 129.693 113.684 128.936 113.684 127.964C113.684 127.095 113.477 126.392 113.062 125.855C112.651 125.313 112.104 125.042 111.421 125.042C110.752 125.042 110.212 125.308 109.802 125.84C109.392 126.373 109.187 127.134 109.187 128.125ZM118.02 124.075L118.064 125.071C118.669 124.31 119.46 123.929 120.437 123.929C122.112 123.929 122.957 124.874 122.971 126.763V132H121.616V126.756C121.611 126.185 121.479 125.762 121.221 125.489C120.967 125.215 120.569 125.079 120.027 125.079C119.587 125.079 119.202 125.196 118.87 125.43C118.538 125.665 118.279 125.972 118.093 126.353V132H116.738V124.075H118.02ZM129.629 129.898C129.629 129.532 129.49 129.249 129.211 129.048C128.938 128.843 128.457 128.667 127.769 128.521C127.085 128.375 126.541 128.199 126.135 127.994C125.735 127.789 125.437 127.544 125.242 127.261C125.051 126.978 124.956 126.641 124.956 126.25C124.956 125.601 125.229 125.052 125.776 124.603C126.328 124.153 127.031 123.929 127.886 123.929C128.784 123.929 129.512 124.161 130.068 124.625C130.63 125.088 130.911 125.682 130.911 126.404H129.548C129.548 126.033 129.39 125.713 129.072 125.445C128.76 125.176 128.364 125.042 127.886 125.042C127.393 125.042 127.007 125.149 126.729 125.364C126.45 125.579 126.311 125.86 126.311 126.207C126.311 126.534 126.44 126.78 126.699 126.946C126.958 127.112 127.424 127.271 128.098 127.422C128.777 127.574 129.326 127.754 129.746 127.964C130.166 128.174 130.476 128.428 130.676 128.726C130.881 129.019 130.984 129.378 130.984 129.803C130.984 130.511 130.701 131.08 130.134 131.509C129.568 131.934 128.833 132.146 127.93 132.146C127.295 132.146 126.733 132.034 126.245 131.81C125.757 131.585 125.374 131.272 125.095 130.872C124.822 130.467 124.685 130.03 124.685 129.561H126.04C126.064 130.015 126.245 130.376 126.582 130.645C126.924 130.909 127.373 131.041 127.93 131.041C128.442 131.041 128.853 130.938 129.16 130.733C129.473 130.523 129.629 130.245 129.629 129.898ZM134.587 122.156V124.075H136.067V125.123H134.587V130.037C134.587 130.354 134.653 130.594 134.785 130.755C134.917 130.911 135.142 130.989 135.459 130.989C135.615 130.989 135.83 130.96 136.104 130.901V132C135.747 132.098 135.4 132.146 135.063 132.146C134.458 132.146 134.001 131.963 133.694 131.597C133.386 131.231 133.232 130.711 133.232 130.037V125.123H131.79V124.075H133.232V122.156H134.587ZM139.128 132H137.773V124.075H139.128V132ZM137.664 121.973C137.664 121.753 137.729 121.568 137.861 121.417C137.998 121.265 138.198 121.189 138.462 121.189C138.726 121.189 138.926 121.265 139.062 121.417C139.199 121.568 139.268 121.753 139.268 121.973C139.268 122.193 139.199 122.376 139.062 122.522C138.926 122.669 138.726 122.742 138.462 122.742C138.198 122.742 137.998 122.669 137.861 122.522C137.729 122.376 137.664 122.193 137.664 121.973ZM143.142 122.156V124.075H144.622V125.123H143.142V130.037C143.142 130.354 143.208 130.594 143.34 130.755C143.472 130.911 143.696 130.989 144.014 130.989C144.17 130.989 144.385 130.96 144.658 130.901V132C144.302 132.098 143.955 132.146 143.618 132.146C143.013 132.146 142.556 131.963 142.249 131.597C141.941 131.231 141.787 130.711 141.787 130.037V125.123H140.344V124.075H141.787V122.156H143.142ZM151.104 131.216C150.576 131.836 149.802 132.146 148.782 132.146C147.937 132.146 147.292 131.902 146.848 131.414C146.409 130.921 146.187 130.193 146.182 129.231V124.075H147.537V129.195C147.537 130.396 148.025 130.997 149.001 130.997C150.037 130.997 150.725 130.611 151.067 129.839V124.075H152.422V132H151.133L151.104 131.216ZM157.776 132.146C156.702 132.146 155.828 131.795 155.154 131.092C154.48 130.384 154.143 129.439 154.143 128.257V128.008C154.143 127.222 154.292 126.521 154.59 125.906C154.893 125.286 155.312 124.803 155.85 124.456C156.392 124.104 156.978 123.929 157.607 123.929C158.638 123.929 159.438 124.268 160.01 124.947C160.581 125.625 160.867 126.597 160.867 127.862V128.426H155.498C155.518 129.207 155.745 129.839 156.179 130.323C156.619 130.801 157.175 131.041 157.849 131.041C158.328 131.041 158.733 130.943 159.065 130.748C159.397 130.552 159.688 130.293 159.937 129.971L160.764 130.616C160.1 131.636 159.104 132.146 157.776 132.146ZM157.607 125.042C157.061 125.042 156.602 125.242 156.23 125.643C155.859 126.038 155.63 126.595 155.542 127.312H159.512V127.21C159.473 126.521 159.287 125.989 158.955 125.613C158.623 125.232 158.174 125.042 157.607 125.042ZM163.723 124.075L163.767 125.071C164.373 124.31 165.164 123.929 166.14 123.929C167.815 123.929 168.66 124.874 168.674 126.763V132H167.319V126.756C167.314 126.185 167.183 125.762 166.924 125.489C166.67 125.215 166.272 125.079 165.73 125.079C165.291 125.079 164.905 125.196 164.573 125.43C164.241 125.665 163.982 125.972 163.796 126.353V132H162.441V124.075H163.723ZM172.556 122.156V124.075H174.036V125.123H172.556V130.037C172.556 130.354 172.622 130.594 172.754 130.755C172.886 130.911 173.11 130.989 173.428 130.989C173.584 130.989 173.799 130.96 174.072 130.901V132C173.716 132.098 173.369 132.146 173.032 132.146C172.427 132.146 171.97 131.963 171.663 131.597C171.355 131.231 171.201 130.711 171.201 130.037V125.123H169.758V124.075H171.201V122.156H172.556Z" fill="black"/>
</svg>
