<svg width="672" height="190" viewBox="0 0 672 190" fill="none" xmlns="http://www.w3.org/2000/svg">
<rect width="672" height="190" fill="white"/>
<path d="M504 102L494 96.2265V107.774L504 102ZM444 103H495V101H444V103Z" fill="#355FB3"/>
<path d="M624 102L614 96.2265V107.774L624 102ZM559 103L615 103V101L559 101V103Z" fill="#355FB3"/>
<path d="M443 102.5C443 150.192 400.775 189 348.5 189C296.225 189 254 150.192 254 102.5C254 54.8079 296.225 16 348.5 16C400.775 16 443 54.8079 443 102.5Z" stroke="#355FB3" stroke-width="2"/>
<path d="M633.145 107.962C632.671 108.63 631.986 109.227 631.125 109.227C630.914 109.227 630.071 109.192 629.808 108.384C629.861 108.401 629.948 108.401 629.983 108.401C630.51 108.401 630.862 107.945 630.862 107.541C630.862 107.137 630.528 106.996 630.264 106.996C629.983 106.996 629.369 107.207 629.369 108.068C629.369 108.963 630.124 109.578 631.125 109.578C632.881 109.578 634.655 107.962 635.147 106.013L636.868 99.1634C636.886 99.0756 636.921 98.9702 636.921 98.8648C636.921 98.6014 636.71 98.4257 636.446 98.4257C636.288 98.4257 635.92 98.496 635.779 99.0229L634.479 104.186C634.392 104.502 634.392 104.537 634.251 104.731C633.9 105.222 633.32 105.82 632.477 105.82C631.494 105.82 631.406 104.854 631.406 104.379C631.406 103.378 631.88 102.026 632.354 100.762C632.548 100.252 632.653 100.006 632.653 99.6551C632.653 98.9175 632.126 98.2501 631.266 98.2501C629.65 98.2501 629 100.797 629 100.937C629 101.007 629.07 101.095 629.193 101.095C629.351 101.095 629.369 101.025 629.439 100.779C629.861 99.3039 630.528 98.6014 631.213 98.6014C631.371 98.6014 631.67 98.6014 631.67 99.1809C631.67 99.6376 631.476 100.147 631.213 100.814C630.352 103.115 630.352 103.694 630.352 104.116C630.352 105.784 631.547 106.171 632.425 106.171C632.934 106.171 633.566 106.013 634.181 105.363L634.198 105.38C633.935 106.417 633.759 107.102 633.145 107.962Z" fill="black"/>
<path d="M652.012 101.956C652.31 101.956 652.627 101.956 652.627 101.605C652.627 101.253 652.31 101.253 652.012 101.253H644.565C644.776 98.9 646.796 97.214 649.272 97.214H652.012C652.31 97.214 652.627 97.214 652.627 96.8627C652.627 96.5115 652.31 96.5115 652.012 96.5115H649.237C646.234 96.5115 643.845 98.7946 643.845 101.605C643.845 104.415 646.234 106.698 649.237 106.698H652.012C652.31 106.698 652.627 106.698 652.627 106.346C652.627 105.995 652.31 105.995 652.012 105.995H649.272C646.796 105.995 644.776 104.309 644.565 101.956H652.012Z" fill="black"/>
<path d="M666.096 104.292C666.149 103.624 666.166 102.676 666.166 102.184C666.166 100.34 666.079 94 662.408 94C661.196 94 660.125 95.0713 660.125 95.3347C660.125 95.4752 660.265 95.4752 660.301 95.4752C660.406 95.4752 660.95 95.3874 661.337 94.8781C662.882 94.8957 663.883 96.0372 664.41 98.2501C664.744 99.6551 664.867 101.218 664.867 102.816C664.867 103.87 664.797 105.082 664.779 105.31C664.761 105.451 664.761 105.486 664.726 105.503C664.691 105.539 662.935 107.014 662.074 107.014C661.934 107.014 660.511 107.014 660.178 105.556C660.142 105.433 660.125 105.328 660.02 105.328C659.809 105.328 659.475 105.925 659.475 106.364C659.475 107.084 660.142 108.366 661.635 108.366C662.97 108.366 665.868 105.784 667.396 104.011C670.908 99.9712 671.523 96.9505 671.523 96.0372C671.523 94.5444 670.522 94 669.855 94C669.345 94 669.187 94.8781 669.187 95.0537C669.187 95.3172 669.257 95.3347 669.521 95.3699C670.557 95.4928 670.82 96.3182 670.82 96.8276C670.82 97.372 669.995 100.498 666.096 104.292Z" fill="black"/>
<rect x="4.5" y="0.5" width="210" height="112" rx="14.5" fill="#8EA7D7" fill-opacity="0.09" stroke="#355FB3"/>
<circle cx="346" cy="102" r="15" fill="#8EA7D7"/>
<circle cx="296" cy="64" r="15" fill="#8EA7D7"/>
<circle cx="285" cy="119" r="15" fill="#8EA7D7"/>
<circle cx="328" cy="157" r="15" fill="#8EA7D7"/>
<circle cx="381" cy="161" r="15" fill="#8EA7D7"/>
<circle cx="410" cy="122" r="15" fill="#8EA7D7"/>
<circle cx="397" cy="71" r="15" fill="#8EA7D7"/>
<circle cx="357" cy="39" r="15" fill="#8EA7D7"/>
<rect x="451" y="15" width="35" height="175" rx="4" fill="#8EA7D7"/>
<rect x="571" y="15" width="35" height="175" rx="4" fill="#8EA7D7"/>
<path d="M469.825 145.024H474V146.431H463.336V142.498C463.336 141.331 463.634 140.417 464.229 139.758C464.825 139.094 465.614 138.762 466.595 138.762C467.63 138.762 468.429 139.087 468.99 139.736C469.547 140.381 469.825 141.306 469.825 142.512V145.024ZM468.675 145.024V142.498C468.675 141.746 468.5 141.169 468.148 140.769C467.792 140.369 467.279 140.168 466.61 140.168C465.975 140.168 465.467 140.369 465.086 140.769C464.706 141.169 464.508 141.719 464.493 142.417V145.024H468.675ZM469.964 137.642C469.188 137.642 468.49 137.49 467.87 137.188C467.25 136.88 466.771 136.455 466.434 135.913C466.097 135.366 465.929 134.744 465.929 134.045C465.929 132.966 466.302 132.095 467.049 131.431C467.796 130.762 468.79 130.427 470.03 130.427H470.125C470.897 130.427 471.59 130.576 472.206 130.874C472.816 131.167 473.292 131.589 473.634 132.141C473.976 132.688 474.146 133.318 474.146 134.031C474.146 135.105 473.773 135.977 473.026 136.646C472.279 137.31 471.29 137.642 470.06 137.642H469.964ZM470.125 136.279C471.004 136.279 471.71 136.077 472.242 135.671C472.774 135.261 473.041 134.714 473.041 134.031C473.041 133.342 472.772 132.795 472.235 132.39C471.693 131.985 470.936 131.782 469.964 131.782C469.095 131.782 468.392 131.99 467.855 132.405C467.313 132.815 467.042 133.362 467.042 134.045C467.042 134.714 467.308 135.254 467.84 135.664C468.373 136.074 469.134 136.279 470.125 136.279ZM469.964 129.087C469.188 129.087 468.49 128.936 467.87 128.633C467.25 128.325 466.771 127.9 466.434 127.358C466.097 126.812 465.929 126.189 465.929 125.491C465.929 124.412 466.302 123.54 467.049 122.876C467.796 122.207 468.79 121.873 470.03 121.873H470.125C470.897 121.873 471.59 122.021 472.206 122.319C472.816 122.612 473.292 123.035 473.634 123.586C473.976 124.133 474.146 124.763 474.146 125.476C474.146 126.55 473.773 127.422 473.026 128.091C472.279 128.755 471.29 129.087 470.06 129.087H469.964ZM470.125 127.725C471.004 127.725 471.71 127.522 472.242 127.117C472.774 126.707 473.041 126.16 473.041 125.476C473.041 124.788 472.772 124.241 472.235 123.835C471.693 123.43 470.936 123.228 469.964 123.228C469.095 123.228 468.392 123.435 467.855 123.85C467.313 124.26 467.042 124.807 467.042 125.491C467.042 126.16 467.308 126.699 467.84 127.109C468.373 127.52 469.134 127.725 470.125 127.725ZM474 118.701V120.056H462.75V118.701H474ZM474 115.054V116.409H466.075V115.054H474ZM463.973 116.519C463.753 116.519 463.568 116.453 463.417 116.321C463.265 116.184 463.189 115.984 463.189 115.72C463.189 115.457 463.265 115.256 463.417 115.12C463.568 114.983 463.753 114.915 463.973 114.915C464.193 114.915 464.376 114.983 464.522 115.12C464.669 115.256 464.742 115.457 464.742 115.72C464.742 115.984 464.669 116.184 464.522 116.321C464.376 116.453 464.193 116.519 463.973 116.519ZM466.075 111.597L467.071 111.553C466.31 110.947 465.929 110.156 465.929 109.18C465.929 107.505 466.874 106.66 468.763 106.646H474V108H468.756C468.185 108.005 467.762 108.137 467.489 108.396C467.215 108.65 467.079 109.048 467.079 109.59C467.079 110.029 467.196 110.415 467.43 110.747C467.665 111.079 467.972 111.338 468.353 111.523H474V112.878H466.075V111.597ZM469.972 104.924C468.736 104.924 467.755 104.639 467.027 104.067C466.295 103.496 465.929 102.739 465.929 101.797C465.929 100.83 466.271 100.076 466.954 99.5337L466.075 99.4678V98.23H473.81C474.835 98.23 475.643 98.5352 476.234 99.1455C476.825 99.751 477.12 100.566 477.12 101.592C477.12 102.163 476.998 102.722 476.754 103.269C476.51 103.816 476.175 104.233 475.75 104.521L474.938 103.818C475.655 103.237 476.014 102.527 476.014 101.687C476.014 101.028 475.829 100.515 475.458 100.149C475.086 99.7778 474.564 99.5923 473.89 99.5923H473.209C473.834 100.134 474.146 100.874 474.146 101.812C474.146 102.739 473.773 103.491 473.026 104.067C472.279 104.639 471.261 104.924 469.972 104.924ZM470.125 103.562C471.019 103.562 471.722 103.379 472.235 103.013C472.743 102.646 472.997 102.134 472.997 101.475C472.997 100.62 472.608 99.9927 471.832 99.5923H468.214C467.457 100.007 467.079 100.63 467.079 101.46C467.079 102.119 467.335 102.634 467.848 103.005C468.36 103.376 469.12 103.562 470.125 103.562ZM472.85 90.8325V85.7788H474V92.2461H463.336V90.8325H472.85ZM474 79.4946C473.844 79.5728 473.565 79.6362 473.165 79.6851C473.819 80.3149 474.146 81.0669 474.146 81.9409C474.146 82.7222 473.927 83.3643 473.487 83.8672C473.043 84.3652 472.481 84.6143 471.803 84.6143C470.978 84.6143 470.338 84.3018 469.884 83.6768C469.425 83.0469 469.195 82.1631 469.195 81.0254V79.707H468.573C468.099 79.707 467.723 79.8486 467.445 80.1318C467.162 80.415 467.02 80.8325 467.02 81.3843C467.02 81.8677 467.142 82.2729 467.386 82.6001C467.63 82.9272 467.926 83.0908 468.272 83.0908V84.4531C467.877 84.4531 467.496 84.314 467.13 84.0356C466.759 83.7524 466.466 83.3716 466.251 82.8931C466.036 82.4097 465.929 81.8799 465.929 81.3037C465.929 80.3906 466.158 79.6753 466.617 79.1577C467.071 78.6401 467.699 78.3716 468.5 78.3521H472.147C472.875 78.3521 473.453 78.2593 473.883 78.0737H474V79.4946ZM472.967 81.7432C472.967 81.3184 472.857 80.9155 472.638 80.5347C472.418 80.1538 472.132 79.8779 471.781 79.707H470.155V80.769C470.155 82.4292 470.641 83.2593 471.612 83.2593C472.037 83.2593 472.369 83.1177 472.608 82.8345C472.848 82.5513 472.967 82.1875 472.967 81.7432ZM472.015 73.7524L466.075 71.9067V70.4565L475.223 73.6426C476.542 74.1357 477.201 74.9194 477.201 75.9937L477.179 76.25L477.083 76.7554H475.985L476.014 76.3892C476.014 75.9302 475.921 75.5737 475.736 75.3198C475.55 75.061 475.211 74.8486 474.718 74.6826L473.912 74.3823L466.075 77.2095V75.73L472.015 73.7524ZM474.146 66.0547C474.146 67.1289 473.795 68.0029 473.092 68.6768C472.384 69.3506 471.439 69.6875 470.257 69.6875H470.008C469.222 69.6875 468.521 69.5386 467.906 69.2407C467.286 68.938 466.803 68.5181 466.456 67.981C466.104 67.439 465.929 66.853 465.929 66.2231C465.929 65.1929 466.268 64.3921 466.947 63.8208C467.625 63.2495 468.597 62.9639 469.862 62.9639H470.426V68.3325C471.207 68.313 471.839 68.0859 472.323 67.6514C472.801 67.2119 473.041 66.6553 473.041 65.9814C473.041 65.5029 472.943 65.0977 472.748 64.7656C472.552 64.4336 472.293 64.1431 471.971 63.894L472.616 63.0664C473.636 63.7305 474.146 64.7266 474.146 66.0547ZM467.042 66.2231C467.042 66.77 467.242 67.229 467.643 67.6001C468.038 67.9712 468.595 68.2007 469.312 68.2886V64.3188H469.21C468.521 64.3579 467.989 64.5435 467.613 64.8755C467.232 65.2075 467.042 65.6567 467.042 66.2231ZM467.291 57.5586C467.257 57.7637 467.24 57.9858 467.24 58.2251C467.24 59.1138 467.618 59.7168 468.375 60.0342H474V61.3892H466.075V60.0708L466.991 60.0488C466.283 59.6045 465.929 58.9746 465.929 58.1592C465.929 57.8955 465.963 57.6953 466.031 57.5586H467.291Z" fill="black"/>
<path d="M583.336 114.761L592.037 111.274L583.336 107.788V105.964H594V107.371H589.847L585.365 107.239L594 110.74V111.816L585.387 115.31L589.847 115.171H594V116.577H583.336V114.761ZM592.85 102.068V97.0142H594V103.481H583.336V102.068H592.85ZM589.825 94.0039H594V95.4102H583.336V91.4771C583.336 90.3101 583.634 89.397 584.229 88.7378C584.825 88.0737 585.614 87.7417 586.595 87.7417C587.63 87.7417 588.429 88.0664 588.99 88.7158C589.547 89.3604 589.825 90.2856 589.825 91.4917V94.0039ZM588.675 94.0039V91.4771C588.675 90.7251 588.5 90.1489 588.148 89.7485C587.792 89.3481 587.279 89.1479 586.61 89.1479C585.975 89.1479 585.467 89.3481 585.086 89.7485C584.706 90.1489 584.508 90.6982 584.493 91.3965V94.0039H588.675Z" fill="black"/>
<path d="M110 56L110.676 55.2628L110 54.6434L109.324 55.2628L110 56ZM98 89L106.843 81.5751L95.9915 77.629L98 89ZM146 89L142.53 77.9868L134.727 86.4987L146 89ZM74 89L85.2728 86.4987L77.4702 77.9868L74 89ZM122 89L124.008 77.629L113.157 81.5751L122 89ZM109.06 55.6583L100.136 80.2001L102.015 80.8836L110.94 56.3417L109.06 55.6583ZM109.324 56.7372L138.69 83.6556L140.041 82.1813L110.676 55.2628L109.324 56.7372ZM109.324 55.2628L79.9587 82.1813L81.3101 83.6556L110.676 56.7372L109.324 55.2628ZM109.06 56.3417L117.985 80.8836L119.864 80.2001L110.94 55.6583L109.06 56.3417Z" fill="#B33535"/>
<path d="M188 56L188.94 55.6583L188 53.0738L187.06 55.6583L188 56ZM176 89L184.843 81.5751L173.992 77.629L176 89ZM200 89L202.008 77.629L191.157 81.5751L200 89ZM187.06 55.6583L178.136 80.2001L180.015 80.8836L188.94 56.3417L187.06 55.6583ZM187.06 56.3417L195.985 80.8836L197.864 80.2001L188.94 55.6583L187.06 56.3417Z" fill="#B33535"/>
<path d="M32 56L32.9398 55.6583L32 53.0738L31.0602 55.6583L32 56ZM20 89L28.8433 81.5751L17.9915 77.629L20 89ZM44 89L46.0085 77.629L35.1567 81.5751L44 89ZM31.0602 55.6583L22.1359 80.2001L24.0155 80.8836L32.9398 56.3417L31.0602 55.6583ZM31.0602 56.3417L39.9845 80.8836L41.8641 80.2001L32.9398 55.6583L31.0602 56.3417Z" fill="#B33535"/>
<circle cx="98" cy="98" r="9" fill="#DC8989"/>
<path d="M100.386 102.6H95.2615V101.886L97.9686 98.8778C98.3696 98.4231 98.6453 98.0542 98.7957 97.7714C98.9497 97.4849 99.0267 97.1895 99.0267 96.8851C99.0267 96.4769 98.9031 96.1421 98.6561 95.8807C98.409 95.6193 98.0796 95.4886 97.6678 95.4886C97.1736 95.4886 96.7887 95.6301 96.513 95.913C96.2409 96.1923 96.1048 96.5826 96.1048 97.0839H95.1111C95.1111 96.3641 95.3421 95.7823 95.804 95.3383C96.2695 94.8942 96.8908 94.6722 97.6678 94.6722C98.3947 94.6722 98.9694 94.8638 99.3919 95.2469C99.8144 95.6265 100.026 96.1332 100.026 96.767C100.026 97.5368 99.5351 98.4535 98.554 99.517L96.4593 101.789H100.386V102.6Z" fill="black"/>
<circle cx="44" cy="98" r="9" fill="#DC8989"/>
<path d="M42.7063 98.2064H43.4529C43.922 98.1993 44.2908 98.0757 44.5594 97.8358C44.8279 97.5959 44.9622 97.2719 44.9622 96.8636C44.9622 95.947 44.5057 95.4886 43.5926 95.4886C43.1629 95.4886 42.8191 95.6122 42.5613 95.8593C42.3071 96.1027 42.18 96.4268 42.18 96.8314H41.1863C41.1863 96.212 41.4119 95.6981 41.8631 95.2899C42.3178 94.8781 42.8943 94.6722 43.5926 94.6722C44.3302 94.6722 44.9085 94.8674 45.3274 95.2577C45.7464 95.648 45.9559 96.1905 45.9559 96.8851C45.9559 97.2253 45.8449 97.5547 45.6229 97.8734C45.4044 98.1921 45.1054 98.4302 44.7259 98.5878C45.1556 98.7238 45.4868 98.9494 45.7195 99.2645C45.9559 99.5796 46.074 99.9646 46.074 100.419C46.074 101.121 45.8449 101.678 45.3865 102.09C44.9282 102.502 44.332 102.707 43.5979 102.707C42.8639 102.707 42.2659 102.509 41.804 102.111C41.3457 101.714 41.1165 101.189 41.1165 100.537H42.1155C42.1155 100.949 42.2498 101.279 42.5184 101.526C42.7869 101.773 43.1468 101.896 43.5979 101.896C44.0778 101.896 44.4448 101.771 44.699 101.52C44.9533 101.27 45.0804 100.91 45.0804 100.441C45.0804 99.986 44.9407 99.6369 44.6614 99.3934C44.3821 99.1499 43.9793 99.0246 43.4529 99.0175H42.7063V98.2064Z" fill="black"/>
<circle cx="122" cy="98" r="9" fill="#8DDC89"/>
<path d="M123.456 99.9735H124.541V100.785H123.456V102.6H122.457V100.785H118.896V100.199L122.398 94.7797H123.456V99.9735ZM120.024 99.9735H122.457V96.1385L122.339 96.3534L120.024 99.9735Z" fill="black"/>
<circle cx="200" cy="98" r="9" fill="#8DDC89"/>
<path d="M197.718 98.6791L198.116 94.7797H202.122V95.6981H198.959L198.722 97.8304C199.106 97.6049 199.541 97.4921 200.028 97.4921C200.74 97.4921 201.306 97.7284 201.725 98.201C202.144 98.6701 202.353 99.3057 202.353 100.108C202.353 100.913 202.135 101.549 201.698 102.015C201.265 102.476 200.658 102.707 199.877 102.707C199.186 102.707 198.622 102.516 198.185 102.133C197.749 101.75 197.5 101.22 197.439 100.543H198.379C198.44 100.99 198.599 101.329 198.857 101.558C199.115 101.784 199.455 101.896 199.877 101.896C200.339 101.896 200.701 101.739 200.962 101.424C201.227 101.109 201.36 100.674 201.36 100.119C201.36 99.5957 201.216 99.1768 200.93 98.8617C200.647 98.543 200.269 98.3837 199.797 98.3837C199.363 98.3837 199.023 98.4786 198.776 98.6683L198.513 98.8832L197.718 98.6791Z" fill="black"/>
<circle cx="146" cy="98" r="9" fill="#8DDC89"/>
<path d="M143.718 98.6791L144.116 94.7797H148.122V95.6981H144.959L144.722 97.8304C145.106 97.6049 145.541 97.4921 146.028 97.4921C146.74 97.4921 147.306 97.7284 147.725 98.201C148.144 98.6701 148.353 99.3057 148.353 100.108C148.353 100.913 148.135 101.549 147.698 102.015C147.265 102.476 146.658 102.707 145.877 102.707C145.186 102.707 144.622 102.516 144.185 102.133C143.749 101.75 143.5 101.22 143.439 100.543H144.379C144.44 100.99 144.599 101.329 144.857 101.558C145.115 101.784 145.455 101.896 145.877 101.896C146.339 101.896 146.701 101.739 146.962 101.424C147.227 101.109 147.36 100.674 147.36 100.119C147.36 99.5957 147.216 99.1768 146.93 98.8617C146.647 98.543 146.269 98.3837 145.797 98.3837C145.363 98.3837 145.023 98.4786 144.776 98.6683L144.513 98.8832L143.718 98.6791Z" fill="black"/>
<circle cx="176" cy="98" r="9" fill="#8EA7D7"/>
<path d="M176.527 102.6H175.528V95.9774L173.525 96.7133V95.8109L176.371 94.7421H176.527V102.6Z" fill="black"/>
<circle cx="74" cy="98" r="9" fill="#8EA7D7"/>
<path d="M74.5271 102.6H73.5281V95.9774L71.5247 96.7133V95.8109L74.3714 94.7421H74.5271V102.6Z" fill="black"/>
<circle cx="20" cy="98" r="9" fill="#8EA7D7"/>
<path d="M20.5271 102.6H19.5281V95.9774L17.5247 96.7133V95.8109L20.3714 94.7421H20.5271V102.6Z" fill="black"/>
<path d="M110 14L110.39 13.079L110 12.9142L109.61 13.079L110 14ZM110 47L115.774 37H104.227L110 47ZM188 47L181.04 37.7864L176.541 48.4208L188 47ZM32 47L43.4593 48.4208L38.9601 37.7864L32 47ZM109 14V38H111V14H109ZM109.61 14.921L179.322 44.4142L180.101 42.5723L110.39 13.079L109.61 14.921ZM109.61 13.079L39.8991 42.5723L40.6783 44.4142L110.39 14.921L109.61 13.079Z" fill="#355FB3"/>
<circle cx="32" cy="56" r="9" fill="#DC8989"/>
<path d="M34.3855 60.6H29.2615V59.8856L31.9686 56.8778C32.3696 56.4231 32.6453 56.0542 32.7957 55.7714C32.9497 55.4849 33.0267 55.1895 33.0267 54.8851C33.0267 54.4769 32.9031 54.1421 32.6561 53.8807C32.409 53.6193 32.0796 53.4886 31.6678 53.4886C31.1736 53.4886 30.7887 53.6301 30.513 53.913C30.2409 54.1923 30.1048 54.5826 30.1048 55.0839H29.1111C29.1111 54.3641 29.3421 53.7823 29.804 53.3383C30.2695 52.8942 30.8908 52.6722 31.6678 52.6722C32.3947 52.6722 32.9694 52.8638 33.3919 53.2469C33.8144 53.6265 34.0257 54.1332 34.0257 54.767C34.0257 55.5368 33.5351 56.4535 32.554 57.517L30.4593 59.7889H34.3855V60.6Z" fill="black"/>
<circle cx="110" cy="56" r="9" fill="#DC8989"/>
<path d="M108.706 56.2064H109.453C109.922 56.1993 110.291 56.0757 110.559 55.8358C110.828 55.5959 110.962 55.2719 110.962 54.8636C110.962 53.947 110.506 53.4886 109.593 53.4886C109.163 53.4886 108.819 53.6122 108.561 53.8593C108.307 54.1027 108.18 54.4268 108.18 54.8314H107.186C107.186 54.212 107.412 53.6981 107.863 53.2899C108.318 52.8781 108.894 52.6722 109.593 52.6722C110.33 52.6722 110.908 52.8674 111.327 53.2577C111.746 53.648 111.956 54.1905 111.956 54.8851C111.956 55.2253 111.845 55.5547 111.623 55.8734C111.404 56.1921 111.105 56.4302 110.726 56.5878C111.156 56.7238 111.487 56.9494 111.72 57.2645C111.956 57.5796 112.074 57.9646 112.074 58.4193C112.074 59.1211 111.845 59.6779 111.387 60.0897C110.928 60.5015 110.332 60.7074 109.598 60.7074C108.864 60.7074 108.266 60.5087 107.804 60.1112C107.346 59.7137 107.117 59.1892 107.117 58.5375H108.116C108.116 58.9493 108.25 59.2787 108.518 59.5258C108.787 59.7728 109.147 59.8964 109.598 59.8964C110.078 59.8964 110.445 59.771 110.699 59.5204C110.953 59.2697 111.08 58.9099 111.08 58.4408C111.08 57.986 110.941 57.6369 110.661 57.3934C110.382 57.1499 109.979 57.0246 109.453 57.0175H108.706V56.2064Z" fill="black"/>
<circle cx="188" cy="56" r="9" fill="#DC8989"/>
<path d="M189.161 52.7743V53.6176H188.978C188.205 53.6319 187.589 53.861 187.131 54.3051C186.672 54.7491 186.407 55.3739 186.336 56.1796C186.748 55.7069 187.31 55.4706 188.022 55.4706C188.703 55.4706 189.245 55.7105 189.65 56.1903C190.058 56.6701 190.262 57.2896 190.262 58.0487C190.262 58.8544 190.042 59.4989 189.601 59.9823C189.165 60.4657 188.577 60.7074 187.84 60.7074C187.091 60.7074 186.484 60.4209 186.019 59.848C185.553 59.2715 185.321 58.5303 185.321 57.6244V57.243C185.321 55.8036 185.627 54.7043 186.239 53.9452C186.855 53.1825 187.77 52.7922 188.984 52.7743H189.161ZM187.856 56.2977C187.516 56.2977 187.202 56.3998 186.916 56.6039C186.629 56.808 186.431 57.064 186.32 57.3719V57.7372C186.32 58.3817 186.465 58.9009 186.755 59.2948C187.045 59.6887 187.406 59.8856 187.84 59.8856C188.287 59.8856 188.638 59.7209 188.892 59.3915C189.15 59.0621 189.279 58.6306 189.279 58.097C189.279 57.5599 189.148 57.1267 188.887 56.7972C188.629 56.4642 188.285 56.2977 187.856 56.2977Z" fill="black"/>
<circle cx="110" cy="14" r="9" fill="#8EA7D7"/>
<path d="M110.527 18.6H109.528V11.9774L107.525 12.7133V11.8109L110.371 10.7421H110.527V18.6Z" fill="black"/>
<path d="M296.5 49L209 3M209 110L296.5 78.5" stroke="#355FB3" stroke-dasharray="4 2"/>
<path d="M51.04 129.898C51.04 129.532 50.9009 129.249 50.6226 129.048C50.3491 128.843 49.8682 128.667 49.1797 128.521C48.4961 128.375 47.9517 128.199 47.5464 127.994C47.146 127.789 46.8481 127.544 46.6528 127.261C46.4624 126.978 46.3672 126.641 46.3672 126.25C46.3672 125.601 46.6406 125.052 47.1875 124.603C47.7393 124.153 48.4424 123.929 49.2969 123.929C50.1953 123.929 50.9229 124.161 51.4795 124.625C52.041 125.088 52.3218 125.682 52.3218 126.404H50.9595C50.9595 126.033 50.8008 125.713 50.4834 125.445C50.1709 125.176 49.7754 125.042 49.2969 125.042C48.8037 125.042 48.418 125.149 48.1396 125.364C47.8613 125.579 47.7222 125.86 47.7222 126.207C47.7222 126.534 47.8516 126.78 48.1104 126.946C48.3691 127.112 48.8354 127.271 49.5093 127.422C50.188 127.574 50.7373 127.754 51.1572 127.964C51.5771 128.174 51.8872 128.428 52.0874 128.726C52.2925 129.019 52.395 129.378 52.395 129.803C52.395 130.511 52.1118 131.08 51.5454 131.509C50.979 131.934 50.2441 132.146 49.3408 132.146C48.7061 132.146 48.1445 132.034 47.6562 131.81C47.168 131.585 46.7847 131.272 46.5063 130.872C46.2329 130.467 46.0962 130.03 46.0962 129.561H47.4512C47.4756 130.015 47.6562 130.376 47.9932 130.645C48.335 130.909 48.7842 131.041 49.3408 131.041C49.8535 131.041 50.2637 130.938 50.5713 130.733C50.8838 130.523 51.04 130.245 51.04 129.898ZM59.0527 131.216C58.5254 131.836 57.7515 132.146 56.731 132.146C55.8862 132.146 55.2417 131.902 54.7974 131.414C54.3579 130.921 54.1357 130.193 54.1309 129.231V124.075H55.4858V129.195C55.4858 130.396 55.9741 130.997 56.9507 130.997C57.9858 130.997 58.6743 130.611 59.0161 129.839V124.075H60.3711V132H59.082L59.0527 131.216ZM69.1455 128.125C69.1455 129.336 68.8672 130.311 68.3105 131.048C67.7539 131.78 67.0068 132.146 66.0693 132.146C65.0684 132.146 64.2944 131.792 63.7476 131.084L63.6816 132H62.4365V120.75H63.7915V124.947C64.3384 124.268 65.0928 123.929 66.0547 123.929C67.0166 123.929 67.771 124.292 68.3179 125.02C68.8696 125.748 69.1455 126.744 69.1455 128.008V128.125ZM67.7905 127.972C67.7905 127.049 67.6123 126.336 67.2559 125.833C66.8994 125.33 66.3867 125.079 65.7178 125.079C64.8242 125.079 64.1821 125.494 63.7915 126.324V129.751C64.2065 130.582 64.8535 130.997 65.7324 130.997C66.3818 130.997 66.8872 130.745 67.2485 130.242C67.6099 129.739 67.7905 128.982 67.7905 127.972ZM72.6978 122.156V124.075H74.1772V125.123H72.6978V130.037C72.6978 130.354 72.7637 130.594 72.8955 130.755C73.0273 130.911 73.252 130.989 73.5693 130.989C73.7256 130.989 73.9404 130.96 74.2139 130.901V132C73.8574 132.098 73.5107 132.146 73.1738 132.146C72.5684 132.146 72.1118 131.963 71.8042 131.597C71.4966 131.231 71.3428 130.711 71.3428 130.037V125.123H69.8999V124.075H71.3428V122.156H72.6978ZM79.5972 125.291C79.3921 125.257 79.1699 125.24 78.9307 125.24C78.042 125.24 77.439 125.618 77.1216 126.375V132H75.7666V124.075H77.085L77.1069 124.991C77.5513 124.283 78.1812 123.929 78.9966 123.929C79.2603 123.929 79.4604 123.963 79.5972 124.031V125.291ZM83.9917 132.146C82.9175 132.146 82.0435 131.795 81.3696 131.092C80.6958 130.384 80.3589 129.439 80.3589 128.257V128.008C80.3589 127.222 80.5078 126.521 80.8057 125.906C81.1084 125.286 81.5283 124.803 82.0654 124.456C82.6074 124.104 83.1934 123.929 83.8232 123.929C84.8535 123.929 85.6543 124.268 86.2256 124.947C86.7969 125.625 87.0825 126.597 87.0825 127.862V128.426H81.7139C81.7334 129.207 81.9604 129.839 82.395 130.323C82.8345 130.801 83.3911 131.041 84.0649 131.041C84.5435 131.041 84.9487 130.943 85.2808 130.748C85.6128 130.552 85.9033 130.293 86.1523 129.971L86.98 130.616C86.3159 131.636 85.3198 132.146 83.9917 132.146ZM83.8232 125.042C83.2764 125.042 82.8174 125.242 82.4463 125.643C82.0752 126.038 81.8457 126.595 81.7578 127.312H85.7275V127.21C85.6885 126.521 85.5029 125.989 85.1709 125.613C84.8389 125.232 84.3896 125.042 83.8232 125.042ZM91.9458 132.146C90.8716 132.146 89.9976 131.795 89.3237 131.092C88.6499 130.384 88.313 129.439 88.313 128.257V128.008C88.313 127.222 88.4619 126.521 88.7598 125.906C89.0625 125.286 89.4824 124.803 90.0195 124.456C90.5615 124.104 91.1475 123.929 91.7773 123.929C92.8076 123.929 93.6084 124.268 94.1797 124.947C94.751 125.625 95.0366 126.597 95.0366 127.862V128.426H89.668C89.6875 129.207 89.9146 129.839 90.3491 130.323C90.7886 130.801 91.3452 131.041 92.019 131.041C92.4976 131.041 92.9028 130.943 93.2349 130.748C93.5669 130.552 93.8574 130.293 94.1064 129.971L94.9341 130.616C94.27 131.636 93.2739 132.146 91.9458 132.146ZM91.7773 125.042C91.2305 125.042 90.7715 125.242 90.4004 125.643C90.0293 126.038 89.7998 126.595 89.7119 127.312H93.6816V127.21C93.6426 126.521 93.457 125.989 93.125 125.613C92.793 125.232 92.3438 125.042 91.7773 125.042ZM103.511 131.041C103.994 131.041 104.417 130.894 104.778 130.601C105.139 130.308 105.339 129.942 105.378 129.502H106.66C106.636 129.957 106.479 130.389 106.191 130.799C105.903 131.209 105.518 131.536 105.034 131.78C104.556 132.024 104.048 132.146 103.511 132.146C102.432 132.146 101.572 131.788 100.933 131.07C100.298 130.347 99.9805 129.361 99.9805 128.111V127.884C99.9805 127.112 100.122 126.426 100.405 125.826C100.688 125.225 101.094 124.759 101.621 124.427C102.153 124.095 102.781 123.929 103.503 123.929C104.392 123.929 105.129 124.195 105.715 124.727C106.306 125.259 106.621 125.95 106.66 126.8H105.378C105.339 126.287 105.144 125.867 104.792 125.54C104.446 125.208 104.016 125.042 103.503 125.042C102.815 125.042 102.28 125.291 101.899 125.789C101.523 126.282 101.335 126.998 101.335 127.935V128.191C101.335 129.104 101.523 129.808 101.899 130.301C102.275 130.794 102.812 131.041 103.511 131.041ZM107.825 127.964C107.825 127.188 107.976 126.49 108.279 125.87C108.586 125.25 109.011 124.771 109.553 124.434C110.1 124.097 110.723 123.929 111.421 123.929C112.5 123.929 113.372 124.302 114.036 125.049C114.705 125.796 115.039 126.79 115.039 128.03V128.125C115.039 128.897 114.89 129.59 114.592 130.206C114.299 130.816 113.877 131.292 113.325 131.634C112.778 131.976 112.148 132.146 111.436 132.146C110.361 132.146 109.49 131.773 108.821 131.026C108.157 130.279 107.825 129.29 107.825 128.06V127.964ZM109.187 128.125C109.187 129.004 109.39 129.71 109.795 130.242C110.205 130.774 110.752 131.041 111.436 131.041C112.124 131.041 112.671 130.772 113.076 130.235C113.481 129.693 113.684 128.936 113.684 127.964C113.684 127.095 113.477 126.392 113.062 125.855C112.651 125.313 112.104 125.042 111.421 125.042C110.752 125.042 110.212 125.308 109.802 125.84C109.392 126.373 109.187 127.134 109.187 128.125ZM118.02 124.075L118.064 125.071C118.669 124.31 119.46 123.929 120.437 123.929C122.112 123.929 122.957 124.874 122.971 126.763V132H121.616V126.756C121.611 126.185 121.479 125.762 121.221 125.489C120.967 125.215 120.569 125.079 120.027 125.079C119.587 125.079 119.202 125.196 118.87 125.43C118.538 125.665 118.279 125.972 118.093 126.353V132H116.738V124.075H118.02ZM129.629 129.898C129.629 129.532 129.49 129.249 129.211 129.048C128.938 128.843 128.457 128.667 127.769 128.521C127.085 128.375 126.541 128.199 126.135 127.994C125.735 127.789 125.437 127.544 125.242 127.261C125.051 126.978 124.956 126.641 124.956 126.25C124.956 125.601 125.229 125.052 125.776 124.603C126.328 124.153 127.031 123.929 127.886 123.929C128.784 123.929 129.512 124.161 130.068 124.625C130.63 125.088 130.911 125.682 130.911 126.404H129.548C129.548 126.033 129.39 125.713 129.072 125.445C128.76 125.176 128.364 125.042 127.886 125.042C127.393 125.042 127.007 125.149 126.729 125.364C126.45 125.579 126.311 125.86 126.311 126.207C126.311 126.534 126.44 126.78 126.699 126.946C126.958 127.112 127.424 127.271 128.098 127.422C128.777 127.574 129.326 127.754 129.746 127.964C130.166 128.174 130.476 128.428 130.676 128.726C130.881 129.019 130.984 129.378 130.984 129.803C130.984 130.511 130.701 131.08 130.134 131.509C129.568 131.934 128.833 132.146 127.93 132.146C127.295 132.146 126.733 132.034 126.245 131.81C125.757 131.585 125.374 131.272 125.095 130.872C124.822 130.467 124.685 130.03 124.685 129.561H126.04C126.064 130.015 126.245 130.376 126.582 130.645C126.924 130.909 127.373 131.041 127.93 131.041C128.442 131.041 128.853 130.938 129.16 130.733C129.473 130.523 129.629 130.245 129.629 129.898ZM134.587 122.156V124.075H136.067V125.123H134.587V130.037C134.587 130.354 134.653 130.594 134.785 130.755C134.917 130.911 135.142 130.989 135.459 130.989C135.615 130.989 135.83 130.96 136.104 130.901V132C135.747 132.098 135.4 132.146 135.063 132.146C134.458 132.146 134.001 131.963 133.694 131.597C133.386 131.231 133.232 130.711 133.232 130.037V125.123H131.79V124.075H133.232V122.156H134.587ZM139.128 132H137.773V124.075H139.128V132ZM137.664 121.973C137.664 121.753 137.729 121.568 137.861 121.417C137.998 121.265 138.198 121.189 138.462 121.189C138.726 121.189 138.926 121.265 139.062 121.417C139.199 121.568 139.268 121.753 139.268 121.973C139.268 122.193 139.199 122.376 139.062 122.522C138.926 122.669 138.726 122.742 138.462 122.742C138.198 122.742 137.998 122.669 137.861 122.522C137.729 122.376 137.664 122.193 137.664 121.973ZM143.142 122.156V124.075H144.622V125.123H143.142V130.037C143.142 130.354 143.208 130.594 143.34 130.755C143.472 130.911 143.696 130.989 144.014 130.989C144.17 130.989 144.385 130.96 144.658 130.901V132C144.302 132.098 143.955 132.146 143.618 132.146C143.013 132.146 142.556 131.963 142.249 131.597C141.941 131.231 141.787 130.711 141.787 130.037V125.123H140.344V124.075H141.787V122.156H143.142ZM151.104 131.216C150.576 131.836 149.802 132.146 148.782 132.146C147.937 132.146 147.292 131.902 146.848 131.414C146.409 130.921 146.187 130.193 146.182 129.231V124.075H147.537V129.195C147.537 130.396 148.025 130.997 149.001 130.997C150.037 130.997 150.725 130.611 151.067 129.839V124.075H152.422V132H151.133L151.104 131.216ZM157.776 132.146C156.702 132.146 155.828 131.795 155.154 131.092C154.48 130.384 154.143 129.439 154.143 128.257V128.008C154.143 127.222 154.292 126.521 154.59 125.906C154.893 125.286 155.312 124.803 155.85 124.456C156.392 124.104 156.978 123.929 157.607 123.929C158.638 123.929 159.438 124.268 160.01 124.947C160.581 125.625 160.867 126.597 160.867 127.862V128.426H155.498C155.518 129.207 155.745 129.839 156.179 130.323C156.619 130.801 157.175 131.041 157.849 131.041C158.328 131.041 158.733 130.943 159.065 130.748C159.397 130.552 159.688 130.293 159.937 129.971L160.764 130.616C160.1 131.636 159.104 132.146 157.776 132.146ZM157.607 125.042C157.061 125.042 156.602 125.242 156.23 125.643C155.859 126.038 155.63 126.595 155.542 127.312H159.512V127.21C159.473 126.521 159.287 125.989 158.955 125.613C158.623 125.232 158.174 125.042 157.607 125.042ZM163.723 124.075L163.767 125.071C164.373 124.31 165.164 123.929 166.14 123.929C167.815 123.929 168.66 124.874 168.674 126.763V132H167.319V126.756C167.314 126.185 167.183 125.762 166.924 125.489C166.67 125.215 166.272 125.079 165.73 125.079C165.291 125.079 164.905 125.196 164.573 125.43C164.241 125.665 163.982 125.972 163.796 126.353V132H162.441V124.075H163.723ZM172.556 122.156V124.075H174.036V125.123H172.556V130.037C172.556 130.354 172.622 130.594 172.754 130.755C172.886 130.911 173.11 130.989 173.428 130.989C173.584 130.989 173.799 130.96 174.072 130.901V132C173.716 132.098 173.369 132.146 173.032 132.146C172.427 132.146 171.97 131.963 171.663 131.597C171.355 131.231 171.201 130.711 171.201 130.037V125.123H169.758V124.075H171.201V122.156H172.556Z" fill="black"/>
<path d="M291.475 65.322C292.23 64.4615 292.845 63.9171 293.723 63.1269C294.777 62.2137 295.233 61.7747 295.479 61.5112C296.708 60.2995 297.323 59.281 297.323 59.1405C297.323 59 297.183 59 297.147 59C297.024 59 296.989 59.0702 296.902 59.1932C296.463 59.9483 296.041 60.3171 295.584 60.3171C295.216 60.3171 295.022 60.159 294.689 59.7376C294.32 59.2985 294.022 59 293.512 59C292.23 59 291.458 60.5981 291.458 60.9669C291.458 61.0195 291.475 61.1249 291.633 61.1249C291.774 61.1249 291.791 61.0547 291.844 60.9317C292.142 60.2293 292.985 60.1064 293.319 60.1064C293.688 60.1064 294.039 60.2293 294.408 60.3873C295.075 60.6683 295.356 60.6683 295.532 60.6683C295.655 60.6683 295.725 60.6683 295.813 60.6508C295.233 61.3356 294.285 62.1786 293.495 62.8986L291.721 64.5318C290.65 65.6206 290 66.6567 290 66.7796C290 66.885 290.088 66.9201 290.193 66.9201C290.299 66.9201 290.316 66.9025 290.439 66.6918C290.72 66.2528 291.282 65.603 291.932 65.603C292.301 65.603 292.476 65.7259 292.827 66.165C293.161 66.5513 293.46 66.9201 294.022 66.9201C295.742 66.9201 296.726 64.6898 296.726 64.2859C296.726 64.2157 296.708 64.1103 296.533 64.1103C296.392 64.1103 296.375 64.1806 296.322 64.3562C295.936 65.3923 294.9 65.8137 294.215 65.8137C293.846 65.8137 293.495 65.6908 293.126 65.5328C292.423 65.2518 292.23 65.2518 292.002 65.2518C291.826 65.2518 291.633 65.2518 291.475 65.322Z" fill="black"/>
<path d="M300.879 61.9211C300.879 61.605 300.855 61.5933 300.539 61.5933C300.059 62.0616 299.439 62.3425 298.327 62.3425V62.7289C298.643 62.7289 299.275 62.7289 299.954 62.4128V68.4187C299.954 68.8519 299.919 68.9924 298.807 68.9924H298.397V69.3787C298.877 69.3436 299.884 69.3436 300.411 69.3436C300.937 69.3436 301.956 69.3436 302.436 69.3787V68.9924H302.026C300.914 68.9924 300.879 68.8519 300.879 68.4187V61.9211Z" fill="black"/>
<path d="M352.475 40.322C353.23 39.4615 353.845 38.9171 354.723 38.1269C355.777 37.2137 356.233 36.7747 356.479 36.5112C357.708 35.2995 358.323 34.281 358.323 34.1405C358.323 34 358.183 34 358.147 34C358.024 34 357.989 34.0702 357.902 34.1932C357.463 34.9483 357.041 35.3171 356.584 35.3171C356.216 35.3171 356.022 35.159 355.689 34.7376C355.32 34.2985 355.022 34 354.512 34C353.23 34 352.458 35.5981 352.458 35.9669C352.458 36.0195 352.475 36.1249 352.633 36.1249C352.774 36.1249 352.791 36.0547 352.844 35.9317C353.142 35.2293 353.985 35.1064 354.319 35.1064C354.688 35.1064 355.039 35.2293 355.408 35.3873C356.075 35.6683 356.356 35.6683 356.532 35.6683C356.655 35.6683 356.725 35.6683 356.813 35.6508C356.233 36.3356 355.285 37.1786 354.495 37.8986L352.721 39.5318C351.65 40.6206 351 41.6567 351 41.7796C351 41.885 351.088 41.9201 351.193 41.9201C351.299 41.9201 351.316 41.9025 351.439 41.6918C351.72 41.2528 352.282 40.603 352.932 40.603C353.301 40.603 353.476 40.7259 353.827 41.165C354.161 41.5513 354.46 41.9201 355.022 41.9201C356.742 41.9201 357.726 39.6898 357.726 39.2859C357.726 39.2157 357.708 39.1103 357.533 39.1103C357.392 39.1103 357.375 39.1806 357.322 39.3562C356.936 40.3923 355.9 40.8137 355.215 40.8137C354.846 40.8137 354.495 40.6908 354.126 40.5328C353.423 40.2518 353.23 40.2518 353.002 40.2518C352.826 40.2518 352.633 40.2518 352.475 40.322Z" fill="black"/>
<path d="M361.504 41.9904C361.692 41.8148 362.183 41.4284 362.371 41.2645C363.096 40.5972 363.787 39.9533 363.787 38.8879C363.787 37.4947 362.616 36.5933 361.153 36.5933C359.748 36.5933 358.823 37.6586 358.823 38.7006C358.823 39.2743 359.28 39.3562 359.444 39.3562C359.69 39.3562 360.053 39.1806 360.053 38.7357C360.053 38.1269 359.467 38.1269 359.327 38.1269C359.666 37.2723 360.451 36.9796 361.024 36.9796C362.113 36.9796 362.675 37.9045 362.675 38.8879C362.675 40.1055 361.82 40.9953 360.439 42.4119L358.964 43.9338C358.823 44.0626 358.823 44.086 358.823 44.3787H363.448L363.787 42.2831H363.424C363.389 42.5172 363.295 43.1026 363.155 43.325C363.085 43.4187 362.195 43.4187 362.008 43.4187H359.924L361.504 41.9904Z" fill="black"/>
<path d="M392.475 72.322C393.23 71.4615 393.845 70.9171 394.723 70.1269C395.777 69.2137 396.233 68.7747 396.479 68.5112C397.708 67.2995 398.323 66.281 398.323 66.1405C398.323 66 398.183 66 398.147 66C398.024 66 397.989 66.0702 397.902 66.1932C397.463 66.9483 397.041 67.3171 396.584 67.3171C396.216 67.3171 396.022 67.159 395.689 66.7376C395.32 66.2985 395.022 66 394.512 66C393.23 66 392.458 67.5981 392.458 67.9669C392.458 68.0195 392.475 68.1249 392.633 68.1249C392.774 68.1249 392.791 68.0547 392.844 67.9317C393.142 67.2293 393.985 67.1064 394.319 67.1064C394.688 67.1064 395.039 67.2293 395.408 67.3873C396.075 67.6683 396.356 67.6683 396.532 67.6683C396.655 67.6683 396.725 67.6683 396.813 67.6508C396.233 68.3356 395.285 69.1786 394.495 69.8986L392.721 71.5318C391.65 72.6206 391 73.6567 391 73.7796C391 73.885 391.088 73.9201 391.193 73.9201C391.299 73.9201 391.316 73.9025 391.439 73.6918C391.72 73.2528 392.282 72.603 392.932 72.603C393.301 72.603 393.476 72.7259 393.827 73.165C394.161 73.5513 394.46 73.9201 395.022 73.9201C396.742 73.9201 397.726 71.6898 397.726 71.2859C397.726 71.2157 397.708 71.1103 397.533 71.1103C397.392 71.1103 397.375 71.1806 397.322 71.3562C396.936 72.3923 395.9 72.8137 395.215 72.8137C394.846 72.8137 394.495 72.6908 394.126 72.5328C393.423 72.2518 393.23 72.2518 393.002 72.2518C392.826 72.2518 392.633 72.2518 392.475 72.322Z" fill="black"/>
<path d="M401.165 72.4684C402.09 72.4684 402.675 73.1475 402.675 74.3767C402.675 75.8402 401.844 76.2733 401.223 76.2733C400.579 76.2733 399.701 76.0392 399.292 75.4187C399.713 75.4187 400.006 75.1494 400.006 74.7631C400.006 74.3884 399.736 74.1192 399.362 74.1192C399.046 74.1192 398.718 74.3182 398.718 74.7865C398.718 75.8987 399.912 76.6246 401.247 76.6246C402.804 76.6246 403.893 75.5475 403.893 74.3767C403.893 73.405 403.12 72.5152 401.926 72.2577C402.851 71.9299 403.541 71.1338 403.541 70.1972C403.541 69.2606 402.488 68.5933 401.27 68.5933C400.017 68.5933 399.069 69.2723 399.069 70.1621C399.069 70.5952 399.362 70.7826 399.666 70.7826C400.029 70.7826 400.263 70.525 400.263 70.1855C400.263 69.7523 399.889 69.5884 399.631 69.5767C400.123 68.9328 401.024 68.8977 401.235 68.8977C401.539 68.8977 402.429 68.9913 402.429 70.1972C402.429 71.0167 402.09 71.5084 401.926 71.6957C401.575 72.0587 401.305 72.0821 400.591 72.1289C400.369 72.1406 400.275 72.1523 400.275 72.3045C400.275 72.4684 400.38 72.4684 400.579 72.4684H401.165Z" fill="black"/>
<path d="M340.475 103.322C341.23 102.462 341.845 101.917 342.723 101.127C343.777 100.214 344.233 99.7747 344.479 99.5112C345.708 98.2995 346.323 97.281 346.323 97.1405C346.323 97 346.183 97 346.147 97C346.024 97 345.989 97.0702 345.902 97.1932C345.463 97.9483 345.041 98.3171 344.584 98.3171C344.216 98.3171 344.022 98.159 343.689 97.7376C343.32 97.2985 343.022 97 342.512 97C341.23 97 340.458 98.5981 340.458 98.9669C340.458 99.0195 340.475 99.1249 340.633 99.1249C340.774 99.1249 340.791 99.0547 340.844 98.9317C341.142 98.2293 341.985 98.1064 342.319 98.1064C342.688 98.1064 343.039 98.2293 343.408 98.3873C344.075 98.6683 344.356 98.6683 344.532 98.6683C344.655 98.6683 344.725 98.6683 344.813 98.6508C344.233 99.3356 343.285 100.179 342.495 100.899L340.721 102.532C339.65 103.621 339 104.657 339 104.78C339 104.885 339.088 104.92 339.193 104.92C339.299 104.92 339.316 104.903 339.439 104.692C339.72 104.253 340.282 103.603 340.932 103.603C341.301 103.603 341.476 103.726 341.827 104.165C342.161 104.551 342.46 104.92 343.022 104.92C344.742 104.92 345.726 102.69 345.726 102.286C345.726 102.216 345.708 102.11 345.533 102.11C345.392 102.11 345.375 102.181 345.322 102.356C344.936 103.392 343.9 103.814 343.215 103.814C342.846 103.814 342.495 103.691 342.126 103.533C341.423 103.252 341.23 103.252 341.002 103.252C340.826 103.252 340.633 103.252 340.475 103.322Z" fill="black"/>
<path d="M350.815 99.804C350.815 99.5699 350.815 99.4762 350.57 99.4762C350.417 99.4762 350.406 99.4879 350.289 99.6518L346.554 105.072V105.459H349.855V106.43C349.855 106.864 349.82 106.992 348.919 106.992H348.65V107.379C349.645 107.344 349.668 107.344 350.335 107.344C351.003 107.344 351.026 107.344 352.021 107.379V106.992H351.752C350.851 106.992 350.815 106.864 350.815 106.43V105.459H352.056V105.072H350.815V99.804ZM349.937 100.752V105.072H346.964L349.937 100.752Z" fill="black"/>
<path d="M280.475 120.322C281.23 119.462 281.845 118.917 282.723 118.127C283.777 117.214 284.233 116.775 284.479 116.511C285.708 115.3 286.323 114.281 286.323 114.14C286.323 114 286.183 114 286.147 114C286.024 114 285.989 114.07 285.902 114.193C285.463 114.948 285.041 115.317 284.584 115.317C284.216 115.317 284.022 115.159 283.689 114.738C283.32 114.299 283.022 114 282.512 114C281.23 114 280.458 115.598 280.458 115.967C280.458 116.02 280.475 116.125 280.633 116.125C280.774 116.125 280.791 116.055 280.844 115.932C281.142 115.229 281.985 115.106 282.319 115.106C282.688 115.106 283.039 115.229 283.408 115.387C284.075 115.668 284.356 115.668 284.532 115.668C284.655 115.668 284.725 115.668 284.813 115.651C284.233 116.336 283.285 117.179 282.495 117.899L280.721 119.532C279.65 120.621 279 121.657 279 121.78C279 121.885 279.088 121.92 279.193 121.92C279.299 121.92 279.316 121.903 279.439 121.692C279.72 121.253 280.282 120.603 280.932 120.603C281.301 120.603 281.476 120.726 281.827 121.165C282.161 121.551 282.46 121.92 283.022 121.92C284.742 121.92 285.726 119.69 285.726 119.286C285.726 119.216 285.708 119.11 285.533 119.11C285.392 119.11 285.375 119.181 285.322 119.356C284.936 120.392 283.9 120.814 283.215 120.814C282.846 120.814 282.495 120.691 282.126 120.533C281.423 120.252 281.23 120.252 281.002 120.252C280.826 120.252 280.633 120.252 280.475 120.322Z" fill="black"/>
<path d="M287.842 117.799C287.994 117.846 288.462 117.963 288.954 117.963C290.417 117.963 291.307 116.933 291.307 116.757C291.307 116.628 291.225 116.593 291.167 116.593C291.143 116.593 291.12 116.593 291.015 116.652C290.558 116.827 290.019 116.968 289.387 116.968C288.696 116.968 288.123 116.792 287.76 116.652C287.643 116.593 287.619 116.593 287.608 116.593C287.455 116.593 287.455 116.722 287.455 116.933V120.363C287.455 120.574 287.455 120.714 287.643 120.714C287.736 120.714 287.772 120.667 287.83 120.574C287.971 120.398 288.415 119.801 289.411 119.801C290.066 119.801 290.382 120.34 290.488 120.562C290.687 120.984 290.71 121.522 290.71 121.979C290.71 122.412 290.698 123.044 290.371 123.559C290.148 123.91 289.68 124.273 289.059 124.273C288.298 124.273 287.549 123.793 287.28 123.032C287.315 123.044 287.385 123.044 287.397 123.044C287.725 123.044 287.982 122.833 287.982 122.47C287.982 122.037 287.643 121.885 287.409 121.885C287.198 121.885 286.823 122.002 286.823 122.506C286.823 123.559 287.736 124.625 289.083 124.625C290.546 124.625 291.787 123.489 291.787 122.037C291.787 120.679 290.804 119.473 289.422 119.473C288.837 119.473 288.287 119.661 287.842 120.059V117.799Z" fill="black"/>
<path d="M405.475 123.322C406.23 122.462 406.845 121.917 407.723 121.127C408.777 120.214 409.233 119.775 409.479 119.511C410.708 118.3 411.323 117.281 411.323 117.14C411.323 117 411.183 117 411.147 117C411.024 117 410.989 117.07 410.902 117.193C410.463 117.948 410.041 118.317 409.584 118.317C409.216 118.317 409.022 118.159 408.689 117.738C408.32 117.299 408.022 117 407.512 117C406.23 117 405.458 118.598 405.458 118.967C405.458 119.02 405.475 119.125 405.633 119.125C405.774 119.125 405.791 119.055 405.844 118.932C406.142 118.229 406.985 118.106 407.319 118.106C407.688 118.106 408.039 118.229 408.408 118.387C409.075 118.668 409.356 118.668 409.532 118.668C409.655 118.668 409.725 118.668 409.813 118.651C409.233 119.336 408.285 120.179 407.495 120.899L405.721 122.532C404.65 123.621 404 124.657 404 124.78C404 124.885 404.088 124.92 404.193 124.92C404.299 124.92 404.316 124.903 404.439 124.692C404.72 124.253 405.282 123.603 405.932 123.603C406.301 123.603 406.476 123.726 406.827 124.165C407.161 124.551 407.46 124.92 408.022 124.92C409.742 124.92 410.726 122.69 410.726 122.286C410.726 122.216 410.708 122.11 410.533 122.11C410.392 122.11 410.375 122.181 410.322 122.356C409.936 123.392 408.9 123.814 408.215 123.814C407.846 123.814 407.495 123.691 407.126 123.533C406.423 123.252 406.23 123.252 406.002 123.252C405.826 123.252 405.633 123.252 405.475 123.322Z" fill="black"/>
<path d="M412.818 123.504C412.818 122.532 412.9 121.677 413.322 120.963C413.673 120.378 414.27 119.898 415.008 119.898C415.242 119.898 415.78 119.933 416.05 120.343C415.523 120.366 415.476 120.764 415.476 120.893C415.476 121.244 415.745 121.443 416.026 121.443C416.237 121.443 416.576 121.314 416.576 120.869C416.576 120.167 416.05 119.593 414.996 119.593C413.369 119.593 411.718 121.139 411.718 123.667C411.718 126.84 413.193 127.625 414.329 127.625C414.891 127.625 415.499 127.472 416.026 126.969C416.495 126.512 416.893 126.021 416.893 125.002C416.893 123.468 415.734 122.391 414.434 122.391C413.591 122.391 413.088 122.93 412.818 123.504ZM414.329 127.273C413.708 127.273 413.322 126.84 413.146 126.512C412.877 125.986 412.854 125.189 412.854 124.745C412.854 123.585 413.486 122.719 414.387 122.719C414.973 122.719 415.324 123.024 415.546 123.433C415.792 123.866 415.792 124.393 415.792 124.99C415.792 125.587 415.792 126.103 415.558 126.524C415.254 127.063 414.844 127.273 414.329 127.273Z" fill="black"/>
<path d="M322.475 158.322C323.23 157.462 323.845 156.917 324.723 156.127C325.777 155.214 326.233 154.775 326.479 154.511C327.708 153.3 328.323 152.281 328.323 152.14C328.323 152 328.183 152 328.147 152C328.024 152 327.989 152.07 327.902 152.193C327.463 152.948 327.041 153.317 326.584 153.317C326.216 153.317 326.022 153.159 325.689 152.738C325.32 152.299 325.022 152 324.512 152C323.23 152 322.458 153.598 322.458 153.967C322.458 154.02 322.475 154.125 322.633 154.125C322.774 154.125 322.791 154.055 322.844 153.932C323.142 153.229 323.985 153.106 324.319 153.106C324.688 153.106 325.039 153.229 325.408 153.387C326.075 153.668 326.356 153.668 326.532 153.668C326.655 153.668 326.725 153.668 326.813 153.651C326.233 154.336 325.285 155.179 324.495 155.899L322.721 157.532C321.65 158.621 321 159.657 321 159.78C321 159.885 321.088 159.92 321.193 159.92C321.299 159.92 321.316 159.903 321.439 159.692C321.72 159.253 322.282 158.603 322.932 158.603C323.301 158.603 323.476 158.726 323.827 159.165C324.161 159.551 324.46 159.92 325.022 159.92C326.742 159.92 327.726 157.69 327.726 157.286C327.726 157.216 327.708 157.11 327.533 157.11C327.392 157.11 327.375 157.181 327.322 157.356C326.936 158.392 325.9 158.814 325.215 158.814C324.846 158.814 324.495 158.691 324.126 158.533C323.423 158.252 323.23 158.252 323.002 158.252C322.826 158.252 322.633 158.252 322.475 158.322Z" fill="black"/>
<path d="M334.127 155.249C334.232 155.12 334.232 155.097 334.232 154.839H331.258C330.966 154.839 330.603 154.828 330.31 154.804C329.701 154.757 329.69 154.652 329.655 154.465H329.292L328.894 156.935H329.256C329.28 156.759 329.409 155.951 329.573 155.858C329.701 155.799 330.579 155.799 330.755 155.799H333.237L332.031 157.415C330.696 159.194 330.416 161.044 330.416 161.969C330.416 162.086 330.416 162.625 330.966 162.625C331.516 162.625 331.516 162.098 331.516 161.957V161.395C331.516 159.71 331.797 158.328 332.371 157.567L334.127 155.249Z" fill="black"/>
<path d="M376.475 162.322C377.23 161.462 377.845 160.917 378.723 160.127C379.777 159.214 380.233 158.775 380.479 158.511C381.708 157.3 382.323 156.281 382.323 156.14C382.323 156 382.183 156 382.147 156C382.024 156 381.989 156.07 381.902 156.193C381.463 156.948 381.041 157.317 380.584 157.317C380.216 157.317 380.022 157.159 379.689 156.738C379.32 156.299 379.022 156 378.512 156C377.23 156 376.458 157.598 376.458 157.967C376.458 158.02 376.475 158.125 376.633 158.125C376.774 158.125 376.791 158.055 376.844 157.932C377.142 157.229 377.985 157.106 378.319 157.106C378.688 157.106 379.039 157.229 379.408 157.387C380.075 157.668 380.356 157.668 380.532 157.668C380.655 157.668 380.725 157.668 380.813 157.651C380.233 158.336 379.285 159.179 378.495 159.899L376.721 161.532C375.65 162.621 375 163.657 375 163.78C375 163.885 375.088 163.92 375.193 163.92C375.299 163.92 375.316 163.903 375.439 163.692C375.72 163.253 376.282 162.603 376.932 162.603C377.301 162.603 377.476 162.726 377.827 163.165C378.161 163.551 378.46 163.92 379.022 163.92C380.742 163.92 381.726 161.69 381.726 161.286C381.726 161.216 381.708 161.11 381.533 161.11C381.392 161.11 381.375 161.181 381.322 161.356C380.936 162.392 379.9 162.814 379.215 162.814C378.846 162.814 378.495 162.691 378.126 162.533C377.423 162.252 377.23 162.252 377.002 162.252C376.826 162.252 376.633 162.252 376.475 162.322Z" fill="black"/>
<path d="M386.09 162.152C386.745 161.836 387.541 161.251 387.541 160.338C387.541 159.225 386.406 158.593 385.317 158.593C384.076 158.593 383.069 159.448 383.069 160.548C383.069 160.982 383.221 161.38 383.514 161.719C383.713 161.965 383.76 161.988 384.486 162.445C383.034 163.089 382.718 163.944 382.718 164.599C382.718 165.887 384.017 166.625 385.294 166.625C386.734 166.625 387.893 165.653 387.893 164.412C387.893 163.674 387.495 163.183 387.307 162.984C387.108 162.796 387.096 162.785 386.09 162.152ZM384.275 161.052C383.935 160.853 383.654 160.513 383.654 160.104C383.654 159.366 384.462 158.898 385.294 158.898C386.207 158.898 386.956 159.518 386.956 160.338C386.956 161.017 386.429 161.59 385.738 161.93L384.275 161.052ZM384.849 162.656C384.895 162.679 386.23 163.499 386.429 163.627C386.616 163.733 387.225 164.107 387.225 164.81C387.225 165.711 386.277 166.273 385.317 166.273C384.275 166.273 383.385 165.559 383.385 164.599C383.385 163.721 384.041 163.03 384.849 162.656Z" fill="black"/>
<path d="M511.23 104.53C511.985 103.67 512.599 103.126 513.477 102.336C514.53 101.423 514.987 100.984 515.233 100.72C516.462 99.5089 517.076 98.4906 517.076 98.3502C517.076 98.2097 516.936 98.2097 516.901 98.2097C516.778 98.2097 516.743 98.2799 516.655 98.4028C516.216 99.1578 515.794 99.5265 515.338 99.5265C514.969 99.5265 514.776 99.3684 514.443 98.9471C514.074 98.5082 513.775 98.2097 513.266 98.2097C511.985 98.2097 511.212 99.8074 511.212 100.176C511.212 100.229 511.23 100.334 511.388 100.334C511.528 100.334 511.546 100.264 511.598 100.141C511.897 99.4387 512.74 99.3158 513.073 99.3158C513.442 99.3158 513.793 99.4387 514.162 99.5967C514.829 99.8776 515.11 99.8776 515.285 99.8776C515.408 99.8776 515.478 99.8776 515.566 99.86C514.987 100.545 514.039 101.387 513.249 102.107L511.476 103.74C510.405 104.829 509.755 105.864 509.755 105.987C509.755 106.093 509.843 106.128 509.948 106.128C510.053 106.128 510.071 106.11 510.194 105.899C510.475 105.461 511.037 104.811 511.686 104.811C512.055 104.811 512.23 104.934 512.582 105.373C512.915 105.759 513.214 106.128 513.775 106.128C515.496 106.128 516.479 103.898 516.479 103.494C516.479 103.424 516.462 103.319 516.286 103.319C516.146 103.319 516.128 103.389 516.075 103.564C515.689 104.6 514.653 105.022 513.969 105.022C513.6 105.022 513.249 104.899 512.88 104.741C512.178 104.46 511.985 104.46 511.756 104.46C511.581 104.46 511.388 104.46 511.23 104.53Z" fill="black"/>
<path d="M532.236 101.914C532.534 101.914 532.85 101.914 532.85 101.563C532.85 101.212 532.534 101.212 532.236 101.212H524.792C525.003 98.8594 527.022 97.1739 529.497 97.1739H532.236C532.534 97.1739 532.85 97.1739 532.85 96.8228C532.85 96.4717 532.534 96.4717 532.236 96.4717H529.462C526.46 96.4717 524.072 98.754 524.072 101.563C524.072 104.372 526.46 106.654 529.462 106.654H532.236C532.534 106.654 532.85 106.654 532.85 106.303C532.85 105.952 532.534 105.952 532.236 105.952H529.497C527.022 105.952 525.003 104.267 524.792 101.914H532.236Z" fill="black"/>
<path d="M547.369 99.7898C548.071 99.8074 548.405 99.8776 548.51 99.9654C548.528 99.983 548.545 100.053 548.563 100.088C548.563 100.264 548.703 100.264 548.791 100.264C549.072 100.264 549.616 99.9654 549.616 99.5967C549.616 99.1578 548.879 99.07 548.475 99.0525C548.44 99.0525 548.194 99.0349 548.194 99.0174C548.194 98.9822 548.475 98.7189 548.615 98.5609C550.283 96.893 552.618 94.2595 552.618 94.084C552.618 94.0313 552.601 93.9611 552.478 93.9611C552.355 93.9611 551.898 94.0664 551.389 94.4526C551.073 94.4526 550.634 94.4526 549.616 94.2595C548.651 94.084 548.018 93.9611 547.334 93.9611C546.21 93.9611 545.157 94.3649 544.226 94.9267C542.646 95.9274 542.506 96.9457 542.506 96.9632C542.506 97.0159 542.523 97.1037 542.664 97.1037C542.997 97.1037 544.051 96.5945 544.209 96.1205C544.437 95.4358 544.665 95.0496 545.859 95.0496C546.017 95.0496 546.509 95.0496 547.562 95.2427C548.44 95.4007 549.16 95.5412 549.792 95.5412C550.002 95.5412 550.213 95.5412 550.406 95.4885C549.476 96.577 548.668 97.4724 547.141 99.0349H545.385C544.454 99.0349 544.296 99.5616 544.296 99.6318C544.296 99.7898 544.454 99.7898 544.753 99.7898H546.351C546.228 99.9303 545.403 100.755 543.12 102.81C543.085 102.845 541.821 103.986 540.364 105.215C540.136 105.408 539.802 105.706 539.802 105.829C539.802 105.882 539.82 105.952 539.942 105.952C540.171 105.952 540.539 105.777 540.768 105.636C541.084 105.461 541.382 105.461 541.663 105.461C542.453 105.461 543.594 105.601 544.402 105.689C545.245 105.812 546.421 105.952 547.281 105.952C548.563 105.952 549.599 105.232 550.16 104.723C551.231 103.775 551.547 102.529 551.547 102.423C551.547 102.318 551.477 102.3 551.389 102.3C551.056 102.3 550.002 102.81 549.844 103.319C549.739 103.652 549.563 104.249 549.019 104.864C548.493 104.864 547.878 104.864 546.263 104.653C545.385 104.548 544.068 104.372 543.138 104.372C543.032 104.372 542.611 104.372 542.277 104.442L547.369 99.7898Z" fill="black"/>
</svg>
