<svg width="554" height="207" viewBox="0 0 554 207" fill="none" xmlns="http://www.w3.org/2000/svg">
<rect width="554" height="207" fill="white"/>
<path d="M504 119L494 113.226V124.774L504 119ZM444 120H495V118H444V120Z" fill="#355FB3"/>
<path d="M253 120L243 114.226V125.774L253 120ZM193 121H244V119H193V121Z" fill="#355FB3"/>
<path d="M47 82L35 139.5M35 139.5L95.5 120M35 139.5L78.5 177L95.5 120M35 139.5L107.5 55.5L148 87L161 140.5M95.5 120L161 140.5M161 140.5L132.5 179.5" stroke="#B33535" stroke-width="2"/>
<path d="M297 82L285 139.5M285 139.5L345.5 120M285 139.5L328.5 177L345.5 120M285 139.5L357.5 55.5L398 87L411 140.5M345.5 120L411 140.5M411 140.5L382.5 179.5" stroke="#8EA7D7" stroke-width="2" stroke-dasharray="4 2"/>
<path d="M443 119.5C443 167.192 400.775 206 348.5 206C296.225 206 254 167.192 254 119.5C254 71.8079 296.225 33 348.5 33C400.775 33 443 71.8079 443 119.5Z" stroke="#355FB3" stroke-width="2"/>
<circle cx="96" cy="119" r="15" fill="#DC8989"/>
<circle cx="46" cy="81" r="15" fill="#DC8989"/>
<circle cx="35" cy="136" r="15" fill="#DC8989"/>
<circle cx="78" cy="174" r="15" fill="#DC8989"/>
<circle cx="131" cy="178" r="15" fill="#DC8989"/>
<circle cx="160" cy="139" r="15" fill="#DC8989"/>
<circle cx="147" cy="88" r="15" fill="#DC8989"/>
<circle cx="107" cy="56" r="15" fill="#DC8989"/>
<path d="M513.145 124.962C512.671 125.63 511.986 126.227 511.125 126.227C510.914 126.227 510.071 126.192 509.808 125.384C509.861 125.401 509.948 125.401 509.983 125.401C510.51 125.401 510.862 124.945 510.862 124.541C510.862 124.137 510.528 123.996 510.264 123.996C509.983 123.996 509.369 124.207 509.369 125.068C509.369 125.963 510.124 126.578 511.125 126.578C512.881 126.578 514.655 124.962 515.147 123.013L516.868 116.163C516.886 116.076 516.921 115.97 516.921 115.865C516.921 115.601 516.71 115.426 516.446 115.426C516.288 115.426 515.92 115.496 515.779 116.023L514.479 121.186C514.392 121.502 514.392 121.537 514.251 121.731C513.9 122.222 513.32 122.82 512.477 122.82C511.494 122.82 511.406 121.854 511.406 121.379C511.406 120.378 511.88 119.026 512.354 117.762C512.548 117.252 512.653 117.006 512.653 116.655C512.653 115.918 512.126 115.25 511.266 115.25C509.65 115.25 509 117.797 509 117.937C509 118.007 509.07 118.095 509.193 118.095C509.351 118.095 509.369 118.025 509.439 117.779C509.861 116.304 510.528 115.601 511.213 115.601C511.371 115.601 511.67 115.601 511.67 116.181C511.67 116.638 511.476 117.147 511.213 117.814C510.352 120.115 510.352 120.694 510.352 121.116C510.352 122.784 511.547 123.171 512.425 123.171C512.934 123.171 513.566 123.013 514.181 122.363L514.198 122.38C513.935 123.417 513.759 124.102 513.145 124.962Z" fill="black"/>
<path d="M532.012 118.956C532.31 118.956 532.627 118.956 532.627 118.605C532.627 118.253 532.31 118.253 532.012 118.253H524.565C524.776 115.9 526.796 114.214 529.272 114.214H532.012C532.31 114.214 532.627 114.214 532.627 113.863C532.627 113.511 532.31 113.511 532.012 113.511H529.237C526.234 113.511 523.845 115.795 523.845 118.605C523.845 121.415 526.234 123.698 529.237 123.698H532.012C532.31 123.698 532.627 123.698 532.627 123.346C532.627 122.995 532.31 122.995 532.012 122.995H529.272C526.796 122.995 524.776 121.309 524.565 118.956H532.012Z" fill="black"/>
<path d="M546.096 121.292C546.149 120.624 546.166 119.676 546.166 119.184C546.166 117.34 546.079 111 542.408 111C541.196 111 540.125 112.071 540.125 112.335C540.125 112.475 540.265 112.475 540.301 112.475C540.406 112.475 540.95 112.387 541.337 111.878C542.882 111.896 543.883 113.037 544.41 115.25C544.744 116.655 544.867 118.218 544.867 119.816C544.867 120.87 544.797 122.082 544.779 122.31C544.761 122.451 544.761 122.486 544.726 122.503C544.691 122.539 542.935 124.014 542.074 124.014C541.934 124.014 540.511 124.014 540.178 122.556C540.142 122.433 540.125 122.328 540.02 122.328C539.809 122.328 539.475 122.925 539.475 123.364C539.475 124.084 540.142 125.366 541.635 125.366C542.97 125.366 545.868 122.784 547.396 121.011C550.908 116.971 551.523 113.95 551.523 113.037C551.523 111.544 550.522 111 549.855 111C549.345 111 549.187 111.878 549.187 112.054C549.187 112.317 549.257 112.335 549.521 112.37C550.557 112.493 550.82 113.318 550.82 113.828C550.82 114.372 549.995 117.498 546.096 121.292Z" fill="black"/>
<path d="M46.8351 76.5797C46.273 76.6851 46.0622 77.1068 46.0622 77.4405C46.0622 77.8622 46.396 78.0027 46.6419 78.0027C47.1689 78.0027 47.5379 77.546 47.5379 77.0716C47.5379 76.3338 46.6946 76 45.9568 76C44.8851 76 44.2878 77.0541 44.1297 77.3878C43.7257 76.0703 42.6365 76 42.3203 76C40.5284 76 39.5797 78.3014 39.5797 78.6878C39.5797 78.7581 39.65 78.846 39.773 78.846C39.9135 78.846 39.9486 78.7405 39.9838 78.6703C40.5811 76.7203 41.7581 76.3513 42.2676 76.3513C43.0581 76.3513 43.2162 77.0892 43.2162 77.5108C43.2162 77.8973 43.1108 78.3014 42.9 79.1446L42.3027 81.5514C42.0392 82.6054 41.5297 83.5716 40.5987 83.5716C40.5108 83.5716 40.0716 83.5716 39.7027 83.3433C40.3351 83.2203 40.4757 82.6933 40.4757 82.4824C40.4757 82.1311 40.2122 81.9203 39.8784 81.9203C39.4568 81.9203 39 82.2892 39 82.8514C39 83.5892 39.8257 83.923 40.5811 83.923C41.4243 83.923 42.0216 83.2554 42.3905 82.5351C42.6716 83.5716 43.55 83.923 44.2 83.923C45.9919 83.923 46.9405 81.6216 46.9405 81.2351C46.9405 81.1473 46.8703 81.077 46.7649 81.077C46.6068 81.077 46.5892 81.1649 46.5365 81.3054C46.0622 82.8514 45.0432 83.5716 44.2527 83.5716C43.6378 83.5716 43.3041 83.1149 43.3041 82.3946C43.3041 82.0081 43.3743 81.727 43.6554 80.5676L44.2703 78.1784C44.5338 77.1243 45.1311 76.3513 45.9392 76.3513C45.9743 76.3513 46.4662 76.3513 46.8351 76.5797Z" fill="black"/>
<path d="M51.5492 83.9933C51.7366 83.8176 52.2285 83.4311 52.4158 83.2671C53.142 82.5996 53.833 81.9554 53.833 80.8897C53.833 79.496 52.6618 78.5942 51.1978 78.5942C49.7924 78.5942 48.8672 79.6599 48.8672 80.7023C48.8672 81.2762 49.3239 81.3581 49.4879 81.3581C49.7338 81.3581 50.0969 81.1825 50.0969 80.7374C50.0969 80.1284 49.5113 80.1284 49.3708 80.1284C49.7104 79.2734 50.4951 78.9807 51.069 78.9807C52.1582 78.9807 52.7203 79.9059 52.7203 80.8897C52.7203 82.1077 51.8654 82.9978 50.4834 84.4149L49.0077 85.9374C48.8672 86.0662 48.8672 86.0897 48.8672 86.3825H53.4933L53.833 84.2861H53.4699C53.4348 84.5203 53.3411 85.1059 53.2005 85.3284C53.1303 85.4221 52.2402 85.4221 52.0528 85.4221H49.9681L51.5492 83.9933Z" fill="black"/>
<path d="M147.834 83.5797C147.272 83.6851 147.062 84.1067 147.062 84.4404C147.062 84.862 147.395 85.0025 147.641 85.0025C148.168 85.0025 148.537 84.5458 148.537 84.0715C148.537 83.3338 147.694 83 146.956 83C145.885 83 145.287 84.054 145.129 84.3877C144.725 83.0703 143.636 83 143.32 83C141.528 83 140.58 85.3011 140.58 85.6876C140.58 85.7579 140.65 85.8457 140.773 85.8457C140.913 85.8457 140.949 85.7403 140.984 85.67C141.581 83.7202 142.758 83.3513 143.267 83.3513C144.058 83.3513 144.216 84.0891 144.216 84.5107C144.216 84.8971 144.11 85.3011 143.9 86.1443L143.302 88.5508C143.039 89.6048 142.53 90.5709 141.599 90.5709C141.511 90.5709 141.072 90.5709 140.703 90.3426C141.335 90.2196 141.476 89.6926 141.476 89.4818C141.476 89.1305 141.212 88.9197 140.878 88.9197C140.457 88.9197 140 89.2886 140 89.8507C140 90.5885 140.826 90.9223 141.581 90.9223C142.424 90.9223 143.021 90.2547 143.39 89.5345C143.671 90.5709 144.55 90.9223 145.2 90.9223C146.991 90.9223 147.94 88.6211 147.94 88.2347C147.94 88.1468 147.87 88.0766 147.764 88.0766C147.606 88.0766 147.589 88.1644 147.536 88.3049C147.062 89.8507 146.043 90.5709 145.252 90.5709C144.637 90.5709 144.304 90.1142 144.304 89.394C144.304 89.0076 144.374 88.7265 144.655 87.5671L145.27 85.1782C145.533 84.1242 146.131 83.3513 146.939 83.3513C146.974 83.3513 147.466 83.3513 147.834 83.5797Z" fill="black"/>
<path d="M152.209 89.4701C153.134 89.4701 153.719 90.1494 153.719 91.379C153.719 92.8428 152.888 93.2761 152.267 93.2761C151.623 93.2761 150.745 93.0419 150.335 92.4212C150.756 92.4212 151.049 92.1519 151.049 91.7654C151.049 91.3907 150.78 91.1214 150.405 91.1214C150.089 91.1214 149.761 91.3204 149.761 91.7889C149.761 92.9014 150.955 93.6274 152.29 93.6274C153.848 93.6274 154.937 92.5501 154.937 91.379C154.937 90.407 154.164 89.517 152.97 89.2594C153.895 88.9315 154.586 88.1351 154.586 87.1983C154.586 86.2614 153.532 85.5939 152.314 85.5939C151.061 85.5939 150.112 86.2731 150.112 87.1632C150.112 87.5964 150.405 87.7838 150.71 87.7838C151.073 87.7838 151.307 87.5262 151.307 87.1866C151.307 86.7533 150.932 86.5893 150.674 86.5776C151.166 85.9335 152.068 85.8984 152.279 85.8984C152.583 85.8984 153.473 85.9921 153.473 87.1983C153.473 88.018 153.134 88.5099 152.97 88.6973C152.618 89.0603 152.349 89.0837 151.635 89.1305C151.412 89.1423 151.319 89.154 151.319 89.3062C151.319 89.4701 151.424 89.4701 151.623 89.4701H152.209Z" fill="black"/>
<path d="M95.8303 114.579C95.2685 114.685 95.0578 115.106 95.0578 115.44C95.0578 115.861 95.3914 116.001 95.6372 116.001C96.1639 116.001 96.5326 115.545 96.5326 115.071C96.5326 114.334 95.6898 114 94.9525 114C93.8815 114 93.2846 115.053 93.1266 115.387C92.7227 114.07 91.6342 114 91.3182 114C89.5274 114 88.5794 116.3 88.5794 116.686C88.5794 116.756 88.6496 116.844 88.7725 116.844C88.9129 116.844 88.9481 116.739 88.9832 116.669C89.5801 114.72 90.7564 114.351 91.2656 114.351C92.0556 114.351 92.2136 115.089 92.2136 115.51C92.2136 115.896 92.1083 116.3 91.8976 117.143L91.3007 119.548C91.0373 120.601 90.5282 121.567 89.5977 121.567C89.5099 121.567 89.071 121.567 88.7023 121.339C89.3343 121.216 89.4748 120.689 89.4748 120.478C89.4748 120.127 89.2114 119.917 88.8778 119.917C88.4565 119.917 88 120.285 88 120.847C88 121.585 88.8252 121.918 89.5801 121.918C90.4228 121.918 91.0197 121.251 91.3884 120.531C91.6693 121.567 92.5472 121.918 93.1968 121.918C94.9876 121.918 95.9356 119.618 95.9356 119.232C95.9356 119.144 95.8654 119.074 95.7601 119.074C95.6021 119.074 95.5845 119.162 95.5318 119.302C95.0578 120.847 94.0395 121.567 93.2495 121.567C92.635 121.567 92.3014 121.11 92.3014 120.391C92.3014 120.004 92.3716 119.723 92.6525 118.565L93.267 116.177C93.5304 115.124 94.1273 114.351 94.9349 114.351C94.97 114.351 95.4616 114.351 95.8303 114.579Z" fill="black"/>
<path d="M101.852 116.803C101.852 116.569 101.852 116.476 101.607 116.476C101.454 116.476 101.443 116.487 101.326 116.651L97.5919 122.07V122.457H100.893V123.428C100.893 123.861 100.857 123.99 99.9562 123.99H99.687V124.376C100.682 124.341 100.705 124.341 101.372 124.341C102.04 124.341 102.063 124.341 103.058 124.376V123.99H102.789C101.887 123.99 101.852 123.861 101.852 123.428V122.457H103.093V122.07H101.852V116.803ZM100.975 117.751V122.07H98.0016L100.975 117.751Z" fill="black"/>
<path d="M35.8352 131.58C35.273 131.685 35.0622 132.107 35.0622 132.441C35.0622 132.862 35.396 133.003 35.6419 133.003C36.1689 133.003 36.5379 132.546 36.5379 132.072C36.5379 131.334 35.6946 131 34.9568 131C33.8852 131 33.2879 132.054 33.1297 132.388C32.7257 131.07 31.6365 131 31.3203 131C29.5284 131 28.5797 133.301 28.5797 133.688C28.5797 133.758 28.65 133.846 28.773 133.846C28.9135 133.846 28.9487 133.741 28.9838 133.67C29.5811 131.72 30.7581 131.351 31.2676 131.351C32.0581 131.351 32.2162 132.089 32.2162 132.511C32.2162 132.897 32.1108 133.301 31.9 134.145L31.3027 136.551C31.0392 137.605 30.5297 138.572 29.5987 138.572C29.5108 138.572 29.0716 138.572 28.7027 138.343C29.3351 138.22 29.4757 137.693 29.4757 137.482C29.4757 137.131 29.2122 136.92 28.8784 136.92C28.4568 136.92 28 137.289 28 137.851C28 138.589 28.8257 138.923 29.5811 138.923C30.4243 138.923 31.0216 138.255 31.3905 137.535C31.6716 138.572 32.55 138.923 33.2 138.923C34.9919 138.923 35.9406 136.622 35.9406 136.235C35.9406 136.147 35.8703 136.077 35.7649 136.077C35.6068 136.077 35.5892 136.165 35.5365 136.305C35.0622 137.851 34.0433 138.572 33.2527 138.572C32.6379 138.572 32.3041 138.115 32.3041 137.395C32.3041 137.008 32.3743 136.727 32.6554 135.568L33.2703 133.178C33.5338 132.124 34.1311 131.351 34.9392 131.351C34.9744 131.351 35.4662 131.351 35.8352 131.58Z" fill="black"/>
<path d="M38.8862 134.801C39.0385 134.847 39.507 134.965 39.9989 134.965C41.4628 134.965 42.3529 133.934 42.3529 133.758C42.3529 133.629 42.2709 133.594 42.2124 133.594C42.1889 133.594 42.1655 133.594 42.0601 133.653C41.6034 133.828 41.0646 133.969 40.4322 133.969C39.7412 133.969 39.1673 133.793 38.8042 133.653C38.6871 133.594 38.6637 133.594 38.652 133.594C38.4997 133.594 38.4997 133.723 38.4997 133.934V137.365C38.4997 137.576 38.4997 137.717 38.6871 137.717C38.7808 137.717 38.816 137.67 38.8745 137.576C39.0151 137.401 39.4601 136.803 40.4556 136.803C41.1115 136.803 41.4277 137.342 41.5331 137.565C41.7322 137.986 41.7556 138.525 41.7556 138.982C41.7556 139.415 41.7439 140.047 41.416 140.563C41.1934 140.914 40.725 141.277 40.1043 141.277C39.343 141.277 38.5934 140.797 38.3241 140.036C38.3592 140.047 38.4295 140.047 38.4412 140.047C38.7691 140.047 39.0268 139.837 39.0268 139.474C39.0268 139.04 38.6871 138.888 38.4529 138.888C38.2421 138.888 37.8673 139.005 37.8673 139.509C37.8673 140.563 38.7808 141.628 40.1277 141.628C41.5916 141.628 42.8331 140.492 42.8331 139.04C42.8331 137.682 41.8493 136.475 40.4673 136.475C39.8817 136.475 39.3313 136.663 38.8862 137.061V134.801Z" fill="black"/>
<path d="M107.833 51.5796C107.271 51.6849 107.06 52.1065 107.06 52.4401C107.06 52.8617 107.394 53.0022 107.64 53.0022C108.167 53.0022 108.536 52.5455 108.536 52.0713C108.536 51.3337 107.693 51 106.955 51C105.884 51 105.286 52.0538 105.128 52.3875C104.724 51.0703 103.635 51 103.319 51C101.528 51 100.58 53.3007 100.58 53.6871C100.58 53.7574 100.65 53.8452 100.773 53.8452C100.913 53.8452 100.948 53.7398 100.984 53.6696C101.581 51.7201 102.757 51.3513 103.267 51.3513C104.057 51.3513 104.215 52.0889 104.215 52.5104C104.215 52.8968 104.11 53.3007 103.899 54.1438L103.302 56.5498C103.038 57.6036 102.529 58.5696 101.598 58.5696C101.51 58.5696 101.071 58.5696 100.703 58.3413C101.335 58.2183 101.475 57.6914 101.475 57.4807C101.475 57.1294 101.212 56.9187 100.878 56.9187C100.457 56.9187 100 57.2875 100 57.8495C100 58.5871 100.825 58.9208 101.581 58.9208C102.424 58.9208 103.021 58.2534 103.39 57.5334C103.671 58.5696 104.549 58.9208 105.199 58.9208C106.99 58.9208 107.938 56.6201 107.938 56.2337C107.938 56.1459 107.868 56.0756 107.763 56.0756C107.605 56.0756 107.587 56.1635 107.534 56.304C107.06 57.8495 106.042 58.5696 105.251 58.5696C104.637 58.5696 104.303 58.1129 104.303 57.3929C104.303 57.0065 104.373 56.7255 104.654 55.5663L105.269 53.1778C105.532 52.124 106.129 51.3513 106.937 51.3513C106.972 51.3513 107.464 51.3513 107.833 51.5796Z" fill="black"/>
<path d="M112.921 53.9213C112.921 53.6052 112.897 53.5935 112.581 53.5935C112.101 54.0618 111.48 54.3428 110.368 54.3428V54.7292C110.684 54.7292 111.316 54.7292 111.996 54.4131V60.4196C111.996 60.8528 111.96 60.9933 110.848 60.9933H110.438V61.3797C110.918 61.3446 111.925 61.3446 112.452 61.3446C112.979 61.3446 113.998 61.3446 114.478 61.3797V60.9933H114.068C112.956 60.9933 112.921 60.8528 112.921 60.4196V53.9213Z" fill="black"/>
<path d="M160.833 134.58C160.271 134.685 160.06 135.106 160.06 135.44C160.06 135.862 160.394 136.002 160.64 136.002C161.167 136.002 161.536 135.546 161.536 135.071C161.536 134.334 160.693 134 159.955 134C158.884 134 158.286 135.054 158.128 135.387C157.724 134.07 156.635 134 156.319 134C154.528 134 153.58 136.301 153.58 136.687C153.58 136.757 153.65 136.845 153.773 136.845C153.913 136.845 153.948 136.74 153.984 136.67C154.581 134.72 155.757 134.351 156.267 134.351C157.057 134.351 157.215 135.089 157.215 135.51C157.215 135.897 157.11 136.301 156.899 137.144L156.302 139.55C156.038 140.604 155.529 141.57 154.598 141.57C154.51 141.57 154.071 141.57 153.703 141.341C154.335 141.218 154.475 140.691 154.475 140.481C154.475 140.129 154.212 139.919 153.878 139.919C153.457 139.919 153 140.287 153 140.849C153 141.587 153.825 141.921 154.581 141.921C155.424 141.921 156.021 141.253 156.39 140.533C156.671 141.57 157.549 141.921 158.199 141.921C159.99 141.921 160.938 139.62 160.938 139.234C160.938 139.146 160.868 139.076 160.763 139.076C160.605 139.076 160.587 139.163 160.534 139.304C160.06 140.849 159.042 141.57 158.251 141.57C157.637 141.57 157.303 141.113 157.303 140.393C157.303 140.006 157.373 139.725 157.654 138.566L158.269 136.178C158.532 135.124 159.129 134.351 159.937 134.351C159.972 134.351 160.464 134.351 160.833 134.58Z" fill="black"/>
<path d="M163.86 140.504C163.86 139.532 163.942 138.678 164.363 137.963C164.714 137.378 165.312 136.898 166.049 136.898C166.283 136.898 166.822 136.933 167.091 137.343C166.564 137.366 166.518 137.764 166.518 137.893C166.518 138.244 166.787 138.443 167.068 138.443C167.279 138.443 167.618 138.315 167.618 137.87C167.618 137.167 167.091 136.594 166.038 136.594C164.41 136.594 162.759 138.139 162.759 140.668C162.759 143.841 164.234 144.626 165.37 144.626C165.932 144.626 166.541 144.473 167.068 143.97C167.536 143.513 167.934 143.021 167.934 142.003C167.934 140.469 166.775 139.392 165.476 139.392C164.633 139.392 164.129 139.93 163.86 140.504ZM165.37 144.274C164.75 144.274 164.363 143.841 164.188 143.513C163.918 142.986 163.895 142.19 163.895 141.745C163.895 140.586 164.527 139.72 165.429 139.72C166.014 139.72 166.365 140.024 166.588 140.434C166.834 140.867 166.834 141.394 166.834 141.991C166.834 142.588 166.834 143.103 166.6 143.525C166.295 144.064 165.885 144.274 165.37 144.274Z" fill="black"/>
<path d="M77.833 169.58C77.271 169.685 77.0602 170.106 77.0602 170.44C77.0602 170.862 77.3939 171.002 77.6398 171.002C78.1667 171.002 78.5355 170.546 78.5355 170.071C78.5355 169.334 77.6925 169 76.9549 169C75.8835 169 75.2864 170.054 75.1283 170.387C74.7244 169.07 73.6355 169 73.3194 169C71.528 169 70.5796 171.301 70.5796 171.687C70.5796 171.757 70.6498 171.845 70.7728 171.845C70.9133 171.845 70.9484 171.74 70.9835 171.67C71.5807 169.72 72.7574 169.351 73.2667 169.351C74.057 169.351 74.2151 170.089 74.2151 170.51C74.2151 170.897 74.1097 171.301 73.8989 172.144L73.3018 174.55C73.0384 175.604 72.529 176.57 71.5982 176.57C71.5104 176.57 71.0713 176.57 70.7025 176.341C71.3348 176.218 71.4753 175.691 71.4753 175.481C71.4753 175.129 71.2118 174.919 70.8781 174.919C70.4566 174.919 70 175.287 70 175.849C70 176.587 70.8255 176.921 71.5807 176.921C72.4237 176.921 73.0208 176.253 73.3896 175.533C73.6706 176.57 74.5488 176.921 75.1986 176.921C76.99 176.921 77.9384 174.62 77.9384 174.234C77.9384 174.146 77.8681 174.076 77.7628 174.076C77.6047 174.076 77.5871 174.163 77.5344 174.304C77.0602 175.849 76.0416 176.57 75.2513 176.57C74.6366 176.57 74.3029 176.113 74.3029 175.393C74.3029 175.006 74.3731 174.725 74.6541 173.566L75.2689 171.178C75.5323 170.124 76.1294 169.351 76.9373 169.351C76.9724 169.351 77.4642 169.351 77.833 169.58Z" fill="black"/>
<path d="M85.1685 172.249C85.2739 172.12 85.2739 172.097 85.2739 171.839H82.2999C82.0072 171.839 81.6443 171.828 81.3515 171.804C80.7427 171.757 80.731 171.652 80.6959 171.465H80.3329L79.9348 173.935H80.2978C80.3212 173.76 80.45 172.952 80.6139 172.858C80.7427 172.8 81.6208 172.8 81.7965 172.8H84.2787L83.0727 174.415C81.7379 176.195 81.4569 178.045 81.4569 178.97C81.4569 179.087 81.4569 179.626 82.0072 179.626C82.5575 179.626 82.5575 179.099 82.5575 178.958V178.396C82.5575 176.71 82.8385 175.329 83.4123 174.567L85.1685 172.249Z" fill="black"/>
<path d="M131.833 173.58C131.271 173.685 131.06 174.106 131.06 174.44C131.06 174.862 131.394 175.002 131.64 175.002C132.167 175.002 132.536 174.546 132.536 174.071C132.536 173.334 131.693 173 130.955 173C129.884 173 129.286 174.054 129.128 174.387C128.724 173.07 127.635 173 127.319 173C125.528 173 124.58 175.301 124.58 175.687C124.58 175.757 124.65 175.845 124.773 175.845C124.913 175.845 124.948 175.74 124.984 175.67C125.581 173.72 126.757 173.351 127.267 173.351C128.057 173.351 128.215 174.089 128.215 174.51C128.215 174.897 128.11 175.301 127.899 176.144L127.302 178.55C127.038 179.604 126.529 180.57 125.598 180.57C125.51 180.57 125.071 180.57 124.703 180.341C125.335 180.218 125.475 179.691 125.475 179.481C125.475 179.129 125.212 178.919 124.878 178.919C124.457 178.919 124 179.287 124 179.849C124 180.587 124.825 180.921 125.581 180.921C126.424 180.921 127.021 180.253 127.39 179.533C127.671 180.57 128.549 180.921 129.199 180.921C130.99 180.921 131.938 178.62 131.938 178.234C131.938 178.146 131.868 178.076 131.763 178.076C131.605 178.076 131.587 178.163 131.534 178.304C131.06 179.849 130.042 180.57 129.251 180.57C128.637 180.57 128.303 180.113 128.303 179.393C128.303 179.006 128.373 178.725 128.654 177.566L129.269 175.178C129.532 174.124 130.129 173.351 130.937 173.351C130.972 173.351 131.464 173.351 131.833 173.58Z" fill="black"/>
<path d="M137.131 179.153C137.787 178.837 138.583 178.251 138.583 177.338C138.583 176.226 137.447 175.594 136.358 175.594C135.117 175.594 134.11 176.448 134.11 177.549C134.11 177.982 134.263 178.38 134.555 178.72C134.754 178.966 134.801 178.989 135.527 179.446C134.075 180.09 133.759 180.944 133.759 181.6C133.759 182.888 135.059 183.626 136.335 183.626C137.775 183.626 138.934 182.654 138.934 181.413C138.934 180.675 138.536 180.183 138.349 179.984C138.15 179.797 138.138 179.785 137.131 179.153ZM135.316 178.052C134.977 177.853 134.696 177.514 134.696 177.104C134.696 176.366 135.504 175.898 136.335 175.898C137.248 175.898 137.998 176.518 137.998 177.338C137.998 178.017 137.471 178.591 136.78 178.93L135.316 178.052ZM135.89 179.656C135.937 179.68 137.272 180.499 137.471 180.628C137.658 180.734 138.267 181.108 138.267 181.811C138.267 182.712 137.319 183.274 136.358 183.274C135.316 183.274 134.427 182.56 134.427 181.6C134.427 180.722 135.082 180.031 135.89 179.656Z" fill="black"/>
<circle cx="346" cy="119" r="15" fill="#8EA7D7"/>
<circle cx="296" cy="81" r="15" fill="#8EA7D7"/>
<circle cx="285" cy="136" r="15" fill="#8EA7D7"/>
<circle cx="328" cy="174" r="15" fill="#8EA7D7"/>
<circle cx="381" cy="178" r="15" fill="#8EA7D7"/>
<circle cx="410" cy="139" r="15" fill="#8EA7D7"/>
<circle cx="397" cy="88" r="15" fill="#8EA7D7"/>
<circle cx="357" cy="56" r="15" fill="#8EA7D7"/>
<path d="M354.143 59.7079C353.669 60.375 352.984 60.9719 352.124 60.9719C351.913 60.9719 351.071 60.9368 350.808 60.1293C350.86 60.1468 350.948 60.1468 350.983 60.1468C351.51 60.1468 351.861 59.6904 351.861 59.2866C351.861 58.8828 351.527 58.7424 351.264 58.7424C350.983 58.7424 350.369 58.9531 350.369 59.8133C350.369 60.7086 351.124 61.323 352.124 61.323C353.88 61.323 355.653 59.7079 356.144 57.7593L357.865 50.9129C357.882 50.8251 357.917 50.7198 357.917 50.6144C357.917 50.3511 357.707 50.1755 357.443 50.1755C357.285 50.1755 356.917 50.2458 356.776 50.7724L355.477 55.9336C355.389 56.2496 355.389 56.2847 355.249 56.4778C354.898 56.9694 354.319 57.5662 353.476 57.5662C352.493 57.5662 352.405 56.6007 352.405 56.1267C352.405 55.1261 352.879 53.7743 353.353 52.5104C353.546 52.0013 353.651 51.7555 353.651 51.4044C353.651 50.6671 353.125 50 352.265 50C350.65 50 350 52.5455 350 52.6859C350 52.7561 350.07 52.8439 350.193 52.8439C350.351 52.8439 350.369 52.7737 350.439 52.5279C350.86 51.0533 351.527 50.3511 352.212 50.3511C352.37 50.3511 352.668 50.3511 352.668 50.9304C352.668 51.3869 352.475 51.8959 352.212 52.563C351.352 54.8627 351.352 55.4421 351.352 55.8634C351.352 57.5311 352.545 57.9173 353.423 57.9173C353.932 57.9173 354.564 57.7593 355.179 57.1098L355.196 57.1274C354.933 58.1631 354.757 58.8477 354.143 59.7079Z" fill="black"/>
<path d="M361.551 52.92C361.551 52.604 361.527 52.5923 361.211 52.5923C360.731 53.0605 360.111 53.3414 358.999 53.3414V53.7276C359.315 53.7276 359.947 53.7276 360.626 53.4116V59.4154C360.626 59.8484 360.591 59.9889 359.479 59.9889H359.069V60.3751C359.549 60.34 360.556 60.34 361.082 60.34C361.609 60.34 362.627 60.34 363.107 60.3751V59.9889H362.698C361.586 59.9889 361.551 59.8484 361.551 59.4154V52.92Z" fill="black"/>
<path d="M293.143 84.7079C292.669 85.375 291.984 85.9719 291.124 85.9719C290.913 85.9719 290.071 85.9368 289.808 85.1293C289.86 85.1468 289.948 85.1468 289.983 85.1468C290.51 85.1468 290.861 84.6904 290.861 84.2866C290.861 83.8828 290.527 83.7424 290.264 83.7424C289.983 83.7424 289.369 83.9531 289.369 84.8133C289.369 85.7086 290.124 86.323 291.124 86.323C292.88 86.323 294.653 84.7079 295.144 82.7593L296.865 75.9129C296.882 75.8251 296.917 75.7198 296.917 75.6144C296.917 75.3511 296.707 75.1755 296.443 75.1755C296.285 75.1755 295.917 75.2458 295.776 75.7724L294.477 80.9336C294.389 81.2496 294.389 81.2847 294.249 81.4778C293.898 81.9694 293.319 82.5662 292.476 82.5662C291.493 82.5662 291.405 81.6007 291.405 81.1267C291.405 80.1261 291.879 78.7743 292.353 77.5104C292.546 77.0013 292.651 76.7555 292.651 76.4044C292.651 75.6671 292.125 75 291.265 75C289.65 75 289 77.5455 289 77.6859C289 77.7561 289.07 77.8439 289.193 77.8439C289.351 77.8439 289.369 77.7737 289.439 77.5279C289.86 76.0533 290.527 75.3511 291.212 75.3511C291.37 75.3511 291.668 75.3511 291.668 75.9304C291.668 76.3869 291.475 76.8959 291.212 77.563C290.352 79.8627 290.352 80.4421 290.352 80.8634C290.352 82.5311 291.545 82.9173 292.423 82.9173C292.932 82.9173 293.564 82.7593 294.179 82.1098L294.196 82.1274C293.933 83.1631 293.757 83.8477 293.143 84.7079Z" fill="black"/>
<path d="M300.176 82.9876C300.363 82.812 300.855 82.4258 301.042 82.262C301.768 81.5949 302.458 80.9512 302.458 79.8862C302.458 78.4935 301.288 77.5923 299.825 77.5923C298.421 77.5923 297.496 78.6574 297.496 79.699C297.496 80.2724 297.953 80.3543 298.116 80.3543C298.362 80.3543 298.725 80.1788 298.725 79.7341C298.725 79.1255 298.14 79.1255 297.999 79.1255C298.339 78.2711 299.123 77.9786 299.696 77.9786C300.785 77.9786 301.346 78.9031 301.346 79.8862C301.346 81.1034 300.492 81.9928 299.111 83.4089L297.637 84.9303C297.496 85.0591 297.496 85.0825 297.496 85.3751H302.119L302.458 83.2802H302.096C302.06 83.5142 301.967 84.0994 301.826 84.3218C301.756 84.4154 300.867 84.4154 300.679 84.4154H298.596L300.176 82.9876Z" fill="black"/>
<path d="M394.143 91.7079C393.669 92.375 392.984 92.9719 392.124 92.9719C391.913 92.9719 391.071 92.9368 390.808 92.1293C390.86 92.1468 390.948 92.1468 390.983 92.1468C391.51 92.1468 391.861 91.6904 391.861 91.2866C391.861 90.8828 391.527 90.7424 391.264 90.7424C390.983 90.7424 390.369 90.9531 390.369 91.8133C390.369 92.7086 391.124 93.323 392.124 93.323C393.88 93.323 395.653 91.7079 396.144 89.7593L397.865 82.9129C397.882 82.8251 397.917 82.7198 397.917 82.6144C397.917 82.3511 397.707 82.1755 397.443 82.1755C397.285 82.1755 396.917 82.2458 396.776 82.7724L395.477 87.9336C395.389 88.2496 395.389 88.2847 395.249 88.4778C394.898 88.9694 394.319 89.5662 393.476 89.5662C392.493 89.5662 392.405 88.6007 392.405 88.1267C392.405 87.1261 392.879 85.7743 393.353 84.5104C393.546 84.0013 393.651 83.7555 393.651 83.4044C393.651 82.6671 393.125 82 392.265 82C390.65 82 390 84.5455 390 84.6859C390 84.7561 390.07 84.8439 390.193 84.8439C390.351 84.8439 390.369 84.7737 390.439 84.5279C390.86 83.0533 391.527 82.3511 392.212 82.3511C392.37 82.3511 392.668 82.3511 392.668 82.9304C392.668 83.3869 392.475 83.8959 392.212 84.563C391.352 86.8627 391.352 87.4421 391.352 87.8634C391.352 89.5311 392.545 89.9173 393.423 89.9173C393.932 89.9173 394.564 89.7593 395.179 89.1098L395.196 89.1274C394.933 90.1631 394.757 90.8477 394.143 91.7079Z" fill="black"/>
<path d="M400.837 88.4661C401.761 88.4661 402.346 89.1449 402.346 90.3738C402.346 91.8367 401.516 92.2697 400.895 92.2697C400.252 92.2697 399.374 92.0357 398.964 91.4154C399.386 91.4154 399.678 91.1462 399.678 90.76C399.678 90.3855 399.409 90.1163 399.034 90.1163C398.718 90.1163 398.391 90.3153 398.391 90.7834C398.391 91.8952 399.584 92.6208 400.919 92.6208C402.475 92.6208 403.564 91.5441 403.564 90.3738C403.564 89.4024 402.791 88.513 401.597 88.2555C402.522 87.9278 403.213 87.132 403.213 86.1957C403.213 85.2594 402.159 84.5923 400.942 84.5923C399.69 84.5923 398.742 85.2711 398.742 86.1606C398.742 86.5936 399.034 86.7809 399.339 86.7809C399.702 86.7809 399.936 86.5234 399.936 86.184C399.936 85.751 399.561 85.5871 399.304 85.5754C399.795 84.9317 400.696 84.8966 400.907 84.8966C401.211 84.8966 402.101 84.9903 402.101 86.1957C402.101 87.0149 401.761 87.5065 401.597 87.6937C401.246 88.0565 400.977 88.0799 400.263 88.1268C400.041 88.1385 399.947 88.1502 399.947 88.3023C399.947 88.4661 400.053 88.4661 400.252 88.4661H400.837Z" fill="black"/>
<path d="M343.143 122.708C342.669 123.375 341.984 123.972 341.124 123.972C340.913 123.972 340.071 123.937 339.808 123.129C339.86 123.147 339.948 123.147 339.983 123.147C340.51 123.147 340.861 122.69 340.861 122.287C340.861 121.883 340.527 121.742 340.264 121.742C339.983 121.742 339.369 121.953 339.369 122.813C339.369 123.709 340.124 124.323 341.124 124.323C342.88 124.323 344.653 122.708 345.144 120.759L346.865 113.913C346.882 113.825 346.917 113.72 346.917 113.614C346.917 113.351 346.707 113.176 346.443 113.176C346.285 113.176 345.917 113.246 345.776 113.772L344.477 118.934C344.389 119.25 344.389 119.285 344.249 119.478C343.898 119.969 343.319 120.566 342.476 120.566C341.493 120.566 341.405 119.601 341.405 119.127C341.405 118.126 341.879 116.774 342.353 115.51C342.546 115.001 342.651 114.756 342.651 114.404C342.651 113.667 342.125 113 341.265 113C339.65 113 339 115.545 339 115.686C339 115.756 339.07 115.844 339.193 115.844C339.351 115.844 339.369 115.774 339.439 115.528C339.86 114.053 340.527 113.351 341.212 113.351C341.37 113.351 341.668 113.351 341.668 113.93C341.668 114.387 341.475 114.896 341.212 115.563C340.352 117.863 340.352 118.442 340.352 118.863C340.352 120.531 341.545 120.917 342.423 120.917C342.932 120.917 343.564 120.759 344.179 120.11L344.196 120.127C343.933 121.163 343.757 121.848 343.143 122.708Z" fill="black"/>
<path d="M351.487 115.803C351.487 115.569 351.487 115.475 351.241 115.475C351.089 115.475 351.077 115.487 350.96 115.651L347.227 121.07V121.456H350.527V122.427C350.527 122.86 350.492 122.989 349.591 122.989H349.322V123.375C350.317 123.34 350.34 123.34 351.007 123.34C351.674 123.34 351.698 123.34 352.692 123.375V122.989H352.423C351.522 122.989 351.487 122.86 351.487 122.427V121.456H352.728V121.07H351.487V115.803ZM350.609 116.751V121.07H347.637L350.609 116.751Z" fill="black"/>
<path d="M282.143 139.708C281.669 140.375 280.984 140.972 280.124 140.972C279.913 140.972 279.071 140.937 278.808 140.129C278.86 140.147 278.948 140.147 278.983 140.147C279.51 140.147 279.861 139.69 279.861 139.287C279.861 138.883 279.527 138.742 279.264 138.742C278.983 138.742 278.369 138.953 278.369 139.813C278.369 140.709 279.124 141.323 280.124 141.323C281.88 141.323 283.653 139.708 284.144 137.759L285.865 130.913C285.882 130.825 285.917 130.72 285.917 130.614C285.917 130.351 285.707 130.176 285.443 130.176C285.285 130.176 284.917 130.246 284.776 130.772L283.477 135.934C283.389 136.25 283.389 136.285 283.249 136.478C282.898 136.969 282.319 137.566 281.476 137.566C280.493 137.566 280.405 136.601 280.405 136.127C280.405 135.126 280.879 133.774 281.353 132.51C281.546 132.001 281.651 131.756 281.651 131.404C281.651 130.667 281.125 130 280.265 130C278.65 130 278 132.545 278 132.686C278 132.756 278.07 132.844 278.193 132.844C278.351 132.844 278.369 132.774 278.439 132.528C278.86 131.053 279.527 130.351 280.212 130.351C280.37 130.351 280.668 130.351 280.668 130.93C280.668 131.387 280.475 131.896 280.212 132.563C279.352 134.863 279.352 135.442 279.352 135.863C279.352 137.531 280.545 137.917 281.423 137.917C281.932 137.917 282.564 137.759 283.179 137.11L283.196 137.127C282.933 138.163 282.757 138.848 282.143 139.708Z" fill="black"/>
<path d="M287.514 133.798C287.666 133.845 288.135 133.962 288.626 133.962C290.089 133.962 290.978 132.932 290.978 132.756C290.978 132.627 290.897 132.592 290.838 132.592C290.815 132.592 290.791 132.592 290.686 132.651C290.229 132.826 289.691 132.967 289.059 132.967C288.369 132.967 287.795 132.791 287.432 132.651C287.315 132.592 287.292 132.592 287.28 132.592C287.128 132.592 287.128 132.721 287.128 132.932V136.361C287.128 136.571 287.128 136.712 287.315 136.712C287.409 136.712 287.444 136.665 287.503 136.571C287.643 136.396 288.088 135.799 289.083 135.799C289.738 135.799 290.054 136.337 290.159 136.56C290.358 136.981 290.382 137.519 290.382 137.976C290.382 138.409 290.37 139.041 290.042 139.556C289.82 139.907 289.352 140.27 288.731 140.27C287.971 140.27 287.222 139.79 286.953 139.029C286.988 139.041 287.058 139.041 287.07 139.041C287.397 139.041 287.655 138.83 287.655 138.467C287.655 138.034 287.315 137.882 287.081 137.882C286.871 137.882 286.496 137.999 286.496 138.502C286.496 139.556 287.409 140.621 288.755 140.621C290.218 140.621 291.458 139.486 291.458 138.034C291.458 136.677 290.475 135.471 289.094 135.471C288.509 135.471 287.959 135.659 287.514 136.056V133.798Z" fill="black"/>
<path d="M407.143 142.708C406.669 143.375 405.984 143.972 405.124 143.972C404.913 143.972 404.071 143.937 403.808 143.129C403.86 143.147 403.948 143.147 403.983 143.147C404.51 143.147 404.861 142.69 404.861 142.287C404.861 141.883 404.527 141.742 404.264 141.742C403.983 141.742 403.369 141.953 403.369 142.813C403.369 143.709 404.124 144.323 405.124 144.323C406.88 144.323 408.653 142.708 409.144 140.759L410.865 133.913C410.882 133.825 410.917 133.72 410.917 133.614C410.917 133.351 410.707 133.176 410.443 133.176C410.285 133.176 409.917 133.246 409.776 133.772L408.477 138.934C408.389 139.25 408.389 139.285 408.249 139.478C407.898 139.969 407.319 140.566 406.476 140.566C405.493 140.566 405.405 139.601 405.405 139.127C405.405 138.126 405.879 136.774 406.353 135.51C406.546 135.001 406.651 134.756 406.651 134.404C406.651 133.667 406.125 133 405.265 133C403.65 133 403 135.545 403 135.686C403 135.756 403.07 135.844 403.193 135.844C403.351 135.844 403.369 135.774 403.439 135.528C403.86 134.053 404.527 133.351 405.212 133.351C405.37 133.351 405.668 133.351 405.668 133.93C405.668 134.387 405.475 134.896 405.212 135.563C404.352 137.863 404.352 138.442 404.352 138.863C404.352 140.531 405.545 140.917 406.423 140.917C406.932 140.917 407.564 140.759 408.179 140.11L408.196 140.127C407.933 141.163 407.757 141.848 407.143 142.708Z" fill="black"/>
<path d="M412.491 139.501C412.491 138.53 412.573 137.675 412.994 136.962C413.345 136.376 413.942 135.897 414.679 135.897C414.913 135.897 415.452 135.932 415.721 136.341C415.194 136.365 415.148 136.763 415.148 136.891C415.148 137.242 415.417 137.441 415.698 137.441C415.908 137.441 416.248 137.313 416.248 136.868C416.248 136.166 415.721 135.592 414.668 135.592C413.041 135.592 411.391 137.137 411.391 139.665C411.391 142.837 412.865 143.621 414.001 143.621C414.562 143.621 415.171 143.469 415.698 142.965C416.166 142.509 416.564 142.017 416.564 140.999C416.564 139.466 415.405 138.389 414.106 138.389C413.263 138.389 412.76 138.928 412.491 139.501ZM414.001 143.27C413.38 143.27 412.994 142.837 412.819 142.509C412.549 141.982 412.526 141.186 412.526 140.742C412.526 139.583 413.158 138.717 414.059 138.717C414.644 138.717 414.995 139.021 415.218 139.431C415.464 139.864 415.464 140.391 415.464 140.988C415.464 141.584 415.464 142.099 415.229 142.521C414.925 143.059 414.516 143.27 414.001 143.27Z" fill="black"/>
<path d="M325.143 177.708C324.669 178.375 323.984 178.972 323.124 178.972C322.913 178.972 322.071 178.937 321.808 178.129C321.86 178.147 321.948 178.147 321.983 178.147C322.51 178.147 322.861 177.69 322.861 177.287C322.861 176.883 322.527 176.742 322.264 176.742C321.983 176.742 321.369 176.953 321.369 177.813C321.369 178.709 322.124 179.323 323.124 179.323C324.88 179.323 326.653 177.708 327.144 175.759L328.865 168.913C328.882 168.825 328.917 168.72 328.917 168.614C328.917 168.351 328.707 168.176 328.443 168.176C328.285 168.176 327.917 168.246 327.776 168.772L326.477 173.934C326.389 174.25 326.389 174.285 326.249 174.478C325.898 174.969 325.319 175.566 324.476 175.566C323.493 175.566 323.405 174.601 323.405 174.127C323.405 173.126 323.879 171.774 324.353 170.51C324.546 170.001 324.651 169.756 324.651 169.404C324.651 168.667 324.125 168 323.265 168C321.65 168 321 170.545 321 170.686C321 170.756 321.07 170.844 321.193 170.844C321.351 170.844 321.369 170.774 321.439 170.528C321.86 169.053 322.527 168.351 323.212 168.351C323.37 168.351 323.668 168.351 323.668 168.93C323.668 169.387 323.475 169.896 323.212 170.563C322.352 172.863 322.352 173.442 322.352 173.863C322.352 175.531 323.545 175.917 324.423 175.917C324.932 175.917 325.564 175.759 326.179 175.11L326.196 175.127C325.933 176.163 325.757 176.848 325.143 177.708Z" fill="black"/>
<path d="M334.798 171.248C334.903 171.119 334.903 171.096 334.903 170.838H331.93C331.638 170.838 331.275 170.826 330.982 170.803C330.374 170.756 330.362 170.651 330.327 170.464H329.964L329.566 172.933H329.929C329.952 172.757 330.081 171.95 330.245 171.856C330.374 171.798 331.252 171.798 331.427 171.798H333.908L332.703 173.413C331.369 175.192 331.088 177.041 331.088 177.965C331.088 178.083 331.088 178.621 331.638 178.621C332.188 178.621 332.188 178.094 332.188 177.954V177.392C332.188 175.707 332.469 174.326 333.042 173.565L334.798 171.248Z" fill="black"/>
<path d="M378.143 181.708C377.669 182.375 376.984 182.972 376.124 182.972C375.913 182.972 375.071 182.937 374.808 182.129C374.86 182.147 374.948 182.147 374.983 182.147C375.51 182.147 375.861 181.69 375.861 181.287C375.861 180.883 375.527 180.742 375.264 180.742C374.983 180.742 374.369 180.953 374.369 181.813C374.369 182.709 375.124 183.323 376.124 183.323C377.88 183.323 379.653 181.708 380.144 179.759L381.865 172.913C381.882 172.825 381.917 172.72 381.917 172.614C381.917 172.351 381.707 172.176 381.443 172.176C381.285 172.176 380.917 172.246 380.776 172.772L379.477 177.934C379.389 178.25 379.389 178.285 379.249 178.478C378.898 178.969 378.319 179.566 377.476 179.566C376.493 179.566 376.405 178.601 376.405 178.127C376.405 177.126 376.879 175.774 377.353 174.51C377.546 174.001 377.651 173.756 377.651 173.404C377.651 172.667 377.125 172 376.265 172C374.65 172 374 174.545 374 174.686C374 174.756 374.07 174.844 374.193 174.844C374.351 174.844 374.369 174.774 374.439 174.528C374.86 173.053 375.527 172.351 376.212 172.351C376.37 172.351 376.668 172.351 376.668 172.93C376.668 173.387 376.475 173.896 376.212 174.563C375.352 176.863 375.352 177.442 375.352 177.863C375.352 179.531 376.545 179.917 377.423 179.917C377.932 179.917 378.564 179.759 379.179 179.11L379.196 179.127C378.933 180.163 378.757 180.848 378.143 181.708Z" fill="black"/>
<path d="M385.761 178.15C386.417 177.834 387.213 177.249 387.213 176.336C387.213 175.224 386.077 174.592 384.989 174.592C383.748 174.592 382.742 175.447 382.742 176.547C382.742 176.98 382.894 177.378 383.187 177.717C383.386 177.963 383.432 177.986 384.158 178.443C382.707 179.086 382.391 179.941 382.391 180.596C382.391 181.883 383.69 182.621 384.965 182.621C386.405 182.621 387.564 181.649 387.564 180.409C387.564 179.672 387.166 179.18 386.978 178.981C386.78 178.794 386.768 178.782 385.761 178.15ZM383.947 177.05C383.608 176.851 383.327 176.512 383.327 176.102C383.327 175.365 384.135 174.897 384.965 174.897C385.878 174.897 386.627 175.517 386.627 176.336C386.627 177.015 386.101 177.588 385.41 177.928L383.947 177.05ZM384.521 178.653C384.568 178.677 385.902 179.496 386.101 179.625C386.288 179.73 386.897 180.105 386.897 180.807C386.897 181.708 385.949 182.27 384.989 182.27C383.947 182.27 383.058 181.556 383.058 180.596C383.058 179.718 383.713 179.028 384.521 178.653Z" fill="black"/>
<path d="M193 119.5C193 167.192 150.775 206 98.5 206C46.2249 206 4 167.192 4 119.5C4 71.8079 46.2249 33 98.5 33C150.775 33 193 71.8079 193 119.5Z" stroke="#B33535" stroke-width="2"/>
<rect x="201" y="32" width="35" height="175" rx="4" fill="#8EA7D7"/>
<rect x="451" y="32" width="35" height="175" rx="4" fill="#8EA7D7"/>
<path d="M220.616 180.432C221.744 180.564 222.616 180.981 223.231 181.685C223.841 182.383 224.146 183.313 224.146 184.475C224.146 185.735 223.695 186.746 222.792 187.507C221.888 188.264 220.68 188.643 219.166 188.643H218.141C217.149 188.643 216.278 188.467 215.526 188.115C214.774 187.759 214.198 187.256 213.797 186.606C213.392 185.957 213.189 185.205 213.189 184.351C213.189 183.218 213.507 182.31 214.142 181.626C214.771 180.942 215.646 180.544 216.764 180.432V181.846C215.914 181.968 215.299 182.234 214.918 182.644C214.537 183.049 214.347 183.618 214.347 184.351C214.347 185.249 214.679 185.955 215.343 186.467C216.007 186.975 216.952 187.229 218.177 187.229H219.21C220.367 187.229 221.288 186.987 221.971 186.504C222.655 186.021 222.997 185.344 222.997 184.475C222.997 183.694 222.821 183.096 222.469 182.681C222.113 182.261 221.495 181.982 220.616 181.846V180.432ZM219.964 179.077C219.188 179.077 218.49 178.926 217.87 178.623C217.25 178.315 216.771 177.891 216.434 177.349C216.097 176.802 215.929 176.179 215.929 175.481C215.929 174.402 216.302 173.53 217.049 172.866C217.796 172.197 218.79 171.863 220.03 171.863H220.125C220.897 171.863 221.59 172.012 222.206 172.31C222.816 172.603 223.292 173.025 223.634 173.577C223.976 174.124 224.146 174.753 224.146 175.466C224.146 176.541 223.773 177.412 223.026 178.081C222.279 178.745 221.29 179.077 220.06 179.077H219.964ZM220.125 177.715C221.004 177.715 221.71 177.512 222.242 177.107C222.774 176.697 223.041 176.15 223.041 175.466C223.041 174.778 222.772 174.231 222.235 173.826C221.693 173.42 220.936 173.218 219.964 173.218C219.095 173.218 218.392 173.425 217.855 173.84C217.313 174.25 217.042 174.797 217.042 175.481C217.042 176.15 217.308 176.689 217.84 177.1C218.373 177.51 219.134 177.715 220.125 177.715ZM216.075 168.882L217.071 168.838C216.31 168.232 215.929 167.441 215.929 166.465C215.929 164.79 216.874 163.945 218.763 163.931H224V165.286H218.756C218.185 165.291 217.762 165.422 217.489 165.681C217.215 165.935 217.079 166.333 217.079 166.875C217.079 167.314 217.196 167.7 217.43 168.032C217.665 168.364 217.972 168.623 218.353 168.809H224V170.164H216.075V168.882ZM222.162 159.272L216.075 157.31V155.925L224 158.767V159.8L216.075 162.671V161.287L222.162 159.272ZM219.964 155.098C219.188 155.098 218.49 154.946 217.87 154.644C217.25 154.336 216.771 153.911 216.434 153.369C216.097 152.822 215.929 152.2 215.929 151.501C215.929 150.422 216.302 149.551 217.049 148.887C217.796 148.218 218.79 147.883 220.03 147.883H220.125C220.897 147.883 221.59 148.032 222.206 148.33C222.816 148.623 223.292 149.045 223.634 149.597C223.976 150.144 224.146 150.774 224.146 151.487C224.146 152.561 223.773 153.433 223.026 154.102C222.279 154.766 221.29 155.098 220.06 155.098H219.964ZM220.125 153.735C221.004 153.735 221.71 153.533 222.242 153.127C222.774 152.717 223.041 152.17 223.041 151.487C223.041 150.798 222.772 150.251 222.235 149.846C221.693 149.441 220.936 149.238 219.964 149.238C219.095 149.238 218.392 149.446 217.855 149.861C217.313 150.271 217.042 150.818 217.042 151.501C217.042 152.17 217.308 152.71 217.84 153.12C218.373 153.53 219.134 153.735 220.125 153.735ZM224 144.712V146.067H212.75V144.712H224ZM223.216 137.644C223.836 138.171 224.146 138.945 224.146 139.966C224.146 140.811 223.902 141.455 223.414 141.899C222.921 142.339 222.193 142.561 221.231 142.566H216.075V141.211H221.195C222.396 141.211 222.997 140.723 222.997 139.746C222.997 138.711 222.611 138.022 221.839 137.681H216.075V136.326H224V137.615L223.216 137.644ZM214.156 132.422H216.075V130.942H217.123V132.422H222.037C222.354 132.422 222.594 132.356 222.755 132.224C222.911 132.092 222.989 131.868 222.989 131.55C222.989 131.394 222.96 131.179 222.901 130.906H224C224.098 131.262 224.146 131.609 224.146 131.946C224.146 132.551 223.963 133.008 223.597 133.315C223.231 133.623 222.711 133.777 222.037 133.777H217.123V135.22H216.075V133.777H214.156V132.422ZM224 127.881V129.236H216.075V127.881H224ZM213.973 129.346C213.753 129.346 213.568 129.28 213.417 129.148C213.265 129.011 213.189 128.811 213.189 128.547C213.189 128.284 213.265 128.083 213.417 127.947C213.568 127.81 213.753 127.742 213.973 127.742C214.193 127.742 214.376 127.81 214.522 127.947C214.669 128.083 214.742 128.284 214.742 128.547C214.742 128.811 214.669 129.011 214.522 129.148C214.376 129.28 214.193 129.346 213.973 129.346ZM219.964 126.064C219.188 126.064 218.49 125.913 217.87 125.61C217.25 125.303 216.771 124.878 216.434 124.336C216.097 123.789 215.929 123.167 215.929 122.468C215.929 121.389 216.302 120.518 217.049 119.854C217.796 119.185 218.79 118.85 220.03 118.85H220.125C220.897 118.85 221.59 118.999 222.206 119.297C222.816 119.59 223.292 120.012 223.634 120.564C223.976 121.111 224.146 121.741 224.146 122.454C224.146 123.528 223.773 124.399 223.026 125.068C222.279 125.732 221.29 126.064 220.06 126.064H219.964ZM220.125 124.702C221.004 124.702 221.71 124.5 222.242 124.094C222.774 123.684 223.041 123.137 223.041 122.454C223.041 121.765 222.772 121.218 222.235 120.813C221.693 120.408 220.936 120.205 219.964 120.205C219.095 120.205 218.392 120.413 217.855 120.828C217.313 121.238 217.042 121.785 217.042 122.468C217.042 123.137 217.308 123.677 217.84 124.087C218.373 124.497 219.134 124.702 220.125 124.702ZM216.075 115.869L217.071 115.825C216.31 115.22 215.929 114.429 215.929 113.452C215.929 111.777 216.874 110.933 218.763 110.918H224V112.273H218.756C218.185 112.278 217.762 112.41 217.489 112.668C217.215 112.922 217.079 113.32 217.079 113.862C217.079 114.302 217.196 114.688 217.43 115.02C217.665 115.352 217.972 115.61 218.353 115.796H224V117.151H216.075V115.869ZM224 103.982C223.844 104.06 223.565 104.124 223.165 104.172C223.819 104.802 224.146 105.554 224.146 106.428C224.146 107.209 223.927 107.852 223.487 108.354C223.043 108.853 222.481 109.102 221.803 109.102C220.978 109.102 220.338 108.789 219.884 108.164C219.425 107.534 219.195 106.65 219.195 105.513V104.194H218.573C218.099 104.194 217.723 104.336 217.445 104.619C217.162 104.902 217.02 105.32 217.02 105.872C217.02 106.355 217.142 106.76 217.386 107.087C217.63 107.415 217.926 107.578 218.272 107.578V108.94C217.877 108.94 217.496 108.801 217.13 108.523C216.759 108.24 216.466 107.859 216.251 107.38C216.036 106.897 215.929 106.367 215.929 105.791C215.929 104.878 216.158 104.163 216.617 103.645C217.071 103.127 217.699 102.859 218.5 102.839H222.147C222.875 102.839 223.453 102.747 223.883 102.561H224V103.982ZM222.967 106.23C222.967 105.806 222.857 105.403 222.638 105.022C222.418 104.641 222.132 104.365 221.781 104.194H220.155V105.256C220.155 106.917 220.641 107.747 221.612 107.747C222.037 107.747 222.369 107.605 222.608 107.322C222.848 107.039 222.967 106.675 222.967 106.23ZM224 99.2432V100.598H212.75V99.2432H224ZM222.85 91.7212V86.6675H224V93.1348H213.336V91.7212H222.85ZM224 80.3833C223.844 80.4614 223.565 80.5249 223.165 80.5737C223.819 81.2036 224.146 81.9556 224.146 82.8296C224.146 83.6108 223.927 84.2529 223.487 84.7559C223.043 85.2539 222.481 85.5029 221.803 85.5029C220.978 85.5029 220.338 85.1904 219.884 84.5654C219.425 83.9355 219.195 83.0518 219.195 81.9141V80.5957H218.573C218.099 80.5957 217.723 80.7373 217.445 81.0205C217.162 81.3037 217.02 81.7212 217.02 82.2729C217.02 82.7563 217.142 83.1616 217.386 83.4888C217.63 83.8159 217.926 83.9795 218.272 83.9795V85.3418C217.877 85.3418 217.496 85.2026 217.13 84.9243C216.759 84.6411 216.466 84.2603 216.251 83.7817C216.036 83.2983 215.929 82.7686 215.929 82.1924C215.929 81.2793 216.158 80.564 216.617 80.0464C217.071 79.5288 217.699 79.2603 218.5 79.2407H222.147C222.875 79.2407 223.453 79.1479 223.883 78.9624H224V80.3833ZM222.967 82.6318C222.967 82.207 222.857 81.8042 222.638 81.4233C222.418 81.0425 222.132 80.7666 221.781 80.5957H220.155V81.6577C220.155 83.3179 220.641 84.1479 221.612 84.1479C222.037 84.1479 222.369 84.0063 222.608 83.7231C222.848 83.4399 222.967 83.0762 222.967 82.6318ZM222.015 74.6411L216.075 72.7954V71.3452L225.223 74.5312C226.542 75.0244 227.201 75.8081 227.201 76.8823L227.179 77.1387L227.083 77.644H225.985L226.014 77.2778C226.014 76.8188 225.921 76.4624 225.736 76.2085C225.55 75.9497 225.211 75.7373 224.718 75.5713L223.912 75.271L216.075 78.0981V76.6187L222.015 74.6411ZM224.146 66.9434C224.146 68.0176 223.795 68.8916 223.092 69.5654C222.384 70.2393 221.439 70.5762 220.257 70.5762H220.008C219.222 70.5762 218.521 70.4272 217.906 70.1294C217.286 69.8267 216.803 69.4067 216.456 68.8696C216.104 68.3276 215.929 67.7417 215.929 67.1118C215.929 66.0815 216.268 65.2808 216.947 64.7095C217.625 64.1382 218.597 63.8525 219.862 63.8525H220.426V69.2212C221.207 69.2017 221.839 68.9746 222.323 68.54C222.801 68.1006 223.041 67.5439 223.041 66.8701C223.041 66.3916 222.943 65.9863 222.748 65.6543C222.552 65.3223 222.293 65.0317 221.971 64.7827L222.616 63.9551C223.636 64.6191 224.146 65.6152 224.146 66.9434ZM217.042 67.1118C217.042 67.6587 217.242 68.1177 217.643 68.4888C218.038 68.8599 218.595 69.0894 219.312 69.1772V65.2075H219.21C218.521 65.2466 217.989 65.4321 217.613 65.7642C217.232 66.0962 217.042 66.5454 217.042 67.1118ZM217.291 58.4473C217.257 58.6523 217.24 58.8745 217.24 59.1138C217.24 60.0024 217.618 60.6055 218.375 60.9229H224V62.2778H216.075V60.9595L216.991 60.9375C216.283 60.4932 215.929 59.8633 215.929 59.0479C215.929 58.7842 215.963 58.584 216.031 58.4473H217.291ZM221.898 52.5806C221.532 52.5806 221.249 52.7197 221.048 52.998C220.843 53.2715 220.667 53.7524 220.521 54.4409C220.375 55.1245 220.199 55.6689 219.994 56.0742C219.789 56.4746 219.544 56.7725 219.261 56.9678C218.978 57.1582 218.641 57.2534 218.25 57.2534C217.601 57.2534 217.052 56.98 216.603 56.4331C216.153 55.8813 215.929 55.1782 215.929 54.3237C215.929 53.4253 216.161 52.6978 216.625 52.1411C217.088 51.5796 217.682 51.2988 218.404 51.2988V52.6611C218.033 52.6611 217.713 52.8198 217.445 53.1372C217.176 53.4497 217.042 53.8452 217.042 54.3237C217.042 54.8169 217.149 55.2026 217.364 55.481C217.579 55.7593 217.86 55.8984 218.207 55.8984C218.534 55.8984 218.78 55.769 218.946 55.5103C219.112 55.2515 219.271 54.7852 219.422 54.1113C219.574 53.4326 219.754 52.8833 219.964 52.4634C220.174 52.0435 220.428 51.7334 220.726 51.5332C221.019 51.3281 221.378 51.2256 221.803 51.2256C222.511 51.2256 223.08 51.5088 223.509 52.0752C223.934 52.6416 224.146 53.3765 224.146 54.2798C224.146 54.9146 224.034 55.4761 223.81 55.9644C223.585 56.4526 223.272 56.8359 222.872 57.1143C222.467 57.3877 222.03 57.5244 221.561 57.5244V56.1694C222.015 56.145 222.376 55.9644 222.645 55.6274C222.909 55.2856 223.041 54.8364 223.041 54.2798C223.041 53.7671 222.938 53.3569 222.733 53.0493C222.523 52.7368 222.245 52.5806 221.898 52.5806Z" fill="black"/>
<path d="M469.825 162.024H474V163.431H463.336V159.498C463.336 158.331 463.634 157.417 464.229 156.758C464.825 156.094 465.614 155.762 466.595 155.762C467.63 155.762 468.429 156.087 468.99 156.736C469.547 157.381 469.825 158.306 469.825 159.512V162.024ZM468.675 162.024V159.498C468.675 158.746 468.5 158.169 468.148 157.769C467.792 157.369 467.279 157.168 466.61 157.168C465.975 157.168 465.467 157.369 465.086 157.769C464.706 158.169 464.508 158.719 464.493 159.417V162.024H468.675ZM469.964 154.642C469.188 154.642 468.49 154.49 467.87 154.188C467.25 153.88 466.771 153.455 466.434 152.913C466.097 152.366 465.929 151.744 465.929 151.045C465.929 149.966 466.302 149.095 467.049 148.431C467.796 147.762 468.79 147.427 470.03 147.427H470.125C470.897 147.427 471.59 147.576 472.206 147.874C472.816 148.167 473.292 148.589 473.634 149.141C473.976 149.688 474.146 150.318 474.146 151.031C474.146 152.105 473.773 152.977 473.026 153.646C472.279 154.31 471.29 154.642 470.06 154.642H469.964ZM470.125 153.279C471.004 153.279 471.71 153.077 472.242 152.671C472.774 152.261 473.041 151.714 473.041 151.031C473.041 150.342 472.772 149.795 472.235 149.39C471.693 148.985 470.936 148.782 469.964 148.782C469.095 148.782 468.392 148.99 467.855 149.405C467.313 149.815 467.042 150.362 467.042 151.045C467.042 151.714 467.308 152.254 467.84 152.664C468.373 153.074 469.134 153.279 470.125 153.279ZM469.964 146.087C469.188 146.087 468.49 145.936 467.87 145.633C467.25 145.325 466.771 144.9 466.434 144.358C466.097 143.812 465.929 143.189 465.929 142.491C465.929 141.412 466.302 140.54 467.049 139.876C467.796 139.207 468.79 138.873 470.03 138.873H470.125C470.897 138.873 471.59 139.021 472.206 139.319C472.816 139.612 473.292 140.035 473.634 140.586C473.976 141.133 474.146 141.763 474.146 142.476C474.146 143.55 473.773 144.422 473.026 145.091C472.279 145.755 471.29 146.087 470.06 146.087H469.964ZM470.125 144.725C471.004 144.725 471.71 144.522 472.242 144.117C472.774 143.707 473.041 143.16 473.041 142.476C473.041 141.788 472.772 141.241 472.235 140.835C471.693 140.43 470.936 140.228 469.964 140.228C469.095 140.228 468.392 140.435 467.855 140.85C467.313 141.26 467.042 141.807 467.042 142.491C467.042 143.16 467.308 143.699 467.84 144.109C468.373 144.52 469.134 144.725 470.125 144.725ZM474 135.701V137.056H462.75V135.701H474ZM474 132.054V133.409H466.075V132.054H474ZM463.973 133.519C463.753 133.519 463.568 133.453 463.417 133.321C463.265 133.184 463.189 132.984 463.189 132.72C463.189 132.457 463.265 132.256 463.417 132.12C463.568 131.983 463.753 131.915 463.973 131.915C464.193 131.915 464.376 131.983 464.522 132.12C464.669 132.256 464.742 132.457 464.742 132.72C464.742 132.984 464.669 133.184 464.522 133.321C464.376 133.453 464.193 133.519 463.973 133.519ZM466.075 128.597L467.071 128.553C466.31 127.947 465.929 127.156 465.929 126.18C465.929 124.505 466.874 123.66 468.763 123.646H474V125H468.756C468.185 125.005 467.762 125.137 467.489 125.396C467.215 125.65 467.079 126.048 467.079 126.59C467.079 127.029 467.196 127.415 467.43 127.747C467.665 128.079 467.972 128.338 468.353 128.523H474V129.878H466.075V128.597ZM469.972 121.924C468.736 121.924 467.755 121.639 467.027 121.067C466.295 120.496 465.929 119.739 465.929 118.797C465.929 117.83 466.271 117.076 466.954 116.534L466.075 116.468V115.23H473.81C474.835 115.23 475.643 115.535 476.234 116.146C476.825 116.751 477.12 117.566 477.12 118.592C477.12 119.163 476.998 119.722 476.754 120.269C476.51 120.816 476.175 121.233 475.75 121.521L474.938 120.818C475.655 120.237 476.014 119.527 476.014 118.687C476.014 118.028 475.829 117.515 475.458 117.149C475.086 116.778 474.564 116.592 473.89 116.592H473.209C473.834 117.134 474.146 117.874 474.146 118.812C474.146 119.739 473.773 120.491 473.026 121.067C472.279 121.639 471.261 121.924 469.972 121.924ZM470.125 120.562C471.019 120.562 471.722 120.379 472.235 120.013C472.743 119.646 472.997 119.134 472.997 118.475C472.997 117.62 472.608 116.993 471.832 116.592H468.214C467.457 117.007 467.079 117.63 467.079 118.46C467.079 119.119 467.335 119.634 467.848 120.005C468.36 120.376 469.12 120.562 470.125 120.562ZM472.85 107.833V102.779H474V109.246H463.336V107.833H472.85ZM474 96.4946C473.844 96.5728 473.565 96.6362 473.165 96.6851C473.819 97.3149 474.146 98.0669 474.146 98.9409C474.146 99.7222 473.927 100.364 473.487 100.867C473.043 101.365 472.481 101.614 471.803 101.614C470.978 101.614 470.338 101.302 469.884 100.677C469.425 100.047 469.195 99.1631 469.195 98.0254V96.707H468.573C468.099 96.707 467.723 96.8486 467.445 97.1318C467.162 97.415 467.02 97.8325 467.02 98.3843C467.02 98.8677 467.142 99.2729 467.386 99.6001C467.63 99.9272 467.926 100.091 468.272 100.091V101.453C467.877 101.453 467.496 101.314 467.13 101.036C466.759 100.752 466.466 100.372 466.251 99.8931C466.036 99.4097 465.929 98.8799 465.929 98.3037C465.929 97.3906 466.158 96.6753 466.617 96.1577C467.071 95.6401 467.699 95.3716 468.5 95.3521H472.147C472.875 95.3521 473.453 95.2593 473.883 95.0737H474V96.4946ZM472.967 98.7432C472.967 98.3184 472.857 97.9155 472.638 97.5347C472.418 97.1538 472.132 96.8779 471.781 96.707H470.155V97.769C470.155 99.4292 470.641 100.259 471.612 100.259C472.037 100.259 472.369 100.118 472.608 99.8345C472.848 99.5513 472.967 99.1875 472.967 98.7432ZM472.015 90.7524L466.075 88.9067V87.4565L475.223 90.6426C476.542 91.1357 477.201 91.9194 477.201 92.9937L477.179 93.25L477.083 93.7554H475.985L476.014 93.3892C476.014 92.9302 475.921 92.5737 475.736 92.3198C475.55 92.061 475.211 91.8486 474.718 91.6826L473.912 91.3823L466.075 94.2095V92.73L472.015 90.7524ZM474.146 83.0547C474.146 84.1289 473.795 85.0029 473.092 85.6768C472.384 86.3506 471.439 86.6875 470.257 86.6875H470.008C469.222 86.6875 468.521 86.5386 467.906 86.2407C467.286 85.938 466.803 85.5181 466.456 84.981C466.104 84.439 465.929 83.853 465.929 83.2231C465.929 82.1929 466.268 81.3921 466.947 80.8208C467.625 80.2495 468.597 79.9639 469.862 79.9639H470.426V85.3325C471.207 85.313 471.839 85.0859 472.323 84.6514C472.801 84.2119 473.041 83.6553 473.041 82.9814C473.041 82.5029 472.943 82.0977 472.748 81.7656C472.552 81.4336 472.293 81.1431 471.971 80.894L472.616 80.0664C473.636 80.7305 474.146 81.7266 474.146 83.0547ZM467.042 83.2231C467.042 83.77 467.242 84.229 467.643 84.6001C468.038 84.9712 468.595 85.2007 469.312 85.2886V81.3188H469.21C468.521 81.3579 467.989 81.5435 467.613 81.8755C467.232 82.2075 467.042 82.6567 467.042 83.2231ZM467.291 74.5586C467.257 74.7637 467.24 74.9858 467.24 75.2251C467.24 76.1138 467.618 76.7168 468.375 77.0342H474V78.3892H466.075V77.0708L466.991 77.0488C466.283 76.6045 465.929 75.9746 465.929 75.1592C465.929 74.8955 465.963 74.6953 466.031 74.5586H467.291Z" fill="black"/>
</svg>
