<svg width="554" height="207" viewBox="0 0 554 207" fill="none" xmlns="http://www.w3.org/2000/svg">
<g clip-path="url(#clip0)">
<rect width="554" height="207" fill="white"/>
<path d="M479.382 11.2168H474.914L473.911 14H472.46L476.533 3.33594H477.763L481.843 14H480.4L479.382 11.2168ZM475.339 10.0596H478.964L477.148 5.07178L475.339 10.0596ZM482.744 9.97168C482.744 8.73633 483.029 7.75488 483.601 7.02734C484.172 6.29492 484.929 5.92871 485.871 5.92871C486.838 5.92871 487.592 6.27051 488.134 6.9541L488.2 6.0752H489.438V13.8096C489.438 14.835 489.133 15.6431 488.522 16.2339C487.917 16.8247 487.102 17.1201 486.076 17.1201C485.505 17.1201 484.946 16.998 484.399 16.7539C483.852 16.5098 483.435 16.1753 483.146 15.7505L483.85 14.9375C484.431 15.6553 485.141 16.0142 485.981 16.0142C486.64 16.0142 487.153 15.8286 487.519 15.4575C487.89 15.0864 488.076 14.564 488.076 13.8901V13.209C487.534 13.834 486.794 14.1465 485.856 14.1465C484.929 14.1465 484.177 13.7729 483.601 13.0259C483.029 12.2788 482.744 11.2607 482.744 9.97168ZM484.106 10.1255C484.106 11.019 484.289 11.7222 484.655 12.2349C485.021 12.7427 485.534 12.9966 486.193 12.9966C487.048 12.9966 487.675 12.6084 488.076 11.832V8.21387C487.661 7.45703 487.038 7.07861 486.208 7.07861C485.549 7.07861 485.034 7.33496 484.663 7.84766C484.292 8.36035 484.106 9.11963 484.106 10.1255ZM491.167 9.97168C491.167 8.73633 491.452 7.75488 492.023 7.02734C492.595 6.29492 493.352 5.92871 494.294 5.92871C495.261 5.92871 496.015 6.27051 496.557 6.9541L496.623 6.0752H497.861V13.8096C497.861 14.835 497.556 15.6431 496.945 16.2339C496.34 16.8247 495.524 17.1201 494.499 17.1201C493.928 17.1201 493.369 16.998 492.822 16.7539C492.275 16.5098 491.857 16.1753 491.569 15.7505L492.272 14.9375C492.854 15.6553 493.564 16.0142 494.404 16.0142C495.063 16.0142 495.576 15.8286 495.942 15.4575C496.313 15.0864 496.499 14.564 496.499 13.8901V13.209C495.957 13.834 495.217 14.1465 494.279 14.1465C493.352 14.1465 492.6 13.7729 492.023 13.0259C491.452 12.2788 491.167 11.2607 491.167 9.97168ZM492.529 10.1255C492.529 11.019 492.712 11.7222 493.078 12.2349C493.444 12.7427 493.957 12.9966 494.616 12.9966C495.471 12.9966 496.098 12.6084 496.499 11.832V8.21387C496.083 7.45703 495.461 7.07861 494.631 7.07861C493.972 7.07861 493.457 7.33496 493.085 7.84766C492.714 8.36035 492.529 9.11963 492.529 10.1255ZM503.742 7.29102C503.537 7.25684 503.315 7.23975 503.076 7.23975C502.187 7.23975 501.584 7.61816 501.267 8.375V14H499.912V6.0752H501.23L501.252 6.99072C501.696 6.28271 502.326 5.92871 503.142 5.92871C503.405 5.92871 503.605 5.96289 503.742 6.03125V7.29102ZM508.137 14.1465C507.062 14.1465 506.188 13.7949 505.515 13.0918C504.841 12.3838 504.504 11.439 504.504 10.2573V10.0083C504.504 9.22217 504.653 8.52148 504.951 7.90625C505.253 7.28613 505.673 6.80273 506.21 6.45605C506.752 6.10449 507.338 5.92871 507.968 5.92871C508.999 5.92871 509.799 6.26807 510.371 6.94678C510.942 7.62549 511.228 8.59717 511.228 9.86182V10.4258H505.859C505.878 11.207 506.105 11.8394 506.54 12.3228C506.979 12.8013 507.536 13.0405 508.21 13.0405C508.688 13.0405 509.094 12.9429 509.426 12.7476C509.758 12.5522 510.048 12.2935 510.297 11.9712L511.125 12.6157C510.461 13.6362 509.465 14.1465 508.137 14.1465ZM507.968 7.04199C507.421 7.04199 506.962 7.24219 506.591 7.64258C506.22 8.03809 505.991 8.59473 505.903 9.3125H509.873V9.20996C509.833 8.52148 509.648 7.98926 509.316 7.61328C508.984 7.23242 508.535 7.04199 507.968 7.04199ZM512.48 9.97168C512.48 8.73633 512.766 7.75488 513.337 7.02734C513.908 6.29492 514.665 5.92871 515.607 5.92871C516.574 5.92871 517.329 6.27051 517.871 6.9541L517.937 6.0752H519.174V13.8096C519.174 14.835 518.869 15.6431 518.259 16.2339C517.653 16.8247 516.838 17.1201 515.812 17.1201C515.241 17.1201 514.682 16.998 514.135 16.7539C513.588 16.5098 513.171 16.1753 512.883 15.7505L513.586 14.9375C514.167 15.6553 514.877 16.0142 515.717 16.0142C516.376 16.0142 516.889 15.8286 517.255 15.4575C517.626 15.0864 517.812 14.564 517.812 13.8901V13.209C517.27 13.834 516.53 14.1465 515.593 14.1465C514.665 14.1465 513.913 13.7729 513.337 13.0259C512.766 12.2788 512.48 11.2607 512.48 9.97168ZM513.842 10.1255C513.842 11.019 514.025 11.7222 514.392 12.2349C514.758 12.7427 515.271 12.9966 515.93 12.9966C516.784 12.9966 517.412 12.6084 517.812 11.832V8.21387C517.397 7.45703 516.774 7.07861 515.944 7.07861C515.285 7.07861 514.77 7.33496 514.399 7.84766C514.028 8.36035 513.842 9.11963 513.842 10.1255ZM526.118 14C526.04 13.8438 525.976 13.5654 525.927 13.165C525.297 13.8193 524.545 14.1465 523.671 14.1465C522.89 14.1465 522.248 13.9268 521.745 13.4873C521.247 13.043 520.998 12.4814 520.998 11.8027C520.998 10.9775 521.311 10.3379 521.936 9.88379C522.565 9.4248 523.449 9.19531 524.587 9.19531H525.905V8.57275C525.905 8.09912 525.764 7.72314 525.48 7.44482C525.197 7.16162 524.78 7.02002 524.228 7.02002C523.745 7.02002 523.339 7.14209 523.012 7.38623C522.685 7.63037 522.521 7.92578 522.521 8.27246H521.159C521.159 7.87695 521.298 7.49609 521.577 7.12988C521.86 6.75879 522.241 6.46582 522.719 6.25098C523.203 6.03613 523.732 5.92871 524.309 5.92871C525.222 5.92871 525.937 6.1582 526.455 6.61719C526.972 7.07129 527.241 7.69873 527.26 8.49951V12.147C527.26 12.8745 527.353 13.4531 527.539 13.8828V14H526.118ZM523.869 12.9673C524.294 12.9673 524.697 12.8574 525.078 12.6377C525.458 12.418 525.734 12.1323 525.905 11.7808V10.1548H524.843C523.183 10.1548 522.353 10.6406 522.353 11.6123C522.353 12.0371 522.495 12.3691 522.778 12.6084C523.061 12.8477 523.425 12.9673 523.869 12.9673ZM531.223 4.15625V6.0752H532.702V7.12256H531.223V12.0371C531.223 12.3545 531.289 12.5938 531.42 12.7549C531.552 12.9111 531.777 12.9893 532.094 12.9893C532.25 12.9893 532.465 12.96 532.739 12.9014V14C532.382 14.0977 532.036 14.1465 531.699 14.1465C531.093 14.1465 530.637 13.9634 530.329 13.5972C530.021 13.231 529.868 12.7109 529.868 12.0371V7.12256H528.425V6.0752H529.868V4.15625H531.223ZM535.764 14H534.409V6.0752H535.764V14ZM534.299 3.97314C534.299 3.75342 534.365 3.56787 534.497 3.4165C534.633 3.26514 534.833 3.18945 535.097 3.18945C535.361 3.18945 535.561 3.26514 535.698 3.4165C535.834 3.56787 535.903 3.75342 535.903 3.97314C535.903 4.19287 535.834 4.37598 535.698 4.52246C535.561 4.66895 535.361 4.74219 535.097 4.74219C534.833 4.74219 534.633 4.66895 534.497 4.52246C534.365 4.37598 534.299 4.19287 534.299 3.97314ZM537.58 9.96436C537.58 9.18799 537.731 8.48975 538.034 7.86963C538.342 7.24951 538.767 6.771 539.309 6.43408C539.855 6.09717 540.478 5.92871 541.176 5.92871C542.255 5.92871 543.127 6.30225 543.791 7.04932C544.46 7.79639 544.794 8.79004 544.794 10.0303V10.1255C544.794 10.897 544.646 11.5903 544.348 12.2056C544.055 12.8159 543.632 13.292 543.081 13.6338C542.534 13.9756 541.904 14.1465 541.191 14.1465C540.117 14.1465 539.245 13.7729 538.576 13.0259C537.912 12.2788 537.58 11.29 537.58 10.0596V9.96436ZM538.942 10.1255C538.942 11.0044 539.145 11.71 539.55 12.2422C539.96 12.7744 540.507 13.0405 541.191 13.0405C541.879 13.0405 542.426 12.772 542.832 12.2349C543.237 11.6929 543.439 10.936 543.439 9.96436C543.439 9.09521 543.232 8.39209 542.817 7.85498C542.407 7.31299 541.86 7.04199 541.176 7.04199C540.507 7.04199 539.968 7.30811 539.558 7.84033C539.147 8.37256 538.942 9.13428 538.942 10.1255ZM547.775 6.0752L547.819 7.07129C548.425 6.30957 549.216 5.92871 550.192 5.92871C551.867 5.92871 552.712 6.87354 552.727 8.76318V14H551.372V8.75586C551.367 8.18457 551.235 7.76221 550.976 7.48877C550.722 7.21533 550.324 7.07861 549.782 7.07861C549.343 7.07861 548.957 7.1958 548.625 7.43018C548.293 7.66455 548.034 7.97217 547.849 8.35303V14H546.494V6.0752H547.775Z" fill="black"/>
<path d="M284.693 14V3.33594H287.704C288.631 3.33594 289.452 3.54102 290.165 3.95117C290.877 4.36133 291.427 4.94482 291.812 5.70166C292.203 6.4585 292.401 7.32764 292.406 8.30908V8.99023C292.406 9.99609 292.21 10.8774 291.82 11.6343C291.434 12.3911 290.88 12.9722 290.157 13.3774C289.439 13.7827 288.602 13.9902 287.645 14H284.693ZM286.1 4.49316V12.8501H287.579C288.663 12.8501 289.505 12.5132 290.106 11.8394C290.711 11.1655 291.014 10.2061 291.014 8.96094V8.33838C291.014 7.12744 290.729 6.1875 290.157 5.51855C289.591 4.84473 288.785 4.50293 287.74 4.49316H286.1ZM295.797 14H294.442V6.0752H295.797V14ZM294.332 3.97314C294.332 3.75342 294.398 3.56787 294.53 3.4165C294.667 3.26514 294.867 3.18945 295.13 3.18945C295.394 3.18945 295.594 3.26514 295.731 3.4165C295.868 3.56787 295.936 3.75342 295.936 3.97314C295.936 4.19287 295.868 4.37598 295.731 4.52246C295.594 4.66895 295.394 4.74219 295.13 4.74219C294.867 4.74219 294.667 4.66895 294.53 4.52246C294.398 4.37598 294.332 4.19287 294.332 3.97314ZM302.586 11.8979C302.586 11.5317 302.447 11.2485 302.169 11.0483C301.896 10.8433 301.415 10.6675 300.726 10.521C300.042 10.3745 299.498 10.1987 299.093 9.99365C298.692 9.78857 298.395 9.54443 298.199 9.26123C298.009 8.97803 297.914 8.64111 297.914 8.25049C297.914 7.60107 298.187 7.05176 298.734 6.60254C299.286 6.15332 299.989 5.92871 300.843 5.92871C301.742 5.92871 302.469 6.16064 303.026 6.62451C303.587 7.08838 303.868 7.68164 303.868 8.4043H302.506C302.506 8.0332 302.347 7.71338 302.03 7.44482C301.717 7.17627 301.322 7.04199 300.843 7.04199C300.35 7.04199 299.964 7.14941 299.686 7.36426C299.408 7.5791 299.269 7.85986 299.269 8.20654C299.269 8.53369 299.398 8.78027 299.657 8.94629C299.916 9.1123 300.382 9.271 301.056 9.42236C301.734 9.57373 302.284 9.75439 302.704 9.96436C303.124 10.1743 303.434 10.4282 303.634 10.7261C303.839 11.019 303.941 11.3779 303.941 11.8027C303.941 12.5107 303.658 13.0796 303.092 13.5093C302.525 13.9341 301.791 14.1465 300.887 14.1465C300.252 14.1465 299.691 14.0342 299.203 13.8096C298.714 13.585 298.331 13.2725 298.053 12.8721C297.779 12.4668 297.643 12.0298 297.643 11.561H298.998C299.022 12.0151 299.203 12.3765 299.54 12.645C299.881 12.9087 300.331 13.0405 300.887 13.0405C301.4 13.0405 301.81 12.938 302.118 12.7329C302.43 12.5229 302.586 12.2446 302.586 11.8979ZM310.599 14C310.521 13.8438 310.458 13.5654 310.409 13.165C309.779 13.8193 309.027 14.1465 308.153 14.1465C307.372 14.1465 306.729 13.9268 306.227 13.4873C305.729 13.043 305.479 12.4814 305.479 11.8027C305.479 10.9775 305.792 10.3379 306.417 9.88379C307.047 9.4248 307.931 9.19531 309.068 9.19531H310.387V8.57275C310.387 8.09912 310.245 7.72314 309.962 7.44482C309.679 7.16162 309.261 7.02002 308.709 7.02002C308.226 7.02002 307.821 7.14209 307.494 7.38623C307.167 7.63037 307.003 7.92578 307.003 8.27246H305.641C305.641 7.87695 305.78 7.49609 306.058 7.12988C306.341 6.75879 306.722 6.46582 307.201 6.25098C307.684 6.03613 308.214 5.92871 308.79 5.92871C309.703 5.92871 310.418 6.1582 310.936 6.61719C311.454 7.07129 311.722 7.69873 311.742 8.49951V12.147C311.742 12.8745 311.834 13.4531 312.02 13.8828V14H310.599ZM308.351 12.9673C308.775 12.9673 309.178 12.8574 309.559 12.6377C309.94 12.418 310.216 12.1323 310.387 11.7808V10.1548H309.325C307.665 10.1548 306.834 10.6406 306.834 11.6123C306.834 12.0371 306.976 12.3691 307.259 12.6084C307.542 12.8477 307.906 12.9673 308.351 12.9673ZM313.543 9.97168C313.543 8.73633 313.829 7.75488 314.4 7.02734C314.972 6.29492 315.729 5.92871 316.671 5.92871C317.638 5.92871 318.392 6.27051 318.934 6.9541L319 6.0752H320.238V13.8096C320.238 14.835 319.933 15.6431 319.322 16.2339C318.717 16.8247 317.901 17.1201 316.876 17.1201C316.305 17.1201 315.746 16.998 315.199 16.7539C314.652 16.5098 314.234 16.1753 313.946 15.7505L314.649 14.9375C315.23 15.6553 315.941 16.0142 316.781 16.0142C317.44 16.0142 317.953 15.8286 318.319 15.4575C318.69 15.0864 318.875 14.564 318.875 13.8901V13.209C318.333 13.834 317.594 14.1465 316.656 14.1465C315.729 14.1465 314.977 13.7729 314.4 13.0259C313.829 12.2788 313.543 11.2607 313.543 9.97168ZM314.906 10.1255C314.906 11.019 315.089 11.7222 315.455 12.2349C315.821 12.7427 316.334 12.9966 316.993 12.9966C317.848 12.9966 318.475 12.6084 318.875 11.832V8.21387C318.46 7.45703 317.838 7.07861 317.008 7.07861C316.349 7.07861 315.833 7.33496 315.462 7.84766C315.091 8.36035 314.906 9.11963 314.906 10.1255ZM321.966 9.97168C321.966 8.73633 322.252 7.75488 322.823 7.02734C323.395 6.29492 324.151 5.92871 325.094 5.92871C326.061 5.92871 326.815 6.27051 327.357 6.9541L327.423 6.0752H328.661V13.8096C328.661 14.835 328.355 15.6431 327.745 16.2339C327.14 16.8247 326.324 17.1201 325.299 17.1201C324.728 17.1201 324.168 16.998 323.622 16.7539C323.075 16.5098 322.657 16.1753 322.369 15.7505L323.072 14.9375C323.653 15.6553 324.364 16.0142 325.204 16.0142C325.863 16.0142 326.375 15.8286 326.742 15.4575C327.113 15.0864 327.298 14.564 327.298 13.8901V13.209C326.756 13.834 326.017 14.1465 325.079 14.1465C324.151 14.1465 323.399 13.7729 322.823 13.0259C322.252 12.2788 321.966 11.2607 321.966 9.97168ZM323.329 10.1255C323.329 11.019 323.512 11.7222 323.878 12.2349C324.244 12.7427 324.757 12.9966 325.416 12.9966C326.271 12.9966 326.898 12.6084 327.298 11.832V8.21387C326.883 7.45703 326.261 7.07861 325.431 7.07861C324.771 7.07861 324.256 7.33496 323.885 7.84766C323.514 8.36035 323.329 9.11963 323.329 10.1255ZM334.542 7.29102C334.337 7.25684 334.115 7.23975 333.875 7.23975C332.987 7.23975 332.384 7.61816 332.066 8.375V14H330.711V6.0752H332.03L332.052 6.99072C332.496 6.28271 333.126 5.92871 333.941 5.92871C334.205 5.92871 334.405 5.96289 334.542 6.03125V7.29102ZM338.937 14.1465C337.862 14.1465 336.988 13.7949 336.314 13.0918C335.641 12.3838 335.304 11.439 335.304 10.2573V10.0083C335.304 9.22217 335.453 8.52148 335.75 7.90625C336.053 7.28613 336.473 6.80273 337.01 6.45605C337.552 6.10449 338.138 5.92871 338.768 5.92871C339.798 5.92871 340.599 6.26807 341.17 6.94678C341.742 7.62549 342.027 8.59717 342.027 9.86182V10.4258H336.659C336.678 11.207 336.905 11.8394 337.34 12.3228C337.779 12.8013 338.336 13.0405 339.01 13.0405C339.488 13.0405 339.894 12.9429 340.226 12.7476C340.558 12.5522 340.848 12.2935 341.097 11.9712L341.925 12.6157C341.261 13.6362 340.265 14.1465 338.937 14.1465ZM338.768 7.04199C338.221 7.04199 337.762 7.24219 337.391 7.64258C337.02 8.03809 336.791 8.59473 336.703 9.3125H340.672V9.20996C340.633 8.52148 340.448 7.98926 340.116 7.61328C339.784 7.23242 339.334 7.04199 338.768 7.04199ZM343.28 9.97168C343.28 8.73633 343.565 7.75488 344.137 7.02734C344.708 6.29492 345.465 5.92871 346.407 5.92871C347.374 5.92871 348.128 6.27051 348.67 6.9541L348.736 6.0752H349.974V13.8096C349.974 14.835 349.669 15.6431 349.059 16.2339C348.453 16.8247 347.638 17.1201 346.612 17.1201C346.041 17.1201 345.482 16.998 344.935 16.7539C344.388 16.5098 343.971 16.1753 343.683 15.7505L344.386 14.9375C344.967 15.6553 345.677 16.0142 346.517 16.0142C347.176 16.0142 347.689 15.8286 348.055 15.4575C348.426 15.0864 348.612 14.564 348.612 13.8901V13.209C348.07 13.834 347.33 14.1465 346.393 14.1465C345.465 14.1465 344.713 13.7729 344.137 13.0259C343.565 12.2788 343.28 11.2607 343.28 9.97168ZM344.642 10.1255C344.642 11.019 344.825 11.7222 345.191 12.2349C345.558 12.7427 346.07 12.9966 346.729 12.9966C347.584 12.9966 348.211 12.6084 348.612 11.832V8.21387C348.197 7.45703 347.574 7.07861 346.744 7.07861C346.085 7.07861 345.57 7.33496 345.199 7.84766C344.828 8.36035 344.642 9.11963 344.642 10.1255ZM356.917 14C356.839 13.8438 356.776 13.5654 356.727 13.165C356.097 13.8193 355.345 14.1465 354.471 14.1465C353.69 14.1465 353.048 13.9268 352.545 13.4873C352.047 13.043 351.798 12.4814 351.798 11.8027C351.798 10.9775 352.11 10.3379 352.735 9.88379C353.365 9.4248 354.249 9.19531 355.387 9.19531H356.705V8.57275C356.705 8.09912 356.563 7.72314 356.28 7.44482C355.997 7.16162 355.58 7.02002 355.028 7.02002C354.544 7.02002 354.139 7.14209 353.812 7.38623C353.485 7.63037 353.321 7.92578 353.321 8.27246H351.959C351.959 7.87695 352.098 7.49609 352.376 7.12988C352.66 6.75879 353.041 6.46582 353.519 6.25098C354.002 6.03613 354.532 5.92871 355.108 5.92871C356.021 5.92871 356.737 6.1582 357.254 6.61719C357.772 7.07129 358.041 7.69873 358.06 8.49951V12.147C358.06 12.8745 358.153 13.4531 358.338 13.8828V14H356.917ZM354.669 12.9673C355.094 12.9673 355.497 12.8574 355.877 12.6377C356.258 12.418 356.534 12.1323 356.705 11.7808V10.1548H355.643C353.983 10.1548 353.153 10.6406 353.153 11.6123C353.153 12.0371 353.294 12.3691 353.578 12.6084C353.861 12.8477 354.225 12.9673 354.669 12.9673ZM362.022 4.15625V6.0752H363.502V7.12256H362.022V12.0371C362.022 12.3545 362.088 12.5938 362.22 12.7549C362.352 12.9111 362.577 12.9893 362.894 12.9893C363.05 12.9893 363.265 12.96 363.539 12.9014V14C363.182 14.0977 362.835 14.1465 362.499 14.1465C361.893 14.1465 361.437 13.9634 361.129 13.5972C360.821 13.231 360.667 12.7109 360.667 12.0371V7.12256H359.225V6.0752H360.667V4.15625H362.022ZM366.563 14H365.208V6.0752H366.563V14ZM365.099 3.97314C365.099 3.75342 365.165 3.56787 365.296 3.4165C365.433 3.26514 365.633 3.18945 365.897 3.18945C366.161 3.18945 366.361 3.26514 366.498 3.4165C366.634 3.56787 366.703 3.75342 366.703 3.97314C366.703 4.19287 366.634 4.37598 366.498 4.52246C366.361 4.66895 366.161 4.74219 365.897 4.74219C365.633 4.74219 365.433 4.66895 365.296 4.52246C365.165 4.37598 365.099 4.19287 365.099 3.97314ZM368.38 9.96436C368.38 9.18799 368.531 8.48975 368.834 7.86963C369.142 7.24951 369.566 6.771 370.108 6.43408C370.655 6.09717 371.278 5.92871 371.976 5.92871C373.055 5.92871 373.927 6.30225 374.591 7.04932C375.26 7.79639 375.594 8.79004 375.594 10.0303V10.1255C375.594 10.897 375.445 11.5903 375.147 12.2056C374.854 12.8159 374.432 13.292 373.88 13.6338C373.333 13.9756 372.704 14.1465 371.991 14.1465C370.917 14.1465 370.045 13.7729 369.376 13.0259C368.712 12.2788 368.38 11.29 368.38 10.0596V9.96436ZM369.742 10.1255C369.742 11.0044 369.945 11.71 370.35 12.2422C370.76 12.7744 371.307 13.0405 371.991 13.0405C372.679 13.0405 373.226 12.772 373.631 12.2349C374.037 11.6929 374.239 10.936 374.239 9.96436C374.239 9.09521 374.032 8.39209 373.617 7.85498C373.207 7.31299 372.66 7.04199 371.976 7.04199C371.307 7.04199 370.768 7.30811 370.357 7.84033C369.947 8.37256 369.742 9.13428 369.742 10.1255ZM378.575 6.0752L378.619 7.07129C379.225 6.30957 380.016 5.92871 380.992 5.92871C382.667 5.92871 383.512 6.87354 383.526 8.76318V14H382.171V8.75586C382.167 8.18457 382.035 7.76221 381.776 7.48877C381.522 7.21533 381.124 7.07861 380.582 7.07861C380.143 7.07861 379.757 7.1958 379.425 7.43018C379.093 7.66455 378.834 7.97217 378.648 8.35303V14H377.293V6.0752H378.575Z" fill="black"/>
<path d="M64.686 14V3.33594H67.6963C68.624 3.33594 69.4443 3.54102 70.1572 3.95117C70.8701 4.36133 71.4194 4.94482 71.8052 5.70166C72.1958 6.4585 72.3936 7.32764 72.3984 8.30908V8.99023C72.3984 9.99609 72.2031 10.8774 71.8125 11.6343C71.4268 12.3911 70.8726 12.9722 70.1499 13.3774C69.4321 13.7827 68.5947 13.9902 67.6377 14H64.686ZM66.0923 4.49316V12.8501H67.5718C68.6558 12.8501 69.498 12.5132 70.0986 11.8394C70.7041 11.1655 71.0068 10.2061 71.0068 8.96094V8.33838C71.0068 7.12744 70.7212 6.1875 70.1499 5.51855C69.5835 4.84473 68.7778 4.50293 67.7329 4.49316H66.0923ZM77.606 14.1465C76.5317 14.1465 75.6577 13.7949 74.9839 13.0918C74.3101 12.3838 73.9731 11.439 73.9731 10.2573V10.0083C73.9731 9.22217 74.1221 8.52148 74.4199 7.90625C74.7227 7.28613 75.1426 6.80273 75.6797 6.45605C76.2217 6.10449 76.8076 5.92871 77.4375 5.92871C78.4678 5.92871 79.2686 6.26807 79.8398 6.94678C80.4111 7.62549 80.6968 8.59717 80.6968 9.86182V10.4258H75.3281C75.3477 11.207 75.5747 11.8394 76.0093 12.3228C76.4487 12.8013 77.0054 13.0405 77.6792 13.0405C78.1577 13.0405 78.563 12.9429 78.895 12.7476C79.2271 12.5522 79.5176 12.2935 79.7666 11.9712L80.5942 12.6157C79.9302 13.6362 78.9341 14.1465 77.606 14.1465ZM77.4375 7.04199C76.8906 7.04199 76.4316 7.24219 76.0605 7.64258C75.6895 8.03809 75.46 8.59473 75.3721 9.3125H79.3418V9.20996C79.3027 8.52148 79.1172 7.98926 78.7852 7.61328C78.4531 7.23242 78.0039 7.04199 77.4375 7.04199ZM85.4502 13.0405C85.9336 13.0405 86.356 12.894 86.7173 12.6011C87.0786 12.3081 87.2788 11.9419 87.3179 11.5024H88.5996C88.5752 11.9565 88.4189 12.3887 88.1309 12.7988C87.8428 13.209 87.457 13.5361 86.9736 13.7803C86.4951 14.0244 85.9873 14.1465 85.4502 14.1465C84.3711 14.1465 83.5117 13.7876 82.8721 13.0698C82.2373 12.3472 81.9199 11.3608 81.9199 10.1108V9.88379C81.9199 9.1123 82.0615 8.42627 82.3447 7.82568C82.6279 7.2251 83.0332 6.75879 83.5605 6.42676C84.0928 6.09473 84.7202 5.92871 85.4429 5.92871C86.3315 5.92871 87.0688 6.19482 87.6548 6.72705C88.2456 7.25928 88.5605 7.9502 88.5996 8.7998H87.3179C87.2788 8.28711 87.0835 7.86719 86.7319 7.54004C86.3853 7.20801 85.9556 7.04199 85.4429 7.04199C84.7544 7.04199 84.2197 7.29102 83.8389 7.78906C83.4629 8.28223 83.2749 8.99756 83.2749 9.93506V10.1914C83.2749 11.1045 83.4629 11.8076 83.8389 12.3008C84.2148 12.7939 84.752 13.0405 85.4502 13.0405ZM89.7642 9.96436C89.7642 9.18799 89.9155 8.48975 90.2183 7.86963C90.5259 7.24951 90.9507 6.771 91.4927 6.43408C92.0396 6.09717 92.6621 5.92871 93.3604 5.92871C94.4395 5.92871 95.311 6.30225 95.9751 7.04932C96.644 7.79639 96.9785 8.79004 96.9785 10.0303V10.1255C96.9785 10.897 96.8296 11.5903 96.5317 12.2056C96.2388 12.8159 95.8164 13.292 95.2646 13.6338C94.7178 13.9756 94.0879 14.1465 93.375 14.1465C92.3008 14.1465 91.4292 13.7729 90.7603 13.0259C90.0962 12.2788 89.7642 11.29 89.7642 10.0596V9.96436ZM91.1265 10.1255C91.1265 11.0044 91.3291 11.71 91.7344 12.2422C92.1445 12.7744 92.6914 13.0405 93.375 13.0405C94.0635 13.0405 94.6104 12.772 95.0156 12.2349C95.4209 11.6929 95.6235 10.936 95.6235 9.96436C95.6235 9.09521 95.416 8.39209 95.001 7.85498C94.5908 7.31299 94.0439 7.04199 93.3604 7.04199C92.6914 7.04199 92.1519 7.30811 91.7417 7.84033C91.3315 8.37256 91.1265 9.13428 91.1265 10.1255ZM99.9521 6.0752L99.9888 6.9541C100.57 6.27051 101.354 5.92871 102.34 5.92871C103.448 5.92871 104.203 6.35352 104.603 7.20312C104.867 6.82227 105.208 6.51465 105.628 6.28027C106.053 6.0459 106.554 5.92871 107.13 5.92871C108.868 5.92871 109.752 6.84912 109.781 8.68994V14H108.426V8.77051C108.426 8.2041 108.297 7.78174 108.038 7.50342C107.779 7.22021 107.345 7.07861 106.734 7.07861C106.231 7.07861 105.814 7.22998 105.482 7.53271C105.15 7.83057 104.957 8.2334 104.903 8.74121V14H103.541V8.80713C103.541 7.65479 102.977 7.07861 101.849 7.07861C100.96 7.07861 100.353 7.45703 100.025 8.21387V14H98.6704V6.0752H99.9521ZM118.526 10.1255C118.526 11.3315 118.25 12.3032 117.699 13.0405C117.147 13.7778 116.4 14.1465 115.458 14.1465C114.496 14.1465 113.739 13.8413 113.187 13.231V17.0469H111.832V6.0752H113.07L113.136 6.9541C113.688 6.27051 114.454 5.92871 115.436 5.92871C116.388 5.92871 117.14 6.2876 117.691 7.00537C118.248 7.72314 118.526 8.72168 118.526 10.001V10.1255ZM117.171 9.97168C117.171 9.07812 116.981 8.37256 116.6 7.85498C116.219 7.3374 115.697 7.07861 115.033 7.07861C114.212 7.07861 113.597 7.44238 113.187 8.16992V11.9565C113.592 12.6792 114.212 13.0405 115.047 13.0405C115.697 13.0405 116.212 12.7842 116.593 12.2715C116.979 11.7539 117.171 10.9873 117.171 9.97168ZM119.896 9.96436C119.896 9.18799 120.047 8.48975 120.35 7.86963C120.658 7.24951 121.083 6.771 121.625 6.43408C122.171 6.09717 122.794 5.92871 123.492 5.92871C124.571 5.92871 125.443 6.30225 126.107 7.04932C126.776 7.79639 127.11 8.79004 127.11 10.0303V10.1255C127.11 10.897 126.961 11.5903 126.664 12.2056C126.371 12.8159 125.948 13.292 125.396 13.6338C124.85 13.9756 124.22 14.1465 123.507 14.1465C122.433 14.1465 121.561 13.7729 120.892 13.0259C120.228 12.2788 119.896 11.29 119.896 10.0596V9.96436ZM121.258 10.1255C121.258 11.0044 121.461 11.71 121.866 12.2422C122.276 12.7744 122.823 13.0405 123.507 13.0405C124.195 13.0405 124.742 12.772 125.147 12.2349C125.553 11.6929 125.755 10.936 125.755 9.96436C125.755 9.09521 125.548 8.39209 125.133 7.85498C124.723 7.31299 124.176 7.04199 123.492 7.04199C122.823 7.04199 122.284 7.30811 121.874 7.84033C121.463 8.37256 121.258 9.13428 121.258 10.1255ZM133.424 11.8979C133.424 11.5317 133.285 11.2485 133.006 11.0483C132.733 10.8433 132.252 10.6675 131.563 10.521C130.88 10.3745 130.335 10.1987 129.93 9.99365C129.53 9.78857 129.232 9.54443 129.037 9.26123C128.846 8.97803 128.751 8.64111 128.751 8.25049C128.751 7.60107 129.024 7.05176 129.571 6.60254C130.123 6.15332 130.826 5.92871 131.681 5.92871C132.579 5.92871 133.307 6.16064 133.863 6.62451C134.425 7.08838 134.706 7.68164 134.706 8.4043H133.343C133.343 8.0332 133.185 7.71338 132.867 7.44482C132.555 7.17627 132.159 7.04199 131.681 7.04199C131.188 7.04199 130.802 7.14941 130.523 7.36426C130.245 7.5791 130.106 7.85986 130.106 8.20654C130.106 8.53369 130.235 8.78027 130.494 8.94629C130.753 9.1123 131.219 9.271 131.893 9.42236C132.572 9.57373 133.121 9.75439 133.541 9.96436C133.961 10.1743 134.271 10.4282 134.471 10.7261C134.676 11.019 134.779 11.3779 134.779 11.8027C134.779 12.5107 134.496 13.0796 133.929 13.5093C133.363 13.9341 132.628 14.1465 131.725 14.1465C131.09 14.1465 130.528 14.0342 130.04 13.8096C129.552 13.585 129.168 13.2725 128.89 12.8721C128.617 12.4668 128.48 12.0298 128.48 11.561H129.835C129.859 12.0151 130.04 12.3765 130.377 12.645C130.719 12.9087 131.168 13.0405 131.725 13.0405C132.237 13.0405 132.647 12.938 132.955 12.7329C133.268 12.5229 133.424 12.2446 133.424 11.8979ZM138.016 14H136.661V6.0752H138.016V14ZM136.551 3.97314C136.551 3.75342 136.617 3.56787 136.749 3.4165C136.886 3.26514 137.086 3.18945 137.35 3.18945C137.613 3.18945 137.813 3.26514 137.95 3.4165C138.087 3.56787 138.155 3.75342 138.155 3.97314C138.155 4.19287 138.087 4.37598 137.95 4.52246C137.813 4.66895 137.613 4.74219 137.35 4.74219C137.086 4.74219 136.886 4.66895 136.749 4.52246C136.617 4.37598 136.551 4.19287 136.551 3.97314ZM142.03 4.15625V6.0752H143.509V7.12256H142.03V12.0371C142.03 12.3545 142.096 12.5938 142.228 12.7549C142.359 12.9111 142.584 12.9893 142.901 12.9893C143.058 12.9893 143.272 12.96 143.546 12.9014V14C143.189 14.0977 142.843 14.1465 142.506 14.1465C141.9 14.1465 141.444 13.9634 141.136 13.5972C140.829 13.231 140.675 12.7109 140.675 12.0371V7.12256H139.232V6.0752H140.675V4.15625H142.03ZM146.571 14H145.216V6.0752H146.571V14ZM145.106 3.97314C145.106 3.75342 145.172 3.56787 145.304 3.4165C145.44 3.26514 145.641 3.18945 145.904 3.18945C146.168 3.18945 146.368 3.26514 146.505 3.4165C146.642 3.56787 146.71 3.75342 146.71 3.97314C146.71 4.19287 146.642 4.37598 146.505 4.52246C146.368 4.66895 146.168 4.74219 145.904 4.74219C145.641 4.74219 145.44 4.66895 145.304 4.52246C145.172 4.37598 145.106 4.19287 145.106 3.97314ZM148.387 9.96436C148.387 9.18799 148.539 8.48975 148.841 7.86963C149.149 7.24951 149.574 6.771 150.116 6.43408C150.663 6.09717 151.285 5.92871 151.983 5.92871C153.062 5.92871 153.934 6.30225 154.598 7.04932C155.267 7.79639 155.602 8.79004 155.602 10.0303V10.1255C155.602 10.897 155.453 11.5903 155.155 12.2056C154.862 12.8159 154.439 13.292 153.888 13.6338C153.341 13.9756 152.711 14.1465 151.998 14.1465C150.924 14.1465 150.052 13.7729 149.383 13.0259C148.719 12.2788 148.387 11.29 148.387 10.0596V9.96436ZM149.75 10.1255C149.75 11.0044 149.952 11.71 150.357 12.2422C150.768 12.7744 151.314 13.0405 151.998 13.0405C152.687 13.0405 153.233 12.772 153.639 12.2349C154.044 11.6929 154.247 10.936 154.247 9.96436C154.247 9.09521 154.039 8.39209 153.624 7.85498C153.214 7.31299 152.667 7.04199 151.983 7.04199C151.314 7.04199 150.775 7.30811 150.365 7.84033C149.955 8.37256 149.75 9.13428 149.75 10.1255ZM158.583 6.0752L158.626 7.07129C159.232 6.30957 160.023 5.92871 161 5.92871C162.674 5.92871 163.519 6.87354 163.534 8.76318V14H162.179V8.75586C162.174 8.18457 162.042 7.76221 161.783 7.48877C161.529 7.21533 161.131 7.07861 160.589 7.07861C160.15 7.07861 159.764 7.1958 159.432 7.43018C159.1 7.66455 158.841 7.97217 158.656 8.35303V14H157.301V6.0752H158.583Z" fill="black"/>
<path d="M496 119L486 113.226L486 124.773L496 119ZM394 120L487 120L487 118L394 118L394 120Z" fill="#355FB3"/>
<path d="M444.979 110.786C445.067 111.893 445.278 112.701 445.366 113.035C445.559 113.826 445.647 114.212 446.403 114.212C447.193 114.212 448.546 113.422 448.546 113.07C448.546 112.982 448.476 112.947 448.388 112.947C448.159 112.947 447.791 113.14 447.738 113.176C447.615 113.246 447.58 113.246 447.545 113.246C447.053 113.246 446.947 112.771 446.736 111.717C446.613 111.138 446.455 110.435 446.315 108.028C446.192 106.236 446.121 104.444 446.121 102.652C446.121 102.23 446.139 101.773 446.139 101.351C446.139 101.07 446.139 101 445.946 101C445.7 101 444.979 101.299 444.663 101.773L444.54 101.966C443.152 104.936 441.852 107.061 440.938 108.485C439.902 110.083 438.075 112.947 437.126 112.947C436.476 112.947 435.931 112.526 435.773 111.893C435.755 111.858 435.72 111.752 435.65 111.752C435.387 111.752 435 112.596 435 113.088C435 113.791 435.755 114.564 436.581 114.564C437.794 114.564 439.814 111.401 440.201 110.786H444.979ZM444.628 103.161V104.18C444.628 105.199 444.663 106.218 444.716 107.237C444.733 107.589 444.804 108.906 444.892 109.82H441.676C441.395 109.82 441.132 109.82 440.675 110.101C441.905 108.203 442.924 106.376 443.029 106.183C443.908 104.619 444.382 103.6 444.61 103.161H444.628Z" fill="#355FB3"/>
<path d="M208 119.5C208 167.192 165.775 206 113.5 206C61.2249 206 19 167.192 19 119.5C19 71.8079 61.2249 33 113.5 33C165.775 33 208 71.8079 208 119.5Z" stroke="#B33535" stroke-width="2"/>
<path d="M393 119.5C393 143.485 386.276 165.156 375.457 180.803C364.636 196.454 349.785 206 333.5 206C317.215 206 302.364 196.454 291.543 180.803C280.724 165.156 274 143.485 274 119.5C274 95.5149 280.724 73.8441 291.543 58.1969C302.364 42.5457 317.215 33 333.5 33C349.785 33 364.636 42.5457 375.457 58.1969C386.276 73.8441 393 95.5149 393 119.5Z" stroke="#355FB3" stroke-width="2"/>
<path d="M244.94 50.306C245.291 50.306 245.432 50.306 245.432 49.9722C245.432 49.7965 245.291 49.7965 244.975 49.7965H243.552C243.886 47.9869 244.132 46.7394 244.272 46.1772C244.378 45.7555 244.747 45.3514 245.204 45.3514C245.573 45.3514 245.942 45.5095 246.117 45.6677C245.432 45.7379 245.221 46.2475 245.221 46.5461C245.221 46.8975 245.485 47.1084 245.819 47.1084C246.17 47.1084 246.697 46.8097 246.697 46.142C246.697 45.4041 245.959 45 245.186 45C244.431 45 243.693 45.5622 243.341 46.2475C243.025 46.8624 242.849 47.4949 242.445 49.7965H241.268C240.934 49.7965 240.758 49.7965 240.758 50.1128C240.758 50.306 240.864 50.306 241.215 50.306H242.34C242.023 51.94 241.303 55.9108 240.899 57.7907C240.6 59.3193 240.337 60.6019 239.458 60.6019C239.406 60.6019 238.896 60.6019 238.58 60.2681C239.476 60.1978 239.476 59.4247 239.476 59.4072C239.476 59.0558 239.212 58.8449 238.878 58.8449C238.527 58.8449 238 59.1436 238 59.8113C238 60.5668 238.773 60.9533 239.458 60.9533C241.25 60.9533 241.988 57.738 242.182 56.8596C242.498 55.5067 243.359 50.8331 243.447 50.306H244.94Z" fill="#355FB3"/>
<path d="M244.94 127.306C245.291 127.306 245.432 127.306 245.432 126.972C245.432 126.797 245.291 126.797 244.975 126.797H243.552C243.886 124.987 244.132 123.739 244.272 123.177C244.378 122.755 244.747 122.351 245.204 122.351C245.573 122.351 245.942 122.51 246.117 122.668C245.432 122.738 245.221 123.247 245.221 123.546C245.221 123.898 245.485 124.108 245.819 124.108C246.17 124.108 246.697 123.81 246.697 123.142C246.697 122.404 245.959 122 245.186 122C244.431 122 243.693 122.562 243.341 123.247C243.025 123.862 242.849 124.495 242.445 126.797H241.268C240.934 126.797 240.758 126.797 240.758 127.113C240.758 127.306 240.864 127.306 241.215 127.306H242.34C242.023 128.94 241.303 132.911 240.899 134.791C240.6 136.319 240.337 137.602 239.458 137.602C239.406 137.602 238.896 137.602 238.58 137.268C239.476 137.198 239.476 136.425 239.476 136.407C239.476 136.056 239.212 135.845 238.878 135.845C238.527 135.845 238 136.144 238 136.811C238 137.567 238.773 137.953 239.458 137.953C241.25 137.953 241.988 134.738 242.182 133.86C242.498 132.507 243.359 127.833 243.447 127.306H244.94Z" fill="#355FB3"/>
<path d="M9.816 121.67C9.816 121.396 9.56488 121.396 9.33661 121.396C8.97137 121.396 8.94853 121.419 8.8344 121.693C8.6746 122.127 8.05825 123.656 5.95809 123.656C2.73935 123.656 2.73935 120.186 2.73935 119.159C2.73935 117.812 2.76217 114.822 5.75263 114.822C5.91242 114.822 7.25927 114.867 7.25927 114.982C7.25927 115.004 7.23643 115.027 7.19078 115.05C7.12231 115.119 6.82554 115.461 6.82554 116.032C6.82554 116.99 7.60169 117.379 8.17239 117.379C8.65178 117.379 9.51923 117.082 9.51923 116.009C9.51923 114.137 6.89403 114 5.66132 114C1.59796 114 0 116.648 0 119.273C0 122.378 2.16866 124.478 5.52436 124.478C9.10833 124.478 9.816 121.83 9.816 121.67Z" fill="#B33535"/>
<ellipse cx="333.5" cy="150" rx="23.5" ry="15" fill="#8EA7D7"/>
<ellipse cx="333.5" cy="86" rx="23.5" ry="15" fill="#8EA7D7"/>
<ellipse cx="519.5" cy="119" rx="23.5" ry="15" fill="#8EA7D7"/>
<path d="M108.717 87.0854C111.397 82.4444 116.349 79.5854 121.708 79.5854L157.558 79.5854C162.917 79.5854 167.869 82.4444 170.548 87.0854L188.473 118.133C191.153 122.774 191.153 128.492 188.473 133.133L170.548 164.18C167.869 168.821 162.917 171.68 157.558 171.68L121.708 171.68C116.349 171.68 111.397 168.821 108.717 164.18L90.792 133.133C88.1125 128.492 88.1125 122.774 90.792 118.133L108.717 87.0854Z" fill="#355FB3" fill-opacity="0.5"/>
<path d="M58.5905 136.465C52.9582 136.385 47.8456 133.156 45.3528 128.105L31.8557 100.756C25.1531 87.1743 40.511 73.3476 53.3163 81.4348L97.3085 109.218C110.114 117.305 104.229 137.114 89.0855 136.899L58.5905 136.465Z" fill="#355FB3" fill-opacity="0.5"/>
<path d="M310 80L301.422 72.2706L299.017 83.5645L310 80ZM67.5 105.5C68.2463 106.166 68.2462 106.166 68.2462 106.166C68.2463 106.166 68.2464 106.166 68.2467 106.165C68.2474 106.164 68.2485 106.163 68.2502 106.161C68.2535 106.158 68.2588 106.152 68.2661 106.144C68.2807 106.128 68.3033 106.103 68.3339 106.069C68.3951 106.002 68.4883 105.902 68.6132 105.769C68.863 105.504 69.2398 105.111 69.742 104.608C70.7464 103.601 72.2521 102.154 74.2464 100.399C78.2354 96.8906 84.1765 92.1587 91.9678 87.2853C107.55 77.5384 130.521 67.2323 160.075 64.9972L159.925 63.0029C129.979 65.2676 106.7 75.7116 90.9072 85.5897C83.011 90.5288 76.9834 95.3282 72.9255 98.8976C70.8964 100.682 69.3591 102.16 68.3264 103.195C67.8101 103.712 67.4198 104.119 67.1571 104.398C67.0258 104.537 66.9264 104.645 66.8591 104.718C66.8255 104.755 66.7998 104.783 66.7823 104.803C66.7735 104.812 66.7667 104.82 66.762 104.825C66.7596 104.828 66.7577 104.83 66.7563 104.832C66.7556 104.832 66.755 104.833 66.7547 104.833C66.7541 104.834 66.7537 104.834 67.5 105.5ZM160.075 64.9972C208.223 61.3558 276.831 74.1482 300.998 79.1058L301.4 77.1466C277.259 72.1945 208.389 59.3375 159.925 63.0029L160.075 64.9972Z" fill="#355FB3"/>
<path d="M310 150L300.568 143.338L299.515 154.837L310 150ZM178.909 138.996L300.946 150.175L301.129 148.183L179.091 137.004L178.909 138.996Z" fill="#355FB3"/>
<path fill-rule="evenodd" clip-rule="evenodd" d="M118.435 162L118.921 161.142L119.407 160.285L159.595 160.285L160.081 161.142L160.567 162L118.435 162Z" fill="#B33535"/>
<path fill-rule="evenodd" clip-rule="evenodd" d="M155.789 154.594L123.204 154.594L123.204 152.879L155.789 152.879L155.789 154.594Z" fill="#B33535"/>
<path fill-rule="evenodd" clip-rule="evenodd" d="M160.569 162L160.083 161.142L159.597 160.285L179.663 125.499L180.663 125.499L181.663 125.499L160.569 162Z" fill="#B33535"/>
<path fill-rule="evenodd" clip-rule="evenodd" d="M181.663 125.505L180.663 125.505L179.663 125.505L159.597 90.7194L160.083 89.8619L160.569 89.0044L181.663 125.505Z" fill="#B33535"/>
<path fill-rule="evenodd" clip-rule="evenodd" d="M156.537 96.8329L172.858 125.073L171.373 125.931L155.052 97.691L156.537 96.8329Z" fill="#B33535"/>
<path fill-rule="evenodd" clip-rule="evenodd" d="M160.567 89.0001L160.081 89.8576L159.595 90.7151L119.407 90.7151L118.921 89.8576L118.435 89.0001L160.567 89.0001Z" fill="#B33535"/>
<path fill-rule="evenodd" clip-rule="evenodd" d="M118.439 89.0044L118.925 89.8619L119.411 90.7194L99.3456 125.505L98.3452 125.505L97.8593 124.648L118.439 89.0044Z" fill="#B33535"/>
<path fill-rule="evenodd" clip-rule="evenodd" d="M106.149 125.073L122.47 96.8329L123.955 97.691L107.633 125.931L106.149 125.073Z" fill="#B33535"/>
<path fill-rule="evenodd" clip-rule="evenodd" d="M97.8594 126.357L98.3453 125.499L99.3457 125.499L119.411 160.285L118.925 161.142L118.439 162L97.8594 126.357Z" fill="#B33535"/>
<path fill-rule="evenodd" clip-rule="evenodd" d="M97.8568 124.643L98.3427 125.5L97.8568 126.358L56.8397 126.358L57.3256 125.5L57.8115 124.643L97.8568 124.643Z" fill="#B33535"/>
<path fill-rule="evenodd" clip-rule="evenodd" d="M57.8091 124.643L57.3232 125.5L56.8373 126.358L36 90.2853L36.7432 89.8566L37.4863 89.4278L57.8091 124.643Z" fill="#B33535"/>
<path d="M328.093 151.418H329.572V152.524H328.093V155H326.73V152.524H321.875V151.726L326.65 144.336H328.093V151.418ZM323.413 151.418H326.73V146.189L326.569 146.482L323.413 151.418ZM331.206 155.916H330.041L334.494 144.336H335.651L331.206 155.916ZM342.294 144.329V145.479H342.045C340.991 145.498 340.151 145.811 339.526 146.416C338.901 147.021 338.54 147.874 338.442 148.972C339.003 148.328 339.77 148.005 340.742 148.005C341.669 148.005 342.409 148.333 342.961 148.987C343.518 149.641 343.796 150.486 343.796 151.521C343.796 152.62 343.496 153.499 342.895 154.158C342.299 154.817 341.499 155.146 340.493 155.146C339.472 155.146 338.645 154.756 338.01 153.975C337.375 153.188 337.058 152.178 337.058 150.942V150.422C337.058 148.459 337.475 146.96 338.31 145.925C339.15 144.885 340.397 144.353 342.053 144.329H342.294ZM340.515 149.133C340.051 149.133 339.624 149.272 339.233 149.551C338.842 149.829 338.571 150.178 338.42 150.598V151.096C338.42 151.975 338.618 152.683 339.013 153.22C339.409 153.757 339.902 154.026 340.493 154.026C341.103 154.026 341.582 153.801 341.928 153.352C342.28 152.903 342.456 152.314 342.456 151.587C342.456 150.854 342.277 150.264 341.921 149.814C341.569 149.36 341.101 149.133 340.515 149.133Z" fill="black"/>
<path d="M324.343 85.0088H325.361C326 84.999 326.503 84.8306 326.87 84.5034C327.236 84.1763 327.419 83.7344 327.419 83.1777C327.419 81.9277 326.796 81.3027 325.551 81.3027C324.965 81.3027 324.497 81.4712 324.145 81.8081C323.798 82.1401 323.625 82.582 323.625 83.1338H322.27C322.27 82.2891 322.578 81.5884 323.193 81.0317C323.813 80.4702 324.599 80.1895 325.551 80.1895C326.557 80.1895 327.346 80.4556 327.917 80.9878C328.488 81.52 328.774 82.2598 328.774 83.207C328.774 83.6709 328.623 84.1201 328.32 84.5547C328.022 84.9893 327.614 85.314 327.097 85.5288C327.683 85.7144 328.134 86.022 328.452 86.4517C328.774 86.8813 328.935 87.4062 328.935 88.0264C328.935 88.9834 328.623 89.7427 327.998 90.3042C327.373 90.8657 326.56 91.1465 325.559 91.1465C324.558 91.1465 323.742 90.8755 323.112 90.3335C322.487 89.7915 322.175 89.0762 322.175 88.1875H323.537C323.537 88.749 323.72 89.1982 324.086 89.5352C324.453 89.8721 324.943 90.0405 325.559 90.0405C326.213 90.0405 326.713 89.8696 327.06 89.5278C327.407 89.186 327.58 88.6953 327.58 88.0557C327.58 87.4355 327.39 86.9595 327.009 86.6274C326.628 86.2954 326.079 86.1245 325.361 86.1147H324.343V85.0088ZM331.206 91.9155H330.041L334.494 80.3359H335.651L331.206 91.9155ZM342.294 80.3286V81.4785H342.045C340.991 81.498 340.151 81.8105 339.526 82.416C338.901 83.0215 338.54 83.8735 338.442 84.9722C339.003 84.3276 339.77 84.0054 340.742 84.0054C341.669 84.0054 342.409 84.3325 342.961 84.9868C343.518 85.6411 343.796 86.4858 343.796 87.521C343.796 88.6196 343.496 89.4985 342.895 90.1577C342.299 90.8169 341.499 91.1465 340.493 91.1465C339.472 91.1465 338.645 90.7559 338.01 89.9746C337.375 89.1885 337.058 88.1777 337.058 86.9424V86.4224C337.058 84.4595 337.475 82.9604 338.31 81.9253C339.15 80.8853 340.397 80.353 342.053 80.3286H342.294ZM340.515 85.1333C340.051 85.1333 339.624 85.2725 339.233 85.5508C338.842 85.8291 338.571 86.1782 338.42 86.5981V87.0962C338.42 87.9751 338.618 88.6831 339.013 89.2202C339.409 89.7573 339.902 90.0259 340.493 90.0259C341.103 90.0259 341.582 89.8013 341.928 89.3521C342.28 88.9028 342.456 88.3145 342.456 87.5869C342.456 86.8545 342.277 86.2637 341.921 85.8145C341.569 85.3604 341.101 85.1333 340.515 85.1333Z" fill="black"/>
<path d="M511.343 118.009H512.361C513 117.999 513.503 117.831 513.87 117.503C514.236 117.176 514.419 116.734 514.419 116.178C514.419 114.928 513.796 114.303 512.551 114.303C511.965 114.303 511.497 114.471 511.145 114.808C510.798 115.14 510.625 115.582 510.625 116.134H509.27C509.27 115.289 509.578 114.588 510.193 114.032C510.813 113.47 511.599 113.189 512.551 113.189C513.557 113.189 514.346 113.456 514.917 113.988C515.488 114.52 515.774 115.26 515.774 116.207C515.774 116.671 515.623 117.12 515.32 117.555C515.022 117.989 514.614 118.314 514.097 118.529C514.683 118.714 515.134 119.022 515.452 119.452C515.774 119.881 515.935 120.406 515.935 121.026C515.935 121.983 515.623 122.743 514.998 123.304C514.373 123.866 513.56 124.146 512.559 124.146C511.558 124.146 510.742 123.875 510.112 123.333C509.487 122.792 509.175 122.076 509.175 121.188H510.537C510.537 121.749 510.72 122.198 511.086 122.535C511.453 122.872 511.943 123.041 512.559 123.041C513.213 123.041 513.713 122.87 514.06 122.528C514.407 122.186 514.58 121.695 514.58 121.056C514.58 120.436 514.39 119.959 514.009 119.627C513.628 119.295 513.079 119.125 512.361 119.115H511.343V118.009ZM518.206 124.916H517.041L521.494 113.336H522.651L518.206 124.916ZM529.294 113.329V114.479H529.045C527.991 114.498 527.151 114.811 526.526 115.416C525.901 116.021 525.54 116.874 525.442 117.972C526.003 117.328 526.77 117.005 527.742 117.005C528.669 117.005 529.409 117.333 529.961 117.987C530.518 118.641 530.796 119.486 530.796 120.521C530.796 121.62 530.496 122.499 529.895 123.158C529.299 123.817 528.499 124.146 527.493 124.146C526.472 124.146 525.645 123.756 525.01 122.975C524.375 122.188 524.058 121.178 524.058 119.942V119.422C524.058 117.459 524.475 115.96 525.31 114.925C526.15 113.885 527.397 113.353 529.053 113.329H529.294ZM527.515 118.133C527.051 118.133 526.624 118.272 526.233 118.551C525.842 118.829 525.571 119.178 525.42 119.598V120.096C525.42 120.975 525.618 121.683 526.013 122.22C526.409 122.757 526.902 123.026 527.493 123.026C528.103 123.026 528.582 122.801 528.928 122.352C529.28 121.903 529.456 121.314 529.456 120.587C529.456 119.854 529.277 119.264 528.921 118.814C528.569 118.36 528.101 118.133 527.515 118.133Z" fill="black"/>
<path d="M523.714 65H516.857V67.2857H523.714V65Z" fill="#355FB3"/>
<path d="M528.064 75.7998L524.857 74.1461V70.714H527.143V68.458H513.429V70.714H515.714V74.1461L512.507 75.7998C511.025 76.5552 510 78.0787 510 79.857V94.7143C510 95.9771 511.023 97 512.286 97H528.286C529.549 97 530.572 95.9771 530.572 94.7143V79.857C530.572 78.0787 529.546 76.5552 528.064 75.7998ZM517.751 84.9999C517.449 85.257 517.184 85.5507 516.971 85.8867L516.494 85.409C516.353 85.5382 516.169 85.6182 515.965 85.6182C515.533 85.6182 515.178 85.265 515.178 84.8319C515.178 84.3987 515.531 84.0456 515.965 84.0456C515.994 84.0456 516.022 84.0513 516.05 84.0547C516.086 83.6982 516.385 83.417 516.75 83.417C517.138 83.417 517.457 83.7347 517.457 84.1244C517.457 84.2867 517.4 84.4353 517.306 84.5553L517.751 84.9999ZM516.75 93.4765C516.317 93.4765 515.963 93.1234 515.963 92.6902C515.963 92.6605 515.969 92.6331 515.973 92.6045C515.617 92.5691 515.335 92.2697 515.335 91.9039C515.335 91.5154 515.654 91.1965 516.042 91.1965C516.205 91.1965 516.353 91.2536 516.472 91.3474L517.022 90.7976L517.534 91.1451V91.9519L517.327 92.1611C517.456 92.3017 517.536 92.4857 517.536 92.6902C517.536 93.1222 517.183 93.4765 516.75 93.4765ZM522.248 91.9039H521.464V91.1176H520.678V91.9039H519.893V91.1176H519.106V91.9039H518.32V90.7256C516.96 89.8182 517.142 90.2445 517.142 87.9759C517.142 86.2399 518.549 84.833 520.285 84.833C522.021 84.833 523.428 86.2399 523.428 87.9759C523.428 90.1976 523.641 89.7976 522.248 90.7256V91.9039ZM524.599 92.6045C524.602 92.6331 524.608 92.6605 524.608 92.6902C524.608 93.1222 524.255 93.4765 523.822 93.4765C523.389 93.4765 523.036 93.1234 523.036 92.6902C523.036 92.4868 523.117 92.3017 523.245 92.1611L523.036 91.9519V91.1451L523.548 90.7976L524.097 91.3474C524.217 91.2548 524.365 91.1965 524.528 91.1965C524.917 91.1965 525.236 91.5142 525.236 91.9039C525.236 92.2697 524.954 92.5691 524.599 92.6045ZM524.607 85.6182C524.404 85.6182 524.218 85.537 524.078 85.409L523.6 85.8867C523.388 85.5507 523.122 85.257 522.821 84.9999L523.264 84.5564C523.172 84.4364 523.113 84.289 523.113 84.1256C523.113 83.737 523.431 83.4181 523.821 83.4181C524.185 83.4181 524.485 83.6993 524.521 84.0559C524.55 84.0524 524.577 84.0467 524.607 84.0467C525.039 84.0467 525.393 84.3999 525.393 84.833C525.393 85.2662 525.039 85.6182 524.607 85.6182ZM528.286 81.0376H512.286V79.857C512.286 79.0067 512.769 78.2318 513.554 77.8307L518 75.5404V70.7437H522.572V75.5404L527.025 77.8352C527.804 78.2318 528.286 79.0067 528.286 79.857V81.0376Z" fill="#355FB3"/>
<path d="M518.714 89.5488C519.149 89.5488 519.501 89.1968 519.501 88.7626C519.501 88.3283 519.149 87.9763 518.714 87.9763C518.28 87.9763 517.928 88.3283 517.928 88.7626C517.928 89.1968 518.28 89.5488 518.714 89.5488Z" fill="#355FB3"/>
<path d="M520.286 89.5474C520.069 89.5474 519.893 89.8994 519.893 90.3337H520.679C520.679 89.8994 520.503 89.5474 520.286 89.5474Z" fill="#355FB3"/>
<path d="M521.857 89.5488C522.292 89.5488 522.644 89.1968 522.644 88.7626C522.644 88.3283 522.292 87.9763 521.857 87.9763C521.423 87.9763 521.071 88.3283 521.071 88.7626C521.071 89.1968 521.423 89.5488 521.857 89.5488Z" fill="#355FB3"/>
</g>
<defs>
<clipPath id="clip0">
<rect width="554" height="207" fill="white"/>
</clipPath>
</defs>
</svg>
