<svg width="554" height="207" viewBox="0 0 554 207" fill="none" xmlns="http://www.w3.org/2000/svg">
<rect width="554" height="207" fill="white"/>
<path d="M479.382 11.2168H474.914L473.911 14H472.46L476.533 3.33594H477.763L481.843 14H480.4L479.382 11.2168ZM475.339 10.0596H478.964L477.148 5.07178L475.339 10.0596ZM482.744 9.97168C482.744 8.73633 483.029 7.75488 483.601 7.02734C484.172 6.29492 484.929 5.92871 485.871 5.92871C486.838 5.92871 487.592 6.27051 488.134 6.9541L488.2 6.0752H489.438V13.8096C489.438 14.835 489.133 15.6431 488.522 16.2339C487.917 16.8247 487.102 17.1201 486.076 17.1201C485.505 17.1201 484.946 16.998 484.399 16.7539C483.852 16.5098 483.435 16.1753 483.146 15.7505L483.85 14.9375C484.431 15.6553 485.141 16.0142 485.981 16.0142C486.64 16.0142 487.153 15.8286 487.519 15.4575C487.89 15.0864 488.076 14.564 488.076 13.8901V13.209C487.534 13.834 486.794 14.1465 485.856 14.1465C484.929 14.1465 484.177 13.7729 483.601 13.0259C483.029 12.2788 482.744 11.2607 482.744 9.97168ZM484.106 10.1255C484.106 11.019 484.289 11.7222 484.655 12.2349C485.021 12.7427 485.534 12.9966 486.193 12.9966C487.048 12.9966 487.675 12.6084 488.076 11.832V8.21387C487.661 7.45703 487.038 7.07861 486.208 7.07861C485.549 7.07861 485.034 7.33496 484.663 7.84766C484.292 8.36035 484.106 9.11963 484.106 10.1255ZM491.167 9.97168C491.167 8.73633 491.452 7.75488 492.023 7.02734C492.595 6.29492 493.352 5.92871 494.294 5.92871C495.261 5.92871 496.015 6.27051 496.557 6.9541L496.623 6.0752H497.861V13.8096C497.861 14.835 497.556 15.6431 496.945 16.2339C496.34 16.8247 495.524 17.1201 494.499 17.1201C493.928 17.1201 493.369 16.998 492.822 16.7539C492.275 16.5098 491.857 16.1753 491.569 15.7505L492.272 14.9375C492.854 15.6553 493.564 16.0142 494.404 16.0142C495.063 16.0142 495.576 15.8286 495.942 15.4575C496.313 15.0864 496.499 14.564 496.499 13.8901V13.209C495.957 13.834 495.217 14.1465 494.279 14.1465C493.352 14.1465 492.6 13.7729 492.023 13.0259C491.452 12.2788 491.167 11.2607 491.167 9.97168ZM492.529 10.1255C492.529 11.019 492.712 11.7222 493.078 12.2349C493.444 12.7427 493.957 12.9966 494.616 12.9966C495.471 12.9966 496.098 12.6084 496.499 11.832V8.21387C496.083 7.45703 495.461 7.07861 494.631 7.07861C493.972 7.07861 493.457 7.33496 493.085 7.84766C492.714 8.36035 492.529 9.11963 492.529 10.1255ZM503.742 7.29102C503.537 7.25684 503.315 7.23975 503.076 7.23975C502.187 7.23975 501.584 7.61816 501.267 8.375V14H499.912V6.0752H501.23L501.252 6.99072C501.696 6.28271 502.326 5.92871 503.142 5.92871C503.405 5.92871 503.605 5.96289 503.742 6.03125V7.29102ZM508.137 14.1465C507.062 14.1465 506.188 13.7949 505.515 13.0918C504.841 12.3838 504.504 11.439 504.504 10.2573V10.0083C504.504 9.22217 504.653 8.52148 504.951 7.90625C505.253 7.28613 505.673 6.80273 506.21 6.45605C506.752 6.10449 507.338 5.92871 507.968 5.92871C508.999 5.92871 509.799 6.26807 510.371 6.94678C510.942 7.62549 511.228 8.59717 511.228 9.86182V10.4258H505.859C505.878 11.207 506.105 11.8394 506.54 12.3228C506.979 12.8013 507.536 13.0405 508.21 13.0405C508.688 13.0405 509.094 12.9429 509.426 12.7476C509.758 12.5522 510.048 12.2935 510.297 11.9712L511.125 12.6157C510.461 13.6362 509.465 14.1465 508.137 14.1465ZM507.968 7.04199C507.421 7.04199 506.962 7.24219 506.591 7.64258C506.22 8.03809 505.991 8.59473 505.903 9.3125H509.873V9.20996C509.833 8.52148 509.648 7.98926 509.316 7.61328C508.984 7.23242 508.535 7.04199 507.968 7.04199ZM512.48 9.97168C512.48 8.73633 512.766 7.75488 513.337 7.02734C513.908 6.29492 514.665 5.92871 515.607 5.92871C516.574 5.92871 517.329 6.27051 517.871 6.9541L517.937 6.0752H519.174V13.8096C519.174 14.835 518.869 15.6431 518.259 16.2339C517.653 16.8247 516.838 17.1201 515.812 17.1201C515.241 17.1201 514.682 16.998 514.135 16.7539C513.588 16.5098 513.171 16.1753 512.883 15.7505L513.586 14.9375C514.167 15.6553 514.877 16.0142 515.717 16.0142C516.376 16.0142 516.889 15.8286 517.255 15.4575C517.626 15.0864 517.812 14.564 517.812 13.8901V13.209C517.27 13.834 516.53 14.1465 515.593 14.1465C514.665 14.1465 513.913 13.7729 513.337 13.0259C512.766 12.2788 512.48 11.2607 512.48 9.97168ZM513.842 10.1255C513.842 11.019 514.025 11.7222 514.392 12.2349C514.758 12.7427 515.271 12.9966 515.93 12.9966C516.784 12.9966 517.412 12.6084 517.812 11.832V8.21387C517.397 7.45703 516.774 7.07861 515.944 7.07861C515.285 7.07861 514.77 7.33496 514.399 7.84766C514.028 8.36035 513.842 9.11963 513.842 10.1255ZM526.118 14C526.04 13.8438 525.976 13.5654 525.927 13.165C525.297 13.8193 524.545 14.1465 523.671 14.1465C522.89 14.1465 522.248 13.9268 521.745 13.4873C521.247 13.043 520.998 12.4814 520.998 11.8027C520.998 10.9775 521.311 10.3379 521.936 9.88379C522.565 9.4248 523.449 9.19531 524.587 9.19531H525.905V8.57275C525.905 8.09912 525.764 7.72314 525.48 7.44482C525.197 7.16162 524.78 7.02002 524.228 7.02002C523.745 7.02002 523.339 7.14209 523.012 7.38623C522.685 7.63037 522.521 7.92578 522.521 8.27246H521.159C521.159 7.87695 521.298 7.49609 521.577 7.12988C521.86 6.75879 522.241 6.46582 522.719 6.25098C523.203 6.03613 523.732 5.92871 524.309 5.92871C525.222 5.92871 525.937 6.1582 526.455 6.61719C526.972 7.07129 527.241 7.69873 527.26 8.49951V12.147C527.26 12.8745 527.353 13.4531 527.539 13.8828V14H526.118ZM523.869 12.9673C524.294 12.9673 524.697 12.8574 525.078 12.6377C525.458 12.418 525.734 12.1323 525.905 11.7808V10.1548H524.843C523.183 10.1548 522.353 10.6406 522.353 11.6123C522.353 12.0371 522.495 12.3691 522.778 12.6084C523.061 12.8477 523.425 12.9673 523.869 12.9673ZM531.223 4.15625V6.0752H532.702V7.12256H531.223V12.0371C531.223 12.3545 531.289 12.5938 531.42 12.7549C531.552 12.9111 531.777 12.9893 532.094 12.9893C532.25 12.9893 532.465 12.96 532.739 12.9014V14C532.382 14.0977 532.036 14.1465 531.699 14.1465C531.093 14.1465 530.637 13.9634 530.329 13.5972C530.021 13.231 529.868 12.7109 529.868 12.0371V7.12256H528.425V6.0752H529.868V4.15625H531.223ZM535.764 14H534.409V6.0752H535.764V14ZM534.299 3.97314C534.299 3.75342 534.365 3.56787 534.497 3.4165C534.633 3.26514 534.833 3.18945 535.097 3.18945C535.361 3.18945 535.561 3.26514 535.698 3.4165C535.834 3.56787 535.903 3.75342 535.903 3.97314C535.903 4.19287 535.834 4.37598 535.698 4.52246C535.561 4.66895 535.361 4.74219 535.097 4.74219C534.833 4.74219 534.633 4.66895 534.497 4.52246C534.365 4.37598 534.299 4.19287 534.299 3.97314ZM537.58 9.96436C537.58 9.18799 537.731 8.48975 538.034 7.86963C538.342 7.24951 538.767 6.771 539.309 6.43408C539.855 6.09717 540.478 5.92871 541.176 5.92871C542.255 5.92871 543.127 6.30225 543.791 7.04932C544.46 7.79639 544.794 8.79004 544.794 10.0303V10.1255C544.794 10.897 544.646 11.5903 544.348 12.2056C544.055 12.8159 543.632 13.292 543.081 13.6338C542.534 13.9756 541.904 14.1465 541.191 14.1465C540.117 14.1465 539.245 13.7729 538.576 13.0259C537.912 12.2788 537.58 11.29 537.58 10.0596V9.96436ZM538.942 10.1255C538.942 11.0044 539.145 11.71 539.55 12.2422C539.96 12.7744 540.507 13.0405 541.191 13.0405C541.879 13.0405 542.426 12.772 542.832 12.2349C543.237 11.6929 543.439 10.936 543.439 9.96436C543.439 9.09521 543.232 8.39209 542.817 7.85498C542.407 7.31299 541.86 7.04199 541.176 7.04199C540.507 7.04199 539.968 7.30811 539.558 7.84033C539.147 8.37256 538.942 9.13428 538.942 10.1255ZM547.775 6.0752L547.819 7.07129C548.425 6.30957 549.216 5.92871 550.192 5.92871C551.867 5.92871 552.712 6.87354 552.727 8.76318V14H551.372V8.75586C551.367 8.18457 551.235 7.76221 550.976 7.48877C550.722 7.21533 550.324 7.07861 549.782 7.07861C549.343 7.07861 548.957 7.1958 548.625 7.43018C548.293 7.66455 548.034 7.97217 547.849 8.35303V14H546.494V6.0752H547.775Z" fill="black"/>
<path d="M284.693 14V3.33594H287.704C288.631 3.33594 289.452 3.54102 290.165 3.95117C290.877 4.36133 291.427 4.94482 291.812 5.70166C292.203 6.4585 292.401 7.32764 292.406 8.30908V8.99023C292.406 9.99609 292.21 10.8774 291.82 11.6343C291.434 12.3911 290.88 12.9722 290.157 13.3774C289.439 13.7827 288.602 13.9902 287.645 14H284.693ZM286.1 4.49316V12.8501H287.579C288.663 12.8501 289.505 12.5132 290.106 11.8394C290.711 11.1655 291.014 10.2061 291.014 8.96094V8.33838C291.014 7.12744 290.729 6.1875 290.157 5.51855C289.591 4.84473 288.785 4.50293 287.74 4.49316H286.1ZM295.797 14H294.442V6.0752H295.797V14ZM294.332 3.97314C294.332 3.75342 294.398 3.56787 294.53 3.4165C294.667 3.26514 294.867 3.18945 295.13 3.18945C295.394 3.18945 295.594 3.26514 295.731 3.4165C295.868 3.56787 295.936 3.75342 295.936 3.97314C295.936 4.19287 295.868 4.37598 295.731 4.52246C295.594 4.66895 295.394 4.74219 295.13 4.74219C294.867 4.74219 294.667 4.66895 294.53 4.52246C294.398 4.37598 294.332 4.19287 294.332 3.97314ZM302.586 11.8979C302.586 11.5317 302.447 11.2485 302.169 11.0483C301.896 10.8433 301.415 10.6675 300.726 10.521C300.042 10.3745 299.498 10.1987 299.093 9.99365C298.692 9.78857 298.395 9.54443 298.199 9.26123C298.009 8.97803 297.914 8.64111 297.914 8.25049C297.914 7.60107 298.187 7.05176 298.734 6.60254C299.286 6.15332 299.989 5.92871 300.843 5.92871C301.742 5.92871 302.469 6.16064 303.026 6.62451C303.587 7.08838 303.868 7.68164 303.868 8.4043H302.506C302.506 8.0332 302.347 7.71338 302.03 7.44482C301.717 7.17627 301.322 7.04199 300.843 7.04199C300.35 7.04199 299.964 7.14941 299.686 7.36426C299.408 7.5791 299.269 7.85986 299.269 8.20654C299.269 8.53369 299.398 8.78027 299.657 8.94629C299.916 9.1123 300.382 9.271 301.056 9.42236C301.734 9.57373 302.284 9.75439 302.704 9.96436C303.124 10.1743 303.434 10.4282 303.634 10.7261C303.839 11.019 303.941 11.3779 303.941 11.8027C303.941 12.5107 303.658 13.0796 303.092 13.5093C302.525 13.9341 301.791 14.1465 300.887 14.1465C300.252 14.1465 299.691 14.0342 299.203 13.8096C298.714 13.585 298.331 13.2725 298.053 12.8721C297.779 12.4668 297.643 12.0298 297.643 11.561H298.998C299.022 12.0151 299.203 12.3765 299.54 12.645C299.881 12.9087 300.331 13.0405 300.887 13.0405C301.4 13.0405 301.81 12.938 302.118 12.7329C302.43 12.5229 302.586 12.2446 302.586 11.8979ZM310.599 14C310.521 13.8438 310.458 13.5654 310.409 13.165C309.779 13.8193 309.027 14.1465 308.153 14.1465C307.372 14.1465 306.729 13.9268 306.227 13.4873C305.729 13.043 305.479 12.4814 305.479 11.8027C305.479 10.9775 305.792 10.3379 306.417 9.88379C307.047 9.4248 307.931 9.19531 309.068 9.19531H310.387V8.57275C310.387 8.09912 310.245 7.72314 309.962 7.44482C309.679 7.16162 309.261 7.02002 308.709 7.02002C308.226 7.02002 307.821 7.14209 307.494 7.38623C307.167 7.63037 307.003 7.92578 307.003 8.27246H305.641C305.641 7.87695 305.78 7.49609 306.058 7.12988C306.341 6.75879 306.722 6.46582 307.201 6.25098C307.684 6.03613 308.214 5.92871 308.79 5.92871C309.703 5.92871 310.418 6.1582 310.936 6.61719C311.454 7.07129 311.722 7.69873 311.742 8.49951V12.147C311.742 12.8745 311.834 13.4531 312.02 13.8828V14H310.599ZM308.351 12.9673C308.775 12.9673 309.178 12.8574 309.559 12.6377C309.94 12.418 310.216 12.1323 310.387 11.7808V10.1548H309.325C307.665 10.1548 306.834 10.6406 306.834 11.6123C306.834 12.0371 306.976 12.3691 307.259 12.6084C307.542 12.8477 307.906 12.9673 308.351 12.9673ZM313.543 9.97168C313.543 8.73633 313.829 7.75488 314.4 7.02734C314.972 6.29492 315.729 5.92871 316.671 5.92871C317.638 5.92871 318.392 6.27051 318.934 6.9541L319 6.0752H320.238V13.8096C320.238 14.835 319.933 15.6431 319.322 16.2339C318.717 16.8247 317.901 17.1201 316.876 17.1201C316.305 17.1201 315.746 16.998 315.199 16.7539C314.652 16.5098 314.234 16.1753 313.946 15.7505L314.649 14.9375C315.23 15.6553 315.941 16.0142 316.781 16.0142C317.44 16.0142 317.953 15.8286 318.319 15.4575C318.69 15.0864 318.875 14.564 318.875 13.8901V13.209C318.333 13.834 317.594 14.1465 316.656 14.1465C315.729 14.1465 314.977 13.7729 314.4 13.0259C313.829 12.2788 313.543 11.2607 313.543 9.97168ZM314.906 10.1255C314.906 11.019 315.089 11.7222 315.455 12.2349C315.821 12.7427 316.334 12.9966 316.993 12.9966C317.848 12.9966 318.475 12.6084 318.875 11.832V8.21387C318.46 7.45703 317.838 7.07861 317.008 7.07861C316.349 7.07861 315.833 7.33496 315.462 7.84766C315.091 8.36035 314.906 9.11963 314.906 10.1255ZM321.966 9.97168C321.966 8.73633 322.252 7.75488 322.823 7.02734C323.395 6.29492 324.151 5.92871 325.094 5.92871C326.061 5.92871 326.815 6.27051 327.357 6.9541L327.423 6.0752H328.661V13.8096C328.661 14.835 328.355 15.6431 327.745 16.2339C327.14 16.8247 326.324 17.1201 325.299 17.1201C324.728 17.1201 324.168 16.998 323.622 16.7539C323.075 16.5098 322.657 16.1753 322.369 15.7505L323.072 14.9375C323.653 15.6553 324.364 16.0142 325.204 16.0142C325.863 16.0142 326.375 15.8286 326.742 15.4575C327.113 15.0864 327.298 14.564 327.298 13.8901V13.209C326.756 13.834 326.017 14.1465 325.079 14.1465C324.151 14.1465 323.399 13.7729 322.823 13.0259C322.252 12.2788 321.966 11.2607 321.966 9.97168ZM323.329 10.1255C323.329 11.019 323.512 11.7222 323.878 12.2349C324.244 12.7427 324.757 12.9966 325.416 12.9966C326.271 12.9966 326.898 12.6084 327.298 11.832V8.21387C326.883 7.45703 326.261 7.07861 325.431 7.07861C324.771 7.07861 324.256 7.33496 323.885 7.84766C323.514 8.36035 323.329 9.11963 323.329 10.1255ZM334.542 7.29102C334.337 7.25684 334.115 7.23975 333.875 7.23975C332.987 7.23975 332.384 7.61816 332.066 8.375V14H330.711V6.0752H332.03L332.052 6.99072C332.496 6.28271 333.126 5.92871 333.941 5.92871C334.205 5.92871 334.405 5.96289 334.542 6.03125V7.29102ZM338.937 14.1465C337.862 14.1465 336.988 13.7949 336.314 13.0918C335.641 12.3838 335.304 11.439 335.304 10.2573V10.0083C335.304 9.22217 335.453 8.52148 335.75 7.90625C336.053 7.28613 336.473 6.80273 337.01 6.45605C337.552 6.10449 338.138 5.92871 338.768 5.92871C339.798 5.92871 340.599 6.26807 341.17 6.94678C341.742 7.62549 342.027 8.59717 342.027 9.86182V10.4258H336.659C336.678 11.207 336.905 11.8394 337.34 12.3228C337.779 12.8013 338.336 13.0405 339.01 13.0405C339.488 13.0405 339.894 12.9429 340.226 12.7476C340.558 12.5522 340.848 12.2935 341.097 11.9712L341.925 12.6157C341.261 13.6362 340.265 14.1465 338.937 14.1465ZM338.768 7.04199C338.221 7.04199 337.762 7.24219 337.391 7.64258C337.02 8.03809 336.791 8.59473 336.703 9.3125H340.672V9.20996C340.633 8.52148 340.448 7.98926 340.116 7.61328C339.784 7.23242 339.334 7.04199 338.768 7.04199ZM343.28 9.97168C343.28 8.73633 343.565 7.75488 344.137 7.02734C344.708 6.29492 345.465 5.92871 346.407 5.92871C347.374 5.92871 348.128 6.27051 348.67 6.9541L348.736 6.0752H349.974V13.8096C349.974 14.835 349.669 15.6431 349.059 16.2339C348.453 16.8247 347.638 17.1201 346.612 17.1201C346.041 17.1201 345.482 16.998 344.935 16.7539C344.388 16.5098 343.971 16.1753 343.683 15.7505L344.386 14.9375C344.967 15.6553 345.677 16.0142 346.517 16.0142C347.176 16.0142 347.689 15.8286 348.055 15.4575C348.426 15.0864 348.612 14.564 348.612 13.8901V13.209C348.07 13.834 347.33 14.1465 346.393 14.1465C345.465 14.1465 344.713 13.7729 344.137 13.0259C343.565 12.2788 343.28 11.2607 343.28 9.97168ZM344.642 10.1255C344.642 11.019 344.825 11.7222 345.191 12.2349C345.558 12.7427 346.07 12.9966 346.729 12.9966C347.584 12.9966 348.211 12.6084 348.612 11.832V8.21387C348.197 7.45703 347.574 7.07861 346.744 7.07861C346.085 7.07861 345.57 7.33496 345.199 7.84766C344.828 8.36035 344.642 9.11963 344.642 10.1255ZM356.917 14C356.839 13.8438 356.776 13.5654 356.727 13.165C356.097 13.8193 355.345 14.1465 354.471 14.1465C353.69 14.1465 353.048 13.9268 352.545 13.4873C352.047 13.043 351.798 12.4814 351.798 11.8027C351.798 10.9775 352.11 10.3379 352.735 9.88379C353.365 9.4248 354.249 9.19531 355.387 9.19531H356.705V8.57275C356.705 8.09912 356.563 7.72314 356.28 7.44482C355.997 7.16162 355.58 7.02002 355.028 7.02002C354.544 7.02002 354.139 7.14209 353.812 7.38623C353.485 7.63037 353.321 7.92578 353.321 8.27246H351.959C351.959 7.87695 352.098 7.49609 352.376 7.12988C352.66 6.75879 353.041 6.46582 353.519 6.25098C354.002 6.03613 354.532 5.92871 355.108 5.92871C356.021 5.92871 356.737 6.1582 357.254 6.61719C357.772 7.07129 358.041 7.69873 358.06 8.49951V12.147C358.06 12.8745 358.153 13.4531 358.338 13.8828V14H356.917ZM354.669 12.9673C355.094 12.9673 355.497 12.8574 355.877 12.6377C356.258 12.418 356.534 12.1323 356.705 11.7808V10.1548H355.643C353.983 10.1548 353.153 10.6406 353.153 11.6123C353.153 12.0371 353.294 12.3691 353.578 12.6084C353.861 12.8477 354.225 12.9673 354.669 12.9673ZM362.022 4.15625V6.0752H363.502V7.12256H362.022V12.0371C362.022 12.3545 362.088 12.5938 362.22 12.7549C362.352 12.9111 362.577 12.9893 362.894 12.9893C363.05 12.9893 363.265 12.96 363.539 12.9014V14C363.182 14.0977 362.835 14.1465 362.499 14.1465C361.893 14.1465 361.437 13.9634 361.129 13.5972C360.821 13.231 360.667 12.7109 360.667 12.0371V7.12256H359.225V6.0752H360.667V4.15625H362.022ZM366.563 14H365.208V6.0752H366.563V14ZM365.099 3.97314C365.099 3.75342 365.165 3.56787 365.296 3.4165C365.433 3.26514 365.633 3.18945 365.897 3.18945C366.161 3.18945 366.361 3.26514 366.498 3.4165C366.634 3.56787 366.703 3.75342 366.703 3.97314C366.703 4.19287 366.634 4.37598 366.498 4.52246C366.361 4.66895 366.161 4.74219 365.897 4.74219C365.633 4.74219 365.433 4.66895 365.296 4.52246C365.165 4.37598 365.099 4.19287 365.099 3.97314ZM368.38 9.96436C368.38 9.18799 368.531 8.48975 368.834 7.86963C369.142 7.24951 369.566 6.771 370.108 6.43408C370.655 6.09717 371.278 5.92871 371.976 5.92871C373.055 5.92871 373.927 6.30225 374.591 7.04932C375.26 7.79639 375.594 8.79004 375.594 10.0303V10.1255C375.594 10.897 375.445 11.5903 375.147 12.2056C374.854 12.8159 374.432 13.292 373.88 13.6338C373.333 13.9756 372.704 14.1465 371.991 14.1465C370.917 14.1465 370.045 13.7729 369.376 13.0259C368.712 12.2788 368.38 11.29 368.38 10.0596V9.96436ZM369.742 10.1255C369.742 11.0044 369.945 11.71 370.35 12.2422C370.76 12.7744 371.307 13.0405 371.991 13.0405C372.679 13.0405 373.226 12.772 373.631 12.2349C374.037 11.6929 374.239 10.936 374.239 9.96436C374.239 9.09521 374.032 8.39209 373.617 7.85498C373.207 7.31299 372.66 7.04199 371.976 7.04199C371.307 7.04199 370.768 7.30811 370.357 7.84033C369.947 8.37256 369.742 9.13428 369.742 10.1255ZM378.575 6.0752L378.619 7.07129C379.225 6.30957 380.016 5.92871 380.992 5.92871C382.667 5.92871 383.512 6.87354 383.526 8.76318V14H382.171V8.75586C382.167 8.18457 382.035 7.76221 381.776 7.48877C381.522 7.21533 381.124 7.07861 380.582 7.07861C380.143 7.07861 379.757 7.1958 379.425 7.43018C379.093 7.66455 378.834 7.97217 378.648 8.35303V14H377.293V6.0752H378.575Z" fill="black"/>
<path d="M62 82L50 139.5M50 139.5L110.5 120M50 139.5L93.5 177L110.5 120M50 139.5L122.5 55.5L163 87L176 140.5M110.5 120L176 140.5M176 140.5L147.5 179.5" stroke="#B33535" stroke-width="2"/>
<path d="M484 119L474 113.226V124.774L484 119ZM429 120H475V118H429V120Z" fill="#355FB3"/>
<path d="M455.979 110.786C456.067 111.893 456.278 112.701 456.366 113.035C456.559 113.826 456.647 114.212 457.403 114.212C458.193 114.212 459.546 113.422 459.546 113.07C459.546 112.982 459.476 112.947 459.388 112.947C459.159 112.947 458.791 113.14 458.738 113.176C458.615 113.246 458.58 113.246 458.545 113.246C458.053 113.246 457.947 112.771 457.736 111.717C457.613 111.138 457.455 110.435 457.315 108.028C457.192 106.236 457.121 104.444 457.121 102.652C457.121 102.23 457.139 101.773 457.139 101.351C457.139 101.07 457.139 101 456.946 101C456.7 101 455.979 101.299 455.663 101.773L455.54 101.966C454.152 104.936 452.852 107.061 451.938 108.485C450.902 110.083 449.075 112.947 448.126 112.947C447.476 112.947 446.931 112.526 446.773 111.893C446.755 111.858 446.72 111.752 446.65 111.752C446.387 111.752 446 112.596 446 113.088C446 113.791 446.755 114.564 447.581 114.564C448.794 114.564 450.814 111.401 451.201 110.786H455.979ZM455.628 103.161V104.18C455.628 105.199 455.663 106.218 455.716 107.237C455.733 107.589 455.804 108.906 455.892 109.82H452.676C452.395 109.82 452.132 109.82 451.675 110.101C452.905 108.203 453.924 106.376 454.029 106.183C454.908 104.619 455.382 103.6 455.61 103.161H455.628Z" fill="#355FB3"/>
<path d="M208 119.5C208 167.192 165.775 206 113.5 206C61.2249 206 19 167.192 19 119.5C19 71.8079 61.2249 33 113.5 33C165.775 33 208 71.8079 208 119.5Z" stroke="#B33535" stroke-width="2"/>
<path d="M428 119.5C428 167.192 385.775 206 333.5 206C281.225 206 239 167.192 239 119.5C239 71.8079 281.225 33 333.5 33C385.775 33 428 71.8079 428 119.5Z" stroke="#355FB3" stroke-width="2"/>
<path d="M327 56L317 50.2265V61.7735L327 56ZM137 57H318V55H137V57Z" fill="#355FB3"/>
<path d="M316 119L306 113.226V124.774L316 119ZM126 120H307V118H126V120Z" fill="#355FB3"/>
<path d="M351 178L341 172.226V183.774L351 178ZM161 179H342V177H161V179Z" fill="#355FB3"/>
<path d="M227.94 103.306C228.291 103.306 228.432 103.306 228.432 102.972C228.432 102.797 228.291 102.797 227.975 102.797H226.552C226.886 100.987 227.132 99.7394 227.272 99.1772C227.378 98.7555 227.747 98.3514 228.204 98.3514C228.573 98.3514 228.942 98.5095 229.117 98.6677C228.432 98.7379 228.221 99.2475 228.221 99.5461C228.221 99.8975 228.485 100.108 228.819 100.108C229.17 100.108 229.697 99.8097 229.697 99.142C229.697 98.4041 228.959 98 228.186 98C227.431 98 226.693 98.5622 226.341 99.2475C226.025 99.8624 225.849 100.495 225.445 102.797H224.268C223.934 102.797 223.758 102.797 223.758 103.113C223.758 103.306 223.864 103.306 224.215 103.306H225.34C225.023 104.94 224.303 108.911 223.899 110.791C223.6 112.319 223.337 113.602 222.458 113.602C222.406 113.602 221.896 113.602 221.58 113.268C222.476 113.198 222.476 112.425 222.476 112.407C222.476 112.056 222.212 111.845 221.878 111.845C221.527 111.845 221 112.144 221 112.811C221 113.567 221.773 113.953 222.458 113.953C224.25 113.953 224.988 110.738 225.182 109.86C225.498 108.507 226.359 103.833 226.447 103.306H227.94Z" fill="#355FB3"/>
<circle cx="111" cy="119" r="15" fill="#DC8989"/>
<circle cx="331" cy="119" r="15" fill="#8EA7D7"/>
<circle cx="61" cy="81" r="15" fill="#DC8989"/>
<circle cx="281" cy="81" r="15" fill="#8EA7D7"/>
<circle cx="50" cy="136" r="15" fill="#DC8989"/>
<circle cx="270" cy="136" r="15" fill="#8EA7D7"/>
<circle cx="93" cy="174" r="15" fill="#DC8989"/>
<circle cx="313" cy="174" r="15" fill="#8EA7D7"/>
<circle cx="146" cy="178" r="15" fill="#DC8989"/>
<circle cx="366" cy="178" r="15" fill="#8EA7D7"/>
<circle cx="175" cy="139" r="15" fill="#DC8989"/>
<circle cx="395" cy="139" r="15" fill="#8EA7D7"/>
<circle cx="162" cy="88" r="15" fill="#DC8989"/>
<circle cx="382" cy="88" r="15" fill="#8EA7D7"/>
<circle cx="122" cy="56" r="15" fill="#DC8989"/>
<circle cx="342" cy="56" r="15" fill="#8EA7D7"/>
<path d="M498.145 124.962C497.671 125.63 496.986 126.227 496.125 126.227C495.914 126.227 495.071 126.192 494.808 125.384C494.861 125.401 494.948 125.401 494.983 125.401C495.51 125.401 495.862 124.945 495.862 124.541C495.862 124.137 495.528 123.996 495.264 123.996C494.983 123.996 494.369 124.207 494.369 125.068C494.369 125.963 495.124 126.578 496.125 126.578C497.881 126.578 499.655 124.962 500.147 123.013L501.868 116.163C501.886 116.076 501.921 115.97 501.921 115.865C501.921 115.601 501.71 115.426 501.446 115.426C501.288 115.426 500.92 115.496 500.779 116.023L499.479 121.186C499.392 121.502 499.392 121.537 499.251 121.731C498.9 122.222 498.32 122.82 497.477 122.82C496.494 122.82 496.406 121.854 496.406 121.379C496.406 120.378 496.88 119.026 497.354 117.762C497.548 117.252 497.653 117.006 497.653 116.655C497.653 115.918 497.126 115.25 496.266 115.25C494.65 115.25 494 117.797 494 117.937C494 118.007 494.07 118.095 494.193 118.095C494.351 118.095 494.369 118.025 494.439 117.779C494.861 116.304 495.528 115.601 496.213 115.601C496.371 115.601 496.67 115.601 496.67 116.181C496.67 116.638 496.476 117.147 496.213 117.814C495.352 120.115 495.352 120.694 495.352 121.116C495.352 122.784 496.547 123.171 497.425 123.171C497.934 123.171 498.566 123.013 499.181 122.363L499.198 122.38C498.935 123.417 498.759 124.102 498.145 124.962Z" fill="black"/>
<path d="M517.012 118.956C517.311 118.956 517.627 118.956 517.627 118.605C517.627 118.253 517.311 118.253 517.012 118.253H509.565C509.776 115.9 511.796 114.214 514.272 114.214H517.012C517.311 114.214 517.627 114.214 517.627 113.863C517.627 113.511 517.311 113.511 517.012 113.511H514.237C511.234 113.511 508.845 115.795 508.845 118.605C508.845 121.415 511.234 123.698 514.237 123.698H517.012C517.311 123.698 517.627 123.698 517.627 123.346C517.627 122.995 517.311 122.995 517.012 122.995H514.272C511.796 122.995 509.776 121.309 509.565 118.956H517.012Z" fill="black"/>
<path d="M531.096 121.292C531.149 120.624 531.166 119.676 531.166 119.184C531.166 117.34 531.079 111 527.408 111C526.196 111 525.125 112.071 525.125 112.335C525.125 112.475 525.265 112.475 525.301 112.475C525.406 112.475 525.95 112.387 526.337 111.878C527.882 111.896 528.883 113.037 529.41 115.25C529.744 116.655 529.867 118.218 529.867 119.816C529.867 120.87 529.797 122.082 529.779 122.31C529.761 122.451 529.761 122.486 529.726 122.503C529.691 122.539 527.935 124.014 527.074 124.014C526.934 124.014 525.511 124.014 525.178 122.556C525.142 122.433 525.125 122.328 525.02 122.328C524.809 122.328 524.475 122.925 524.475 123.364C524.475 124.084 525.142 125.366 526.635 125.366C527.97 125.366 530.868 122.784 532.396 121.011C535.908 116.971 536.523 113.95 536.523 113.037C536.523 111.544 535.522 111 534.855 111C534.345 111 534.187 111.878 534.187 112.054C534.187 112.317 534.257 112.335 534.521 112.37C535.557 112.493 535.82 113.318 535.82 113.828C535.82 114.372 534.995 117.498 531.096 121.292Z" fill="black"/>
<path d="M9.816 121.67C9.816 121.396 9.56488 121.396 9.33661 121.396C8.97137 121.396 8.94853 121.419 8.8344 121.693C8.6746 122.127 8.05825 123.656 5.95809 123.656C2.73935 123.656 2.73935 120.186 2.73935 119.159C2.73935 117.812 2.76217 114.822 5.75263 114.822C5.91242 114.822 7.25927 114.867 7.25927 114.982C7.25927 115.004 7.23643 115.027 7.19078 115.05C7.12231 115.119 6.82554 115.461 6.82554 116.032C6.82554 116.99 7.60169 117.379 8.17239 117.379C8.65178 117.379 9.51923 117.082 9.51923 116.009C9.51923 114.137 6.89403 114 5.66132 114C1.59796 114 0 116.648 0 119.273C0 122.378 2.16866 124.478 5.52436 124.478C9.10833 124.478 9.816 121.83 9.816 121.67Z" fill="#B33535"/>
<path d="M61.8351 76.5797C61.273 76.6851 61.0622 77.1068 61.0622 77.4405C61.0622 77.8622 61.396 78.0027 61.6419 78.0027C62.1689 78.0027 62.5379 77.546 62.5379 77.0716C62.5379 76.3338 61.6946 76 60.9568 76C59.8851 76 59.2878 77.0541 59.1297 77.3878C58.7257 76.0703 57.6365 76 57.3203 76C55.5284 76 54.5797 78.3014 54.5797 78.6878C54.5797 78.7581 54.65 78.846 54.773 78.846C54.9135 78.846 54.9486 78.7405 54.9838 78.6703C55.5811 76.7203 56.7581 76.3513 57.2676 76.3513C58.0581 76.3513 58.2162 77.0892 58.2162 77.5108C58.2162 77.8973 58.1108 78.3014 57.9 79.1446L57.3027 81.5514C57.0392 82.6054 56.5297 83.5716 55.5987 83.5716C55.5108 83.5716 55.0716 83.5716 54.7027 83.3433C55.3351 83.2203 55.4757 82.6933 55.4757 82.4824C55.4757 82.1311 55.2122 81.9203 54.8784 81.9203C54.4568 81.9203 54 82.2892 54 82.8514C54 83.5892 54.8257 83.923 55.5811 83.923C56.4243 83.923 57.0216 83.2554 57.3905 82.5351C57.6716 83.5716 58.55 83.923 59.2 83.923C60.9919 83.923 61.9405 81.6216 61.9405 81.2351C61.9405 81.1473 61.8703 81.077 61.7649 81.077C61.6068 81.077 61.5892 81.1649 61.5365 81.3054C61.0622 82.8514 60.0432 83.5716 59.2527 83.5716C58.6378 83.5716 58.3041 83.1149 58.3041 82.3946C58.3041 82.0081 58.3743 81.727 58.6554 80.5676L59.2703 78.1784C59.5338 77.1243 60.1311 76.3513 60.9392 76.3513C60.9743 76.3513 61.4662 76.3513 61.8351 76.5797Z" fill="black"/>
<path d="M66.5492 83.9933C66.7366 83.8176 67.2285 83.4311 67.4159 83.2671C68.142 82.5996 68.833 81.9554 68.833 80.8897C68.833 79.496 67.6618 78.5942 66.1979 78.5942C64.7925 78.5942 63.8672 79.6599 63.8672 80.7023C63.8672 81.2762 64.324 81.3581 64.488 81.3581C64.7339 81.3581 65.097 81.1825 65.097 80.7374C65.097 80.1284 64.5114 80.1284 64.3709 80.1284C64.7105 79.2734 65.4952 78.9807 66.0691 78.9807C67.1582 78.9807 67.7204 79.9059 67.7204 80.8897C67.7204 82.1077 66.8654 82.9978 65.4835 84.4149L64.0078 85.9374C63.8672 86.0662 63.8672 86.0897 63.8672 86.3825H68.4934L68.833 84.2861H68.47C68.4348 84.5203 68.3411 85.1059 68.2006 85.3284C68.1303 85.4221 67.2402 85.4221 67.0528 85.4221H64.9682L66.5492 83.9933Z" fill="black"/>
<path d="M162.834 83.5797C162.272 83.6851 162.062 84.1067 162.062 84.4404C162.062 84.862 162.395 85.0025 162.641 85.0025C163.168 85.0025 163.537 84.5458 163.537 84.0715C163.537 83.3338 162.694 83 161.956 83C160.885 83 160.287 84.054 160.129 84.3877C159.725 83.0703 158.636 83 158.32 83C156.528 83 155.58 85.3011 155.58 85.6876C155.58 85.7579 155.65 85.8457 155.773 85.8457C155.913 85.8457 155.949 85.7403 155.984 85.67C156.581 83.7202 157.758 83.3513 158.267 83.3513C159.058 83.3513 159.216 84.0891 159.216 84.5107C159.216 84.8971 159.11 85.3011 158.9 86.1443L158.302 88.5508C158.039 89.6048 157.53 90.5709 156.599 90.5709C156.511 90.5709 156.072 90.5709 155.703 90.3426C156.335 90.2196 156.476 89.6926 156.476 89.4818C156.476 89.1305 156.212 88.9197 155.878 88.9197C155.457 88.9197 155 89.2886 155 89.8507C155 90.5885 155.826 90.9223 156.581 90.9223C157.424 90.9223 158.021 90.2547 158.39 89.5345C158.671 90.5709 159.55 90.9223 160.2 90.9223C161.991 90.9223 162.94 88.6211 162.94 88.2347C162.94 88.1468 162.87 88.0766 162.764 88.0766C162.606 88.0766 162.589 88.1644 162.536 88.3049C162.062 89.8507 161.043 90.5709 160.252 90.5709C159.637 90.5709 159.304 90.1142 159.304 89.394C159.304 89.0076 159.374 88.7265 159.655 87.5671L160.27 85.1782C160.533 84.1242 161.131 83.3513 161.939 83.3513C161.974 83.3513 162.466 83.3513 162.834 83.5797Z" fill="black"/>
<path d="M167.208 89.4701C168.134 89.4701 168.719 90.1494 168.719 91.379C168.719 92.8428 167.888 93.2761 167.267 93.2761C166.623 93.2761 165.745 93.0419 165.335 92.4212C165.756 92.4212 166.049 92.1519 166.049 91.7654C166.049 91.3907 165.78 91.1214 165.405 91.1214C165.089 91.1214 164.761 91.3204 164.761 91.7889C164.761 92.9014 165.955 93.6274 167.29 93.6274C168.848 93.6274 169.937 92.5501 169.937 91.379C169.937 90.407 169.164 89.517 167.97 89.2594C168.895 88.9315 169.586 88.1351 169.586 87.1983C169.586 86.2614 168.532 85.5939 167.314 85.5939C166.061 85.5939 165.112 86.2731 165.112 87.1632C165.112 87.5964 165.405 87.7838 165.709 87.7838C166.073 87.7838 166.307 87.5262 166.307 87.1866C166.307 86.7533 165.932 86.5893 165.674 86.5776C166.166 85.9335 167.068 85.8984 167.279 85.8984C167.583 85.8984 168.473 85.9921 168.473 87.1983C168.473 88.018 168.134 88.5099 167.97 88.6973C167.618 89.0603 167.349 89.0837 166.635 89.1305C166.412 89.1423 166.318 89.154 166.318 89.3062C166.318 89.4701 166.424 89.4701 166.623 89.4701H167.208Z" fill="black"/>
<path d="M110.83 114.579C110.268 114.685 110.058 115.106 110.058 115.44C110.058 115.861 110.391 116.001 110.637 116.001C111.164 116.001 111.533 115.545 111.533 115.071C111.533 114.334 110.69 114 109.952 114C108.882 114 108.285 115.053 108.127 115.387C107.723 114.07 106.634 114 106.318 114C104.527 114 103.579 116.3 103.579 116.686C103.579 116.756 103.65 116.844 103.772 116.844C103.913 116.844 103.948 116.739 103.983 116.669C104.58 114.72 105.756 114.351 106.266 114.351C107.056 114.351 107.214 115.089 107.214 115.51C107.214 115.896 107.108 116.3 106.898 117.143L106.301 119.548C106.037 120.601 105.528 121.567 104.598 121.567C104.51 121.567 104.071 121.567 103.702 121.339C104.334 121.216 104.475 120.689 104.475 120.478C104.475 120.127 104.211 119.917 103.878 119.917C103.456 119.917 103 120.285 103 120.847C103 121.585 103.825 121.918 104.58 121.918C105.423 121.918 106.02 121.251 106.388 120.531C106.669 121.567 107.547 121.918 108.197 121.918C109.988 121.918 110.936 119.618 110.936 119.232C110.936 119.144 110.865 119.074 110.76 119.074C110.602 119.074 110.585 119.162 110.532 119.302C110.058 120.847 109.04 121.567 108.249 121.567C107.635 121.567 107.301 121.11 107.301 120.391C107.301 120.004 107.372 119.723 107.653 118.565L108.267 116.177C108.53 115.124 109.127 114.351 109.935 114.351C109.97 114.351 110.462 114.351 110.83 114.579Z" fill="black"/>
<path d="M116.852 116.803C116.852 116.569 116.852 116.476 116.607 116.476C116.454 116.476 116.443 116.487 116.326 116.651L112.592 122.07V122.457H115.893V123.428C115.893 123.861 115.857 123.99 114.956 123.99H114.687V124.376C115.682 124.341 115.705 124.341 116.372 124.341C117.04 124.341 117.063 124.341 118.058 124.376V123.99H117.789C116.887 123.99 116.852 123.861 116.852 123.428V122.457H118.093V122.07H116.852V116.803ZM115.975 117.751V122.07H113.002L115.975 117.751Z" fill="black"/>
<path d="M50.8352 131.58C50.273 131.685 50.0622 132.107 50.0622 132.441C50.0622 132.862 50.396 133.003 50.6419 133.003C51.1689 133.003 51.5379 132.546 51.5379 132.072C51.5379 131.334 50.6946 131 49.9568 131C48.8852 131 48.2879 132.054 48.1297 132.388C47.7257 131.07 46.6365 131 46.3203 131C44.5284 131 43.5797 133.301 43.5797 133.688C43.5797 133.758 43.65 133.846 43.773 133.846C43.9135 133.846 43.9487 133.741 43.9838 133.67C44.5811 131.72 45.7581 131.351 46.2676 131.351C47.0581 131.351 47.2162 132.089 47.2162 132.511C47.2162 132.897 47.1108 133.301 46.9 134.145L46.3027 136.551C46.0392 137.605 45.5297 138.572 44.5987 138.572C44.5108 138.572 44.0716 138.572 43.7027 138.343C44.3351 138.22 44.4757 137.693 44.4757 137.482C44.4757 137.131 44.2122 136.92 43.8784 136.92C43.4568 136.92 43 137.289 43 137.851C43 138.589 43.8257 138.923 44.5811 138.923C45.4243 138.923 46.0216 138.255 46.3905 137.535C46.6716 138.572 47.55 138.923 48.2 138.923C49.9919 138.923 50.9406 136.622 50.9406 136.235C50.9406 136.147 50.8703 136.077 50.7649 136.077C50.6068 136.077 50.5892 136.165 50.5365 136.305C50.0622 137.851 49.0433 138.572 48.2527 138.572C47.6379 138.572 47.3041 138.115 47.3041 137.395C47.3041 137.008 47.3743 136.727 47.6554 135.568L48.2703 133.178C48.5338 132.124 49.1311 131.351 49.9392 131.351C49.9744 131.351 50.4662 131.351 50.8352 131.58Z" fill="black"/>
<path d="M53.8862 134.8C54.0384 134.847 54.5069 134.964 54.9988 134.964C56.4628 134.964 57.3529 133.934 57.3529 133.758C57.3529 133.629 57.2709 133.594 57.2123 133.594C57.1889 133.594 57.1655 133.594 57.0601 133.653C56.6033 133.828 56.0646 133.969 55.4321 133.969C54.7411 133.969 54.1673 133.793 53.8042 133.653C53.6871 133.594 53.6636 133.594 53.6519 133.594C53.4997 133.594 53.4997 133.723 53.4997 133.934V137.365C53.4997 137.576 53.4997 137.717 53.6871 137.717C53.7808 137.717 53.8159 137.67 53.8745 137.576C54.015 137.4 54.46 136.803 55.4555 136.803C56.1114 136.803 56.4276 137.342 56.533 137.564C56.7321 137.986 56.7555 138.525 56.7555 138.982C56.7555 139.415 56.7438 140.047 56.4159 140.563C56.1934 140.914 55.7249 141.277 55.1042 141.277C54.3429 141.277 53.5934 140.797 53.324 140.036C53.3591 140.047 53.4294 140.047 53.4411 140.047C53.769 140.047 54.0267 139.837 54.0267 139.473C54.0267 139.04 53.6871 138.888 53.4528 138.888C53.242 138.888 52.8672 139.005 52.8672 139.509C52.8672 140.563 53.7808 141.628 55.1276 141.628C56.5916 141.628 57.833 140.492 57.833 139.04C57.833 137.682 56.8492 136.475 55.4673 136.475C54.8817 136.475 54.3312 136.663 53.8862 137.061V134.8Z" fill="black"/>
<path d="M122.833 51.5796C122.271 51.6849 122.06 52.1065 122.06 52.4401C122.06 52.8617 122.394 53.0022 122.64 53.0022C123.167 53.0022 123.536 52.5455 123.536 52.0713C123.536 51.3337 122.693 51 121.955 51C120.884 51 120.286 52.0538 120.128 52.3875C119.724 51.0703 118.635 51 118.319 51C116.528 51 115.58 53.3007 115.58 53.6871C115.58 53.7574 115.65 53.8452 115.773 53.8452C115.913 53.8452 115.948 53.7398 115.984 53.6696C116.581 51.7201 117.757 51.3513 118.267 51.3513C119.057 51.3513 119.215 52.0889 119.215 52.5104C119.215 52.8968 119.11 53.3007 118.899 54.1438L118.302 56.5498C118.038 57.6036 117.529 58.5696 116.598 58.5696C116.51 58.5696 116.071 58.5696 115.703 58.3413C116.335 58.2183 116.475 57.6914 116.475 57.4807C116.475 57.1294 116.212 56.9187 115.878 56.9187C115.457 56.9187 115 57.2875 115 57.8495C115 58.5871 115.825 58.9208 116.581 58.9208C117.424 58.9208 118.021 58.2534 118.39 57.5334C118.671 58.5696 119.549 58.9208 120.199 58.9208C121.99 58.9208 122.938 56.6201 122.938 56.2337C122.938 56.1459 122.868 56.0756 122.763 56.0756C122.605 56.0756 122.587 56.1635 122.534 56.304C122.06 57.8495 121.042 58.5696 120.251 58.5696C119.637 58.5696 119.303 58.1129 119.303 57.3929C119.303 57.0065 119.373 56.7255 119.654 55.5663L120.269 53.1778C120.532 52.124 121.129 51.3513 121.937 51.3513C121.972 51.3513 122.464 51.3513 122.833 51.5796Z" fill="black"/>
<path d="M127.921 53.9213C127.921 53.6052 127.897 53.5935 127.581 53.5935C127.101 54.0618 126.48 54.3428 125.368 54.3428V54.7292C125.684 54.7292 126.316 54.7292 126.996 54.4131V60.4195C126.996 60.8528 126.96 60.9933 125.848 60.9933H125.438V61.3797C125.918 61.3445 126.925 61.3445 127.452 61.3445C127.979 61.3445 128.998 61.3445 129.478 61.3797V60.9933H129.068C127.956 60.9933 127.921 60.8528 127.921 60.4195V53.9213Z" fill="black"/>
<path d="M175.833 134.58C175.271 134.685 175.06 135.106 175.06 135.44C175.06 135.862 175.394 136.002 175.64 136.002C176.167 136.002 176.536 135.546 176.536 135.071C176.536 134.334 175.693 134 174.955 134C173.884 134 173.286 135.054 173.128 135.387C172.724 134.07 171.635 134 171.319 134C169.528 134 168.58 136.301 168.58 136.687C168.58 136.757 168.65 136.845 168.773 136.845C168.913 136.845 168.948 136.74 168.984 136.67C169.581 134.72 170.757 134.351 171.267 134.351C172.057 134.351 172.215 135.089 172.215 135.51C172.215 135.897 172.11 136.301 171.899 137.144L171.302 139.55C171.038 140.604 170.529 141.57 169.598 141.57C169.51 141.57 169.071 141.57 168.703 141.341C169.335 141.218 169.475 140.691 169.475 140.481C169.475 140.129 169.212 139.919 168.878 139.919C168.457 139.919 168 140.287 168 140.849C168 141.587 168.825 141.921 169.581 141.921C170.424 141.921 171.021 141.253 171.39 140.533C171.671 141.57 172.549 141.921 173.199 141.921C174.99 141.921 175.938 139.62 175.938 139.234C175.938 139.146 175.868 139.076 175.763 139.076C175.605 139.076 175.587 139.163 175.534 139.304C175.06 140.849 174.042 141.57 173.251 141.57C172.637 141.57 172.303 141.113 172.303 140.393C172.303 140.006 172.373 139.725 172.654 138.566L173.269 136.178C173.532 135.124 174.129 134.351 174.937 134.351C174.972 134.351 175.464 134.351 175.833 134.58Z" fill="black"/>
<path d="M178.86 140.504C178.86 139.532 178.942 138.678 179.363 137.963C179.715 137.378 180.312 136.898 181.049 136.898C181.283 136.898 181.822 136.933 182.091 137.343C181.564 137.366 181.518 137.764 181.518 137.893C181.518 138.244 181.787 138.443 182.068 138.443C182.279 138.443 182.618 138.315 182.618 137.87C182.618 137.167 182.091 136.594 181.038 136.594C179.41 136.594 177.759 138.139 177.759 140.668C177.759 143.841 179.234 144.626 180.37 144.626C180.932 144.626 181.541 144.473 182.068 143.97C182.536 143.513 182.934 143.021 182.934 142.003C182.934 140.469 181.775 139.392 180.476 139.392C179.633 139.392 179.129 139.93 178.86 140.504ZM180.37 144.274C179.75 144.274 179.363 143.841 179.188 143.513C178.918 142.986 178.895 142.19 178.895 141.745C178.895 140.586 179.527 139.72 180.429 139.72C181.014 139.72 181.365 140.024 181.588 140.434C181.834 140.867 181.834 141.394 181.834 141.991C181.834 142.588 181.834 143.103 181.6 143.525C181.295 144.064 180.885 144.274 180.37 144.274Z" fill="black"/>
<path d="M92.833 169.58C92.271 169.685 92.0602 170.106 92.0602 170.44C92.0602 170.862 92.3939 171.002 92.6398 171.002C93.1667 171.002 93.5355 170.546 93.5355 170.071C93.5355 169.334 92.6925 169 91.9549 169C90.8835 169 90.2864 170.054 90.1283 170.387C89.7244 169.07 88.6355 169 88.3194 169C86.528 169 85.5796 171.301 85.5796 171.687C85.5796 171.757 85.6498 171.845 85.7728 171.845C85.9133 171.845 85.9484 171.74 85.9835 171.67C86.5807 169.72 87.7574 169.351 88.2667 169.351C89.057 169.351 89.2151 170.089 89.2151 170.51C89.2151 170.897 89.1097 171.301 88.8989 172.144L88.3018 174.55C88.0384 175.604 87.529 176.57 86.5982 176.57C86.5104 176.57 86.0713 176.57 85.7025 176.341C86.3348 176.218 86.4753 175.691 86.4753 175.481C86.4753 175.129 86.2118 174.919 85.8781 174.919C85.4566 174.919 85 175.287 85 175.849C85 176.587 85.8255 176.921 86.5807 176.921C87.4237 176.921 88.0208 176.253 88.3896 175.533C88.6706 176.57 89.5488 176.921 90.1986 176.921C91.99 176.921 92.9384 174.62 92.9384 174.234C92.9384 174.146 92.8681 174.076 92.7628 174.076C92.6047 174.076 92.5871 174.163 92.5344 174.304C92.0602 175.849 91.0416 176.57 90.2513 176.57C89.6366 176.57 89.3029 176.113 89.3029 175.393C89.3029 175.006 89.3731 174.725 89.6541 173.566L90.2689 171.178C90.5323 170.124 91.1294 169.351 91.9373 169.351C91.9724 169.351 92.4642 169.351 92.833 169.58Z" fill="black"/>
<path d="M100.169 172.249C100.274 172.12 100.274 172.097 100.274 171.839H97.2999C97.0072 171.839 96.6443 171.828 96.3515 171.804C95.7427 171.757 95.731 171.652 95.6959 171.465H95.3329L94.9348 173.935H95.2978C95.3212 173.76 95.45 172.952 95.6139 172.858C95.7427 172.799 96.6208 172.799 96.7965 172.799H99.2787L98.0727 174.415C96.7379 176.195 96.4569 178.045 96.4569 178.97C96.4569 179.087 96.4569 179.626 97.0072 179.626C97.5575 179.626 97.5575 179.099 97.5575 178.958V178.396C97.5575 176.71 97.8385 175.328 98.4123 174.567L100.169 172.249Z" fill="black"/>
<path d="M146.833 173.58C146.271 173.685 146.06 174.106 146.06 174.44C146.06 174.862 146.394 175.002 146.64 175.002C147.167 175.002 147.536 174.546 147.536 174.071C147.536 173.334 146.693 173 145.955 173C144.884 173 144.286 174.054 144.128 174.387C143.724 173.07 142.635 173 142.319 173C140.528 173 139.58 175.301 139.58 175.687C139.58 175.757 139.65 175.845 139.773 175.845C139.913 175.845 139.948 175.74 139.984 175.67C140.581 173.72 141.757 173.351 142.267 173.351C143.057 173.351 143.215 174.089 143.215 174.51C143.215 174.897 143.11 175.301 142.899 176.144L142.302 178.55C142.038 179.604 141.529 180.57 140.598 180.57C140.51 180.57 140.071 180.57 139.703 180.341C140.335 180.218 140.475 179.691 140.475 179.481C140.475 179.129 140.212 178.919 139.878 178.919C139.457 178.919 139 179.287 139 179.849C139 180.587 139.825 180.921 140.581 180.921C141.424 180.921 142.021 180.253 142.39 179.533C142.671 180.57 143.549 180.921 144.199 180.921C145.99 180.921 146.938 178.62 146.938 178.234C146.938 178.146 146.868 178.076 146.763 178.076C146.605 178.076 146.587 178.163 146.534 178.304C146.06 179.849 145.042 180.57 144.251 180.57C143.637 180.57 143.303 180.113 143.303 179.393C143.303 179.006 143.373 178.725 143.654 177.566L144.269 175.178C144.532 174.124 145.129 173.351 145.937 173.351C145.972 173.351 146.464 173.351 146.833 173.58Z" fill="black"/>
<path d="M152.131 179.153C152.787 178.837 153.583 178.251 153.583 177.338C153.583 176.226 152.447 175.593 151.359 175.593C150.117 175.593 149.11 176.448 149.11 177.549C149.11 177.982 149.263 178.38 149.555 178.72C149.754 178.966 149.801 178.989 150.527 179.446C149.075 180.09 148.759 180.944 148.759 181.6C148.759 182.888 150.059 183.625 151.335 183.625C152.775 183.625 153.934 182.654 153.934 181.413C153.934 180.675 153.536 180.183 153.349 179.984C153.15 179.797 153.138 179.785 152.131 179.153ZM150.316 178.052C149.977 177.853 149.696 177.514 149.696 177.104C149.696 176.366 150.504 175.898 151.335 175.898C152.248 175.898 152.998 176.518 152.998 177.338C152.998 178.017 152.471 178.591 151.78 178.93L150.316 178.052ZM150.89 179.656C150.937 179.68 152.272 180.499 152.471 180.628C152.658 180.733 153.267 181.108 153.267 181.811C153.267 182.712 152.319 183.274 151.359 183.274C150.316 183.274 149.427 182.56 149.427 181.6C149.427 180.722 150.082 180.031 150.89 179.656Z" fill="black"/>
<path d="M339.143 59.7079C338.669 60.375 337.984 60.9719 337.124 60.9719C336.913 60.9719 336.071 60.9368 335.808 60.1293C335.86 60.1468 335.948 60.1468 335.983 60.1468C336.51 60.1468 336.861 59.6904 336.861 59.2866C336.861 58.8828 336.527 58.7424 336.264 58.7424C335.983 58.7424 335.369 58.9531 335.369 59.8133C335.369 60.7086 336.124 61.323 337.124 61.323C338.88 61.323 340.653 59.7079 341.144 57.7593L342.865 50.9129C342.882 50.8251 342.917 50.7198 342.917 50.6144C342.917 50.3511 342.707 50.1755 342.443 50.1755C342.285 50.1755 341.917 50.2458 341.776 50.7724L340.477 55.9336C340.389 56.2496 340.389 56.2847 340.249 56.4778C339.898 56.9694 339.319 57.5662 338.476 57.5662C337.493 57.5662 337.405 56.6007 337.405 56.1267C337.405 55.1261 337.879 53.7743 338.353 52.5104C338.546 52.0013 338.651 51.7555 338.651 51.4044C338.651 50.6671 338.125 50 337.265 50C335.65 50 335 52.5455 335 52.6859C335 52.7561 335.07 52.8439 335.193 52.8439C335.351 52.8439 335.369 52.7737 335.439 52.5279C335.86 51.0533 336.527 50.3511 337.212 50.3511C337.37 50.3511 337.668 50.3511 337.668 50.9304C337.668 51.3869 337.475 51.8959 337.212 52.563C336.352 54.8627 336.352 55.4421 336.352 55.8634C336.352 57.5311 337.545 57.9173 338.423 57.9173C338.932 57.9173 339.564 57.7593 340.179 57.1098L340.196 57.1274C339.933 58.1631 339.757 58.8477 339.143 59.7079Z" fill="black"/>
<path d="M346.551 52.92C346.551 52.604 346.527 52.5923 346.211 52.5923C345.731 53.0604 345.111 53.3413 343.999 53.3413V53.7275C344.315 53.7275 344.947 53.7275 345.626 53.4115V59.4154C345.626 59.8484 345.591 59.9888 344.479 59.9888H344.07V60.375C344.549 60.3399 345.556 60.3399 346.083 60.3399C346.609 60.3399 347.627 60.3399 348.107 60.375V59.9888H347.698C346.586 59.9888 346.551 59.8484 346.551 59.4154V52.92Z" fill="black"/>
<path d="M278.143 84.7079C277.669 85.375 276.984 85.9719 276.124 85.9719C275.913 85.9719 275.071 85.9368 274.808 85.1293C274.86 85.1468 274.948 85.1468 274.983 85.1468C275.51 85.1468 275.861 84.6904 275.861 84.2866C275.861 83.8828 275.527 83.7424 275.264 83.7424C274.983 83.7424 274.369 83.9531 274.369 84.8133C274.369 85.7086 275.124 86.323 276.124 86.323C277.88 86.323 279.653 84.7079 280.144 82.7593L281.865 75.9129C281.882 75.8251 281.917 75.7198 281.917 75.6144C281.917 75.3511 281.707 75.1755 281.443 75.1755C281.285 75.1755 280.917 75.2458 280.776 75.7724L279.477 80.9336C279.389 81.2496 279.389 81.2847 279.249 81.4778C278.898 81.9694 278.319 82.5662 277.476 82.5662C276.493 82.5662 276.405 81.6007 276.405 81.1267C276.405 80.1261 276.879 78.7743 277.353 77.5104C277.546 77.0013 277.651 76.7555 277.651 76.4044C277.651 75.6671 277.125 75 276.265 75C274.65 75 274 77.5455 274 77.6859C274 77.7561 274.07 77.8439 274.193 77.8439C274.351 77.8439 274.369 77.7737 274.439 77.5279C274.86 76.0533 275.527 75.3511 276.212 75.3511C276.37 75.3511 276.668 75.3511 276.668 75.9304C276.668 76.3869 276.475 76.8959 276.212 77.563C275.352 79.8627 275.352 80.4421 275.352 80.8634C275.352 82.5311 276.545 82.9173 277.423 82.9173C277.932 82.9173 278.564 82.7593 279.179 82.1098L279.196 82.1274C278.933 83.1631 278.757 83.8477 278.143 84.7079Z" fill="black"/>
<path d="M285.176 82.9876C285.363 82.812 285.855 82.4258 286.042 82.262C286.768 81.5949 287.458 80.9512 287.458 79.8862C287.458 78.4935 286.288 77.5923 284.825 77.5923C283.421 77.5923 282.496 78.6573 282.496 79.6989C282.496 80.2724 282.953 80.3543 283.116 80.3543C283.362 80.3543 283.725 80.1788 283.725 79.734C283.725 79.1254 283.14 79.1254 282.999 79.1254C283.339 78.2711 284.123 77.9785 284.696 77.9785C285.785 77.9785 286.346 78.9031 286.346 79.8862C286.346 81.1033 285.492 81.9928 284.111 83.4089L282.637 84.9303C282.496 85.0591 282.496 85.0825 282.496 85.375H287.119L287.458 83.2801H287.096C287.06 83.5142 286.967 84.0994 286.826 84.3217C286.756 84.4154 285.867 84.4154 285.679 84.4154H283.596L285.176 82.9876Z" fill="black"/>
<path d="M379.143 91.7079C378.669 92.375 377.984 92.9719 377.124 92.9719C376.913 92.9719 376.071 92.9368 375.808 92.1293C375.86 92.1468 375.948 92.1468 375.983 92.1468C376.51 92.1468 376.861 91.6904 376.861 91.2866C376.861 90.8828 376.527 90.7424 376.264 90.7424C375.983 90.7424 375.369 90.9531 375.369 91.8133C375.369 92.7086 376.124 93.323 377.124 93.323C378.88 93.323 380.653 91.7079 381.144 89.7593L382.865 82.9129C382.882 82.8251 382.917 82.7198 382.917 82.6144C382.917 82.3511 382.707 82.1755 382.443 82.1755C382.285 82.1755 381.917 82.2458 381.776 82.7724L380.477 87.9336C380.389 88.2496 380.389 88.2847 380.249 88.4778C379.898 88.9694 379.319 89.5662 378.476 89.5662C377.493 89.5662 377.405 88.6007 377.405 88.1267C377.405 87.1261 377.879 85.7743 378.353 84.5104C378.546 84.0013 378.651 83.7555 378.651 83.4044C378.651 82.6671 378.125 82 377.265 82C375.65 82 375 84.5455 375 84.6859C375 84.7561 375.07 84.8439 375.193 84.8439C375.351 84.8439 375.369 84.7737 375.439 84.5279C375.86 83.0533 376.527 82.3511 377.212 82.3511C377.37 82.3511 377.668 82.3511 377.668 82.9304C377.668 83.3869 377.475 83.8959 377.212 84.563C376.352 86.8627 376.352 87.4421 376.352 87.8634C376.352 89.5311 377.545 89.9173 378.423 89.9173C378.932 89.9173 379.564 89.7593 380.179 89.1098L380.196 89.1274C379.933 90.1631 379.757 90.8477 379.143 91.7079Z" fill="black"/>
<path d="M385.837 88.4661C386.761 88.4661 387.346 89.1449 387.346 90.3738C387.346 91.8367 386.516 92.2697 385.895 92.2697C385.252 92.2697 384.374 92.0356 383.964 91.4154C384.386 91.4154 384.678 91.1462 384.678 90.76C384.678 90.3855 384.409 90.1163 384.034 90.1163C383.718 90.1163 383.391 90.3153 383.391 90.7834C383.391 91.8952 384.584 92.6208 385.919 92.6208C387.475 92.6208 388.564 91.5441 388.564 90.3738C388.564 89.4024 387.791 88.5129 386.597 88.2555C387.522 87.9278 388.213 87.1319 388.213 86.1957C388.213 85.2594 387.159 84.5923 385.942 84.5923C384.69 84.5923 383.742 85.2711 383.742 86.1606C383.742 86.5936 384.034 86.7808 384.339 86.7808C384.702 86.7808 384.936 86.5234 384.936 86.184C384.936 85.7509 384.561 85.5871 384.304 85.5754C384.795 84.9317 385.696 84.8966 385.907 84.8966C386.211 84.8966 387.101 84.9902 387.101 86.1957C387.101 87.0149 386.761 87.5064 386.597 87.6937C386.246 88.0565 385.977 88.0799 385.263 88.1267C385.041 88.1384 384.947 88.1501 384.947 88.3023C384.947 88.4661 385.053 88.4661 385.252 88.4661H385.837Z" fill="black"/>
<path d="M328.143 122.708C327.669 123.375 326.984 123.972 326.124 123.972C325.913 123.972 325.071 123.937 324.808 123.129C324.86 123.147 324.948 123.147 324.983 123.147C325.51 123.147 325.861 122.69 325.861 122.287C325.861 121.883 325.527 121.742 325.264 121.742C324.983 121.742 324.369 121.953 324.369 122.813C324.369 123.709 325.124 124.323 326.124 124.323C327.88 124.323 329.653 122.708 330.144 120.759L331.865 113.913C331.882 113.825 331.917 113.72 331.917 113.614C331.917 113.351 331.707 113.176 331.443 113.176C331.285 113.176 330.917 113.246 330.776 113.772L329.477 118.934C329.389 119.25 329.389 119.285 329.249 119.478C328.898 119.969 328.319 120.566 327.476 120.566C326.493 120.566 326.405 119.601 326.405 119.127C326.405 118.126 326.879 116.774 327.353 115.51C327.546 115.001 327.651 114.756 327.651 114.404C327.651 113.667 327.125 113 326.265 113C324.65 113 324 115.545 324 115.686C324 115.756 324.07 115.844 324.193 115.844C324.351 115.844 324.369 115.774 324.439 115.528C324.86 114.053 325.527 113.351 326.212 113.351C326.37 113.351 326.668 113.351 326.668 113.93C326.668 114.387 326.475 114.896 326.212 115.563C325.352 117.863 325.352 118.442 325.352 118.863C325.352 120.531 326.545 120.917 327.423 120.917C327.932 120.917 328.564 120.759 329.179 120.11L329.196 120.127C328.933 121.163 328.757 121.848 328.143 122.708Z" fill="black"/>
<path d="M336.487 115.803C336.487 115.569 336.487 115.475 336.241 115.475C336.089 115.475 336.077 115.487 335.96 115.651L332.227 121.069V121.456H335.527V122.427C335.527 122.86 335.492 122.989 334.591 122.989H334.322V123.375C335.317 123.34 335.34 123.34 336.007 123.34C336.674 123.34 336.698 123.34 337.692 123.375V122.989H337.423C336.522 122.989 336.487 122.86 336.487 122.427V121.456H337.727V121.069H336.487V115.803ZM335.609 116.751V121.069H332.636L335.609 116.751Z" fill="black"/>
<path d="M267.143 139.708C266.669 140.375 265.984 140.972 265.124 140.972C264.913 140.972 264.071 140.937 263.808 140.129C263.86 140.147 263.948 140.147 263.983 140.147C264.51 140.147 264.861 139.69 264.861 139.287C264.861 138.883 264.527 138.742 264.264 138.742C263.983 138.742 263.369 138.953 263.369 139.813C263.369 140.709 264.124 141.323 265.124 141.323C266.88 141.323 268.653 139.708 269.144 137.759L270.865 130.913C270.882 130.825 270.917 130.72 270.917 130.614C270.917 130.351 270.707 130.176 270.443 130.176C270.285 130.176 269.917 130.246 269.776 130.772L268.477 135.934C268.389 136.25 268.389 136.285 268.249 136.478C267.898 136.969 267.319 137.566 266.476 137.566C265.493 137.566 265.405 136.601 265.405 136.127C265.405 135.126 265.879 133.774 266.353 132.51C266.546 132.001 266.651 131.756 266.651 131.404C266.651 130.667 266.125 130 265.265 130C263.65 130 263 132.545 263 132.686C263 132.756 263.07 132.844 263.193 132.844C263.351 132.844 263.369 132.774 263.439 132.528C263.86 131.053 264.527 130.351 265.212 130.351C265.37 130.351 265.668 130.351 265.668 130.93C265.668 131.387 265.475 131.896 265.212 132.563C264.352 134.863 264.352 135.442 264.352 135.863C264.352 137.531 265.545 137.917 266.423 137.917C266.932 137.917 267.564 137.759 268.179 137.11L268.196 137.127C267.933 138.163 267.757 138.848 267.143 139.708Z" fill="black"/>
<path d="M272.514 133.798C272.666 133.845 273.135 133.962 273.626 133.962C275.089 133.962 275.978 132.932 275.978 132.756C275.978 132.627 275.897 132.592 275.838 132.592C275.815 132.592 275.791 132.592 275.686 132.651C275.229 132.826 274.691 132.967 274.059 132.967C273.369 132.967 272.795 132.791 272.432 132.651C272.315 132.592 272.292 132.592 272.28 132.592C272.128 132.592 272.128 132.721 272.128 132.932V136.361C272.128 136.571 272.128 136.712 272.315 136.712C272.409 136.712 272.444 136.665 272.503 136.571C272.643 136.396 273.088 135.799 274.083 135.799C274.738 135.799 275.054 136.337 275.159 136.56C275.358 136.981 275.382 137.519 275.382 137.976C275.382 138.409 275.37 139.041 275.042 139.556C274.82 139.907 274.352 140.27 273.731 140.27C272.971 140.27 272.222 139.79 271.953 139.029C271.988 139.041 272.058 139.041 272.07 139.041C272.397 139.041 272.655 138.83 272.655 138.467C272.655 138.034 272.315 137.882 272.081 137.882C271.871 137.882 271.496 137.999 271.496 138.503C271.496 139.556 272.409 140.621 273.755 140.621C275.218 140.621 276.458 139.486 276.458 138.034C276.458 136.677 275.475 135.471 274.094 135.471C273.509 135.471 272.959 135.659 272.514 136.057V133.798Z" fill="black"/>
<path d="M392.143 142.708C391.669 143.375 390.984 143.972 390.124 143.972C389.913 143.972 389.071 143.937 388.808 143.129C388.86 143.147 388.948 143.147 388.983 143.147C389.51 143.147 389.861 142.69 389.861 142.287C389.861 141.883 389.527 141.742 389.264 141.742C388.983 141.742 388.369 141.953 388.369 142.813C388.369 143.709 389.124 144.323 390.124 144.323C391.88 144.323 393.653 142.708 394.144 140.759L395.865 133.913C395.882 133.825 395.917 133.72 395.917 133.614C395.917 133.351 395.707 133.176 395.443 133.176C395.285 133.176 394.917 133.246 394.776 133.772L393.477 138.934C393.389 139.25 393.389 139.285 393.249 139.478C392.898 139.969 392.319 140.566 391.476 140.566C390.493 140.566 390.405 139.601 390.405 139.127C390.405 138.126 390.879 136.774 391.353 135.51C391.546 135.001 391.651 134.756 391.651 134.404C391.651 133.667 391.125 133 390.265 133C388.65 133 388 135.545 388 135.686C388 135.756 388.07 135.844 388.193 135.844C388.351 135.844 388.369 135.774 388.439 135.528C388.86 134.053 389.527 133.351 390.212 133.351C390.37 133.351 390.668 133.351 390.668 133.93C390.668 134.387 390.475 134.896 390.212 135.563C389.352 137.863 389.352 138.442 389.352 138.863C389.352 140.531 390.545 140.917 391.423 140.917C391.932 140.917 392.564 140.759 393.179 140.11L393.196 140.127C392.933 141.163 392.757 141.848 392.143 142.708Z" fill="black"/>
<path d="M397.491 139.501C397.491 138.53 397.573 137.676 397.994 136.962C398.345 136.376 398.942 135.897 399.679 135.897C399.913 135.897 400.452 135.932 400.721 136.341C400.194 136.365 400.148 136.763 400.148 136.891C400.148 137.243 400.417 137.441 400.698 137.441C400.908 137.441 401.248 137.313 401.248 136.868C401.248 136.166 400.721 135.592 399.668 135.592C398.041 135.592 396.391 137.137 396.391 139.665C396.391 142.837 397.865 143.621 399.001 143.621C399.562 143.621 400.171 143.469 400.698 142.965C401.166 142.509 401.564 142.017 401.564 140.999C401.564 139.466 400.405 138.389 399.106 138.389C398.263 138.389 397.76 138.928 397.491 139.501ZM399.001 143.27C398.38 143.27 397.994 142.837 397.819 142.509C397.549 141.982 397.526 141.187 397.526 140.742C397.526 139.583 398.158 138.717 399.059 138.717C399.644 138.717 399.995 139.021 400.218 139.431C400.464 139.864 400.464 140.391 400.464 140.988C400.464 141.584 400.464 142.099 400.229 142.521C399.925 143.059 399.516 143.27 399.001 143.27Z" fill="black"/>
<path d="M310.143 177.708C309.669 178.375 308.984 178.972 308.124 178.972C307.913 178.972 307.071 178.937 306.808 178.129C306.86 178.147 306.948 178.147 306.983 178.147C307.51 178.147 307.861 177.69 307.861 177.287C307.861 176.883 307.527 176.742 307.264 176.742C306.983 176.742 306.369 176.953 306.369 177.813C306.369 178.709 307.124 179.323 308.124 179.323C309.88 179.323 311.653 177.708 312.144 175.759L313.865 168.913C313.882 168.825 313.917 168.72 313.917 168.614C313.917 168.351 313.707 168.176 313.443 168.176C313.285 168.176 312.917 168.246 312.776 168.772L311.477 173.934C311.389 174.25 311.389 174.285 311.249 174.478C310.898 174.969 310.319 175.566 309.476 175.566C308.493 175.566 308.405 174.601 308.405 174.127C308.405 173.126 308.879 171.774 309.353 170.51C309.546 170.001 309.651 169.756 309.651 169.404C309.651 168.667 309.125 168 308.265 168C306.65 168 306 170.545 306 170.686C306 170.756 306.07 170.844 306.193 170.844C306.351 170.844 306.369 170.774 306.439 170.528C306.86 169.053 307.527 168.351 308.212 168.351C308.37 168.351 308.668 168.351 308.668 168.93C308.668 169.387 308.475 169.896 308.212 170.563C307.352 172.863 307.352 173.442 307.352 173.863C307.352 175.531 308.545 175.917 309.423 175.917C309.932 175.917 310.564 175.759 311.179 175.11L311.196 175.127C310.933 176.163 310.757 176.848 310.143 177.708Z" fill="black"/>
<path d="M319.798 171.248C319.903 171.119 319.903 171.096 319.903 170.838H316.93C316.638 170.838 316.275 170.826 315.982 170.803C315.374 170.756 315.362 170.651 315.327 170.464H314.964L314.566 172.933H314.929C314.952 172.757 315.081 171.95 315.245 171.856C315.374 171.798 316.252 171.798 316.427 171.798H318.908L317.703 173.413C316.369 175.192 316.088 177.041 316.088 177.965C316.088 178.082 316.088 178.621 316.638 178.621C317.188 178.621 317.188 178.094 317.188 177.954V177.392C317.188 175.707 317.469 174.326 318.042 173.565L319.798 171.248Z" fill="black"/>
<path d="M363.143 181.708C362.669 182.375 361.984 182.972 361.124 182.972C360.913 182.972 360.071 182.937 359.808 182.129C359.86 182.147 359.948 182.147 359.983 182.147C360.51 182.147 360.861 181.69 360.861 181.287C360.861 180.883 360.527 180.742 360.264 180.742C359.983 180.742 359.369 180.953 359.369 181.813C359.369 182.709 360.124 183.323 361.124 183.323C362.88 183.323 364.653 181.708 365.144 179.759L366.865 172.913C366.882 172.825 366.917 172.72 366.917 172.614C366.917 172.351 366.707 172.176 366.443 172.176C366.285 172.176 365.917 172.246 365.776 172.772L364.477 177.934C364.389 178.25 364.389 178.285 364.249 178.478C363.898 178.969 363.319 179.566 362.476 179.566C361.493 179.566 361.405 178.601 361.405 178.127C361.405 177.126 361.879 175.774 362.353 174.51C362.546 174.001 362.651 173.756 362.651 173.404C362.651 172.667 362.125 172 361.265 172C359.65 172 359 174.545 359 174.686C359 174.756 359.07 174.844 359.193 174.844C359.351 174.844 359.369 174.774 359.439 174.528C359.86 173.053 360.527 172.351 361.212 172.351C361.37 172.351 361.668 172.351 361.668 172.93C361.668 173.387 361.475 173.896 361.212 174.563C360.352 176.863 360.352 177.442 360.352 177.863C360.352 179.531 361.545 179.917 362.423 179.917C362.932 179.917 363.564 179.759 364.179 179.11L364.196 179.127C363.933 180.163 363.757 180.848 363.143 181.708Z" fill="black"/>
<path d="M370.761 178.15C371.417 177.834 372.213 177.249 372.213 176.336C372.213 175.224 371.077 174.592 369.989 174.592C368.748 174.592 367.742 175.447 367.742 176.547C367.742 176.98 367.894 177.378 368.187 177.717C368.386 177.963 368.432 177.986 369.158 178.443C367.707 179.086 367.391 179.941 367.391 180.596C367.391 181.884 368.69 182.621 369.965 182.621C371.405 182.621 372.564 181.649 372.564 180.409C372.564 179.672 372.166 179.18 371.978 178.981C371.78 178.794 371.768 178.782 370.761 178.15ZM368.947 177.05C368.608 176.851 368.327 176.512 368.327 176.102C368.327 175.365 369.135 174.897 369.965 174.897C370.878 174.897 371.627 175.517 371.627 176.336C371.627 177.015 371.101 177.588 370.41 177.928L368.947 177.05ZM369.521 178.653C369.568 178.677 370.902 179.496 371.101 179.625C371.288 179.73 371.897 180.105 371.897 180.807C371.897 181.708 370.949 182.27 369.989 182.27C368.947 182.27 368.058 181.556 368.058 180.596C368.058 179.718 368.713 179.028 369.521 178.653Z" fill="black"/>
</svg>
